<svg width="100%" height="100%" viewBox="0 0 287 329" fill="none" xmlns="http://www.w3.org/2000/svg">
<g filter="url(#filter0_d)">
<path fill-rule="evenodd" clip-rule="evenodd" d="M280.899 10C280.899 4.47715 276.422 0 270.899 0H10.8994C5.37657 0 0.899414 4.47714 0.899414 9.99999V313C0.899414 318.523 5.37656 323 10.8994 323H270.899C276.422 323 280.899 318.523 280.899 313V10ZM262.387 28.6346C262.387 23.1118 257.91 18.6346 252.387 18.6346H29.4115C23.8887 18.6346 19.4115 23.1118 19.4115 28.6346V203.522C19.4115 209.045 23.8887 213.522 29.4115 213.522H252.387C257.91 213.522 262.387 209.045 262.387 203.522V28.6346Z" fill="#B6F5FC"/>
</g>
<defs>
<filter id="filter0_d" x="0.899414" y="0" width="286" height="329" filterUnits="userSpaceOnUse" color-interpolation-filters="sRGB">
<feFlood flood-opacity="0" result="BackgroundImageFix"/>
<feColorMatrix in="SourceAlpha" type="matrix" values="0 0 0 0 0 0 0 0 0 0 0 0 0 0 0 0 0 0 127 0"/>
<feOffset dx="6" dy="6"/>
<feColorMatrix type="matrix" values="0 0 0 0 0 0 0 0 0 0 0 0 0 0 0 0 0 0 0.09 0"/>
<feBlend mode="normal" in2="BackgroundImageFix" result="effect1_dropShadow"/>
<feBlend mode="normal" in="SourceGraphic" in2="effect1_dropShadow" result="shape"/>
</filter>
</defs>
</svg>
