<svg width="100%" height="100%" viewBox="0 0 287 323" fill="none" xmlns="http://www.w3.org/2000/svg">
<mask id="mask0" mask-type="alpha" maskUnits="userSpaceOnUse" x="0" y="0" width="281" height="323">
<path fill-rule="evenodd" clip-rule="evenodd" d="M280.899 0H0.899414V323H280.899V0ZM262.387 18.6346H19.4115V213.522H262.387V18.6346Z" fill="#D7F9FD"/>
</mask>
<g mask="url(#mask0)">
<path d="M55.0745 5.84496C54.2238 5.84496 53.5858 6.05721 52.7351 6.26947C52.9478 5.63269 52.9478 4.99591 52.9478 4.35913C52.9478 -2.00865 47.8438 -7.10286 41.4638 -7.10286C39.3372 -7.10286 37.2105 -6.46609 35.5092 -5.40479C32.7445 -10.499 27.2152 -14.1074 21.0479 -14.1074C11.9032 -14.1074 4.67259 -6.67835 4.67259 2.23654C4.67259 2.87332 4.67259 3.51009 4.88526 4.35913C4.45993 4.35913 3.82193 4.14687 3.39659 4.14687C-1.70739 4.14687 -5.74805 8.17981 -5.74805 13.274C-5.74805 18.3683 -1.70739 22.4012 3.39659 22.4012C5.31059 22.4012 7.01192 21.7644 8.50058 20.7031C9.77658 24.0993 12.9666 26.4341 16.7946 26.4341C19.3465 26.4341 21.6859 25.3728 23.3872 23.4625C26.3645 25.5851 30.4052 26.8586 34.8712 26.8586C42.1018 26.8586 48.2691 23.4625 50.6085 18.7928C51.8845 19.6418 53.1605 20.0663 54.8618 20.0663C58.9025 20.0663 62.0924 16.8824 62.0924 12.8495C62.3051 9.02884 59.1151 5.84496 55.0745 5.84496Z" fill="white"/>
<path d="M148.648 5.84496C147.797 5.84496 147.159 6.05721 146.308 6.26947C146.521 5.63269 146.521 4.99591 146.521 4.35913C146.521 -2.00865 141.417 -7.10286 135.037 -7.10286C132.91 -7.10286 130.784 -6.46609 129.082 -5.40479C126.318 -10.499 120.788 -14.1074 114.621 -14.1074C105.476 -14.1074 98.2458 -6.67835 98.2458 2.23654C98.2458 2.87332 98.2458 3.51009 98.4585 4.35913C98.0332 4.35913 97.3952 4.14687 96.9699 4.14687C91.8659 4.14687 87.8252 8.17981 87.8252 13.274C87.8252 18.3683 91.8659 22.4012 96.9699 22.4012C98.8838 22.4012 100.585 21.7644 102.074 20.7031C103.35 24.0993 106.54 26.4341 110.368 26.4341C112.92 26.4341 115.259 25.3728 116.96 23.4625C119.938 25.5851 123.978 26.8586 128.444 26.8586C135.675 26.8586 141.842 23.4625 144.182 18.7928C145.458 19.6418 146.734 20.0663 148.435 20.0663C152.476 20.0663 155.666 16.8824 155.666 12.8495C155.878 9.02884 152.688 5.84496 148.648 5.84496Z" fill="white"/>
<path d="M242.22 5.84496C241.369 5.84496 240.731 6.05721 239.881 6.26947C240.093 5.63269 240.093 4.99591 240.093 4.35913C240.093 -2.00865 234.989 -7.10286 228.609 -7.10286C226.483 -7.10286 224.356 -6.46609 222.655 -5.40479C219.89 -10.499 214.361 -14.1074 208.193 -14.1074C199.049 -14.1074 191.818 -6.67835 191.818 2.23654C191.818 2.87332 191.818 3.51009 192.031 4.35913C191.605 4.35913 190.967 4.14687 190.542 4.14687C185.438 4.14687 181.397 8.17981 181.397 13.274C181.397 18.3683 185.438 22.4012 190.542 22.4012C192.456 22.4012 194.157 21.7644 195.646 20.7031C196.922 24.0993 200.112 26.4341 203.94 26.4341C206.492 26.4341 208.831 25.3728 210.533 23.4625C213.51 25.5851 217.551 26.8586 222.017 26.8586C229.247 26.8586 235.415 23.4625 237.754 18.7928C239.03 19.6418 240.306 20.0663 242.007 20.0663C246.048 20.0663 249.238 16.8824 249.238 12.8495C249.451 9.02884 246.048 5.84496 242.22 5.84496Z" fill="white"/>
<path d="M335.582 5.84477C334.732 5.84477 334.094 6.05702 333.243 6.26928C333.456 5.63251 333.456 4.99573 333.456 4.35896C333.456 -2.00876 328.352 -7.10292 321.972 -7.10292C319.845 -7.10292 317.718 -6.46616 316.017 -5.40487C313.252 -10.4991 307.723 -14.1074 301.556 -14.1074C292.411 -14.1074 285.18 -6.67842 285.18 2.23639C285.18 2.87316 285.18 3.50993 285.393 4.35896C284.968 4.35896 284.33 4.14671 283.904 4.14671C278.8 4.14671 274.76 8.1796 274.76 13.2738C274.76 18.368 278.8 22.4008 283.904 22.4008C285.818 22.4008 287.52 21.7641 289.008 20.7028C290.284 24.0989 293.474 26.4337 297.302 26.4337C299.854 26.4337 302.194 25.3724 303.895 23.4621C306.872 25.5847 310.913 26.8582 315.379 26.8582C322.61 26.8582 328.777 23.4621 331.116 18.7925C332.392 19.6415 333.668 20.066 335.37 20.066C339.41 20.066 342.6 16.8821 342.6 12.8493C342.813 9.02862 339.623 5.84477 335.582 5.84477Z" fill="white"/>
<path d="M8.50026 52.542C7.64959 52.542 7.01159 52.7543 6.16093 52.9665C6.37359 52.3298 6.37359 51.693 6.37359 51.0562C6.37359 44.6885 1.2696 39.5943 -5.11038 39.5943C-7.23705 39.5943 -9.3637 40.2311 -11.065 41.2924C-13.8297 36.1982 -19.359 32.5898 -25.5263 32.5898C-34.671 32.5898 -41.9016 40.0188 -41.9016 48.9337C-41.9016 49.5704 -41.9016 50.2072 -41.689 51.0562C-42.1143 51.0562 -42.7523 50.844 -43.1776 50.844C-48.2816 50.844 -52.3223 54.8769 -52.3223 59.971C-52.3223 65.0652 -48.2816 69.0981 -43.1776 69.0981C-41.2636 69.0981 -39.5623 68.4613 -38.0736 67.4001C-36.7976 70.7962 -33.6076 73.131 -29.7797 73.131C-27.2277 73.131 -24.8883 72.0697 -23.187 70.1594C-20.2097 72.282 -16.169 73.5555 -11.703 73.5555C-4.47238 73.5555 1.69494 70.1594 4.03426 65.4897C5.31026 66.3388 6.58626 66.7633 8.28759 66.7633C12.3282 66.7633 15.5182 63.5794 15.5182 59.5465C15.7309 55.7259 12.3282 52.542 8.50026 52.542Z" fill="white"/>
<path d="M101.862 52.542C101.011 52.542 100.373 52.7543 99.5222 52.9665C99.7349 52.3298 99.7349 51.693 99.7349 51.0562C99.7349 44.6885 94.6309 39.5943 88.2509 39.5943C86.1243 39.5943 83.9976 40.2311 82.2963 41.2924C79.5316 36.1982 74.0023 32.5898 67.835 32.5898C58.6903 32.5898 51.4597 40.0188 51.4597 48.9337C51.4597 49.5704 51.4597 50.2072 51.6724 51.0562C51.247 51.0562 50.609 50.844 50.1837 50.844C45.0797 50.844 41.0391 54.8769 41.0391 59.971C41.0391 65.0652 45.0797 69.0981 50.1837 69.0981C52.0977 69.0981 53.799 68.4613 55.2877 67.4001C56.5637 70.7962 59.7537 73.131 63.5817 73.131C66.1337 73.131 68.473 72.0697 70.1743 70.1594C73.1516 72.282 77.1923 73.5555 81.6583 73.5555C88.8889 73.5555 95.0563 70.1594 97.3956 65.4897C98.6716 66.3388 99.9476 66.7633 101.649 66.7633C105.69 66.7633 108.88 63.5794 108.88 59.5465C109.092 55.7259 105.902 52.542 101.862 52.542Z" fill="white"/>
<path d="M195.434 52.5412C194.583 52.5412 193.945 52.7535 193.095 52.9658C193.307 52.329 193.307 51.6922 193.307 51.0554C193.307 44.6876 188.203 39.5934 181.823 39.5934C179.697 39.5934 177.57 40.2302 175.869 41.2915C173.104 36.1973 167.575 32.5889 161.407 32.5889C152.263 32.5889 145.032 40.0179 145.032 48.9328C145.032 49.5696 145.032 50.2064 145.245 51.0554C144.819 51.0554 144.181 50.8432 143.756 50.8432C138.652 50.8432 134.611 54.8761 134.611 59.9703C134.611 65.0645 138.652 69.0975 143.756 69.0975C145.67 69.0975 147.371 68.4607 148.86 67.3994C150.136 70.7955 153.326 73.1304 157.154 73.1304C159.706 73.1304 162.045 72.0691 163.747 70.1588C166.724 72.2813 170.765 73.5549 175.231 73.5549C182.461 73.5549 188.629 70.1588 190.968 65.4891C192.244 66.3381 193.52 66.7626 195.221 66.7626C199.262 66.7626 202.452 63.5787 202.452 59.5458C202.665 55.7251 199.475 52.5412 195.434 52.5412Z" fill="white"/>
<path d="M288.797 52.5411C287.946 52.5411 287.308 52.7533 286.458 52.9656C286.67 52.3288 286.67 51.692 286.67 51.0552C286.67 44.6875 281.566 39.5934 275.187 39.5934C273.06 39.5934 270.933 40.2301 269.232 41.2914C266.467 36.1972 260.938 32.5889 254.771 32.5889C245.626 32.5889 238.395 40.0179 238.395 48.9327C238.395 49.5694 238.395 50.2062 238.608 51.0552C238.183 51.0552 237.545 50.843 237.119 50.843C232.015 50.843 227.975 54.8759 227.975 59.9701C227.975 65.0642 232.015 69.0971 237.119 69.0971C239.033 69.0971 240.735 68.4604 242.223 67.3991C243.499 70.7952 246.689 73.13 250.517 73.13C253.069 73.13 255.409 72.0687 257.11 70.1584C260.087 72.281 264.128 73.5545 268.594 73.5545C275.824 73.5545 281.992 70.1584 284.331 65.4888C285.607 66.3378 286.883 66.7623 288.584 66.7623C292.625 66.7623 295.815 63.5784 295.815 59.5455C296.028 55.7249 292.838 52.5411 288.797 52.5411Z" fill="white"/>
<path d="M55.0745 99.2397C54.2238 99.2397 53.5858 99.4519 52.7351 99.6642C52.9478 99.0274 52.9478 98.3906 52.9478 97.7538C52.9478 91.386 47.8438 86.2917 41.4638 86.2917C39.3372 86.2917 37.2105 86.9285 35.5092 87.9898C32.7445 82.8956 27.2152 79.2871 21.0479 79.2871C11.9032 79.2871 4.67259 86.7162 4.67259 95.6312C4.67259 96.268 4.67259 96.9048 4.88526 97.7538C4.45993 97.7538 3.82193 97.5416 3.39659 97.5416C-1.70739 97.5416 -5.74805 101.575 -5.74805 106.669C-5.74805 111.763 -1.70739 115.796 3.39659 115.796C5.31059 115.796 7.01192 115.159 8.50058 114.098C9.77658 117.494 12.9666 119.829 16.7946 119.829C19.3465 119.829 21.6859 118.768 23.3872 116.857C26.3645 118.98 30.4052 120.254 34.8712 120.254C42.1018 120.254 48.2691 116.857 50.6085 112.188C51.8845 113.037 53.1605 113.461 54.8618 113.461C58.9025 113.461 62.0924 110.277 62.0924 106.244C62.3051 102.424 59.1151 99.2397 55.0745 99.2397Z" fill="white"/>
<path d="M148.648 99.2387C147.797 99.2387 147.159 99.451 146.308 99.6632C146.521 99.0264 146.521 98.3896 146.521 97.7529C146.521 91.385 141.417 86.2908 135.037 86.2908C132.91 86.2908 130.784 86.9276 129.082 87.9889C126.318 82.8946 120.788 79.2861 114.621 79.2861C105.476 79.2861 98.2458 86.7153 98.2458 95.6302C98.2458 96.267 98.2458 96.9038 98.4585 97.7529C98.0332 97.7529 97.3952 97.5406 96.9699 97.5406C91.8659 97.5406 87.8252 101.574 87.8252 106.668C87.8252 111.762 91.8659 115.795 96.9699 115.795C98.8838 115.795 100.585 115.158 102.074 114.097C103.35 117.493 106.54 119.828 110.368 119.828C112.92 119.828 115.259 118.767 116.96 116.856C119.938 118.979 123.978 120.253 128.444 120.253C135.675 120.253 141.842 116.856 144.182 112.187C145.458 113.036 146.734 113.46 148.435 113.46C152.476 113.46 155.666 110.276 155.666 106.243C155.878 102.423 152.688 99.2387 148.648 99.2387Z" fill="white"/>
<path d="M242.22 99.2395C241.369 99.2395 240.731 99.4518 239.881 99.664C240.093 99.0272 240.093 98.3904 240.093 97.7537C240.093 91.3859 234.989 86.2917 228.609 86.2917C226.483 86.2917 224.356 86.9285 222.655 87.9898C219.89 82.8955 214.361 79.2871 208.193 79.2871C199.049 79.2871 191.818 86.7162 191.818 95.6311C191.818 96.2678 191.818 96.9046 192.031 97.7537C191.605 97.7537 190.967 97.5414 190.542 97.5414C185.438 97.5414 181.397 101.574 181.397 106.669C181.397 111.763 185.438 115.796 190.542 115.796C192.456 115.796 194.157 115.159 195.646 114.098C196.922 117.494 200.112 119.829 203.94 119.829C206.492 119.829 208.831 118.767 210.533 116.857C213.51 118.98 217.551 120.253 222.017 120.253C229.247 120.253 235.415 116.857 237.754 112.187C239.03 113.036 240.306 113.461 242.007 113.461C246.048 113.461 249.238 110.277 249.238 106.244C249.451 102.423 246.048 99.2395 242.22 99.2395Z" fill="white"/>
<path d="M335.582 99.2387C334.732 99.2387 334.094 99.451 333.243 99.6632C333.456 99.0264 333.456 98.3896 333.456 97.7529C333.456 91.385 328.352 86.2908 321.972 86.2908C319.845 86.2908 317.718 86.9276 316.017 87.9889C313.252 82.8946 307.723 79.2861 301.556 79.2861C292.411 79.2861 285.18 86.7153 285.18 95.6302C285.18 96.267 285.18 96.9038 285.393 97.7529C284.968 97.7529 284.33 97.5406 283.904 97.5406C278.8 97.5406 274.76 101.574 274.76 106.668C274.76 111.762 278.8 115.795 283.904 115.795C285.818 115.795 287.52 115.158 289.008 114.097C290.284 117.493 293.474 119.828 297.302 119.828C299.854 119.828 302.194 118.767 303.895 116.856C306.872 118.979 310.913 120.253 315.379 120.253C322.61 120.253 328.777 116.856 331.116 112.187C332.392 113.036 333.668 113.46 335.37 113.46C339.41 113.46 342.6 110.276 342.6 106.243C342.813 102.423 339.623 99.2387 335.582 99.2387Z" fill="white"/>
<path d="M8.50026 145.724C7.64959 145.724 7.01159 145.936 6.16093 146.149C6.37359 145.512 6.37359 144.875 6.37359 144.238C6.37359 137.87 1.2696 132.776 -5.11038 132.776C-7.23705 132.776 -9.3637 133.413 -11.065 134.474C-13.8297 129.38 -19.359 125.771 -25.5263 125.771C-34.671 125.771 -41.9016 133.201 -41.9016 142.116C-41.9016 142.752 -41.9016 143.389 -41.689 144.238C-42.1143 144.238 -42.7523 144.026 -43.1776 144.026C-48.2816 144.026 -52.3223 148.059 -52.3223 153.153C-52.3223 158.247 -48.2816 162.28 -43.1776 162.28C-41.2636 162.28 -39.5623 161.644 -38.0736 160.582C-36.7976 163.979 -33.6076 166.313 -29.7797 166.313C-27.2277 166.313 -24.8883 165.252 -23.187 163.342C-20.2097 165.464 -16.169 166.738 -11.703 166.738C-4.47238 166.738 1.69494 163.342 4.03426 158.672C5.31026 159.521 6.58626 159.946 8.28759 159.946C12.3282 159.946 15.5182 156.762 15.5182 152.729C15.7309 149.12 12.3282 145.724 8.50026 145.724Z" fill="white"/>
<path d="M101.862 145.724C101.011 145.724 100.373 145.936 99.5222 146.148C99.7349 145.512 99.7349 144.875 99.7349 144.238C99.7349 137.87 94.6309 132.776 88.2509 132.776C86.1243 132.776 83.9976 133.413 82.2963 134.474C79.5316 129.38 74.0023 125.771 67.835 125.771C58.6903 125.771 51.4597 133.201 51.4597 142.115C51.4597 142.752 51.4597 143.389 51.6724 144.238C51.247 144.238 50.609 144.026 50.1837 144.026C45.0797 144.026 41.0391 148.059 41.0391 153.153C41.0391 158.247 45.0797 162.28 50.1837 162.28C52.0977 162.28 53.799 161.643 55.2877 160.582C56.5637 163.978 59.7537 166.313 63.5817 166.313C66.1337 166.313 68.473 165.252 70.1743 163.341C73.1516 165.464 77.1923 166.738 81.6583 166.738C88.8889 166.738 95.0563 163.341 97.3956 158.672C98.6716 159.521 99.9476 159.945 101.649 159.945C105.69 159.945 108.88 156.761 108.88 152.728C109.092 149.12 105.902 145.724 101.862 145.724Z" fill="white"/>
<path d="M195.434 145.724C194.583 145.724 193.945 145.936 193.095 146.149C193.307 145.512 193.307 144.875 193.307 144.238C193.307 137.87 188.203 132.776 181.823 132.776C179.697 132.776 177.57 133.413 175.869 134.474C173.104 129.38 167.575 125.771 161.407 125.771C152.263 125.771 145.032 133.201 145.032 142.116C145.032 142.752 145.032 143.389 145.245 144.238C144.819 144.238 144.181 144.026 143.756 144.026C138.652 144.026 134.611 148.059 134.611 153.153C134.611 158.247 138.652 162.28 143.756 162.28C145.67 162.28 147.371 161.644 148.86 160.582C150.136 163.979 153.326 166.313 157.154 166.313C159.706 166.313 162.045 165.252 163.747 163.342C166.724 165.464 170.765 166.738 175.231 166.738C182.461 166.738 188.629 163.342 190.968 158.672C192.244 159.521 193.52 159.946 195.221 159.946C199.262 159.946 202.452 156.762 202.452 152.729C202.665 149.12 199.475 145.724 195.434 145.724Z" fill="white"/>
<path d="M288.797 145.724C287.946 145.724 287.308 145.936 286.458 146.148C286.67 145.512 286.67 144.875 286.67 144.238C286.67 137.87 281.566 132.776 275.187 132.776C273.06 132.776 270.933 133.413 269.232 134.474C266.467 129.38 260.938 125.771 254.771 125.771C245.626 125.771 238.395 133.201 238.395 142.115C238.395 142.752 238.395 143.389 238.608 144.238C238.183 144.238 237.545 144.026 237.119 144.026C232.015 144.026 227.975 148.059 227.975 153.153C227.975 158.247 232.015 162.28 237.119 162.28C239.033 162.28 240.735 161.643 242.223 160.582C243.499 163.978 246.689 166.313 250.517 166.313C253.069 166.313 255.409 165.252 257.11 163.341C260.087 165.464 264.128 166.738 268.594 166.738C275.824 166.738 281.992 163.341 284.331 158.672C285.607 159.521 286.883 159.945 288.584 159.945C292.625 159.945 295.815 156.761 295.815 152.728C296.028 149.12 292.838 145.724 288.797 145.724Z" fill="white"/>
</g>
</svg>
