<svg width="368" height="416" viewBox="0 0 368 416" fill="none" xmlns="http://www.w3.org/2000/svg">
<mask id="mask0" mask-type="alpha" maskUnits="userSpaceOnUse" x="0" y="0" width="362" height="416">
<path fill-rule="evenodd" clip-rule="evenodd" d="M362 0H0V416H362V0ZM338.066 24H23.9339V275H338.066V24Z" fill="#D7F9FD"/>
</mask>
<g mask="url(#mask0)">
<path d="M70.2329 11.2585C69.1301 11.2585 68.303 11.5318 67.2002 11.8052C67.4759 10.9851 67.4759 10.165 67.4759 9.34485C67.4759 1.1437 60.8589 -5.4172 52.5877 -5.4172C49.8306 -5.4172 47.0736 -4.5971 44.8679 -3.23024C41.2837 -9.79116 34.1154 -14.4385 26.1199 -14.4385C14.2645 -14.4385 4.89048 -4.87048 4.89048 6.61113C4.89048 7.43125 4.89048 8.25136 5.16619 9.34485C4.61477 9.34485 3.78765 9.07148 3.23624 9.07148C-3.38072 9.07148 -8.61914 14.2656 -8.61914 20.8265C-8.61914 27.3874 -3.38072 32.5814 3.23624 32.5814C5.7176 32.5814 7.92325 31.7613 9.8532 30.3945C11.5074 34.7684 15.643 37.7755 20.6057 37.7755C23.9142 37.7755 26.947 36.4086 29.1527 33.9483C33.0125 36.682 38.251 38.3223 44.0408 38.3223C53.4148 38.3223 61.4103 33.9483 64.4431 27.9341C66.0973 29.0276 67.7516 29.5744 69.9572 29.5744C75.1956 29.5744 79.3312 25.4738 79.3312 20.2797C79.607 15.359 75.4713 11.2585 70.2329 11.2585Z" fill="white"/>
<path d="M191.543 11.2585C190.441 11.2585 189.614 11.5318 188.511 11.8052C188.786 10.9851 188.786 10.165 188.786 9.34485C188.786 1.1437 182.169 -5.4172 173.898 -5.4172C171.141 -5.4172 168.384 -4.5971 166.178 -3.23024C162.594 -9.79116 155.426 -14.4385 147.43 -14.4385C135.575 -14.4385 126.201 -4.87048 126.201 6.61113C126.201 7.43125 126.201 8.25136 126.477 9.34485C125.925 9.34485 125.098 9.07148 124.547 9.07148C117.93 9.07148 112.691 14.2656 112.691 20.8265C112.691 27.3874 117.93 32.5814 124.547 32.5814C127.028 32.5814 129.234 31.7613 131.164 30.3945C132.818 34.7684 136.954 37.7755 141.916 37.7755C145.225 37.7755 148.258 36.4086 150.463 33.9483C154.323 36.682 159.562 38.3223 165.351 38.3223C174.725 38.3223 182.721 33.9483 185.754 27.9341C187.408 29.0276 189.062 29.5744 191.268 29.5744C196.506 29.5744 200.642 25.4738 200.642 20.2797C200.918 15.359 196.782 11.2585 191.543 11.2585Z" fill="white"/>
<path d="M312.855 11.2585C311.752 11.2585 310.925 11.5318 309.822 11.8052C310.098 10.9851 310.098 10.165 310.098 9.34485C310.098 1.1437 303.481 -5.4172 295.21 -5.4172C292.453 -5.4172 289.696 -4.5971 287.49 -3.23024C283.906 -9.79116 276.737 -14.4385 268.742 -14.4385C256.887 -14.4385 247.513 -4.87048 247.513 6.61113C247.513 7.43125 247.513 8.25136 247.788 9.34485C247.237 9.34485 246.41 9.07148 245.858 9.07148C239.241 9.07148 234.003 14.2656 234.003 20.8265C234.003 27.3874 239.241 32.5814 245.858 32.5814C248.34 32.5814 250.545 31.7613 252.475 30.3945C254.13 34.7684 258.265 37.7755 263.228 37.7755C266.536 37.7755 269.569 36.4086 271.775 33.9483C275.635 36.682 280.873 38.3223 286.663 38.3223C296.037 38.3223 304.032 33.9483 307.065 27.9341C308.719 29.0276 310.374 29.5744 312.579 29.5744C317.818 29.5744 321.953 25.4738 321.953 20.2797C322.229 15.359 317.818 11.2585 312.855 11.2585Z" fill="white"/>
<path d="M433.891 11.2582C432.788 11.2582 431.961 11.5316 430.858 11.805C431.134 10.9848 431.134 10.1647 431.134 9.34463C431.134 1.14356 424.517 -5.41729 416.246 -5.41729C413.489 -5.41729 410.732 -4.59719 408.526 -3.23035C404.942 -9.79121 397.774 -14.4385 389.778 -14.4385C377.923 -14.4385 368.549 -4.87056 368.549 6.61094C368.549 7.43105 368.549 8.25115 368.824 9.34463C368.273 9.34463 367.446 9.07127 366.894 9.07127C360.277 9.07127 355.039 14.2653 355.039 20.8261C355.039 27.387 360.277 32.581 366.894 32.581C369.376 32.581 371.581 31.7609 373.511 30.3941C375.166 34.768 379.301 37.775 384.264 37.775C387.572 37.775 390.605 36.4082 392.811 33.9479C396.671 36.6815 401.909 38.3218 407.699 38.3218C417.073 38.3218 425.069 33.9479 428.101 27.9337C429.756 29.0272 431.41 29.574 433.615 29.574C438.854 29.574 442.989 25.4734 442.989 20.2794C443.265 15.3588 439.13 11.2582 433.891 11.2582Z" fill="white"/>
<path d="M9.85206 71.4013C8.74924 71.4013 7.92211 71.6746 6.81929 71.948C7.09499 71.1279 7.09499 70.3078 7.09499 69.4876C7.09499 61.2864 0.478035 54.7255 -7.79316 54.7255C-10.5502 54.7255 -13.3073 55.5456 -15.5129 56.9124C-19.0971 50.3515 -26.2655 45.7041 -34.261 45.7041C-46.1164 45.7041 -55.4904 55.2722 -55.4904 66.7539C-55.4904 67.574 -55.4904 68.3942 -55.2147 69.4876C-55.7661 69.4876 -56.5932 69.2143 -57.1446 69.2143C-63.7616 69.2143 -69 74.4084 -69 80.9694C-69 87.5304 -63.7616 92.7245 -57.1446 92.7245C-54.6633 92.7245 -52.4576 91.9043 -50.5277 90.5375C-48.8734 94.9115 -44.7378 97.9186 -39.7751 97.9186C-36.4666 97.9186 -33.4339 96.5517 -31.2282 94.0913C-27.3683 96.8251 -22.1299 98.4653 -16.3401 98.4653C-6.96603 98.4653 1.02945 94.0913 4.06223 88.0771C5.71646 89.1706 7.3707 89.7173 9.57635 89.7173C14.8148 89.7173 18.9504 85.6167 18.9504 80.4226C19.2261 75.5019 14.8148 71.4013 9.85206 71.4013Z" fill="white"/>
<path d="M130.888 71.4013C129.785 71.4013 128.958 71.6746 127.855 71.948C128.131 71.1279 128.131 70.3078 128.131 69.4876C128.131 61.2864 121.514 54.7255 113.243 54.7255C110.486 54.7255 107.729 55.5456 105.523 56.9124C101.939 50.3515 94.7706 45.7041 86.7752 45.7041C74.9198 45.7041 65.5458 55.2722 65.5458 66.7539C65.5458 67.574 65.5458 68.3942 65.8215 69.4876C65.27 69.4876 64.4429 69.2143 63.8915 69.2143C57.2746 69.2143 52.0361 74.4084 52.0361 80.9694C52.0361 87.5304 57.2746 92.7245 63.8915 92.7245C66.3729 92.7245 68.5785 91.9043 70.5085 90.5375C72.1627 94.9115 76.2983 97.9186 81.261 97.9186C84.5695 97.9186 87.6023 96.5517 89.8079 94.0913C93.6678 96.8251 98.9062 98.4653 104.696 98.4653C114.07 98.4653 122.066 94.0913 125.098 88.0771C126.753 89.1706 128.407 89.7173 130.612 89.7173C135.851 89.7173 139.987 85.6167 139.987 80.4226C140.262 75.5019 136.127 71.4013 130.888 71.4013Z" fill="white"/>
<path d="M252.199 71.4008C251.096 71.4008 250.269 71.6742 249.166 71.9475C249.442 71.1274 249.442 70.3073 249.442 69.4872C249.442 61.2859 242.825 54.725 234.554 54.725C231.796 54.725 229.039 55.5451 226.834 56.912C223.25 50.351 216.081 45.7036 208.086 45.7036C196.23 45.7036 186.856 55.2717 186.856 66.7534C186.856 67.5735 186.856 68.3937 187.132 69.4872C186.581 69.4872 185.753 69.2138 185.202 69.2138C178.585 69.2138 173.347 74.4079 173.347 80.9689C173.347 87.5299 178.585 92.724 185.202 92.724C187.683 92.724 189.889 91.9039 191.819 90.537C193.473 94.911 197.609 97.9181 202.572 97.9181C205.88 97.9181 208.913 96.5512 211.118 94.0908C214.978 96.8246 220.217 98.4648 226.007 98.4648C235.381 98.4648 243.376 94.0908 246.409 88.0766C248.063 89.1701 249.717 89.7169 251.923 89.7169C257.161 89.7169 261.297 85.6162 261.297 80.4221C261.573 75.5014 257.437 71.4008 252.199 71.4008Z" fill="white"/>
<path d="M373.235 71.4006C372.132 71.4006 371.305 71.6739 370.202 71.9473C370.478 71.1272 370.478 70.3071 370.478 69.4869C370.478 61.2858 363.861 54.7249 355.59 54.7249C352.833 54.7249 350.076 55.545 347.87 56.9118C344.286 50.3509 337.117 45.7036 329.122 45.7036C317.266 45.7036 307.892 55.2716 307.892 66.7532C307.892 67.5733 307.892 68.3935 308.168 69.4869C307.617 69.4869 306.79 69.2136 306.238 69.2136C299.621 69.2136 294.383 74.4076 294.383 80.9686C294.383 87.5295 299.621 92.7235 306.238 92.7235C308.72 92.7235 310.925 91.9034 312.855 90.5366C314.509 94.9105 318.645 97.9176 323.608 97.9176C326.916 97.9176 329.949 96.5507 332.155 94.0904C336.015 96.8241 341.253 98.4644 347.043 98.4644C356.417 98.4644 364.412 94.0904 367.445 88.0762C369.099 89.1697 370.754 89.7164 372.959 89.7164C378.198 89.7164 382.333 85.6159 382.333 80.4218C382.609 75.5011 378.473 71.4006 373.235 71.4006Z" fill="white"/>
<path d="M70.2329 131.544C69.1301 131.544 68.303 131.817 67.2002 132.09C67.4759 131.27 67.4759 130.45 67.4759 129.63C67.4759 121.429 60.8589 114.868 52.5877 114.868C49.8306 114.868 47.0736 115.688 44.8679 117.055C41.2837 110.494 34.1154 105.847 26.1199 105.847C14.2645 105.847 4.89048 115.415 4.89048 126.896C4.89048 127.716 4.89048 128.537 5.16619 129.63C4.61477 129.63 3.78765 129.357 3.23624 129.357C-3.38072 129.357 -8.61914 134.551 -8.61914 141.112C-8.61914 147.673 -3.38072 152.867 3.23624 152.867C5.7176 152.867 7.92325 152.046 9.8532 150.68C11.5074 155.054 15.643 158.061 20.6057 158.061C23.9142 158.061 26.947 156.694 29.1527 154.233C33.0125 156.967 38.251 158.607 44.0408 158.607C53.4148 158.607 61.4103 154.233 64.4431 148.219C66.0973 149.313 67.7516 149.86 69.9572 149.86C75.1956 149.86 79.3312 145.759 79.3312 140.565C79.607 135.644 75.4713 131.544 70.2329 131.544Z" fill="white"/>
<path d="M191.543 131.544C190.441 131.544 189.614 131.817 188.511 132.09C188.786 131.27 188.786 130.45 188.786 129.63C188.786 121.429 182.169 114.868 173.898 114.868C171.141 114.868 168.384 115.688 166.178 117.055C162.594 110.494 155.426 105.847 147.43 105.847C135.575 105.847 126.201 115.415 126.201 126.896C126.201 127.716 126.201 128.537 126.477 129.63C125.925 129.63 125.098 129.357 124.547 129.357C117.93 129.357 112.691 134.551 112.691 141.112C112.691 147.673 117.93 152.867 124.547 152.867C127.028 152.867 129.234 152.046 131.164 150.68C132.818 155.054 136.954 158.061 141.916 158.061C145.225 158.061 148.258 156.694 150.463 154.233C154.323 156.967 159.562 158.607 165.351 158.607C174.725 158.607 182.721 154.233 185.754 148.219C187.408 149.313 189.062 149.86 191.268 149.86C196.506 149.86 200.642 145.759 200.642 140.565C200.918 135.644 196.782 131.544 191.543 131.544Z" fill="white"/>
<path d="M312.855 131.544C311.752 131.544 310.925 131.817 309.822 132.091C310.098 131.27 310.098 130.45 310.098 129.63C310.098 121.429 303.481 114.868 295.21 114.868C292.453 114.868 289.696 115.688 287.49 117.055C283.906 110.494 276.737 105.847 268.742 105.847C256.887 105.847 247.513 115.415 247.513 126.896C247.513 127.717 247.513 128.537 247.788 129.63C247.237 129.63 246.41 129.357 245.858 129.357C239.241 129.357 234.003 134.551 234.003 141.112C234.003 147.673 239.241 152.867 245.858 152.867C248.34 152.867 250.545 152.047 252.475 150.68C254.13 155.054 258.265 158.061 263.228 158.061C266.536 158.061 269.569 156.694 271.775 154.234C275.635 156.968 280.873 158.608 286.663 158.608C296.037 158.608 304.032 154.234 307.065 148.22C308.719 149.313 310.374 149.86 312.579 149.86C317.818 149.86 321.953 145.759 321.953 140.565C322.229 135.644 317.818 131.544 312.855 131.544Z" fill="white"/>
<path d="M433.891 131.543C432.788 131.543 431.961 131.817 430.858 132.09C431.134 131.27 431.134 130.45 431.134 129.63C431.134 121.428 424.517 114.867 416.246 114.867C413.489 114.867 410.732 115.688 408.526 117.054C404.942 110.494 397.774 105.846 389.778 105.846C377.923 105.846 368.549 115.414 368.549 126.896C368.549 127.716 368.549 128.536 368.824 129.63C368.273 129.63 367.446 129.356 366.894 129.356C360.277 129.356 355.039 134.55 355.039 141.111C355.039 147.672 360.277 152.866 366.894 152.866C369.376 152.866 371.581 152.046 373.511 150.679C375.166 155.053 379.301 158.06 384.264 158.06C387.572 158.06 390.605 156.693 392.811 154.233C396.671 156.967 401.909 158.607 407.699 158.607C417.073 158.607 425.069 154.233 428.101 148.219C429.756 149.312 431.41 149.859 433.615 149.859C438.854 149.859 442.989 145.758 442.989 140.564C443.265 135.644 439.13 131.543 433.891 131.543Z" fill="white"/>
<path d="M9.85206 191.412C8.74924 191.412 7.92211 191.685 6.81929 191.959C7.09499 191.139 7.09499 190.319 7.09499 189.498C7.09499 181.297 0.478035 174.736 -7.79316 174.736C-10.5502 174.736 -13.3073 175.556 -15.5129 176.923C-19.0971 170.362 -26.2655 165.715 -34.261 165.715C-46.1164 165.715 -55.4904 175.283 -55.4904 186.765C-55.4904 187.585 -55.4904 188.405 -55.2147 189.498C-55.7661 189.498 -56.5932 189.225 -57.1446 189.225C-63.7616 189.225 -69 194.419 -69 200.98C-69 207.541 -63.7616 212.735 -57.1446 212.735C-54.6633 212.735 -52.4576 211.915 -50.5277 210.548C-48.8734 214.922 -44.7378 217.929 -39.7751 217.929C-36.4666 217.929 -33.4339 216.562 -31.2282 214.102C-27.3683 216.836 -22.1299 218.476 -16.3401 218.476C-6.96603 218.476 1.02945 214.102 4.06223 208.088C5.71646 209.181 7.3707 209.728 9.57635 209.728C14.8148 209.728 18.9504 205.628 18.9504 200.433C19.2261 195.786 14.8148 191.412 9.85206 191.412Z" fill="white"/>
<path d="M130.888 191.412C129.785 191.412 128.958 191.685 127.855 191.958C128.131 191.138 128.131 190.318 128.131 189.498C128.131 181.297 121.514 174.736 113.243 174.736C110.486 174.736 107.729 175.556 105.523 176.923C101.939 170.362 94.7706 165.714 86.7752 165.714C74.9198 165.714 65.5458 175.282 65.5458 186.764C65.5458 187.584 65.5458 188.404 65.8215 189.498C65.27 189.498 64.4429 189.225 63.8915 189.225C57.2746 189.225 52.0361 194.419 52.0361 200.98C52.0361 207.541 57.2746 212.735 63.8915 212.735C66.3729 212.735 68.5785 211.915 70.5085 210.548C72.1627 214.922 76.2983 217.929 81.261 217.929C84.5695 217.929 87.6023 216.562 89.8079 214.102C93.6678 216.835 98.9062 218.476 104.696 218.476C114.07 218.476 122.066 214.102 125.098 208.087C126.753 209.181 128.407 209.728 130.612 209.728C135.851 209.728 139.987 205.627 139.987 200.433C140.262 195.786 136.127 191.412 130.888 191.412Z" fill="white"/>
<path d="M252.199 191.412C251.096 191.412 250.269 191.685 249.166 191.959C249.442 191.139 249.442 190.319 249.442 189.498C249.442 181.297 242.825 174.736 234.554 174.736C231.796 174.736 229.039 175.556 226.834 176.923C223.25 170.362 216.081 165.715 208.086 165.715C196.23 165.715 186.856 175.283 186.856 186.765C186.856 187.585 186.856 188.405 187.132 189.498C186.581 189.498 185.753 189.225 185.202 189.225C178.585 189.225 173.347 194.419 173.347 200.98C173.347 207.541 178.585 212.735 185.202 212.735C187.683 212.735 189.889 211.915 191.819 210.548C193.473 214.922 197.609 217.929 202.572 217.929C205.88 217.929 208.913 216.562 211.118 214.102C214.978 216.836 220.217 218.476 226.007 218.476C235.381 218.476 243.376 214.102 246.409 208.088C248.063 209.181 249.717 209.728 251.923 209.728C257.161 209.728 261.297 205.628 261.297 200.433C261.573 195.786 257.437 191.412 252.199 191.412Z" fill="white"/>
<path d="M373.235 191.412C372.132 191.412 371.305 191.685 370.202 191.958C370.478 191.138 370.478 190.318 370.478 189.498C370.478 181.297 363.861 174.736 355.59 174.736C352.833 174.736 350.076 175.556 347.87 176.923C344.286 170.362 337.117 165.714 329.122 165.714C317.266 165.714 307.892 175.282 307.892 186.764C307.892 187.584 307.892 188.404 308.168 189.498C307.617 189.498 306.79 189.225 306.238 189.225C299.621 189.225 294.383 194.419 294.383 200.98C294.383 207.541 299.621 212.735 306.238 212.735C308.72 212.735 310.925 211.915 312.855 210.548C314.509 214.922 318.645 217.929 323.608 217.929C326.916 217.929 329.949 216.562 332.155 214.102C336.015 216.835 341.253 218.476 347.043 218.476C356.417 218.476 364.412 214.102 367.445 208.087C369.099 209.181 370.754 209.728 372.959 209.728C378.198 209.728 382.333 205.627 382.333 200.433C382.609 195.786 378.473 191.412 373.235 191.412Z" fill="white"/>
</g>
</svg>
