<svg width="100%" height="100%" viewBox="0 0 280 321" fill="none" xmlns="http://www.w3.org/2000/svg">
<mask id="mask0" mask-type="alpha" maskUnits="userSpaceOnUse" x="0" y="0" width="280" height="321">
<path fill-rule="evenodd" clip-rule="evenodd" d="M280 0H0V320.882H280V0ZM261.487 18.5124H18.512V212.121H261.487V18.5124Z" fill="#FFE6AE"/>
</mask>
<g mask="url(#mask0)">
<path d="M0.911519 0.0546875L3.33483 4.94305L8.7664 5.68872L4.83896 9.49999L5.75815 14.8855L0.911519 12.317L-3.93511 14.8855L-3.01592 9.49999L-6.94336 5.68872L-1.51179 4.94305L0.911519 0.0546875Z" fill="white"/>
<path d="M23.9756 3.45117L25.229 6.10256L28.1537 6.51684L26.0646 8.58824L26.566 11.4053L23.9756 10.0796L21.3016 11.4053L21.8029 8.58824L19.7139 6.51684L22.6386 6.10256L23.9756 3.45117Z" fill="white"/>
<path d="M46.9545 0.0537109L49.3778 4.94207L54.8094 5.68775L50.8819 9.49901L51.8011 14.8845L46.9545 12.316L42.1079 14.8845L43.027 9.49901L39.0996 5.68775L44.5312 4.94207L46.9545 0.0537109Z" fill="white"/>
<path d="M70.018 3.45117L71.355 6.10243L74.2797 6.51669L72.1071 8.58799L72.6084 11.405L70.018 10.0793L67.4275 11.405L67.9289 8.58799L65.8398 6.51669L68.681 6.10243L70.018 3.45117Z" fill="white"/>
<path d="M93.0815 0.0537109L95.5048 4.94207L100.936 5.68775L97.0089 9.49901L97.9281 14.8845L93.0815 12.316L88.2348 14.8845L89.154 9.49901L85.2266 5.68775L90.6582 4.94207L93.0815 0.0537109Z" fill="white"/>
<path d="M116.145 3.45117L117.399 6.10243L120.324 6.51669L118.235 8.58799L118.736 11.405L116.145 10.0793L113.471 11.405L113.973 8.58799L111.884 6.51669L114.808 6.10243L116.145 3.45117Z" fill="white"/>
<path d="M139.124 0.0537109L141.548 4.94207L146.979 5.68775L143.052 9.49901L143.971 14.8845L139.124 12.316L134.278 14.8845L135.197 9.49901L131.27 5.68775L136.701 4.94207L139.124 0.0537109Z" fill="white"/>
<path d="M162.188 3.45117L163.525 6.10243L166.45 6.51669L164.277 8.58799L164.778 11.405L162.188 10.0793L159.597 11.405L160.099 8.58799L158.01 6.51669L160.851 6.10243L162.188 3.45117Z" fill="white"/>
<path d="M12.4428 17.2041L14.8661 22.0927L20.2976 22.8384L16.3702 26.6499L17.2894 31.9528L12.4428 29.467L7.59614 31.9528L8.51533 26.6499L4.58789 22.8384L10.0195 22.0927L12.4428 17.2041Z" fill="white"/>
<path d="M35.4233 20.6025L36.7603 23.2539L39.685 23.6682L37.5959 25.6568L38.0973 28.5567L35.4233 27.231L32.8328 28.5567L33.3342 25.6568L31.2451 23.6682L34.1698 23.2539L35.4233 20.6025Z" fill="white"/>
<path d="M58.4858 17.2051L60.9091 22.0936L66.3407 22.8393L62.4132 26.6506L63.3324 31.9534L58.4858 29.4677L53.6391 31.9534L54.5583 26.6506L50.6309 22.8393L56.0625 22.0936L58.4858 17.2051Z" fill="white"/>
<path d="M81.5488 20.6025L82.8858 23.2539L85.7269 23.6682L83.6379 25.6568L84.1393 28.5567L81.5488 27.231L78.9584 28.5567L79.4597 25.6568L77.2871 23.6682L80.2118 23.2539L81.5488 20.6025Z" fill="white"/>
<path d="M104.613 17.2051L107.036 22.0936L112.468 22.8393L108.54 26.6506L109.459 31.9534L104.613 29.4677L99.7661 31.9534L100.685 26.6506L96.7578 22.8393L102.189 22.0936L104.613 17.2051Z" fill="white"/>
<path d="M127.592 20.6025L128.929 23.2539L131.854 23.6682L129.765 25.6568L130.266 28.5567L127.592 27.231L125.002 28.5567L125.503 25.6568L123.414 23.6682L126.339 23.2539L127.592 20.6025Z" fill="white"/>
<path d="M150.656 17.2051L153.079 22.0936L158.511 22.8393L154.583 26.6506L155.502 31.9534L150.656 29.4677L145.809 31.9534L146.728 26.6506L142.801 22.8393L148.232 22.0936L150.656 17.2051Z" fill="white"/>
<path d="M173.719 20.6025L175.056 23.2539L177.897 23.6682L175.808 25.6568L176.309 28.5567L173.719 27.231L171.128 28.5567L171.63 25.6568L169.457 23.6682L172.382 23.2539L173.719 20.6025Z" fill="white"/>
<path d="M0.911519 34.3564L3.33483 39.1621L8.7664 39.9906L4.83896 43.802L5.75815 49.1047L0.911519 46.6191L-3.93511 49.1047L-3.01592 43.802L-6.94336 39.9906L-1.51179 39.1621L0.911519 34.3564Z" fill="white"/>
<path d="M23.9756 37.7529L25.229 40.3213L28.1537 40.8185L26.0646 42.8069L26.566 45.7067L23.9756 44.2982L21.3016 45.7067L21.8029 42.8069L19.7139 40.8185L22.6386 40.3213L23.9756 37.7529Z" fill="white"/>
<path d="M46.9545 34.3564L49.3778 39.1621L54.8094 39.9906L50.8819 43.802L51.8011 49.1047L46.9545 46.6191L42.1079 49.1047L43.027 43.802L39.0996 39.9906L44.5312 39.1621L46.9545 34.3564Z" fill="white"/>
<path d="M70.018 37.7529L71.355 40.3215L74.2797 40.8186L72.1071 42.8071L72.6084 45.7071L70.018 44.2986L67.4275 45.7071L67.9289 42.8071L65.8398 40.8186L68.681 40.3215L70.018 37.7529Z" fill="white"/>
<path d="M93.0815 34.3564L95.5048 39.1621L100.936 39.9906L97.0089 43.802L97.9281 49.1047L93.0815 46.6191L88.2348 49.1047L89.154 43.802L85.2266 39.9906L90.6582 39.1621L93.0815 34.3564Z" fill="white"/>
<path d="M116.145 37.7529L117.399 40.3215L120.324 40.8186L118.235 42.8071L118.736 45.7071L116.145 44.2986L113.471 45.7071L113.973 42.8071L111.884 40.8186L114.808 40.3215L116.145 37.7529Z" fill="white"/>
<path d="M139.124 34.3564L141.548 39.1621L146.979 39.9906L143.052 43.802L143.971 49.1047L139.124 46.6191L134.278 49.1047L135.197 43.802L131.27 39.9906L136.701 39.1621L139.124 34.3564Z" fill="white"/>
<path d="M162.188 37.7529L163.525 40.3215L166.45 40.8186L164.277 42.8071L164.778 45.7071L162.188 44.2986L159.597 45.7071L160.099 42.8071L158.01 40.8186L160.851 40.3215L162.188 37.7529Z" fill="white"/>
<path d="M12.4437 51.4248L14.8671 56.3135L20.2986 57.1421L16.3712 60.8708L17.2904 66.2567L12.4437 63.6881L7.59712 66.2567L8.51631 60.8708L4.58887 57.1421L10.0204 56.3135L12.4437 51.4248Z" fill="white"/>
<path d="M35.4233 54.9053L36.7603 57.4738L39.685 57.8881L37.5959 59.9595L38.0973 62.8594L35.4233 61.4509L32.8328 62.8594L33.3342 59.9595L31.2451 57.8881L34.1698 57.4738L35.4233 54.9053Z" fill="white"/>
<path d="M58.4857 51.4248L60.909 56.3133L66.3406 57.1418L62.4132 60.8704L63.3324 66.256L58.4857 63.6874L53.6391 66.256L54.5583 60.8704L50.6309 57.1418L56.0624 56.3133L58.4857 51.4248Z" fill="white"/>
<path d="M81.5488 54.9053L82.8858 57.4738L85.7269 57.8881L83.6379 59.9595L84.1393 62.8594L81.5488 61.4509L78.9584 62.8594L79.4597 59.9595L77.2871 57.8881L80.2118 57.4738L81.5488 54.9053Z" fill="white"/>
<path d="M104.613 51.4248L107.036 56.3133L112.468 57.1418L108.54 60.8704L109.459 66.256L104.613 63.6874L99.7661 66.256L100.685 60.8704L96.7578 57.1418L102.189 56.3133L104.613 51.4248Z" fill="white"/>
<path d="M127.592 54.9053L128.929 57.4738L131.854 57.8881L129.765 59.9595L130.266 62.8594L127.592 61.4509L125.002 62.8594L125.503 59.9595L123.414 57.8881L126.339 57.4738L127.592 54.9053Z" fill="white"/>
<path d="M150.657 51.4248L153.08 56.3133L158.512 57.1418L154.584 60.8704L155.503 66.256L150.657 63.6874L145.81 66.256L146.729 60.8704L142.802 57.1418L148.233 56.3133L150.657 51.4248Z" fill="white"/>
<path d="M173.72 54.9053L175.057 57.4738L177.898 57.8881L175.809 59.9595L176.31 62.8594L173.72 61.4509L171.129 62.8594L171.631 59.9595L169.458 57.8881L172.383 57.4738L173.72 54.9053Z" fill="white"/>
<path d="M0.911519 68.5762L3.33483 73.4647L8.7664 74.2103L4.83896 78.0217L5.75815 83.4073L0.911519 80.8388L-3.93511 83.4073L-3.01592 78.0217L-6.94336 74.2103L-1.51179 73.4647L0.911519 68.5762Z" fill="white"/>
<path d="M23.9756 71.9736L25.229 74.625L28.1537 75.0393L26.0646 77.1107L26.566 79.9278L23.9756 78.6021L21.3016 79.9278L21.8029 77.1107L19.7139 75.0393L22.6386 74.625L23.9756 71.9736Z" fill="white"/>
<path d="M46.9545 68.5762L49.3778 73.4648L54.8094 74.2105L50.8819 78.022L51.8011 83.4077L46.9545 80.8391L42.1079 83.4077L43.027 78.022L39.0996 74.2105L44.5312 73.4648L46.9545 68.5762Z" fill="white"/>
<path d="M70.018 71.9736L71.355 74.625L74.2797 75.0393L72.1071 77.1107L72.6084 79.9278L70.018 78.6021L67.4275 79.9278L67.9289 77.1107L65.8398 75.0393L68.681 74.625L70.018 71.9736Z" fill="white"/>
<path d="M93.0815 68.5762L95.5048 73.4648L100.936 74.2105L97.0089 78.022L97.9281 83.4077L93.0815 80.8391L88.2348 83.4077L89.154 78.022L85.2266 74.2105L90.6582 73.4648L93.0815 68.5762Z" fill="white"/>
<path d="M116.145 71.9736L117.399 74.625L120.324 75.0393L118.235 77.1107L118.736 79.9278L116.145 78.6021L113.471 79.9278L113.973 77.1107L111.884 75.0393L114.808 74.625L116.145 71.9736Z" fill="white"/>
<path d="M139.124 68.5762L141.548 73.4648L146.979 74.2105L143.052 78.022L143.971 83.4077L139.124 80.8391L134.278 83.4077L135.197 78.022L131.27 74.2105L136.701 73.4648L139.124 68.5762Z" fill="white"/>
<path d="M162.188 71.9736L163.525 74.625L166.45 75.0393L164.277 77.1107L164.778 79.9278L162.188 78.6021L159.597 79.9278L160.099 77.1107L158.01 75.0393L160.851 74.625L162.188 71.9736Z" fill="white"/>
<path d="M187.54 5.39453L189.964 10.283L195.395 11.0287L191.468 14.8401L192.387 20.2257L187.54 17.6572L182.694 20.2257L183.613 14.8401L179.686 11.0287L185.117 10.283L187.54 5.39453Z" fill="white"/>
<path d="M210.52 8.79199L211.857 11.4433L214.782 11.8575L212.693 13.9288L213.194 16.7458L210.52 15.4202L207.929 16.7458L208.431 13.9288L206.342 11.8575L209.266 11.4433L210.52 8.79199Z" fill="white"/>
<path d="M233.583 5.39453L236.007 10.283L241.438 11.0287L237.511 14.8401L238.43 20.2257L233.583 17.6572L228.737 20.2257L229.656 14.8401L225.729 11.0287L231.16 10.283L233.583 5.39453Z" fill="white"/>
<path d="M256.647 8.79199L257.984 11.4433L260.826 11.8575L258.737 13.9288L259.238 16.7458L256.647 15.4202L254.057 16.7458L254.558 13.9288L252.386 11.8575L255.31 11.4433L256.647 8.79199Z" fill="white"/>
<path d="M279.709 5.39453L282.133 10.283L287.564 11.0287L283.637 14.8401L284.556 20.2257L279.709 17.6572L274.863 20.2257L275.782 14.8401L271.854 11.0287L277.286 10.283L279.709 5.39453Z" fill="white"/>
<path d="M176.008 22.5459L178.432 27.4344L183.863 28.1801L179.936 31.9914L180.855 37.2942L176.008 34.8085L171.162 37.2942L172.081 31.9914L168.153 28.1801L173.585 27.4344L176.008 22.5459Z" fill="white"/>
<path d="M199.071 25.9434L200.325 28.5946L203.249 29.0089L201.16 30.9973L201.662 33.8972L199.071 32.5715L196.397 33.8972L196.899 30.9973L194.81 29.0089L197.734 28.5946L199.071 25.9434Z" fill="white"/>
<path d="M222.052 22.5459L224.475 27.4344L229.907 28.1801L225.98 31.9914L226.899 37.2942L222.052 34.8085L217.206 37.2942L218.125 31.9914L214.197 28.1801L219.629 27.4344L222.052 22.5459Z" fill="white"/>
<path d="M245.114 25.9434L246.451 28.5947L249.375 29.009L247.203 30.9976L247.704 33.8975L245.114 32.5718L242.523 33.8975L243.025 30.9976L240.936 29.009L243.777 28.5947L245.114 25.9434Z" fill="white"/>
<path d="M268.179 22.5459L270.602 27.4344L276.034 28.1801L272.107 31.9914L273.026 37.2942L268.179 34.8085L263.332 37.2942L264.252 31.9914L260.324 28.1801L265.756 27.4344L268.179 22.5459Z" fill="white"/>
<path d="M187.54 39.6973L189.964 44.5028L195.395 45.3313L191.468 49.1426L192.387 54.4452L187.54 51.9596L182.694 54.4452L183.613 49.1426L179.686 45.3313L185.117 44.5028L187.54 39.6973Z" fill="white"/>
<path d="M210.52 43.0947L211.857 45.6631L214.782 46.1603L212.693 48.1487L213.194 51.0485L210.52 49.64L207.929 51.0485L208.431 48.1487L206.342 46.1603L209.266 45.6631L210.52 43.0947Z" fill="white"/>
<path d="M233.583 39.6973L236.007 44.5028L241.438 45.3313L237.511 49.1426L238.43 54.4452L233.583 51.9596L228.737 54.4452L229.656 49.1426L225.729 45.3313L231.16 44.5028L233.583 39.6973Z" fill="white"/>
<path d="M256.647 43.0947L257.984 45.6631L260.826 46.1603L258.737 48.1487L259.238 51.0485L256.647 49.64L254.057 51.0485L254.558 48.1487L252.386 46.1603L255.31 45.6631L256.647 43.0947Z" fill="white"/>
<path d="M279.709 39.6973L282.133 44.5028L287.564 45.3313L283.637 49.1426L284.556 54.4452L279.709 51.9596L274.863 54.4452L275.782 49.1426L271.854 45.3313L277.286 44.5028L279.709 39.6973Z" fill="white"/>
<path d="M176.008 56.7656L178.432 61.654L183.863 62.4825L179.936 66.2109L180.855 71.5964L176.008 69.0279L171.162 71.5964L172.081 66.2109L168.153 62.4825L173.585 61.654L176.008 56.7656Z" fill="white"/>
<path d="M199.071 60.2461L200.325 62.8146L203.249 63.2289L201.16 65.3003L201.662 68.2003L199.071 66.7917L196.397 68.2003L196.899 65.3003L194.81 63.2289L197.734 62.8146L199.071 60.2461Z" fill="white"/>
<path d="M222.052 56.7646L224.475 61.6533L229.907 62.4818L225.98 66.2104L226.899 71.5962L222.052 69.0276L217.206 71.5962L218.125 66.2104L214.197 62.4818L219.629 61.6533L222.052 56.7646Z" fill="white"/>
<path d="M245.114 60.2451L246.451 62.8138L249.375 63.2281L247.203 65.2996L247.704 68.1997L245.114 66.791L242.523 68.1997L243.025 65.2996L240.936 63.2281L243.777 62.8138L245.114 60.2451Z" fill="white"/>
<path d="M268.179 56.7646L270.602 61.6533L276.034 62.4818L272.107 66.2104L273.026 71.5962L268.179 69.0276L263.332 71.5962L264.252 66.2104L260.324 62.4818L265.756 61.6533L268.179 56.7646Z" fill="white"/>
<path d="M187.54 73.917L189.964 78.8055L195.395 79.5512L191.468 83.3625L192.387 88.7482L187.54 86.1796L182.694 88.7482L183.613 83.3625L179.686 79.5512L185.117 78.8055L187.54 73.917Z" fill="white"/>
<path d="M210.52 77.3135L211.857 79.9647L214.782 80.379L212.693 82.4503L213.194 85.2673L210.52 83.9416L207.929 85.2673L208.431 82.4503L206.342 80.379L209.266 79.9647L210.52 77.3135Z" fill="white"/>
<path d="M233.583 73.917L236.007 78.8055L241.438 79.5512L237.511 83.3625L238.43 88.7482L233.583 86.1796L228.737 88.7482L229.656 83.3625L225.729 79.5512L231.16 78.8055L233.583 73.917Z" fill="white"/>
<path d="M256.647 77.3145L257.984 79.9657L260.826 80.38L258.737 82.4513L259.238 85.2682L256.647 83.9426L254.057 85.2682L254.558 82.4513L252.386 80.38L255.31 79.9657L256.647 77.3145Z" fill="white"/>
<path d="M279.709 73.917L282.133 78.8055L287.564 79.5512L283.637 83.3625L284.556 88.7482L279.709 86.1796L274.863 88.7482L275.782 83.3625L271.854 79.5512L277.286 78.8055L279.709 73.917Z" fill="white"/>
<path d="M176.008 91.0684L178.432 95.957L183.863 96.7027L179.936 100.514L180.855 105.9L176.008 103.331L171.162 105.9L172.081 100.514L168.153 96.7027L173.585 95.957L176.008 91.0684Z" fill="white"/>
<path d="M199.071 94.4648L200.325 97.1165L203.249 97.5308L201.16 99.6024L201.662 102.42L199.071 101.094L196.397 102.42L196.899 99.6024L194.81 97.5308L197.734 97.1165L199.071 94.4648Z" fill="white"/>
<path d="M222.052 91.0674L224.475 95.956L229.907 96.7017L225.98 100.513L226.899 105.899L222.052 103.33L217.206 105.899L218.125 100.513L214.197 96.7017L219.629 95.956L222.052 91.0674Z" fill="white"/>
<path d="M245.114 94.4648L246.451 97.1164L249.375 97.5307L247.203 99.6022L247.704 102.419L245.114 101.094L242.523 102.419L243.025 99.6022L240.936 97.5307L243.777 97.1164L245.114 94.4648Z" fill="white"/>
<path d="M268.179 91.0674L270.602 95.956L276.034 96.7017L272.107 100.513L273.026 105.899L268.179 103.33L263.332 105.899L264.252 100.513L260.324 96.7017L265.756 95.956L268.179 91.0674Z" fill="white"/>
<path d="M187.539 108.219L189.963 113.107L195.394 113.853L191.467 117.665L192.386 122.967L187.539 120.482L182.693 122.967L183.612 117.665L179.685 113.853L185.116 113.107L187.539 108.219Z" fill="white"/>
<path d="M210.519 111.616L211.856 114.268L214.781 114.682L212.692 116.67L213.193 119.57L210.519 118.245L207.929 119.57L208.43 116.67L206.341 114.682L209.266 114.268L210.519 111.616Z" fill="white"/>
<path d="M233.582 108.219L236.006 113.107L241.437 113.853L237.51 117.664L238.429 122.967L233.582 120.481L228.736 122.967L229.655 117.664L225.728 113.853L231.159 113.107L233.582 108.219Z" fill="white"/>
<path d="M256.646 111.616L257.983 114.268L260.825 114.682L258.736 116.67L259.237 119.57L256.646 118.245L254.056 119.57L254.557 116.67L252.385 114.682L255.309 114.268L256.646 111.616Z" fill="white"/>
<path d="M279.71 108.219L282.134 113.107L287.565 113.853L283.638 117.664L284.557 122.967L279.71 120.481L274.864 122.967L275.783 117.664L271.855 113.853L277.287 113.107L279.71 108.219Z" fill="white"/>
<path d="M176.008 125.37L178.432 130.176L183.863 131.004L179.936 134.816L180.855 140.119L176.008 137.633L171.162 140.119L172.081 134.816L168.153 131.004L173.585 130.176L176.008 125.37Z" fill="white"/>
<path d="M199.071 128.767L200.325 131.335L203.249 131.832L201.16 133.821L201.662 136.721L199.071 135.313L196.397 136.721L196.899 133.821L194.81 131.832L197.734 131.335L199.071 128.767Z" fill="white"/>
<path d="M222.052 125.37L224.475 130.176L229.907 131.004L225.98 134.816L226.899 140.119L222.052 137.633L217.206 140.119L218.125 134.816L214.197 131.004L219.629 130.176L222.052 125.37Z" fill="white"/>
<path d="M245.114 128.767L246.451 131.335L249.375 131.833L247.203 133.821L247.704 136.722L245.114 135.313L242.523 136.722L243.025 133.821L240.936 131.833L243.777 131.335L245.114 128.767Z" fill="white"/>
<path d="M268.179 125.37L270.602 130.176L276.034 131.004L272.107 134.816L273.026 140.119L268.179 137.633L263.332 140.119L264.252 134.816L260.324 131.004L265.756 130.176L268.179 125.37Z" fill="white"/>
<path d="M187.54 142.438L189.964 147.327L195.395 148.156L191.468 151.884L192.387 157.27L187.54 154.701L182.694 157.27L183.613 151.884L179.686 148.156L185.117 147.327L187.54 142.438Z" fill="white"/>
<path d="M210.52 145.919L211.857 148.487L214.782 148.902L212.693 150.973L213.194 153.873L210.52 152.464L207.929 153.873L208.431 150.973L206.342 148.902L209.266 148.487L210.52 145.919Z" fill="white"/>
<path d="M233.583 142.438L236.007 147.327L241.438 148.156L237.511 151.884L238.43 157.27L233.583 154.701L228.737 157.27L229.656 151.884L225.729 148.156L231.16 147.327L233.583 142.438Z" fill="white"/>
<path d="M256.647 145.919L257.984 148.487L260.826 148.902L258.737 150.973L259.238 153.873L256.647 152.464L254.057 153.873L254.558 150.973L252.386 148.902L255.31 148.487L256.647 145.919Z" fill="white"/>
<path d="M279.709 142.438L282.133 147.327L287.564 148.156L283.637 151.884L284.556 157.27L279.709 154.701L274.863 157.27L275.782 151.884L271.854 148.156L277.286 147.327L279.709 142.438Z" fill="white"/>
<path d="M176.008 159.591L178.432 164.479L183.863 165.225L179.936 169.037L180.855 174.422L176.008 171.854L171.162 174.422L172.081 169.037L168.153 165.225L173.585 164.479L176.008 159.591Z" fill="white"/>
<path d="M199.071 162.987L200.325 165.639L203.249 166.053L201.16 168.124L201.662 170.941L199.071 169.616L196.397 170.941L196.899 168.124L194.81 166.053L197.734 165.639L199.071 162.987Z" fill="white"/>
<path d="M222.052 159.59L224.475 164.478L229.907 165.224L225.98 169.035L226.899 174.421L222.052 171.852L217.206 174.421L218.125 169.035L214.197 165.224L219.629 164.478L222.052 159.59Z" fill="white"/>
<path d="M245.114 162.987L246.451 165.639L249.375 166.053L247.203 168.124L247.704 170.941L245.114 169.616L242.523 170.941L243.025 168.124L240.936 166.053L243.777 165.639L245.114 162.987Z" fill="white"/>
<path d="M268.179 159.591L270.602 164.479L276.034 165.225L272.107 169.036L273.026 174.422L268.179 171.853L263.332 174.422L264.252 169.036L260.324 165.225L265.756 164.479L268.179 159.591Z" fill="white"/>
<path d="M13.3578 93.3496L15.7811 98.2381L21.2127 98.9838L17.2852 102.795L18.2044 108.181L13.3578 105.612L8.51119 108.181L9.43037 102.795L5.50293 98.9838L10.9345 98.2381L13.3578 93.3496Z" fill="white"/>
<path d="M36.4209 96.7471L37.7579 99.3985L40.599 99.8127L38.5099 101.884L39.0113 104.701L36.4209 103.376L33.8304 104.701L34.3318 101.884L32.1592 99.8127L35.0839 99.3985L36.4209 96.7471Z" fill="white"/>
<path d="M1.82563 110.501L4.24896 115.389L9.68055 116.135L5.75309 119.946L6.67229 125.249L1.82563 122.763L-3.02102 125.249L-2.10182 119.946L-6.0293 116.135L-0.597701 115.389L1.82563 110.501Z" fill="white"/>
<path d="M24.89 113.898L26.227 116.55L29.1517 116.964L26.979 118.952L27.4804 121.852L24.89 120.527L22.2996 121.852L22.801 118.952L20.7119 116.964L23.553 116.55L24.89 113.898Z" fill="white"/>
<path d="M13.3568 127.651L15.7801 132.457L21.2117 133.286L17.2843 137.097L18.2035 142.4L13.3568 139.914L8.51021 142.4L9.42939 137.097L5.50195 133.286L10.9335 132.457L13.3568 127.651Z" fill="white"/>
<path d="M36.4199 131.049L37.7569 133.617L40.598 134.115L38.509 136.103L39.0104 139.003L36.4199 137.595L33.8295 139.003L34.3308 136.103L32.1582 134.115L35.0829 133.617L36.4199 131.049Z" fill="white"/>
<path d="M1.82563 144.72L4.24896 149.608L9.68055 150.437L5.75309 154.165L6.67229 159.551L1.82563 156.982L-3.02102 159.551L-2.10182 154.165L-6.0293 150.437L-0.597701 149.608L1.82563 144.72Z" fill="white"/>
<path d="M24.89 148.2L26.227 150.769L29.1517 151.183L26.979 153.255L27.4804 156.155L24.89 154.746L22.2996 156.155L22.801 153.255L20.7119 151.183L23.553 150.769L24.89 148.2Z" fill="white"/>
</g>
</svg>
