<svg width="100%" height="100%" viewBox="0 0 286 328" fill="none" xmlns="http://www.w3.org/2000/svg">
<g filter="url(#filter0_d)">
<path fill-rule="evenodd" clip-rule="evenodd" d="M279.999 10.0776C279.999 4.55479 275.522 0.0776367 269.999 0.0776367H10.3496C4.82676 0.0776367 0.349609 4.5548 0.349609 10.0776V311.443C0.349609 316.966 4.82676 321.443 10.3496 321.443H269.999C275.522 321.443 279.999 316.966 279.999 311.443V10.0776ZM261.511 28.6181C261.511 23.0953 257.033 18.6181 251.511 18.6181H28.8395C23.3167 18.6181 18.8395 23.0953 18.8395 28.6181V202.519C18.8395 208.042 23.3167 212.519 28.8395 212.519H251.511C257.034 212.519 261.511 208.042 261.511 202.519V28.6181Z" fill="#B6F5FC"/>
</g>
<defs>
<filter id="filter0_d" x="0.349609" y="0.0776367" width="285.65" height="327.365" filterUnits="userSpaceOnUse" color-interpolation-filters="sRGB">
<feFlood flood-opacity="0" result="BackgroundImageFix"/>
<feColorMatrix in="SourceAlpha" type="matrix" values="0 0 0 0 0 0 0 0 0 0 0 0 0 0 0 0 0 0 127 0"/>
<feOffset dx="6" dy="6"/>
<feColorMatrix type="matrix" values="0 0 0 0 0 0 0 0 0 0 0 0 0 0 0 0 0 0 0.09 0"/>
<feBlend mode="normal" in2="BackgroundImageFix" result="effect1_dropShadow"/>
<feBlend mode="normal" in="SourceGraphic" in2="effect1_dropShadow" result="shape"/>
</filter>
</defs>
</svg>
