<svg width="100%" height="100%" viewBox="0 0 362 416" fill="none" xmlns="http://www.w3.org/2000/svg">
<mask id="mask0" mask-type="alpha" maskUnits="userSpaceOnUse" x="0" y="0" width="362" height="416">
<path fill-rule="evenodd" clip-rule="evenodd" d="M362 0H0V416H362V0ZM338.066 24H23.9339V275H338.066V24Z" fill="#FFE6AE"/>
</mask>
<g mask="url(#mask0)">
<path d="M16.0889 -18.4346L19.2219 -12.097L26.2441 -11.1303L21.1665 -6.1891L22.3549 0.792969L16.0889 -2.53694L9.82284 0.792969L11.0112 -6.1891L5.93359 -11.1303L12.9559 -12.097L16.0889 -18.4346Z" fill="white"/>
<path d="M75.6152 -18.4346L78.7482 -12.097L85.7704 -11.1303L80.6928 -6.1891L81.8812 0.792969L75.6152 -2.53694L69.3492 0.792969L70.5376 -6.1891L65.46 -11.1303L72.4822 -12.097L75.6152 -18.4346Z" fill="white"/>
<path d="M135.25 -18.4346L138.383 -12.097L145.405 -11.1303L140.328 -6.1891L141.516 0.792969L135.25 -2.53694L128.984 0.792969L130.172 -6.1891L125.095 -11.1303L132.117 -12.097L135.25 -18.4346Z" fill="white"/>
<path d="M194.778 -18.4346L197.911 -12.097L204.934 -11.1303L199.856 -6.1891L201.044 0.792969L194.778 -2.53694L188.512 0.792969L189.701 -6.1891L184.623 -11.1303L191.645 -12.097L194.778 -18.4346Z" fill="white"/>
<path d="M1.17965 3.80127L4.31265 10.1388L11.3349 11.1056L6.25727 16.0467L7.44565 23.0288L1.17965 19.6989L-5.08635 23.0288L-3.89797 16.0467L-8.97559 11.1056L-1.95335 10.1388L1.17965 3.80127Z" fill="white"/>
<path d="M30.9981 8.20459L32.6186 11.6421L36.3998 12.1792L33.6989 14.8647L34.3471 18.5171L30.9981 16.7983L27.5409 18.5171L28.1892 14.8647L25.4883 12.1792L29.2695 11.6421L30.9981 8.20459Z" fill="white"/>
<path d="M60.707 3.80078L63.84 10.1384L70.8623 11.1051L65.7847 16.0463L66.973 23.0283L60.707 19.6984L54.441 23.0283L55.6294 16.0463L50.5518 11.1051L57.574 10.1384L60.707 3.80078Z" fill="white"/>
<path d="M90.5238 8.20459L92.2524 11.6419L96.0336 12.179L93.2247 14.8644L93.8729 18.5166L90.5238 16.7979L87.1747 18.5166L87.8229 14.8644L85.1221 12.179L88.7953 11.6419L90.5238 8.20459Z" fill="white"/>
<path d="M120.342 3.80078L123.475 10.1384L130.497 11.1051L125.419 16.0463L126.608 23.0283L120.342 19.6984L114.076 23.0283L115.264 16.0463L110.187 11.1051L117.209 10.1384L120.342 3.80078Z" fill="white"/>
<path d="M150.16 8.20459L151.781 11.6419L155.562 12.179L152.861 14.8644L153.509 18.5166L150.16 16.7979L146.703 18.5166L147.351 14.8644L144.65 12.179L148.432 11.6419L150.16 8.20459Z" fill="white"/>
<path d="M179.869 3.80078L183.002 10.1384L190.024 11.1051L184.947 16.0463L186.135 23.0283L179.869 19.6984L173.603 23.0283L174.791 16.0463L169.714 11.1051L176.736 10.1384L179.869 3.80078Z" fill="white"/>
<path d="M209.687 8.20459L211.415 11.6419L215.197 12.179L212.388 14.8644L213.036 18.5166L209.687 16.7979L206.338 18.5166L206.986 14.8644L204.285 12.179L207.958 11.6419L209.687 8.20459Z" fill="white"/>
<path d="M16.0879 26.0352L19.2209 32.3729L26.2431 33.3397L21.1655 38.2809L22.3539 45.1558L16.0879 41.9332L9.82187 45.1558L11.0102 38.2809L5.93262 33.3397L12.9549 32.3729L16.0879 26.0352Z" fill="white"/>
<path d="M45.7982 30.4399L47.5268 33.8773L51.308 34.4144L48.6071 36.9924L49.2553 40.752L45.7982 39.0333L42.4491 40.752L43.0974 36.9924L40.3965 34.4144L44.1777 33.8773L45.7982 30.4399Z" fill="white"/>
<path d="M75.6152 26.0356L78.7482 32.3732L85.7704 33.34L80.6928 38.2811L81.8812 45.1558L75.6152 41.9333L69.3492 45.1558L70.5376 38.2811L65.46 33.34L72.4822 32.3732L75.6152 26.0356Z" fill="white"/>
<path d="M105.433 30.4399L107.161 33.8773L110.834 34.4144L108.133 36.9924L108.782 40.752L105.433 39.0333L102.084 40.752L102.732 36.9924L99.9229 34.4144L103.704 33.8773L105.433 30.4399Z" fill="white"/>
<path d="M135.25 26.0356L138.383 32.3732L145.405 33.34L140.328 38.2811L141.516 45.1558L135.25 41.9333L128.984 45.1558L130.172 38.2811L125.095 33.34L132.117 32.3732L135.25 26.0356Z" fill="white"/>
<path d="M164.96 30.4399L166.689 33.8773L170.47 34.4144L167.769 36.9924L168.417 40.752L164.96 39.0333L161.611 40.752L162.259 36.9924L159.559 34.4144L163.34 33.8773L164.96 30.4399Z" fill="white"/>
<path d="M194.777 26.0356L197.91 32.3732L204.933 33.34L199.855 38.2811L201.043 45.1558L194.777 41.9333L188.511 45.1558L189.7 38.2811L184.622 33.34L191.644 32.3732L194.777 26.0356Z" fill="white"/>
<path d="M224.595 30.4399L226.323 33.8773L229.996 34.4144L227.296 36.9924L227.944 40.752L224.595 39.0333L221.246 40.752L221.894 36.9924L219.085 34.4144L222.866 33.8773L224.595 30.4399Z" fill="white"/>
<path d="M1.17965 48.2715L4.31265 54.5015L11.3349 55.5756L6.25727 60.5166L7.44565 67.3911L1.17965 64.1687L-5.08635 67.3911L-3.89797 60.5166L-8.97559 55.5756L-1.95335 54.5015L1.17965 48.2715Z" fill="white"/>
<path d="M30.9981 52.6753L32.6186 56.0051L36.3998 56.6495L33.6989 59.2274L34.3471 62.9868L30.9981 61.1608L27.5409 62.9868L28.1892 59.2274L25.4883 56.6495L29.2695 56.0051L30.9981 52.6753Z" fill="white"/>
<path d="M60.707 48.2715L63.84 54.5015L70.8623 55.5756L65.7847 60.5166L66.973 67.3911L60.707 64.1687L54.441 67.3911L55.6294 60.5166L50.5518 55.5756L57.574 54.5015L60.707 48.2715Z" fill="white"/>
<path d="M90.5238 52.6753L92.2524 56.0052L96.0336 56.6497L93.2247 59.2277L93.8729 62.9873L90.5238 61.1612L87.1747 62.9873L87.8229 59.2277L85.1221 56.6497L88.7953 56.0052L90.5238 52.6753Z" fill="white"/>
<path d="M120.342 48.2715L123.475 54.5015L130.497 55.5756L125.419 60.5166L126.608 67.3911L120.342 64.1687L114.076 67.3911L115.264 60.5166L110.187 55.5756L117.209 54.5015L120.342 48.2715Z" fill="white"/>
<path d="M150.16 52.6753L151.781 56.0052L155.562 56.6497L152.861 59.2277L153.509 62.9873L150.16 61.1612L146.703 62.9873L147.351 59.2277L144.65 56.6497L148.432 56.0052L150.16 52.6753Z" fill="white"/>
<path d="M179.869 48.2715L183.002 54.5015L190.024 55.5756L184.947 60.5166L186.135 67.3911L179.869 64.1687L173.603 67.3911L174.791 60.5166L169.714 55.5756L176.736 54.5015L179.869 48.2715Z" fill="white"/>
<path d="M209.687 52.6753L211.415 56.0052L215.197 56.6497L212.388 59.2277L213.036 62.9873L209.687 61.1612L206.338 62.9873L206.986 59.2277L204.285 56.6497L207.958 56.0052L209.687 52.6753Z" fill="white"/>
<path d="M16.0889 70.3999L19.2219 76.7376L26.2441 77.8118L21.1665 82.6457L22.3549 89.6279L16.0889 86.2979L9.82284 89.6279L11.0112 82.6457L5.93359 77.8118L12.9559 76.7376L16.0889 70.3999Z" fill="white"/>
<path d="M45.7992 74.9111L47.5277 78.241L51.3089 78.7781L48.6081 81.4636L49.2563 85.2231L45.7992 83.3971L42.4501 85.2231L43.0983 81.4636L40.3975 78.7781L44.1787 78.241L45.7992 74.9111Z" fill="white"/>
<path d="M75.6152 70.3994L78.7482 76.737L85.7704 77.8112L80.6928 82.6449L81.8812 89.627L75.6152 86.297L69.3492 89.627L70.5376 82.6449L65.46 77.8112L72.4822 76.737L75.6152 70.3994Z" fill="white"/>
<path d="M105.433 74.9111L107.161 78.241L110.834 78.7781L108.133 81.4636L108.782 85.2231L105.433 83.3971L102.084 85.2231L102.732 81.4636L99.9229 78.7781L103.704 78.241L105.433 74.9111Z" fill="white"/>
<path d="M135.25 70.3994L138.383 76.737L145.405 77.8112L140.328 82.6449L141.516 89.627L135.25 86.297L128.984 89.627L130.172 82.6449L125.095 77.8112L132.117 76.737L135.25 70.3994Z" fill="white"/>
<path d="M164.96 74.9111L166.689 78.241L170.47 78.7781L167.769 81.4636L168.417 85.2231L164.96 83.3971L161.611 85.2231L162.259 81.4636L159.559 78.7781L163.34 78.241L164.96 74.9111Z" fill="white"/>
<path d="M194.778 70.3994L197.911 76.737L204.934 77.8112L199.856 82.6449L201.044 89.627L194.778 86.297L188.512 89.627L189.701 82.6449L184.623 77.8112L191.645 76.737L194.778 70.3994Z" fill="white"/>
<path d="M224.596 74.9111L226.324 78.241L229.997 78.7781L227.297 81.4636L227.945 85.2231L224.596 83.3971L221.247 85.2231L221.895 81.4636L219.086 78.7781L222.867 78.241L224.596 74.9111Z" fill="white"/>
<path d="M1.17965 92.6357L4.31265 98.9731L11.3349 99.9399L6.25727 104.881L7.44565 111.863L1.17965 108.533L-5.08635 111.863L-3.89797 104.881L-8.97559 99.9399L-1.95335 98.9731L1.17965 92.6357Z" fill="white"/>
<path d="M30.9981 97.0396L32.6186 100.477L36.3998 101.014L33.6989 103.699L34.3471 107.351L30.9981 105.632L27.5409 107.351L28.1892 103.699L25.4883 101.014L29.2695 100.477L30.9981 97.0396Z" fill="white"/>
<path d="M60.707 92.6353L63.84 98.9727L70.8623 99.9394L65.7847 104.88L66.973 111.862L60.707 108.532L54.441 111.862L55.6294 104.88L50.5518 99.9394L57.574 98.9727L60.707 92.6353Z" fill="white"/>
<path d="M90.5238 97.0396L92.2524 100.477L96.0336 101.014L93.2247 103.699L93.8729 107.351L90.5238 105.632L87.1747 107.351L87.8229 103.699L85.1221 101.014L88.7953 100.477L90.5238 97.0396Z" fill="white"/>
<path d="M120.342 92.6353L123.475 98.9727L130.497 99.9394L125.419 104.88L126.608 111.862L120.342 108.532L114.076 111.862L115.264 104.88L110.187 99.9394L117.209 98.9727L120.342 92.6353Z" fill="white"/>
<path d="M150.16 97.0396L151.781 100.477L155.562 101.014L152.861 103.699L153.509 107.351L150.16 105.632L146.703 107.351L147.351 103.699L144.65 101.014L148.432 100.477L150.16 97.0396Z" fill="white"/>
<path d="M179.869 92.6353L183.002 98.9727L190.024 99.9394L184.947 104.88L186.135 111.862L179.869 108.532L173.603 111.862L174.791 104.88L169.714 99.9394L176.736 98.9727L179.869 92.6353Z" fill="white"/>
<path d="M209.687 97.0396L211.415 100.477L215.197 101.014L212.388 103.699L213.036 107.351L209.687 105.632L206.338 107.351L206.986 103.699L204.285 101.014L207.958 100.477L209.687 97.0396Z" fill="white"/>
<path d="M242.464 10.7246L245.597 17.0622L252.619 18.0289L247.541 22.9701L248.73 29.9522L242.464 26.6222L236.198 29.9522L237.386 22.9701L232.309 18.0289L239.331 17.0622L242.464 10.7246Z" fill="white"/>
<path d="M272.173 15.1294L273.902 18.5667L277.683 19.1038L274.982 21.7892L275.63 25.4414L272.173 23.7227L268.824 25.4414L269.472 21.7892L266.771 19.1038L270.553 18.5667L272.173 15.1294Z" fill="white"/>
<path d="M301.989 10.7246L305.122 17.0622L312.144 18.0289L307.067 22.9701L308.255 29.9522L301.989 26.6222L295.723 29.9522L296.912 22.9701L291.834 18.0289L298.856 17.0622L301.989 10.7246Z" fill="white"/>
<path d="M331.808 15.1294L333.536 18.5667L337.209 19.1038L334.508 21.7892L335.157 25.4414L331.808 23.7227L328.459 25.4414L329.107 21.7892L326.298 19.1038L330.079 18.5667L331.808 15.1294Z" fill="white"/>
<path d="M361.625 10.7246L364.758 17.0622L371.78 18.0289L366.703 22.9701L367.891 29.9522L361.625 26.6222L355.359 29.9522L356.547 22.9701L351.47 18.0289L358.492 17.0622L361.625 10.7246Z" fill="white"/>
<path d="M227.555 32.9609L230.688 39.2983L237.71 40.2651L232.632 45.2061L233.821 52.0806L227.555 48.8582L221.289 52.0806L222.477 45.2061L217.399 40.2651L224.422 39.2983L227.555 32.9609Z" fill="white"/>
<path d="M257.373 37.3647L258.994 40.8019L262.775 41.339L260.074 43.9169L260.722 47.6763L257.373 45.9577L253.916 47.6763L254.564 43.9169L251.863 41.339L255.644 40.8019L257.373 37.3647Z" fill="white"/>
<path d="M287.082 32.9609L290.215 39.2983L297.237 40.2651L292.16 45.2061L293.348 52.0806L287.082 48.8582L280.816 52.0806L282.004 45.2061L276.927 40.2651L283.949 39.2983L287.082 32.9609Z" fill="white"/>
<path d="M316.899 37.3647L318.627 40.8021L322.409 41.3392L319.6 43.9172L320.248 47.6768L316.899 45.9581L313.55 47.6768L314.198 43.9172L311.497 41.3392L315.17 40.8021L316.899 37.3647Z" fill="white"/>
<path d="M346.717 32.9609L349.85 39.2983L356.872 40.2651L351.794 45.2061L352.983 52.0806L346.717 48.8582L340.451 52.0806L341.639 45.2061L336.562 40.2651L343.584 39.2983L346.717 32.9609Z" fill="white"/>
<path d="M242.464 55.1953L245.597 61.4255L252.619 62.4996L247.541 67.4408L248.73 74.3154L242.464 71.0929L236.198 74.3154L237.386 67.4408L232.309 62.4996L239.331 61.4255L242.464 55.1953Z" fill="white"/>
<path d="M272.173 59.5991L273.902 62.9292L277.683 63.5737L274.982 66.1519L275.63 69.9116L272.173 68.0855L268.824 69.9116L269.472 66.1519L266.771 63.5737L270.553 62.9292L272.173 59.5991Z" fill="white"/>
<path d="M301.989 55.1953L305.122 61.4255L312.144 62.4996L307.067 67.4408L308.255 74.3154L301.989 71.0929L295.723 74.3154L296.912 67.4408L291.834 62.4996L298.856 61.4255L301.989 55.1953Z" fill="white"/>
<path d="M331.808 59.5991L333.536 62.9292L337.209 63.5737L334.508 66.1519L335.157 69.9116L331.808 68.0855L328.459 69.9116L329.107 66.1519L326.298 63.5737L330.079 62.9292L331.808 59.5991Z" fill="white"/>
<path d="M361.625 55.1953L364.758 61.4255L371.78 62.4996L366.703 67.4408L367.891 74.3154L361.625 71.0929L355.359 74.3154L356.547 67.4408L351.47 62.4996L358.492 61.4255L361.625 55.1953Z" fill="white"/>
<path d="M227.555 77.3237L230.688 83.6613L237.71 84.7355L232.632 89.5692L233.821 96.5513L227.555 93.2214L221.289 96.5513L222.477 89.5692L217.399 84.7355L224.422 83.6613L227.555 77.3237Z" fill="white"/>
<path d="M257.373 81.8354L258.994 85.1654L262.775 85.7025L260.074 88.3879L260.722 92.1475L257.373 90.3214L253.916 92.1475L254.564 88.3879L251.863 85.7025L255.644 85.1654L257.373 81.8354Z" fill="white"/>
<path d="M287.082 77.3232L290.215 83.6608L297.237 84.735L292.16 89.5687L293.348 96.5508L287.082 93.2209L280.816 96.5508L282.004 89.5687L276.927 84.735L283.949 83.6608L287.082 77.3232Z" fill="white"/>
<path d="M316.899 81.835L318.627 85.165L322.409 85.7022L319.6 88.3877L320.248 92.1475L316.899 90.3213L313.55 92.1475L314.198 88.3877L311.497 85.7022L315.17 85.165L316.899 81.835Z" fill="white"/>
<path d="M346.717 77.3232L349.85 83.6608L356.872 84.735L351.794 89.5687L352.983 96.5508L346.717 93.2209L340.451 96.5508L341.639 89.5687L336.562 84.735L343.584 83.6608L346.717 77.3232Z" fill="white"/>
<path d="M242.464 99.5591L245.597 105.897L252.619 106.863L247.541 111.805L248.73 118.787L242.464 115.457L236.198 118.787L237.386 111.805L232.309 106.863L239.331 105.897L242.464 99.5591Z" fill="white"/>
<path d="M272.173 103.962L273.902 107.4L277.683 107.937L274.982 110.622L275.63 114.274L272.173 112.556L268.824 114.274L269.472 110.622L266.771 107.937L270.553 107.4L272.173 103.962Z" fill="white"/>
<path d="M301.989 99.5591L305.122 105.897L312.144 106.863L307.067 111.805L308.255 118.787L301.989 115.457L295.723 118.787L296.912 111.805L291.834 106.863L298.856 105.897L301.989 99.5591Z" fill="white"/>
<path d="M331.808 103.963L333.536 107.4L337.209 107.937L334.508 110.623L335.157 114.275L331.808 112.556L328.459 114.275L329.107 110.623L326.298 107.937L330.079 107.4L331.808 103.963Z" fill="white"/>
<path d="M361.625 99.5591L364.758 105.897L371.78 106.863L366.703 111.805L367.891 118.787L361.625 115.457L355.359 118.787L356.547 111.805L351.47 106.863L358.492 105.897L361.625 99.5591Z" fill="white"/>
<path d="M227.555 121.794L230.688 128.132L237.71 129.099L232.632 134.04L233.821 141.022L227.555 137.692L221.289 141.022L222.477 134.04L217.399 129.099L224.422 128.132L227.555 121.794Z" fill="white"/>
<path d="M257.373 126.198L258.994 129.635L262.775 130.172L260.074 132.858L260.722 136.51L257.373 134.791L253.916 136.51L254.564 132.858L251.863 130.172L255.644 129.635L257.373 126.198Z" fill="white"/>
<path d="M287.082 121.794L290.215 128.131L297.237 129.098L292.16 134.039L293.348 141.021L287.082 137.691L280.816 141.021L282.004 134.039L276.927 129.098L283.949 128.131L287.082 121.794Z" fill="white"/>
<path d="M316.899 126.198L318.627 129.635L322.409 130.172L319.6 132.857L320.248 136.509L316.899 134.791L313.55 136.509L314.198 132.857L311.497 130.172L315.17 129.635L316.899 126.198Z" fill="white"/>
<path d="M346.717 121.794L349.85 128.131L356.872 129.098L351.794 134.039L352.983 141.021L346.717 137.691L340.451 141.021L341.639 134.039L336.562 129.098L343.584 128.131L346.717 121.794Z" fill="white"/>
<path d="M242.463 144.029L245.596 150.366L252.618 151.333L247.54 156.274L248.729 163.149L242.463 159.926L236.197 163.149L237.385 156.274L232.308 151.333L239.33 150.366L242.463 144.029Z" fill="white"/>
<path d="M272.172 148.433L273.901 151.87L277.682 152.408L274.981 154.986L275.629 158.745L272.172 157.026L268.823 158.745L269.471 154.986L266.771 152.408L270.552 151.87L272.172 148.433Z" fill="white"/>
<path d="M301.989 144.029L305.122 150.367L312.145 151.334L307.067 156.275L308.255 163.149L301.989 159.927L295.723 163.149L296.912 156.275L291.834 151.334L298.856 150.367L301.989 144.029Z" fill="white"/>
<path d="M331.808 148.433L333.536 151.87L337.209 152.408L334.508 154.986L335.157 158.745L331.808 157.026L328.459 158.745L329.107 154.986L326.298 152.408L330.079 151.87L331.808 148.433Z" fill="white"/>
<path d="M361.625 144.029L364.758 150.367L371.78 151.334L366.703 156.275L367.891 163.149L361.625 159.927L355.359 163.149L356.547 156.275L351.47 151.334L358.492 150.367L361.625 144.029Z" fill="white"/>
<path d="M227.555 166.265L230.688 172.495L237.71 173.569L232.632 178.51L233.821 185.384L227.555 182.162L221.289 185.384L222.477 178.51L217.399 173.569L224.422 172.495L227.555 166.265Z" fill="white"/>
<path d="M257.373 170.668L258.994 173.998L262.775 174.643L260.074 177.221L260.722 180.98L257.373 179.154L253.916 180.98L254.564 177.221L251.863 174.643L255.644 173.998L257.373 170.668Z" fill="white"/>
<path d="M287.082 166.265L290.215 172.495L297.237 173.569L292.16 178.51L293.348 185.384L287.082 182.162L280.816 185.384L282.004 178.51L276.927 173.569L283.949 172.495L287.082 166.265Z" fill="white"/>
<path d="M316.899 170.668L318.627 173.998L322.409 174.643L319.6 177.221L320.248 180.98L316.899 179.154L313.55 180.98L314.198 177.221L311.497 174.643L315.17 173.998L316.899 170.668Z" fill="white"/>
<path d="M346.717 166.265L349.85 172.495L356.872 173.569L351.794 178.51L352.983 185.384L346.717 182.162L340.451 185.384L341.639 178.51L336.562 173.569L343.584 172.495L346.717 166.265Z" fill="white"/>
<path d="M242.464 188.393L245.597 194.731L252.619 195.805L247.541 200.639L248.73 207.621L242.464 204.291L236.198 207.621L237.386 200.639L232.309 195.805L239.331 194.731L242.464 188.393Z" fill="white"/>
<path d="M272.173 192.905L273.902 196.235L277.683 196.772L274.982 199.457L275.63 203.216L272.173 201.39L268.824 203.216L269.472 199.457L266.771 196.772L270.553 196.235L272.173 192.905Z" fill="white"/>
<path d="M301.989 188.393L305.122 194.73L312.144 195.804L307.067 200.638L308.255 207.62L301.989 204.29L295.723 207.62L296.912 200.638L291.834 195.804L298.856 194.73L301.989 188.393Z" fill="white"/>
<path d="M331.808 192.905L333.536 196.235L337.209 196.772L334.508 199.457L335.157 203.216L331.808 201.39L328.459 203.216L329.107 199.457L326.298 196.772L330.079 196.235L331.808 192.905Z" fill="white"/>
<path d="M361.625 188.393L364.758 194.73L371.78 195.804L366.703 200.638L367.891 207.62L361.625 204.29L355.359 207.62L356.547 200.638L351.47 195.804L358.492 194.73L361.625 188.393Z" fill="white"/>
<path d="M227.555 210.628L230.688 216.966L237.71 217.933L232.632 222.874L233.821 229.856L227.555 226.526L221.289 229.856L222.477 222.874L217.399 217.933L224.422 216.966L227.555 210.628Z" fill="white"/>
<path d="M257.373 215.033L258.994 218.47L262.775 219.007L260.074 221.692L260.722 225.344L257.373 223.626L253.916 225.344L254.564 221.692L251.863 219.007L255.644 218.47L257.373 215.033Z" fill="white"/>
<path d="M287.082 210.628L290.215 216.966L297.237 217.932L292.16 222.874L293.348 229.856L287.082 226.526L280.816 229.856L282.004 222.874L276.927 217.932L283.949 216.966L287.082 210.628Z" fill="white"/>
<path d="M316.899 215.033L318.627 218.47L322.409 219.007L319.6 221.692L320.248 225.344L316.899 223.626L313.55 225.344L314.198 221.692L311.497 219.007L315.17 218.47L316.899 215.033Z" fill="white"/>
<path d="M346.717 210.628L349.85 216.966L356.872 217.932L351.794 222.874L352.983 229.856L346.717 226.526L340.451 229.856L341.639 222.874L336.562 217.932L343.584 216.966L346.717 210.628Z" fill="white"/>
<path d="M231.544 -18.417L234.677 -12.0794L241.699 -11.1127L236.622 -6.17152L237.81 0.810547L231.544 -2.51937L225.278 0.810547L226.466 -6.17152L221.389 -11.1127L228.411 -12.0794L231.544 -18.417Z" fill="white"/>
<path d="M291.07 -18.4175L294.203 -12.0799L301.226 -11.1132L296.148 -6.17201L297.336 0.810059L291.07 -2.51986L284.804 0.810059L285.993 -6.17201L280.915 -11.1132L287.937 -12.0799L291.07 -18.4175Z" fill="white"/>
<path d="M350.706 -18.4175L353.839 -12.0799L360.861 -11.1132L355.784 -6.17201L356.972 0.810059L350.706 -2.51986L344.44 0.810059L345.628 -6.17201L340.551 -11.1132L347.573 -12.0799L350.706 -18.4175Z" fill="white"/>
<path d="M17.2686 124.752L20.4016 131.09L27.4238 132.056L22.3462 136.997L23.5346 143.979L17.2686 140.65L11.0025 143.979L12.1909 136.997L7.11328 132.056L14.1355 131.09L17.2686 124.752Z" fill="white"/>
<path d="M47.0859 129.156L48.8145 132.594L52.4877 133.131L49.7868 135.816L50.435 139.468L47.0859 137.75L43.7369 139.468L44.3851 135.816L41.5762 133.131L45.3574 132.594L47.0859 129.156Z" fill="white"/>
<path d="M2.35934 146.987L5.49234 153.325L12.5146 154.292L7.43696 159.233L8.62534 166.108L2.35934 162.885L-3.90665 166.108L-2.71827 159.233L-7.7959 154.292L-0.773663 153.325L2.35934 146.987Z" fill="white"/>
<path d="M32.1771 151.392L33.9057 154.829L37.6869 155.366L34.878 157.944L35.5262 161.704L32.1771 159.985L28.8281 161.704L29.4763 157.944L26.7754 155.366L30.4486 154.829L32.1771 151.392Z" fill="white"/>
<path d="M17.2686 169.222L20.4016 175.452L27.4238 176.526L22.3462 181.468L23.5346 188.342L17.2686 185.12L11.0025 188.342L12.1909 181.468L7.11328 176.526L14.1355 175.452L17.2686 169.222Z" fill="white"/>
<path d="M47.0859 173.626L48.8145 176.956L52.4877 177.601L49.7868 180.179L50.435 183.938L47.0859 182.112L43.7369 183.938L44.3851 180.179L41.5762 177.601L45.3574 176.956L47.0859 173.626Z" fill="white"/>
<path d="M2.35934 191.351L5.49234 197.688L12.5146 198.762L7.43696 203.596L8.62534 210.578L2.35934 207.248L-3.90665 210.578L-2.71827 203.596L-7.7959 198.762L-0.773663 197.688L2.35934 191.351Z" fill="white"/>
<path d="M32.1771 195.862L33.9057 199.192L37.6869 199.729L34.878 202.415L35.5262 206.174L32.1771 204.348L28.8281 206.174L29.4763 202.415L26.7754 199.729L30.4486 199.192L32.1771 195.862Z" fill="white"/>
</g>
</svg>
