<svg width="100%" height="100%" viewBox="0 0 286 327" fill="none" xmlns="http://www.w3.org/2000/svg">
<g opacity="0.8" filter="url(#filter0_d)">
<path fill-rule="evenodd" clip-rule="evenodd" d="M280 10C280 4.47715 275.523 0 270 0H10.7715C5.24864 0 0.771484 4.47714 0.771484 9.99999V310.882C0.771484 316.404 5.24864 320.882 10.7715 320.882H270C275.523 320.882 280 316.404 280 310.882V10ZM261.538 28.5124C261.538 22.9896 257.061 18.5124 251.538 18.5124H29.2326C23.7098 18.5124 19.2326 22.9895 19.2326 28.5124V202.121C19.2326 207.644 23.7098 212.121 29.2326 212.121H251.538C257.061 212.121 261.538 207.644 261.538 202.121V28.5124Z" fill="#FFE6AE"/>
</g>
<defs>
<filter id="filter0_d" x="0.771484" y="0" width="285.229" height="326.882" filterUnits="userSpaceOnUse" color-interpolation-filters="sRGB">
<feFlood flood-opacity="0" result="BackgroundImageFix"/>
<feColorMatrix in="SourceAlpha" type="matrix" values="0 0 0 0 0 0 0 0 0 0 0 0 0 0 0 0 0 0 127 0"/>
<feOffset dx="6" dy="6"/>
<feColorMatrix type="matrix" values="0 0 0 0 0 0 0 0 0 0 0 0 0 0 0 0 0 0 0.09 0"/>
<feBlend mode="normal" in2="BackgroundImageFix" result="effect1_dropShadow"/>
<feBlend mode="normal" in="SourceGraphic" in2="effect1_dropShadow" result="shape"/>
</filter>
</defs>
</svg>
