<svg width="100%" height="100%" viewBox="0 0 160 164" fill="none" xmlns="http://www.w3.org/2000/svg">
<g filter="url(#filter0_d)">
<g clip-path="url(#clip0)">
<g opacity="0.1">
<path opacity="0.1" d="M122.409 119.628C119.994 117.546 118.234 113.693 118.22 110.13C118.926 108.026 119.57 106.073 120.105 104.164C126.383 82.8809 121.505 71.8486 121.33 71.4192C117.961 63.7781 109.621 56.5377 98.8892 52.0267C89.6688 48.1511 80.295 46.9679 73.0942 48.6544C65.8935 50.341 59.7091 55.7452 54.1446 60.5207C48.1311 65.7299 42.9522 70.2228 38.7955 68.4756C37.5107 67.9355 36.7188 67.0691 36.193 65.781C34.3607 60.8311 37.9581 51.8495 39.4117 48.8144L40.6111 46.3839L32.4829 40.1216L30.532 42.8588C30.1267 43.3998 20.7338 56.4373 17.582 72.187C15.7503 81.1993 19.1785 88.0649 27.1141 91.4005C32.8579 93.8148 39.3916 93.7153 42.7159 93.423C46.2988 93.1504 48.8082 93.3158 50.093 93.8559C50.9243 94.2053 51.2069 94.5909 51.7096 97.2033C51.9855 99.7204 47.3639 111.562 42.9637 121.184L41.5856 124.251L61.0089 132.415L64.3025 133.889L65.398 130.436L65.525 130.134C65.7474 129.605 66.2754 128.137 67.2766 126.601C71.8969 119.206 77.1117 121.398 78.7744 122.097C80.5127 122.827 85.9542 125.115 83.6768 133.495C83.5935 133.905 83.4347 134.282 83.3514 134.692L83.1608 135.146C83.0655 135.372 83.002 135.523 82.9067 135.75L82.7478 136.128L82.6208 136.43L85.5683 137.669L82.589 136.506L80.4004 140.655L100.655 149.169L102.101 146.575L103.078 144.673C104.905 141.173 108.992 132.93 113.122 123.105C114.089 124.401 115.163 125.653 116.333 126.679C116.723 127.02 117.145 127.287 117.523 127.445C119.563 128.303 121.861 127.49 123.021 125.577C124.472 123.608 124.088 121.134 122.409 119.628Z" fill="black"/>
<path opacity="0.1" d="M43.2484 21.7026L44.2155 22.9984L43.2484 21.7026L43.6942 22.3346L44.2155 22.9984L45.29 24.2504L45.2462 24.1431L45.29 24.2504L44.2155 22.9984L45.29 24.2504C47.3449 22.5352 57.3806 13.6809 55.6426 6.81417C54.9887 4.13825 53.636 3.12502 52.578 2.68028C51.0664 2.04494 49.3248 2.38006 47.902 3.6495C46.0617 5.27711 45.2402 7.86644 45.9137 10.2839C47.2247 14.5699 46.0744 19.4222 43.2484 21.7026Z" fill="black"/>
<path opacity="0.1" d="M44.1719 22.8912L43.6943 22.3348L43.2168 21.7783L44.1719 22.8912Z" fill="black"/>
<path opacity="0.1" d="M40.519 39.4088L41.9988 40.1197L43.4786 40.8306L43.3274 40.7671L43.4786 40.8306L41.9988 40.1197L43.4786 40.8306C45.0275 37.5688 49.468 35.2556 53.914 35.2568C57.2942 35.2547 59.7741 32.7399 60.3175 30.3894C60.7338 28.3411 59.7623 26.421 57.7973 25.595C56.9659 25.2456 55.9637 25.0911 54.8979 25.0878C47.7279 25.0087 41.6429 36.9465 40.519 39.4088ZM41.9988 40.1197L40.519 39.4088L41.9988 40.1197Z" fill="black"/>
</g>
<path d="M66.0553 138.182L62.7617 136.709L43.2629 128.513L44.6409 125.446C49.1167 115.855 53.6945 103.906 53.3868 101.465C52.8841 98.8525 52.526 98.4352 51.7702 98.1175C50.4098 97.5457 47.976 97.412 44.3932 97.6846C40.9932 97.9452 34.5352 98.0764 28.7913 95.6621C20.7802 92.2948 17.4276 85.4609 19.2593 76.4486C22.411 60.6989 31.8039 47.6614 32.2092 47.1204L34.1601 44.3832L42.3201 50.5699L41.1207 53.0004C39.5915 56.0038 36.0697 65.0171 37.902 69.967C38.4277 71.2551 39.2196 72.1216 40.5044 72.6616C44.6612 74.4088 49.8401 69.9159 55.8536 64.7067C61.3107 59.975 67.5707 54.6026 74.8032 52.8405C82.004 51.1539 91.3778 52.3372 100.598 56.2128C111.255 60.6919 119.67 67.9641 123.039 75.6053C123.214 76.0346 128.092 87.067 121.814 108.35C121.279 110.259 120.604 112.288 119.929 114.316C120.019 117.911 121.703 121.732 124.118 123.814C125.797 125.32 126.181 127.794 125.021 129.707C123.861 131.621 121.487 132.401 119.522 131.576C119.069 131.385 118.647 131.119 118.332 130.809C117.087 129.752 115.981 128.575 115.121 127.236C111.099 137.017 106.936 145.227 105.077 148.804L104.1 150.705L102.654 153.299L82.3997 144.785L84.5883 140.636L87.5675 141.799L84.62 140.56L84.7471 140.258L84.9059 139.88C84.9695 139.729 85.0648 139.502 85.1601 139.276L85.3507 138.822C85.5095 138.444 85.5928 138.035 85.676 137.625C87.8779 129.213 82.512 126.957 80.7737 126.227C79.0354 125.496 73.8962 123.336 69.2441 130.807C68.2429 132.343 67.7149 133.811 67.4925 134.34L67.3655 134.642L66.0553 138.182ZM91.1504 141.527L99.5394 145.053C101.982 140.299 107.161 129.67 111.612 118.024L113.303 113.577L113.291 113.394L113.482 112.94C114.22 110.761 114.927 108.657 115.494 106.672C120.994 88.0854 117.02 78.5 117.052 78.4244C114.328 72.2105 107.214 66.2857 98.0689 62.4418C90.2089 59.1381 82.1276 58.0534 76.3343 59.3534C70.6922 60.7169 65.3742 65.3292 60.1198 69.7903C53.1324 75.8352 45.8669 82.1189 37.9313 78.7833C34.9838 77.5444 32.8151 75.2989 31.6958 72.2495C30.4888 68.9853 30.6336 65.0443 31.3511 61.433C29.0793 65.9917 26.8796 71.648 25.6625 77.7172C24.4772 83.7108 26.269 87.4876 31.3327 89.6159C34.5825 90.9819 39.1401 91.5637 43.8523 91.1432C48.64 90.7546 51.8931 91.0548 54.3116 92.0713C58.695 93.9138 59.4332 97.8702 59.8482 100.268C60.6542 104.697 55.3929 117.426 52.0015 125.071L62.28 129.392C62.6097 128.819 62.9712 128.17 63.3644 127.446C68.1436 119.673 75.3598 117.104 82.993 120.312C90.853 123.616 94.0665 130.569 91.7496 139.466C91.6028 140.027 91.456 140.588 91.2654 141.042L91.1504 141.527Z" fill="white"/>
<path d="M121.941 126.456C118.399 123.456 116.511 118.216 116.556 113.877C117.263 111.773 118.001 109.593 118.6 107.533C124.648 87.2204 119.938 77.0588 119.938 77.0588C113.908 63.0526 90.002 52.6484 75.5687 56.0971C61.1354 59.5458 50.1168 80.2593 39.2337 75.6848C28.3506 71.1104 38.1928 51.5031 38.1928 51.5031L34.827 48.9323C34.827 48.9323 25.4538 61.7112 22.417 76.9757C19.412 92.1645 33.901 95.1421 44.1008 94.3604C54.6981 93.479 55.7616 96.2382 56.6114 100.775C57.4295 105.388 47.5883 126.685 47.5883 126.685L64.0641 133.61C64.0641 133.61 69.2083 117.986 81.8296 123.292C94.8289 128.755 86.8883 143.204 86.8883 143.204L101.172 149.208C101.172 149.208 108.664 135.193 114.806 119.1C115.778 122.71 117.685 126.001 120.49 128.426C121.628 129.526 123.186 127.513 121.941 126.456Z" fill="#B6F5FC"/>
<path d="M73.4788 71.2258C74.2335 69.8534 76.0693 67.6015 78.0343 68.4274C79.6214 69.0945 78.4899 71.9982 78.0134 73.1319C77.3977 74.3849 79.4383 75.2426 79.9784 73.9578C81.1778 71.5273 81.7125 67.9281 78.8603 66.4624C75.7813 64.9015 72.7888 68.0012 71.5138 70.3999C70.8226 71.6212 72.8631 72.4789 73.4788 71.2258Z" fill="#67E8E8"/>
<path d="M95.7954 109.953C106.5 109.028 114.476 99.5741 113.582 88.7938C112.689 78.0135 103.311 70.0699 92.5621 70.8877L95.7954 109.953Z" fill="#67E8E8"/>
<path d="M88.6436 138.605C87.9414 141.334 86.8887 143.204 86.8887 143.204L101.173 149.208C101.173 149.208 102.023 147.608 103.457 144.832L88.6436 138.605Z" fill="#67E8E8"/>
<path d="M49.7211 122.246C48.5775 124.966 47.7395 126.748 47.7395 126.748L64.0641 133.61C64.0641 133.61 64.7707 131.506 66.1969 129.171L49.7211 122.246Z" fill="#67E8E8"/>
<path d="M47.1177 28.5759L44.9687 26.0719L45.8921 27.2603L44.9687 26.0719L45.0126 26.1792L44.9687 26.0719L45.0126 26.1792L44.9687 26.0719L46.0432 27.3239L44.9687 26.0719L46.0432 27.3239L45.0761 26.0281C47.8265 23.7159 48.9768 18.8636 47.8805 14.4899C47.207 12.0725 48.0285 9.48316 49.8688 7.85556C51.2599 6.66169 53.0332 6.251 54.5448 6.88634C55.5273 7.29931 56.9238 8.41988 57.6094 11.0202C59.2083 18.0063 49.1726 26.8606 47.1177 28.5759L46.0432 27.3239L47.1177 28.5759L47.0739 28.4685L47.1177 28.5759ZM53.1667 9.95322C52.7133 9.76262 52.0813 10.2084 51.9421 10.3278C51.2148 11.0003 50.5992 12.2533 50.9858 13.6609C51.4403 15.5416 51.6363 17.4025 51.4665 19.2876C53.4612 16.6578 54.7877 13.925 54.2894 11.9369C54.0342 10.8514 53.6202 10.1438 53.1667 9.95322Z" fill="white"/>
<path d="M46.0427 27.324C46.0427 27.324 57.4739 17.9002 55.8793 11.5384C54.2847 5.1767 48.1353 9.43953 49.3631 14.1353C50.6225 18.7554 49.4887 24.415 46.0427 27.324Z" fill="#67E8E8"/>
<path d="M45.231 45.124L42.2715 43.7021L42.3032 43.6266C43.4709 41.2716 49.4803 29.302 56.6065 29.2738C57.7479 29.3089 58.7501 29.4634 59.5059 29.781C61.4709 30.607 62.4741 32.4516 62.0261 34.5754C61.5265 37.0333 58.971 39.5163 55.6226 39.4428C51.1767 39.4416 46.8117 41.7866 45.231 45.124C45.2628 45.0484 45.2628 45.0484 45.231 45.124L42.2715 43.7021L45.231 45.124L45.0798 45.0604L45.231 45.124ZM58.2352 32.8041C57.8573 32.6453 57.2647 32.5741 56.5648 32.5467C54.5089 32.5718 52.2513 34.5575 50.1055 37.1238C51.8668 36.5302 53.7913 36.1831 55.6326 36.2456C57.3982 36.2763 58.5944 34.9115 58.7489 33.9093C58.9712 33.3803 58.8398 33.0582 58.2352 32.8041Z" fill="white"/>
<path d="M43.7514 44.4131C43.7514 44.4131 50.0303 30.9561 56.6077 30.964C63.1852 30.9719 60.5967 37.9764 55.7411 37.8919C50.8855 37.8074 45.6497 40.32 43.7514 44.4131Z" fill="#67E8E8"/>
</g>
</g>
<defs>
<filter id="filter0_d" x="0" y="0" width="165.626" height="164.005" filterUnits="userSpaceOnUse" color-interpolation-filters="sRGB">
<feFlood flood-opacity="0" result="BackgroundImageFix"/>
<feColorMatrix in="SourceAlpha" type="matrix" values="0 0 0 0 0 0 0 0 0 0 0 0 0 0 0 0 0 0 127 0"/>
<feOffset dx="6" dy="6"/>
<feColorMatrix type="matrix" values="0 0 0 0 0 0 0 0 0 0 0 0 0 0 0 0 0 0 0.09 0"/>
<feBlend mode="normal" in2="BackgroundImageFix" result="effect1_dropShadow"/>
<feBlend mode="normal" in="SourceGraphic" in2="effect1_dropShadow" result="shape"/>
</filter>
<clipPath id="clip0">
<rect x="46.4121" width="122.809" height="119.775" transform="rotate(22.7984 46.4121 0)" fill="white"/>
</clipPath>
</defs>
</svg>
