<svg width="100%" height="100%" viewBox="0 0 286 322" fill="none" xmlns="http://www.w3.org/2000/svg">
<mask id="mask0" mask-type="alpha" maskUnits="userSpaceOnUse" x="0" y="0" width="280" height="322">
<path fill-rule="evenodd" clip-rule="evenodd" d="M280 0.0776367H0V321.443H280V0.0776367ZM261.489 18.6182H18.5134V212.519H261.489V18.6182Z" fill="#D7F9FD"/>
</mask>
<g mask="url(#mask0)">
<path d="M54.3226 8.77553C53.4696 8.77553 52.8298 8.9867 51.9768 9.19789C52.19 8.56434 52.19 7.93078 52.19 7.29724C52.19 0.961743 47.072 -4.10664 40.6744 -4.10664C38.5418 -4.10664 36.4093 -3.4731 34.7033 -2.41718C31.931 -7.48558 26.3863 -11.0757 20.202 -11.0757C11.0321 -11.0757 3.78146 -3.68428 3.78146 5.1854C3.78146 5.81895 3.78146 6.4525 3.99472 7.29724C3.56821 7.29724 2.92845 7.08606 2.50194 7.08606C-2.61615 7.08606 -6.66797 11.0985 -6.66797 16.1669C-6.66797 21.2353 -2.61615 25.2478 2.50194 25.2478C4.42122 25.2478 6.12725 24.6143 7.62003 23.5583C8.89955 26.9373 12.0984 29.2603 15.9369 29.2603C18.496 29.2603 20.8418 28.2044 22.5478 26.3037C25.5333 28.4155 29.5852 29.6827 34.0635 29.6827C41.3141 29.6827 47.4985 26.3037 49.8443 21.6577C51.1238 22.5024 52.4033 22.9248 54.1093 22.9248C58.1612 22.9248 61.36 19.757 61.36 15.7446C61.5732 11.9433 58.3744 8.77553 54.3226 8.77553Z" fill="white"/>
<path d="M148.155 8.77455C147.302 8.77455 146.662 8.98573 145.809 9.19691C146.022 8.56336 146.022 7.92981 146.022 7.29626C146.022 0.960767 140.904 -4.10761 134.506 -4.10761C132.374 -4.10761 130.241 -3.47407 128.535 -2.41816C125.763 -7.48655 120.218 -11.0767 114.034 -11.0767C104.864 -11.0767 97.6135 -3.68526 97.6135 5.18443C97.6135 5.81798 97.6135 6.45153 97.8268 7.29626C97.4002 7.29626 96.7605 7.08508 96.334 7.08508C91.2159 7.08508 87.1641 11.0976 87.1641 16.166C87.1641 21.2343 91.2159 25.2468 96.334 25.2468C98.2533 25.2468 99.9593 24.6133 101.452 23.5574C102.732 26.9363 105.93 29.2593 109.769 29.2593C112.328 29.2593 114.674 28.2034 116.38 26.3027C119.365 28.4146 123.417 29.6817 127.896 29.6817C135.146 29.6817 141.331 26.3027 143.676 21.6567C144.956 22.5014 146.235 22.9238 147.941 22.9238C151.993 22.9238 155.192 19.7561 155.192 15.7436C155.405 11.9423 152.206 8.77455 148.155 8.77455Z" fill="white"/>
<path d="M241.987 8.77553C241.134 8.77553 240.494 8.9867 239.641 9.19789C239.854 8.56434 239.854 7.93078 239.854 7.29724C239.854 0.961743 234.736 -4.10664 228.338 -4.10664C226.206 -4.10664 224.073 -3.4731 222.367 -2.41718C219.595 -7.48558 214.05 -11.0757 207.866 -11.0757C198.696 -11.0757 191.446 -3.68428 191.446 5.1854C191.446 5.81895 191.446 6.4525 191.659 7.29724C191.232 7.29724 190.593 7.08606 190.166 7.08606C185.048 7.08606 180.996 11.0985 180.996 16.1669C180.996 21.2353 185.048 25.2478 190.166 25.2478C192.085 25.2478 193.791 24.6143 195.284 23.5583C196.564 26.9373 199.762 29.2603 203.601 29.2603C206.16 29.2603 208.506 28.2044 210.212 26.3037C213.197 28.4155 217.249 29.6827 221.728 29.6827C228.978 29.6827 235.163 26.3037 237.508 21.6577C238.788 22.5024 240.067 22.9248 241.773 22.9248C245.825 22.9248 249.024 19.757 249.024 15.7446C249.237 11.9433 245.825 8.77553 241.987 8.77553Z" fill="white"/>
<path d="M335.606 8.77437C334.753 8.77437 334.113 8.98554 333.26 9.19672C333.473 8.56318 333.473 7.92963 333.473 7.29609C333.473 0.960657 328.355 -4.10768 321.958 -4.10768C319.825 -4.10768 317.692 -3.47414 315.986 -2.41824C313.214 -7.48658 307.67 -11.0767 301.485 -11.0767C292.315 -11.0767 285.065 -3.68533 285.065 5.18428C285.065 5.81782 285.065 6.45137 285.278 7.29609C284.851 7.29609 284.212 7.08491 283.785 7.08491C278.667 7.08491 274.615 11.0974 274.615 16.1657C274.615 21.2341 278.667 25.2465 283.785 25.2465C285.704 25.2465 287.41 24.613 288.903 23.557C290.183 26.9359 293.382 29.2589 297.22 29.2589C299.779 29.2589 302.125 28.203 303.831 26.3024C306.817 28.4142 310.868 29.6813 315.347 29.6813C322.597 29.6813 328.782 26.3024 331.127 21.6564C332.407 22.5011 333.687 22.9235 335.393 22.9235C339.444 22.9235 342.643 19.7558 342.643 15.7433C342.856 11.9421 339.658 8.77437 335.606 8.77437Z" fill="white"/>
<path d="M7.61945 55.2362C6.76643 55.2362 6.12667 55.4473 5.27366 55.6585C5.48691 55.025 5.48691 54.3914 5.48691 53.7579C5.48691 47.4223 0.36882 42.3539 -6.02879 42.3539C-8.16132 42.3539 -10.2939 42.9874 -11.9999 44.0433C-14.7722 38.9749 -20.3168 35.3848 -26.5011 35.3848C-35.671 35.3848 -42.9217 42.7762 -42.9217 51.646C-42.9217 52.2796 -42.9217 52.9131 -42.7084 53.7579C-43.1349 53.7579 -43.7747 53.5467 -44.2012 53.5467C-49.3193 53.5467 -53.3711 57.5592 -53.3711 62.6276C-53.3711 67.6961 -49.3193 71.7086 -44.2012 71.7086C-42.2819 71.7086 -40.5759 71.075 -39.0831 70.0191C-37.8036 73.3981 -34.6048 75.7211 -30.7662 75.7211C-28.2072 75.7211 -25.8614 74.6652 -24.1553 72.7645C-21.1698 74.8764 -17.118 76.1435 -12.6396 76.1435C-5.38902 76.1435 0.79533 72.7645 3.14112 68.1185C4.42064 68.9632 5.70016 69.3856 7.40619 69.3856C11.458 69.3856 14.6568 66.2178 14.6568 62.2053C14.8701 58.4039 11.458 55.2362 7.61945 55.2362Z" fill="white"/>
<path d="M101.239 55.2357C100.386 55.2357 99.7458 55.4469 98.8928 55.658C99.1061 55.0245 99.1061 54.3909 99.1061 53.7574C99.1061 47.4218 93.988 42.3534 87.5904 42.3534C85.4578 42.3534 83.3253 42.9869 81.6193 44.0429C78.847 38.9744 73.3024 35.3843 67.118 35.3843C57.9481 35.3843 50.6975 42.7757 50.6975 51.6455C50.6975 52.2791 50.6975 52.9126 50.9107 53.7574C50.4842 53.7574 49.8445 53.5462 49.418 53.5462C44.2999 53.5462 40.248 57.5587 40.248 62.6272C40.248 67.6956 44.2999 71.7081 49.418 71.7081C51.3372 71.7081 53.0433 71.0746 54.536 70.0186C55.8156 73.3976 59.0144 75.7206 62.8529 75.7206C65.412 75.7206 67.7578 74.6647 69.4638 72.764C72.4494 74.8759 76.5012 76.143 80.9795 76.143C88.2301 76.143 94.4145 72.764 96.7603 68.118C98.0398 68.9627 99.3193 69.3851 101.025 69.3851C105.077 69.3851 108.276 66.2173 108.276 62.2048C108.489 58.4034 105.29 55.2357 101.239 55.2357Z" fill="white"/>
<path d="M195.07 55.2352C194.217 55.2352 193.577 55.4464 192.724 55.6576C192.937 55.024 192.937 54.3904 192.937 53.7569C192.937 47.4213 187.819 42.3529 181.421 42.3529C179.289 42.3529 177.156 42.9864 175.45 44.0424C172.678 38.9739 167.133 35.3838 160.949 35.3838C151.779 35.3838 144.529 42.7753 144.529 51.645C144.529 52.2786 144.529 52.9121 144.742 53.7569C144.315 53.7569 143.676 53.5457 143.249 53.5457C138.131 53.5457 134.079 57.5582 134.079 62.6267C134.079 67.6951 138.131 71.7076 143.249 71.7076C145.168 71.7076 146.874 71.0741 148.367 70.0181C149.647 73.3971 152.845 75.7201 156.684 75.7201C159.243 75.7201 161.589 74.6642 163.295 72.7635C166.28 74.8754 170.332 76.1425 174.811 76.1425C182.061 76.1425 188.246 72.7635 190.591 68.1175C191.871 68.9622 193.15 69.3846 194.856 69.3846C198.908 69.3846 202.107 66.2168 202.107 62.2043C202.32 58.403 199.121 55.2352 195.07 55.2352Z" fill="white"/>
<path d="M288.689 55.2355C287.836 55.2355 287.196 55.4467 286.343 55.6578C286.556 55.0243 286.556 54.3907 286.556 53.7572C286.556 47.4217 281.438 42.3533 275.041 42.3533C272.908 42.3533 270.776 42.9869 269.069 44.0428C266.297 38.9744 260.753 35.3843 254.568 35.3843C245.398 35.3843 238.148 42.7757 238.148 51.6454C238.148 52.2789 238.148 52.9125 238.361 53.7572C237.934 53.7572 237.295 53.546 236.868 53.546C231.75 53.546 227.698 57.5585 227.698 62.6269C227.698 67.6953 231.75 71.7078 236.868 71.7078C238.787 71.7078 240.493 71.0742 241.986 70.0183C243.266 73.3972 246.465 75.7203 250.303 75.7203C252.862 75.7203 255.208 74.6643 256.914 72.7637C259.9 74.8755 263.951 76.1426 268.43 76.1426C275.68 76.1426 281.865 72.7637 284.21 68.1176C285.49 68.9624 286.77 69.3847 288.476 69.3847C292.527 69.3847 295.726 66.217 295.726 62.2045C295.939 58.4032 292.741 55.2355 288.689 55.2355Z" fill="white"/>
<path d="M54.3226 101.696C53.4696 101.696 52.8298 101.908 51.9768 102.119C52.19 101.485 52.19 100.852 52.19 100.218C52.19 93.8826 47.072 88.8143 40.6744 88.8143C38.5418 88.8143 36.4093 89.4478 34.7033 90.5037C31.931 85.4353 26.3863 81.8452 20.202 81.8452C11.0321 81.8452 3.78146 89.2366 3.78146 98.1063C3.78146 98.7399 3.78146 99.3734 3.99472 100.218C3.56821 100.218 2.92845 100.007 2.50194 100.007C-2.61615 100.007 -6.66797 104.019 -6.66797 109.088C-6.66797 114.156 -2.61615 118.169 2.50194 118.169C4.42122 118.169 6.12725 117.535 7.62003 116.479C8.89955 119.858 12.0984 122.181 15.9369 122.181C18.496 122.181 20.8418 121.125 22.5478 119.225C25.5333 121.336 29.5852 122.604 34.0635 122.604C41.3141 122.604 47.4985 119.225 49.8443 114.579C51.1238 115.423 52.4033 115.846 54.1093 115.846C58.1612 115.846 61.36 112.678 61.36 108.665C61.5732 104.864 58.3744 101.696 54.3226 101.696Z" fill="white"/>
<path d="M148.155 101.697C147.302 101.697 146.662 101.908 145.809 102.119C146.022 101.486 146.022 100.852 146.022 100.219C146.022 93.8831 140.904 88.8148 134.506 88.8148C132.374 88.8148 130.241 89.4483 128.535 90.5042C125.763 85.4358 120.218 81.8457 114.034 81.8457C104.864 81.8457 97.6135 89.2371 97.6135 98.1068C97.6135 98.7403 97.6135 99.3739 97.8268 100.219C97.4002 100.219 96.7605 100.007 96.334 100.007C91.2159 100.007 87.1641 104.02 87.1641 109.088C87.1641 114.157 91.2159 118.169 96.334 118.169C98.2533 118.169 99.9593 117.536 101.452 116.48C102.732 119.859 105.93 122.182 109.769 122.182C112.328 122.182 114.674 121.126 116.38 119.225C119.365 121.337 123.417 122.604 127.896 122.604C135.146 122.604 141.331 119.225 143.676 114.579C144.956 115.424 146.235 115.846 147.941 115.846C151.993 115.846 155.192 112.678 155.192 108.666C155.405 104.865 152.206 101.697 148.155 101.697Z" fill="white"/>
<path d="M241.987 101.697C241.134 101.697 240.494 101.908 239.641 102.119C239.854 101.485 239.854 100.852 239.854 100.218C239.854 93.8828 234.736 88.8143 228.338 88.8143C226.206 88.8143 224.073 89.4479 222.367 90.5038C219.595 85.4354 214.05 81.8452 207.866 81.8452C198.696 81.8452 191.446 89.2367 191.446 98.1065C191.446 98.74 191.446 99.3736 191.659 100.218C191.232 100.218 190.593 100.007 190.166 100.007C185.048 100.007 180.996 104.02 180.996 109.088C180.996 114.157 185.048 118.169 190.166 118.169C192.085 118.169 193.791 117.535 195.284 116.48C196.564 119.859 199.762 122.182 203.601 122.182C206.16 122.182 208.506 121.126 210.212 119.225C213.197 121.337 217.249 122.604 221.728 122.604C228.978 122.604 235.163 119.225 237.508 114.579C238.788 115.424 240.067 115.846 241.773 115.846C245.825 115.846 249.024 112.678 249.024 108.666C249.237 104.864 245.825 101.697 241.987 101.697Z" fill="white"/>
<path d="M335.606 101.696C334.753 101.696 334.113 101.907 333.26 102.118C333.473 101.485 333.473 100.851 333.473 100.218C333.473 93.8822 328.355 88.8138 321.958 88.8138C319.825 88.8138 317.692 89.4473 315.986 90.5032C313.214 85.4349 307.67 81.8447 301.485 81.8447C292.315 81.8447 285.065 89.2361 285.065 98.1058C285.065 98.7394 285.065 99.3729 285.278 100.218C284.851 100.218 284.212 100.006 283.785 100.006C278.667 100.006 274.615 104.019 274.615 109.087C274.615 114.156 278.667 118.168 283.785 118.168C285.704 118.168 287.41 117.535 288.903 116.479C290.183 119.858 293.382 122.181 297.22 122.181C299.779 122.181 302.125 121.125 303.831 119.224C306.817 121.336 310.868 122.603 315.347 122.603C322.597 122.603 328.782 119.224 331.127 114.578C332.407 115.423 333.687 115.845 335.393 115.845C339.444 115.845 342.643 112.677 342.643 108.665C342.856 104.864 339.658 101.696 335.606 101.696Z" fill="white"/>
<path d="M7.61945 147.946C6.76643 147.946 6.12667 148.157 5.27366 148.369C5.48691 147.735 5.48691 147.101 5.48691 146.468C5.48691 140.132 0.36882 135.064 -6.02879 135.064C-8.16132 135.064 -10.2939 135.697 -11.9999 136.753C-14.7722 131.685 -20.3168 128.095 -26.5011 128.095C-35.671 128.095 -42.9217 135.486 -42.9217 144.356C-42.9217 144.99 -42.9217 145.623 -42.7084 146.468C-43.1349 146.468 -43.7747 146.257 -44.2012 146.257C-49.3193 146.257 -53.3711 150.269 -53.3711 155.338C-53.3711 160.406 -49.3193 164.419 -44.2012 164.419C-42.2819 164.419 -40.5759 163.785 -39.0831 162.729C-37.8036 166.108 -34.6048 168.431 -30.7662 168.431C-28.2072 168.431 -25.8614 167.375 -24.1553 165.475C-21.1698 167.586 -17.118 168.853 -12.6396 168.853C-5.38902 168.853 0.79533 165.474 3.14112 160.828C4.42064 161.673 5.70016 162.096 7.40619 162.096C11.458 162.096 14.6568 158.928 14.6568 154.915C14.8701 151.325 11.458 147.946 7.61945 147.946Z" fill="white"/>
<path d="M101.239 147.946C100.386 147.946 99.7458 148.157 98.8928 148.368C99.1061 147.734 99.1061 147.101 99.1061 146.467C99.1061 140.132 93.988 135.063 87.5904 135.063C85.4578 135.063 83.3253 135.697 81.6193 136.753C78.847 131.684 73.3024 128.094 67.118 128.094C57.9481 128.094 50.6975 135.486 50.6975 144.356C50.6975 144.989 50.6975 145.623 50.9107 146.467C50.4842 146.467 49.8445 146.256 49.418 146.256C44.2999 146.256 40.248 150.269 40.248 155.337C40.248 160.406 44.2999 164.418 49.418 164.418C51.3372 164.418 53.0433 163.785 54.536 162.729C55.8156 166.108 59.0144 168.431 62.8529 168.431C65.412 168.431 67.7578 167.375 69.4638 165.474C72.4494 167.586 76.5012 168.853 80.9795 168.853C88.2301 168.853 94.4145 165.474 96.7603 160.828C98.0398 161.673 99.3193 162.095 101.025 162.095C105.077 162.095 108.276 158.927 108.276 154.915C108.489 151.325 105.29 147.946 101.239 147.946Z" fill="white"/>
<path d="M195.07 147.946C194.217 147.946 193.577 148.157 192.724 148.369C192.937 147.735 192.937 147.101 192.937 146.468C192.937 140.132 187.819 135.064 181.421 135.064C179.289 135.064 177.156 135.697 175.45 136.753C172.678 131.685 167.133 128.095 160.949 128.095C151.779 128.095 144.529 135.486 144.529 144.356C144.529 144.99 144.529 145.623 144.742 146.468C144.315 146.468 143.676 146.257 143.249 146.257C138.131 146.257 134.079 150.269 134.079 155.338C134.079 160.406 138.131 164.419 143.249 164.419C145.168 164.419 146.874 163.785 148.367 162.729C149.647 166.108 152.845 168.431 156.684 168.431C159.243 168.431 161.589 167.375 163.295 165.475C166.28 167.586 170.332 168.853 174.811 168.853C182.061 168.853 188.246 165.474 190.591 160.828C191.871 161.673 193.15 162.096 194.856 162.096C198.908 162.096 202.107 158.928 202.107 154.915C202.32 151.325 199.121 147.946 195.07 147.946Z" fill="white"/>
<path d="M288.689 147.946C287.836 147.946 287.196 148.157 286.343 148.368C286.556 147.734 286.556 147.101 286.556 146.467C286.556 140.132 281.438 135.063 275.041 135.063C272.908 135.063 270.776 135.697 269.069 136.753C266.297 131.684 260.753 128.094 254.568 128.094C245.398 128.094 238.148 135.486 238.148 144.356C238.148 144.989 238.148 145.623 238.361 146.467C237.934 146.467 237.295 146.256 236.868 146.256C231.75 146.256 227.698 150.269 227.698 155.337C227.698 160.406 231.75 164.418 236.868 164.418C238.787 164.418 240.493 163.785 241.986 162.729C243.266 166.108 246.465 168.431 250.303 168.431C252.862 168.431 255.208 167.375 256.914 165.474C259.9 167.586 263.951 168.853 268.43 168.853C275.68 168.853 281.865 165.474 284.21 160.828C285.49 161.673 286.77 162.095 288.476 162.095C292.527 162.095 295.726 158.927 295.726 154.915C295.939 151.325 292.741 147.946 288.689 147.946Z" fill="white"/>
</g>
</svg>
