<svg width="100%" height="100%" viewBox="0 0 127 144" fill="none" xmlns="http://www.w3.org/2000/svg">
<g filter="url(#filter0_d)">
<g clip-path="url(#clip0)">
<g opacity="0.1">
<g opacity="0.1">
<path opacity="0.1" d="M7.69305 102.989L7.25534 102.057C7.04781 101.661 2.76503 92.0403 16.498 83.0789C24.0058 78.136 27.4068 73.9309 28.5179 72.3896L29.4535 71.0916C30.623 69.4692 33.5373 64.9133 35.8534 56.2279C38.1337 47.7632 42.1253 44.1071 45.4567 42.5638C45.6358 41.4602 45.9772 40.4736 46.6789 39.5001L52.6435 31.2258C54.4562 28.711 57.6801 27.8299 60.3608 28.8994C61.7247 28.0334 63.3319 27.3429 65.0071 27.0711C66.1238 26.89 67.2406 26.7088 68.3574 26.5277C73.2659 25.8747 76.3144 25.2369 77.4065 22.6958C79.2625 18.2399 82.3449 15.161 86.046 14.1308C88.5135 13.444 92.292 13.3325 96.6726 16.4902C101.134 19.7064 102.223 23.3264 102.351 25.8844C102.544 29.7215 100.656 33.5379 96.9566 36.7885C94.891 38.6279 95.3081 41.6405 96.1818 46.5849C96.363 47.7016 96.6253 48.8769 96.7253 49.9352C96.9386 51.6915 96.85 53.3534 96.4596 54.9211C98.3216 57.1263 98.5048 60.4634 96.692 62.9781L90.7275 71.2525C90.0843 72.1448 89.1977 72.8617 88.2658 73.2994C87.8547 76.9478 85.729 81.9489 78.3607 86.8692C70.8529 91.8121 67.4518 96.0172 66.3408 97.5585L65.4052 98.8565C64.2357 100.479 61.3213 105.035 59.0052 113.72C54.8446 129.582 44.3634 128.56 43.9219 128.488L42.8995 128.368L7.69305 102.989ZM50.0656 49.3378C49.4261 49.3699 45.657 49.9813 43.5522 58.2026C41.0343 67.852 37.6974 73.3361 35.862 75.7112L34.9849 76.928C33.2891 79.2805 29.2222 84.2384 20.8636 89.6775C15.1742 93.4658 14.4519 96.52 14.3991 97.9612L45.3061 120.241C46.5983 119.816 49.3261 118.084 51.1216 111.489C53.6395 101.84 56.9764 96.3555 58.8118 93.9803L59.6889 92.7635C61.3847 90.411 65.4516 85.4532 73.8102 80.0141C79.4996 76.2258 80.2219 73.1716 80.2747 71.7303L78.5711 70.5023L83.2492 64.0126L84.9527 65.2406L89.2799 59.2377L86.0351 56.8987L88.095 53.6991C88.5986 52.8294 88.8004 51.8655 88.6192 50.7487C88.4607 49.7715 88.3022 48.7943 88.121 47.6776C87.2021 42.454 85.9076 35.3572 91.4969 30.5106C93.2474 28.9372 94.2189 27.4186 94.132 26C94.1489 24.7794 92.8868 23.6231 91.8323 22.8629C90.7777 22.1027 89.2817 21.2709 87.9895 21.6954C86.7558 22.0388 85.4825 23.4631 84.6243 25.6798C81.7346 32.5957 74.5925 33.611 69.4048 34.3092C68.288 34.4904 67.3108 34.6489 66.3337 34.8074C65.1584 35.0697 64.3661 35.4848 63.7002 36.2375L61.3159 39.2031L58.0711 36.8641L53.7439 42.8671L67.7778 52.9834L50.0656 49.3378Z" fill="black"/>
</g>
<g opacity="0.1">
<g opacity="0.1">
<g opacity="0.1">
<path opacity="0.1" d="M92.6319 50.3127C91.843 44.5666 89.3959 37.8717 94.1571 33.6609C98.9768 29.3689 100.093 23.8868 94.1715 19.6181C88.3308 15.4078 83.3431 18.2227 80.9344 24.1293C78.4446 29.9774 71.3195 29.7722 65.6187 30.8403C59.4406 32.0573 58.8693 37.8092 58.8693 37.8092L88.1539 58.9189C88.2124 58.8378 93.4887 56.4776 92.6319 50.3127Z" fill="black"/>
<path opacity="0.4" d="M92.2321 21.7953C92.4812 23.3308 90.9061 24.6609 88.9876 24.7572C86.9879 24.795 85.2259 23.6481 85.1164 22.0899C84.8673 20.5544 86.4424 19.2243 88.361 19.128C90.2795 19.0317 91.983 20.2597 92.2321 21.7953Z" fill="black"/>
</g>
<g opacity="0.1">
<g opacity="0.1">
<path opacity="0.1" d="M93.3432 60.4408C94.1619 59.3051 93.8902 57.6299 92.7545 56.8112L59.4138 32.7777C58.2781 31.959 56.603 32.2308 55.7843 33.3665L49.8198 41.6408C49.0011 42.7765 49.2729 44.4516 50.4086 45.2703L83.7492 69.3038C84.8849 70.1225 86.56 69.8508 87.3787 68.7151L93.3432 60.4408Z" fill="black"/>
<g opacity="0.1">
<g opacity="0.1">
<g opacity="0.1">
<path opacity="0.1" d="M55.0289 44.1629C54.678 44.6496 53.9216 44.844 53.3537 44.4346C52.867 44.0838 52.6727 43.3273 53.082 42.7595L58.1694 35.702C58.5202 35.2152 59.2767 35.0209 59.8445 35.4302C60.3313 35.7811 60.5256 36.5375 60.1163 37.1054L55.0289 44.1629Z" fill="black"/>
<path opacity="0.1" d="M59.2476 47.2034C58.8968 47.6901 58.1403 47.8845 57.5725 47.4752C57.0858 47.1243 56.8914 46.3678 57.3007 45.8L62.3881 38.7425C62.739 38.2558 63.4954 38.0614 64.0633 38.4708C64.55 38.8216 64.7444 39.5781 64.335 40.1459L59.2476 47.2034Z" fill="black"/>
</g>
<g opacity="0.1">
<path opacity="0.1" d="M63.4654 50.2444C63.1146 50.7312 62.3581 50.9255 61.7903 50.5162C61.3035 50.1653 61.1092 49.4089 61.5185 48.841L66.6059 41.7835C66.9568 41.2968 67.7132 41.1024 68.2811 41.5118C68.7678 41.8626 68.9621 42.6191 68.5528 43.1869L63.4654 50.2444Z" fill="black"/>
<path opacity="0.1" d="M67.6842 53.285C67.3333 53.7717 66.5768 53.966 66.009 53.5567C65.5223 53.2058 65.3279 52.4494 65.7373 51.8815L70.8247 44.824C71.1755 44.3373 71.932 44.143 72.4998 44.5523C72.9865 44.9032 73.1809 45.6596 72.7716 46.2275L67.6842 53.285Z" fill="black"/>
</g>
</g>
<g opacity="0.1">
<g opacity="0.1">
<path opacity="0.1" d="M71.9019 56.326C71.5511 56.8127 70.7946 57.007 70.2268 56.5977C69.7401 56.2469 69.5457 55.4904 69.955 54.9226L75.0424 47.865C75.3933 47.3783 76.1497 47.184 76.7176 47.5933C77.2043 47.9442 77.3987 48.7006 76.9893 49.2685L71.9019 56.326Z" fill="black"/>
<path opacity="0.1" d="M76.1207 59.3665C75.7698 59.8532 75.0134 60.0476 74.4455 59.6382C73.9588 59.2874 73.7645 58.5309 74.1738 57.9631L79.2612 50.9056C79.612 50.4189 80.3685 50.2245 80.9363 50.6338C81.4231 50.9847 81.6174 51.7411 81.2081 52.309L76.1207 59.3665Z" fill="black"/>
</g>
<g opacity="0.1">
<path opacity="0.1" d="M80.3385 62.4075C79.9876 62.8942 79.2311 63.0886 78.6633 62.6793C78.1766 62.3284 77.9822 61.5719 78.3916 61.0041L83.479 53.9466C83.8298 53.4599 84.5863 53.2655 85.1541 53.6749C85.6408 54.0257 85.8352 54.7822 85.4259 55.35L80.3385 62.4075Z" fill="black"/>
<path opacity="0.1" d="M84.6383 65.5066C84.2874 65.9934 83.531 66.1877 82.9631 65.7784C82.4764 65.4275 82.282 64.6711 82.6914 64.1032L87.7788 57.0457C88.1296 56.559 88.8861 56.3646 89.4539 56.774C89.9406 57.1248 90.135 57.8813 89.7257 58.4491L84.6383 65.5066Z" fill="black"/>
</g>
</g>
</g>
</g>
<g opacity="0.1">
<g opacity="0.1">
<path opacity="0.1" d="M61.9982 96.4005L62.9338 95.1025C64.4542 92.9934 68.1702 88.5223 75.9931 83.3134C86.9983 76.0839 83.8306 69.3626 83.8306 69.3626L67.1197 57.3166L50.4088 45.2706C50.4088 45.2706 42.9724 44.4711 39.651 57.1162C37.2632 66.243 34.1376 71.263 32.6173 73.3722L31.6817 74.6701C30.1613 76.7793 26.4452 81.2504 18.6224 86.4593C7.61715 93.6888 10.7849 100.41 10.7849 100.41L27.4958 112.456L44.2066 124.502C44.2066 124.502 51.6431 125.302 54.9645 112.656C57.4107 103.449 60.4778 98.5096 61.9982 96.4005Z" fill="black"/>
</g>
</g>
</g>
</g>
</g>
</g>
<path d="M8.5993 108.573L8.16159 107.641C7.95406 107.245 3.67128 97.6243 17.4042 88.6629C24.912 83.7199 28.3131 79.5148 29.4241 77.9736L30.3597 76.6756C31.5293 75.0532 34.4436 70.4973 36.7597 61.8119C39.04 53.3472 43.0315 49.6911 46.3629 48.1478C46.5421 47.0442 46.8835 46.0575 47.5852 45.0841L53.5497 36.8098C55.3625 34.295 58.5864 33.4139 61.2671 34.4834C62.6309 33.6174 64.2382 32.9269 65.9133 32.6551C67.0301 32.474 68.1469 32.2928 69.2636 32.1117C74.1722 31.4587 77.2206 30.8209 78.3128 28.2798C80.1688 23.8239 83.2511 20.745 86.9523 19.7148C89.4197 19.028 93.1983 18.9165 97.5788 22.0742C102.04 25.2904 103.129 28.9104 103.258 31.4684C103.45 35.3055 101.562 39.1219 97.8629 42.3724C95.7973 44.2118 96.2144 47.2245 97.0881 52.1689C97.2692 53.2856 97.5315 54.4609 97.6315 55.5192C97.8448 57.2754 97.7562 58.9374 97.3658 60.5051C99.2279 62.7103 99.411 66.0474 97.5983 68.5621L91.6338 76.8365C90.9905 77.7288 90.1039 78.4457 89.172 78.8834C88.761 82.5318 86.6352 87.5329 79.267 92.4532C71.7591 97.3961 68.3581 101.601 67.2471 103.143L66.3114 104.44C65.1419 106.063 62.2276 110.619 59.9115 119.304C55.7508 135.166 45.2696 134.144 44.8282 134.072L43.8057 133.951L8.5993 108.573ZM50.9719 54.9218C50.3324 54.9539 46.5633 55.5653 44.4584 63.7866C41.9405 73.436 38.6037 78.9201 36.7683 81.2952L35.8912 82.512C34.1954 84.8645 30.1284 89.8223 21.7698 95.2615C16.0805 99.0498 15.3581 102.104 15.3054 103.545L46.2124 125.825C47.5046 125.4 50.2323 123.668 52.0279 117.073C54.5458 107.424 57.8826 101.939 59.718 99.5643L60.5952 98.3475C62.291 95.995 66.3579 91.0372 74.7165 85.5981C80.4058 81.8098 81.1282 78.7555 81.1809 77.3143L79.4774 76.0863L84.1555 69.5966L85.859 70.8246L90.1862 64.8217L86.9414 62.4827L89.0012 59.2831C89.5048 58.4134 89.7066 57.4494 89.5255 56.3327C89.367 55.3555 89.2085 54.3783 89.0273 53.2615C88.1083 48.038 86.8138 40.9412 92.4031 36.0946C94.1537 34.5212 95.1251 33.0026 95.0383 31.5839C95.0552 30.3634 93.7931 29.2071 92.7385 28.4469C91.6839 27.6867 90.1879 26.8549 88.8957 27.2794C87.662 27.6228 86.3887 29.0471 85.5305 31.2638C82.6408 38.1797 75.4988 39.195 70.311 39.8932C69.1943 40.0744 68.2171 40.2329 67.2399 40.3914C66.0647 40.6537 65.2724 41.0688 64.6065 41.8215L62.2222 44.7871L58.9773 42.4481L54.6501 48.451L68.684 58.5674L50.9719 54.9218Z" fill="white"/>
<path d="M93.5381 55.8967C92.7493 50.1506 90.3022 43.4557 95.0634 39.2448C99.8831 34.9529 101 29.4708 95.0777 25.2021C89.237 20.9918 84.2494 23.8067 81.8407 29.7133C79.3509 35.5614 72.2257 35.3562 66.5249 36.4242C60.3468 37.6413 59.7756 43.3932 59.7756 43.3932L89.0601 64.5029C89.1186 64.4218 94.3949 62.0616 93.5381 55.8967Z" fill="#FCCB5E"/>
<path opacity="0.4" d="M93.1384 27.3792C93.3875 28.9148 91.8123 30.2448 89.8938 30.3412C87.8942 30.379 86.1322 29.2321 86.0227 27.6739C85.7736 26.1384 87.3487 24.8083 89.2672 24.712C91.1857 24.6157 92.8893 25.8437 93.1384 27.3792Z" fill="white"/>
<path d="M94.2495 66.0247C95.0682 64.8891 94.7964 63.2139 93.6607 62.3952L60.3201 38.3617C59.1844 37.543 57.5092 37.8148 56.6906 38.9504L50.726 47.2248C49.9074 48.3605 50.1791 50.0356 51.3148 50.8543L84.6554 74.8878C85.7911 75.7065 87.4663 75.4348 88.285 74.2991L94.2495 66.0247Z" fill="#FCC0DE"/>
<path d="M55.9351 49.7469C55.5843 50.2336 54.8278 50.4279 54.26 50.0186C53.7733 49.6678 53.5789 48.9113 53.9882 48.3435L59.0756 41.2859C59.4265 40.7992 60.1829 40.6049 60.7508 41.0142C61.2375 41.3651 61.4319 42.1215 61.0225 42.6894L55.9351 49.7469Z" fill="#F789C6"/>
<path d="M60.1539 52.7874C59.803 53.2741 59.0466 53.4685 58.4787 53.0591C57.992 52.7083 57.7977 51.9518 58.207 51.384L63.2944 44.3265C63.6452 43.8397 64.4017 43.6454 64.9695 44.0547C65.4563 44.4056 65.6506 45.162 65.2413 45.7299L60.1539 52.7874Z" fill="#F789C6"/>
<path d="M64.3717 55.8284C64.0208 56.3151 63.2643 56.5095 62.6965 56.1002C62.2098 55.7493 62.0154 54.9928 62.4248 54.425L67.5122 47.3675C67.863 46.8808 68.6195 46.6864 69.1873 47.0958C69.674 47.4466 69.8684 48.2031 69.4591 48.7709L64.3717 55.8284Z" fill="#F789C6"/>
<path d="M68.5904 58.8689C68.2396 59.3557 67.4831 59.55 66.9153 59.1407C66.4285 58.7898 66.2342 58.0334 66.6435 57.4655L71.7309 50.408C72.0818 49.9213 72.8382 49.7269 73.4061 50.1363C73.8928 50.4871 74.0871 51.2436 73.6778 51.8114L68.5904 58.8689Z" fill="#F789C6"/>
<path d="M72.8082 61.91C72.4573 62.3967 71.7009 62.591 71.133 62.1817C70.6463 61.8308 70.452 61.0744 70.8613 60.5065L75.9487 53.449C76.2995 52.9623 77.056 52.768 77.6238 53.1773C78.1106 53.5282 78.3049 54.2846 77.8956 54.8525L72.8082 61.91Z" fill="#F789C6"/>
<path d="M77.0269 64.9505C76.6761 65.4372 75.9196 65.6316 75.3518 65.2222C74.8651 64.8714 74.6707 64.1149 75.08 63.5471L80.1674 56.4896C80.5183 56.0028 81.2747 55.8085 81.8426 56.2178C82.3293 56.5687 82.5237 57.3251 82.1143 57.893L77.0269 64.9505Z" fill="#F789C6"/>
<path d="M81.2447 67.9915C80.8939 68.4782 80.1374 68.6726 79.5695 68.2632C79.0828 67.9124 78.8885 67.1559 79.2978 66.5881L84.3852 59.5306C84.7361 59.0439 85.4925 58.8495 86.0604 59.2588C86.5471 59.6097 86.7414 60.3661 86.3321 60.934L81.2447 67.9915Z" fill="#F789C6"/>
<path d="M85.5445 71.0906C85.1937 71.5773 84.4372 71.7717 83.8694 71.3624C83.3826 71.0115 83.1883 70.2551 83.5976 69.6872L88.685 62.6297C89.0359 62.143 89.7923 61.9486 90.3602 62.358C90.8469 62.7088 91.0412 63.4653 90.6319 64.0331L85.5445 71.0906Z" fill="#F789C6"/>
<path d="M62.9044 101.984L63.84 100.687C65.3604 98.5774 69.0765 94.1063 76.8994 88.8974C87.9046 81.6679 84.7368 74.9466 84.7368 74.9466L68.0259 62.9006L51.3151 50.8546C51.3151 50.8546 43.8786 50.0551 40.5572 62.7002C38.1695 71.827 35.1024 76.7659 33.582 78.875L32.6464 80.173C31.126 82.2821 27.4099 86.7532 19.5871 91.9622C8.58188 99.1916 11.7496 105.913 11.7496 105.913L28.4605 117.959L45.1714 130.005C45.1714 130.005 52.6078 130.804 55.9292 118.159C58.3169 109.033 61.3841 104.094 62.9044 101.984Z" fill="#F789C6"/>
</g>
</g>
<defs>
<filter id="filter0_d" x="0" y="0" width="128.712" height="143.635" filterUnits="userSpaceOnUse" color-interpolation-filters="sRGB">
<feFlood flood-opacity="0" result="BackgroundImageFix"/>
<feColorMatrix in="SourceAlpha" type="matrix" values="0 0 0 0 0 0 0 0 0 0 0 0 0 0 0 0 0 0 127 0"/>
<feOffset dx="6" dy="6"/>
<feColorMatrix type="matrix" values="0 0 0 0 0 0 0 0 0 0 0 0 0 0 0 0 0 0 0.09 0"/>
<feBlend mode="normal" in2="BackgroundImageFix" result="effect1_dropShadow"/>
<feBlend mode="normal" in="SourceGraphic" in2="effect1_dropShadow" result="shape"/>
</filter>
<clipPath id="clip0">
<rect x="73.7969" width="60.3" height="126.2" transform="rotate(35.7859 73.7969 0)" fill="white"/>
</clipPath>
</defs>
</svg>
