<svg width="286" height="332" viewBox="0 0 286 332" fill="none" xmlns="http://www.w3.org/2000/svg">
<g filter="url(#filter0_d)">
<path fill-rule="evenodd" clip-rule="evenodd" d="M280 10.4527C280 4.92985 275.523 0.452698 270 0.452698H10C4.47715 0.452698 0 4.92984 0 10.4527V315.642C0 321.165 4.47715 325.642 10 325.642H270C275.523 325.642 280 321.165 280 315.642V10.4527ZM264.268 29.2136C264.268 23.6908 259.791 19.2136 254.268 19.2136H28.7092C23.1864 19.2136 18.7092 23.6908 18.7092 29.2136V205.422C18.7092 210.944 23.1864 215.422 28.7093 215.422H254.268C259.791 215.422 264.268 210.944 264.268 205.422V29.2136Z" fill="#FFE6AE"/>
</g>
<defs>
<filter id="filter0_d" x="0" y="0.452698" width="286" height="331.189" filterUnits="userSpaceOnUse" color-interpolation-filters="sRGB">
<feFlood flood-opacity="0" result="BackgroundImageFix"/>
<feColorMatrix in="SourceAlpha" type="matrix" values="0 0 0 0 0 0 0 0 0 0 0 0 0 0 0 0 0 0 127 0"/>
<feOffset dx="6" dy="6"/>
<feColorMatrix type="matrix" values="0 0 0 0 0 0 0 0 0 0 0 0 0 0 0 0 0 0 0.09 0"/>
<feBlend mode="normal" in2="BackgroundImageFix" result="effect1_dropShadow"/>
<feBlend mode="normal" in="SourceGraphic" in2="effect1_dropShadow" result="shape"/>
</filter>
</defs>
</svg>
