<svg width="100%" height="100%" viewBox="0 0 368 422" fill="none" xmlns="http://www.w3.org/2000/svg">
<g filter="url(#filter0_d)">
<path fill-rule="evenodd" clip-rule="evenodd" d="M362 10C362 4.47715 357.523 0 352 0H10C4.47715 0 0 4.47714 0 9.99999V406C0 411.523 4.47715 416 10 416H352C357.523 416 362 411.523 362 406V10ZM338.066 34C338.066 28.4772 333.589 24 328.066 24H33.9339C28.411 24 23.9339 28.4772 23.9339 34V265C23.9339 270.523 28.411 275 33.9339 275H328.066C333.589 275 338.066 270.523 338.066 265V34Z" fill="#FFE6AE"/>
</g>
<defs>
<filter id="filter0_d" x="0" y="0" width="368" height="422" filterUnits="userSpaceOnUse" color-interpolation-filters="sRGB">
<feFlood flood-opacity="0" result="BackgroundImageFix"/>
<feColorMatrix in="SourceAlpha" type="matrix" values="0 0 0 0 0 0 0 0 0 0 0 0 0 0 0 0 0 0 127 0"/>
<feOffset dx="6" dy="6"/>
<feColorMatrix type="matrix" values="0 0 0 0 0 0 0 0 0 0 0 0 0 0 0 0 0 0 0.09 0"/>
<feBlend mode="normal" in2="BackgroundImageFix" result="effect1_dropShadow"/>
<feBlend mode="normal" in="SourceGraphic" in2="effect1_dropShadow" result="shape"/>
</filter>
</defs>
</svg>
