<svg width="280" height="326" viewBox="0 0 280 326" fill="none" xmlns="http://www.w3.org/2000/svg">
<mask id="mask0" mask-type="alpha" maskUnits="userSpaceOnUse" x="0" y="0" width="280" height="326">
<path fill-rule="evenodd" clip-rule="evenodd" d="M280 0.452698H0V325.642H280V0.452698ZM261.488 19.2136H18.5132V215.422H261.488V19.2136Z" fill="#FFE6AE"/>
</mask>
<g mask="url(#mask0)">
<path d="M0.911519 0.507812L3.33483 5.4618L8.7664 6.21748L4.83896 10.0799L5.75815 15.5377L0.911519 12.9347L-3.93511 15.5377L-3.01592 10.0799L-6.94336 6.21748L-1.51179 5.4618L0.911519 0.507812Z" fill="white"/>
<path d="M23.9756 3.94922L25.229 6.6362L28.1537 7.05604L26.0646 9.15525L26.566 12.0102L23.9756 10.6667L21.3016 12.0102L21.8029 9.15525L19.7139 7.05604L22.6386 6.6362L23.9756 3.94922Z" fill="white"/>
<path d="M46.9545 0.506836L49.3778 5.46082L54.8094 6.21651L50.8819 10.0789L51.8011 15.5367L46.9545 12.9338L42.1079 15.5367L43.027 10.0789L39.0996 6.21651L44.5312 5.46082L46.9545 0.506836Z" fill="white"/>
<path d="M70.017 3.94922L71.354 6.63607L74.2787 7.05589L72.1061 9.155L72.6075 12.0098L70.017 10.6664L67.4266 12.0098L67.9279 9.155L65.8389 7.05589L68.68 6.63607L70.017 3.94922Z" fill="white"/>
<path d="M93.0805 0.506836L95.5038 5.46082L100.935 6.21651L97.008 10.0789L97.9272 15.5367L93.0805 12.9338L88.2339 15.5367L89.153 10.0789L85.2256 6.21651L90.6572 5.46082L93.0805 0.506836Z" fill="white"/>
<path d="M116.145 3.94922L117.398 6.63607L120.323 7.05589L118.234 9.155L118.735 12.0098L116.145 10.6664L113.471 12.0098L113.972 9.155L111.883 7.05589L114.808 6.63607L116.145 3.94922Z" fill="white"/>
<path d="M139.124 0.506836L141.548 5.46082L146.979 6.21651L143.052 10.0789L143.971 15.5367L139.124 12.9338L134.278 15.5367L135.197 10.0789L131.27 6.21651L136.701 5.46082L139.124 0.506836Z" fill="white"/>
<path d="M162.188 3.94922L163.525 6.63607L166.45 7.05589L164.277 9.155L164.778 12.0098L162.188 10.6664L159.597 12.0098L160.099 9.155L158.01 7.05589L160.851 6.63607L162.188 3.94922Z" fill="white"/>
<path d="M12.4428 17.8877L14.8661 22.8419L20.2976 23.5977L16.3702 27.4603L17.2894 32.8344L12.4428 30.3153L7.59614 32.8344L8.51533 27.4603L4.58789 23.5977L10.0195 22.8419L12.4428 17.8877Z" fill="white"/>
<path d="M35.4223 21.3311L36.7593 24.018L39.684 24.4379L37.5949 26.4531L38.0963 29.392L35.4223 28.0485L32.8318 29.392L33.3332 26.4531L31.2441 24.4379L34.1688 24.018L35.4223 21.3311Z" fill="white"/>
<path d="M58.4858 17.8877L60.9091 22.8418L66.3407 23.5975L62.4132 27.46L63.3324 32.834L58.4858 30.3149L53.6391 32.834L54.5583 27.46L50.6309 23.5975L56.0625 22.8418L58.4858 17.8877Z" fill="white"/>
<path d="M81.5498 21.3311L82.8868 24.018L85.7279 24.4379L83.6389 26.4531L84.1402 29.392L81.5498 28.0485L78.9593 29.392L79.4607 26.4531L77.2881 24.4379L80.2128 24.018L81.5498 21.3311Z" fill="white"/>
<path d="M104.613 17.8877L107.036 22.8418L112.468 23.5975L108.54 27.46L109.459 32.834L104.613 30.3149L99.7661 32.834L100.685 27.46L96.7578 23.5975L102.189 22.8418L104.613 17.8877Z" fill="white"/>
<path d="M127.591 21.3311L128.928 24.018L131.853 24.4379L129.764 26.4531L130.265 29.392L127.591 28.0485L125.001 29.392L125.502 26.4531L123.413 24.4379L126.338 24.018L127.591 21.3311Z" fill="white"/>
<path d="M150.656 17.8877L153.079 22.8418L158.511 23.5975L154.583 27.46L155.502 32.834L150.656 30.3149L145.809 32.834L146.728 27.46L142.801 23.5975L148.232 22.8418L150.656 17.8877Z" fill="white"/>
<path d="M173.72 21.3311L175.057 24.018L177.898 24.4379L175.809 26.4531L176.31 29.392L173.72 28.0485L171.129 29.392L171.631 26.4531L169.458 24.4379L172.383 24.018L173.72 21.3311Z" fill="white"/>
<path d="M0.911519 35.2695L3.33483 40.1397L8.7664 40.9794L4.83896 44.8419L5.75815 50.2158L0.911519 47.6968L-3.93511 50.2158L-3.01592 44.8419L-6.94336 40.9794L-1.51179 40.1397L0.911519 35.2695Z" fill="white"/>
<path d="M23.9756 38.7129L25.229 41.3158L28.1537 41.8196L26.0646 43.8347L26.566 46.7735L23.9756 45.3461L21.3016 46.7735L21.8029 43.8347L19.7139 41.8196L22.6386 41.3158L23.9756 38.7129Z" fill="white"/>
<path d="M46.9545 35.2695L49.3778 40.1397L54.8094 40.9794L50.8819 44.8419L51.8011 50.2158L46.9545 47.6968L42.1079 50.2158L43.027 44.8419L39.0996 40.9794L44.5312 40.1397L46.9545 35.2695Z" fill="white"/>
<path d="M70.017 38.7129L71.354 41.3159L74.2787 41.8197L72.1061 43.835L72.6075 46.7738L70.017 45.3464L67.4266 46.7738L67.9279 43.835L65.8389 41.8197L68.68 41.3159L70.017 38.7129Z" fill="white"/>
<path d="M93.0805 35.2695L95.5038 40.1397L100.935 40.9794L97.008 44.8419L97.9272 50.2158L93.0805 47.6968L88.2339 50.2158L89.153 44.8419L85.2256 40.9794L90.6572 40.1397L93.0805 35.2695Z" fill="white"/>
<path d="M116.145 38.7129L117.398 41.3159L120.323 41.8197L118.234 43.835L118.735 46.7738L116.145 45.3464L113.471 46.7738L113.972 43.835L111.883 41.8197L114.808 41.3159L116.145 38.7129Z" fill="white"/>
<path d="M139.124 35.2695L141.548 40.1397L146.979 40.9794L143.052 44.8419L143.971 50.2158L139.124 47.6968L134.278 50.2158L135.197 44.8419L131.27 40.9794L136.701 40.1397L139.124 35.2695Z" fill="white"/>
<path d="M162.188 38.7129L163.525 41.3159L166.45 41.8197L164.277 43.835L164.778 46.7738L162.188 45.3464L159.597 46.7738L160.099 43.835L158.01 41.8197L160.851 41.3159L162.188 38.7129Z" fill="white"/>
<path d="M12.4437 52.5674L14.8671 57.5217L20.2986 58.3615L16.3712 62.1402L17.2904 67.5984L12.4437 64.9953L7.59712 67.5984L8.51631 62.1402L4.58887 58.3615L10.0204 57.5217L12.4437 52.5674Z" fill="white"/>
<path d="M35.4223 56.0938L36.7593 58.6968L39.684 59.1166L37.5949 61.2158L38.0963 64.1547L35.4223 62.7272L32.8318 64.1547L33.3332 61.2158L31.2441 59.1166L34.1688 58.6968L35.4223 56.0938Z" fill="white"/>
<path d="M58.4857 52.5674L60.909 57.5215L66.3406 58.3612L62.4132 62.1397L63.3324 67.5976L58.4857 64.9946L53.6391 67.5976L54.5583 62.1397L50.6309 58.3612L56.0624 57.5215L58.4857 52.5674Z" fill="white"/>
<path d="M81.5498 56.0938L82.8868 58.6968L85.7279 59.1166L83.6389 61.2158L84.1402 64.1547L81.5498 62.7272L78.9593 64.1547L79.4607 61.2158L77.2881 59.1166L80.2128 58.6968L81.5498 56.0938Z" fill="white"/>
<path d="M104.613 52.5674L107.036 57.5215L112.468 58.3612L108.54 62.1397L109.459 67.5976L104.613 64.9946L99.7661 67.5976L100.685 62.1397L96.7578 58.3612L102.189 57.5215L104.613 52.5674Z" fill="white"/>
<path d="M127.591 56.0938L128.928 58.6968L131.853 59.1166L129.764 61.2158L130.265 64.1547L127.591 62.7272L125.001 64.1547L125.502 61.2158L123.413 59.1166L126.338 58.6968L127.591 56.0938Z" fill="white"/>
<path d="M150.657 52.5674L153.08 57.5215L158.512 58.3612L154.584 62.1397L155.503 67.5976L150.657 64.9946L145.81 67.5976L146.729 62.1397L142.802 58.3612L148.233 57.5215L150.657 52.5674Z" fill="white"/>
<path d="M173.72 56.0938L175.057 58.6968L177.898 59.1166L175.809 61.2158L176.31 64.1547L173.72 62.7272L171.129 64.1547L171.631 61.2158L169.458 59.1166L172.383 58.6968L173.72 56.0938Z" fill="white"/>
<path d="M0.911519 69.9492L3.33483 74.9033L8.7664 75.659L4.83896 79.5216L5.75815 84.9795L0.911519 82.3765L-3.93511 84.9795L-3.01592 79.5216L-6.94336 75.659L-1.51179 74.9033L0.911519 69.9492Z" fill="white"/>
<path d="M23.9756 73.3916L25.229 76.0786L28.1537 76.4984L26.0646 78.5976L26.566 81.4526L23.9756 80.1091L21.3016 81.4526L21.8029 78.5976L19.7139 76.4984L22.6386 76.0786L23.9756 73.3916Z" fill="white"/>
<path d="M46.9545 69.9492L49.3778 74.9034L54.8094 75.6592L50.8819 79.5218L51.8011 84.9799L46.9545 82.3768L42.1079 84.9799L43.027 79.5218L39.0996 75.6592L44.5312 74.9034L46.9545 69.9492Z" fill="white"/>
<path d="M70.017 73.3916L71.354 76.0786L74.2787 76.4984L72.1061 78.5976L72.6075 81.4526L70.017 80.1091L67.4266 81.4526L67.9279 78.5976L65.8389 76.4984L68.68 76.0786L70.017 73.3916Z" fill="white"/>
<path d="M93.0805 69.9492L95.5038 74.9034L100.935 75.6592L97.008 79.5218L97.9272 84.9799L93.0805 82.3768L88.2339 84.9799L89.153 79.5218L85.2256 75.6592L90.6572 74.9034L93.0805 69.9492Z" fill="white"/>
<path d="M116.145 73.3916L117.398 76.0786L120.323 76.4984L118.234 78.5976L118.735 81.4526L116.145 80.1091L113.471 81.4526L113.972 78.5976L111.883 76.4984L114.808 76.0786L116.145 73.3916Z" fill="white"/>
<path d="M139.124 69.9492L141.548 74.9034L146.979 75.6592L143.052 79.5218L143.971 84.9799L139.124 82.3768L134.278 84.9799L135.197 79.5218L131.27 75.6592L136.701 74.9034L139.124 69.9492Z" fill="white"/>
<path d="M162.188 73.3916L163.525 76.0786L166.45 76.4984L164.277 78.5976L164.778 81.4526L162.188 80.1091L159.597 81.4526L160.099 78.5976L158.01 76.4984L160.851 76.0786L162.188 73.3916Z" fill="white"/>
<path d="M187.539 5.91992L189.963 10.874L195.394 11.6297L191.467 15.4923L192.386 20.9502L187.539 18.3472L182.693 20.9502L183.612 15.4923L179.685 11.6297L185.116 10.874L187.539 5.91992Z" fill="white"/>
<path d="M210.52 9.36328L211.857 12.0501L214.782 12.47L212.693 14.5691L213.194 17.4238L210.52 16.0804L207.929 17.4238L208.431 14.5691L206.342 12.47L209.266 12.0501L210.52 9.36328Z" fill="white"/>
<path d="M233.582 5.91992L236.006 10.874L241.437 11.6297L237.51 15.4923L238.429 20.9502L233.582 18.3472L228.736 20.9502L229.655 15.4923L225.728 11.6297L231.159 10.874L233.582 5.91992Z" fill="white"/>
<path d="M256.646 9.36328L257.983 12.0501L260.825 12.47L258.736 14.5691L259.237 17.4238L256.646 16.0804L254.056 17.4238L254.557 14.5691L252.385 12.47L255.309 12.0501L256.646 9.36328Z" fill="white"/>
<path d="M279.709 5.91992L282.133 10.874L287.564 11.6297L283.637 15.4923L284.556 20.9502L279.709 18.3472L274.863 20.9502L275.782 15.4923L271.854 11.6297L277.286 10.874L279.709 5.91992Z" fill="white"/>
<path d="M176.007 23.3018L178.431 28.2559L183.862 29.0116L179.935 32.8741L180.854 38.248L176.007 35.729L171.161 38.248L172.08 32.8741L168.152 29.0116L173.584 28.2559L176.007 23.3018Z" fill="white"/>
<path d="M199.071 26.7441L200.325 29.431L203.249 29.8508L201.16 31.866L201.662 34.8047L199.071 33.4613L196.397 34.8047L196.899 31.866L194.81 29.8508L197.734 29.431L199.071 26.7441Z" fill="white"/>
<path d="M222.051 23.3008L224.474 28.2549L229.906 29.0106L225.979 32.8731L226.898 38.2471L222.051 35.728L217.205 38.2471L218.124 32.8731L214.196 29.0106L219.628 28.2549L222.051 23.3008Z" fill="white"/>
<path d="M245.115 26.7441L246.452 29.4311L249.376 29.851L247.204 31.8662L247.705 34.8051L245.115 33.4616L242.524 34.8051L243.026 31.8662L240.937 29.851L243.778 29.4311L245.115 26.7441Z" fill="white"/>
<path d="M268.176 23.3008L270.6 28.2549L276.031 29.0106L272.104 32.8731L273.023 38.2471L268.176 35.728L263.33 38.2471L264.249 32.8731L260.321 29.0106L265.753 28.2549L268.176 23.3008Z" fill="white"/>
<path d="M187.539 40.6826L189.963 45.5526L195.394 46.3923L191.467 50.2547L192.386 55.6285L187.539 53.1095L182.693 55.6285L183.612 50.2547L179.685 46.3923L185.116 45.5526L187.539 40.6826Z" fill="white"/>
<path d="M210.52 44.125L211.857 46.7279L214.782 47.2317L212.693 49.2468L213.194 52.1856L210.52 50.7582L207.929 52.1856L208.431 49.2468L206.342 47.2317L209.266 46.7279L210.52 44.125Z" fill="white"/>
<path d="M233.582 40.6826L236.006 45.5526L241.437 46.3923L237.51 50.2547L238.429 55.6285L233.582 53.1095L228.736 55.6285L229.655 50.2547L225.728 46.3923L231.159 45.5526L233.582 40.6826Z" fill="white"/>
<path d="M256.646 44.125L257.983 46.7279L260.825 47.2317L258.736 49.2468L259.237 52.1856L256.646 50.7582L254.056 52.1856L254.557 49.2468L252.385 47.2317L255.309 46.7279L256.646 44.125Z" fill="white"/>
<path d="M279.709 40.6826L282.133 45.5526L287.564 46.3923L283.637 50.2547L284.556 55.6285L279.709 53.1095L274.863 55.6285L275.782 50.2547L271.854 46.3923L277.286 45.5526L279.709 40.6826Z" fill="white"/>
<path d="M176.007 57.9795L178.431 62.9335L183.862 63.7731L179.935 67.5516L180.854 73.0094L176.007 70.4064L171.161 73.0094L172.08 67.5516L168.152 63.7731L173.584 62.9335L176.007 57.9795Z" fill="white"/>
<path d="M199.071 61.5068L200.325 64.1099L203.249 64.5297L201.16 66.6289L201.662 69.5678L199.071 68.1403L196.397 69.5678L196.899 66.6289L194.81 64.5297L197.734 64.1099L199.071 61.5068Z" fill="white"/>
<path d="M222.051 57.9795L224.474 62.9337L229.906 63.7734L225.979 67.5521L226.898 73.0101L222.051 70.4071L217.205 73.0101L218.124 67.5521L214.196 63.7734L219.628 62.9337L222.051 57.9795Z" fill="white"/>
<path d="M245.115 61.5068L246.452 64.11L249.376 64.5298L247.204 66.6291L247.705 69.5682L245.115 68.1406L242.524 69.5682L243.026 66.6291L240.937 64.5298L243.778 64.11L245.115 61.5068Z" fill="white"/>
<path d="M268.176 57.9795L270.6 62.9337L276.031 63.7734L272.104 67.5521L273.023 73.0101L268.176 70.4071L263.33 73.0101L264.249 67.5521L260.321 63.7734L265.753 62.9337L268.176 57.9795Z" fill="white"/>
<path d="M187.539 75.3613L189.963 80.3154L195.394 81.0711L191.467 84.9337L192.386 90.3916L187.539 87.7886L182.693 90.3916L183.612 84.9337L179.685 81.0711L185.116 80.3154L187.539 75.3613Z" fill="white"/>
<path d="M210.52 78.8037L211.857 81.4906L214.782 81.9104L212.693 84.0095L213.194 86.8643L210.52 85.5209L207.929 86.8643L208.431 84.0095L206.342 81.9104L209.266 81.4906L210.52 78.8037Z" fill="white"/>
<path d="M233.582 75.3613L236.006 80.3154L241.437 81.0711L237.51 84.9337L238.429 90.3916L233.582 87.7886L228.736 90.3916L229.655 84.9337L225.728 81.0711L231.159 80.3154L233.582 75.3613Z" fill="white"/>
<path d="M256.646 78.8047L257.983 81.4915L260.825 81.9114L258.736 84.0105L259.237 86.8653L256.646 85.5218L254.056 86.8653L254.557 84.0105L252.385 81.9114L255.309 81.4915L256.646 78.8047Z" fill="white"/>
<path d="M279.709 75.3613L282.133 80.3154L287.564 81.0711L283.637 84.9337L284.556 90.3916L279.709 87.7886L274.863 90.3916L275.782 84.9337L271.854 81.0711L277.286 80.3154L279.709 75.3613Z" fill="white"/>
<path d="M176.007 92.7432L178.431 97.6974L183.862 98.4531L179.935 102.316L180.854 107.774L176.007 105.171L171.161 107.774L172.08 102.316L168.152 98.4531L173.584 97.6974L176.007 92.7432Z" fill="white"/>
<path d="M199.071 96.1846L200.325 98.8718L203.249 99.2917L201.16 101.391L201.662 104.246L199.071 102.903L196.397 104.246L196.899 101.391L194.81 99.2917L197.734 98.8718L199.071 96.1846Z" fill="white"/>
<path d="M222.051 92.7422L224.474 97.6964L229.906 98.4521L225.979 102.315L226.898 107.773L222.051 105.17L217.205 107.773L218.124 102.315L214.196 98.4521L219.628 97.6964L222.051 92.7422Z" fill="white"/>
<path d="M245.115 96.1846L246.452 98.8717L249.376 99.2915L247.204 101.391L247.705 104.246L245.115 102.902L242.524 104.246L243.026 101.391L240.937 99.2915L243.778 98.8717L245.115 96.1846Z" fill="white"/>
<path d="M268.176 92.7422L270.6 97.6964L276.031 98.4521L272.104 102.315L273.023 107.773L268.176 105.17L263.33 107.773L264.249 102.315L260.321 98.4521L265.753 97.6964L268.176 92.7422Z" fill="white"/>
<path d="M187.538 110.123L189.962 115.077L195.393 115.833L191.466 119.696L192.385 125.07L187.538 122.551L182.692 125.07L183.611 119.696L179.684 115.833L185.115 115.077L187.538 110.123Z" fill="white"/>
<path d="M210.519 113.566L211.856 116.253L214.781 116.673L212.692 118.688L213.193 121.627L210.519 120.284L207.929 121.627L208.43 118.688L206.341 116.673L209.266 116.253L210.519 113.566Z" fill="white"/>
<path d="M233.582 110.124L236.006 115.078L241.437 115.834L237.51 119.696L238.429 125.07L233.582 122.551L228.736 125.07L229.655 119.696L225.728 115.834L231.159 115.078L233.582 110.124Z" fill="white"/>
<path d="M256.646 113.566L257.983 116.253L260.825 116.673L258.736 118.688L259.237 121.627L256.646 120.284L254.056 121.627L254.557 118.688L252.385 116.673L255.309 116.253L256.646 113.566Z" fill="white"/>
<path d="M279.708 110.124L282.132 115.078L287.563 115.834L283.636 119.696L284.555 125.07L279.708 122.551L274.862 125.07L275.781 119.696L271.854 115.834L277.285 115.078L279.708 110.124Z" fill="white"/>
<path d="M176.007 127.506L178.431 132.376L183.862 133.216L179.935 137.078L180.854 142.453L176.007 139.933L171.161 142.453L172.08 137.078L168.152 133.216L173.584 132.376L176.007 127.506Z" fill="white"/>
<path d="M199.071 130.947L200.325 133.55L203.249 134.054L201.16 136.07L201.662 139.009L199.071 137.581L196.397 139.009L196.899 136.07L194.81 134.054L197.734 133.55L199.071 130.947Z" fill="white"/>
<path d="M222.051 127.505L224.474 132.375L229.906 133.215L225.979 137.077L226.898 142.452L222.051 139.932L217.205 142.452L218.124 137.077L214.196 133.215L219.628 132.375L222.051 127.505Z" fill="white"/>
<path d="M245.115 130.948L246.452 133.552L249.376 134.055L247.204 136.071L247.705 139.01L245.115 137.582L242.524 139.01L243.026 136.071L240.937 134.055L243.778 133.552L245.115 130.948Z" fill="white"/>
<path d="M268.176 127.505L270.6 132.375L276.031 133.215L272.104 137.077L273.023 142.452L268.176 139.932L263.33 142.452L264.249 137.077L260.321 133.215L265.753 132.375L268.176 127.505Z" fill="white"/>
<path d="M187.539 144.804L189.963 149.758L195.394 150.598L191.467 154.376L192.386 159.834L187.539 157.231L182.693 159.834L183.612 154.376L179.685 150.598L185.116 149.758L187.539 144.804Z" fill="white"/>
<path d="M210.52 148.33L211.857 150.933L214.782 151.353L212.693 153.452L213.194 156.391L210.52 154.963L207.929 156.391L208.431 153.452L206.342 151.353L209.266 150.933L210.52 148.33Z" fill="white"/>
<path d="M233.582 144.803L236.006 149.757L241.437 150.597L237.51 154.375L238.429 159.833L233.582 157.23L228.736 159.833L229.655 154.375L225.728 150.597L231.159 149.757L233.582 144.803Z" fill="white"/>
<path d="M256.646 148.33L257.983 150.933L260.825 151.353L258.736 153.452L259.237 156.391L256.646 154.963L254.056 156.391L254.557 153.452L252.385 151.353L255.309 150.933L256.646 148.33Z" fill="white"/>
<path d="M279.709 144.803L282.133 149.757L287.564 150.597L283.637 154.375L284.556 159.833L279.709 157.23L274.863 159.833L275.782 154.375L271.854 150.597L277.286 149.757L279.709 144.803Z" fill="white"/>
<path d="M176.007 162.186L178.431 167.14L183.862 167.896L179.935 171.758L180.854 177.216L176.007 174.613L171.161 177.216L172.08 171.758L168.152 167.896L173.584 167.14L176.007 162.186Z" fill="white"/>
<path d="M199.071 165.628L200.325 168.315L203.249 168.735L201.16 170.834L201.662 173.689L199.071 172.345L196.397 173.689L196.899 170.834L194.81 168.735L197.734 168.315L199.071 165.628Z" fill="white"/>
<path d="M222.051 162.185L224.474 167.139L229.906 167.894L225.979 171.757L226.898 177.215L222.051 174.612L217.205 177.215L218.124 171.757L214.196 167.894L219.628 167.139L222.051 162.185Z" fill="white"/>
<path d="M245.115 165.628L246.452 168.315L249.376 168.735L247.204 170.834L247.705 173.689L245.115 172.345L242.524 173.689L243.026 170.834L240.937 168.735L243.778 168.315L245.115 165.628Z" fill="white"/>
<path d="M268.176 162.186L270.6 167.14L276.031 167.895L272.104 171.758L273.023 177.216L268.176 174.613L263.33 177.216L264.249 171.758L260.321 167.895L265.753 167.14L268.176 162.186Z" fill="white"/>
<path d="M13.3549 95.0547L15.7782 100.009L21.2098 100.765L17.2823 104.627L18.2015 110.085L13.3549 107.482L8.50826 110.085L9.42744 104.627L5.5 100.765L10.9316 100.009L13.3549 95.0547Z" fill="white"/>
<path d="M36.4189 98.498L37.7559 101.185L40.5971 101.605L38.508 103.704L39.0094 106.559L36.4189 105.216L33.8285 106.559L34.3299 103.704L32.1572 101.605L35.0819 101.185L36.4189 98.498Z" fill="white"/>
<path d="M1.82368 112.437L4.247 117.391L9.6786 118.146L5.75114 122.009L6.67034 127.382L1.82368 124.863L-3.02298 127.382L-2.10378 122.009L-6.03125 118.146L-0.599654 117.391L1.82368 112.437Z" fill="white"/>
<path d="M24.8871 115.88L26.2241 118.567L29.1487 118.987L26.9761 121.002L27.4775 123.94L24.8871 122.597L22.2967 123.94L22.798 121.002L20.709 118.987L23.5501 118.567L24.8871 115.88Z" fill="white"/>
<path d="M13.3539 129.817L15.7772 134.688L21.2088 135.527L17.2813 139.39L18.2005 144.764L13.3539 142.245L8.50728 144.764L9.42646 139.39L5.49902 135.527L10.9306 134.688L13.3539 129.817Z" fill="white"/>
<path d="M36.4179 133.26L37.755 135.863L40.5961 136.367L38.507 138.382L39.0084 141.321L36.4179 139.894L33.8275 141.321L34.3289 138.382L32.1562 136.367L35.0809 135.863L36.4179 133.26Z" fill="white"/>
<path d="M1.8227 147.115L4.24603 152.069L9.67762 152.909L5.75016 156.688L6.66936 162.145L1.8227 159.542L-3.02395 162.145L-2.10475 156.688L-6.03223 152.909L-0.60063 152.069L1.8227 147.115Z" fill="white"/>
<path d="M24.8861 150.642L26.2231 153.245L29.1478 153.665L26.9751 155.764L27.4765 158.703L24.8861 157.275L22.2957 158.703L22.7971 155.764L20.708 153.665L23.5491 153.245L24.8861 150.642Z" fill="white"/>
</g>
</svg>
