<svg width="100%" height="100%" viewBox="0 0 368 416" fill="none" xmlns="http://www.w3.org/2000/svg">
<mask id="mask0" mask-type="alpha" maskUnits="userSpaceOnUse" x="0" y="0" width="362" height="416">
<path fill-rule="evenodd" clip-rule="evenodd" d="M362 0H0V416H362V0ZM338.066 24H23.9339V275H338.066V24Z" fill="#FFD4E8"/>
</mask>
<g mask="url(#mask0)">
<path d="M0.508659 -0.0112305C0.508659 2.30935 -1.40095 4.20801 -3.73493 4.20801C-6.0689 4.20801 -7.97852 2.30935 -7.97852 -0.0112305C-7.97852 -2.33181 -6.0689 -4.23047 -3.73493 -4.23047C-1.40095 -4.23047 0.508659 -2.33181 0.508659 -0.0112305Z" fill="white"/>
<path d="M24.4842 -0.0112305C24.4842 2.30935 22.5746 4.20801 20.2407 4.20801C17.9067 4.20801 15.9971 2.30935 15.9971 -0.0112305C15.9971 -2.33181 17.9067 -4.23047 20.2407 -4.23047C22.5746 -4.23047 24.4842 -2.33181 24.4842 -0.0112305Z" fill="white"/>
<path d="M48.2489 -0.0112305C48.2489 2.30935 46.3393 4.20801 44.0053 4.20801C41.6713 4.20801 39.7617 2.30935 39.7617 -0.0112305C39.7617 -2.33181 41.6713 -4.23047 44.0053 -4.23047C46.3393 -4.23047 48.2489 -2.33181 48.2489 -0.0112305Z" fill="white"/>
<path d="M72.2245 -0.0117188C72.2245 2.30886 70.3149 4.20752 67.9809 4.20752C65.6469 4.20752 63.7373 2.30886 63.7373 -0.0117188C63.7373 -2.3323 65.6469 -4.23096 67.9809 -4.23096C70.3149 -4.23096 72.2245 -2.3323 72.2245 -0.0117188Z" fill="white"/>
<path d="M96.201 -0.0112305C96.201 2.30935 94.2914 4.20801 91.9575 4.20801C89.6235 4.20801 87.7139 2.30935 87.7139 -0.0112305C87.7139 -2.33181 89.6235 -4.23047 91.9575 -4.23047C94.2914 -4.23047 96.201 -2.33181 96.201 -0.0112305Z" fill="white"/>
<path d="M119.966 -0.0117188C119.966 2.30886 118.056 4.20752 115.722 4.20752C113.388 4.20752 111.479 2.30886 111.479 -0.0117188C111.479 -2.3323 113.388 -4.23096 115.722 -4.23096C118.056 -4.23096 119.966 -2.3323 119.966 -0.0117188Z" fill="white"/>
<path d="M143.941 -0.0109863C143.941 2.30946 142.032 4.20801 139.698 4.20801C137.364 4.20801 135.454 2.30946 135.454 -0.0109863C135.454 -2.33143 137.364 -4.22998 139.698 -4.22998C142.032 -4.22998 143.941 -2.33143 143.941 -0.0109863Z" fill="white"/>
<path d="M167.917 -0.0119629C167.917 2.30848 166.007 4.20703 163.673 4.20703C161.339 4.20703 159.43 2.30848 159.43 -0.0119629C159.43 -2.33241 161.339 -4.23096 163.673 -4.23096C166.007 -4.23096 167.917 -2.33241 167.917 -0.0119629Z" fill="white"/>
<path d="M191.682 -0.0112305C191.682 2.30935 189.772 4.20801 187.438 4.20801C185.104 4.20801 183.194 2.30935 183.194 -0.0112305C183.194 -2.33181 185.104 -4.23047 187.438 -4.23047C189.772 -4.23047 191.682 -2.33181 191.682 -0.0112305Z" fill="white"/>
<path d="M215.657 -0.0117188C215.657 2.30886 213.747 4.20752 211.414 4.20752C209.08 4.20752 207.17 2.30886 207.17 -0.0117188C207.17 -2.3323 209.08 -4.23096 211.414 -4.23096C213.747 -4.23096 215.657 -2.3323 215.657 -0.0117188Z" fill="white"/>
<path d="M239.633 -0.0109863C239.633 2.30946 237.723 4.20801 235.389 4.20801C233.055 4.20801 231.146 2.30946 231.146 -0.0109863C231.146 -2.33143 233.055 -4.22998 235.389 -4.22998C237.723 -4.22998 239.633 -2.33143 239.633 -0.0109863Z" fill="white"/>
<path d="M263.398 -0.0119629C263.398 2.30848 261.489 4.20703 259.155 4.20703C256.821 4.20703 254.911 2.30848 254.911 -0.0119629C254.911 -2.33241 256.821 -4.23096 259.155 -4.23096C261.701 -4.23096 263.398 -2.33241 263.398 -0.0119629Z" fill="white"/>
<path d="M287.374 -0.0117188C287.374 2.30886 285.464 4.20752 283.13 4.20752C280.796 4.20752 278.887 2.30886 278.887 -0.0117188C278.887 -2.3323 280.796 -4.23096 283.13 -4.23096C285.464 -4.23096 287.374 -2.3323 287.374 -0.0117188Z" fill="white"/>
<path d="M311.349 -0.012207C311.349 2.30837 309.44 4.20703 307.106 4.20703C304.772 4.20703 302.862 2.30837 302.862 -0.012207C302.862 -2.33279 304.772 -4.23145 307.106 -4.23145C309.44 -4.23145 311.349 -2.33279 311.349 -0.012207Z" fill="white"/>
<path d="M335.114 -0.0112305C335.114 2.30935 333.205 4.20801 330.871 4.20801C328.537 4.20801 326.627 2.30935 326.627 -0.0112305C326.627 -2.33181 328.537 -4.23047 330.871 -4.23047C333.417 -4.23047 335.114 -2.33181 335.114 -0.0112305Z" fill="white"/>
<path d="M359.09 -0.012207C359.09 2.30837 357.18 4.20703 354.846 4.20703C352.512 4.20703 350.603 2.30837 350.603 -0.012207C350.603 -2.33279 352.512 -4.23145 354.846 -4.23145C357.18 -4.23145 359.09 -2.33279 359.09 -0.012207Z" fill="white"/>
<path d="M12.3895 11.8015C12.3895 14.1222 10.4799 16.021 8.14593 16.021C5.81196 16.021 3.90234 14.1222 3.90234 11.8015C3.90234 9.4808 5.81196 7.58203 8.14593 7.58203C10.4799 7.58203 12.3895 9.4808 12.3895 11.8015Z" fill="white"/>
<path d="M36.3651 11.8015C36.3651 14.1222 34.4555 16.021 32.1215 16.021C29.7875 16.021 27.8779 14.1222 27.8779 11.8015C27.8779 9.4808 29.7875 7.58203 32.1215 7.58203C34.4555 7.58203 36.3651 9.4808 36.3651 11.8015Z" fill="white"/>
<path d="M60.3408 11.8015C60.3408 14.1222 58.4312 16.021 56.0972 16.021C53.7632 16.021 51.8535 14.1222 51.8535 11.8015C51.8535 9.4808 53.7632 7.58203 56.0972 7.58203C58.4312 7.58203 60.3408 9.4808 60.3408 11.8015Z" fill="white"/>
<path d="M84.1053 11.801C84.1053 14.1217 82.1957 16.0205 79.8618 16.0205C77.5278 16.0205 75.6182 14.1217 75.6182 11.801C75.6182 9.48031 77.5278 7.58154 79.8618 7.58154C82.1957 7.58154 84.1053 9.48031 84.1053 11.801Z" fill="white"/>
<path d="M108.082 11.8015C108.082 14.1222 106.172 16.021 103.838 16.021C101.504 16.021 99.5947 14.1222 99.5947 11.8015C99.5947 9.4808 101.504 7.58203 103.838 7.58203C106.172 7.58203 108.082 9.4808 108.082 11.8015Z" fill="white"/>
<path d="M132.057 11.801C132.057 14.1217 130.148 16.0205 127.814 16.0205C125.48 16.0205 123.57 14.1217 123.57 11.801C123.57 9.48031 125.48 7.58154 127.814 7.58154C130.148 7.58154 132.057 9.48031 132.057 11.801Z" fill="white"/>
<path d="M155.822 11.801C155.822 14.1217 153.913 16.0205 151.579 16.0205C149.245 16.0205 147.335 14.1217 147.335 11.801C147.335 9.48031 149.245 7.58154 151.579 7.58154C153.913 7.58154 155.822 9.48031 155.822 11.801Z" fill="white"/>
<path d="M179.798 11.8008C179.798 14.1214 177.888 16.02 175.554 16.02C173.22 16.02 171.311 14.1214 171.311 11.8008C171.311 9.4802 173.22 7.58154 175.554 7.58154C177.888 7.58154 179.798 9.4802 179.798 11.8008Z" fill="white"/>
<path d="M203.776 11.8015C203.776 14.1222 201.867 16.021 199.533 16.021C197.199 16.021 195.289 14.1222 195.289 11.8015C195.289 9.4808 197.199 7.58203 199.533 7.58203C201.867 7.58203 203.776 9.4808 203.776 11.8015Z" fill="white"/>
<path d="M227.54 11.801C227.54 14.1217 225.63 16.0205 223.296 16.0205C220.962 16.0205 219.053 14.1217 219.053 11.801C219.053 9.48031 220.962 7.58154 223.296 7.58154C225.63 7.58154 227.54 9.48031 227.54 11.801Z" fill="white"/>
<path d="M251.517 11.801C251.517 14.1217 249.607 16.0205 247.273 16.0205C244.939 16.0205 243.029 14.1217 243.029 11.801C243.029 9.48031 244.939 7.58154 247.273 7.58154C249.607 7.58154 251.517 9.48031 251.517 11.801Z" fill="white"/>
<path d="M275.492 11.8008C275.492 14.1214 273.582 16.02 271.248 16.02C268.914 16.02 267.005 14.1214 267.005 11.8008C267.005 9.4802 268.914 7.58154 271.248 7.58154C273.582 7.58154 275.492 9.4802 275.492 11.8008Z" fill="white"/>
<path d="M299.257 11.801C299.257 14.1217 297.347 16.0205 295.013 16.0205C292.679 16.0205 290.77 14.1217 290.77 11.801C290.77 9.48031 292.679 7.58154 295.013 7.58154C297.559 7.58154 299.257 9.48031 299.257 11.801Z" fill="white"/>
<path d="M323.233 11.8008C323.233 14.1214 321.324 16.02 318.99 16.02C316.656 16.02 314.746 14.1214 314.746 11.8008C314.746 9.4802 316.656 7.58154 318.99 7.58154C321.324 7.58154 323.233 9.4802 323.233 11.8008Z" fill="white"/>
<path d="M347.209 11.8008C347.209 14.1214 345.299 16.02 342.965 16.02C340.631 16.02 338.722 14.1214 338.722 11.8008C338.722 9.4802 340.631 7.58154 342.965 7.58154C345.299 7.58154 347.209 9.4802 347.209 11.8008Z" fill="white"/>
<path d="M0.508659 23.6165C0.508659 25.9372 -1.40095 27.8359 -3.73493 27.8359C-6.0689 27.8359 -7.97852 25.9372 -7.97852 23.6165C-7.97852 21.2957 -6.0689 19.397 -3.73493 19.397C-1.40095 19.6079 0.508659 21.2957 0.508659 23.6165Z" fill="white"/>
<path d="M24.4842 23.616C24.4842 25.9367 22.5746 27.8354 20.2407 27.8354C17.9067 27.8354 15.9971 25.9367 15.9971 23.616C15.9971 21.2953 17.9067 19.3965 20.2407 19.3965C22.5746 19.6075 24.4842 21.2953 24.4842 23.616Z" fill="white"/>
<path d="M48.2489 23.6169C48.2489 25.9377 46.3393 27.8364 44.0053 27.8364C41.6713 27.8364 39.7617 25.9377 39.7617 23.6169C39.7617 21.2962 41.6713 19.3975 44.0053 19.3975C46.3393 19.6084 48.2489 21.2962 48.2489 23.6169Z" fill="white"/>
<path d="M72.2245 23.616C72.2245 25.9367 70.3149 27.8354 67.9809 27.8354C65.6469 27.8354 63.7373 25.9367 63.7373 23.616C63.7373 21.2953 65.6469 19.3965 67.9809 19.3965C70.3149 19.6075 72.2245 21.2953 72.2245 23.616Z" fill="white"/>
<path d="M96.201 23.6169C96.201 25.9377 94.2914 27.8364 91.9575 27.8364C89.6235 27.8364 87.7139 25.9377 87.7139 23.6169C87.7139 21.2962 89.6235 19.3975 91.9575 19.3975C94.2914 19.6084 96.201 21.2962 96.201 23.6169Z" fill="white"/>
<path d="M119.966 23.6157C119.966 25.9363 118.056 27.835 115.722 27.835C113.388 27.835 111.479 25.9363 111.479 23.6157C111.479 21.2951 113.388 19.3965 115.722 19.3965C118.056 19.6074 119.966 21.2951 119.966 23.6157Z" fill="white"/>
<path d="M143.941 23.6165C143.941 25.9372 142.032 27.8359 139.698 27.8359C137.364 27.8359 135.454 25.9372 135.454 23.6165C135.454 21.2957 137.364 19.397 139.698 19.397C142.032 19.6079 143.941 21.2957 143.941 23.6165Z" fill="white"/>
<path d="M167.917 23.6155C167.917 25.9362 166.007 27.835 163.673 27.835C161.339 27.835 159.43 25.9362 159.43 23.6155C159.43 21.2948 161.339 19.396 163.673 19.396C166.007 19.607 167.917 21.2948 167.917 23.6155Z" fill="white"/>
<path d="M191.682 23.6155C191.682 25.9362 189.772 27.835 187.438 27.835C185.104 27.835 183.194 25.9362 183.194 23.6155C183.194 21.2948 185.104 19.396 187.438 19.396C189.772 19.607 191.682 21.2948 191.682 23.6155Z" fill="white"/>
<path d="M215.657 23.6155C215.657 25.9362 213.747 27.835 211.414 27.835C209.08 27.835 207.17 25.9362 207.17 23.6155C207.17 21.2948 209.08 19.396 211.414 19.396C213.747 19.607 215.657 21.2948 215.657 23.6155Z" fill="white"/>
<path d="M239.633 23.6165C239.633 25.9372 237.723 27.8359 235.389 27.8359C233.055 27.8359 231.146 25.9372 231.146 23.6165C231.146 21.2957 233.055 19.397 235.389 19.397C237.723 19.6079 239.633 21.2957 239.633 23.6165Z" fill="white"/>
<path d="M263.398 23.6155C263.398 25.9362 261.489 27.835 259.155 27.835C256.821 27.835 254.911 25.9362 254.911 23.6155C254.911 21.2948 256.821 19.396 259.155 19.396C261.701 19.607 263.398 21.2948 263.398 23.6155Z" fill="white"/>
<path d="M287.374 23.6165C287.374 25.9372 285.464 27.8359 283.13 27.8359C280.796 27.8359 278.887 25.9372 278.887 23.6165C278.887 21.2957 280.796 19.397 283.13 19.397C285.464 19.6079 287.374 21.2957 287.374 23.6165Z" fill="white"/>
<path d="M311.349 23.6155C311.349 25.9362 309.44 27.835 307.106 27.835C304.772 27.835 302.862 25.9362 302.862 23.6155C302.862 21.2948 304.772 19.396 307.106 19.396C309.44 19.607 311.349 21.2948 311.349 23.6155Z" fill="white"/>
<path d="M335.114 23.6165C335.114 25.9372 333.205 27.8359 330.871 27.8359C328.537 27.8359 326.627 25.9372 326.627 23.6165C326.627 21.2957 328.537 19.397 330.871 19.397C333.417 19.6079 335.114 21.2957 335.114 23.6165Z" fill="white"/>
<path d="M359.09 23.6155C359.09 25.9362 357.18 27.835 354.846 27.835C352.512 27.835 350.603 25.9362 350.603 23.6155C350.603 21.2948 352.512 19.396 354.846 19.396C357.18 19.607 359.09 21.2948 359.09 23.6155Z" fill="white"/>
<path d="M12.3895 35.6399C12.3895 37.9606 10.4799 39.8594 8.14593 39.8594C5.81196 39.8594 3.90234 37.9606 3.90234 35.6399C3.90234 33.3192 5.81196 31.4204 8.14593 31.4204C10.4799 31.4204 12.3895 33.3192 12.3895 35.6399Z" fill="white"/>
<path d="M36.3651 35.6399C36.3651 37.9606 34.4555 39.8594 32.1215 39.8594C29.7875 39.8594 27.8779 37.9606 27.8779 35.6399C27.8779 33.3192 29.7875 31.4204 32.1215 31.4204C34.4555 31.4204 36.3651 33.3192 36.3651 35.6399Z" fill="white"/>
<path d="M60.3408 35.6399C60.3408 37.9606 58.4312 39.8594 56.0972 39.8594C53.7632 39.8594 51.8535 37.9606 51.8535 35.6399C51.8535 33.3192 53.7632 31.4204 56.0972 31.4204C58.4312 31.4204 60.3408 33.3192 60.3408 35.6399Z" fill="white"/>
<path d="M84.1053 35.6396C84.1053 37.9602 82.1957 39.8589 79.8618 39.8589C77.5278 39.8589 75.6182 37.9602 75.6182 35.6396C75.6182 33.3191 77.5278 31.4204 79.8618 31.4204C82.1957 31.4204 84.1053 33.3191 84.1053 35.6396Z" fill="white"/>
<path d="M108.082 35.6399C108.082 37.9606 106.172 39.8594 103.838 39.8594C101.504 39.8594 99.5947 37.9606 99.5947 35.6399C99.5947 33.3192 101.504 31.4204 103.838 31.4204C106.172 31.4204 108.082 33.3192 108.082 35.6399Z" fill="white"/>
<path d="M132.057 35.6396C132.057 37.9602 130.148 39.8589 127.814 39.8589C125.48 39.8589 123.57 37.9602 123.57 35.6396C123.57 33.3191 125.48 31.4204 127.814 31.4204C130.148 31.4204 132.057 33.3191 132.057 35.6396Z" fill="white"/>
<path d="M155.822 35.6396C155.822 37.9602 153.913 39.8589 151.579 39.8589C149.245 39.8589 147.335 37.9602 147.335 35.6396C147.335 33.3191 149.245 31.4204 151.579 31.4204C153.913 31.4204 155.822 33.3191 155.822 35.6396Z" fill="white"/>
<path d="M179.798 35.6396C179.798 37.9602 177.888 39.8589 175.554 39.8589C173.22 39.8589 171.311 37.9602 171.311 35.6396C171.311 33.3191 173.22 31.4204 175.554 31.4204C177.888 31.4204 179.798 33.3191 179.798 35.6396Z" fill="white"/>
<path d="M203.776 35.6406C203.776 37.9612 201.867 39.8599 199.533 39.8599C197.199 39.8599 195.289 37.9612 195.289 35.6406C195.289 33.32 197.199 31.4214 199.533 31.4214C201.867 31.4214 203.776 33.32 203.776 35.6406Z" fill="white"/>
<path d="M227.54 35.6396C227.54 37.9602 225.63 39.8589 223.296 39.8589C220.962 39.8589 219.053 37.9602 219.053 35.6396C219.053 33.3191 220.962 31.4204 223.296 31.4204C225.63 31.4204 227.54 33.3191 227.54 35.6396Z" fill="white"/>
<path d="M251.517 35.6396C251.517 37.9602 249.607 39.8589 247.273 39.8589C244.939 39.8589 243.029 37.9602 243.029 35.6396C243.029 33.3191 244.939 31.4204 247.273 31.4204C249.607 31.4204 251.517 33.3191 251.517 35.6396Z" fill="white"/>
<path d="M275.492 35.6396C275.492 37.9602 273.582 39.8589 271.248 39.8589C268.914 39.8589 267.005 37.9602 267.005 35.6396C267.005 33.3191 268.914 31.4204 271.248 31.4204C273.582 31.4204 275.492 33.3191 275.492 35.6396Z" fill="white"/>
<path d="M299.257 35.6396C299.257 37.9602 297.347 39.8589 295.013 39.8589C292.679 39.8589 290.77 37.9602 290.77 35.6396C290.77 33.3191 292.679 31.4204 295.013 31.4204C297.559 31.4204 299.257 33.3191 299.257 35.6396Z" fill="white"/>
<path d="M323.233 35.6396C323.233 37.9602 321.324 39.8589 318.99 39.8589C316.656 39.8589 314.746 37.9602 314.746 35.6396C314.746 33.3191 316.656 31.4204 318.99 31.4204C321.324 31.4204 323.233 33.3191 323.233 35.6396Z" fill="white"/>
<path d="M347.209 35.6404C347.209 37.9611 345.299 39.8599 342.965 39.8599C340.631 39.8599 338.722 37.9611 338.722 35.6404C338.722 33.3197 340.631 31.4209 342.965 31.4209C345.299 31.4209 347.209 33.3197 347.209 35.6404Z" fill="white"/>
<path d="M0.508659 47.4539C0.508659 49.7746 -1.40095 51.6733 -3.73493 51.6733C-6.0689 51.6733 -7.97852 49.7746 -7.97852 47.4539C-7.97852 45.1331 -6.0689 43.2344 -3.73493 43.2344C-1.40095 43.2344 0.508659 45.1331 0.508659 47.4539Z" fill="white"/>
<path d="M24.4842 47.4539C24.4842 49.7746 22.5746 51.6733 20.2407 51.6733C17.9067 51.6733 15.9971 49.7746 15.9971 47.4539C15.9971 45.1331 17.9067 43.2344 20.2407 43.2344C22.5746 43.2344 24.4842 45.1331 24.4842 47.4539Z" fill="white"/>
<path d="M48.2489 47.4539C48.2489 49.7746 46.3393 51.6733 44.0053 51.6733C41.6713 51.6733 39.7617 49.7746 39.7617 47.4539C39.7617 45.1331 41.6713 43.2344 44.0053 43.2344C46.3393 43.2344 48.2489 45.1331 48.2489 47.4539Z" fill="white"/>
<path d="M72.2245 47.4543C72.2245 49.7751 70.3149 51.6738 67.9809 51.6738C65.6469 51.6738 63.7373 49.7751 63.7373 47.4543C63.7373 45.1336 65.6469 43.2349 67.9809 43.2349C70.3149 43.2349 72.2245 45.1336 72.2245 47.4543Z" fill="white"/>
<path d="M96.201 47.4539C96.201 49.7746 94.2914 51.6733 91.9575 51.6733C89.6235 51.6733 87.7139 49.7746 87.7139 47.4539C87.7139 45.1331 89.6235 43.2344 91.9575 43.2344C94.2914 43.2344 96.201 45.1331 96.201 47.4539Z" fill="white"/>
<path d="M119.966 47.4543C119.966 49.7751 118.056 51.6738 115.722 51.6738C113.388 51.6738 111.479 49.7751 111.479 47.4543C111.479 45.1336 113.388 43.2349 115.722 43.2349C118.056 43.2349 119.966 45.1336 119.966 47.4543Z" fill="white"/>
<path d="M143.941 47.4543C143.941 49.7751 142.032 51.6738 139.698 51.6738C137.364 51.6738 135.454 49.7751 135.454 47.4543C135.454 45.1336 137.364 43.2349 139.698 43.2349C142.032 43.2349 143.941 45.1336 143.941 47.4543Z" fill="white"/>
<path d="M167.917 47.4543C167.917 49.7751 166.007 51.6738 163.673 51.6738C161.339 51.6738 159.43 49.7751 159.43 47.4543C159.43 45.1336 161.339 43.2349 163.673 43.2349C166.007 43.2349 167.917 45.1336 167.917 47.4543Z" fill="white"/>
<path d="M191.682 47.4539C191.682 49.7746 189.772 51.6733 187.438 51.6733C185.104 51.6733 183.194 49.7746 183.194 47.4539C183.194 45.1331 185.104 43.2344 187.438 43.2344C189.772 43.2344 191.682 45.1331 191.682 47.4539Z" fill="white"/>
<path d="M215.657 47.4543C215.657 49.7751 213.747 51.6738 211.414 51.6738C209.08 51.6738 207.17 49.7751 207.17 47.4543C207.17 45.1336 209.08 43.2349 211.414 43.2349C213.747 43.2349 215.657 45.1336 215.657 47.4543Z" fill="white"/>
<path d="M239.633 47.4543C239.633 49.7751 237.723 51.6738 235.389 51.6738C233.055 51.6738 231.146 49.7751 231.146 47.4543C231.146 45.1336 233.055 43.2349 235.389 43.2349C237.723 43.2349 239.633 45.1336 239.633 47.4543Z" fill="white"/>
<path d="M263.398 47.4543C263.398 49.7751 261.489 51.6738 259.155 51.6738C256.821 51.6738 254.911 49.7751 254.911 47.4543C254.911 45.1336 256.821 43.2349 259.155 43.2349C261.701 43.2349 263.398 45.1336 263.398 47.4543Z" fill="white"/>
<path d="M287.374 47.4543C287.374 49.7751 285.464 51.6738 283.13 51.6738C280.796 51.6738 278.887 49.7751 278.887 47.4543C278.887 45.1336 280.796 43.2349 283.13 43.2349C285.464 43.2349 287.374 45.1336 287.374 47.4543Z" fill="white"/>
<path d="M311.349 47.4543C311.349 49.7751 309.44 51.6738 307.106 51.6738C304.772 51.6738 302.862 49.7751 302.862 47.4543C302.862 45.1336 304.772 43.2349 307.106 43.2349C309.44 43.2349 311.349 45.1336 311.349 47.4543Z" fill="white"/>
<path d="M335.114 47.4543C335.114 49.7751 333.205 51.6738 330.871 51.6738C328.537 51.6738 326.627 49.7751 326.627 47.4543C326.627 45.1336 328.537 43.2349 330.871 43.2349C333.417 43.2349 335.114 45.1336 335.114 47.4543Z" fill="white"/>
<path d="M359.09 47.4543C359.09 49.7751 357.18 51.6738 354.846 51.6738C352.512 51.6738 350.603 49.7751 350.603 47.4543C350.603 45.1336 352.512 43.2349 354.846 43.2349C357.18 43.2349 359.09 45.1336 359.09 47.4543Z" fill="white"/>
<path d="M12.3895 59.2688C12.3895 61.5895 10.4799 63.4883 8.14593 63.4883C5.81196 63.4883 3.90234 61.5895 3.90234 59.2688C3.90234 56.9481 5.81196 55.0493 8.14593 55.0493C10.4799 55.2603 12.3895 56.9481 12.3895 59.2688Z" fill="white"/>
<path d="M36.3651 59.2688C36.3651 61.5895 34.4555 63.4883 32.1215 63.4883C29.7875 63.4883 27.8779 61.5895 27.8779 59.2688C27.8779 56.9481 29.7875 55.0493 32.1215 55.0493C34.4555 55.2603 36.3651 56.9481 36.3651 59.2688Z" fill="white"/>
<path d="M60.3408 59.2688C60.3408 61.5895 58.4312 63.4883 56.0972 63.4883C53.7632 63.4883 51.8535 61.5895 51.8535 59.2688C51.8535 56.9481 53.7632 55.0493 56.0972 55.0493C58.4312 55.2603 60.3408 56.9481 60.3408 59.2688Z" fill="white"/>
<path d="M84.1053 59.2693C84.1053 61.59 82.1957 63.4888 79.8618 63.4888C77.5278 63.4888 75.6182 61.59 75.6182 59.2693C75.6182 56.9486 77.5278 55.0498 79.8618 55.0498C82.1957 55.0498 84.1053 56.9486 84.1053 59.2693Z" fill="white"/>
<path d="M108.082 59.2688C108.082 61.5895 106.172 63.4883 103.838 63.4883C101.504 63.4883 99.5947 61.5895 99.5947 59.2688C99.5947 56.9481 101.504 55.0493 103.838 55.0493C106.172 55.2603 108.082 56.9481 108.082 59.2688Z" fill="white"/>
<path d="M132.057 59.2693C132.057 61.59 130.148 63.4888 127.814 63.4888C125.48 63.4888 123.57 61.59 123.57 59.2693C123.57 56.9486 125.48 55.0498 127.814 55.0498C130.148 55.2608 132.057 56.9486 132.057 59.2693Z" fill="white"/>
<path d="M155.822 59.2693C155.822 61.59 153.913 63.4888 151.579 63.4888C149.245 63.4888 147.335 61.59 147.335 59.2693C147.335 56.9486 149.245 55.0498 151.579 55.0498C153.913 55.2608 155.822 56.9486 155.822 59.2693Z" fill="white"/>
<path d="M179.798 59.2693C179.798 61.59 177.888 63.4888 175.554 63.4888C173.22 63.4888 171.311 61.59 171.311 59.2693C171.311 56.9486 173.22 55.0498 175.554 55.0498C177.888 55.2608 179.798 56.9486 179.798 59.2693Z" fill="white"/>
<path d="M203.776 59.2693C203.776 61.59 201.867 63.4888 199.533 63.4888C197.199 63.4888 195.289 61.59 195.289 59.2693C195.289 56.9486 197.199 55.0498 199.533 55.0498C201.867 55.2608 203.776 56.9486 203.776 59.2693Z" fill="white"/>
<path d="M227.54 59.269C227.54 61.5896 225.63 63.4883 223.296 63.4883C220.962 63.4883 219.053 61.5896 219.053 59.269C219.053 56.9485 220.962 55.0498 223.296 55.0498C225.63 55.0498 227.54 56.9485 227.54 59.269Z" fill="white"/>
<path d="M251.517 59.2693C251.517 61.59 249.607 63.4888 247.273 63.4888C244.939 63.4888 243.029 61.59 243.029 59.2693C243.029 56.9486 244.939 55.0498 247.273 55.0498C249.607 55.2608 251.517 56.9486 251.517 59.2693Z" fill="white"/>
<path d="M275.492 59.2693C275.492 61.59 273.582 63.4888 271.248 63.4888C268.914 63.4888 267.005 61.59 267.005 59.2693C267.005 56.9486 268.914 55.0498 271.248 55.0498C273.582 55.2608 275.492 56.9486 275.492 59.2693Z" fill="white"/>
<path d="M299.257 59.2693C299.257 61.59 297.347 63.4888 295.013 63.4888C292.679 63.4888 290.77 61.59 290.77 59.2693C290.77 56.9486 292.679 55.0498 295.013 55.0498C297.559 55.2608 299.257 56.9486 299.257 59.2693Z" fill="white"/>
<path d="M323.233 59.2693C323.233 61.59 321.324 63.4888 318.99 63.4888C316.656 63.4888 314.746 61.59 314.746 59.2693C314.746 56.9486 316.656 55.0498 318.99 55.0498C321.324 55.2608 323.233 56.9486 323.233 59.2693Z" fill="white"/>
<path d="M347.209 59.2693C347.209 61.59 345.299 63.4888 342.965 63.4888C340.631 63.4888 338.722 61.59 338.722 59.2693C338.722 56.9486 340.631 55.0498 342.965 55.0498C345.299 55.2608 347.209 56.9486 347.209 59.2693Z" fill="white"/>
<path d="M0.508659 71.2954C0.508659 73.616 -1.40095 75.5146 -3.73493 75.5146C-6.0689 75.5146 -7.97852 73.616 -7.97852 71.2954C-7.97852 68.9748 -6.0689 67.0762 -3.73493 67.0762C-1.40095 67.0762 0.508659 68.9748 0.508659 71.2954Z" fill="white"/>
<path d="M24.4842 71.2944C24.4842 73.615 22.5746 75.5137 20.2407 75.5137C17.9067 75.5137 15.9971 73.615 15.9971 71.2944C15.9971 68.9739 17.9067 67.0752 20.2407 67.0752C22.5746 67.0752 24.4842 68.9739 24.4842 71.2944Z" fill="white"/>
<path d="M48.25 71.2939C48.25 73.6145 46.3404 75.5132 44.0063 75.5132C41.6723 75.5132 39.7627 73.6145 39.7627 71.2939C39.7627 68.9734 41.6723 67.0747 44.0063 67.0747C46.3404 67.0747 48.25 68.9734 48.25 71.2939Z" fill="white"/>
<path d="M67.9819 75.5132C70.3255 75.5132 72.2255 73.6242 72.2255 71.2939C72.2255 68.9637 70.3255 67.0747 67.9819 67.0747C65.6382 67.0747 63.7383 68.9637 63.7383 71.2939C63.7383 73.6242 65.6382 75.5132 67.9819 75.5132Z" fill="white"/>
<path d="M96.201 71.2944C96.201 73.615 94.2914 75.5137 91.9575 75.5137C89.6235 75.5137 87.7139 73.615 87.7139 71.2944C87.7139 68.9739 89.6235 67.0752 91.9575 67.0752C94.2914 67.0752 96.201 68.9739 96.201 71.2944Z" fill="white"/>
<path d="M119.966 71.2939C119.966 73.6145 118.056 75.5132 115.722 75.5132C113.388 75.5132 111.479 73.6145 111.479 71.2939C111.479 68.9734 113.388 67.0747 115.722 67.0747C118.056 67.0747 119.966 68.9734 119.966 71.2939Z" fill="white"/>
<path d="M143.941 71.2942C143.941 73.6149 142.032 75.5137 139.698 75.5137C137.364 75.5137 135.454 73.6149 135.454 71.2942C135.454 68.9735 137.364 67.0747 139.698 67.0747C142.032 67.0747 143.941 68.9735 143.941 71.2942Z" fill="white"/>
<path d="M167.917 71.2942C167.917 73.6149 166.007 75.5137 163.673 75.5137C161.339 75.5137 159.43 73.6149 159.43 71.2942C159.43 68.9735 161.339 67.0747 163.673 67.0747C166.007 67.0747 167.917 68.9735 167.917 71.2942Z" fill="white"/>
<path d="M191.682 71.2944C191.682 73.615 189.772 75.5137 187.438 75.5137C185.104 75.5137 183.194 73.615 183.194 71.2944C183.194 68.9739 185.104 67.0752 187.438 67.0752C189.772 67.0752 191.682 68.9739 191.682 71.2944Z" fill="white"/>
<path d="M211.414 75.5132C213.757 75.5132 215.657 73.6242 215.657 71.2939C215.657 68.9637 213.757 67.0747 211.414 67.0747C209.07 67.0747 207.17 68.9637 207.17 71.2939C207.17 73.6242 209.07 75.5132 211.414 75.5132Z" fill="white"/>
<path d="M239.634 71.2942C239.634 73.6149 237.724 75.5137 235.39 75.5137C233.056 75.5137 231.146 73.6149 231.146 71.2942C231.146 68.9735 233.056 67.0747 235.39 67.0747C237.724 67.0747 239.634 68.9735 239.634 71.2942Z" fill="white"/>
<path d="M263.398 71.2942C263.398 73.6149 261.489 75.5137 259.155 75.5137C256.821 75.5137 254.911 73.6149 254.911 71.2942C254.911 68.9735 256.821 67.0747 259.155 67.0747C261.701 67.0747 263.398 68.9735 263.398 71.2942Z" fill="white"/>
<path d="M287.374 71.2939C287.374 73.6145 285.464 75.5132 283.13 75.5132C280.796 75.5132 278.887 73.6145 278.887 71.2939C278.887 68.9734 280.796 67.0747 283.13 67.0747C285.464 67.0747 287.374 68.9734 287.374 71.2939Z" fill="white"/>
<path d="M311.349 71.2942C311.349 73.6149 309.44 75.5137 307.106 75.5137C304.772 75.5137 302.862 73.6149 302.862 71.2942C302.862 68.9735 304.772 67.0747 307.106 67.0747C309.44 67.0747 311.349 68.9735 311.349 71.2942Z" fill="white"/>
<path d="M335.114 71.2935C335.114 73.614 333.205 75.5127 330.871 75.5127C328.537 75.5127 326.627 73.614 326.627 71.2935C326.627 68.9729 328.537 67.0742 330.871 67.0742C333.417 67.0742 335.114 68.9729 335.114 71.2935Z" fill="white"/>
<path d="M354.846 75.5127C357.19 75.5127 359.09 73.6237 359.09 71.2935C359.09 68.9632 357.19 67.0742 354.846 67.0742C352.502 67.0742 350.603 68.9632 350.603 71.2935C350.603 73.6237 352.502 75.5127 354.846 75.5127Z" fill="white"/>
<path d="M12.3895 83.1079C12.3895 85.4285 10.4799 87.3271 8.14593 87.3271C5.81196 87.3271 3.90234 85.4285 3.90234 83.1079C3.90234 80.7873 5.81196 78.8887 8.14593 78.8887C10.4799 78.8887 12.3895 80.7873 12.3895 83.1079Z" fill="white"/>
<path d="M36.3651 83.1077C36.3651 85.4284 34.4555 87.3271 32.1215 87.3271C29.7875 87.3271 27.8779 85.4284 27.8779 83.1077C27.8779 80.787 29.7875 78.8882 32.1215 78.8882C34.4555 78.8882 36.3651 80.787 36.3651 83.1077Z" fill="white"/>
<path d="M56.0972 87.3276C58.4409 87.3276 60.3408 85.4385 60.3408 83.1082C60.3408 80.7778 58.4409 78.8887 56.0972 78.8887C53.7535 78.8887 51.8535 80.7778 51.8535 83.1082C51.8535 85.4385 53.7535 87.3276 56.0972 87.3276Z" fill="white"/>
<path d="M80.0737 87.3262C82.4173 87.3262 84.3173 85.4372 84.3173 83.1069C84.3173 80.7767 82.4173 78.8877 80.0737 78.8877C77.73 78.8877 75.8301 80.7767 75.8301 83.1069C75.8301 85.4372 77.73 87.3262 80.0737 87.3262Z" fill="white"/>
<path d="M108.081 83.1069C108.081 85.4275 106.171 87.3262 103.837 87.3262C101.503 87.3262 99.5938 85.4275 99.5938 83.1069C99.5938 80.7864 101.503 78.8877 103.837 78.8877C106.171 78.8877 108.081 80.7864 108.081 83.1069Z" fill="white"/>
<path d="M127.814 87.3262C130.158 87.3262 132.057 85.4372 132.057 83.1069C132.057 80.7767 130.158 78.8877 127.814 78.8877C125.47 78.8877 123.57 80.7767 123.57 83.1069C123.57 85.4372 125.47 87.3262 127.814 87.3262Z" fill="white"/>
<path d="M155.821 83.1077C155.821 85.4284 153.912 87.3271 151.578 87.3271C149.244 87.3271 147.334 85.4284 147.334 83.1077C147.334 80.787 149.244 78.8882 151.578 78.8882C153.912 78.8882 155.821 80.787 155.821 83.1077Z" fill="white"/>
<path d="M179.798 83.1072C179.798 85.4279 177.888 87.3267 175.554 87.3267C173.22 87.3267 171.311 85.4279 171.311 83.1072C171.311 80.7865 173.22 78.8877 175.554 78.8877C177.888 78.8877 179.798 80.7865 179.798 83.1072Z" fill="white"/>
<path d="M203.776 83.1077C203.776 85.4284 201.867 87.3271 199.533 87.3271C197.199 87.3271 195.289 85.4284 195.289 83.1077C195.289 80.787 197.199 78.8882 199.533 78.8882C201.867 78.8882 203.776 80.787 203.776 83.1077Z" fill="white"/>
<path d="M223.508 87.3262C225.852 87.3262 227.752 85.4372 227.752 83.1069C227.752 80.7767 225.852 78.8877 223.508 78.8877C221.165 78.8877 219.265 80.7767 219.265 83.1069C219.265 85.4372 221.165 87.3262 223.508 87.3262Z" fill="white"/>
<path d="M251.517 83.1077C251.517 85.4284 249.607 87.3271 247.273 87.3271C244.939 87.3271 243.029 85.4284 243.029 83.1077C243.029 80.787 244.939 78.8882 247.273 78.8882C249.607 78.8882 251.517 80.787 251.517 83.1077Z" fill="white"/>
<path d="M271.248 87.3267C273.592 87.3267 275.492 85.4375 275.492 83.1072C275.492 80.7768 273.592 78.8877 271.248 78.8877C268.905 78.8877 267.005 80.7768 267.005 83.1072C267.005 85.4375 268.905 87.3267 271.248 87.3267Z" fill="white"/>
<path d="M299.257 83.1072C299.257 85.4279 297.347 87.3267 295.013 87.3267C292.679 87.3267 290.77 85.4279 290.77 83.1072C290.77 80.7865 292.679 78.8877 295.013 78.8877C297.559 78.8877 299.257 80.7865 299.257 83.1072Z" fill="white"/>
<path d="M323.233 83.1072C323.233 85.4279 321.324 87.3267 318.99 87.3267C316.656 87.3267 314.746 85.4279 314.746 83.1072C314.746 80.7865 316.656 78.8877 318.99 78.8877C321.324 78.8877 323.233 80.7865 323.233 83.1072Z" fill="white"/>
<path d="M347.209 83.1072C347.209 85.4279 345.299 87.3267 342.965 87.3267C340.631 87.3267 338.722 85.4279 338.722 83.1072C338.722 80.7865 340.631 78.8877 342.965 78.8877C345.299 78.8877 347.209 80.7865 347.209 83.1072Z" fill="white"/>
<path d="M0.508659 94.9216C0.508659 97.2423 -1.40095 99.1411 -3.73493 99.1411C-6.0689 99.1411 -7.97852 97.2423 -7.97852 94.9216C-7.97852 92.6009 -6.0689 90.7021 -3.73493 90.7021C-1.40095 90.9131 0.508659 92.6009 0.508659 94.9216Z" fill="white"/>
<path d="M24.4842 94.9216C24.4842 97.2423 22.5746 99.1411 20.2407 99.1411C17.9067 99.1411 15.9971 97.2423 15.9971 94.9216C15.9971 92.6009 17.9067 90.7021 20.2407 90.7021C22.5746 90.9131 24.4842 92.6009 24.4842 94.9216Z" fill="white"/>
<path d="M48.2489 94.9221C48.2489 97.2428 46.3393 99.1416 44.0053 99.1416C41.6713 99.1416 39.7617 97.2428 39.7617 94.9221C39.7617 92.6014 41.6713 90.7026 44.0053 90.7026C46.3393 90.9136 48.2489 92.6014 48.2489 94.9221Z" fill="white"/>
<path d="M72.2245 94.9211C72.2245 97.2419 70.3149 99.1406 67.9809 99.1406C65.6469 99.1406 63.7373 97.2419 63.7373 94.9211C63.7373 92.6004 65.6469 90.7017 67.9809 90.7017C70.3149 90.9126 72.2245 92.6004 72.2245 94.9211Z" fill="white"/>
<path d="M96.201 94.9216C96.201 97.2423 94.2914 99.1411 91.9575 99.1411C89.6235 99.1411 87.7139 97.2423 87.7139 94.9216C87.7139 92.6009 89.6235 90.7021 91.9575 90.7021C94.2914 90.9131 96.201 92.6009 96.201 94.9216Z" fill="white"/>
<path d="M119.966 94.9214C119.966 97.242 118.056 99.1406 115.722 99.1406C113.388 99.1406 111.479 97.242 111.479 94.9214C111.479 92.6008 113.388 90.7021 115.722 90.7021C118.056 90.9131 119.966 92.6008 119.966 94.9214Z" fill="white"/>
<path d="M143.941 94.9221C143.941 97.2428 142.032 99.1416 139.698 99.1416C137.364 99.1416 135.454 97.2428 135.454 94.9221C135.454 92.6014 137.364 90.7026 139.698 90.7026C142.032 90.9136 143.941 92.6014 143.941 94.9221Z" fill="white"/>
<path d="M167.917 94.9211C167.917 97.2419 166.007 99.1406 163.673 99.1406C161.339 99.1406 159.43 97.2419 159.43 94.9211C159.43 92.6004 161.339 90.7017 163.673 90.7017C166.007 90.9126 167.917 92.6004 167.917 94.9211Z" fill="white"/>
<path d="M191.682 94.9216C191.682 97.2423 189.772 99.1411 187.438 99.1411C185.104 99.1411 183.194 97.2423 183.194 94.9216C183.194 92.6009 185.104 90.7021 187.438 90.7021C189.772 90.9131 191.682 92.6009 191.682 94.9216Z" fill="white"/>
<path d="M215.657 94.9216C215.657 97.2423 213.747 99.1411 211.414 99.1411C209.08 99.1411 207.17 97.2423 207.17 94.9216C207.17 92.6009 209.08 90.7021 211.414 90.7021C213.747 90.9131 215.657 92.6009 215.657 94.9216Z" fill="white"/>
<path d="M239.633 94.9221C239.633 97.2428 237.723 99.1416 235.389 99.1416C233.055 99.1416 231.146 97.2428 231.146 94.9221C231.146 92.6014 233.055 90.7026 235.389 90.7026C237.723 90.9136 239.633 92.6014 239.633 94.9221Z" fill="white"/>
<path d="M263.398 94.9211C263.398 97.2419 261.489 99.1406 259.155 99.1406C256.821 99.1406 254.911 97.2419 254.911 94.9211C254.911 92.6004 256.821 90.7017 259.155 90.7017C261.701 90.9126 263.398 92.6004 263.398 94.9211Z" fill="white"/>
<path d="M287.374 94.9216C287.374 97.2423 285.464 99.1411 283.13 99.1411C280.796 99.1411 278.887 97.2423 278.887 94.9216C278.887 92.6009 280.796 90.7021 283.13 90.7021C285.464 90.9131 287.374 92.6009 287.374 94.9216Z" fill="white"/>
<path d="M311.349 94.9211C311.349 97.2419 309.44 99.1406 307.106 99.1406C304.772 99.1406 302.862 97.2419 302.862 94.9211C302.862 92.6004 304.772 90.7017 307.106 90.7017C309.44 90.9126 311.349 92.6004 311.349 94.9211Z" fill="white"/>
<path d="M335.114 94.9219C335.114 97.2425 333.205 99.1411 330.871 99.1411C328.537 99.1411 326.627 97.2425 326.627 94.9219C326.627 92.6013 328.537 90.7026 330.871 90.7026C333.417 90.9136 335.114 92.6013 335.114 94.9219Z" fill="white"/>
<path d="M359.09 94.9211C359.09 97.2419 357.18 99.1406 354.846 99.1406C352.512 99.1406 350.603 97.2419 350.603 94.9211C350.603 92.6004 352.512 90.7017 354.846 90.7017C357.18 90.9126 359.09 92.6004 359.09 94.9211Z" fill="white"/>
<path d="M12.3895 106.948C12.3895 109.268 10.4799 111.167 8.14593 111.167C5.81196 111.167 3.90234 109.268 3.90234 106.948C3.90234 104.627 5.81196 102.729 8.14593 102.729C10.4799 102.729 12.3895 104.627 12.3895 106.948Z" fill="white"/>
<path d="M36.3651 106.948C36.3651 109.268 34.4555 111.167 32.1215 111.167C29.7875 111.167 27.8779 109.268 27.8779 106.948C27.8779 104.627 29.7875 102.728 32.1215 102.728C34.4555 102.728 36.3651 104.627 36.3651 106.948Z" fill="white"/>
<path d="M60.3408 106.948C60.3408 109.268 58.4312 111.167 56.0972 111.167C53.7632 111.167 51.8535 109.268 51.8535 106.948C51.8535 104.627 53.7632 102.728 56.0972 102.728C58.4312 102.728 60.3408 104.627 60.3408 106.948Z" fill="white"/>
<path d="M84.1053 106.948C84.1053 109.268 82.1957 111.167 79.8618 111.167C77.5278 111.167 75.6182 109.268 75.6182 106.948C75.6182 104.627 77.5278 102.728 79.8618 102.728C82.1957 102.728 84.1053 104.627 84.1053 106.948Z" fill="white"/>
<path d="M108.082 106.948C108.082 109.268 106.172 111.167 103.838 111.167C101.504 111.167 99.5947 109.268 99.5947 106.948C99.5947 104.627 101.504 102.729 103.838 102.729C106.172 102.729 108.082 104.627 108.082 106.948Z" fill="white"/>
<path d="M132.057 106.948C132.057 109.268 130.148 111.167 127.814 111.167C125.48 111.167 123.57 109.268 123.57 106.948C123.57 104.627 125.48 102.728 127.814 102.728C130.148 102.728 132.057 104.627 132.057 106.948Z" fill="white"/>
<path d="M155.822 106.948C155.822 109.268 153.913 111.167 151.579 111.167C149.245 111.167 147.335 109.268 147.335 106.948C147.335 104.627 149.245 102.728 151.579 102.728C153.913 102.728 155.822 104.627 155.822 106.948Z" fill="white"/>
<path d="M179.798 106.947C179.798 109.268 177.888 111.167 175.554 111.167C173.22 111.167 171.311 109.268 171.311 106.947C171.311 104.626 173.22 102.728 175.554 102.728C177.888 102.728 179.798 104.626 179.798 106.947Z" fill="white"/>
<path d="M203.776 106.948C203.776 109.268 201.867 111.167 199.533 111.167C197.199 111.167 195.289 109.268 195.289 106.948C195.289 104.627 197.199 102.729 199.533 102.729C201.867 102.729 203.776 104.627 203.776 106.948Z" fill="white"/>
<path d="M227.54 106.948C227.54 109.268 225.63 111.167 223.296 111.167C220.962 111.167 219.053 109.268 219.053 106.948C219.053 104.627 220.962 102.728 223.296 102.728C225.63 102.728 227.54 104.627 227.54 106.948Z" fill="white"/>
<path d="M251.517 106.948C251.517 109.268 249.607 111.167 247.273 111.167C244.939 111.167 243.029 109.268 243.029 106.948C243.029 104.627 244.939 102.728 247.273 102.728C249.607 102.728 251.517 104.627 251.517 106.948Z" fill="white"/>
<path d="M275.492 106.947C275.492 109.268 273.582 111.167 271.248 111.167C268.914 111.167 267.005 109.268 267.005 106.947C267.005 104.626 268.914 102.728 271.248 102.728C273.582 102.728 275.492 104.626 275.492 106.947Z" fill="white"/>
<path d="M299.257 106.948C299.257 109.268 297.347 111.167 295.013 111.167C292.679 111.167 290.77 109.268 290.77 106.948C290.77 104.627 292.679 102.728 295.013 102.728C297.559 102.728 299.257 104.627 299.257 106.948Z" fill="white"/>
<path d="M323.233 106.948C323.233 109.268 321.324 111.167 318.99 111.167C316.656 111.167 314.746 109.268 314.746 106.948C314.746 104.627 316.656 102.728 318.99 102.728C321.324 102.728 323.233 104.627 323.233 106.948Z" fill="white"/>
<path d="M347.209 106.948C347.209 109.268 345.299 111.167 342.965 111.167C340.631 111.167 338.722 109.268 338.722 106.948C338.722 104.627 340.631 102.728 342.965 102.728C345.299 102.728 347.209 104.627 347.209 106.948Z" fill="white"/>
<path d="M0.508659 118.761C0.508659 121.082 -1.40095 122.98 -3.73493 122.98C-6.0689 122.98 -7.97852 121.082 -7.97852 118.761C-7.97852 116.441 -6.0689 114.542 -3.73493 114.542C-1.40095 114.542 0.508659 116.441 0.508659 118.761Z" fill="white"/>
<path d="M24.4842 118.761C24.4842 121.082 22.5746 122.98 20.2407 122.98C17.9067 122.98 15.9971 121.082 15.9971 118.761C15.9971 116.441 17.9067 114.542 20.2407 114.542C22.5746 114.542 24.4842 116.441 24.4842 118.761Z" fill="white"/>
<path d="M48.2489 118.762C48.2489 121.082 46.3393 122.981 44.0053 122.981C41.6713 122.981 39.7617 121.082 39.7617 118.762C39.7617 116.441 41.6713 114.542 44.0053 114.542C46.3393 114.542 48.2489 116.441 48.2489 118.762Z" fill="white"/>
<path d="M72.2245 118.761C72.2245 121.082 70.3149 122.98 67.9809 122.98C65.6469 122.98 63.7373 121.082 63.7373 118.761C63.7373 116.441 65.6469 114.542 67.9809 114.542C70.3149 114.542 72.2245 116.441 72.2245 118.761Z" fill="white"/>
<path d="M96.201 118.762C96.201 121.082 94.2914 122.981 91.9575 122.981C89.6235 122.981 87.7139 121.082 87.7139 118.762C87.7139 116.441 89.6235 114.542 91.9575 114.542C94.2914 114.542 96.201 116.441 96.201 118.762Z" fill="white"/>
<path d="M119.966 118.761C119.966 121.082 118.056 122.98 115.722 122.98C113.388 122.98 111.479 121.082 111.479 118.761C111.479 116.441 113.388 114.542 115.722 114.542C118.056 114.542 119.966 116.441 119.966 118.761Z" fill="white"/>
<path d="M143.941 118.762C143.941 121.082 142.032 122.981 139.698 122.981C137.364 122.981 135.454 121.082 135.454 118.762C135.454 116.441 137.364 114.542 139.698 114.542C142.032 114.542 143.941 116.441 143.941 118.762Z" fill="white"/>
<path d="M167.917 118.761C167.917 121.081 166.007 122.98 163.673 122.98C161.339 122.98 159.43 121.081 159.43 118.761C159.43 116.441 161.339 114.542 163.673 114.542C166.007 114.542 167.917 116.441 167.917 118.761Z" fill="white"/>
<path d="M191.682 118.761C191.682 121.082 189.772 122.98 187.438 122.98C185.104 122.98 183.194 121.082 183.194 118.761C183.194 116.44 185.104 114.542 187.438 114.542C189.772 114.542 191.682 116.44 191.682 118.761Z" fill="white"/>
<path d="M215.657 118.761C215.657 121.082 213.747 122.98 211.414 122.98C209.08 122.98 207.17 121.082 207.17 118.761C207.17 116.44 209.08 114.542 211.414 114.542C213.747 114.542 215.657 116.44 215.657 118.761Z" fill="white"/>
<path d="M239.633 118.761C239.633 121.081 237.723 122.98 235.389 122.98C233.055 122.98 231.146 121.081 231.146 118.761C231.146 116.441 233.055 114.542 235.389 114.542C237.723 114.542 239.633 116.441 239.633 118.761Z" fill="white"/>
<path d="M263.398 118.761C263.398 121.082 261.489 122.98 259.155 122.98C256.821 122.98 254.911 121.082 254.911 118.761C254.911 116.441 256.821 114.542 259.155 114.542C261.701 114.542 263.398 116.441 263.398 118.761Z" fill="white"/>
<path d="M287.374 118.761C287.374 121.082 285.464 122.98 283.13 122.98C280.796 122.98 278.887 121.082 278.887 118.761C278.887 116.441 280.796 114.542 283.13 114.542C285.464 114.542 287.374 116.441 287.374 118.761Z" fill="white"/>
<path d="M311.349 118.761C311.349 121.082 309.44 122.98 307.106 122.98C304.772 122.98 302.862 121.082 302.862 118.761C302.862 116.441 304.772 114.542 307.106 114.542C309.44 114.542 311.349 116.441 311.349 118.761Z" fill="white"/>
<path d="M335.114 118.762C335.114 121.082 333.205 122.981 330.871 122.981C328.537 122.981 326.627 121.082 326.627 118.762C326.627 116.441 328.537 114.542 330.871 114.542C333.417 114.542 335.114 116.441 335.114 118.762Z" fill="white"/>
<path d="M359.09 118.761C359.09 121.081 357.18 122.98 354.846 122.98C352.512 122.98 350.603 121.081 350.603 118.761C350.603 116.441 352.512 114.542 354.846 114.542C357.18 114.542 359.09 116.441 359.09 118.761Z" fill="white"/>
<path d="M12.3895 130.578C12.3895 132.898 10.4799 134.797 8.14593 134.797C5.81196 134.797 3.90234 132.898 3.90234 130.578C3.90234 128.257 5.81196 126.358 8.14593 126.358C10.4799 126.569 12.3895 128.257 12.3895 130.578Z" fill="white"/>
<path d="M36.3651 130.576C36.3651 132.897 34.4555 134.795 32.1215 134.795C29.7875 134.795 27.8779 132.897 27.8779 130.576C27.8779 128.256 29.7875 126.357 32.1215 126.357C34.4555 126.568 36.3651 128.256 36.3651 130.576Z" fill="white"/>
<path d="M56.0972 134.796C58.4409 134.796 60.3408 132.907 60.3408 130.577C60.3408 128.247 58.4409 126.358 56.0972 126.358C53.7535 126.358 51.8535 128.247 51.8535 130.577C51.8535 132.907 53.7535 134.796 56.0972 134.796Z" fill="white"/>
<path d="M80.0737 134.795C82.4173 134.795 84.3173 132.907 84.3173 130.576C84.3173 128.246 82.4173 126.357 80.0737 126.357C77.73 126.357 75.8301 128.246 75.8301 130.576C75.8301 132.907 77.73 134.795 80.0737 134.795Z" fill="white"/>
<path d="M108.082 130.577C108.082 132.898 106.172 134.796 103.838 134.796C101.504 134.796 99.5947 132.898 99.5947 130.577C99.5947 128.257 101.504 126.358 103.838 126.358C106.172 126.569 108.082 128.257 108.082 130.577Z" fill="white"/>
<path d="M127.814 134.796C130.158 134.796 132.057 132.907 132.057 130.577C132.057 128.247 130.158 126.358 127.814 126.358C125.47 126.358 123.57 128.247 123.57 130.577C123.57 132.907 125.47 134.796 127.814 134.796Z" fill="white"/>
<path d="M155.822 130.577C155.822 132.897 153.913 134.796 151.579 134.796C149.245 134.796 147.335 132.897 147.335 130.577C147.335 128.256 149.245 126.358 151.579 126.358C153.913 126.569 155.822 128.256 155.822 130.577Z" fill="white"/>
<path d="M179.798 130.577C179.798 132.897 177.888 134.796 175.554 134.796C173.22 134.796 171.311 132.897 171.311 130.577C171.311 128.256 173.22 126.357 175.554 126.357C177.888 126.568 179.798 128.256 179.798 130.577Z" fill="white"/>
<path d="M203.777 130.576C203.777 132.897 201.868 134.795 199.534 134.795C197.2 134.795 195.29 132.897 195.29 130.576C195.29 128.256 197.2 126.357 199.534 126.357C201.868 126.568 203.777 128.256 203.777 130.576Z" fill="white"/>
<path d="M223.509 134.795C225.853 134.795 227.753 132.907 227.753 130.576C227.753 128.246 225.853 126.357 223.509 126.357C221.166 126.357 219.266 128.246 219.266 130.576C219.266 132.907 221.166 134.795 223.509 134.795Z" fill="white"/>
<path d="M251.517 130.577C251.517 132.897 249.607 134.796 247.273 134.796C244.939 134.796 243.029 132.897 243.029 130.577C243.029 128.256 244.939 126.358 247.273 126.358C249.607 126.569 251.517 128.256 251.517 130.577Z" fill="white"/>
<path d="M271.248 134.796C273.592 134.796 275.492 132.907 275.492 130.577C275.492 128.246 273.592 126.357 271.248 126.357C268.905 126.357 267.005 128.246 267.005 130.577C267.005 132.907 268.905 134.796 271.248 134.796Z" fill="white"/>
<path d="M299.259 130.577C299.259 132.897 297.349 134.795 295.015 134.795C292.681 134.795 290.771 132.897 290.771 130.577C290.771 128.256 292.681 126.358 295.015 126.358C297.561 126.569 299.259 128.256 299.259 130.577Z" fill="white"/>
<path d="M323.235 130.577C323.235 132.897 321.326 134.795 318.992 134.795C316.658 134.795 314.748 132.897 314.748 130.577C314.748 128.256 316.658 126.358 318.992 126.358C321.326 126.569 323.235 128.256 323.235 130.577Z" fill="white"/>
<path d="M347.211 130.578C347.211 132.898 345.301 134.797 342.967 134.797C340.633 134.797 338.724 132.898 338.724 130.578C338.724 128.257 340.633 126.358 342.967 126.358C345.301 126.569 347.211 128.257 347.211 130.578Z" fill="white"/>
<path d="M0.508659 142.602C0.508659 144.922 -1.40095 146.821 -3.73493 146.821C-6.0689 146.821 -7.97852 144.922 -7.97852 142.602C-7.97852 140.281 -6.0689 138.383 -3.73493 138.383C-1.40095 138.383 0.508659 140.281 0.508659 142.602Z" fill="white"/>
<path d="M24.4842 142.602C24.4842 144.922 22.5746 146.821 20.2407 146.821C17.9067 146.821 15.9971 144.922 15.9971 142.602C15.9971 140.281 17.9067 138.382 20.2407 138.382C22.5746 138.382 24.4842 140.281 24.4842 142.602Z" fill="white"/>
<path d="M48.2489 142.602C48.2489 144.922 46.3393 146.821 44.0053 146.821C41.6713 146.821 39.7617 144.922 39.7617 142.602C39.7617 140.281 41.6713 138.383 44.0053 138.383C46.3393 138.383 48.2489 140.281 48.2489 142.602Z" fill="white"/>
<path d="M72.2245 142.601C72.2245 144.922 70.3149 146.82 67.9809 146.82C65.6469 146.82 63.7373 144.922 63.7373 142.601C63.7373 140.28 65.6469 138.382 67.9809 138.382C70.3149 138.382 72.2245 140.28 72.2245 142.601Z" fill="white"/>
<path d="M96.201 142.602C96.201 144.922 94.2914 146.821 91.9575 146.821C89.6235 146.821 87.7139 144.922 87.7139 142.602C87.7139 140.281 89.6235 138.383 91.9575 138.383C94.2914 138.383 96.201 140.281 96.201 142.602Z" fill="white"/>
<path d="M119.966 142.601C119.966 144.922 118.056 146.82 115.722 146.82C113.388 146.82 111.479 144.922 111.479 142.601C111.479 140.28 113.388 138.382 115.722 138.382C118.056 138.382 119.966 140.28 119.966 142.601Z" fill="white"/>
<path d="M143.941 142.601C143.941 144.922 142.032 146.82 139.698 146.82C137.364 146.82 135.454 144.922 135.454 142.601C135.454 140.28 137.364 138.382 139.698 138.382C142.032 138.382 143.941 140.28 143.941 142.601Z" fill="white"/>
<path d="M167.917 142.601C167.917 144.921 166.007 146.82 163.673 146.82C161.339 146.82 159.43 144.921 159.43 142.601C159.43 140.28 161.339 138.381 163.673 138.381C166.007 138.381 167.917 140.28 167.917 142.601Z" fill="white"/>
<path d="M191.682 142.601C191.682 144.922 189.772 146.82 187.438 146.82C185.104 146.82 183.194 144.922 183.194 142.601C183.194 140.281 185.104 138.382 187.438 138.382C189.772 138.382 191.682 140.281 191.682 142.601Z" fill="white"/>
<path d="M215.657 142.601C215.657 144.922 213.747 146.82 211.414 146.82C209.08 146.82 207.17 144.922 207.17 142.601C207.17 140.281 209.08 138.382 211.414 138.382C213.747 138.382 215.657 140.281 215.657 142.601Z" fill="white"/>
<path d="M239.633 142.601C239.633 144.922 237.723 146.82 235.389 146.82C233.055 146.82 231.146 144.922 231.146 142.601C231.146 140.281 233.055 138.382 235.389 138.382C237.723 138.382 239.633 140.281 239.633 142.601Z" fill="white"/>
<path d="M263.398 142.601C263.398 144.921 261.489 146.82 259.155 146.82C256.821 146.82 254.911 144.921 254.911 142.601C254.911 140.28 256.821 138.382 259.155 138.382C261.701 138.382 263.398 140.28 263.398 142.601Z" fill="white"/>
<path d="M287.374 142.602C287.374 144.922 285.464 146.821 283.13 146.821C280.796 146.821 278.887 144.922 278.887 142.602C278.887 140.281 280.796 138.383 283.13 138.383C285.464 138.383 287.374 140.281 287.374 142.602Z" fill="white"/>
<path d="M311.349 142.601C311.349 144.921 309.44 146.82 307.106 146.82C304.772 146.82 302.862 144.921 302.862 142.601C302.862 140.28 304.772 138.382 307.106 138.382C309.44 138.382 311.349 140.28 311.349 142.601Z" fill="white"/>
<path d="M335.114 142.601C335.114 144.922 333.205 146.82 330.871 146.82C328.537 146.82 326.627 144.922 326.627 142.601C326.627 140.28 328.537 138.382 330.871 138.382C333.417 138.382 335.114 140.28 335.114 142.601Z" fill="white"/>
<path d="M359.09 142.601C359.09 144.922 357.18 146.82 354.846 146.82C352.512 146.82 350.603 144.922 350.603 142.601C350.603 140.28 352.512 138.381 354.846 138.381C357.18 138.381 359.09 140.28 359.09 142.601Z" fill="white"/>
<path d="M12.3895 154.414C12.3895 156.735 10.4799 158.634 8.14593 158.634C5.81196 158.634 3.90234 156.735 3.90234 154.414C3.90234 152.094 5.81196 150.195 8.14593 150.195C10.4799 150.195 12.3895 152.094 12.3895 154.414Z" fill="white"/>
<path d="M36.3651 154.414C36.3651 156.734 34.4555 158.633 32.1215 158.633C29.7875 158.633 27.8779 156.734 27.8779 154.414C27.8779 152.093 29.7875 150.194 32.1215 150.194C34.4555 150.194 36.3651 152.093 36.3651 154.414Z" fill="white"/>
<path d="M60.3408 154.414C60.3408 156.735 58.4312 158.633 56.0972 158.633C53.7632 158.633 51.8535 156.735 51.8535 154.414C51.8535 152.093 53.7632 150.194 56.0972 150.194C58.4312 150.194 60.3408 152.093 60.3408 154.414Z" fill="white"/>
<path d="M84.1053 154.414C84.1053 156.735 82.1957 158.633 79.8618 158.633C77.5278 158.633 75.6182 156.735 75.6182 154.414C75.6182 152.093 77.5278 150.194 79.8618 150.194C82.1957 150.194 84.1053 152.093 84.1053 154.414Z" fill="white"/>
<path d="M108.082 154.414C108.082 156.735 106.172 158.633 103.838 158.633C101.504 158.633 99.5947 156.735 99.5947 154.414C99.5947 152.093 101.504 150.195 103.838 150.195C106.172 150.195 108.082 152.093 108.082 154.414Z" fill="white"/>
<path d="M132.057 154.414C132.057 156.735 130.148 158.633 127.814 158.633C125.48 158.633 123.57 156.735 123.57 154.414C123.57 152.093 125.48 150.194 127.814 150.194C130.148 150.194 132.057 152.093 132.057 154.414Z" fill="white"/>
<path d="M155.822 154.414C155.822 156.735 153.913 158.633 151.579 158.633C149.245 158.633 147.335 156.735 147.335 154.414C147.335 152.093 149.245 150.194 151.579 150.194C153.913 150.194 155.822 152.093 155.822 154.414Z" fill="white"/>
<path d="M179.798 154.413C179.798 156.734 177.888 158.632 175.554 158.632C173.22 158.632 171.311 156.734 171.311 154.413C171.311 152.093 173.22 150.194 175.554 150.194C177.888 150.194 179.798 152.093 179.798 154.413Z" fill="white"/>
<path d="M203.776 154.414C203.776 156.735 201.867 158.633 199.533 158.633C197.199 158.633 195.289 156.735 195.289 154.414C195.289 152.093 197.199 150.194 199.533 150.194C201.867 150.194 203.776 152.093 203.776 154.414Z" fill="white"/>
<path d="M227.54 154.414C227.54 156.735 225.63 158.633 223.296 158.633C220.962 158.633 219.053 156.735 219.053 154.414C219.053 152.093 220.962 150.194 223.296 150.194C225.63 150.194 227.54 152.093 227.54 154.414Z" fill="white"/>
<path d="M251.517 154.414C251.517 156.735 249.607 158.633 247.273 158.633C244.939 158.633 243.029 156.735 243.029 154.414C243.029 152.093 244.939 150.194 247.273 150.194C249.607 150.194 251.517 152.093 251.517 154.414Z" fill="white"/>
<path d="M275.492 154.413C275.492 156.734 273.582 158.632 271.248 158.632C268.914 158.632 267.005 156.734 267.005 154.413C267.005 152.093 268.914 150.194 271.248 150.194C273.582 150.194 275.492 152.093 275.492 154.413Z" fill="white"/>
<path d="M299.257 154.414C299.257 156.735 297.347 158.633 295.013 158.633C292.679 158.633 290.77 156.735 290.77 154.414C290.77 152.093 292.679 150.194 295.013 150.194C297.559 150.194 299.257 152.093 299.257 154.414Z" fill="white"/>
<path d="M323.233 154.413C323.233 156.734 321.324 158.632 318.99 158.632C316.656 158.632 314.746 156.734 314.746 154.413C314.746 152.093 316.656 150.194 318.99 150.194C321.324 150.194 323.233 152.093 323.233 154.413Z" fill="white"/>
<path d="M347.209 154.413C347.209 156.734 345.299 158.632 342.965 158.632C340.631 158.632 338.722 156.734 338.722 154.413C338.722 152.093 340.631 150.194 342.965 150.194C345.299 150.194 347.209 152.093 347.209 154.413Z" fill="white"/>
<path d="M0.508659 166.229C0.508659 168.55 -1.40095 170.448 -3.73493 170.448C-6.0689 170.448 -7.97852 168.55 -7.97852 166.229C-7.97852 163.908 -6.0689 162.01 -3.73493 162.01C-1.40095 162.221 0.508659 163.908 0.508659 166.229Z" fill="white"/>
<path d="M24.4842 166.229C24.4842 168.549 22.5746 170.448 20.2407 170.448C17.9067 170.448 15.9971 168.549 15.9971 166.229C15.9971 163.908 17.9067 162.009 20.2407 162.009C22.5746 162.22 24.4842 163.908 24.4842 166.229Z" fill="white"/>
<path d="M48.2489 166.229C48.2489 168.549 46.3393 170.448 44.0053 170.448C41.6713 170.448 39.7617 168.549 39.7617 166.229C39.7617 163.908 41.6713 162.009 44.0053 162.009C46.3393 162.22 48.2489 163.908 48.2489 166.229Z" fill="white"/>
<path d="M72.2245 166.229C72.2245 168.549 70.3149 170.448 67.9809 170.448C65.6469 170.448 63.7373 168.549 63.7373 166.229C63.7373 163.908 65.6469 162.009 67.9809 162.009C70.3149 162.22 72.2245 163.908 72.2245 166.229Z" fill="white"/>
<path d="M96.201 166.229C96.201 168.549 94.2914 170.448 91.9575 170.448C89.6235 170.448 87.7139 168.549 87.7139 166.229C87.7139 163.908 89.6235 162.009 91.9575 162.009C94.2914 162.22 96.201 163.908 96.201 166.229Z" fill="white"/>
<path d="M119.966 166.229C119.966 168.549 118.056 170.448 115.722 170.448C113.388 170.448 111.479 168.549 111.479 166.229C111.479 163.908 113.388 162.009 115.722 162.009C118.056 162.22 119.966 163.908 119.966 166.229Z" fill="white"/>
<path d="M143.941 166.229C143.941 168.549 142.032 170.448 139.698 170.448C137.364 170.448 135.454 168.549 135.454 166.229C135.454 163.908 137.364 162.009 139.698 162.009C142.032 162.22 143.941 163.908 143.941 166.229Z" fill="white"/>
<path d="M167.917 166.228C167.917 168.549 166.007 170.448 163.673 170.448C161.339 170.448 159.43 168.549 159.43 166.228C159.43 163.908 161.339 162.009 163.673 162.009C166.007 162.22 167.917 163.908 167.917 166.228Z" fill="white"/>
<path d="M191.682 166.229C191.682 168.549 189.772 170.448 187.438 170.448C185.104 170.448 183.194 168.549 183.194 166.229C183.194 163.908 185.104 162.009 187.438 162.009C189.772 162.22 191.682 163.908 191.682 166.229Z" fill="white"/>
<path d="M215.657 166.229C215.657 168.549 213.747 170.448 211.414 170.448C209.08 170.448 207.17 168.549 207.17 166.229C207.17 163.908 209.08 162.009 211.414 162.009C213.747 162.22 215.657 163.908 215.657 166.229Z" fill="white"/>
<path d="M239.633 166.229C239.633 168.549 237.723 170.448 235.389 170.448C233.055 170.448 231.146 168.549 231.146 166.229C231.146 163.908 233.055 162.009 235.389 162.009C237.723 162.22 239.633 163.908 239.633 166.229Z" fill="white"/>
<path d="M263.398 166.228C263.398 168.549 261.489 170.448 259.155 170.448C256.821 170.448 254.911 168.549 254.911 166.228C254.911 163.908 256.821 162.009 259.155 162.009C261.701 162.22 263.398 163.908 263.398 166.228Z" fill="white"/>
<path d="M287.374 166.229C287.374 168.549 285.464 170.448 283.13 170.448C280.796 170.448 278.887 168.549 278.887 166.229C278.887 163.908 280.796 162.009 283.13 162.009C285.464 162.22 287.374 163.908 287.374 166.229Z" fill="white"/>
<path d="M311.349 166.228C311.349 168.549 309.44 170.448 307.106 170.448C304.772 170.448 302.862 168.549 302.862 166.228C302.862 163.908 304.772 162.009 307.106 162.009C309.44 162.22 311.349 163.908 311.349 166.228Z" fill="white"/>
<path d="M335.114 166.228C335.114 168.549 333.205 170.448 330.871 170.448C328.537 170.448 326.627 168.549 326.627 166.228C326.627 163.908 328.537 162.009 330.871 162.009C333.417 162.22 335.114 163.908 335.114 166.228Z" fill="white"/>
<path d="M359.09 166.228C359.09 168.549 357.18 170.448 354.846 170.448C352.512 170.448 350.603 168.549 350.603 166.228C350.603 163.908 352.512 162.009 354.846 162.009C357.18 162.22 359.09 163.908 359.09 166.228Z" fill="white"/>
<path d="M12.3895 178.254C12.3895 180.574 10.4799 182.473 8.14593 182.473C5.81196 182.473 3.90234 180.574 3.90234 178.254C3.90234 175.933 5.81196 174.035 8.14593 174.035C10.4799 174.035 12.3895 175.933 12.3895 178.254Z" fill="white"/>
<path d="M36.3651 178.253C36.3651 180.574 34.4555 182.473 32.1215 182.473C29.7875 182.473 27.8779 180.574 27.8779 178.253C27.8779 175.932 29.7875 174.034 32.1215 174.034C34.4555 174.034 36.3651 175.932 36.3651 178.253Z" fill="white"/>
<path d="M60.3408 178.253C60.3408 180.574 58.4312 182.473 56.0972 182.473C53.7632 182.473 51.8535 180.574 51.8535 178.253C51.8535 175.933 53.7632 174.034 56.0972 174.034C58.4312 174.034 60.3408 175.933 60.3408 178.253Z" fill="white"/>
<path d="M84.1053 178.253C84.1053 180.574 82.1957 182.473 79.8618 182.473C77.5278 182.473 75.6182 180.574 75.6182 178.253C75.6182 175.932 77.5278 174.034 79.8618 174.034C82.1957 174.034 84.1053 175.932 84.1053 178.253Z" fill="white"/>
<path d="M108.082 178.253C108.082 180.574 106.172 182.473 103.838 182.473C101.504 182.473 99.5947 180.574 99.5947 178.253C99.5947 175.932 101.504 174.034 103.838 174.034C106.172 174.034 108.082 175.932 108.082 178.253Z" fill="white"/>
<path d="M132.057 178.253C132.057 180.574 130.148 182.473 127.814 182.473C125.48 182.473 123.57 180.574 123.57 178.253C123.57 175.932 125.48 174.034 127.814 174.034C130.148 174.034 132.057 175.932 132.057 178.253Z" fill="white"/>
<path d="M155.822 178.253C155.822 180.574 153.913 182.473 151.579 182.473C149.245 182.473 147.335 180.574 147.335 178.253C147.335 175.932 149.245 174.034 151.579 174.034C153.913 174.034 155.822 175.932 155.822 178.253Z" fill="white"/>
<path d="M179.798 178.253C179.798 180.574 177.888 182.472 175.554 182.472C173.22 182.472 171.311 180.574 171.311 178.253C171.311 175.932 173.22 174.034 175.554 174.034C177.888 174.034 179.798 175.932 179.798 178.253Z" fill="white"/>
<path d="M203.776 178.254C203.776 180.574 201.867 182.473 199.533 182.473C197.199 182.473 195.289 180.574 195.289 178.254C195.289 175.933 197.199 174.034 199.533 174.034C201.867 174.034 203.776 175.933 203.776 178.254Z" fill="white"/>
<path d="M227.54 178.253C227.54 180.574 225.63 182.473 223.296 182.473C220.962 182.473 219.053 180.574 219.053 178.253C219.053 175.932 220.962 174.034 223.296 174.034C225.63 174.034 227.54 175.932 227.54 178.253Z" fill="white"/>
<path d="M251.517 178.254C251.517 180.574 249.607 182.473 247.273 182.473C244.939 182.473 243.029 180.574 243.029 178.254C243.029 175.933 244.939 174.034 247.273 174.034C249.607 174.034 251.517 175.933 251.517 178.254Z" fill="white"/>
<path d="M275.492 178.253C275.492 180.574 273.582 182.473 271.248 182.473C268.914 182.473 267.005 180.574 267.005 178.253C267.005 175.932 268.914 174.034 271.248 174.034C273.582 174.034 275.492 175.932 275.492 178.253Z" fill="white"/>
<path d="M299.257 178.253C299.257 180.574 297.347 182.473 295.013 182.473C292.679 182.473 290.77 180.574 290.77 178.253C290.77 175.932 292.679 174.034 295.013 174.034C297.559 174.034 299.257 175.932 299.257 178.253Z" fill="white"/>
<path d="M323.233 178.253C323.233 180.574 321.324 182.472 318.99 182.472C316.656 182.472 314.746 180.574 314.746 178.253C314.746 175.932 316.656 174.034 318.99 174.034C321.324 174.034 323.233 175.932 323.233 178.253Z" fill="white"/>
<path d="M347.209 178.253C347.209 180.574 345.299 182.473 342.965 182.473C340.631 182.473 338.722 180.574 338.722 178.253C338.722 175.932 340.631 174.034 342.965 174.034C345.299 174.034 347.209 175.932 347.209 178.253Z" fill="white"/>
<path d="M0.508659 190.067C0.508659 192.388 -1.40095 194.287 -3.73493 194.287C-6.0689 194.287 -7.97852 192.388 -7.97852 190.067C-7.97852 187.746 -6.0689 185.848 -3.73493 185.848C-1.40095 185.848 0.508659 187.746 0.508659 190.067Z" fill="white"/>
<path d="M24.4842 190.067C24.4842 192.388 22.5746 194.287 20.2407 194.287C17.9067 194.287 15.9971 192.388 15.9971 190.067C15.9971 187.746 17.9067 185.848 20.2407 185.848C22.5746 185.848 24.4842 187.746 24.4842 190.067Z" fill="white"/>
<path d="M48.2489 190.067C48.2489 192.388 46.3393 194.287 44.0053 194.287C41.6713 194.287 39.7617 192.388 39.7617 190.067C39.7617 187.746 41.6713 185.848 44.0053 185.848C46.3393 185.848 48.2489 187.746 48.2489 190.067Z" fill="white"/>
<path d="M72.2245 190.067C72.2245 192.388 70.3149 194.287 67.9809 194.287C65.6469 194.287 63.7373 192.388 63.7373 190.067C63.7373 187.746 65.6469 185.848 67.9809 185.848C70.3149 185.848 72.2245 187.746 72.2245 190.067Z" fill="white"/>
<path d="M96.201 190.067C96.201 192.388 94.2914 194.287 91.9575 194.287C89.6235 194.287 87.7139 192.388 87.7139 190.067C87.7139 187.746 89.6235 185.848 91.9575 185.848C94.2914 185.848 96.201 187.746 96.201 190.067Z" fill="white"/>
<path d="M119.966 190.067C119.966 192.388 118.056 194.287 115.722 194.287C113.388 194.287 111.479 192.388 111.479 190.067C111.479 187.746 113.388 185.848 115.722 185.848C118.056 185.848 119.966 187.746 119.966 190.067Z" fill="white"/>
<path d="M143.941 190.067C143.941 192.388 142.032 194.287 139.698 194.287C137.364 194.287 135.454 192.388 135.454 190.067C135.454 187.746 137.364 185.848 139.698 185.848C142.032 185.848 143.941 187.746 143.941 190.067Z" fill="white"/>
<path d="M167.917 190.067C167.917 192.388 166.007 194.287 163.673 194.287C161.339 194.287 159.43 192.388 159.43 190.067C159.43 187.746 161.339 185.848 163.673 185.848C166.007 185.848 167.917 187.746 167.917 190.067Z" fill="white"/>
<path d="M191.682 190.067C191.682 192.388 189.772 194.287 187.438 194.287C185.104 194.287 183.194 192.388 183.194 190.067C183.194 187.746 185.104 185.848 187.438 185.848C189.772 185.848 191.682 187.746 191.682 190.067Z" fill="white"/>
<path d="M215.657 190.067C215.657 192.388 213.747 194.287 211.414 194.287C209.08 194.287 207.17 192.388 207.17 190.067C207.17 187.746 209.08 185.848 211.414 185.848C213.747 185.848 215.657 187.746 215.657 190.067Z" fill="white"/>
<path d="M239.633 190.067C239.633 192.388 237.723 194.287 235.389 194.287C233.055 194.287 231.146 192.388 231.146 190.067C231.146 187.746 233.055 185.848 235.389 185.848C237.723 185.848 239.633 187.746 239.633 190.067Z" fill="white"/>
<path d="M263.398 190.067C263.398 192.388 261.489 194.287 259.155 194.287C256.821 194.287 254.911 192.388 254.911 190.067C254.911 187.746 256.821 185.848 259.155 185.848C261.701 185.848 263.398 187.746 263.398 190.067Z" fill="white"/>
<path d="M287.374 190.067C287.374 192.388 285.464 194.287 283.13 194.287C280.796 194.287 278.887 192.388 278.887 190.067C278.887 187.746 280.796 185.848 283.13 185.848C285.464 185.848 287.374 187.746 287.374 190.067Z" fill="white"/>
<path d="M311.349 190.067C311.349 192.388 309.44 194.287 307.106 194.287C304.772 194.287 302.862 192.388 302.862 190.067C302.862 187.746 304.772 185.848 307.106 185.848C309.44 185.848 311.349 187.746 311.349 190.067Z" fill="white"/>
<path d="M335.114 190.067C335.114 192.388 333.205 194.287 330.871 194.287C328.537 194.287 326.627 192.388 326.627 190.067C326.627 187.746 328.537 185.848 330.871 185.848C333.417 185.848 335.114 187.746 335.114 190.067Z" fill="white"/>
<path d="M359.09 190.067C359.09 192.388 357.18 194.287 354.846 194.287C352.512 194.287 350.603 192.388 350.603 190.067C350.603 187.746 352.512 185.848 354.846 185.848C357.18 185.848 359.09 187.746 359.09 190.067Z" fill="white"/>
<path d="M12.3895 201.883C12.3895 204.203 10.4799 206.102 8.14593 206.102C5.81196 206.102 3.90234 204.203 3.90234 201.883C3.90234 199.562 5.81196 197.663 8.14593 197.663C10.4799 197.874 12.3895 199.562 12.3895 201.883Z" fill="white"/>
<path d="M36.3651 201.882C36.3651 204.203 34.4555 206.102 32.1215 206.102C29.7875 206.102 27.8779 204.203 27.8779 201.882C27.8779 199.561 29.7875 197.663 32.1215 197.663C34.4555 197.874 36.3651 199.561 36.3651 201.882Z" fill="white"/>
<path d="M60.3408 201.881C60.3408 204.202 58.4312 206.101 56.0972 206.101C53.7632 206.101 51.8535 204.202 51.8535 201.881C51.8535 199.561 53.7632 197.662 56.0972 197.662C58.4312 197.873 60.3408 199.561 60.3408 201.881Z" fill="white"/>
<path d="M84.1053 201.882C84.1053 204.203 82.1957 206.102 79.8618 206.102C77.5278 206.102 75.6182 204.203 75.6182 201.882C75.6182 199.561 77.5278 197.663 79.8618 197.663C82.1957 197.663 84.1053 199.561 84.1053 201.882Z" fill="white"/>
<path d="M108.082 201.881C108.082 204.202 106.172 206.101 103.838 206.101C101.504 206.101 99.5947 204.202 99.5947 201.881C99.5947 199.561 101.504 197.662 103.838 197.662C106.172 197.873 108.082 199.561 108.082 201.881Z" fill="white"/>
<path d="M132.057 201.882C132.057 204.203 130.148 206.102 127.814 206.102C125.48 206.102 123.57 204.203 123.57 201.882C123.57 199.561 125.48 197.663 127.814 197.663C130.148 197.874 132.057 199.561 132.057 201.882Z" fill="white"/>
<path d="M155.822 201.882C155.822 204.203 153.913 206.102 151.579 206.102C149.245 206.102 147.335 204.203 147.335 201.882C147.335 199.561 149.245 197.663 151.579 197.663C153.913 197.874 155.822 199.561 155.822 201.882Z" fill="white"/>
<path d="M179.798 201.882C179.798 204.203 177.888 206.102 175.554 206.102C173.22 206.102 171.311 204.203 171.311 201.882C171.311 199.561 173.22 197.663 175.554 197.663C177.888 197.874 179.798 199.561 179.798 201.882Z" fill="white"/>
<path d="M203.776 201.882C203.776 204.203 201.867 206.102 199.533 206.102C197.199 206.102 195.289 204.203 195.289 201.882C195.289 199.561 197.199 197.663 199.533 197.663C201.867 197.874 203.776 199.561 203.776 201.882Z" fill="white"/>
<path d="M227.54 201.882C227.54 204.203 225.63 206.102 223.296 206.102C220.962 206.102 219.053 204.203 219.053 201.882C219.053 199.561 220.962 197.663 223.296 197.663C225.63 197.663 227.54 199.561 227.54 201.882Z" fill="white"/>
<path d="M251.517 201.882C251.517 204.203 249.607 206.102 247.273 206.102C244.939 206.102 243.029 204.203 243.029 201.882C243.029 199.561 244.939 197.663 247.273 197.663C249.607 197.874 251.517 199.561 251.517 201.882Z" fill="white"/>
<path d="M275.492 201.882C275.492 204.203 273.582 206.102 271.248 206.102C268.914 206.102 267.005 204.203 267.005 201.882C267.005 199.561 268.914 197.663 271.248 197.663C273.582 197.874 275.492 199.561 275.492 201.882Z" fill="white"/>
<path d="M299.257 201.882C299.257 204.203 297.347 206.102 295.013 206.102C292.679 206.102 290.77 204.203 290.77 201.882C290.77 199.561 292.679 197.663 295.013 197.663C297.559 197.874 299.257 199.561 299.257 201.882Z" fill="white"/>
<path d="M323.233 201.882C323.233 204.203 321.324 206.102 318.99 206.102C316.656 206.102 314.746 204.203 314.746 201.882C314.746 199.561 316.656 197.663 318.99 197.663C321.324 197.874 323.233 199.561 323.233 201.882Z" fill="white"/>
<path d="M347.209 201.882C347.209 204.202 345.299 206.101 342.965 206.101C340.631 206.101 338.722 204.202 338.722 201.882C338.722 199.561 340.631 197.663 342.965 197.663C345.299 197.874 347.209 199.561 347.209 201.882Z" fill="white"/>
<path d="M0.508659 213.908C0.508659 216.228 -1.40095 218.127 -3.73493 218.127C-6.0689 218.127 -7.97852 216.228 -7.97852 213.908C-7.97852 211.588 -6.0689 209.689 -3.73493 209.689C-1.40095 209.689 0.508659 211.588 0.508659 213.908Z" fill="white"/>
<path d="M24.4842 213.907C24.4842 216.228 22.5746 218.127 20.2407 218.127C17.9067 218.127 15.9971 216.228 15.9971 213.907C15.9971 211.587 17.9067 209.688 20.2407 209.688C22.5746 209.688 24.4842 211.587 24.4842 213.907Z" fill="white"/>
<path d="M48.2489 213.908C48.2489 216.229 46.3393 218.127 44.0053 218.127C41.6713 218.127 39.7617 216.229 39.7617 213.908C39.7617 211.588 41.6713 209.689 44.0053 209.689C46.3393 209.689 48.2489 211.588 48.2489 213.908Z" fill="white"/>
<path d="M67.9809 218.127C70.3246 218.127 72.2245 216.238 72.2245 213.908C72.2245 211.577 70.3246 209.688 67.9809 209.688C65.6372 209.688 63.7373 211.577 63.7373 213.908C63.7373 216.238 65.6372 218.127 67.9809 218.127Z" fill="white"/>
<path d="M96.201 213.908C96.201 216.229 94.2914 218.127 91.9575 218.127C89.6235 218.127 87.7139 216.229 87.7139 213.908C87.7139 211.587 89.6235 209.688 91.9575 209.688C94.2914 209.688 96.201 211.587 96.201 213.908Z" fill="white"/>
<path d="M119.966 213.907C119.966 216.228 118.056 218.127 115.722 218.127C113.388 218.127 111.479 216.228 111.479 213.907C111.479 211.587 113.388 209.688 115.722 209.688C118.056 209.688 119.966 211.587 119.966 213.907Z" fill="white"/>
<path d="M143.941 213.908C143.941 216.229 142.032 218.127 139.698 218.127C137.364 218.127 135.454 216.229 135.454 213.908C135.454 211.588 137.364 209.689 139.698 209.689C142.032 209.689 143.941 211.588 143.941 213.908Z" fill="white"/>
<path d="M167.917 213.908C167.917 216.229 166.007 218.127 163.673 218.127C161.339 218.127 159.43 216.229 159.43 213.908C159.43 211.587 161.339 209.688 163.673 209.688C166.007 209.688 167.917 211.587 167.917 213.908Z" fill="white"/>
<path d="M191.682 213.908C191.682 216.229 189.772 218.127 187.438 218.127C185.104 218.127 183.194 216.229 183.194 213.908C183.194 211.588 185.104 209.689 187.438 209.689C189.772 209.689 191.682 211.588 191.682 213.908Z" fill="white"/>
<path d="M211.414 218.127C213.757 218.127 215.657 216.238 215.657 213.908C215.657 211.578 213.757 209.689 211.414 209.689C209.07 209.689 207.17 211.578 207.17 213.908C207.17 216.238 209.07 218.127 211.414 218.127Z" fill="white"/>
<path d="M239.633 213.908C239.633 216.229 237.723 218.127 235.389 218.127C233.055 218.127 231.146 216.229 231.146 213.908C231.146 211.588 233.055 209.689 235.389 209.689C237.723 209.689 239.633 211.588 239.633 213.908Z" fill="white"/>
<path d="M263.398 213.908C263.398 216.228 261.489 218.127 259.155 218.127C256.821 218.127 254.911 216.228 254.911 213.908C254.911 211.588 256.821 209.689 259.155 209.689C261.701 209.689 263.398 211.588 263.398 213.908Z" fill="white"/>
<path d="M287.374 213.909C287.374 216.229 285.464 218.128 283.13 218.128C280.796 218.128 278.887 216.229 278.887 213.909C278.887 211.588 280.796 209.689 283.13 209.689C285.464 209.689 287.374 211.588 287.374 213.909Z" fill="white"/>
<path d="M311.349 213.908C311.349 216.228 309.44 218.127 307.106 218.127C304.772 218.127 302.862 216.228 302.862 213.908C302.862 211.588 304.772 209.689 307.106 209.689C309.44 209.689 311.349 211.588 311.349 213.908Z" fill="white"/>
<path d="M335.114 213.908C335.114 216.229 333.205 218.127 330.871 218.127C328.537 218.127 326.627 216.229 326.627 213.908C326.627 211.588 328.537 209.689 330.871 209.689C333.417 209.689 335.114 211.588 335.114 213.908Z" fill="white"/>
<path d="M354.846 218.127C357.19 218.127 359.09 216.238 359.09 213.908C359.09 211.578 357.19 209.689 354.846 209.689C352.502 209.689 350.603 211.578 350.603 213.908C350.603 216.238 352.502 218.127 354.846 218.127Z" fill="white"/>
<path d="M12.3895 225.722C12.3895 228.042 10.4799 229.941 8.14593 229.941C5.81196 229.941 3.90234 228.042 3.90234 225.722C3.90234 223.401 5.81196 221.502 8.14593 221.502C10.4799 221.502 12.3895 223.401 12.3895 225.722Z" fill="white"/>
<path d="M36.3651 225.721C36.3651 228.042 34.4555 229.94 32.1215 229.94C29.7875 229.94 27.8779 228.042 27.8779 225.721C27.8779 223.4 29.7875 221.501 32.1215 221.501C34.4555 221.501 36.3651 223.4 36.3651 225.721Z" fill="white"/>
<path d="M56.0972 229.94C58.4409 229.94 60.3408 228.051 60.3408 225.721C60.3408 223.391 58.4409 221.501 56.0972 221.501C53.7535 221.501 51.8535 223.391 51.8535 225.721C51.8535 228.051 53.7535 229.94 56.0972 229.94Z" fill="white"/>
<path d="M80.0737 229.94C82.4173 229.94 84.3173 228.051 84.3173 225.721C84.3173 223.391 82.4173 221.501 80.0737 221.501C77.73 221.501 75.8301 223.391 75.8301 225.721C75.8301 228.051 77.73 229.94 80.0737 229.94Z" fill="white"/>
<path d="M108.082 225.721C108.082 228.042 106.172 229.94 103.838 229.94C101.504 229.94 99.5947 228.042 99.5947 225.721C99.5947 223.4 101.504 221.501 103.838 221.501C106.172 221.501 108.082 223.4 108.082 225.721Z" fill="white"/>
<path d="M127.814 229.94C130.158 229.94 132.057 228.051 132.057 225.721C132.057 223.391 130.158 221.501 127.814 221.501C125.47 221.501 123.57 223.391 123.57 225.721C123.57 228.051 125.47 229.94 127.814 229.94Z" fill="white"/>
<path d="M155.822 225.721C155.822 228.042 153.913 229.941 151.579 229.941C149.245 229.941 147.335 228.042 147.335 225.721C147.335 223.401 149.245 221.502 151.579 221.502C153.913 221.502 155.822 223.401 155.822 225.721Z" fill="white"/>
<path d="M179.798 225.721C179.798 228.041 177.888 229.94 175.554 229.94C173.22 229.94 171.311 228.041 171.311 225.721C171.311 223.4 173.22 221.501 175.554 221.501C177.888 221.501 179.798 223.4 179.798 225.721Z" fill="white"/>
<path d="M203.776 225.721C203.776 228.042 201.867 229.94 199.533 229.94C197.199 229.94 195.289 228.042 195.289 225.721C195.289 223.4 197.199 221.501 199.533 221.501C201.867 221.501 203.776 223.4 203.776 225.721Z" fill="white"/>
<path d="M223.508 229.94C225.852 229.94 227.752 228.051 227.752 225.721C227.752 223.39 225.852 221.501 223.508 221.501C221.165 221.501 219.265 223.39 219.265 225.721C219.265 228.051 221.165 229.94 223.508 229.94Z" fill="white"/>
<path d="M251.517 225.721C251.517 228.042 249.607 229.941 247.273 229.941C244.939 229.941 243.029 228.042 243.029 225.721C243.029 223.401 244.939 221.502 247.273 221.502C249.607 221.502 251.517 223.401 251.517 225.721Z" fill="white"/>
<path d="M271.248 229.941C273.592 229.941 275.492 228.052 275.492 225.721C275.492 223.391 273.592 221.502 271.248 221.502C268.905 221.502 267.005 223.391 267.005 225.721C267.005 228.052 268.905 229.941 271.248 229.941Z" fill="white"/>
<path d="M299.257 225.721C299.257 228.042 297.347 229.941 295.013 229.941C292.679 229.941 290.77 228.042 290.77 225.721C290.77 223.401 292.679 221.502 295.013 221.502C297.559 221.502 299.257 223.401 299.257 225.721Z" fill="white"/>
<path d="M323.233 225.721C323.233 228.042 321.324 229.941 318.99 229.941C316.656 229.941 314.746 228.042 314.746 225.721C314.746 223.401 316.656 221.502 318.99 221.502C321.324 221.502 323.233 223.401 323.233 225.721Z" fill="white"/>
<path d="M347.209 225.722C347.209 228.043 345.299 229.941 342.965 229.941C340.631 229.941 338.722 228.043 338.722 225.722C338.722 223.401 340.631 221.502 342.965 221.502C345.299 221.502 347.209 223.401 347.209 225.722Z" fill="white"/>
<path d="M0.508659 237.535C0.508659 239.856 -1.40095 241.754 -3.73493 241.754C-6.0689 241.754 -7.97852 239.856 -7.97852 237.535C-7.97852 235.215 -6.0689 233.316 -3.73493 233.316C-1.40095 233.527 0.508659 235.215 0.508659 237.535Z" fill="white"/>
<path d="M24.4842 237.535C24.4842 239.855 22.5746 241.754 20.2407 241.754C17.9067 241.754 15.9971 239.855 15.9971 237.535C15.9971 235.214 17.9067 233.315 20.2407 233.315C22.5746 233.526 24.4842 235.214 24.4842 237.535Z" fill="white"/>
<path d="M48.2489 237.535C48.2489 239.855 46.3393 241.754 44.0053 241.754C41.6713 241.754 39.7617 239.855 39.7617 237.535C39.7617 235.214 41.6713 233.315 44.0053 233.315C46.3393 233.526 48.2489 235.214 48.2489 237.535Z" fill="white"/>
<path d="M72.2245 237.534C72.2245 239.855 70.3149 241.753 67.9809 241.753C65.6469 241.753 63.7373 239.855 63.7373 237.534C63.7373 235.214 65.6469 233.315 67.9809 233.315C70.3149 233.526 72.2245 235.214 72.2245 237.534Z" fill="white"/>
<path d="M96.201 237.535C96.201 239.855 94.2914 241.754 91.9575 241.754C89.6235 241.754 87.7139 239.855 87.7139 237.535C87.7139 235.214 89.6235 233.315 91.9575 233.315C94.2914 233.526 96.201 235.214 96.201 237.535Z" fill="white"/>
<path d="M119.966 237.534C119.966 239.855 118.056 241.753 115.722 241.753C113.388 241.753 111.479 239.855 111.479 237.534C111.479 235.214 113.388 233.315 115.722 233.315C118.056 233.526 119.966 235.214 119.966 237.534Z" fill="white"/>
<path d="M143.941 237.534C143.941 239.855 142.032 241.753 139.698 241.753C137.364 241.753 135.454 239.855 135.454 237.534C135.454 235.214 137.364 233.315 139.698 233.315C142.032 233.526 143.941 235.214 143.941 237.534Z" fill="white"/>
<path d="M167.917 237.534C167.917 239.855 166.007 241.753 163.673 241.753C161.339 241.753 159.43 239.855 159.43 237.534C159.43 235.214 161.339 233.315 163.673 233.315C166.007 233.526 167.917 235.214 167.917 237.534Z" fill="white"/>
<path d="M191.682 237.535C191.682 239.855 189.772 241.754 187.438 241.754C185.104 241.754 183.194 239.855 183.194 237.535C183.194 235.214 185.104 233.315 187.438 233.315C189.772 233.526 191.682 235.214 191.682 237.535Z" fill="white"/>
<path d="M215.657 237.534C215.657 239.855 213.747 241.753 211.414 241.753C209.08 241.753 207.17 239.855 207.17 237.534C207.17 235.214 209.08 233.315 211.414 233.315C213.747 233.526 215.657 235.214 215.657 237.534Z" fill="white"/>
<path d="M239.633 237.534C239.633 239.855 237.723 241.753 235.389 241.753C233.055 241.753 231.146 239.855 231.146 237.534C231.146 235.214 233.055 233.315 235.389 233.315C237.723 233.526 239.633 235.214 239.633 237.534Z" fill="white"/>
<path d="M263.398 237.534C263.398 239.855 261.489 241.753 259.155 241.753C256.821 241.753 254.911 239.855 254.911 237.534C254.911 235.214 256.821 233.315 259.155 233.315C261.701 233.526 263.398 235.214 263.398 237.534Z" fill="white"/>
<path d="M287.374 237.534C287.374 239.855 285.464 241.753 283.13 241.753C280.796 241.753 278.887 239.855 278.887 237.534C278.887 235.214 280.796 233.315 283.13 233.315C285.464 233.526 287.374 235.214 287.374 237.534Z" fill="white"/>
<path d="M311.349 237.534C311.349 239.855 309.44 241.753 307.106 241.753C304.772 241.753 302.862 239.855 302.862 237.534C302.862 235.214 304.772 233.315 307.106 233.315C309.44 233.526 311.349 235.214 311.349 237.534Z" fill="white"/>
<path d="M335.114 237.534C335.114 239.855 333.205 241.753 330.871 241.753C328.537 241.753 326.627 239.855 326.627 237.534C326.627 235.214 328.537 233.315 330.871 233.315C333.417 233.526 335.114 235.214 335.114 237.534Z" fill="white"/>
<path d="M359.09 237.534C359.09 239.855 357.18 241.753 354.846 241.753C352.512 241.753 350.603 239.855 350.603 237.534C350.603 235.214 352.512 233.315 354.846 233.315C357.18 233.526 359.09 235.214 359.09 237.534Z" fill="white"/>
</g>
</svg>
