<svg width="100%" height="100%" viewBox="0 0 287 332" fill="none" xmlns="http://www.w3.org/2000/svg">
<g filter="url(#filter0_d)">
<path fill-rule="evenodd" clip-rule="evenodd" d="M280.146 10C280.146 4.47715 275.669 0 270.146 0H10.1465C4.62364 0 0.146484 4.47716 0.146484 10V316C0.146484 321.523 4.62363 326 10.1465 326H270.146C275.669 326 280.146 321.523 280.146 316V10ZM261.634 28.8079C261.634 23.285 257.157 18.8079 251.634 18.8079H28.6587C23.1358 18.8079 18.6587 23.285 18.6587 28.8079V205.505C18.6587 211.028 23.1358 215.505 28.6587 215.505H251.634C257.157 215.505 261.634 211.028 261.634 205.505V28.8079Z" fill="#FFD4E8"/>
</g>
<mask id="mask0" mask-type="alpha" maskUnits="userSpaceOnUse" x="0" y="0" width="281" height="326">
<path fill-rule="evenodd" clip-rule="evenodd" d="M280.146 0H0.146484V326H280.146V0ZM261.634 18.8079H18.6587V215.505H261.634V18.8079Z" fill="#FFD4E8"/>
</mask>
<g mask="url(#mask0)">
<path d="M0.540253 -0.00803065C0.540253 1.8105 -0.936797 3.29839 -2.74208 3.29839C-4.54736 3.29839 -6.02441 1.8105 -6.02441 -0.00803065C-6.02441 -1.82656 -4.54736 -3.31445 -2.74208 -3.31445C-0.936797 -3.31445 0.540253 -1.82656 0.540253 -0.00803065Z" fill="white"/>
<path d="M19.0862 -0.00803065C19.0862 1.8105 17.6091 3.29839 15.8038 3.29839C13.9985 3.29839 12.5215 1.8105 12.5215 -0.00803065C12.5215 -1.82656 13.9985 -3.31445 15.8038 -3.31445C17.6091 -3.31445 19.0862 -1.82656 19.0862 -0.00803065Z" fill="white"/>
<path d="M37.466 -0.00803065C37.466 1.8105 35.989 3.29839 34.1837 3.29839C32.3784 3.29839 30.9014 1.8105 30.9014 -0.00803065C30.9014 -1.82656 32.3784 -3.31445 34.1837 -3.31445C35.989 -3.31445 37.466 -1.82656 37.466 -0.00803065Z" fill="white"/>
<path d="M56.011 -0.00803065C56.011 1.8105 54.5339 3.29839 52.7286 3.29839C50.9233 3.29839 49.4463 1.8105 49.4463 -0.00803065C49.4463 -1.82656 50.9233 -3.31445 52.7286 -3.31445C54.5339 -3.31445 56.011 -1.82656 56.011 -0.00803065Z" fill="white"/>
<path d="M74.5549 -0.00803065C74.5549 1.8105 73.0779 3.29839 71.2726 3.29839C69.4673 3.29839 67.9902 1.8105 67.9902 -0.00803065C67.9902 -1.82656 69.4673 -3.31445 71.2726 -3.31445C73.0779 -3.31445 74.5549 -1.82656 74.5549 -0.00803065Z" fill="white"/>
<path d="M92.9377 -0.00803065C92.9377 1.8105 91.4607 3.29839 89.6554 3.29839C87.8501 3.29839 86.373 1.8105 86.373 -0.00803065C86.373 -1.82656 87.8501 -3.31445 89.6554 -3.31445C91.4607 -3.31445 92.9377 -1.82656 92.9377 -0.00803065Z" fill="white"/>
<path d="M111.484 -0.00822234C111.484 1.8102 110.007 3.29801 108.201 3.29801C106.396 3.29801 104.919 1.8102 104.919 -0.00822234C104.919 -1.82665 106.396 -3.31445 108.201 -3.31445C110.007 -3.31445 111.484 -1.82665 111.484 -0.00822234Z" fill="white"/>
<path d="M130.03 -0.00822234C130.03 1.8102 128.552 3.29801 126.747 3.29801C124.942 3.29801 123.465 1.8102 123.465 -0.00822234C123.465 -1.82665 124.942 -3.31445 126.747 -3.31445C128.552 -3.31445 130.03 -1.82665 130.03 -0.00822234Z" fill="white"/>
<path d="M148.407 -0.00803065C148.407 1.8105 146.93 3.29839 145.125 3.29839C143.32 3.29839 141.843 1.8105 141.843 -0.00803065C141.843 -1.82656 143.32 -3.31445 145.125 -3.31445C146.93 -3.31445 148.407 -1.82656 148.407 -0.00803065Z" fill="white"/>
<path d="M166.951 -0.00803065C166.951 1.8105 165.474 3.29839 163.669 3.29839C161.864 3.29839 160.387 1.8105 160.387 -0.00803065C160.387 -1.82656 161.864 -3.31445 163.669 -3.31445C165.474 -3.31445 166.951 -1.82656 166.951 -0.00803065Z" fill="white"/>
<path d="M185.496 -0.00822234C185.496 1.8102 184.019 3.29801 182.214 3.29801C180.409 3.29801 178.932 1.8102 178.932 -0.00822234C178.932 -1.82665 180.409 -3.31445 182.214 -3.31445C184.019 -3.31445 185.496 -1.82665 185.496 -0.00822234Z" fill="white"/>
<path d="M203.88 -0.00822234C203.88 1.8102 202.403 3.29801 200.598 3.29801C198.792 3.29801 197.315 1.8102 197.315 -0.00822234C197.315 -1.82665 198.792 -3.31445 200.598 -3.31445C202.567 -3.31445 203.88 -1.82665 203.88 -0.00822234Z" fill="white"/>
<path d="M222.424 -0.00803065C222.424 1.8105 220.947 3.29839 219.142 3.29839C217.336 3.29839 215.859 1.8105 215.859 -0.00803065C215.859 -1.82656 217.336 -3.31445 219.142 -3.31445C220.947 -3.31445 222.424 -1.82656 222.424 -0.00803065Z" fill="white"/>
<path d="M240.968 -0.00803065C240.968 1.8105 239.491 3.29839 237.686 3.29839C235.88 3.29839 234.403 1.8105 234.403 -0.00803065C234.403 -1.82656 235.88 -3.31445 237.686 -3.31445C239.491 -3.31445 240.968 -1.82656 240.968 -0.00803065Z" fill="white"/>
<path d="M259.351 -0.00803065C259.351 1.8105 257.874 3.29839 256.068 3.29839C254.263 3.29839 252.786 1.8105 252.786 -0.00803065C252.786 -1.82656 254.263 -3.31445 256.068 -3.31445C258.038 -3.31445 259.351 -1.82656 259.351 -0.00803065Z" fill="white"/>
<path d="M277.897 -0.00900722C277.897 1.80953 276.42 3.29742 274.614 3.29742C272.809 3.29742 271.332 1.80953 271.332 -0.00900722C271.332 -1.82754 272.809 -3.31543 274.614 -3.31543C276.42 -3.31543 277.897 -1.82754 277.897 -0.00900722Z" fill="white"/>
<path d="M9.73068 9.24997C9.73068 11.0686 8.25363 12.5566 6.44835 12.5566C4.64307 12.5566 3.16602 11.0686 3.16602 9.24997C3.16602 7.43134 4.64307 5.94336 6.44835 5.94336C8.25363 5.94336 9.73068 7.43134 9.73068 9.24997Z" fill="white"/>
<path d="M28.2746 9.24997C28.2746 11.0686 26.7976 12.5566 24.9923 12.5566C23.187 12.5566 21.71 11.0686 21.71 9.24997C21.71 7.43134 23.187 5.94336 24.9923 5.94336C26.7976 5.94336 28.2746 7.43134 28.2746 9.24997Z" fill="white"/>
<path d="M46.8187 9.24997C46.8187 11.0686 45.3416 12.5566 43.5363 12.5566C41.731 12.5566 40.2539 11.0686 40.2539 9.24997C40.2539 7.43134 41.731 5.94336 43.5363 5.94336C45.3416 5.94336 46.8187 7.43134 46.8187 9.24997Z" fill="white"/>
<path d="M65.2014 9.249C65.2014 11.0676 63.7243 12.5556 61.9191 12.5556C60.1138 12.5556 58.6367 11.0676 58.6367 9.249C58.6367 7.43036 60.1138 5.94238 61.9191 5.94238C63.7243 5.94238 65.2014 7.43036 65.2014 9.249Z" fill="white"/>
<path d="M83.7444 9.249C83.7444 11.0676 82.2673 12.5556 80.462 12.5556C78.6567 12.5556 77.1797 11.0676 77.1797 9.249C77.1797 7.43036 78.6567 5.94238 80.462 5.94238C82.2673 5.94238 83.7444 7.43036 83.7444 9.249Z" fill="white"/>
<path d="M102.29 9.24802C102.29 11.0667 100.813 12.5546 99.0079 12.5546C97.2026 12.5546 95.7256 11.0667 95.7256 9.24802C95.7256 7.42938 97.2026 5.94141 99.0079 5.94141C100.813 5.94141 102.29 7.42938 102.29 9.24802Z" fill="white"/>
<path d="M120.671 9.249C120.671 11.0676 119.194 12.5556 117.389 12.5556C115.583 12.5556 114.106 11.0676 114.106 9.249C114.106 7.43036 115.583 5.94238 117.389 5.94238C119.194 5.94238 120.671 7.43036 120.671 9.249Z" fill="white"/>
<path d="M139.217 9.24881C139.217 11.0673 137.74 12.5552 135.935 12.5552C134.129 12.5552 132.652 11.0673 132.652 9.24881C132.652 7.43027 134.129 5.94238 135.935 5.94238C137.74 5.94238 139.217 7.43027 139.217 9.24881Z" fill="white"/>
<path d="M157.764 9.24997C157.764 11.0686 156.287 12.5566 154.482 12.5566C152.676 12.5566 151.199 11.0686 151.199 9.24997C151.199 7.43134 152.676 5.94336 154.482 5.94336C156.287 5.94336 157.764 7.43134 157.764 9.24997Z" fill="white"/>
<path d="M176.147 9.24802C176.147 11.0667 174.67 12.5546 172.864 12.5546C171.059 12.5546 169.582 11.0667 169.582 9.24802C169.582 7.42938 171.059 5.94141 172.864 5.94141C174.67 5.94141 176.147 7.42938 176.147 9.24802Z" fill="white"/>
<path d="M194.689 9.24802C194.689 11.0667 193.212 12.5546 191.406 12.5546C189.601 12.5546 188.124 11.0667 188.124 9.24802C188.124 7.42938 189.601 5.94141 191.406 5.94141C193.212 5.94141 194.689 7.42938 194.689 9.24802Z" fill="white"/>
<path d="M213.236 9.24783C213.236 11.0664 211.759 12.5543 209.953 12.5543C208.148 12.5543 206.671 11.0664 206.671 9.24783C206.671 7.4293 208.148 5.94141 209.953 5.94141C211.759 5.94141 213.236 7.4293 213.236 9.24783Z" fill="white"/>
<path d="M231.615 9.24802C231.615 11.0667 230.138 12.5546 228.333 12.5546C226.528 12.5546 225.051 11.0667 225.051 9.24802C225.051 7.42938 226.528 5.94141 228.333 5.94141C230.303 5.94141 231.615 7.42938 231.615 9.24802Z" fill="white"/>
<path d="M250.161 9.24783C250.161 11.0664 248.684 12.5543 246.879 12.5543C245.074 12.5543 243.597 11.0664 243.597 9.24783C243.597 7.4293 245.074 5.94141 246.879 5.94141C248.684 5.94141 250.161 7.4293 250.161 9.24783Z" fill="white"/>
<path d="M268.707 9.24783C268.707 11.0664 267.23 12.5543 265.425 12.5543C263.62 12.5543 262.143 11.0664 262.143 9.24783C262.143 7.4293 263.62 5.94141 265.425 5.94141C267.23 5.94141 268.707 7.4293 268.707 9.24783Z" fill="white"/>
<path d="M0.540253 18.5088C0.540253 20.3274 -0.936797 21.8154 -2.74208 21.8154C-4.54736 21.8154 -6.02441 20.3274 -6.02441 18.5088C-6.02441 16.6901 -4.54736 15.2021 -2.74208 15.2021C-0.936797 15.3675 0.540253 16.6901 0.540253 18.5088Z" fill="white"/>
<path d="M19.0862 18.5078C19.0862 20.3264 17.6091 21.8144 15.8038 21.8144C13.9985 21.8144 12.5215 20.3264 12.5215 18.5078C12.5215 16.6891 13.9985 15.2012 15.8038 15.2012C17.6091 15.3665 19.0862 16.6891 19.0862 18.5078Z" fill="white"/>
<path d="M37.466 18.5078C37.466 20.3264 35.989 21.8144 34.1837 21.8144C32.3784 21.8144 30.9014 20.3264 30.9014 18.5078C30.9014 16.6891 32.3784 15.2012 34.1837 15.2012C35.989 15.3665 37.466 16.6891 37.466 18.5078Z" fill="white"/>
<path d="M56.011 18.5078C56.011 20.3264 54.5339 21.8144 52.7286 21.8144C50.9233 21.8144 49.4463 20.3264 49.4463 18.5078C49.4463 16.6891 50.9233 15.2012 52.7286 15.2012C54.5339 15.3665 56.011 16.6891 56.011 18.5078Z" fill="white"/>
<path d="M74.5549 18.5078C74.5549 20.3264 73.0779 21.8144 71.2726 21.8144C69.4673 21.8144 67.9902 20.3264 67.9902 18.5078C67.9902 16.6891 69.4673 15.2012 71.2726 15.2012C73.0779 15.3665 74.5549 16.6891 74.5549 18.5078Z" fill="white"/>
<path d="M92.9377 18.5076C92.9377 20.3261 91.4607 21.814 89.6554 21.814C87.8501 21.814 86.373 20.3261 86.373 18.5076C86.373 16.6891 87.8501 15.2012 89.6554 15.2012C91.4607 15.3665 92.9377 16.6891 92.9377 18.5076Z" fill="white"/>
<path d="M111.484 18.5078C111.484 20.3264 110.007 21.8144 108.201 21.8144C106.396 21.8144 104.919 20.3264 104.919 18.5078C104.919 16.6891 106.396 15.2012 108.201 15.2012C110.007 15.3665 111.484 16.6891 111.484 18.5078Z" fill="white"/>
<path d="M130.03 18.5078C130.03 20.3264 128.552 21.8144 126.747 21.8144C124.942 21.8144 123.465 20.3264 123.465 18.5078C123.465 16.6891 124.942 15.2012 126.747 15.2012C128.552 15.3665 130.03 16.6891 130.03 18.5078Z" fill="white"/>
<path d="M148.407 18.5078C148.407 20.3264 146.93 21.8144 145.125 21.8144C143.32 21.8144 141.843 20.3264 141.843 18.5078C141.843 16.6891 143.32 15.2012 145.125 15.2012C146.93 15.3665 148.407 16.6891 148.407 18.5078Z" fill="white"/>
<path d="M166.951 18.5068C166.951 20.3254 165.474 21.8134 163.669 21.8134C161.864 21.8134 160.387 20.3254 160.387 18.5068C160.387 16.6882 161.864 15.2002 163.669 15.2002C165.474 15.3655 166.951 16.6882 166.951 18.5068Z" fill="white"/>
<path d="M185.496 18.5078C185.496 20.3264 184.019 21.8144 182.214 21.8144C180.409 21.8144 178.932 20.3264 178.932 18.5078C178.932 16.6891 180.409 15.2012 182.214 15.2012C184.019 15.3665 185.496 16.6891 185.496 18.5078Z" fill="white"/>
<path d="M203.88 18.5068C203.88 20.3254 202.403 21.8134 200.598 21.8134C198.792 21.8134 197.315 20.3254 197.315 18.5068C197.315 16.6882 198.792 15.2002 200.598 15.2002C202.567 15.3655 203.88 16.6882 203.88 18.5068Z" fill="white"/>
<path d="M222.424 18.5078C222.424 20.3264 220.947 21.8144 219.142 21.8144C217.336 21.8144 215.859 20.3264 215.859 18.5078C215.859 16.6891 217.336 15.2012 219.142 15.2012C220.947 15.3665 222.424 16.6891 222.424 18.5078Z" fill="white"/>
<path d="M240.968 18.5068C240.968 20.3254 239.491 21.8134 237.686 21.8134C235.88 21.8134 234.403 20.3254 234.403 18.5068C234.403 16.6882 235.88 15.2002 237.686 15.2002C239.491 15.3655 240.968 16.6882 240.968 18.5068Z" fill="white"/>
<path d="M259.351 18.5078C259.351 20.3264 257.874 21.8144 256.069 21.8144C254.263 21.8144 252.786 20.3264 252.786 18.5078C252.786 16.6891 254.263 15.2012 256.069 15.2012C258.038 15.3665 259.351 16.6891 259.351 18.5078Z" fill="white"/>
<path d="M277.897 18.5068C277.897 20.3254 276.42 21.8134 274.614 21.8134C272.809 21.8134 271.332 20.3254 271.332 18.5068C271.332 16.6882 272.809 15.2002 274.614 15.2002C276.42 15.3655 277.897 16.6882 277.897 18.5068Z" fill="white"/>
<path d="M9.73068 27.9297C9.73068 29.7483 8.25363 31.2363 6.44835 31.2363C4.64307 31.2363 3.16602 29.7483 3.16602 27.9297C3.16602 26.111 4.64307 24.623 6.44835 24.623C8.25363 24.623 9.73068 26.111 9.73068 27.9297Z" fill="white"/>
<path d="M28.2746 27.9297C28.2746 29.7483 26.7976 31.2363 24.9923 31.2363C23.187 31.2363 21.71 29.7483 21.71 27.9297C21.71 26.111 23.187 24.623 24.9923 24.623C26.7976 24.623 28.2746 26.111 28.2746 27.9297Z" fill="white"/>
<path d="M46.8187 27.9297C46.8187 29.7483 45.3416 31.2363 43.5363 31.2363C41.731 31.2363 40.2539 29.7483 40.2539 27.9297C40.2539 26.111 41.731 24.623 43.5363 24.623C45.3416 24.623 46.8187 26.111 46.8187 27.9297Z" fill="white"/>
<path d="M65.2014 27.9295C65.2014 29.748 63.7243 31.2359 61.9191 31.2359C60.1138 31.2359 58.6367 29.748 58.6367 27.9295C58.6367 26.1109 60.1138 24.623 61.9191 24.623C63.7243 24.623 65.2014 26.1109 65.2014 27.9295Z" fill="white"/>
<path d="M83.7444 27.9297C83.7444 29.7483 82.2673 31.2363 80.462 31.2363C78.6567 31.2363 77.1797 29.7483 77.1797 27.9297C77.1797 26.111 78.6567 24.623 80.462 24.623C82.2673 24.623 83.7444 26.111 83.7444 27.9297Z" fill="white"/>
<path d="M102.29 27.9295C102.29 29.748 100.813 31.2359 99.0079 31.2359C97.2026 31.2359 95.7256 29.748 95.7256 27.9295C95.7256 26.1109 97.2026 24.623 99.0079 24.623C100.813 24.623 102.29 26.1109 102.29 27.9295Z" fill="white"/>
<path d="M120.671 27.9295C120.671 29.748 119.194 31.2359 117.389 31.2359C115.583 31.2359 114.106 29.748 114.106 27.9295C114.106 26.1109 115.583 24.623 117.389 24.623C119.194 24.623 120.671 26.1109 120.671 27.9295Z" fill="white"/>
<path d="M139.217 27.9295C139.217 29.748 137.74 31.2359 135.935 31.2359C134.129 31.2359 132.652 29.748 132.652 27.9295C132.652 26.1109 134.129 24.623 135.935 24.623C137.74 24.623 139.217 26.1109 139.217 27.9295Z" fill="white"/>
<path d="M157.764 27.9314C157.764 29.75 156.287 31.2378 154.482 31.2378C152.676 31.2378 151.199 29.75 151.199 27.9314C151.199 26.1129 152.676 24.625 154.482 24.625C156.287 24.625 157.764 26.1129 157.764 27.9314Z" fill="white"/>
<path d="M176.147 27.9295C176.147 29.748 174.67 31.2359 172.864 31.2359C171.059 31.2359 169.582 29.748 169.582 27.9295C169.582 26.1109 171.059 24.623 172.864 24.623C174.67 24.623 176.147 26.1109 176.147 27.9295Z" fill="white"/>
<path d="M194.689 27.9295C194.689 29.748 193.212 31.2359 191.406 31.2359C189.601 31.2359 188.124 29.748 188.124 27.9295C188.124 26.1109 189.601 24.623 191.406 24.623C193.212 24.623 194.689 26.1109 194.689 27.9295Z" fill="white"/>
<path d="M213.236 27.9295C213.236 29.748 211.759 31.2359 209.953 31.2359C208.148 31.2359 206.671 29.748 206.671 27.9295C206.671 26.1109 208.148 24.623 209.953 24.623C211.759 24.623 213.236 26.1109 213.236 27.9295Z" fill="white"/>
<path d="M231.615 27.9295C231.615 29.748 230.138 31.2359 228.333 31.2359C226.528 31.2359 225.051 29.748 225.051 27.9295C225.051 26.1109 226.528 24.623 228.333 24.623C230.303 24.623 231.615 26.1109 231.615 27.9295Z" fill="white"/>
<path d="M250.161 27.9295C250.161 29.748 248.684 31.2359 246.879 31.2359C245.074 31.2359 243.597 29.748 243.597 27.9295C243.597 26.1109 245.074 24.623 246.879 24.623C248.684 24.623 250.161 26.1109 250.161 27.9295Z" fill="white"/>
<path d="M268.707 27.9306C268.707 29.7493 267.23 31.2373 265.425 31.2373C263.62 31.2373 262.143 29.7493 262.143 27.9306C262.143 26.112 263.62 24.624 265.425 24.624C267.23 24.624 268.707 26.112 268.707 27.9306Z" fill="white"/>
<path d="M0.540253 37.1884C0.540253 39.0071 -0.936797 40.4951 -2.74208 40.4951C-4.54736 40.4951 -6.02441 39.0071 -6.02441 37.1884C-6.02441 35.3698 -4.54736 33.8818 -2.74208 33.8818C-0.936797 33.8818 0.540253 35.3698 0.540253 37.1884Z" fill="white"/>
<path d="M19.0862 37.1884C19.0862 39.0071 17.6091 40.4951 15.8038 40.4951C13.9985 40.4951 12.5215 39.0071 12.5215 37.1884C12.5215 35.3698 13.9985 33.8818 15.8038 33.8818C17.6091 33.8818 19.0862 35.3698 19.0862 37.1884Z" fill="white"/>
<path d="M37.466 37.1875C37.466 39.0061 35.989 40.4941 34.1837 40.4941C32.3784 40.4941 30.9014 39.0061 30.9014 37.1875C30.9014 35.3688 32.3784 33.8809 34.1837 33.8809C35.989 33.8809 37.466 35.3688 37.466 37.1875Z" fill="white"/>
<path d="M56.011 37.1884C56.011 39.0071 54.5339 40.4951 52.7286 40.4951C50.9233 40.4951 49.4463 39.0071 49.4463 37.1884C49.4463 35.3698 50.9233 33.8818 52.7286 33.8818C54.5339 33.8818 56.011 35.3698 56.011 37.1884Z" fill="white"/>
<path d="M74.5549 37.1875C74.5549 39.0061 73.0779 40.4941 71.2726 40.4941C69.4673 40.4941 67.9902 39.0061 67.9902 37.1875C67.9902 35.3688 69.4673 33.8809 71.2726 33.8809C73.0779 33.8809 74.5549 35.3688 74.5549 37.1875Z" fill="white"/>
<path d="M92.9377 37.1884C92.9377 39.0071 91.4607 40.4951 89.6554 40.4951C87.8501 40.4951 86.373 39.0071 86.373 37.1884C86.373 35.3698 87.8501 33.8818 89.6554 33.8818C91.4607 33.8818 92.9377 35.3698 92.9377 37.1884Z" fill="white"/>
<path d="M111.484 37.1894C111.484 39.0081 110.007 40.496 108.201 40.496C106.396 40.496 104.919 39.0081 104.919 37.1894C104.919 35.3708 106.396 33.8828 108.201 33.8828C110.007 33.8828 111.484 35.3708 111.484 37.1894Z" fill="white"/>
<path d="M130.03 37.1884C130.03 39.0071 128.552 40.4951 126.747 40.4951C124.942 40.4951 123.465 39.0071 123.465 37.1884C123.465 35.3698 124.942 33.8818 126.747 33.8818C128.552 33.8818 130.03 35.3698 130.03 37.1884Z" fill="white"/>
<path d="M148.407 37.1875C148.407 39.0061 146.93 40.4941 145.125 40.4941C143.32 40.4941 141.843 39.0061 141.843 37.1875C141.843 35.3688 143.32 33.8809 145.125 33.8809C146.93 33.8809 148.407 35.3688 148.407 37.1875Z" fill="white"/>
<path d="M166.951 37.1884C166.951 39.0071 165.474 40.4951 163.669 40.4951C161.864 40.4951 160.387 39.0071 160.387 37.1884C160.387 35.3698 161.864 33.8818 163.669 33.8818C165.474 33.8818 166.951 35.3698 166.951 37.1884Z" fill="white"/>
<path d="M185.496 37.1884C185.496 39.0071 184.019 40.4951 182.214 40.4951C180.409 40.4951 178.932 39.0071 178.932 37.1884C178.932 35.3698 180.409 33.8818 182.214 33.8818C184.019 33.8818 185.496 35.3698 185.496 37.1884Z" fill="white"/>
<path d="M203.88 37.1875C203.88 39.0061 202.403 40.4941 200.598 40.4941C198.792 40.4941 197.315 39.0061 197.315 37.1875C197.315 35.3688 198.792 33.8809 200.598 33.8809C202.567 33.8809 203.88 35.3688 203.88 37.1875Z" fill="white"/>
<path d="M222.424 37.1884C222.424 39.0071 220.947 40.4951 219.142 40.4951C217.336 40.4951 215.859 39.0071 215.859 37.1884C215.859 35.3698 217.336 33.8818 219.142 33.8818C220.947 33.8818 222.424 35.3698 222.424 37.1884Z" fill="white"/>
<path d="M240.968 37.1875C240.968 39.0061 239.491 40.4941 237.686 40.4941C235.88 40.4941 234.403 39.0061 234.403 37.1875C234.403 35.3688 235.88 33.8809 237.686 33.8809C239.491 33.8809 240.968 35.3688 240.968 37.1875Z" fill="white"/>
<path d="M259.351 37.1894C259.351 39.0081 257.874 40.496 256.068 40.496C254.263 40.496 252.786 39.0081 252.786 37.1894C252.786 35.3708 254.263 33.8828 256.068 33.8828C258.038 33.8828 259.351 35.3708 259.351 37.1894Z" fill="white"/>
<path d="M277.897 37.1884C277.897 39.0071 276.42 40.4951 274.614 40.4951C272.809 40.4951 271.332 39.0071 271.332 37.1884C271.332 35.3698 272.809 33.8818 274.614 33.8818C276.42 33.8818 277.897 35.3698 277.897 37.1884Z" fill="white"/>
<path d="M9.73068 46.4472C9.73068 48.2659 8.25363 49.7539 6.44835 49.7539C4.64307 49.7539 3.16602 48.2659 3.16602 46.4472C3.16602 44.6286 4.64307 43.1406 6.44835 43.1406C8.25363 43.306 9.73068 44.6286 9.73068 46.4472Z" fill="white"/>
<path d="M28.2746 46.4472C28.2746 48.2659 26.7976 49.7539 24.9923 49.7539C23.187 49.7539 21.71 48.2659 21.71 46.4472C21.71 44.6286 23.187 43.1406 24.9923 43.1406C26.7976 43.306 28.2746 44.6286 28.2746 46.4472Z" fill="white"/>
<path d="M46.8196 46.4472C46.8196 48.2659 45.3426 49.7539 43.5373 49.7539C41.732 49.7539 40.2549 48.2659 40.2549 46.4472C40.2549 44.6286 41.732 43.1406 43.5373 43.1406C45.3426 43.306 46.8196 44.6286 46.8196 46.4472Z" fill="white"/>
<path d="M65.2014 46.4472C65.2014 48.2659 63.7243 49.7539 61.9191 49.7539C60.1138 49.7539 58.6367 48.2659 58.6367 46.4472C58.6367 44.6286 60.1138 43.1406 61.9191 43.1406C63.7243 43.1406 65.2014 44.6286 65.2014 46.4472Z" fill="white"/>
<path d="M83.7444 46.4472C83.7444 48.2659 82.2673 49.7539 80.462 49.7539C78.6567 49.7539 77.1797 48.2659 77.1797 46.4472C77.1797 44.6286 78.6567 43.1406 80.462 43.1406C82.2673 43.306 83.7444 44.6286 83.7444 46.4472Z" fill="white"/>
<path d="M102.29 46.4472C102.29 48.2659 100.813 49.7539 99.0079 49.7539C97.2026 49.7539 95.7256 48.2659 95.7256 46.4472C95.7256 44.6286 97.2026 43.1406 99.0079 43.1406C100.813 43.306 102.29 44.6286 102.29 46.4472Z" fill="white"/>
<path d="M120.672 46.4472C120.672 48.2659 119.195 49.7539 117.39 49.7539C115.584 49.7539 114.107 48.2659 114.107 46.4472C114.107 44.6286 115.584 43.1406 117.39 43.1406C119.195 43.306 120.672 44.6286 120.672 46.4472Z" fill="white"/>
<path d="M139.217 46.4472C139.217 48.2659 137.74 49.7539 135.935 49.7539C134.129 49.7539 132.652 48.2659 132.652 46.4472C132.652 44.6286 134.129 43.1406 135.935 43.1406C137.74 43.306 139.217 44.6286 139.217 46.4472Z" fill="white"/>
<path d="M157.764 46.4472C157.764 48.2659 156.287 49.7539 154.482 49.7539C152.676 49.7539 151.199 48.2659 151.199 46.4472C151.199 44.6286 152.676 43.1406 154.482 43.1406C156.287 43.306 157.764 44.6286 157.764 46.4472Z" fill="white"/>
<path d="M176.147 46.447C176.147 48.2656 174.67 49.7535 172.864 49.7535C171.059 49.7535 169.582 48.2656 169.582 46.447C169.582 44.6285 171.059 43.1406 172.864 43.1406C174.67 43.1406 176.147 44.6285 176.147 46.447Z" fill="white"/>
<path d="M194.69 46.4472C194.69 48.2659 193.213 49.7539 191.407 49.7539C189.602 49.7539 188.125 48.2659 188.125 46.4472C188.125 44.6286 189.602 43.1406 191.407 43.1406C193.213 43.306 194.69 44.6286 194.69 46.4472Z" fill="white"/>
<path d="M213.236 46.4472C213.236 48.2659 211.759 49.7539 209.953 49.7539C208.148 49.7539 206.671 48.2659 206.671 46.4472C206.671 44.6286 208.148 43.1406 209.953 43.1406C211.759 43.306 213.236 44.6286 213.236 46.4472Z" fill="white"/>
<path d="M231.615 46.4472C231.615 48.2659 230.138 49.7539 228.333 49.7539C226.528 49.7539 225.051 48.2659 225.051 46.4472C225.051 44.6286 226.528 43.1406 228.333 43.1406C230.303 43.306 231.615 44.6286 231.615 46.4472Z" fill="white"/>
<path d="M250.161 46.4472C250.161 48.2659 248.684 49.7539 246.879 49.7539C245.074 49.7539 243.597 48.2659 243.597 46.4472C243.597 44.6286 245.074 43.1406 246.879 43.1406C248.684 43.306 250.161 44.6286 250.161 46.4472Z" fill="white"/>
<path d="M268.706 46.4472C268.706 48.2659 267.229 49.7539 265.424 49.7539C263.619 49.7539 262.142 48.2659 262.142 46.4472C262.142 44.6286 263.619 43.1406 265.424 43.1406C267.229 43.306 268.706 44.6286 268.706 46.4472Z" fill="white"/>
<path d="M0.540253 55.8709C0.540253 57.6894 -0.936797 59.1773 -2.74208 59.1773C-4.54736 59.1773 -6.02441 57.6894 -6.02441 55.8709C-6.02441 54.0523 -4.54736 52.5645 -2.74208 52.5645C-0.936797 52.5645 0.540253 54.0523 0.540253 55.8709Z" fill="white"/>
<path d="M19.0862 55.8709C19.0862 57.6894 17.6091 59.1773 15.8038 59.1773C13.9985 59.1773 12.5215 57.6894 12.5215 55.8709C12.5215 54.0523 13.9985 52.5645 15.8038 52.5645C17.6091 52.5645 19.0862 54.0523 19.0862 55.8709Z" fill="white"/>
<path d="M37.4681 55.8699C37.4681 57.6884 35.991 59.1763 34.1857 59.1763C32.3804 59.1763 30.9033 57.6884 30.9033 55.8699C30.9033 54.0514 32.3804 52.5635 34.1857 52.5635C35.991 52.5635 37.4681 54.0514 37.4681 55.8699Z" fill="white"/>
<path d="M52.7296 59.1763C54.5424 59.1763 56.0119 57.696 56.0119 55.8699C56.0119 54.0438 54.5424 52.5635 52.7296 52.5635C50.9168 52.5635 49.4473 54.0438 49.4473 55.8699C49.4473 57.696 50.9168 59.1763 52.7296 59.1763Z" fill="white"/>
<path d="M74.5569 55.8709C74.5569 57.6894 73.0798 59.1773 71.2745 59.1773C69.4692 59.1773 67.9922 57.6894 67.9922 55.8709C67.9922 54.0523 69.4692 52.5645 71.2745 52.5645C73.0798 52.5645 74.5569 54.0523 74.5569 55.8709Z" fill="white"/>
<path d="M92.9397 55.8699C92.9397 57.6884 91.4626 59.1763 89.6573 59.1763C87.852 59.1763 86.375 57.6884 86.375 55.8699C86.375 54.0514 87.852 52.5635 89.6573 52.5635C91.4626 52.5635 92.9397 54.0514 92.9397 55.8699Z" fill="white"/>
<path d="M111.484 55.8701C111.484 57.6887 110.007 59.1767 108.201 59.1767C106.396 59.1767 104.919 57.6887 104.919 55.8701C104.919 54.0515 106.396 52.5635 108.201 52.5635C110.007 52.5635 111.484 54.0515 111.484 55.8701Z" fill="white"/>
<path d="M130.03 55.8701C130.03 57.6887 128.552 59.1767 126.747 59.1767C124.942 59.1767 123.465 57.6887 123.465 55.8701C123.465 54.0515 124.942 52.5635 126.747 52.5635C128.552 52.5635 130.03 54.0515 130.03 55.8701Z" fill="white"/>
<path d="M148.409 55.8709C148.409 57.6894 146.932 59.1773 145.127 59.1773C143.322 59.1773 141.845 57.6894 141.845 55.8709C141.845 54.0523 143.322 52.5645 145.127 52.5645C146.932 52.5645 148.409 54.0523 148.409 55.8709Z" fill="white"/>
<path d="M163.671 59.1773C165.484 59.1773 166.953 57.697 166.953 55.8709C166.953 54.0448 165.484 52.5645 163.671 52.5645C161.858 52.5645 160.389 54.0448 160.389 55.8709C160.389 57.697 161.858 59.1773 163.671 59.1773Z" fill="white"/>
<path d="M185.498 55.8701C185.498 57.6887 184.021 59.1767 182.216 59.1767C180.411 59.1767 178.934 57.6887 178.934 55.8701C178.934 54.0515 180.411 52.5635 182.216 52.5635C184.021 52.5635 185.498 54.0515 185.498 55.8701Z" fill="white"/>
<path d="M203.882 55.8701C203.882 57.6887 202.405 59.1767 200.6 59.1767C198.794 59.1767 197.317 57.6887 197.317 55.8701C197.317 54.0515 198.794 52.5635 200.6 52.5635C202.569 52.5635 203.882 54.0515 203.882 55.8701Z" fill="white"/>
<path d="M222.426 55.8709C222.426 57.6894 220.949 59.1773 219.144 59.1773C217.338 59.1773 215.861 57.6894 215.861 55.8709C215.861 54.0523 217.338 52.5645 219.144 52.5645C220.949 52.5645 222.426 54.0523 222.426 55.8709Z" fill="white"/>
<path d="M240.97 55.8701C240.97 57.6887 239.493 59.1767 237.688 59.1767C235.882 59.1767 234.405 57.6887 234.405 55.8701C234.405 54.0515 235.882 52.5635 237.688 52.5635C239.493 52.5635 240.97 54.0515 240.97 55.8701Z" fill="white"/>
<path d="M259.351 55.8689C259.351 57.6875 257.874 59.1753 256.068 59.1753C254.263 59.1753 252.786 57.6875 252.786 55.8689C252.786 54.0504 254.263 52.5625 256.068 52.5625C258.038 52.5625 259.351 54.0504 259.351 55.8689Z" fill="white"/>
<path d="M274.614 59.1753C276.427 59.1753 277.897 57.695 277.897 55.8689C277.897 54.0428 276.427 52.5625 274.614 52.5625C272.802 52.5625 271.332 54.0428 271.332 55.8689C271.332 57.695 272.802 59.1753 274.614 59.1753Z" fill="white"/>
<path d="M9.73068 65.1287C9.73068 66.9472 8.25363 68.4351 6.44835 68.4351C4.64307 68.4351 3.16602 66.9472 3.16602 65.1287C3.16602 63.3102 4.64307 61.8223 6.44835 61.8223C8.25363 61.8223 9.73068 63.3102 9.73068 65.1287Z" fill="white"/>
<path d="M28.2746 65.1289C28.2746 66.9475 26.7976 68.4355 24.9923 68.4355C23.187 68.4355 21.71 66.9475 21.71 65.1289C21.71 63.3102 23.187 61.8223 24.9923 61.8223C26.7976 61.8223 28.2746 63.3102 28.2746 65.1289Z" fill="white"/>
<path d="M43.5373 68.4355C45.3501 68.4355 46.8196 66.9551 46.8196 65.1289C46.8196 63.3027 45.3501 61.8223 43.5373 61.8223C41.7245 61.8223 40.2549 63.3027 40.2549 65.1289C40.2549 66.9551 41.7245 68.4355 43.5373 68.4355Z" fill="white"/>
<path d="M62.0821 68.4341C63.8949 68.4341 65.3645 66.9538 65.3645 65.1277C65.3645 63.3016 63.8949 61.8213 62.0821 61.8213C60.2694 61.8213 58.7998 63.3016 58.7998 65.1277C58.7998 66.9538 60.2694 68.4341 62.0821 68.4341Z" fill="white"/>
<path d="M83.7434 65.1287C83.7434 66.9472 82.2663 68.4351 80.461 68.4351C78.6558 68.4351 77.1787 66.9472 77.1787 65.1287C77.1787 63.3102 78.6558 61.8223 80.461 61.8223C82.2663 61.8223 83.7434 63.3102 83.7434 65.1287Z" fill="white"/>
<path d="M99.0079 68.4332C100.821 68.4332 102.29 66.9528 102.29 65.1267C102.29 63.3006 100.821 61.8203 99.0079 61.8203C97.1951 61.8203 95.7256 63.3006 95.7256 65.1267C95.7256 66.9528 97.1951 68.4332 99.0079 68.4332Z" fill="white"/>
<path d="M120.671 65.1289C120.671 66.9475 119.194 68.4355 117.389 68.4355C115.583 68.4355 114.106 66.9475 114.106 65.1289C114.106 63.3102 115.583 61.8223 117.389 61.8223C119.194 61.8223 120.671 63.3102 120.671 65.1289Z" fill="white"/>
<path d="M139.216 65.1269C139.216 66.9456 137.739 68.4335 135.934 68.4335C134.128 68.4335 132.651 66.9456 132.651 65.1269C132.651 63.3083 134.128 61.8203 135.934 61.8203C137.739 61.8203 139.216 63.3083 139.216 65.1269Z" fill="white"/>
<path d="M157.764 65.1289C157.764 66.9475 156.287 68.4355 154.482 68.4355C152.676 68.4355 151.199 66.9475 151.199 65.1289C151.199 63.3102 152.676 61.8223 154.482 61.8223C156.287 61.8223 157.764 63.3102 157.764 65.1289Z" fill="white"/>
<path d="M173.027 68.4332C174.839 68.4332 176.309 66.9528 176.309 65.1267C176.309 63.3006 174.839 61.8203 173.027 61.8203C171.214 61.8203 169.744 63.3006 169.744 65.1267C169.744 66.9528 171.214 68.4332 173.027 68.4332Z" fill="white"/>
<path d="M194.69 65.1279C194.69 66.9465 193.213 68.4345 191.407 68.4345C189.602 68.4345 188.125 66.9465 188.125 65.1279C188.125 63.3093 189.602 61.8213 191.407 61.8213C193.213 61.8213 194.69 63.3093 194.69 65.1279Z" fill="white"/>
<path d="M209.952 68.4335C211.765 68.4335 213.235 66.9531 213.235 65.1269C213.235 63.3007 211.765 61.8203 209.952 61.8203C208.139 61.8203 206.67 63.3007 206.67 65.1269C206.67 66.9531 208.139 68.4335 209.952 68.4335Z" fill="white"/>
<path d="M231.614 65.1269C231.614 66.9456 230.137 68.4335 228.332 68.4335C226.527 68.4335 225.05 66.9456 225.05 65.1269C225.05 63.3083 226.527 61.8203 228.332 61.8203C230.302 61.8203 231.614 63.3083 231.614 65.1269Z" fill="white"/>
<path d="M250.161 65.1279C250.161 66.9465 248.684 68.4345 246.879 68.4345C245.074 68.4345 243.597 66.9465 243.597 65.1279C243.597 63.3093 245.074 61.8213 246.879 61.8213C248.684 61.8213 250.161 63.3093 250.161 65.1279Z" fill="white"/>
<path d="M268.705 65.1269C268.705 66.9456 267.228 68.4335 265.423 68.4335C263.618 68.4335 262.141 66.9456 262.141 65.1269C262.141 63.3083 263.618 61.8203 265.423 61.8203C267.228 61.8203 268.705 63.3083 268.705 65.1269Z" fill="white"/>
<path d="M0.540253 74.3867C0.540253 76.2053 -0.936797 77.6933 -2.74208 77.6933C-4.54736 77.6933 -6.02441 76.2053 -6.02441 74.3867C-6.02441 72.5681 -4.54736 71.0801 -2.74208 71.0801C-0.936797 71.2454 0.540253 72.5681 0.540253 74.3867Z" fill="white"/>
<path d="M19.0862 74.3867C19.0862 76.2053 17.6091 77.6933 15.8038 77.6933C13.9985 77.6933 12.5215 76.2053 12.5215 74.3867C12.5215 72.5681 13.9985 71.0801 15.8038 71.0801C17.6091 71.2454 19.0862 72.5681 19.0862 74.3867Z" fill="white"/>
<path d="M37.467 74.3877C37.467 76.2063 35.99 77.6943 34.1847 77.6943C32.3794 77.6943 30.9023 76.2063 30.9023 74.3877C30.9023 72.569 32.3794 71.0811 34.1847 71.0811C35.99 71.2464 37.467 72.569 37.467 74.3877Z" fill="white"/>
<path d="M56.011 74.3867C56.011 76.2053 54.5339 77.6933 52.7286 77.6933C50.9233 77.6933 49.4463 76.2053 49.4463 74.3867C49.4463 72.5681 50.9233 71.0801 52.7286 71.0801C54.5339 71.2454 56.011 72.5681 56.011 74.3867Z" fill="white"/>
<path d="M74.5569 74.3867C74.5569 76.2053 73.0798 77.6933 71.2745 77.6933C69.4692 77.6933 67.9922 76.2053 67.9922 74.3867C67.9922 72.5681 69.4692 71.0801 71.2745 71.0801C73.0798 71.2454 74.5569 72.5681 74.5569 74.3867Z" fill="white"/>
<path d="M92.9397 74.3865C92.9397 76.205 91.4626 77.6929 89.6573 77.6929C87.852 77.6929 86.375 76.205 86.375 74.3865C86.375 72.568 87.852 71.0801 89.6573 71.0801C91.4626 71.2454 92.9397 72.568 92.9397 74.3865Z" fill="white"/>
<path d="M111.484 74.3877C111.484 76.2063 110.007 77.6943 108.201 77.6943C106.396 77.6943 104.919 76.2063 104.919 74.3877C104.919 72.569 106.396 71.0811 108.201 71.0811C110.007 71.2464 111.484 72.569 111.484 74.3877Z" fill="white"/>
<path d="M130.03 74.3867C130.03 76.2053 128.552 77.6933 126.747 77.6933C124.942 77.6933 123.465 76.2053 123.465 74.3867C123.465 72.5681 124.942 71.0801 126.747 71.0801C128.552 71.2454 130.03 72.5681 130.03 74.3867Z" fill="white"/>
<path d="M148.409 74.3867C148.409 76.2053 146.932 77.6933 145.127 77.6933C143.322 77.6933 141.845 76.2053 141.845 74.3867C141.845 72.5681 143.322 71.0801 145.127 71.0801C146.932 71.2454 148.409 72.5681 148.409 74.3867Z" fill="white"/>
<path d="M166.953 74.3867C166.953 76.2053 165.476 77.6933 163.671 77.6933C161.866 77.6933 160.389 76.2053 160.389 74.3867C160.389 72.5681 161.866 71.0801 163.671 71.0801C165.476 71.2454 166.953 72.5681 166.953 74.3867Z" fill="white"/>
<path d="M185.498 74.3877C185.498 76.2063 184.021 77.6943 182.216 77.6943C180.411 77.6943 178.934 76.2063 178.934 74.3877C178.934 72.569 180.411 71.0811 182.216 71.0811C184.021 71.2464 185.498 72.569 185.498 74.3877Z" fill="white"/>
<path d="M203.882 74.3857C203.882 76.2044 202.405 77.6923 200.6 77.6923C198.794 77.6923 197.317 76.2044 197.317 74.3857C197.317 72.5671 198.794 71.0791 200.6 71.0791C202.569 71.2444 203.882 72.5671 203.882 74.3857Z" fill="white"/>
<path d="M222.426 74.3867C222.426 76.2053 220.949 77.6933 219.144 77.6933C217.338 77.6933 215.861 76.2053 215.861 74.3867C215.861 72.5681 217.338 71.0801 219.144 71.0801C220.949 71.2454 222.426 72.5681 222.426 74.3867Z" fill="white"/>
<path d="M240.97 74.3857C240.97 76.2044 239.493 77.6923 237.688 77.6923C235.882 77.6923 234.405 76.2044 234.405 74.3857C234.405 72.5671 235.882 71.0791 237.688 71.0791C239.493 71.2444 240.97 72.5671 240.97 74.3857Z" fill="white"/>
<path d="M259.351 74.3875C259.351 76.206 257.874 77.6939 256.068 77.6939C254.263 77.6939 252.786 76.206 252.786 74.3875C252.786 72.5689 254.263 71.0811 256.068 71.0811C258.038 71.2464 259.351 72.5689 259.351 74.3875Z" fill="white"/>
<path d="M277.897 74.3857C277.897 76.2044 276.42 77.6923 274.614 77.6923C272.809 77.6923 271.332 76.2044 271.332 74.3857C271.332 72.5671 272.809 71.0791 274.614 71.0791C276.42 71.2444 277.897 72.5671 277.897 74.3857Z" fill="white"/>
<path d="M9.73068 83.8103C9.73068 85.6289 8.25363 87.1168 6.44835 87.1168C4.64307 87.1168 3.16602 85.6289 3.16602 83.8103C3.16602 81.9918 4.64307 80.5039 6.44835 80.5039C8.25363 80.5039 9.73068 81.9918 9.73068 83.8103Z" fill="white"/>
<path d="M28.2746 83.8105C28.2746 85.6292 26.7976 87.1171 24.9923 87.1171C23.187 87.1171 21.71 85.6292 21.71 83.8105C21.71 81.9919 23.187 80.5039 24.9923 80.5039C26.7976 80.5039 28.2746 81.9919 28.2746 83.8105Z" fill="white"/>
<path d="M46.8196 83.8105C46.8196 85.6292 45.3426 87.1171 43.5373 87.1171C41.732 87.1171 40.2549 85.6292 40.2549 83.8105C40.2549 81.9919 41.732 80.5039 43.5373 80.5039C45.3426 80.5039 46.8196 81.9919 46.8196 83.8105Z" fill="white"/>
<path d="M65.2014 83.8105C65.2014 85.6292 63.7243 87.1171 61.9191 87.1171C60.1138 87.1171 58.6367 85.6292 58.6367 83.8105C58.6367 81.9919 60.1138 80.5039 61.9191 80.5039C63.7243 80.5039 65.2014 81.9919 65.2014 83.8105Z" fill="white"/>
<path d="M83.7444 83.8113C83.7444 85.6298 82.2673 87.1177 80.462 87.1177C78.6567 87.1177 77.1797 85.6298 77.1797 83.8113C77.1797 81.9928 78.6567 80.5049 80.462 80.5049C82.2673 80.5049 83.7444 81.9928 83.7444 83.8113Z" fill="white"/>
<path d="M102.29 83.8105C102.29 85.6292 100.813 87.1171 99.0079 87.1171C97.2026 87.1171 95.7256 85.6292 95.7256 83.8105C95.7256 81.9919 97.2026 80.5039 99.0079 80.5039C100.813 80.5039 102.29 81.9919 102.29 83.8105Z" fill="white"/>
<path d="M120.671 83.8105C120.671 85.6292 119.194 87.1171 117.389 87.1171C115.583 87.1171 114.106 85.6292 114.106 83.8105C114.106 81.9919 115.583 80.5039 117.389 80.5039C119.194 80.5039 120.671 81.9919 120.671 83.8105Z" fill="white"/>
<path d="M139.216 83.8095C139.216 85.6282 137.739 87.1162 135.934 87.1162C134.128 87.1162 132.651 85.6282 132.651 83.8095C132.651 81.9909 134.128 80.5029 135.934 80.5029C137.739 80.5029 139.216 81.9909 139.216 83.8095Z" fill="white"/>
<path d="M157.764 83.8123C157.764 85.6308 156.287 87.1187 154.482 87.1187C152.676 87.1187 151.199 85.6308 151.199 83.8123C151.199 81.9937 152.676 80.5059 154.482 80.5059C156.287 80.5059 157.764 81.9937 157.764 83.8123Z" fill="white"/>
<path d="M176.147 83.8105C176.147 85.6292 174.67 87.1171 172.864 87.1171C171.059 87.1171 169.582 85.6292 169.582 83.8105C169.582 81.9919 171.059 80.5039 172.864 80.5039C174.67 80.5039 176.147 81.9919 176.147 83.8105Z" fill="white"/>
<path d="M194.69 83.8105C194.69 85.6292 193.213 87.1171 191.407 87.1171C189.602 87.1171 188.125 85.6292 188.125 83.8105C188.125 81.9919 189.602 80.5039 191.407 80.5039C193.213 80.5039 194.69 81.9919 194.69 83.8105Z" fill="white"/>
<path d="M213.236 83.8095C213.236 85.6282 211.759 87.1162 209.953 87.1162C208.148 87.1162 206.671 85.6282 206.671 83.8095C206.671 81.9909 208.148 80.5029 209.953 80.5029C211.759 80.5029 213.236 81.9909 213.236 83.8095Z" fill="white"/>
<path d="M231.615 83.8105C231.615 85.6292 230.138 87.1171 228.333 87.1171C226.528 87.1171 225.051 85.6292 225.051 83.8105C225.051 81.9919 226.528 80.5039 228.333 80.5039C230.303 80.5039 231.615 81.9919 231.615 83.8105Z" fill="white"/>
<path d="M250.161 83.8105C250.161 85.6292 248.684 87.1171 246.879 87.1171C245.074 87.1171 243.597 85.6292 243.597 83.8105C243.597 81.9919 245.074 80.5039 246.879 80.5039C248.684 80.5039 250.161 81.9919 250.161 83.8105Z" fill="white"/>
<path d="M268.706 83.8105C268.706 85.6292 267.229 87.1171 265.424 87.1171C263.619 87.1171 262.142 85.6292 262.142 83.8105C262.142 81.9919 263.619 80.5039 265.424 80.5039C267.229 80.5039 268.706 81.9919 268.706 83.8105Z" fill="white"/>
<path d="M0.540253 93.0681C0.540253 94.8867 -0.936797 96.3746 -2.74208 96.3746C-4.54736 96.3746 -6.02441 94.8867 -6.02441 93.0681C-6.02441 91.2496 -4.54736 89.7617 -2.74208 89.7617C-0.936797 89.7617 0.540253 91.2496 0.540253 93.0681Z" fill="white"/>
<path d="M19.0862 93.0681C19.0862 94.8867 17.6091 96.3746 15.8038 96.3746C13.9985 96.3746 12.5215 94.8867 12.5215 93.0681C12.5215 91.2496 13.9985 89.7617 15.8038 89.7617C17.6091 89.7617 19.0862 91.2496 19.0862 93.0681Z" fill="white"/>
<path d="M37.467 93.0691C37.467 94.8877 35.99 96.3755 34.1847 96.3755C32.3794 96.3755 30.9023 94.8877 30.9023 93.0691C30.9023 91.2506 32.3794 89.7627 34.1847 89.7627C35.99 89.7627 37.467 91.2506 37.467 93.0691Z" fill="white"/>
<path d="M56.011 93.0681C56.011 94.8867 54.5339 96.3746 52.7286 96.3746C50.9233 96.3746 49.4463 94.8867 49.4463 93.0681C49.4463 91.2496 50.9233 89.7617 52.7286 89.7617C54.5339 89.7617 56.011 91.2496 56.011 93.0681Z" fill="white"/>
<path d="M74.5569 93.0691C74.5569 94.8877 73.0798 96.3755 71.2745 96.3755C69.4692 96.3755 67.9922 94.8877 67.9922 93.0691C67.9922 91.2506 69.4692 89.7627 71.2745 89.7627C73.0798 89.7627 74.5569 91.2506 74.5569 93.0691Z" fill="white"/>
<path d="M92.9397 93.0681C92.9397 94.8867 91.4626 96.3746 89.6573 96.3746C87.852 96.3746 86.375 94.8867 86.375 93.0681C86.375 91.2496 87.852 89.7617 89.6573 89.7617C91.4626 89.7617 92.9397 91.2496 92.9397 93.0681Z" fill="white"/>
<path d="M111.484 93.0691C111.484 94.8877 110.007 96.3755 108.201 96.3755C106.396 96.3755 104.919 94.8877 104.919 93.0691C104.919 91.2506 106.396 89.7627 108.201 89.7627C110.007 89.7627 111.484 91.2506 111.484 93.0691Z" fill="white"/>
<path d="M130.03 93.0679C130.03 94.8864 128.552 96.3742 126.747 96.3742C124.942 96.3742 123.465 94.8864 123.465 93.0679C123.465 91.2495 124.942 89.7617 126.747 89.7617C128.552 89.7617 130.03 91.2495 130.03 93.0679Z" fill="white"/>
<path d="M148.409 93.0683C148.409 94.887 146.932 96.3749 145.127 96.3749C143.322 96.3749 141.845 94.887 141.845 93.0683C141.845 91.2497 143.322 89.7617 145.127 89.7617C146.932 89.7617 148.409 91.2497 148.409 93.0683Z" fill="white"/>
<path d="M166.953 93.0683C166.953 94.887 165.476 96.3749 163.671 96.3749C161.866 96.3749 160.389 94.887 160.389 93.0683C160.389 91.2497 161.866 89.7617 163.671 89.7617C165.476 89.7617 166.953 91.2497 166.953 93.0683Z" fill="white"/>
<path d="M185.498 93.0689C185.498 94.8874 184.021 96.3752 182.216 96.3752C180.411 96.3752 178.934 94.8874 178.934 93.0689C178.934 91.2505 180.411 89.7627 182.216 89.7627C184.021 89.7627 185.498 91.2505 185.498 93.0689Z" fill="white"/>
<path d="M203.882 93.0681C203.882 94.8867 202.405 96.3746 200.6 96.3746C198.794 96.3746 197.317 94.8867 197.317 93.0681C197.317 91.2496 198.794 89.7617 200.6 89.7617C202.569 89.7617 203.882 91.2496 203.882 93.0681Z" fill="white"/>
<path d="M222.426 93.0689C222.426 94.8874 220.949 96.3752 219.144 96.3752C217.338 96.3752 215.861 94.8874 215.861 93.0689C215.861 91.2505 217.338 89.7627 219.144 89.7627C220.949 89.7627 222.426 91.2505 222.426 93.0689Z" fill="white"/>
<path d="M240.97 93.0681C240.97 94.8867 239.493 96.3746 237.688 96.3746C235.882 96.3746 234.405 94.8867 234.405 93.0681C234.405 91.2496 235.882 89.7617 237.688 89.7617C239.493 89.7617 240.97 91.2496 240.97 93.0681Z" fill="white"/>
<path d="M259.351 93.0691C259.351 94.8877 257.874 96.3755 256.069 96.3755C254.263 96.3755 252.786 94.8877 252.786 93.0691C252.786 91.2506 254.263 89.7627 256.069 89.7627C258.038 89.7627 259.351 91.2506 259.351 93.0691Z" fill="white"/>
<path d="M277.897 93.0679C277.897 94.8864 276.42 96.3742 274.614 96.3742C272.809 96.3742 271.332 94.8864 271.332 93.0679C271.332 91.2495 272.809 89.7617 274.614 89.7617C276.42 89.7617 277.897 91.2495 277.897 93.0679Z" fill="white"/>
<path d="M9.73068 102.329C9.73068 104.147 8.25363 105.635 6.44835 105.635C4.64307 105.635 3.16602 104.147 3.16602 102.329C3.16602 100.51 4.64307 99.0225 6.44835 99.0225C8.25363 99.1878 9.73068 100.51 9.73068 102.329Z" fill="white"/>
<path d="M28.2746 102.328C28.2746 104.146 26.7976 105.634 24.9923 105.634C23.187 105.634 21.71 104.146 21.71 102.328C21.71 100.509 23.187 99.0215 24.9923 99.0215C26.7976 99.1868 28.2746 100.509 28.2746 102.328Z" fill="white"/>
<path d="M43.5373 105.634C45.3501 105.634 46.8196 104.154 46.8196 102.328C46.8196 100.502 45.3501 99.0215 43.5373 99.0215C41.7245 99.0215 40.2549 100.502 40.2549 102.328C40.2549 104.154 41.7245 105.634 43.5373 105.634Z" fill="white"/>
<path d="M62.0821 105.634C63.8949 105.634 65.3645 104.154 65.3645 102.328C65.3645 100.502 63.8949 99.0215 62.0821 99.0215C60.2694 99.0215 58.7998 100.502 58.7998 102.328C58.7998 104.154 60.2694 105.634 62.0821 105.634Z" fill="white"/>
<path d="M83.7444 102.328C83.7444 104.146 82.2673 105.634 80.462 105.634C78.6567 105.634 77.1797 104.146 77.1797 102.328C77.1797 100.509 78.6567 99.0215 80.462 99.0215C82.2673 99.1868 83.7444 100.509 83.7444 102.328Z" fill="white"/>
<path d="M99.0079 105.634C100.821 105.634 102.29 104.154 102.29 102.328C102.29 100.502 100.821 99.0215 99.0079 99.0215C97.1951 99.0215 95.7256 100.502 95.7256 102.328C95.7256 104.154 97.1951 105.634 99.0079 105.634Z" fill="white"/>
<path d="M120.672 102.328C120.672 104.146 119.195 105.634 117.39 105.634C115.584 105.634 114.107 104.146 114.107 102.328C114.107 100.509 115.584 99.0215 117.39 99.0215C119.195 99.1868 120.672 100.509 120.672 102.328Z" fill="white"/>
<path d="M139.217 102.328C139.217 104.146 137.74 105.634 135.935 105.634C134.129 105.634 132.652 104.146 132.652 102.328C132.652 100.509 134.129 99.0215 135.935 99.0215C137.74 99.1868 139.217 100.509 139.217 102.328Z" fill="white"/>
<path d="M157.764 102.328C157.764 104.146 156.287 105.634 154.482 105.634C152.676 105.634 151.199 104.146 151.199 102.328C151.199 100.509 152.676 99.0215 154.482 99.0215C156.287 99.1868 157.764 100.509 157.764 102.328Z" fill="white"/>
<path d="M173.027 105.634C174.839 105.634 176.309 104.154 176.309 102.328C176.309 100.502 174.839 99.0215 173.027 99.0215C171.214 99.0215 169.744 100.502 169.744 102.328C169.744 104.154 171.214 105.634 173.027 105.634Z" fill="white"/>
<path d="M194.689 102.328C194.689 104.146 193.212 105.634 191.406 105.634C189.601 105.634 188.124 104.146 188.124 102.328C188.124 100.509 189.601 99.0215 191.406 99.0215C193.212 99.1868 194.689 100.509 194.689 102.328Z" fill="white"/>
<path d="M209.952 105.634C211.765 105.634 213.235 104.154 213.235 102.328C213.235 100.502 211.765 99.0215 209.952 99.0215C208.139 99.0215 206.67 100.502 206.67 102.328C206.67 104.154 208.139 105.634 209.952 105.634Z" fill="white"/>
<path d="M231.616 102.328C231.616 104.146 230.139 105.634 228.334 105.634C226.529 105.634 225.052 104.146 225.052 102.328C225.052 100.509 226.529 99.0215 228.334 99.0215C230.303 99.1868 231.616 100.509 231.616 102.328Z" fill="white"/>
<path d="M250.162 102.328C250.162 104.146 248.685 105.634 246.88 105.634C245.075 105.634 243.598 104.146 243.598 102.328C243.598 100.509 245.075 99.0215 246.88 99.0215C248.685 99.1868 250.162 100.509 250.162 102.328Z" fill="white"/>
<path d="M268.708 102.328C268.708 104.146 267.231 105.634 265.426 105.634C263.621 105.634 262.144 104.146 262.144 102.328C262.144 100.509 263.621 99.0215 265.426 99.0215C267.231 99.1868 268.708 100.509 268.708 102.328Z" fill="white"/>
<path d="M0.539276 111.752C0.539276 113.57 -0.937774 115.058 -2.74306 115.058C-4.54834 115.058 -6.02539 113.57 -6.02539 111.752C-6.02539 109.933 -4.54834 108.445 -2.74306 108.445C-0.937774 108.445 0.539276 109.933 0.539276 111.752Z" fill="white"/>
<path d="M19.0852 111.751C19.0852 113.569 17.6081 115.057 15.8028 115.057C13.9976 115.057 12.5205 113.569 12.5205 111.751C12.5205 109.932 13.9976 108.444 15.8028 108.444C17.6081 108.444 19.0852 109.932 19.0852 111.751Z" fill="white"/>
<path d="M37.466 111.751C37.466 113.569 35.989 115.057 34.1837 115.057C32.3784 115.057 30.9014 113.569 30.9014 111.751C30.9014 109.932 32.3784 108.444 34.1837 108.444C35.989 108.444 37.466 109.932 37.466 111.751Z" fill="white"/>
<path d="M56.01 111.75C56.01 113.568 54.5329 115.056 52.7276 115.056C50.9224 115.056 49.4453 113.568 49.4453 111.75C49.4453 109.931 50.9224 108.443 52.7276 108.443C54.5329 108.443 56.01 109.931 56.01 111.75Z" fill="white"/>
<path d="M74.5559 111.752C74.5559 113.57 73.0788 115.058 71.2735 115.058C69.4683 115.058 67.9912 113.57 67.9912 111.752C67.9912 109.933 69.4683 108.445 71.2735 108.445C73.0788 108.445 74.5559 109.933 74.5559 111.752Z" fill="white"/>
<path d="M92.9387 111.75C92.9387 113.568 91.4616 115.056 89.6564 115.056C87.8511 115.056 86.374 113.568 86.374 111.75C86.374 109.931 87.8511 108.443 89.6564 108.443C91.4616 108.443 92.9387 109.931 92.9387 111.75Z" fill="white"/>
<path d="M111.483 111.751C111.483 113.569 110.006 115.057 108.2 115.057C106.395 115.057 104.918 113.569 104.918 111.751C104.918 109.932 106.395 108.444 108.2 108.444C110.006 108.444 111.483 109.932 111.483 111.751Z" fill="white"/>
<path d="M130.029 111.75C130.029 113.568 128.551 115.056 126.746 115.056C124.941 115.056 123.464 113.568 123.464 111.75C123.464 109.931 124.941 108.443 126.746 108.443C128.551 108.443 130.029 109.931 130.029 111.75Z" fill="white"/>
<path d="M148.409 111.753C148.409 113.571 146.932 115.059 145.127 115.059C143.322 115.059 141.845 113.571 141.845 111.753C141.845 109.934 143.322 108.446 145.127 108.446C146.932 108.446 148.409 109.934 148.409 111.753Z" fill="white"/>
<path d="M166.953 111.751C166.953 113.569 165.476 115.057 163.671 115.057C161.866 115.057 160.389 113.569 160.389 111.751C160.389 109.932 161.866 108.444 163.671 108.444C165.476 108.444 166.953 109.932 166.953 111.751Z" fill="white"/>
<path d="M185.498 111.751C185.498 113.569 184.021 115.057 182.216 115.057C180.411 115.057 178.934 113.569 178.934 111.751C178.934 109.932 180.411 108.444 182.216 108.444C184.021 108.444 185.498 109.932 185.498 111.751Z" fill="white"/>
<path d="M203.882 111.751C203.882 113.569 202.405 115.057 200.6 115.057C198.794 115.057 197.317 113.569 197.317 111.751C197.317 109.932 198.794 108.444 200.6 108.444C202.569 108.444 203.882 109.932 203.882 111.751Z" fill="white"/>
<path d="M222.425 111.752C222.425 113.57 220.948 115.058 219.143 115.058C217.337 115.058 215.86 113.57 215.86 111.752C215.86 109.933 217.337 108.445 219.143 108.445C220.948 108.445 222.425 109.933 222.425 111.752Z" fill="white"/>
<path d="M240.969 111.75C240.969 113.568 239.492 115.056 237.687 115.056C235.881 115.056 234.404 113.568 234.404 111.75C234.404 109.931 235.881 108.443 237.687 108.443C239.492 108.443 240.969 109.931 240.969 111.75Z" fill="white"/>
<path d="M259.351 111.751C259.351 113.569 257.874 115.057 256.069 115.057C254.263 115.057 252.786 113.569 252.786 111.751C252.786 109.932 254.263 108.444 256.069 108.444C258.038 108.444 259.351 109.932 259.351 111.751Z" fill="white"/>
<path d="M277.896 111.75C277.896 113.569 276.419 115.057 274.613 115.057C272.808 115.057 271.331 113.569 271.331 111.75C271.331 109.931 272.808 108.443 274.613 108.443C276.419 108.443 277.896 109.931 277.896 111.75Z" fill="white"/>
<path d="M9.73068 121.008C9.73068 122.826 8.25363 124.314 6.44835 124.314C4.64307 124.314 3.16602 122.826 3.16602 121.008C3.16602 119.189 4.64307 117.701 6.44835 117.701C8.25363 117.701 9.73068 119.189 9.73068 121.008Z" fill="white"/>
<path d="M28.2746 121.007C28.2746 122.825 26.7976 124.313 24.9923 124.313C23.187 124.313 21.71 122.825 21.71 121.007C21.71 119.188 23.187 117.7 24.9923 117.7C26.7976 117.7 28.2746 119.188 28.2746 121.007Z" fill="white"/>
<path d="M46.8196 121.008C46.8196 122.826 45.3426 124.314 43.5373 124.314C41.732 124.314 40.2549 122.826 40.2549 121.008C40.2549 119.189 41.732 117.701 43.5373 117.701C45.3426 117.701 46.8196 119.189 46.8196 121.008Z" fill="white"/>
<path d="M65.2014 121.007C65.2014 122.825 63.7243 124.313 61.9191 124.313C60.1138 124.313 58.6367 122.825 58.6367 121.007C58.6367 119.188 60.1138 117.7 61.9191 117.7C63.7243 117.7 65.2014 119.188 65.2014 121.007Z" fill="white"/>
<path d="M83.7444 121.008C83.7444 122.826 82.2673 124.314 80.462 124.314C78.6567 124.314 77.1797 122.826 77.1797 121.008C77.1797 119.189 78.6567 117.701 80.462 117.701C82.2673 117.701 83.7444 119.189 83.7444 121.008Z" fill="white"/>
<path d="M102.29 121.007C102.29 122.825 100.813 124.313 99.0079 124.313C97.2026 124.313 95.7256 122.825 95.7256 121.007C95.7256 119.188 97.2026 117.7 99.0079 117.7C100.813 117.7 102.29 119.188 102.29 121.007Z" fill="white"/>
<path d="M120.672 121.008C120.672 122.826 119.195 124.314 117.39 124.314C115.584 124.314 114.107 122.826 114.107 121.008C114.107 119.189 115.584 117.701 117.39 117.701C119.195 117.701 120.672 119.189 120.672 121.008Z" fill="white"/>
<path d="M139.217 121.007C139.217 122.825 137.74 124.313 135.935 124.313C134.129 124.313 132.652 122.825 132.652 121.007C132.652 119.188 134.129 117.7 135.935 117.7C137.74 117.7 139.217 119.188 139.217 121.007Z" fill="white"/>
<path d="M157.764 121.007C157.764 122.825 156.287 124.313 154.482 124.313C152.676 124.313 151.199 122.825 151.199 121.007C151.199 119.188 152.676 117.7 154.482 117.7C156.287 117.7 157.764 119.188 157.764 121.007Z" fill="white"/>
<path d="M176.147 121.007C176.147 122.825 174.67 124.313 172.864 124.313C171.059 124.313 169.582 122.825 169.582 121.007C169.582 119.188 171.059 117.7 172.864 117.7C174.67 117.7 176.147 119.188 176.147 121.007Z" fill="white"/>
<path d="M194.69 121.008C194.69 122.826 193.213 124.314 191.407 124.314C189.602 124.314 188.125 122.826 188.125 121.008C188.125 119.189 189.602 117.701 191.407 117.701C193.213 117.701 194.69 119.189 194.69 121.008Z" fill="white"/>
<path d="M213.236 121.007C213.236 122.825 211.759 124.313 209.953 124.313C208.148 124.313 206.671 122.825 206.671 121.007C206.671 119.188 208.148 117.7 209.953 117.7C211.759 117.7 213.236 119.188 213.236 121.007Z" fill="white"/>
<path d="M231.615 121.008C231.615 122.826 230.138 124.314 228.333 124.314C226.528 124.314 225.051 122.826 225.051 121.008C225.051 119.189 226.528 117.701 228.333 117.701C230.303 117.701 231.615 119.189 231.615 121.008Z" fill="white"/>
<path d="M250.161 121.007C250.161 122.825 248.684 124.313 246.879 124.313C245.074 124.313 243.597 122.825 243.597 121.007C243.597 119.188 245.074 117.7 246.879 117.7C248.684 117.7 250.161 119.188 250.161 121.007Z" fill="white"/>
<path d="M268.706 121.007C268.706 122.825 267.229 124.313 265.424 124.313C263.619 124.313 262.142 122.825 262.142 121.007C262.142 119.188 263.619 117.7 265.424 117.7C267.229 117.7 268.706 119.188 268.706 121.007Z" fill="white"/>
<path d="M0.540253 130.267C0.540253 132.086 -0.936797 133.574 -2.74208 133.574C-4.54736 133.574 -6.02441 132.086 -6.02441 130.267C-6.02441 128.449 -4.54736 126.961 -2.74208 126.961C-0.936797 127.126 0.540253 128.449 0.540253 130.267Z" fill="white"/>
<path d="M19.0862 130.266C19.0862 132.084 17.6091 133.572 15.8038 133.572C13.9985 133.572 12.5215 132.084 12.5215 130.266C12.5215 128.447 13.9985 126.959 15.8038 126.959C17.6091 127.124 19.0862 128.447 19.0862 130.266Z" fill="white"/>
<path d="M37.467 130.266C37.467 132.084 35.99 133.572 34.1847 133.572C32.3794 133.572 30.9023 132.084 30.9023 130.266C30.9023 128.447 32.3794 126.959 34.1847 126.959C35.99 127.124 37.467 128.447 37.467 130.266Z" fill="white"/>
<path d="M56.011 130.265C56.011 132.084 54.5339 133.572 52.7286 133.572C50.9233 133.572 49.4463 132.084 49.4463 130.265C49.4463 128.447 50.9233 126.959 52.7286 126.959C54.5339 127.124 56.011 128.447 56.011 130.265Z" fill="white"/>
<path d="M74.5569 130.267C74.5569 132.085 73.0798 133.573 71.2745 133.573C69.4692 133.573 67.9922 132.085 67.9922 130.267C67.9922 128.448 69.4692 126.96 71.2745 126.96C73.0798 127.125 74.5569 128.448 74.5569 130.267Z" fill="white"/>
<path d="M92.9397 130.265C92.9397 132.084 91.4626 133.572 89.6573 133.572C87.852 133.572 86.375 132.084 86.375 130.265C86.375 128.447 87.852 126.959 89.6573 126.959C91.4626 127.124 92.9397 128.447 92.9397 130.265Z" fill="white"/>
<path d="M111.484 130.265C111.484 132.084 110.007 133.572 108.201 133.572C106.396 133.572 104.919 132.084 104.919 130.265C104.919 128.447 106.396 126.959 108.201 126.959C110.007 127.124 111.484 128.447 111.484 130.265Z" fill="white"/>
<path d="M130.03 130.266C130.03 132.084 128.552 133.572 126.747 133.572C124.942 133.572 123.465 132.084 123.465 130.266C123.465 128.447 124.942 126.959 126.747 126.959C128.552 127.124 130.03 128.447 130.03 130.266Z" fill="white"/>
<path d="M148.409 130.268C148.409 132.086 146.932 133.574 145.127 133.574C143.322 133.574 141.845 132.086 141.845 130.268C141.845 128.449 143.322 126.961 145.127 126.961C146.932 127.126 148.409 128.449 148.409 130.268Z" fill="white"/>
<path d="M166.953 130.265C166.953 132.084 165.476 133.572 163.671 133.572C161.866 133.572 160.389 132.084 160.389 130.265C160.389 128.447 161.866 126.959 163.671 126.959C165.476 127.124 166.953 128.447 166.953 130.265Z" fill="white"/>
<path d="M185.498 130.266C185.498 132.085 184.021 133.573 182.216 133.573C180.411 133.573 178.934 132.085 178.934 130.266C178.934 128.448 180.411 126.96 182.216 126.96C184.021 127.125 185.498 128.448 185.498 130.266Z" fill="white"/>
<path d="M203.882 130.266C203.882 132.084 202.405 133.572 200.6 133.572C198.794 133.572 197.317 132.084 197.317 130.266C197.317 128.447 198.794 126.959 200.6 126.959C202.569 127.124 203.882 128.447 203.882 130.266Z" fill="white"/>
<path d="M222.426 130.266C222.426 132.085 220.949 133.573 219.144 133.573C217.338 133.573 215.861 132.085 215.861 130.266C215.861 128.448 217.338 126.96 219.144 126.96C220.949 127.125 222.426 128.448 222.426 130.266Z" fill="white"/>
<path d="M240.97 130.266C240.97 132.084 239.493 133.572 237.688 133.572C235.882 133.572 234.405 132.084 234.405 130.266C234.405 128.447 235.882 126.959 237.688 126.959C239.493 127.124 240.97 128.447 240.97 130.266Z" fill="white"/>
<path d="M259.351 130.266C259.351 132.084 257.874 133.572 256.068 133.572C254.263 133.572 252.786 132.084 252.786 130.266C252.786 128.447 254.263 126.959 256.068 126.959C258.038 127.124 259.351 128.447 259.351 130.266Z" fill="white"/>
<path d="M277.897 130.266C277.897 132.084 276.42 133.572 274.614 133.572C272.809 133.572 271.332 132.084 271.332 130.266C271.332 128.447 272.809 126.959 274.614 126.959C276.42 127.124 277.897 128.447 277.897 130.266Z" fill="white"/>
<path d="M9.73068 139.689C9.73068 141.508 8.25363 142.996 6.44835 142.996C4.64307 142.996 3.16602 141.508 3.16602 139.689C3.16602 137.871 4.64307 136.383 6.44835 136.383C8.25363 136.383 9.73068 137.871 9.73068 139.689Z" fill="white"/>
<path d="M28.2746 139.689C28.2746 141.508 26.7976 142.996 24.9923 142.996C23.187 142.996 21.71 141.508 21.71 139.689C21.71 137.871 23.187 136.383 24.9923 136.383C26.7976 136.383 28.2746 137.871 28.2746 139.689Z" fill="white"/>
<path d="M46.8196 139.689C46.8196 141.508 45.3426 142.996 43.5373 142.996C41.732 142.996 40.2549 141.508 40.2549 139.689C40.2549 137.871 41.732 136.383 43.5373 136.383C45.3426 136.383 46.8196 137.871 46.8196 139.689Z" fill="white"/>
<path d="M65.2014 139.689C65.2014 141.508 63.7243 142.996 61.9191 142.996C60.1138 142.996 58.6367 141.508 58.6367 139.689C58.6367 137.871 60.1138 136.383 61.9191 136.383C63.7243 136.383 65.2014 137.871 65.2014 139.689Z" fill="white"/>
<path d="M83.7444 139.688C83.7444 141.507 82.2673 142.995 80.462 142.995C78.6567 142.995 77.1797 141.507 77.1797 139.688C77.1797 137.87 78.6567 136.382 80.462 136.382C82.2673 136.382 83.7444 137.87 83.7444 139.688Z" fill="white"/>
<path d="M102.29 139.688C102.29 141.507 100.813 142.995 99.0079 142.995C97.2026 142.995 95.7256 141.507 95.7256 139.688C95.7256 137.87 97.2026 136.382 99.0079 136.382C100.813 136.382 102.29 137.87 102.29 139.688Z" fill="white"/>
<path d="M120.672 139.689C120.672 141.508 119.195 142.996 117.39 142.996C115.584 142.996 114.107 141.508 114.107 139.689C114.107 137.871 115.584 136.383 117.39 136.383C119.195 136.383 120.672 137.871 120.672 139.689Z" fill="white"/>
<path d="M139.217 139.689C139.217 141.508 137.74 142.996 135.935 142.996C134.129 142.996 132.652 141.508 132.652 139.689C132.652 137.871 134.129 136.383 135.935 136.383C137.74 136.383 139.217 137.871 139.217 139.689Z" fill="white"/>
<path d="M157.764 139.69C157.764 141.509 156.287 142.997 154.482 142.997C152.676 142.997 151.199 141.509 151.199 139.69C151.199 137.872 152.676 136.384 154.482 136.384C156.287 136.384 157.764 137.872 157.764 139.69Z" fill="white"/>
<path d="M176.147 139.689C176.147 141.508 174.67 142.996 172.864 142.996C171.059 142.996 169.582 141.508 169.582 139.689C169.582 137.871 171.059 136.383 172.864 136.383C174.67 136.383 176.147 137.871 176.147 139.689Z" fill="white"/>
<path d="M194.69 139.689C194.69 141.508 193.213 142.996 191.407 142.996C189.602 142.996 188.125 141.508 188.125 139.689C188.125 137.871 189.602 136.383 191.407 136.383C193.213 136.383 194.69 137.871 194.69 139.689Z" fill="white"/>
<path d="M213.236 139.689C213.236 141.508 211.759 142.996 209.953 142.996C208.148 142.996 206.671 141.508 206.671 139.689C206.671 137.871 208.148 136.383 209.953 136.383C211.759 136.383 213.236 137.871 213.236 139.689Z" fill="white"/>
<path d="M231.615 139.689C231.615 141.508 230.138 142.996 228.333 142.996C226.528 142.996 225.051 141.508 225.051 139.689C225.051 137.871 226.528 136.383 228.333 136.383C230.303 136.383 231.615 137.871 231.615 139.689Z" fill="white"/>
<path d="M250.161 139.689C250.161 141.508 248.684 142.996 246.879 142.996C245.074 142.996 243.597 141.508 243.597 139.689C243.597 137.871 245.074 136.383 246.879 136.383C248.684 136.383 250.161 137.871 250.161 139.689Z" fill="white"/>
<path d="M268.706 139.689C268.706 141.508 267.229 142.996 265.424 142.996C263.619 142.996 262.142 141.508 262.142 139.689C262.142 137.871 263.619 136.383 265.424 136.383C267.229 136.383 268.706 137.871 268.706 139.689Z" fill="white"/>
<path d="M0.540253 148.947C0.540253 150.766 -0.936797 152.254 -2.74208 152.254C-4.54736 152.254 -6.02441 150.766 -6.02441 148.947C-6.02441 147.129 -4.54736 145.641 -2.74208 145.641C-0.936797 145.641 0.540253 147.129 0.540253 148.947Z" fill="white"/>
<path d="M19.0862 148.947C19.0862 150.766 17.6091 152.254 15.8038 152.254C13.9985 152.254 12.5215 150.766 12.5215 148.947C12.5215 147.129 13.9985 145.641 15.8038 145.641C17.6091 145.641 19.0862 147.129 19.0862 148.947Z" fill="white"/>
<path d="M37.467 148.947C37.467 150.766 35.99 152.254 34.1847 152.254C32.3794 152.254 30.9023 150.766 30.9023 148.947C30.9023 147.129 32.3794 145.641 34.1847 145.641C35.99 145.641 37.467 147.129 37.467 148.947Z" fill="white"/>
<path d="M56.011 148.947C56.011 150.766 54.5339 152.254 52.7286 152.254C50.9233 152.254 49.4463 150.766 49.4463 148.947C49.4463 147.129 50.9233 145.641 52.7286 145.641C54.5339 145.641 56.011 147.129 56.011 148.947Z" fill="white"/>
<path d="M74.5569 148.947C74.5569 150.766 73.0798 152.254 71.2745 152.254C69.4692 152.254 67.9922 150.766 67.9922 148.947C67.9922 147.129 69.4692 145.641 71.2745 145.641C73.0798 145.641 74.5569 147.129 74.5569 148.947Z" fill="white"/>
<path d="M92.9397 148.947C92.9397 150.766 91.4626 152.254 89.6573 152.254C87.852 152.254 86.375 150.766 86.375 148.947C86.375 147.129 87.852 145.641 89.6573 145.641C91.4626 145.641 92.9397 147.129 92.9397 148.947Z" fill="white"/>
<path d="M111.484 148.947C111.484 150.766 110.007 152.254 108.201 152.254C106.396 152.254 104.919 150.766 104.919 148.947C104.919 147.129 106.396 145.641 108.201 145.641C110.007 145.641 111.484 147.129 111.484 148.947Z" fill="white"/>
<path d="M130.03 148.947C130.03 150.766 128.552 152.254 126.747 152.254C124.942 152.254 123.465 150.766 123.465 148.947C123.465 147.129 124.942 145.641 126.747 145.641C128.552 145.641 130.03 147.129 130.03 148.947Z" fill="white"/>
<path d="M148.409 148.947C148.409 150.766 146.932 152.254 145.127 152.254C143.322 152.254 141.845 150.766 141.845 148.947C141.845 147.129 143.322 145.641 145.127 145.641C146.932 145.641 148.409 147.129 148.409 148.947Z" fill="white"/>
<path d="M166.953 148.947C166.953 150.766 165.476 152.254 163.671 152.254C161.866 152.254 160.389 150.766 160.389 148.947C160.389 147.129 161.866 145.641 163.671 145.641C165.476 145.641 166.953 147.129 166.953 148.947Z" fill="white"/>
<path d="M185.498 148.947C185.498 150.766 184.021 152.254 182.216 152.254C180.411 152.254 178.934 150.766 178.934 148.947C178.934 147.129 180.411 145.641 182.216 145.641C184.021 145.641 185.498 147.129 185.498 148.947Z" fill="white"/>
<path d="M203.882 148.947C203.882 150.766 202.405 152.254 200.6 152.254C198.794 152.254 197.317 150.766 197.317 148.947C197.317 147.129 198.794 145.641 200.6 145.641C202.569 145.641 203.882 147.129 203.882 148.947Z" fill="white"/>
<path d="M222.426 148.947C222.426 150.766 220.949 152.254 219.144 152.254C217.338 152.254 215.861 150.766 215.861 148.947C215.861 147.129 217.338 145.641 219.144 145.641C220.949 145.641 222.426 147.129 222.426 148.947Z" fill="white"/>
<path d="M240.97 148.947C240.97 150.766 239.493 152.254 237.688 152.254C235.882 152.254 234.405 150.766 234.405 148.947C234.405 147.129 235.882 145.641 237.688 145.641C239.493 145.641 240.97 147.129 240.97 148.947Z" fill="white"/>
<path d="M259.351 148.947C259.351 150.766 257.874 152.254 256.068 152.254C254.263 152.254 252.786 150.766 252.786 148.947C252.786 147.129 254.263 145.641 256.068 145.641C258.038 145.641 259.351 147.129 259.351 148.947Z" fill="white"/>
<path d="M277.897 148.947C277.897 150.766 276.42 152.254 274.614 152.254C272.809 152.254 271.332 150.766 271.332 148.947C271.332 147.129 272.809 145.641 274.614 145.641C276.42 145.641 277.897 147.129 277.897 148.947Z" fill="white"/>
<path d="M9.73068 158.207C9.73068 160.026 8.25363 161.514 6.44835 161.514C4.64307 161.514 3.16602 160.026 3.16602 158.207C3.16602 156.388 4.64307 154.9 6.44835 154.9C8.25363 155.066 9.73068 156.388 9.73068 158.207Z" fill="white"/>
<path d="M28.2746 158.205C28.2746 160.024 26.7976 161.512 24.9923 161.512C23.187 161.512 21.71 160.024 21.71 158.205C21.71 156.386 23.187 154.898 24.9923 154.898C26.7976 155.064 28.2746 156.386 28.2746 158.205Z" fill="white"/>
<path d="M46.8196 158.205C46.8196 160.023 45.3426 161.511 43.5373 161.511C41.732 161.511 40.2549 160.023 40.2549 158.205C40.2549 156.386 41.732 154.898 43.5373 154.898C45.3426 155.064 46.8196 156.386 46.8196 158.205Z" fill="white"/>
<path d="M65.2014 158.206C65.2014 160.025 63.7243 161.513 61.9191 161.513C60.1138 161.513 58.6367 160.025 58.6367 158.206C58.6367 156.387 60.1138 154.899 61.9191 154.899C63.7243 154.899 65.2014 156.387 65.2014 158.206Z" fill="white"/>
<path d="M83.7444 158.205C83.7444 160.023 82.2673 161.511 80.462 161.511C78.6567 161.511 77.1797 160.023 77.1797 158.205C77.1797 156.386 78.6567 154.898 80.462 154.898C82.2673 155.064 83.7444 156.386 83.7444 158.205Z" fill="white"/>
<path d="M102.29 158.205C102.29 160.024 100.813 161.512 99.0079 161.512C97.2026 161.512 95.7256 160.024 95.7256 158.205C95.7256 156.386 97.2026 154.898 99.0079 154.898C100.813 155.064 102.29 156.386 102.29 158.205Z" fill="white"/>
<path d="M120.672 158.206C120.672 160.025 119.195 161.513 117.39 161.513C115.584 161.513 114.107 160.025 114.107 158.206C114.107 156.387 115.584 154.899 117.39 154.899C119.195 155.065 120.672 156.387 120.672 158.206Z" fill="white"/>
<path d="M139.217 158.206C139.217 160.025 137.74 161.513 135.935 161.513C134.129 161.513 132.652 160.025 132.652 158.206C132.652 156.387 134.129 154.899 135.935 154.899C137.74 155.065 139.217 156.387 139.217 158.206Z" fill="white"/>
<path d="M157.764 158.206C157.764 160.025 156.287 161.513 154.482 161.513C152.676 161.513 151.199 160.025 151.199 158.206C151.199 156.387 152.676 154.899 154.482 154.899C156.287 155.065 157.764 156.387 157.764 158.206Z" fill="white"/>
<path d="M176.147 158.205C176.147 160.024 174.67 161.512 172.864 161.512C171.059 161.512 169.582 160.024 169.582 158.205C169.582 156.386 171.059 154.898 172.864 154.898C174.67 154.898 176.147 156.386 176.147 158.205Z" fill="white"/>
<path d="M194.69 158.205C194.69 160.024 193.213 161.512 191.407 161.512C189.602 161.512 188.125 160.024 188.125 158.205C188.125 156.386 189.602 154.898 191.407 154.898C193.213 155.064 194.69 156.386 194.69 158.205Z" fill="white"/>
<path d="M213.236 158.205C213.236 160.024 211.759 161.512 209.953 161.512C208.148 161.512 206.671 160.024 206.671 158.205C206.671 156.386 208.148 154.898 209.953 154.898C211.759 155.064 213.236 156.386 213.236 158.205Z" fill="white"/>
<path d="M231.616 158.207C231.616 160.026 230.139 161.514 228.334 161.514C226.529 161.514 225.052 160.026 225.052 158.207C225.052 156.388 226.529 154.9 228.334 154.9C230.303 155.066 231.616 156.388 231.616 158.207Z" fill="white"/>
<path d="M250.162 158.205C250.162 160.024 248.685 161.512 246.88 161.512C245.075 161.512 243.598 160.024 243.598 158.205C243.598 156.386 245.075 154.898 246.88 154.898C248.685 155.064 250.162 156.386 250.162 158.205Z" fill="white"/>
<path d="M268.707 158.206C268.707 160.024 267.23 161.512 265.425 161.512C263.62 161.512 262.143 160.024 262.143 158.206C262.143 156.387 263.62 154.899 265.425 154.899C267.23 155.065 268.707 156.387 268.707 158.206Z" fill="white"/>
<path d="M0.540253 167.63C0.540253 169.449 -0.936797 170.937 -2.74208 170.937C-4.54736 170.937 -6.02441 169.449 -6.02441 167.63C-6.02441 165.812 -4.54736 164.324 -2.74208 164.324C-0.936797 164.324 0.540253 165.812 0.540253 167.63Z" fill="white"/>
<path d="M19.0862 167.629C19.0862 169.448 17.6091 170.935 15.8038 170.935C13.9985 170.935 12.5215 169.448 12.5215 167.629C12.5215 165.81 13.9985 164.322 15.8038 164.322C17.6091 164.322 19.0862 165.81 19.0862 167.629Z" fill="white"/>
<path d="M37.467 167.63C37.467 169.448 35.99 170.936 34.1847 170.936C32.3794 170.936 30.9023 169.448 30.9023 167.63C30.9023 165.811 32.3794 164.323 34.1847 164.323C35.99 164.323 37.467 165.811 37.467 167.63Z" fill="white"/>
<path d="M52.7286 170.936C54.5414 170.936 56.011 169.456 56.011 167.63C56.011 165.804 54.5414 164.323 52.7286 164.323C50.9158 164.323 49.4463 165.804 49.4463 167.63C49.4463 169.456 50.9158 170.936 52.7286 170.936Z" fill="white"/>
<path d="M74.5569 167.63C74.5569 169.448 73.0798 170.936 71.2745 170.936C69.4692 170.936 67.9922 169.448 67.9922 167.63C67.9922 165.811 69.4692 164.323 71.2745 164.323C73.0798 164.323 74.5569 165.811 74.5569 167.63Z" fill="white"/>
<path d="M92.9397 167.629C92.9397 169.448 91.4626 170.935 89.6573 170.935C87.852 170.935 86.375 169.448 86.375 167.629C86.375 165.81 87.852 164.322 89.6573 164.322C91.4626 164.322 92.9397 165.81 92.9397 167.629Z" fill="white"/>
<path d="M111.484 167.63C111.484 169.448 110.007 170.936 108.201 170.936C106.396 170.936 104.919 169.448 104.919 167.63C104.919 165.811 106.396 164.323 108.201 164.323C110.007 164.323 111.484 165.811 111.484 167.63Z" fill="white"/>
<path d="M130.03 167.63C130.03 169.448 128.552 170.936 126.747 170.936C124.942 170.936 123.465 169.448 123.465 167.63C123.465 165.811 124.942 164.323 126.747 164.323C128.552 164.323 130.03 165.811 130.03 167.63Z" fill="white"/>
<path d="M148.409 167.63C148.409 169.448 146.932 170.936 145.127 170.936C143.322 170.936 141.845 169.448 141.845 167.63C141.845 165.811 143.322 164.323 145.127 164.323C146.932 164.323 148.409 165.811 148.409 167.63Z" fill="white"/>
<path d="M163.671 170.936C165.484 170.936 166.953 169.455 166.953 167.629C166.953 165.803 165.484 164.323 163.671 164.323C161.858 164.323 160.389 165.803 160.389 167.629C160.389 169.455 161.858 170.936 163.671 170.936Z" fill="white"/>
<path d="M185.498 167.63C185.498 169.449 184.021 170.937 182.216 170.937C180.411 170.937 178.934 169.449 178.934 167.63C178.934 165.812 180.411 164.324 182.216 164.324C184.021 164.324 185.498 165.812 185.498 167.63Z" fill="white"/>
<path d="M203.882 167.629C203.882 169.448 202.405 170.936 200.6 170.936C198.794 170.936 197.317 169.448 197.317 167.629C197.317 165.811 198.794 164.323 200.6 164.323C202.569 164.323 203.882 165.811 203.882 167.629Z" fill="white"/>
<path d="M222.426 167.631C222.426 169.449 220.949 170.937 219.144 170.937C217.338 170.937 215.861 169.449 215.861 167.631C215.861 165.812 217.338 164.324 219.144 164.324C220.949 164.324 222.426 165.812 222.426 167.631Z" fill="white"/>
<path d="M240.97 167.629C240.97 169.448 239.493 170.936 237.688 170.936C235.882 170.936 234.405 169.448 234.405 167.629C234.405 165.811 235.882 164.323 237.688 164.323C239.493 164.323 240.97 165.811 240.97 167.629Z" fill="white"/>
<path d="M259.351 167.63C259.351 169.449 257.874 170.937 256.068 170.937C254.263 170.937 252.786 169.449 252.786 167.63C252.786 165.812 254.263 164.324 256.068 164.324C258.038 164.324 259.351 165.812 259.351 167.63Z" fill="white"/>
<path d="M274.614 170.936C276.427 170.936 277.897 169.455 277.897 167.629C277.897 165.803 276.427 164.323 274.614 164.323C272.802 164.323 271.332 165.803 271.332 167.629C271.332 169.455 272.802 170.936 274.614 170.936Z" fill="white"/>
<path d="M9.73068 176.888C9.73068 178.707 8.25363 180.195 6.44835 180.195C4.64307 180.195 3.16602 178.707 3.16602 176.888C3.16602 175.07 4.64307 173.582 6.44835 173.582C8.25363 173.582 9.73068 175.07 9.73068 176.888Z" fill="white"/>
<path d="M28.2746 176.887C28.2746 178.705 26.7976 180.193 24.9923 180.193C23.187 180.193 21.71 178.705 21.71 176.887C21.71 175.068 23.187 173.58 24.9923 173.58C26.7976 173.58 28.2746 175.068 28.2746 176.887Z" fill="white"/>
<path d="M43.5373 180.194C45.3501 180.194 46.8196 178.714 46.8196 176.888C46.8196 175.061 45.3501 173.581 43.5373 173.581C41.7245 173.581 40.2549 175.061 40.2549 176.888C40.2549 178.714 41.7245 180.194 43.5373 180.194Z" fill="white"/>
<path d="M62.0821 180.193C63.8949 180.193 65.3645 178.713 65.3645 176.887C65.3645 175.06 63.8949 173.58 62.0821 173.58C60.2694 173.58 58.7998 175.06 58.7998 176.887C58.7998 178.713 60.2694 180.193 62.0821 180.193Z" fill="white"/>
<path d="M83.7444 176.887C83.7444 178.705 82.2673 180.193 80.462 180.193C78.6567 180.193 77.1797 178.705 77.1797 176.887C77.1797 175.068 78.6567 173.58 80.462 173.58C82.2673 173.58 83.7444 175.068 83.7444 176.887Z" fill="white"/>
<path d="M99.0079 180.193C100.821 180.193 102.29 178.713 102.29 176.887C102.29 175.06 100.821 173.58 99.0079 173.58C97.1951 173.58 95.7256 175.06 95.7256 176.887C95.7256 178.713 97.1951 180.193 99.0079 180.193Z" fill="white"/>
<path d="M120.672 176.888C120.672 178.706 119.195 180.194 117.39 180.194C115.584 180.194 114.107 178.706 114.107 176.888C114.107 175.069 115.584 173.581 117.39 173.581C119.195 173.581 120.672 175.069 120.672 176.888Z" fill="white"/>
<path d="M139.217 176.887C139.217 178.705 137.74 180.193 135.935 180.193C134.129 180.193 132.652 178.705 132.652 176.887C132.652 175.068 134.129 173.58 135.935 173.58C137.74 173.58 139.217 175.068 139.217 176.887Z" fill="white"/>
<path d="M157.764 176.888C157.764 178.706 156.287 180.194 154.482 180.194C152.676 180.194 151.199 178.706 151.199 176.888C151.199 175.069 152.676 173.581 154.482 173.581C156.287 173.581 157.764 175.069 157.764 176.888Z" fill="white"/>
<path d="M173.027 180.193C174.839 180.193 176.309 178.713 176.309 176.887C176.309 175.06 174.839 173.58 173.027 173.58C171.214 173.58 169.744 175.06 169.744 176.887C169.744 178.713 171.214 180.193 173.027 180.193Z" fill="white"/>
<path d="M194.69 176.888C194.69 178.706 193.213 180.194 191.407 180.194C189.602 180.194 188.125 178.706 188.125 176.888C188.125 175.069 189.602 173.581 191.407 173.581C193.213 173.581 194.69 175.069 194.69 176.888Z" fill="white"/>
<path d="M209.953 180.194C211.766 180.194 213.236 178.714 213.236 176.888C213.236 175.061 211.766 173.581 209.953 173.581C208.14 173.581 206.671 175.061 206.671 176.888C206.671 178.714 208.14 180.194 209.953 180.194Z" fill="white"/>
<path d="M231.615 176.888C231.615 178.706 230.138 180.194 228.333 180.194C226.528 180.194 225.051 178.706 225.051 176.888C225.051 175.069 226.528 173.581 228.333 173.581C230.303 173.581 231.615 175.069 231.615 176.888Z" fill="white"/>
<path d="M250.161 176.888C250.161 178.706 248.684 180.194 246.879 180.194C245.074 180.194 243.597 178.706 243.597 176.888C243.597 175.069 245.074 173.581 246.879 173.581C248.684 173.581 250.161 175.069 250.161 176.888Z" fill="white"/>
<path d="M268.706 176.888C268.706 178.706 267.229 180.194 265.424 180.194C263.619 180.194 262.142 178.706 262.142 176.888C262.142 175.069 263.619 173.581 265.424 173.581C267.229 173.581 268.706 175.069 268.706 176.888Z" fill="white"/>
<path d="M0.540253 186.146C0.540253 187.965 -0.936797 189.453 -2.74208 189.453C-4.54736 189.453 -6.02441 187.965 -6.02441 186.146C-6.02441 184.328 -4.54736 182.84 -2.74208 182.84C-0.936797 183.005 0.540253 184.328 0.540253 186.146Z" fill="white"/>
<path d="M19.0862 186.145C19.0862 187.964 17.6091 189.452 15.8038 189.452C13.9985 189.452 12.5215 187.964 12.5215 186.145C12.5215 184.327 13.9985 182.839 15.8038 182.839C17.6091 183.004 19.0862 184.327 19.0862 186.145Z" fill="white"/>
<path d="M37.467 186.145C37.467 187.964 35.99 189.452 34.1847 189.452C32.3794 189.452 30.9023 187.964 30.9023 186.145C30.9023 184.327 32.3794 182.839 34.1847 182.839C35.99 183.004 37.467 184.327 37.467 186.145Z" fill="white"/>
<path d="M56.011 186.145C56.011 187.964 54.5339 189.451 52.7286 189.451C50.9233 189.451 49.4463 187.964 49.4463 186.145C49.4463 184.327 50.9233 182.839 52.7286 182.839C54.5339 183.004 56.011 184.327 56.011 186.145Z" fill="white"/>
<path d="M74.5569 186.145C74.5569 187.964 73.0798 189.452 71.2745 189.452C69.4692 189.452 67.9922 187.964 67.9922 186.145C67.9922 184.327 69.4692 182.839 71.2745 182.839C73.0798 183.004 74.5569 184.327 74.5569 186.145Z" fill="white"/>
<path d="M92.9397 186.145C92.9397 187.964 91.4626 189.451 89.6573 189.451C87.852 189.451 86.375 187.964 86.375 186.145C86.375 184.327 87.852 182.839 89.6573 182.839C91.4626 183.004 92.9397 184.327 92.9397 186.145Z" fill="white"/>
<path d="M111.484 186.145C111.484 187.964 110.007 189.451 108.201 189.451C106.396 189.451 104.919 187.964 104.919 186.145C104.919 184.327 106.396 182.839 108.201 182.839C110.007 183.004 111.484 184.327 111.484 186.145Z" fill="white"/>
<path d="M130.03 186.145C130.03 187.964 128.552 189.452 126.747 189.452C124.942 189.452 123.465 187.964 123.465 186.145C123.465 184.327 124.942 182.839 126.747 182.839C128.552 183.004 130.03 184.327 130.03 186.145Z" fill="white"/>
<path d="M148.409 186.145C148.409 187.964 146.932 189.452 145.127 189.452C143.322 189.452 141.845 187.964 141.845 186.145C141.845 184.327 143.322 182.839 145.127 182.839C146.932 183.004 148.409 184.327 148.409 186.145Z" fill="white"/>
<path d="M166.953 186.145C166.953 187.964 165.476 189.451 163.671 189.451C161.866 189.451 160.389 187.964 160.389 186.145C160.389 184.327 161.866 182.839 163.671 182.839C165.476 183.004 166.953 184.327 166.953 186.145Z" fill="white"/>
<path d="M185.498 186.145C185.498 187.964 184.021 189.451 182.216 189.451C180.411 189.451 178.934 187.964 178.934 186.145C178.934 184.327 180.411 182.839 182.216 182.839C184.021 183.004 185.498 184.327 185.498 186.145Z" fill="white"/>
<path d="M203.882 186.145C203.882 187.964 202.405 189.452 200.6 189.452C198.794 189.452 197.317 187.964 197.317 186.145C197.317 184.327 198.794 182.839 200.6 182.839C202.569 183.004 203.882 184.327 203.882 186.145Z" fill="white"/>
<path d="M222.426 186.146C222.426 187.965 220.949 189.452 219.144 189.452C217.338 189.452 215.861 187.965 215.861 186.146C215.861 184.328 217.338 182.84 219.144 182.84C220.949 183.005 222.426 184.328 222.426 186.146Z" fill="white"/>
<path d="M240.97 186.145C240.97 187.964 239.493 189.452 237.688 189.452C235.882 189.452 234.405 187.964 234.405 186.145C234.405 184.327 235.882 182.839 237.688 182.839C239.493 183.004 240.97 184.327 240.97 186.145Z" fill="white"/>
<path d="M259.351 186.145C259.351 187.964 257.874 189.452 256.068 189.452C254.263 189.452 252.786 187.964 252.786 186.145C252.786 184.327 254.263 182.839 256.068 182.839C258.038 183.004 259.351 184.327 259.351 186.145Z" fill="white"/>
<path d="M277.897 186.145C277.897 187.964 276.42 189.452 274.614 189.452C272.809 189.452 271.332 187.964 271.332 186.145C271.332 184.327 272.809 182.839 274.614 182.839C276.42 183.004 277.897 184.327 277.897 186.145Z" fill="white"/>
</g>
<defs>
<filter id="filter0_d" x="0.146484" y="0" width="286" height="332" filterUnits="userSpaceOnUse" color-interpolation-filters="sRGB">
<feFlood flood-opacity="0" result="BackgroundImageFix"/>
<feColorMatrix in="SourceAlpha" type="matrix" values="0 0 0 0 0 0 0 0 0 0 0 0 0 0 0 0 0 0 127 0"/>
<feOffset dx="6" dy="6"/>
<feColorMatrix type="matrix" values="0 0 0 0 0 0 0 0 0 0 0 0 0 0 0 0 0 0 0.09 0"/>
<feBlend mode="normal" in2="BackgroundImageFix" result="effect1_dropShadow"/>
<feBlend mode="normal" in="SourceGraphic" in2="effect1_dropShadow" result="shape"/>
</filter>
</defs>
</svg>
