<svg width="100%" height="100%" viewBox="0 0 133 140" fill="none" xmlns="http://www.w3.org/2000/svg">
<g filter="url(#filter0_d)">
<g clip-path="url(#clip0)">
<path d="M100.08 113.498C97.0482 115.789 93.1919 116.823 89.41 116.297C85.6281 115.77 82.261 113.803 79.9097 110.691C76.6541 106.383 76.1733 100.604 78.4158 95.7763L68.83 83.0908L65.7982 85.3818L61.3369 79.4779C50.2308 83.358 37.8211 80.7028 29.0317 72.5545L28.9111 72.3949C28.2887 71.7372 27.6468 71.2195 27.1645 70.5812L27.0439 70.4217C26.2815 69.7444 25.7389 69.0264 25.1963 68.3083C21.2173 63.0427 18.9545 56.7308 18.6508 50.1918L18.61 49.972C18.6082 49.472 18.6064 48.972 18.6046 48.472L18.6241 48.3319C18.6223 47.8319 18.7003 47.2716 18.6985 46.7716L18.718 46.6316C18.7162 46.1316 18.8544 45.6511 18.8526 45.1511L18.8721 45.011C19.8999 36.0872 24.4313 28.1508 31.532 22.7851C38.7124 17.3592 47.5048 15.2274 56.3701 16.6754L56.9303 16.7534C57.2708 16.8722 57.6307 16.8509 57.9711 16.9696C58.5314 17.0476 59.0722 17.2657 59.6325 17.3436L59.7726 17.3631C60.2531 17.5014 60.7336 17.6397 61.2141 17.7779L61.3541 17.7974C61.8346 17.9357 62.3754 18.1537 62.7761 18.3523L62.9162 18.3718C68.2035 20.3927 72.8562 23.8959 76.4522 28.323L77.3566 29.5197C77.7183 29.9984 78.1403 30.5569 78.4826 31.1757L78.7237 31.4948C79.1262 32.1933 79.589 32.9717 79.9916 33.6702L80.1121 33.8298C85.5313 44.6503 84.697 57.3134 77.992 67.0177L82.4533 72.9216L79.8205 74.9111L89.527 87.7561C94.6244 87.0377 99.6919 89.0994 102.887 93.3279C107.71 99.7106 106.383 108.735 100.08 113.498ZM89.9143 100.875C89.3966 101.517 89.4003 102.517 89.8826 103.155C90.3046 103.713 90.8649 103.791 91.2053 103.91C91.4854 103.949 92.1255 103.967 92.684 103.545C93.5616 102.882 93.6573 101.681 93.0544 100.883C92.5118 100.165 91.6111 99.9687 90.8522 100.291L89.9143 100.875ZM70.4498 71.9649L71.2476 71.362L67.8715 66.8942L69.9227 64.4668C76.2555 56.9239 77.4375 46.3795 72.9458 37.6157L72.8252 37.4561C72.483 36.8374 72.201 36.2984 71.8393 35.8197L71.6584 35.5803C71.4173 35.2612 71.3162 34.9616 71.075 34.6424L70.5342 34.4244L70.3711 33.545C67.6989 30.1746 64.2094 27.5472 60.1437 25.9818L60.0036 25.9623C59.6632 25.8436 59.2625 25.645 58.8422 25.5865L58.7022 25.567C58.3617 25.4483 57.9415 25.3898 57.6011 25.271C57.1206 25.1328 56.7004 25.0743 56.36 24.9555C55.9397 24.897 55.4592 24.7588 55.039 24.7003L54.8989 24.6808C48.2145 23.4649 41.7005 25.1284 36.355 29.1678C31.0096 33.2071 27.6111 39.1594 26.7551 45.8225L26.7959 46.0424C26.7569 46.3225 26.6984 46.7428 26.7197 47.1027C26.6613 47.5229 26.7428 47.9626 26.6844 48.3828L26.6649 48.5229C26.6862 48.8828 26.6277 49.303 26.649 49.663L26.6295 49.803C26.8674 54.7622 28.5645 59.4961 31.5789 63.4852C31.9407 63.9639 32.3627 64.5224 32.9248 65.1004L32.9851 65.1802C33.4266 65.5986 33.8486 66.1571 34.2901 66.5755L34.3504 66.6553C41.5547 73.3693 52.021 75.1115 61.0065 71.079L63.9018 69.7686L67.278 74.2364L70.4498 71.9649Z" fill="white"/>
<path d="M87.9024 92.2422L74.2169 74.1315L76.8497 72.142L71.3635 64.8818L61.1513 72.5987L66.6375 79.8589L69.6693 77.568L83.2945 95.5989C80.4277 99.2693 80.2064 104.45 83.1003 108.28C86.5367 112.827 93.0403 113.804 97.6677 110.307C102.215 106.871 103.192 100.367 99.6951 95.7397C96.9218 92.0697 92.0973 90.8271 87.9024 92.2422ZM95.015 106.797C92.3822 108.786 88.68 108.2 86.7508 105.646C84.9421 103.253 85.2504 100.012 87.2432 98.0047L88.7591 96.8592C91.2341 95.4902 94.4966 96.1585 96.2449 98.4722C98.0944 101.085 97.6478 104.807 95.015 106.797Z" fill="#F789C6"/>
<path d="M73.8635 31.5323C83.3891 44.138 80.9133 61.9271 68.3076 71.4527C55.7817 80.918 37.9129 78.5025 28.3873 65.8968C18.922 53.3709 21.4173 35.4418 33.9432 25.9765C46.5489 16.4509 64.3982 19.0064 73.8635 31.5323Z" fill="#FDCDE3"/>
<path d="M22.8133 45.4168C22.5404 47.3778 22.5476 49.3778 22.7552 51.477C51.1889 44.1543 61.4498 22.2371 61.5296 22.1768C59.6271 21.4837 57.7051 20.9306 55.6838 20.5779C43.4565 40.7222 22.8133 45.4168 22.8133 45.4168Z" fill="#F789C6"/>
<path d="M28.5085 66.0563C30.4378 68.6094 32.7854 70.7209 35.3316 72.4317C58.7618 64.1271 72.1472 48.9986 78.3753 40.1561C77.4443 37.0994 75.914 34.2449 73.9244 31.6121C58.334 56.4286 33.863 64.517 28.5085 66.0563Z" fill="#F789C6"/>
</g>
</g>
<defs>
<filter id="filter0_d" x="0" y="0" width="132.01" height="141.503" filterUnits="userSpaceOnUse" color-interpolation-filters="sRGB">
<feFlood flood-opacity="0" result="BackgroundImageFix"/>
<feColorMatrix in="SourceAlpha" type="matrix" values="0 0 0 0 0 0 0 0 0 0 0 0 0 0 0 0 0 0 127 0"/>
<feOffset dx="6" dy="6"/>
<feColorMatrix type="matrix" values="0 0 0 0 0 0 0 0 0 0 0 0 0 0 0 0 0 0 0.09 0"/>
<feBlend mode="normal" in2="BackgroundImageFix" result="effect1_dropShadow"/>
<feBlend mode="normal" in="SourceGraphic" in2="effect1_dropShadow" result="shape"/>
</filter>
<clipPath id="clip0">
<rect y="41.5991" width="69" height="117.7" transform="rotate(-37.0768 0 41.5991)" fill="white"/>
</clipPath>
</defs>
</svg>
