<svg width="100%" height="100%" viewBox="0 0 280 324" fill="none" xmlns="http://www.w3.org/2000/svg">
<mask id="mask0" mask-type="alpha" maskUnits="userSpaceOnUse" x="0" y="0" width="280" height="324">
<path fill-rule="evenodd" clip-rule="evenodd" d="M280 0.641602H0V323.498H280V0.641602ZM261.487 19.2678H18.5116V214.068H261.487V19.2678Z" fill="#FFE6AE"/>
</mask>
<g mask="url(#mask0)">
<path d="M12.4447 -13.6655L14.8681 -8.74696L20.2996 -7.99667L16.3722 -4.16185L17.2914 1.25691L12.4447 -1.32742L7.5981 1.25691L8.51729 -4.16185L4.58984 -7.99667L10.0214 -8.74696L12.4447 -13.6655Z" fill="white"/>
<path d="M58.4877 -13.666L60.911 -8.74745L66.3426 -7.99715L62.4151 -4.16234L63.3343 1.25642L58.4877 -1.32791L53.6411 1.25642L54.5603 -4.16234L50.6328 -7.99715L56.0644 -8.74745L58.4877 -13.666Z" fill="white"/>
<path d="M104.614 -13.666L107.037 -8.74745L112.469 -7.99715L108.541 -4.16234L109.46 1.25642L104.614 -1.32791L99.767 1.25642L100.686 -4.16234L96.7588 -7.99715L102.19 -8.74745L104.614 -13.666Z" fill="white"/>
<path d="M150.657 -13.666L153.08 -8.74745L158.512 -7.99715L154.584 -4.16234L155.503 1.25642L150.657 -1.32791L145.81 1.25642L146.729 -4.16234L142.802 -7.99715L148.233 -8.74745L150.657 -13.666Z" fill="white"/>
<path d="M0.912495 3.5918L3.33581 8.51037L8.76737 9.26065L4.83994 13.0955L5.75912 18.5142L0.912495 15.9299L-3.93413 18.5142L-3.01494 13.0955L-6.94238 9.26065L-1.51082 8.51037L0.912495 3.5918Z" fill="white"/>
<path d="M23.9775 7.00879L25.231 9.67662L28.1557 10.0935L26.0666 12.1777L26.568 15.0123L23.9775 13.6784L21.3035 15.0123L21.8049 12.1777L19.7158 10.0935L22.6405 9.67662L23.9775 7.00879Z" fill="white"/>
<path d="M46.9565 3.59082L49.3798 8.50939L54.8114 9.25968L50.8839 13.0945L51.8031 18.5133L46.9565 15.9289L42.1098 18.5133L43.029 13.0945L39.1016 9.25968L44.5331 8.50939L46.9565 3.59082Z" fill="white"/>
<path d="M70.019 7.00879L71.356 9.67649L74.2807 10.0933L72.108 12.1775L72.6094 15.0119L70.019 13.6781L67.4285 15.0119L67.9299 12.1775L65.8408 10.0933L68.682 9.67649L70.019 7.00879Z" fill="white"/>
<path d="M93.0834 3.59082L95.5067 8.50939L100.938 9.25968L97.0108 13.0945L97.93 18.5133L93.0834 15.9289L88.2368 18.5133L89.156 13.0945L85.2285 9.25968L90.6601 8.50939L93.0834 3.59082Z" fill="white"/>
<path d="M116.146 7.00879L117.4 9.67649L120.325 10.0933L118.236 12.1775L118.737 15.0119L116.146 13.6781L113.472 15.0119L113.974 12.1775L111.885 10.0933L114.809 9.67649L116.146 7.00879Z" fill="white"/>
<path d="M139.126 3.59082L141.55 8.50939L146.981 9.25968L143.054 13.0945L143.973 18.5133L139.126 15.9289L134.28 18.5133L135.199 13.0945L131.271 9.25968L136.703 8.50939L139.126 3.59082Z" fill="white"/>
<path d="M162.19 7.00879L163.527 9.67649L166.452 10.0933L164.279 12.1775L164.78 15.0119L162.19 13.6781L159.599 15.0119L160.101 12.1775L158.012 10.0933L160.853 9.67649L162.19 7.00879Z" fill="white"/>
<path d="M12.4438 20.8472L14.8671 25.7659L20.2987 26.5162L16.3712 30.3511L17.2904 35.6866L12.4438 33.1856L7.59713 35.6866L8.51632 30.3511L4.58887 26.5162L10.0204 25.7659L12.4438 20.8472Z" fill="white"/>
<path d="M35.4242 24.2651L36.7612 26.9328L39.6859 27.3497L37.5969 29.3505L38.0982 32.2683L35.4242 30.9344L32.8338 32.2683L33.3352 29.3505L31.2461 27.3497L34.1708 26.9328L35.4242 24.2651Z" fill="white"/>
<path d="M58.4877 20.8472L60.911 25.7657L66.3426 26.516L62.4151 30.3508L63.3343 35.6862L58.4877 33.1853L53.6411 35.6862L54.5603 30.3508L50.6328 26.516L56.0644 25.7657L58.4877 20.8472Z" fill="white"/>
<path d="M81.5498 24.2651L82.8868 26.9328L85.7279 27.3497L83.6388 29.3505L84.1402 32.2683L81.5498 30.9344L78.9593 32.2683L79.4607 29.3505L77.2881 27.3497L80.2128 26.9328L81.5498 24.2651Z" fill="white"/>
<path d="M104.614 20.8472L107.037 25.7657L112.469 26.516L108.541 30.3508L109.46 35.6862L104.614 33.1853L99.767 35.6862L100.686 30.3508L96.7588 26.516L102.19 25.7657L104.614 20.8472Z" fill="white"/>
<path d="M127.593 24.2651L128.93 26.9328L131.855 27.3497L129.766 29.3505L130.267 32.2683L127.593 30.9344L125.003 32.2683L125.504 29.3505L123.415 27.3497L126.34 26.9328L127.593 24.2651Z" fill="white"/>
<path d="M150.656 20.8472L153.079 25.7657L158.511 26.516L154.583 30.3508L155.502 35.6862L150.656 33.1853L145.809 35.6862L146.728 30.3508L142.801 26.516L148.232 25.7657L150.656 20.8472Z" fill="white"/>
<path d="M173.72 24.2651L175.057 26.9328L177.898 27.3497L175.809 29.3505L176.31 32.2683L173.72 30.9344L171.129 32.2683L171.631 29.3505L169.458 27.3497L172.383 26.9328L173.72 24.2651Z" fill="white"/>
<path d="M0.912495 38.1045L3.33581 42.9396L8.76737 43.7732L4.83994 47.6079L5.75912 52.9432L0.912495 50.4423L-3.93413 52.9432L-3.01494 47.6079L-6.94238 43.7732L-1.51082 42.9396L0.912495 38.1045Z" fill="white"/>
<path d="M23.9775 41.522L25.231 44.1062L28.1557 44.6064L26.0666 46.6071L26.568 49.5247L23.9775 48.1076L21.3035 49.5247L21.8049 46.6071L19.7158 44.6064L22.6405 44.1062L23.9775 41.522Z" fill="white"/>
<path d="M46.9565 38.1045L49.3798 42.9396L54.8114 43.7732L50.8839 47.6079L51.8031 52.9432L46.9565 50.4423L42.1098 52.9432L43.029 47.6079L39.1016 43.7732L44.5331 42.9396L46.9565 38.1045Z" fill="white"/>
<path d="M70.019 41.522L71.356 44.1063L74.2807 44.6065L72.108 46.6073L72.6094 49.5251L70.019 48.1079L67.4285 49.5251L67.9299 46.6073L65.8408 44.6065L68.682 44.1063L70.019 41.522Z" fill="white"/>
<path d="M93.0834 38.1045L95.5067 42.9396L100.938 43.7732L97.0108 47.6079L97.93 52.9432L93.0834 50.4423L88.2368 52.9432L89.156 47.6079L85.2285 43.7732L90.6601 42.9396L93.0834 38.1045Z" fill="white"/>
<path d="M116.146 41.522L117.4 44.1063L120.325 44.6065L118.236 46.6073L118.737 49.5251L116.146 48.1079L113.472 49.5251L113.974 46.6073L111.885 44.6065L114.809 44.1063L116.146 41.522Z" fill="white"/>
<path d="M139.126 38.1045L141.55 42.9396L146.981 43.7732L143.054 47.6079L143.973 52.9432L139.126 50.4423L134.28 52.9432L135.199 47.6079L131.271 43.7732L136.703 42.9396L139.126 38.1045Z" fill="white"/>
<path d="M162.19 41.522L163.527 44.1063L166.452 44.6065L164.279 46.6073L164.78 49.5251L162.19 48.1079L159.599 49.5251L160.101 46.6073L158.012 44.6065L160.853 44.1063L162.19 41.522Z" fill="white"/>
<path d="M12.4447 55.2783L14.8681 60.197L20.2996 61.0307L16.3722 64.7822L17.2914 70.2011L12.4447 67.6167L7.5981 70.2011L8.51729 64.7822L4.58984 61.0307L10.0214 60.197L12.4447 55.2783Z" fill="white"/>
<path d="M35.4242 58.7793L36.7612 61.3636L39.6859 61.7805L37.5968 63.8646L38.0982 66.7824L35.4242 65.3652L32.8338 66.7824L33.3352 63.8646L31.2461 61.7805L34.1708 61.3636L35.4242 58.7793Z" fill="white"/>
<path d="M58.4877 55.2778L60.911 60.1964L66.3426 61.0301L62.4151 64.7815L63.3343 70.2003L58.4877 67.6159L53.6411 70.2003L54.5603 64.7815L50.6328 61.0301L56.0644 60.1964L58.4877 55.2778Z" fill="white"/>
<path d="M81.5498 58.7793L82.8868 61.3636L85.7279 61.7805L83.6388 63.8646L84.1402 66.7824L81.5498 65.3652L78.9593 66.7824L79.4607 63.8646L77.2881 61.7805L80.2128 61.3636L81.5498 58.7793Z" fill="white"/>
<path d="M104.614 55.2778L107.037 60.1964L112.469 61.0301L108.541 64.7815L109.46 70.2003L104.614 67.6159L99.767 70.2003L100.686 64.7815L96.7588 61.0301L102.19 60.1964L104.614 55.2778Z" fill="white"/>
<path d="M127.593 58.7793L128.93 61.3636L131.855 61.7805L129.766 63.8646L130.267 66.7824L127.593 65.3652L125.003 66.7824L125.504 63.8646L123.415 61.7805L126.34 61.3636L127.593 58.7793Z" fill="white"/>
<path d="M150.657 55.2778L153.08 60.1964L158.512 61.0301L154.584 64.7815L155.503 70.2003L150.657 67.6159L145.81 70.2003L146.729 64.7815L142.802 61.0301L148.233 60.1964L150.657 55.2778Z" fill="white"/>
<path d="M173.721 58.7793L175.058 61.3636L177.899 61.7805L175.81 63.8646L176.311 66.7824L173.721 65.3652L171.13 66.7824L171.632 63.8646L169.459 61.7805L172.384 61.3636L173.721 58.7793Z" fill="white"/>
<path d="M0.912495 72.5356L3.33581 77.4541L8.76737 78.2044L4.83994 82.0391L5.75912 87.4577L0.912495 84.8734L-3.93413 87.4577L-3.01494 82.0391L-6.94238 78.2044L-1.51082 77.4541L0.912495 72.5356Z" fill="white"/>
<path d="M23.9775 75.9536L25.231 78.6212L28.1557 79.038L26.0666 81.122L26.568 83.9564L23.9775 82.6226L21.3035 83.9564L21.8049 81.122L19.7158 79.038L22.6405 78.6212L23.9775 75.9536Z" fill="white"/>
<path d="M46.9565 72.5352L49.3798 77.4536L54.8114 78.2039L50.8839 82.0386L51.8031 87.4572L46.9565 84.8729L42.1098 87.4572L43.029 82.0386L39.1016 78.2039L44.5331 77.4536L46.9565 72.5352Z" fill="white"/>
<path d="M70.019 75.9536L71.356 78.6212L74.2807 79.038L72.108 81.122L72.6094 83.9564L70.019 82.6226L67.4285 83.9564L67.9299 81.122L65.8408 79.038L68.682 78.6212L70.019 75.9536Z" fill="white"/>
<path d="M93.0834 72.5352L95.5067 77.4536L100.938 78.2039L97.0108 82.0386L97.93 87.4572L93.0834 84.8729L88.2368 87.4572L89.156 82.0386L85.2285 78.2039L90.6601 77.4536L93.0834 72.5352Z" fill="white"/>
<path d="M116.146 75.9536L117.4 78.6212L120.325 79.038L118.236 81.122L118.737 83.9564L116.146 82.6226L113.472 83.9564L113.974 81.122L111.885 79.038L114.809 78.6212L116.146 75.9536Z" fill="white"/>
<path d="M139.126 72.5352L141.55 77.4536L146.981 78.2039L143.054 82.0386L143.973 87.4572L139.126 84.8729L134.28 87.4572L135.199 82.0386L131.271 78.2039L136.703 77.4536L139.126 72.5352Z" fill="white"/>
<path d="M162.19 75.9536L163.527 78.6212L166.452 79.038L164.279 81.122L164.78 83.9564L162.19 82.6226L159.599 83.9564L160.101 81.122L158.012 79.038L160.853 78.6212L162.19 75.9536Z" fill="white"/>
<path d="M187.541 8.96533L189.965 13.8839L195.396 14.6342L191.469 18.469L192.388 23.8878L187.541 21.3034L182.695 23.8878L183.614 18.469L179.687 14.6342L185.118 13.8839L187.541 8.96533Z" fill="white"/>
<path d="M210.521 12.3833L211.858 15.051L214.783 15.4678L212.694 17.552L213.195 20.3864L210.521 19.0526L207.93 20.3864L208.432 17.552L206.343 15.4678L209.267 15.051L210.521 12.3833Z" fill="white"/>
<path d="M233.583 8.96484L236.007 13.8834L241.438 14.6337L237.511 18.4685L238.43 23.8873L233.583 21.3029L228.737 23.8873L229.656 18.4685L225.729 14.6337L231.16 13.8834L233.583 8.96484Z" fill="white"/>
<path d="M256.646 12.3833L257.983 15.051L260.825 15.4678L258.736 17.552L259.237 20.3864L256.646 19.0526L254.056 20.3864L254.557 17.552L252.385 15.4678L255.309 15.051L256.646 12.3833Z" fill="white"/>
<path d="M279.71 8.96484L282.134 13.8834L287.565 14.6337L283.638 18.4685L284.557 23.8873L279.71 21.3029L274.864 23.8873L275.783 18.4685L271.855 14.6337L277.287 13.8834L279.71 8.96484Z" fill="white"/>
<path d="M176.009 26.2231L178.432 31.1416L183.864 31.8919L179.937 35.7266L180.856 41.0618L176.009 38.5609L171.163 41.0618L172.082 35.7266L168.154 31.8919L173.586 31.1416L176.009 26.2231Z" fill="white"/>
<path d="M199.072 29.6401L200.326 32.3077L203.25 32.7245L201.161 34.7252L201.663 37.6429L199.072 36.3091L196.398 37.6429L196.9 34.7252L194.811 32.7245L197.735 32.3077L199.072 29.6401Z" fill="white"/>
<path d="M222.052 26.2227L224.475 31.1411L229.907 31.8914L225.98 35.7261L226.899 41.0613L222.052 38.5604L217.206 41.0613L218.125 35.7261L214.197 31.8914L219.629 31.1411L222.052 26.2227Z" fill="white"/>
<path d="M245.115 29.6401L246.452 32.3078L249.376 32.7247L247.204 34.7255L247.705 37.6433L245.115 36.3094L242.524 37.6433L243.026 34.7255L240.937 32.7247L243.778 32.3078L245.115 29.6401Z" fill="white"/>
<path d="M268.178 26.2227L270.601 31.1411L276.033 31.8914L272.106 35.7261L273.025 41.0613L268.178 38.5604L263.332 41.0613L264.251 35.7261L260.323 31.8914L265.755 31.1411L268.178 26.2227Z" fill="white"/>
<path d="M187.541 43.479L189.965 48.3142L195.396 49.1479L191.469 52.9827L192.388 58.3181L187.541 55.8171L182.695 58.3181L183.614 52.9827L179.687 49.1479L185.118 48.3142L187.541 43.479Z" fill="white"/>
<path d="M210.521 46.8965L211.858 49.4809L214.783 49.9812L212.694 51.982L213.195 54.9L210.521 53.4827L207.93 54.9L208.432 51.982L206.343 49.9812L209.267 49.4809L210.521 46.8965Z" fill="white"/>
<path d="M233.583 43.4785L236.007 48.3137L241.438 49.1474L237.511 52.9822L238.43 58.3176L233.583 55.8166L228.737 58.3176L229.656 52.9822L225.729 49.1474L231.16 48.3137L233.583 43.4785Z" fill="white"/>
<path d="M256.646 46.8965L257.983 49.4809L260.825 49.9812L258.736 51.982L259.237 54.9L256.646 53.4827L254.056 54.9L254.557 51.982L252.385 49.9812L255.309 49.4809L256.646 46.8965Z" fill="white"/>
<path d="M279.71 43.4785L282.134 48.3137L287.565 49.1474L283.638 52.9822L284.557 58.3176L279.71 55.8166L274.864 58.3176L275.783 52.9822L271.855 49.1474L277.287 48.3137L279.71 43.4785Z" fill="white"/>
<path d="M176.009 60.6519L178.432 65.5704L183.864 66.4041L179.937 70.1555L180.856 75.5743L176.009 72.99L171.163 75.5743L172.082 70.1555L168.154 66.4041L173.586 65.5704L176.009 60.6519Z" fill="white"/>
<path d="M199.072 64.1538L200.326 66.7382L203.25 67.155L201.161 69.2391L201.663 72.1569L199.072 70.7397L196.398 72.1569L196.9 69.2391L194.811 67.155L197.735 66.7382L199.072 64.1538Z" fill="white"/>
<path d="M222.052 60.6519L224.475 65.5704L229.907 66.4041L225.98 70.1555L226.899 75.5743L222.052 72.99L217.206 75.5743L218.125 70.1555L214.197 66.4041L219.629 65.5704L222.052 60.6519Z" fill="white"/>
<path d="M245.115 64.1533L246.452 66.7378L249.376 67.1546L247.204 69.2389L247.705 72.1568L245.115 70.7395L242.524 72.1568L243.026 69.2389L240.937 67.1546L243.778 66.7378L245.115 64.1533Z" fill="white"/>
<path d="M268.178 60.6519L270.601 65.5704L276.033 66.4041L272.106 70.1555L273.025 75.5743L268.178 72.99L263.332 75.5743L264.251 70.1555L260.323 66.4041L265.755 65.5704L268.178 60.6519Z" fill="white"/>
<path d="M187.541 77.9097L189.965 82.8282L195.396 83.5785L191.469 87.4133L192.388 92.8321L187.541 90.2478L182.695 92.8321L183.614 87.4133L179.687 83.5785L185.118 82.8282L187.541 77.9097Z" fill="white"/>
<path d="M210.521 81.3267L211.858 83.9944L214.783 84.4112L212.694 86.4953L213.195 89.3298L210.521 87.9959L207.93 89.3298L208.432 86.4953L206.343 84.4112L209.267 83.9944L210.521 81.3267Z" fill="white"/>
<path d="M233.583 77.9092L236.007 82.8278L241.438 83.578L237.511 87.4129L238.43 92.8316L233.583 90.2473L228.737 92.8316L229.656 87.4129L225.729 83.578L231.16 82.8278L233.583 77.9092Z" fill="white"/>
<path d="M256.646 81.3271L257.983 83.9949L260.825 84.4117L258.736 86.4958L259.237 89.3303L256.646 87.9964L254.056 89.3303L254.557 86.4958L252.385 84.4117L255.309 83.9949L256.646 81.3271Z" fill="white"/>
<path d="M279.71 77.9092L282.134 82.8278L287.565 83.578L283.638 87.4129L284.557 92.8316L279.71 90.2473L274.864 92.8316L275.783 87.4129L271.855 83.578L277.287 82.8278L279.71 77.9092Z" fill="white"/>
<path d="M176.009 95.166L178.432 100.085L183.864 100.835L179.937 104.67L180.856 110.088L176.009 107.504L171.163 110.088L172.082 104.67L168.154 100.835L173.586 100.085L176.009 95.166Z" fill="white"/>
<path d="M199.072 98.5835L200.326 101.251L203.25 101.668L201.161 103.752L201.663 106.587L199.072 105.253L196.398 106.587L196.9 103.752L194.811 101.668L197.735 101.251L199.072 98.5835Z" fill="white"/>
<path d="M222.052 95.1655L224.475 100.084L229.907 100.834L225.98 104.669L226.899 110.088L222.052 107.503L217.206 110.088L218.125 104.669L214.197 100.834L219.629 100.084L222.052 95.1655Z" fill="white"/>
<path d="M245.115 98.5835L246.452 101.251L249.376 101.668L247.204 103.752L247.705 106.586L245.115 105.252L242.524 106.586L243.026 103.752L240.937 101.668L243.778 101.251L245.115 98.5835Z" fill="white"/>
<path d="M268.178 95.1655L270.601 100.084L276.033 100.834L272.106 104.669L273.025 110.088L268.178 107.503L263.332 110.088L264.251 104.669L260.323 100.834L265.755 100.084L268.178 95.1655Z" fill="white"/>
<path d="M187.541 112.422L189.965 117.34L195.396 118.091L191.469 121.926L192.388 127.261L187.541 124.76L182.695 127.261L183.614 121.926L179.687 118.091L185.118 117.34L187.541 112.422Z" fill="white"/>
<path d="M210.521 115.84L211.858 118.508L214.783 118.925L212.694 120.926L213.195 123.843L210.521 122.51L207.93 123.843L208.432 120.926L206.343 118.925L209.267 118.508L210.521 115.84Z" fill="white"/>
<path d="M233.584 112.422L236.008 117.341L241.439 118.091L237.512 121.926L238.431 127.261L233.584 124.76L228.738 127.261L229.657 121.926L225.729 118.091L231.161 117.341L233.584 112.422Z" fill="white"/>
<path d="M256.647 115.84L257.984 118.508L260.826 118.925L258.737 120.926L259.238 123.843L256.647 122.51L254.057 123.843L254.558 120.926L252.386 118.925L255.31 118.508L256.647 115.84Z" fill="white"/>
<path d="M279.711 112.422L282.135 117.341L287.566 118.091L283.639 121.926L284.558 127.261L279.711 124.76L274.865 127.261L275.784 121.926L271.856 118.091L277.288 117.341L279.711 112.422Z" fill="white"/>
<path d="M176.01 129.679L178.433 134.514L183.865 135.348L179.938 139.183L180.857 144.518L176.01 142.017L171.164 144.518L172.083 139.183L168.155 135.348L173.587 134.514L176.01 129.679Z" fill="white"/>
<path d="M199.073 133.098L200.327 135.682L203.251 136.182L201.162 138.183L201.664 141.1L199.073 139.683L196.399 141.1L196.901 138.183L194.812 136.182L197.736 135.682L199.073 133.098Z" fill="white"/>
<path d="M222.053 129.679L224.476 134.514L229.908 135.348L225.981 139.183L226.9 144.518L222.053 142.017L217.206 144.518L218.126 139.183L214.198 135.348L219.63 134.514L222.053 129.679Z" fill="white"/>
<path d="M245.116 133.098L246.453 135.682L249.377 136.182L247.205 138.183L247.706 141.101L245.116 139.684L242.525 141.101L243.027 138.183L240.938 136.182L243.779 135.682L245.116 133.098Z" fill="white"/>
<path d="M268.179 129.679L270.602 134.514L276.034 135.348L272.107 139.183L273.026 144.518L268.179 142.017L263.332 144.518L264.252 139.183L260.324 135.348L265.756 134.514L268.179 129.679Z" fill="white"/>
<path d="M187.542 146.854L189.966 151.772L195.397 152.606L191.47 156.357L192.389 161.776L187.542 159.192L182.696 161.776L183.615 156.357L179.688 152.606L185.119 151.772L187.542 146.854Z" fill="white"/>
<path d="M210.522 150.355L211.859 152.94L214.784 153.356L212.695 155.441L213.196 158.358L210.522 156.941L207.931 158.358L208.433 155.441L206.344 153.356L209.268 152.94L210.522 150.355Z" fill="white"/>
<path d="M233.584 146.854L236.008 151.772L241.439 152.606L237.512 156.357L238.431 161.776L233.584 159.192L228.738 161.776L229.657 156.357L225.729 152.606L231.161 151.772L233.584 146.854Z" fill="white"/>
<path d="M256.647 150.355L257.984 152.94L260.826 153.356L258.737 155.441L259.238 158.358L256.647 156.941L254.057 158.358L254.558 155.441L252.386 153.356L255.31 152.94L256.647 150.355Z" fill="white"/>
<path d="M279.711 146.854L282.135 151.772L287.566 152.606L283.639 156.357L284.558 161.776L279.711 159.192L274.865 161.776L275.784 156.357L271.856 152.606L277.288 151.772L279.711 146.854Z" fill="white"/>
<path d="M176.01 164.109L178.433 169.028L183.865 169.778L179.938 173.613L180.857 179.032L176.01 176.447L171.164 179.032L172.083 173.613L168.155 169.778L173.587 169.028L176.01 164.109Z" fill="white"/>
<path d="M199.073 167.527L200.327 170.195L203.251 170.612L201.162 172.696L201.664 175.53L199.073 174.196L196.399 175.53L196.901 172.696L194.812 170.612L197.736 170.195L199.073 167.527Z" fill="white"/>
<path d="M222.053 164.109L224.476 169.028L229.908 169.778L225.981 173.613L226.9 179.032L222.053 176.448L217.206 179.032L218.126 173.613L214.198 169.778L219.63 169.028L222.053 164.109Z" fill="white"/>
<path d="M245.116 167.527L246.453 170.195L249.377 170.612L247.205 172.696L247.706 175.53L245.116 174.196L242.525 175.53L243.027 172.696L240.938 170.612L243.779 170.195L245.116 167.527Z" fill="white"/>
<path d="M268.179 164.109L270.602 169.028L276.034 169.778L272.107 173.613L273.026 179.032L268.179 176.448L263.332 179.032L264.252 173.613L260.324 169.778L265.756 169.028L268.179 164.109Z" fill="white"/>
<path d="M179.093 -13.6514L181.516 -8.7328L186.948 -7.98252L183.021 -4.14769L183.94 1.27107L179.093 -1.31327L174.247 1.27107L175.166 -4.14769L171.238 -7.98252L176.67 -8.7328L179.093 -13.6514Z" fill="white"/>
<path d="M225.135 -13.6523L227.558 -8.73378L232.99 -7.98349L229.063 -4.14867L229.982 1.2701L225.135 -1.31424L220.289 1.2701L221.208 -4.14867L217.28 -7.98349L222.712 -8.73378L225.135 -13.6523Z" fill="white"/>
<path d="M271.263 -13.6523L273.686 -8.73378L279.118 -7.98349L275.191 -4.14867L276.11 1.2701L271.263 -1.31424L266.416 1.2701L267.336 -4.14867L263.408 -7.98349L268.84 -8.73378L271.263 -13.6523Z" fill="white"/>
<path d="M13.3559 97.4614L15.7792 102.38L21.2108 103.13L17.2833 106.965L18.2025 112.384L13.3559 109.8L8.50924 112.384L9.42842 106.965L5.50098 103.13L10.9326 102.38L13.3559 97.4614Z" fill="white"/>
<path d="M36.4199 100.88L37.7569 103.548L40.598 103.964L38.509 106.049L39.0104 108.883L36.4199 107.549L33.8295 108.883L34.3308 106.049L32.1582 103.964L35.0829 103.548L36.4199 100.88Z" fill="white"/>
<path d="M1.82363 114.718L4.24694 119.637L9.67851 120.387L5.75107 124.222L6.67026 129.558L1.82363 127.057L-3.02299 129.558L-2.1038 124.222L-6.03125 120.387L-0.599687 119.637L1.82363 114.718Z" fill="white"/>
<path d="M24.8861 118.137L26.2232 120.805L29.1478 121.221L26.9752 123.222L27.4766 126.14L24.8861 124.806L22.2957 126.14L22.7971 123.222L20.708 121.221L23.5491 120.805L24.8861 118.137Z" fill="white"/>
<path d="M13.3559 131.975L15.7792 136.81L21.2108 137.643L17.2833 141.478L18.2025 146.814L13.3559 144.313L8.50924 146.814L9.42842 141.478L5.50098 137.643L10.9326 136.81L13.3559 131.975Z" fill="white"/>
<path d="M36.4199 135.393L37.7569 137.977L40.598 138.477L38.509 140.478L39.0104 143.396L36.4199 141.978L33.8295 143.396L34.3308 140.478L32.1582 138.477L35.0829 137.977L36.4199 135.393Z" fill="white"/>
<path d="M1.82363 149.148L4.24694 154.067L9.67851 154.901L5.75107 158.652L6.67026 164.07L1.82363 161.486L-3.02299 164.07L-2.1038 158.652L-6.03125 154.901L-0.599687 154.067L1.82363 149.148Z" fill="white"/>
<path d="M24.8861 152.65L26.2232 155.235L29.1478 155.652L26.9752 157.736L27.4766 160.654L24.8861 159.236L22.2957 160.654L22.7971 157.736L20.708 155.652L23.5491 155.235L24.8861 152.65Z" fill="white"/>
</g>
</svg>
