<svg width="100%" height="100%" viewBox="0 0 287 327" fill="none" xmlns="http://www.w3.org/2000/svg">
<g filter="url(#filter0_d)">
<path fill-rule="evenodd" clip-rule="evenodd" d="M280.332 10C280.332 4.47715 275.855 0 270.332 0H10.332C4.80918 0 0.332031 4.47716 0.332031 10V311C0.332031 316.523 4.80918 321 10.332 321H270.332C275.855 321 280.332 316.523 280.332 311V10ZM261.82 28.5192C261.82 22.9963 257.343 18.5192 251.82 18.5192H28.845C23.3221 18.5192 18.845 22.9963 18.845 28.5192V202.199C18.845 207.722 23.3221 212.199 28.845 212.199H251.82C257.343 212.199 261.82 207.722 261.82 202.199V28.5192Z" fill="#FFD4E8"/>
</g>
<mask id="mask0" mask-type="alpha" maskUnits="userSpaceOnUse" x="0" y="0" width="281" height="321">
<path fill-rule="evenodd" clip-rule="evenodd" d="M280.332 0H0.332031V321H280.332V0ZM261.82 18.5192H18.845V212.199H261.82V18.5192Z" fill="#FFD4E8"/>
</mask>
<g mask="url(#mask0)">
<path d="M0.725821 -2.88766C0.725821 -1.09691 -0.751234 0.368243 -2.55652 0.368243C-4.36181 0.368243 -5.83887 -1.09691 -5.83887 -2.88766C-5.83887 -4.6784 -4.36181 -6.14355 -2.55652 -6.14355C-0.751234 -6.14355 0.725821 -4.6784 0.725821 -2.88766Z" fill="white"/>
<path d="M19.2707 -2.88766C19.2707 -1.09691 17.7937 0.368243 15.9884 0.368243C14.1831 0.368243 12.7061 -1.09691 12.7061 -2.88766C12.7061 -4.6784 14.1831 -6.14355 15.9884 -6.14355C17.7937 -6.14355 19.2707 -4.6784 19.2707 -2.88766Z" fill="white"/>
<path d="M37.6506 -2.88766C37.6506 -1.09691 36.1736 0.368243 34.3683 0.368243C32.563 0.368243 31.0859 -1.09691 31.0859 -2.88766C31.0859 -4.6784 32.563 -6.14355 34.3683 -6.14355C36.1736 -6.14355 37.6506 -4.6784 37.6506 -2.88766Z" fill="white"/>
<path d="M56.1955 -2.88863C56.1955 -1.09789 54.7185 0.367266 52.9132 0.367266C51.1079 0.367266 49.6309 -1.09789 49.6309 -2.88863C49.6309 -4.67938 51.1079 -6.14453 52.9132 -6.14453C54.7185 -6.14453 56.1955 -4.67938 56.1955 -2.88863Z" fill="white"/>
<path d="M74.7414 -2.88766C74.7414 -1.09691 73.2644 0.368243 71.4591 0.368243C69.6538 0.368243 68.1768 -1.09691 68.1768 -2.88766C68.1768 -4.6784 69.6538 -6.14355 71.4591 -6.14355C73.2644 -6.14355 74.7414 -4.6784 74.7414 -2.88766Z" fill="white"/>
<path d="M93.1223 -2.88766C93.1223 -1.09691 91.6452 0.368243 89.8399 0.368243C88.0347 0.368243 86.5576 -1.09691 86.5576 -2.88766C86.5576 -4.6784 88.0347 -6.14355 89.8399 -6.14355C91.6452 -6.14355 93.1223 -4.6784 93.1223 -2.88766Z" fill="white"/>
<path d="M111.668 -2.88668C111.668 -1.09593 110.191 0.369219 108.386 0.369219C106.581 0.369219 105.104 -1.09593 105.104 -2.88668C105.104 -4.67742 106.581 -6.14258 108.386 -6.14258C110.191 -6.14258 111.668 -4.67742 111.668 -2.88668Z" fill="white"/>
<path d="M130.213 -2.88784C130.213 -1.0972 128.736 0.367866 126.931 0.367866C125.125 0.367866 123.648 -1.0972 123.648 -2.88784C123.648 -4.67849 125.125 -6.14355 126.931 -6.14355C128.736 -6.14355 130.213 -4.67849 130.213 -2.88784Z" fill="white"/>
<path d="M148.594 -2.88766C148.594 -1.09691 147.117 0.368243 145.312 0.368243C143.506 0.368243 142.029 -1.09691 142.029 -2.88766C142.029 -4.6784 143.506 -6.14355 145.312 -6.14355C147.117 -6.14355 148.594 -4.6784 148.594 -2.88766Z" fill="white"/>
<path d="M167.14 -2.88863C167.14 -1.09789 165.663 0.367266 163.858 0.367266C162.052 0.367266 160.575 -1.09789 160.575 -2.88863C160.575 -4.67938 162.052 -6.14453 163.858 -6.14453C165.663 -6.14453 167.14 -4.67938 167.14 -2.88863Z" fill="white"/>
<path d="M185.683 -2.88766C185.683 -1.09691 184.206 0.368243 182.4 0.368243C180.595 0.368243 179.118 -1.09691 179.118 -2.88766C179.118 -4.6784 180.595 -6.14355 182.4 -6.14355C184.206 -6.14355 185.683 -4.6784 185.683 -2.88766Z" fill="white"/>
<path d="M204.066 -2.88882C204.066 -1.09818 202.589 0.366889 200.783 0.366889C198.978 0.366889 197.501 -1.09818 197.501 -2.88882C197.501 -4.67946 198.978 -6.14453 200.783 -6.14453C202.753 -6.14453 204.066 -4.67946 204.066 -2.88882Z" fill="white"/>
<path d="M222.611 -2.88766C222.611 -1.09691 221.134 0.368243 219.328 0.368243C217.523 0.368243 216.046 -1.09691 216.046 -2.88766C216.046 -4.6784 217.523 -6.14355 219.328 -6.14355C221.134 -6.14355 222.611 -4.6784 222.611 -2.88766Z" fill="white"/>
<path d="M241.155 -2.88863C241.155 -1.09789 239.677 0.367266 237.872 0.367266C236.067 0.367266 234.59 -1.09789 234.59 -2.88863C234.59 -4.67938 236.067 -6.14453 237.872 -6.14453C239.677 -6.14453 241.155 -4.67938 241.155 -2.88863Z" fill="white"/>
<path d="M259.535 -2.88747C259.535 -1.09662 258.058 0.368619 256.253 0.368619C254.448 0.368619 252.971 -1.09662 252.971 -2.88747C252.971 -4.67832 254.448 -6.14355 256.253 -6.14355C258.222 -6.14355 259.535 -4.67832 259.535 -2.88747Z" fill="white"/>
<path d="M278.082 -2.88863C278.082 -1.09789 276.605 0.367266 274.8 0.367266C272.995 0.367266 271.518 -1.09789 271.518 -2.88863C271.518 -4.67938 272.995 -6.14453 274.8 -6.14453C276.605 -6.14453 278.082 -4.67938 278.082 -2.88863Z" fill="white"/>
<path d="M9.91625 6.22758C9.91625 8.01832 8.4392 9.48348 6.63391 9.48348C4.82862 9.48348 3.35156 8.01832 3.35156 6.22758C3.35156 4.43683 4.82862 2.97168 6.63391 2.97168C8.4392 2.97168 9.91625 4.43683 9.91625 6.22758Z" fill="white"/>
<path d="M28.4621 6.22758C28.4621 8.01832 26.9851 9.48348 25.1798 9.48348C23.3745 9.48348 21.8975 8.01832 21.8975 6.22758C21.8975 4.43683 23.3745 2.97168 25.1798 2.97168C26.9851 2.97168 28.4621 4.43683 28.4621 6.22758Z" fill="white"/>
<path d="M47.0061 6.22758C47.0061 8.01832 45.529 9.48348 43.7237 9.48348C41.9185 9.48348 40.4414 8.01832 40.4414 6.22758C40.4414 4.43683 41.9185 2.97168 43.7237 2.97168C45.529 2.97168 47.0061 4.43683 47.0061 6.22758Z" fill="white"/>
<path d="M65.3879 6.22758C65.3879 8.01832 63.9109 9.48348 62.1056 9.48348C60.3003 9.48348 58.8232 8.01832 58.8232 6.22758C58.8232 4.43683 60.3003 2.97168 62.1056 2.97168C63.9109 2.97168 65.3879 4.43683 65.3879 6.22758Z" fill="white"/>
<path d="M83.9338 6.22758C83.9338 8.01832 82.4568 9.48348 80.6515 9.48348C78.8462 9.48348 77.3691 8.01832 77.3691 6.22758C77.3691 4.43683 78.8462 2.97168 80.6515 2.97168C82.4568 2.97168 83.9338 4.43683 83.9338 6.22758Z" fill="white"/>
<path d="M102.479 6.22758C102.479 8.01832 101.002 9.48348 99.1964 9.48348C97.3911 9.48348 95.9141 8.01832 95.9141 6.22758C95.9141 4.43683 97.3911 2.97168 99.1964 2.97168C101.002 2.97168 102.479 4.43683 102.479 6.22758Z" fill="white"/>
<path d="M120.86 6.22758C120.86 8.01832 119.383 9.48348 117.577 9.48348C115.772 9.48348 114.295 8.01832 114.295 6.22758C114.295 4.43683 115.772 2.97168 117.577 2.97168C119.383 2.97168 120.86 4.43683 120.86 6.22758Z" fill="white"/>
<path d="M139.405 6.22641C139.405 8.01705 137.928 9.48212 136.123 9.48212C134.318 9.48212 132.841 8.01705 132.841 6.22641C132.841 4.43577 134.318 2.9707 136.123 2.9707C137.928 2.9707 139.405 4.43577 139.405 6.22641Z" fill="white"/>
<path d="M157.951 6.22758C157.951 8.01832 156.474 9.48348 154.669 9.48348C152.864 9.48348 151.387 8.01832 151.387 6.22758C151.387 4.43683 152.864 2.97168 154.669 2.97168C156.474 2.97168 157.951 4.43683 157.951 6.22758Z" fill="white"/>
<path d="M176.332 6.22758C176.332 8.01832 174.855 9.48348 173.05 9.48348C171.245 9.48348 169.768 8.01832 169.768 6.22758C169.768 4.43683 171.245 2.97168 173.05 2.97168C174.855 2.97168 176.332 4.43683 176.332 6.22758Z" fill="white"/>
<path d="M194.877 6.22758C194.877 8.01832 193.4 9.48348 191.595 9.48348C189.79 9.48348 188.312 8.01832 188.312 6.22758C188.312 4.43683 189.79 2.97168 191.595 2.97168C193.4 2.97168 194.877 4.43683 194.877 6.22758Z" fill="white"/>
<path d="M213.424 6.22641C213.424 8.01705 211.947 9.48212 210.142 9.48212C208.336 9.48212 206.859 8.01705 206.859 6.22641C206.859 4.43577 208.336 2.9707 210.142 2.9707C211.947 2.9707 213.424 4.43577 213.424 6.22641Z" fill="white"/>
<path d="M231.803 6.22758C231.803 8.01832 230.326 9.48348 228.521 9.48348C226.715 9.48348 225.238 8.01832 225.238 6.22758C225.238 4.43683 226.715 2.97168 228.521 2.97168C230.49 2.97168 231.803 4.43683 231.803 6.22758Z" fill="white"/>
<path d="M250.348 6.22739C250.348 8.01803 248.871 9.4831 247.066 9.4831C245.26 9.4831 243.783 8.01803 243.783 6.22739C243.783 4.43675 245.26 2.97168 247.066 2.97168C248.871 2.97168 250.348 4.43675 250.348 6.22739Z" fill="white"/>
<path d="M268.892 6.22739C268.892 8.01803 267.415 9.4831 265.61 9.4831C263.804 9.4831 262.327 8.01803 262.327 6.22739C262.327 4.43675 263.804 2.97168 265.61 2.97168C267.415 2.97168 268.892 4.43675 268.892 6.22739Z" fill="white"/>
<path d="M0.726798 15.3446C0.726798 17.1352 -0.750257 18.6003 -2.55555 18.6003C-4.36084 18.6003 -5.83789 17.1352 -5.83789 15.3446C-5.83789 13.5539 -4.36084 12.0889 -2.55555 12.0889C-0.750257 12.2517 0.726798 13.5539 0.726798 15.3446Z" fill="white"/>
<path d="M19.2717 15.3436C19.2717 17.1342 17.7946 18.5993 15.9894 18.5993C14.1841 18.5993 12.707 17.1342 12.707 15.3436C12.707 13.553 14.1841 12.0879 15.9894 12.0879C17.7946 12.2507 19.2717 13.553 19.2717 15.3436Z" fill="white"/>
<path d="M37.6516 15.3448C37.6516 17.1355 36.1745 18.6007 34.3692 18.6007C32.564 18.6007 31.0869 17.1355 31.0869 15.3448C31.0869 13.554 32.564 12.0889 34.3692 12.0889C36.1745 12.2517 37.6516 13.554 37.6516 15.3448Z" fill="white"/>
<path d="M56.1965 15.3436C56.1965 17.1342 54.7195 18.5993 52.9142 18.5993C51.1089 18.5993 49.6318 17.1342 49.6318 15.3436C49.6318 13.553 51.1089 12.0879 52.9142 12.0879C54.7195 12.2507 56.1965 13.553 56.1965 15.3436Z" fill="white"/>
<path d="M74.7414 15.3448C74.7414 17.1355 73.2644 18.6007 71.4591 18.6007C69.6538 18.6007 68.1768 17.1355 68.1768 15.3448C68.1768 13.554 69.6538 12.0889 71.4591 12.0889C73.2644 12.2517 74.7414 13.554 74.7414 15.3448Z" fill="white"/>
<path d="M93.1223 15.3434C93.1223 17.1339 91.6452 18.5989 89.8399 18.5989C88.0347 18.5989 86.5576 17.1339 86.5576 15.3434C86.5576 13.5529 88.0347 12.0879 89.8399 12.0879C91.6452 12.2507 93.1223 13.5529 93.1223 15.3434Z" fill="white"/>
<path d="M111.668 15.3448C111.668 17.1355 110.191 18.6007 108.386 18.6007C106.581 18.6007 105.104 17.1355 105.104 15.3448C105.104 13.554 106.581 12.0889 108.386 12.0889C110.191 12.2517 111.668 13.554 111.668 15.3448Z" fill="white"/>
<path d="M130.214 15.3436C130.214 17.1342 128.737 18.5993 126.932 18.5993C125.126 18.5993 123.649 17.1342 123.649 15.3436C123.649 13.553 125.126 12.0879 126.932 12.0879C128.737 12.2507 130.214 13.553 130.214 15.3436Z" fill="white"/>
<path d="M148.594 15.3436C148.594 17.1342 147.117 18.5993 145.312 18.5993C143.506 18.5993 142.029 17.1342 142.029 15.3436C142.029 13.553 143.506 12.0879 145.312 12.0879C147.117 12.2507 148.594 13.553 148.594 15.3436Z" fill="white"/>
<path d="M167.138 15.3436C167.138 17.1342 165.661 18.5993 163.856 18.5993C162.05 18.5993 160.573 17.1342 160.573 15.3436C160.573 13.553 162.05 12.0879 163.856 12.0879C165.661 12.2507 167.138 13.553 167.138 15.3436Z" fill="white"/>
<path d="M185.682 15.3448C185.682 17.1355 184.205 18.6007 182.4 18.6007C180.594 18.6007 179.117 17.1355 179.117 15.3448C179.117 13.554 180.594 12.0889 182.4 12.0889C184.205 12.2517 185.682 13.554 185.682 15.3448Z" fill="white"/>
<path d="M204.065 15.3436C204.065 17.1342 202.588 18.5993 200.782 18.5993C198.977 18.5993 197.5 17.1342 197.5 15.3436C197.5 13.553 198.977 12.0879 200.782 12.0879C202.752 12.2507 204.065 13.553 204.065 15.3436Z" fill="white"/>
<path d="M222.612 15.3448C222.612 17.1355 221.135 18.6007 219.329 18.6007C217.524 18.6007 216.047 17.1355 216.047 15.3448C216.047 13.554 217.524 12.0889 219.329 12.0889C221.135 12.2517 222.612 13.554 222.612 15.3448Z" fill="white"/>
<path d="M241.155 15.3436C241.155 17.1342 239.678 18.5993 237.873 18.5993C236.068 18.5993 234.591 17.1342 234.591 15.3436C234.591 13.553 236.068 12.0879 237.873 12.0879C239.678 12.2507 241.155 13.553 241.155 15.3436Z" fill="white"/>
<path d="M259.536 15.3448C259.536 17.1355 258.059 18.6007 256.254 18.6007C254.449 18.6007 252.972 17.1355 252.972 15.3448C252.972 13.554 254.449 12.0889 256.254 12.0889C258.223 12.2517 259.536 13.554 259.536 15.3448Z" fill="white"/>
<path d="M278.083 15.3436C278.083 17.1342 276.606 18.5993 274.801 18.5993C272.996 18.5993 271.519 17.1342 271.519 15.3436C271.519 13.553 272.996 12.0879 274.801 12.0879C276.606 12.2507 278.083 13.553 278.083 15.3436Z" fill="white"/>
<path d="M9.91527 24.6219C9.91527 26.4126 8.43822 27.8776 6.63293 27.8776C4.82764 27.8776 3.35059 26.4126 3.35059 24.6219C3.35059 22.8313 4.82764 21.3662 6.63293 21.3662C8.43822 21.3662 9.91527 22.8313 9.91527 24.6219Z" fill="white"/>
<path d="M28.4592 24.6219C28.4592 26.4126 26.9821 27.8776 25.1769 27.8776C23.3716 27.8776 21.8945 26.4126 21.8945 24.6219C21.8945 22.8313 23.3716 21.3662 25.1769 21.3662C26.9821 21.3662 28.4592 22.8313 28.4592 24.6219Z" fill="white"/>
<path d="M47.0031 24.6219C47.0031 26.4126 45.5261 27.8776 43.7208 27.8776C41.9155 27.8776 40.4385 26.4126 40.4385 24.6219C40.4385 22.8313 41.9155 21.3662 43.7208 21.3662C45.5261 21.3662 47.0031 22.8313 47.0031 24.6219Z" fill="white"/>
<path d="M65.386 24.6217C65.386 26.4123 63.9089 27.8773 62.1036 27.8773C60.2983 27.8773 58.8213 26.4123 58.8213 24.6217C58.8213 22.8312 60.2983 21.3662 62.1036 21.3662C63.9089 21.3662 65.386 22.8312 65.386 24.6217Z" fill="white"/>
<path d="M83.9309 24.6219C83.9309 26.4126 82.4538 27.8776 80.6486 27.8776C78.8433 27.8776 77.3662 26.4126 77.3662 24.6219C77.3662 22.8313 78.8433 21.3662 80.6486 21.3662C82.4538 21.3662 83.9309 22.8313 83.9309 24.6219Z" fill="white"/>
<path d="M102.476 24.6217C102.476 26.4123 100.999 27.8773 99.1935 27.8773C97.3882 27.8773 95.9111 26.4123 95.9111 24.6217C95.9111 22.8312 97.3882 21.3662 99.1935 21.3662C100.999 21.3662 102.476 22.8312 102.476 24.6217Z" fill="white"/>
<path d="M120.858 24.6217C120.858 26.4123 119.381 27.8773 117.575 27.8773C115.77 27.8773 114.293 26.4123 114.293 24.6217C114.293 22.8312 115.77 21.3662 117.575 21.3662C119.381 21.3662 120.858 22.8312 120.858 24.6217Z" fill="white"/>
<path d="M139.403 24.6217C139.403 26.4123 137.926 27.8773 136.12 27.8773C134.315 27.8773 132.838 26.4123 132.838 24.6217C132.838 22.8312 134.315 21.3662 136.12 21.3662C137.926 21.3662 139.403 22.8312 139.403 24.6217Z" fill="white"/>
<path d="M157.949 24.6231C157.949 26.4138 156.471 27.879 154.666 27.879C152.861 27.879 151.384 26.4138 151.384 24.6231C151.384 22.8323 152.861 21.3672 154.666 21.3672C156.471 21.3672 157.949 22.8323 157.949 24.6231Z" fill="white"/>
<path d="M176.329 24.6217C176.329 26.4123 174.852 27.8773 173.047 27.8773C171.242 27.8773 169.765 26.4123 169.765 24.6217C169.765 22.8312 171.242 21.3662 173.047 21.3662C174.852 21.3662 176.329 22.8312 176.329 24.6217Z" fill="white"/>
<path d="M194.875 24.6217C194.875 26.4123 193.398 27.8773 191.593 27.8773C189.788 27.8773 188.311 26.4123 188.311 24.6217C188.311 22.8312 189.788 21.3662 191.593 21.3662C193.398 21.3662 194.875 22.8312 194.875 24.6217Z" fill="white"/>
<path d="M213.421 24.6217C213.421 26.4123 211.944 27.8773 210.139 27.8773C208.333 27.8773 206.856 26.4123 206.856 24.6217C206.856 22.8312 208.333 21.3662 210.139 21.3662C211.944 21.3662 213.421 22.8312 213.421 24.6217Z" fill="white"/>
<path d="M231.802 24.6217C231.802 26.4123 230.325 27.8773 228.52 27.8773C226.714 27.8773 225.237 26.4123 225.237 24.6217C225.237 22.8312 226.714 21.3662 228.52 21.3662C230.489 21.3662 231.802 22.8312 231.802 24.6217Z" fill="white"/>
<path d="M250.347 24.6217C250.347 26.4123 248.87 27.8773 247.065 27.8773C245.259 27.8773 243.782 26.4123 243.782 24.6217C243.782 22.8312 245.259 21.3662 247.065 21.3662C248.87 21.3662 250.347 22.8312 250.347 24.6217Z" fill="white"/>
<path d="M268.892 24.6219C268.892 26.4126 267.415 27.8776 265.61 27.8776C263.804 27.8776 262.327 26.4126 262.327 24.6219C262.327 22.8313 263.804 21.3662 265.61 21.3662C267.415 21.3662 268.892 22.8313 268.892 24.6219Z" fill="white"/>
<path d="M0.725821 33.7381C0.725821 35.5288 -0.751234 36.9938 -2.55652 36.9938C-4.36181 36.9938 -5.83887 35.5288 -5.83887 33.7381C-5.83887 31.9475 -4.36181 30.4824 -2.55652 30.4824C-0.751234 30.4824 0.725821 31.9475 0.725821 33.7381Z" fill="white"/>
<path d="M19.2707 33.7381C19.2707 35.5288 17.7937 36.9938 15.9884 36.9938C14.1831 36.9938 12.7061 35.5288 12.7061 33.7381C12.7061 31.9475 14.1831 30.4824 15.9884 30.4824C17.7937 30.4824 19.2707 31.9475 19.2707 33.7381Z" fill="white"/>
<path d="M37.6506 33.7381C37.6506 35.5288 36.1736 36.9938 34.3683 36.9938C32.563 36.9938 31.0859 35.5288 31.0859 33.7381C31.0859 31.9475 32.563 30.4824 34.3683 30.4824C36.1736 30.4824 37.6506 31.9475 37.6506 33.7381Z" fill="white"/>
<path d="M56.1955 33.7381C56.1955 35.5288 54.7185 36.9938 52.9132 36.9938C51.1079 36.9938 49.6309 35.5288 49.6309 33.7381C49.6309 31.9475 51.1079 30.4824 52.9132 30.4824C54.7185 30.4824 56.1955 31.9475 56.1955 33.7381Z" fill="white"/>
<path d="M74.7414 33.7381C74.7414 35.5288 73.2644 36.9938 71.4591 36.9938C69.6538 36.9938 68.1768 35.5288 68.1768 33.7381C68.1768 31.9475 69.6538 30.4824 71.4591 30.4824C73.2644 30.4824 74.7414 31.9475 74.7414 33.7381Z" fill="white"/>
<path d="M93.1223 33.7381C93.1223 35.5288 91.6452 36.9938 89.8399 36.9938C88.0347 36.9938 86.5576 35.5288 86.5576 33.7381C86.5576 31.9475 88.0347 30.4824 89.8399 30.4824C91.6452 30.4824 93.1223 31.9475 93.1223 33.7381Z" fill="white"/>
<path d="M111.666 33.7391C111.666 35.5297 110.189 36.9948 108.384 36.9948C106.579 36.9948 105.102 35.5297 105.102 33.7391C105.102 31.9485 106.579 30.4834 108.384 30.4834C110.189 30.4834 111.666 31.9485 111.666 33.7391Z" fill="white"/>
<path d="M130.212 33.7381C130.212 35.5288 128.735 36.9938 126.93 36.9938C125.125 36.9938 123.647 35.5288 123.647 33.7381C123.647 31.9475 125.125 30.4824 126.93 30.4824C128.735 30.4824 130.212 31.9475 130.212 33.7381Z" fill="white"/>
<path d="M148.594 33.7381C148.594 35.5288 147.117 36.9938 145.312 36.9938C143.506 36.9938 142.029 35.5288 142.029 33.7381C142.029 31.9475 143.506 30.4824 145.312 30.4824C147.117 30.4824 148.594 31.9475 148.594 33.7381Z" fill="white"/>
<path d="M167.139 33.7381C167.139 35.5288 165.662 36.9938 163.857 36.9938C162.051 36.9938 160.574 35.5288 160.574 33.7381C160.574 31.9475 162.051 30.4824 163.857 30.4824C165.662 30.4824 167.139 31.9475 167.139 33.7381Z" fill="white"/>
<path d="M185.683 33.7381C185.683 35.5288 184.206 36.9938 182.4 36.9938C180.595 36.9938 179.118 35.5288 179.118 33.7381C179.118 31.9475 180.595 30.4824 182.4 30.4824C184.206 30.4824 185.683 31.9475 185.683 33.7381Z" fill="white"/>
<path d="M204.065 33.7381C204.065 35.5288 202.588 36.9938 200.782 36.9938C198.977 36.9938 197.5 35.5288 197.5 33.7381C197.5 31.9475 198.977 30.4824 200.782 30.4824C202.752 30.4824 204.065 31.9475 204.065 33.7381Z" fill="white"/>
<path d="M222.612 33.7381C222.612 35.5288 221.134 36.9938 219.329 36.9938C217.524 36.9938 216.047 35.5288 216.047 33.7381C216.047 31.9475 217.524 30.4824 219.329 30.4824C221.134 30.4824 222.612 31.9475 222.612 33.7381Z" fill="white"/>
<path d="M241.155 33.7381C241.155 35.5288 239.678 36.9938 237.873 36.9938C236.068 36.9938 234.591 35.5288 234.591 33.7381C234.591 31.9475 236.068 30.4824 237.873 30.4824C239.678 30.4824 241.155 31.9475 241.155 33.7381Z" fill="white"/>
<path d="M259.537 33.7381C259.537 35.5288 258.06 36.9938 256.255 36.9938C254.45 36.9938 252.973 35.5288 252.973 33.7381C252.973 31.9475 254.45 30.4824 256.255 30.4824C258.224 30.4824 259.537 31.9475 259.537 33.7381Z" fill="white"/>
<path d="M278.083 33.7381C278.083 35.5288 276.606 36.9938 274.801 36.9938C272.996 36.9938 271.519 35.5288 271.519 33.7381C271.519 31.9475 272.996 30.4824 274.801 30.4824C276.606 30.4824 278.083 31.9475 278.083 33.7381Z" fill="white"/>
<path d="M9.91625 42.8543C9.91625 44.645 8.4392 46.1101 6.63391 46.1101C4.82862 46.1101 3.35156 44.645 3.35156 42.8543C3.35156 41.0637 4.82862 39.5986 6.63391 39.5986C8.4392 39.7614 9.91625 41.0637 9.91625 42.8543Z" fill="white"/>
<path d="M28.4621 42.8543C28.4621 44.645 26.9851 46.1101 25.1798 46.1101C23.3745 46.1101 21.8975 44.645 21.8975 42.8543C21.8975 41.0637 23.3745 39.5986 25.1798 39.5986C26.9851 39.7614 28.4621 41.0637 28.4621 42.8543Z" fill="white"/>
<path d="M47.0061 42.8543C47.0061 44.645 45.529 46.1101 43.7237 46.1101C41.9185 46.1101 40.4414 44.645 40.4414 42.8543C40.4414 41.0637 41.9185 39.5986 43.7237 39.5986C45.529 39.7614 47.0061 41.0637 47.0061 42.8543Z" fill="white"/>
<path d="M65.3879 42.8553C65.3879 44.646 63.9109 46.111 62.1056 46.111C60.3003 46.111 58.8232 44.646 58.8232 42.8553C58.8232 41.0647 60.3003 39.5996 62.1056 39.5996C63.9109 39.5996 65.3879 41.0647 65.3879 42.8553Z" fill="white"/>
<path d="M83.9338 42.8543C83.9338 44.645 82.4568 46.1101 80.6515 46.1101C78.8462 46.1101 77.3691 44.645 77.3691 42.8543C77.3691 41.0637 78.8462 39.5986 80.6515 39.5986C82.4568 39.7614 83.9338 41.0637 83.9338 42.8543Z" fill="white"/>
<path d="M102.479 42.8553C102.479 44.646 101.002 46.111 99.1964 46.111C97.3911 46.111 95.9141 44.646 95.9141 42.8553C95.9141 41.0647 97.3911 39.5996 99.1964 39.5996C101.002 39.7624 102.479 41.0647 102.479 42.8553Z" fill="white"/>
<path d="M120.86 42.8553C120.86 44.646 119.383 46.111 117.577 46.111C115.772 46.111 114.295 44.646 114.295 42.8553C114.295 41.0647 115.772 39.5996 117.577 39.5996C119.383 39.7624 120.86 41.0647 120.86 42.8553Z" fill="white"/>
<path d="M139.405 42.8553C139.405 44.646 137.928 46.111 136.123 46.111C134.318 46.111 132.841 44.646 132.841 42.8553C132.841 41.0647 134.318 39.5996 136.123 39.5996C137.928 39.7624 139.405 41.0647 139.405 42.8553Z" fill="white"/>
<path d="M157.951 42.8553C157.951 44.646 156.474 46.111 154.669 46.111C152.864 46.111 151.387 44.646 151.387 42.8553C151.387 41.0647 152.864 39.5996 154.669 39.5996C156.474 39.7624 157.951 41.0647 157.951 42.8553Z" fill="white"/>
<path d="M176.332 42.8551C176.332 44.6457 174.855 46.1107 173.05 46.1107C171.245 46.1107 169.768 44.6457 169.768 42.8551C169.768 41.0646 171.245 39.5996 173.05 39.5996C174.855 39.5996 176.332 41.0646 176.332 42.8551Z" fill="white"/>
<path d="M194.877 42.8553C194.877 44.646 193.4 46.111 191.595 46.111C189.79 46.111 188.312 44.646 188.312 42.8553C188.312 41.0647 189.79 39.5996 191.595 39.5996C193.4 39.7624 194.877 41.0647 194.877 42.8553Z" fill="white"/>
<path d="M213.424 42.8553C213.424 44.646 211.947 46.111 210.142 46.111C208.336 46.111 206.859 44.646 206.859 42.8553C206.859 41.0647 208.336 39.5996 210.142 39.5996C211.947 39.7624 213.424 41.0647 213.424 42.8553Z" fill="white"/>
<path d="M231.803 42.8553C231.803 44.646 230.326 46.111 228.521 46.111C226.715 46.111 225.238 44.646 225.238 42.8553C225.238 41.0647 226.715 39.5996 228.521 39.5996C230.49 39.7624 231.803 41.0647 231.803 42.8553Z" fill="white"/>
<path d="M250.348 42.8553C250.348 44.646 248.871 46.111 247.066 46.111C245.26 46.111 243.783 44.646 243.783 42.8553C243.783 41.0647 245.26 39.5996 247.066 39.5996C248.871 39.7624 250.348 41.0647 250.348 42.8553Z" fill="white"/>
<path d="M268.892 42.8553C268.892 44.646 267.415 46.111 265.61 46.111C263.804 46.111 262.327 44.646 262.327 42.8553C262.327 41.0647 263.804 39.5996 265.61 39.5996C267.415 39.7624 268.892 41.0647 268.892 42.8553Z" fill="white"/>
<path d="M0.726798 52.1358C0.726798 53.9265 -0.750257 55.3917 -2.55555 55.3917C-4.36084 55.3917 -5.83789 53.9265 -5.83789 52.1358C-5.83789 50.345 -4.36084 48.8799 -2.55555 48.8799C-0.750257 48.8799 0.726798 50.345 0.726798 52.1358Z" fill="white"/>
<path d="M19.2717 52.1348C19.2717 53.9255 17.7946 55.3907 15.9894 55.3907C14.1841 55.3907 12.707 53.9255 12.707 52.1348C12.707 50.3441 14.1841 48.8789 15.9894 48.8789C17.7946 48.8789 19.2717 50.3441 19.2717 52.1348Z" fill="white"/>
<path d="M37.6526 52.1338C37.6526 53.9246 36.1755 55.3897 34.3702 55.3897C32.5649 55.3897 31.0879 53.9246 31.0879 52.1338C31.0879 50.3431 32.5649 48.8779 34.3702 48.8779C36.1755 48.8779 37.6526 50.3431 37.6526 52.1338Z" fill="white"/>
<path d="M52.9161 55.3897C54.7289 55.3897 56.1985 53.932 56.1985 52.1338C56.1985 50.3356 54.7289 48.8779 52.9161 48.8779C51.1033 48.8779 49.6338 50.3356 49.6338 52.1338C49.6338 53.932 51.1033 55.3897 52.9161 55.3897Z" fill="white"/>
<path d="M74.7414 52.1348C74.7414 53.9255 73.2644 55.3907 71.4591 55.3907C69.6538 55.3907 68.1768 53.9255 68.1768 52.1348C68.1768 50.3441 69.6538 48.8789 71.4591 48.8789C73.2644 48.8789 74.7414 50.3441 74.7414 52.1348Z" fill="white"/>
<path d="M93.1223 52.1338C93.1223 53.9246 91.6452 55.3897 89.8399 55.3897C88.0347 55.3897 86.5576 53.9246 86.5576 52.1338C86.5576 50.3431 88.0347 48.8779 89.8399 48.8779C91.6452 48.8779 93.1223 50.3431 93.1223 52.1338Z" fill="white"/>
<path d="M111.668 52.1338C111.668 53.9246 110.191 55.3897 108.386 55.3897C106.581 55.3897 105.104 53.9246 105.104 52.1338C105.104 50.3431 106.581 48.8779 108.386 48.8779C110.191 48.8779 111.668 50.3431 111.668 52.1338Z" fill="white"/>
<path d="M130.214 52.1338C130.214 53.9246 128.737 55.3897 126.932 55.3897C125.126 55.3897 123.649 53.9246 123.649 52.1338C123.649 50.3431 125.126 48.8779 126.932 48.8779C128.737 48.8779 130.214 50.3431 130.214 52.1338Z" fill="white"/>
<path d="M148.594 52.1348C148.594 53.9255 147.117 55.3907 145.312 55.3907C143.506 55.3907 142.029 53.9255 142.029 52.1348C142.029 50.3441 143.506 48.8789 145.312 48.8789C147.117 48.8789 148.594 50.3441 148.594 52.1348Z" fill="white"/>
<path d="M163.856 55.3897C165.668 55.3897 167.138 53.932 167.138 52.1338C167.138 50.3356 165.668 48.8779 163.856 48.8779C162.043 48.8779 160.573 50.3356 160.573 52.1338C160.573 53.932 162.043 55.3897 163.856 55.3897Z" fill="white"/>
<path d="M185.683 52.1338C185.683 53.9246 184.206 55.3897 182.401 55.3897C180.595 55.3897 179.118 53.9246 179.118 52.1338C179.118 50.3431 180.595 48.8779 182.401 48.8779C184.206 48.8779 185.683 50.3431 185.683 52.1338Z" fill="white"/>
<path d="M204.065 52.1338C204.065 53.9246 202.588 55.3897 200.782 55.3897C198.977 55.3897 197.5 53.9246 197.5 52.1338C197.5 50.3431 198.977 48.8779 200.782 48.8779C202.752 48.8779 204.065 50.3431 204.065 52.1338Z" fill="white"/>
<path d="M222.611 52.1338C222.611 53.9246 221.134 55.3897 219.328 55.3897C217.523 55.3897 216.046 53.9246 216.046 52.1338C216.046 50.3431 217.523 48.8779 219.328 48.8779C221.134 48.8779 222.611 50.3431 222.611 52.1338Z" fill="white"/>
<path d="M241.155 52.1338C241.155 53.9246 239.677 55.3897 237.872 55.3897C236.067 55.3897 234.59 53.9246 234.59 52.1338C234.59 50.3431 236.067 48.8779 237.872 48.8779C239.677 48.8779 241.155 50.3431 241.155 52.1338Z" fill="white"/>
<path d="M259.535 52.1335C259.535 53.924 258.058 55.389 256.253 55.389C254.448 55.389 252.971 53.924 252.971 52.1335C252.971 50.3429 254.448 48.8779 256.253 48.8779C258.222 48.8779 259.535 50.3429 259.535 52.1335Z" fill="white"/>
<path d="M274.8 55.389C276.613 55.389 278.082 53.9314 278.082 52.1335C278.082 50.3355 276.613 48.8779 274.8 48.8779C272.987 48.8779 271.518 50.3355 271.518 52.1335C271.518 53.9314 272.987 55.389 274.8 55.389Z" fill="white"/>
<path d="M9.91527 61.25C9.91527 63.0408 8.43822 64.5059 6.63293 64.5059C4.82764 64.5059 3.35059 63.0408 3.35059 61.25C3.35059 59.4593 4.82764 57.9941 6.63293 57.9941C8.43822 57.9941 9.91527 59.4593 9.91527 61.25Z" fill="white"/>
<path d="M28.4592 61.25C28.4592 63.0408 26.9821 64.5059 25.1769 64.5059C23.3716 64.5059 21.8945 63.0408 21.8945 61.25C21.8945 59.4593 23.3716 57.9941 25.1769 57.9941C26.9821 57.9941 28.4592 59.4593 28.4592 61.25Z" fill="white"/>
<path d="M43.7208 64.5059C45.5336 64.5059 47.0031 63.0482 47.0031 61.25C47.0031 59.4519 45.5336 57.9941 43.7208 57.9941C41.908 57.9941 40.4385 59.4519 40.4385 61.25C40.4385 63.0482 41.908 64.5059 43.7208 64.5059Z" fill="white"/>
<path d="M62.2667 64.5042C64.0795 64.5042 65.549 63.0467 65.549 61.2487C65.549 59.4507 64.0795 57.9932 62.2667 57.9932C60.4539 57.9932 58.9844 59.4507 58.9844 61.2487C58.9844 63.0467 60.4539 64.5042 62.2667 64.5042Z" fill="white"/>
<path d="M83.9299 61.2487C83.9299 63.0392 82.4529 64.5042 80.6476 64.5042C78.8423 64.5042 77.3652 63.0392 77.3652 61.2487C77.3652 59.4581 78.8423 57.9932 80.6476 57.9932C82.4529 57.9932 83.9299 59.4581 83.9299 61.2487Z" fill="white"/>
<path d="M99.1925 64.5042C101.005 64.5042 102.475 63.0467 102.475 61.2487C102.475 59.4507 101.005 57.9932 99.1925 57.9932C97.3797 57.9932 95.9102 59.4507 95.9102 61.2487C95.9102 63.0467 97.3797 64.5042 99.1925 64.5042Z" fill="white"/>
<path d="M120.856 61.2499C120.856 63.0405 119.379 64.5056 117.573 64.5056C115.768 64.5056 114.291 63.0405 114.291 61.2499C114.291 59.4592 115.768 57.9941 117.573 57.9941C119.379 57.9941 120.856 59.4592 120.856 61.2499Z" fill="white"/>
<path d="M139.402 61.2489C139.402 63.0395 137.925 64.5046 136.119 64.5046C134.314 64.5046 132.837 63.0395 132.837 61.2489C132.837 59.4582 134.314 57.9932 136.119 57.9932C137.925 57.9932 139.402 59.4582 139.402 61.2489Z" fill="white"/>
<path d="M157.949 61.25C157.949 63.0408 156.471 64.5059 154.666 64.5059C152.861 64.5059 151.384 63.0408 151.384 61.25C151.384 59.4593 152.861 57.9941 154.666 57.9941C156.471 57.9941 157.949 59.4593 157.949 61.25Z" fill="white"/>
<path d="M173.21 64.5042C175.023 64.5042 176.492 63.0467 176.492 61.2487C176.492 59.4507 175.023 57.9932 173.21 57.9932C171.397 57.9932 169.928 59.4507 169.928 61.2487C169.928 63.0467 171.397 64.5042 173.21 64.5042Z" fill="white"/>
<path d="M194.875 61.2499C194.875 63.0405 193.398 64.5056 191.593 64.5056C189.788 64.5056 188.311 63.0405 188.311 61.2499C188.311 59.4592 189.788 57.9941 191.593 57.9941C193.398 57.9941 194.875 59.4592 194.875 61.2499Z" fill="white"/>
<path d="M210.139 64.5046C211.952 64.5046 213.421 63.047 213.421 61.2489C213.421 59.4508 211.952 57.9932 210.139 57.9932C208.326 57.9932 206.856 59.4508 206.856 61.2489C206.856 63.047 208.326 64.5046 210.139 64.5046Z" fill="white"/>
<path d="M231.802 61.2489C231.802 63.0395 230.325 64.5046 228.52 64.5046C226.714 64.5046 225.237 63.0395 225.237 61.2489C225.237 59.4582 226.714 57.9932 228.52 57.9932C230.489 57.9932 231.802 59.4582 231.802 61.2489Z" fill="white"/>
<path d="M250.347 61.2489C250.347 63.0395 248.87 64.5046 247.065 64.5046C245.259 64.5046 243.782 63.0395 243.782 61.2489C243.782 59.4582 245.259 57.9932 247.065 57.9932C248.87 57.9932 250.347 59.4582 250.347 61.2489Z" fill="white"/>
<path d="M268.892 61.2489C268.892 63.0395 267.415 64.5046 265.61 64.5046C263.804 64.5046 262.327 63.0395 262.327 61.2489C262.327 59.4582 263.804 57.9932 265.61 57.9932C267.415 57.9932 268.892 59.4582 268.892 61.2489Z" fill="white"/>
<path d="M0.725821 70.3661C0.725821 72.1567 -0.751234 73.6218 -2.55652 73.6218C-4.36181 73.6218 -5.83887 72.1567 -5.83887 70.3661C-5.83887 68.5754 -4.36181 67.1104 -2.55652 67.1104C-0.751234 67.2731 0.725821 68.5754 0.725821 70.3661Z" fill="white"/>
<path d="M19.2707 70.3661C19.2707 72.1567 17.7937 73.6218 15.9884 73.6218C14.1831 73.6218 12.7061 72.1567 12.7061 70.3661C12.7061 68.5754 14.1831 67.1104 15.9884 67.1104C17.7937 67.2731 19.2707 68.5754 19.2707 70.3661Z" fill="white"/>
<path d="M37.6506 70.3661C37.6506 72.1567 36.1736 73.6218 34.3683 73.6218C32.563 73.6218 31.0859 72.1567 31.0859 70.3661C31.0859 68.5754 32.563 67.1104 34.3683 67.1104C36.1736 67.2731 37.6506 68.5754 37.6506 70.3661Z" fill="white"/>
<path d="M56.1955 70.3651C56.1955 72.1557 54.7185 73.6208 52.9132 73.6208C51.1079 73.6208 49.6309 72.1557 49.6309 70.3651C49.6309 68.5744 51.1079 67.1094 52.9132 67.1094C54.7185 67.2722 56.1955 68.5744 56.1955 70.3651Z" fill="white"/>
<path d="M74.7414 70.3661C74.7414 72.1567 73.2644 73.6218 71.4591 73.6218C69.6538 73.6218 68.1768 72.1567 68.1768 70.3661C68.1768 68.5754 69.6538 67.1104 71.4591 67.1104C73.2644 67.2731 74.7414 68.5754 74.7414 70.3661Z" fill="white"/>
<path d="M93.1223 70.3649C93.1223 72.1554 91.6452 73.6204 89.8399 73.6204C88.0347 73.6204 86.5576 72.1554 86.5576 70.3649C86.5576 68.5744 88.0347 67.1094 89.8399 67.1094C91.6452 67.2722 93.1223 68.5744 93.1223 70.3649Z" fill="white"/>
<path d="M111.666 70.3661C111.666 72.1567 110.189 73.6218 108.384 73.6218C106.579 73.6218 105.102 72.1567 105.102 70.3661C105.102 68.5754 106.579 67.1104 108.384 67.1104C110.189 67.2731 111.666 68.5754 111.666 70.3661Z" fill="white"/>
<path d="M130.212 70.3651C130.212 72.1557 128.735 73.6208 126.93 73.6208C125.125 73.6208 123.647 72.1557 123.647 70.3651C123.647 68.5744 125.125 67.1094 126.93 67.1094C128.735 67.2722 130.212 68.5744 130.212 70.3651Z" fill="white"/>
<path d="M148.594 70.3661C148.594 72.1567 147.117 73.6218 145.312 73.6218C143.506 73.6218 142.029 72.1567 142.029 70.3661C142.029 68.5754 143.506 67.1104 145.312 67.1104C147.117 67.2731 148.594 68.5754 148.594 70.3661Z" fill="white"/>
<path d="M167.139 70.3651C167.139 72.1557 165.662 73.6208 163.857 73.6208C162.051 73.6208 160.574 72.1557 160.574 70.3651C160.574 68.5744 162.051 67.1094 163.857 67.1094C165.662 67.2722 167.139 68.5744 167.139 70.3651Z" fill="white"/>
<path d="M185.683 70.3661C185.683 72.1567 184.206 73.6218 182.4 73.6218C180.595 73.6218 179.118 72.1567 179.118 70.3661C179.118 68.5754 180.595 67.1104 182.4 67.1104C184.206 67.2731 185.683 68.5754 185.683 70.3661Z" fill="white"/>
<path d="M204.065 70.3651C204.065 72.1557 202.588 73.6208 200.782 73.6208C198.977 73.6208 197.5 72.1557 197.5 70.3651C197.5 68.5744 198.977 67.1094 200.782 67.1094C202.752 67.2722 204.065 68.5744 204.065 70.3651Z" fill="white"/>
<path d="M222.612 70.3661C222.612 72.1567 221.134 73.6218 219.329 73.6218C217.524 73.6218 216.047 72.1567 216.047 70.3661C216.047 68.5754 217.524 67.1104 219.329 67.1104C221.134 67.2731 222.612 68.5754 222.612 70.3661Z" fill="white"/>
<path d="M241.156 70.3651C241.156 72.1557 239.679 73.6208 237.874 73.6208C236.069 73.6208 234.592 72.1557 234.592 70.3651C234.592 68.5744 236.069 67.1094 237.874 67.1094C239.679 67.2722 241.156 68.5744 241.156 70.3651Z" fill="white"/>
<path d="M259.537 70.3659C259.537 72.1564 258.06 73.6214 256.255 73.6214C254.45 73.6214 252.973 72.1564 252.973 70.3659C252.973 68.5753 254.45 67.1104 256.255 67.1104C258.224 67.2731 259.537 68.5753 259.537 70.3659Z" fill="white"/>
<path d="M278.083 70.3651C278.083 72.1557 276.606 73.6208 274.801 73.6208C272.996 73.6208 271.519 72.1557 271.519 70.3651C271.519 68.5744 272.996 67.1094 274.801 67.1094C276.606 67.2722 278.083 68.5744 278.083 70.3651Z" fill="white"/>
<path d="M9.91625 79.6465C9.91625 81.4373 8.4392 82.9024 6.63391 82.9024C4.82862 82.9024 3.35156 81.4373 3.35156 79.6465C3.35156 77.8558 4.82862 76.3906 6.63391 76.3906C8.4392 76.3906 9.91625 77.8558 9.91625 79.6465Z" fill="white"/>
<path d="M28.4621 79.6455C28.4621 81.4363 26.9851 82.9014 25.1798 82.9014C23.3745 82.9014 21.8975 81.4363 21.8975 79.6455C21.8975 77.8548 23.3745 76.3896 25.1798 76.3896C26.9851 76.3896 28.4621 77.8548 28.4621 79.6455Z" fill="white"/>
<path d="M47.0061 79.6455C47.0061 81.4363 45.529 82.9014 43.7237 82.9014C41.9185 82.9014 40.4414 81.4363 40.4414 79.6455C40.4414 77.8548 41.9185 76.3896 43.7237 76.3896C45.529 76.3896 47.0061 77.8548 47.0061 79.6455Z" fill="white"/>
<path d="M65.3879 79.6455C65.3879 81.4363 63.9109 82.9014 62.1056 82.9014C60.3003 82.9014 58.8232 81.4363 58.8232 79.6455C58.8232 77.8548 60.3003 76.3896 62.1056 76.3896C63.9109 76.3896 65.3879 77.8548 65.3879 79.6455Z" fill="white"/>
<path d="M83.9338 79.6455C83.9338 81.4363 82.4568 82.9014 80.6515 82.9014C78.8462 82.9014 77.3691 81.4363 77.3691 79.6455C77.3691 77.8548 78.8462 76.3896 80.6515 76.3896C82.4568 76.3896 83.9338 77.8548 83.9338 79.6455Z" fill="white"/>
<path d="M102.479 79.6455C102.479 81.4363 101.002 82.9014 99.1964 82.9014C97.3911 82.9014 95.9141 81.4363 95.9141 79.6455C95.9141 77.8548 97.3911 76.3896 99.1964 76.3896C101.002 76.3896 102.479 77.8548 102.479 79.6455Z" fill="white"/>
<path d="M120.86 79.6455C120.86 81.4363 119.383 82.9014 117.577 82.9014C115.772 82.9014 114.295 81.4363 114.295 79.6455C114.295 77.8548 115.772 76.3896 117.577 76.3896C119.383 76.3896 120.86 77.8548 120.86 79.6455Z" fill="white"/>
<path d="M139.405 79.6446C139.405 81.4353 137.928 82.9005 136.123 82.9005C134.318 82.9005 132.841 81.4353 132.841 79.6446C132.841 77.8538 134.318 76.3887 136.123 76.3887C137.928 76.3887 139.405 77.8538 139.405 79.6446Z" fill="white"/>
<path d="M157.951 79.6455C157.951 81.4363 156.474 82.9014 154.669 82.9014C152.864 82.9014 151.387 81.4363 151.387 79.6455C151.387 77.8548 152.864 76.3896 154.669 76.3896C156.474 76.3896 157.951 77.8548 157.951 79.6455Z" fill="white"/>
<path d="M176.332 79.6455C176.332 81.4363 174.855 82.9014 173.05 82.9014C171.245 82.9014 169.768 81.4363 169.768 79.6455C169.768 77.8548 171.245 76.3896 173.05 76.3896C174.855 76.3896 176.332 77.8548 176.332 79.6455Z" fill="white"/>
<path d="M194.877 79.6455C194.877 81.4363 193.4 82.9014 191.595 82.9014C189.79 82.9014 188.312 81.4363 188.312 79.6455C188.312 77.8548 189.79 76.3896 191.595 76.3896C193.4 76.3896 194.877 77.8548 194.877 79.6455Z" fill="white"/>
<path d="M213.424 79.6446C213.424 81.4353 211.947 82.9005 210.142 82.9005C208.336 82.9005 206.859 81.4353 206.859 79.6446C206.859 77.8538 208.336 76.3887 210.142 76.3887C211.947 76.3887 213.424 77.8538 213.424 79.6446Z" fill="white"/>
<path d="M231.803 79.6455C231.803 81.4363 230.326 82.9014 228.521 82.9014C226.715 82.9014 225.238 81.4363 225.238 79.6455C225.238 77.8548 226.715 76.3896 228.521 76.3896C230.49 76.3896 231.803 77.8548 231.803 79.6455Z" fill="white"/>
<path d="M250.348 79.6455C250.348 81.4363 248.871 82.9014 247.066 82.9014C245.26 82.9014 243.783 81.4363 243.783 79.6455C243.783 77.8548 245.26 76.3896 247.066 76.3896C248.871 76.3896 250.348 77.8548 250.348 79.6455Z" fill="white"/>
<path d="M268.892 79.6455C268.892 81.4363 267.415 82.9014 265.61 82.9014C263.804 82.9014 262.327 81.4363 262.327 79.6455C262.327 77.8548 263.804 76.3896 265.61 76.3896C267.415 76.3896 268.892 77.8548 268.892 79.6455Z" fill="white"/>
<path d="M0.726798 88.7618C0.726798 90.5525 -0.750257 92.0177 -2.55555 92.0177C-4.36084 92.0177 -5.83789 90.5525 -5.83789 88.7618C-5.83789 86.971 -4.36084 85.5059 -2.55555 85.5059C-0.750257 85.5059 0.726798 86.971 0.726798 88.7618Z" fill="white"/>
<path d="M19.2717 88.7618C19.2717 90.5525 17.7946 92.0177 15.9894 92.0177C14.1841 92.0177 12.707 90.5525 12.707 88.7618C12.707 86.971 14.1841 85.5059 15.9894 85.5059C17.7946 85.5059 19.2717 86.971 19.2717 88.7618Z" fill="white"/>
<path d="M37.6516 88.7627C37.6516 90.5535 36.1745 92.0186 34.3692 92.0186C32.564 92.0186 31.0869 90.5535 31.0869 88.7627C31.0869 86.972 32.564 85.5068 34.3692 85.5068C36.1745 85.5068 37.6516 86.972 37.6516 88.7627Z" fill="white"/>
<path d="M56.1965 88.7618C56.1965 90.5525 54.7195 92.0177 52.9142 92.0177C51.1089 92.0177 49.6318 90.5525 49.6318 88.7618C49.6318 86.971 51.1089 85.5059 52.9142 85.5059C54.7195 85.5059 56.1965 86.971 56.1965 88.7618Z" fill="white"/>
<path d="M74.7414 88.7618C74.7414 90.5525 73.2644 92.0177 71.4591 92.0177C69.6538 92.0177 68.1768 90.5525 68.1768 88.7618C68.1768 86.971 69.6538 85.5059 71.4591 85.5059C73.2644 85.5059 74.7414 86.971 74.7414 88.7618Z" fill="white"/>
<path d="M93.1223 88.7618C93.1223 90.5525 91.6452 92.0177 89.8399 92.0177C88.0347 92.0177 86.5576 90.5525 86.5576 88.7618C86.5576 86.971 88.0347 85.5059 89.8399 85.5059C91.6452 85.5059 93.1223 86.971 93.1223 88.7618Z" fill="white"/>
<path d="M111.668 88.7618C111.668 90.5525 110.191 92.0177 108.386 92.0177C106.581 92.0177 105.104 90.5525 105.104 88.7618C105.104 86.971 106.581 85.5059 108.386 85.5059C110.191 85.5059 111.668 86.971 111.668 88.7618Z" fill="white"/>
<path d="M130.214 88.7616C130.214 90.5522 128.737 92.0173 126.932 92.0173C125.126 92.0173 123.649 90.5522 123.649 88.7616C123.649 86.9709 125.126 85.5059 126.932 85.5059C128.737 85.5059 130.214 86.9709 130.214 88.7616Z" fill="white"/>
<path d="M148.594 88.7616C148.594 90.5522 147.117 92.0173 145.312 92.0173C143.506 92.0173 142.029 90.5522 142.029 88.7616C142.029 86.9709 143.506 85.5059 145.312 85.5059C147.117 85.5059 148.594 86.9709 148.594 88.7616Z" fill="white"/>
<path d="M167.138 88.7616C167.138 90.5522 165.661 92.0173 163.856 92.0173C162.05 92.0173 160.573 90.5522 160.573 88.7616C160.573 86.9709 162.05 85.5059 163.856 85.5059C165.661 85.5059 167.138 86.9709 167.138 88.7616Z" fill="white"/>
<path d="M185.682 88.7616C185.682 90.5522 184.205 92.0173 182.4 92.0173C180.594 92.0173 179.117 90.5522 179.117 88.7616C179.117 86.9709 180.594 85.5059 182.4 85.5059C184.205 85.5059 185.682 86.9709 185.682 88.7616Z" fill="white"/>
<path d="M204.065 88.7618C204.065 90.5525 202.588 92.0177 200.782 92.0177C198.977 92.0177 197.5 90.5525 197.5 88.7618C197.5 86.971 198.977 85.5059 200.782 85.5059C202.752 85.5059 204.065 86.971 204.065 88.7618Z" fill="white"/>
<path d="M222.612 88.7616C222.612 90.5522 221.135 92.0173 219.329 92.0173C217.524 92.0173 216.047 90.5522 216.047 88.7616C216.047 86.9709 217.524 85.5059 219.329 85.5059C221.135 85.5059 222.612 86.9709 222.612 88.7616Z" fill="white"/>
<path d="M241.155 88.7618C241.155 90.5525 239.678 92.0177 237.873 92.0177C236.068 92.0177 234.591 90.5525 234.591 88.7618C234.591 86.971 236.068 85.5059 237.873 85.5059C239.678 85.5059 241.155 86.971 241.155 88.7618Z" fill="white"/>
<path d="M259.536 88.7618C259.536 90.5525 258.059 92.0177 256.254 92.0177C254.449 92.0177 252.972 90.5525 252.972 88.7618C252.972 86.971 254.449 85.5059 256.254 85.5059C258.223 85.5059 259.536 86.971 259.536 88.7618Z" fill="white"/>
<path d="M278.083 88.7616C278.083 90.5522 276.606 92.0173 274.801 92.0173C272.996 92.0173 271.519 90.5522 271.519 88.7616C271.519 86.9709 272.996 85.5059 274.801 85.5059C276.606 85.5059 278.083 86.9709 278.083 88.7616Z" fill="white"/>
<path d="M9.91527 97.8789C9.91527 99.6697 8.43822 101.135 6.63293 101.135C4.82764 101.135 3.35059 99.6697 3.35059 97.8789C3.35059 96.0882 4.82764 94.623 6.63293 94.623C8.43822 94.7858 9.91527 96.0882 9.91527 97.8789Z" fill="white"/>
<path d="M28.4592 97.8778C28.4592 99.6684 26.9821 101.133 25.1769 101.133C23.3716 101.133 21.8945 99.6684 21.8945 97.8778C21.8945 96.0871 23.3716 94.6221 25.1769 94.6221C26.9821 94.7849 28.4592 96.0871 28.4592 97.8778Z" fill="white"/>
<path d="M43.7208 101.135C45.5336 101.135 47.0031 99.6771 47.0031 97.8789C47.0031 96.0808 45.5336 94.623 43.7208 94.623C41.908 94.623 40.4385 96.0808 40.4385 97.8789C40.4385 99.6771 41.908 101.135 43.7208 101.135Z" fill="white"/>
<path d="M62.2667 101.133C64.0795 101.133 65.549 99.6759 65.549 97.8778C65.549 96.0797 64.0795 94.6221 62.2667 94.6221C60.4539 94.6221 58.9844 96.0797 58.9844 97.8778C58.9844 99.6759 60.4539 101.133 62.2667 101.133Z" fill="white"/>
<path d="M83.9309 97.8789C83.9309 99.6697 82.4538 101.135 80.6486 101.135C78.8433 101.135 77.3662 99.6697 77.3662 97.8789C77.3662 96.0882 78.8433 94.623 80.6486 94.623C82.4538 94.7858 83.9309 96.0882 83.9309 97.8789Z" fill="white"/>
<path d="M99.1935 101.135C101.006 101.135 102.476 99.6771 102.476 97.8789C102.476 96.0808 101.006 94.623 99.1935 94.623C97.3807 94.623 95.9111 96.0808 95.9111 97.8789C95.9111 99.6771 97.3807 101.135 99.1935 101.135Z" fill="white"/>
<path d="M120.858 97.8789C120.858 99.6697 119.381 101.135 117.575 101.135C115.77 101.135 114.293 99.6697 114.293 97.8789C114.293 96.0882 115.77 94.623 117.575 94.623C119.381 94.7858 120.858 96.0882 120.858 97.8789Z" fill="white"/>
<path d="M139.403 97.878C139.403 99.6687 137.926 101.134 136.12 101.134C134.315 101.134 132.838 99.6687 132.838 97.878C132.838 96.0872 134.315 94.6221 136.12 94.6221C137.926 94.7849 139.403 96.0872 139.403 97.878Z" fill="white"/>
<path d="M157.949 97.8778C157.949 99.6684 156.472 101.133 154.667 101.133C152.862 101.133 151.385 99.6684 151.385 97.8778C151.385 96.0871 152.862 94.6221 154.667 94.6221C156.472 94.7849 157.949 96.0871 157.949 97.8778Z" fill="white"/>
<path d="M173.211 101.133C175.024 101.133 176.493 99.6759 176.493 97.8778C176.493 96.0797 175.024 94.6221 173.211 94.6221C171.398 94.6221 169.929 96.0797 169.929 97.8778C169.929 99.6759 171.398 101.133 173.211 101.133Z" fill="white"/>
<path d="M194.875 97.8789C194.875 99.6697 193.398 101.135 191.593 101.135C189.788 101.135 188.311 99.6697 188.311 97.8789C188.311 96.0882 189.788 94.623 191.593 94.623C193.398 94.7858 194.875 96.0882 194.875 97.8789Z" fill="white"/>
<path d="M210.139 101.134C211.952 101.134 213.421 99.6762 213.421 97.878C213.421 96.0798 211.952 94.6221 210.139 94.6221C208.326 94.6221 206.856 96.0798 206.856 97.878C206.856 99.6762 208.326 101.134 210.139 101.134Z" fill="white"/>
<path d="M231.802 97.8788C231.802 99.6694 230.325 101.134 228.52 101.134C226.714 101.134 225.237 99.6694 225.237 97.8788C225.237 96.0881 226.714 94.623 228.52 94.623C230.489 94.7858 231.802 96.0881 231.802 97.8788Z" fill="white"/>
<path d="M250.347 97.8788C250.347 99.6694 248.87 101.134 247.065 101.134C245.259 101.134 243.782 99.6694 243.782 97.8788C243.782 96.0881 245.259 94.623 247.065 94.623C248.87 94.7858 250.347 96.0881 250.347 97.8788Z" fill="white"/>
<path d="M268.892 97.8789C268.892 99.6697 267.415 101.135 265.61 101.135C263.804 101.135 262.327 99.6697 262.327 97.8789C262.327 96.0882 263.804 94.623 265.61 94.623C267.415 94.7858 268.892 96.0882 268.892 97.8789Z" fill="white"/>
<path d="M0.725821 107.158C0.725821 108.949 -0.751234 110.414 -2.55652 110.414C-4.36181 110.414 -5.83887 108.949 -5.83887 107.158C-5.83887 105.367 -4.36181 103.902 -2.55652 103.902C-0.751234 103.902 0.725821 105.367 0.725821 107.158Z" fill="white"/>
<path d="M19.2707 107.157C19.2707 108.948 17.7937 110.413 15.9884 110.413C14.1831 110.413 12.7061 108.948 12.7061 107.157C12.7061 105.367 14.1831 103.901 15.9884 103.901C17.7937 103.901 19.2707 105.367 19.2707 107.157Z" fill="white"/>
<path d="M37.6506 107.158C37.6506 108.949 36.1736 110.414 34.3683 110.414C32.563 110.414 31.0859 108.949 31.0859 107.158C31.0859 105.367 32.563 103.902 34.3683 103.902C36.1736 103.902 37.6506 105.367 37.6506 107.158Z" fill="white"/>
<path d="M56.1955 107.157C56.1955 108.948 54.7185 110.413 52.9132 110.413C51.1079 110.413 49.6309 108.948 49.6309 107.157C49.6309 105.367 51.1079 103.901 52.9132 103.901C54.7185 103.901 56.1955 105.367 56.1955 107.157Z" fill="white"/>
<path d="M74.7414 107.158C74.7414 108.949 73.2644 110.414 71.4591 110.414C69.6538 110.414 68.1768 108.949 68.1768 107.158C68.1768 105.367 69.6538 103.902 71.4591 103.902C73.2644 103.902 74.7414 105.367 74.7414 107.158Z" fill="white"/>
<path d="M93.1223 107.157C93.1223 108.948 91.6452 110.413 89.8399 110.413C88.0347 110.413 86.5576 108.948 86.5576 107.157C86.5576 105.367 88.0347 103.901 89.8399 103.901C91.6452 103.901 93.1223 105.367 93.1223 107.157Z" fill="white"/>
<path d="M111.666 107.157C111.666 108.948 110.189 110.413 108.384 110.413C106.579 110.413 105.102 108.948 105.102 107.157C105.102 105.367 106.579 103.901 108.384 103.901C110.189 103.901 111.666 105.367 111.666 107.157Z" fill="white"/>
<path d="M130.212 107.156C130.212 108.947 128.735 110.412 126.93 110.412C125.125 110.412 123.647 108.947 123.647 107.156C123.647 105.365 125.125 103.9 126.93 103.9C128.735 103.9 130.212 105.365 130.212 107.156Z" fill="white"/>
<path d="M148.594 107.158C148.594 108.949 147.117 110.414 145.312 110.414C143.506 110.414 142.029 108.949 142.029 107.158C142.029 105.367 143.506 103.902 145.312 103.902C147.117 103.902 148.594 105.367 148.594 107.158Z" fill="white"/>
<path d="M167.139 107.157C167.139 108.948 165.662 110.413 163.857 110.413C162.051 110.413 160.574 108.948 160.574 107.157C160.574 105.366 162.051 103.901 163.857 103.901C165.662 103.901 167.139 105.366 167.139 107.157Z" fill="white"/>
<path d="M185.683 107.157C185.683 108.948 184.206 110.413 182.4 110.413C180.595 110.413 179.118 108.948 179.118 107.157C179.118 105.366 180.595 103.901 182.4 103.901C184.206 103.901 185.683 105.366 185.683 107.157Z" fill="white"/>
<path d="M204.065 107.157C204.065 108.948 202.588 110.413 200.782 110.413C198.977 110.413 197.5 108.948 197.5 107.157C197.5 105.366 198.977 103.901 200.782 103.901C202.752 103.901 204.065 105.366 204.065 107.157Z" fill="white"/>
<path d="M222.612 107.158C222.612 108.949 221.135 110.414 219.329 110.414C217.524 110.414 216.047 108.949 216.047 107.158C216.047 105.367 217.524 103.902 219.329 103.902C221.135 103.902 222.612 105.367 222.612 107.158Z" fill="white"/>
<path d="M241.155 107.157C241.155 108.948 239.678 110.413 237.873 110.413C236.068 110.413 234.591 108.948 234.591 107.157C234.591 105.366 236.068 103.901 237.873 103.901C239.678 103.901 241.155 105.366 241.155 107.157Z" fill="white"/>
<path d="M259.537 107.157C259.537 108.948 258.06 110.413 256.255 110.413C254.45 110.413 252.973 108.948 252.973 107.157C252.973 105.367 254.45 103.901 256.255 103.901C258.224 103.901 259.537 105.367 259.537 107.157Z" fill="white"/>
<path d="M278.083 107.156C278.083 108.947 276.606 110.412 274.801 110.412C272.996 110.412 271.519 108.947 271.519 107.156C271.519 105.366 272.996 103.9 274.801 103.9C276.606 103.9 278.083 105.366 278.083 107.156Z" fill="white"/>
<path d="M9.91527 116.273C9.91527 118.064 8.43822 119.529 6.63293 119.529C4.82764 119.529 3.35059 118.064 3.35059 116.273C3.35059 114.483 4.82764 113.018 6.63293 113.018C8.43822 113.018 9.91527 114.483 9.91527 116.273Z" fill="white"/>
<path d="M28.4592 116.272C28.4592 118.063 26.9821 119.528 25.1769 119.528C23.3716 119.528 21.8945 118.063 21.8945 116.272C21.8945 114.482 23.3716 113.017 25.1769 113.017C26.9821 113.017 28.4592 114.482 28.4592 116.272Z" fill="white"/>
<path d="M47.0031 116.272C47.0031 118.063 45.5261 119.528 43.7208 119.528C41.9155 119.528 40.4385 118.063 40.4385 116.272C40.4385 114.482 41.9155 113.017 43.7208 113.017C45.5261 113.017 47.0031 114.482 47.0031 116.272Z" fill="white"/>
<path d="M65.386 116.272C65.386 118.063 63.9089 119.528 62.1036 119.528C60.2983 119.528 58.8213 118.063 58.8213 116.272C58.8213 114.482 60.2983 113.017 62.1036 113.017C63.9089 113.017 65.386 114.482 65.386 116.272Z" fill="white"/>
<path d="M83.9309 116.273C83.9309 118.064 82.4538 119.529 80.6486 119.529C78.8433 119.529 77.3662 118.064 77.3662 116.273C77.3662 114.483 78.8433 113.018 80.6486 113.018C82.4538 113.018 83.9309 114.483 83.9309 116.273Z" fill="white"/>
<path d="M102.476 116.272C102.476 118.063 100.999 119.528 99.1935 119.528C97.3882 119.528 95.9111 118.063 95.9111 116.272C95.9111 114.482 97.3882 113.017 99.1935 113.017C100.999 113.017 102.476 114.482 102.476 116.272Z" fill="white"/>
<path d="M120.858 116.272C120.858 118.063 119.381 119.528 117.575 119.528C115.77 119.528 114.293 118.063 114.293 116.272C114.293 114.482 115.77 113.017 117.575 113.017C119.381 113.017 120.858 114.482 120.858 116.272Z" fill="white"/>
<path d="M139.403 116.272C139.403 118.063 137.926 119.528 136.12 119.528C134.315 119.528 132.838 118.063 132.838 116.272C132.838 114.482 134.315 113.017 136.12 113.017C137.926 113.017 139.403 114.482 139.403 116.272Z" fill="white"/>
<path d="M157.949 116.272C157.949 118.063 156.471 119.528 154.666 119.528C152.861 119.528 151.384 118.063 151.384 116.272C151.384 114.482 152.861 113.017 154.666 113.017C156.471 113.017 157.949 114.482 157.949 116.272Z" fill="white"/>
<path d="M176.329 116.272C176.329 118.063 174.852 119.528 173.047 119.528C171.242 119.528 169.765 118.063 169.765 116.272C169.765 114.482 171.242 113.017 173.047 113.017C174.852 113.017 176.329 114.482 176.329 116.272Z" fill="white"/>
<path d="M194.875 116.272C194.875 118.063 193.398 119.528 191.593 119.528C189.788 119.528 188.311 118.063 188.311 116.272C188.311 114.482 189.788 113.017 191.593 113.017C193.398 113.017 194.875 114.482 194.875 116.272Z" fill="white"/>
<path d="M213.421 116.272C213.421 118.063 211.944 119.528 210.139 119.528C208.333 119.528 206.856 118.063 206.856 116.272C206.856 114.482 208.333 113.017 210.139 113.017C211.944 113.017 213.421 114.482 213.421 116.272Z" fill="white"/>
<path d="M231.802 116.272C231.802 118.063 230.325 119.528 228.52 119.528C226.714 119.528 225.237 118.063 225.237 116.272C225.237 114.482 226.714 113.017 228.52 113.017C230.489 113.017 231.802 114.482 231.802 116.272Z" fill="white"/>
<path d="M250.347 116.272C250.347 118.063 248.87 119.528 247.065 119.528C245.259 119.528 243.782 118.063 243.782 116.272C243.782 114.482 245.259 113.017 247.065 113.017C248.87 113.017 250.347 114.482 250.347 116.272Z" fill="white"/>
<path d="M268.892 116.272C268.892 118.063 267.415 119.528 265.61 119.528C263.804 119.528 262.327 118.063 262.327 116.272C262.327 114.482 263.804 113.017 265.61 113.017C267.415 113.017 268.892 114.482 268.892 116.272Z" fill="white"/>
<path d="M0.725821 125.389C0.725821 127.18 -0.751234 128.645 -2.55652 128.645C-4.36181 128.645 -5.83887 127.18 -5.83887 125.389C-5.83887 123.599 -4.36181 122.134 -2.55652 122.134C-0.751234 122.297 0.725821 123.599 0.725821 125.389Z" fill="white"/>
<path d="M19.2707 125.389C19.2707 127.179 17.7937 128.644 15.9884 128.644C14.1831 128.644 12.7061 127.179 12.7061 125.389C12.7061 123.598 14.1831 122.133 15.9884 122.133C17.7937 122.296 19.2707 123.598 19.2707 125.389Z" fill="white"/>
<path d="M37.6506 125.389C37.6506 127.179 36.1736 128.644 34.3683 128.644C32.563 128.644 31.0859 127.179 31.0859 125.389C31.0859 123.598 32.563 122.133 34.3683 122.133C36.1736 122.296 37.6506 123.598 37.6506 125.389Z" fill="white"/>
<path d="M56.1955 125.388C56.1955 127.179 54.7185 128.644 52.9132 128.644C51.1079 128.644 49.6309 127.179 49.6309 125.388C49.6309 123.598 51.1079 122.133 52.9132 122.133C54.7185 122.296 56.1955 123.598 56.1955 125.388Z" fill="white"/>
<path d="M74.7414 125.389C74.7414 127.179 73.2644 128.644 71.4591 128.644C69.6538 128.644 68.1768 127.179 68.1768 125.389C68.1768 123.598 69.6538 122.133 71.4591 122.133C73.2644 122.296 74.7414 123.598 74.7414 125.389Z" fill="white"/>
<path d="M93.1223 125.388C93.1223 127.179 91.6452 128.644 89.8399 128.644C88.0347 128.644 86.5576 127.179 86.5576 125.388C86.5576 123.598 88.0347 122.133 89.8399 122.133C91.6452 122.296 93.1223 123.598 93.1223 125.388Z" fill="white"/>
<path d="M111.666 125.388C111.666 127.179 110.189 128.644 108.384 128.644C106.579 128.644 105.102 127.179 105.102 125.388C105.102 123.598 106.579 122.133 108.384 122.133C110.189 122.296 111.666 123.598 111.666 125.388Z" fill="white"/>
<path d="M130.212 125.389C130.212 127.179 128.735 128.644 126.93 128.644C125.125 128.644 123.647 127.179 123.647 125.389C123.647 123.598 125.125 122.133 126.93 122.133C128.735 122.296 130.212 123.598 130.212 125.389Z" fill="white"/>
<path d="M148.594 125.389C148.594 127.179 147.117 128.644 145.312 128.644C143.506 128.644 142.029 127.179 142.029 125.389C142.029 123.598 143.506 122.133 145.312 122.133C147.117 122.296 148.594 123.598 148.594 125.389Z" fill="white"/>
<path d="M167.139 125.388C167.139 127.179 165.662 128.644 163.857 128.644C162.051 128.644 160.574 127.179 160.574 125.388C160.574 123.598 162.051 122.133 163.857 122.133C165.662 122.296 167.139 123.598 167.139 125.388Z" fill="white"/>
<path d="M185.683 125.388C185.683 127.179 184.206 128.644 182.4 128.644C180.595 128.644 179.118 127.179 179.118 125.388C179.118 123.598 180.595 122.133 182.4 122.133C184.206 122.296 185.683 123.598 185.683 125.388Z" fill="white"/>
<path d="M204.065 125.389C204.065 127.179 202.588 128.644 200.782 128.644C198.977 128.644 197.5 127.179 197.5 125.389C197.5 123.598 198.977 122.133 200.782 122.133C202.752 122.296 204.065 123.598 204.065 125.389Z" fill="white"/>
<path d="M222.612 125.388C222.612 127.179 221.134 128.644 219.329 128.644C217.524 128.644 216.047 127.179 216.047 125.388C216.047 123.598 217.524 122.133 219.329 122.133C221.134 122.296 222.612 123.598 222.612 125.388Z" fill="white"/>
<path d="M241.156 125.389C241.156 127.179 239.679 128.644 237.874 128.644C236.069 128.644 234.592 127.179 234.592 125.389C234.592 123.598 236.069 122.133 237.874 122.133C239.679 122.296 241.156 123.598 241.156 125.389Z" fill="white"/>
<path d="M259.537 125.389C259.537 127.179 258.06 128.644 256.255 128.644C254.45 128.644 252.973 127.179 252.973 125.389C252.973 123.598 254.45 122.133 256.255 122.133C258.224 122.296 259.537 123.598 259.537 125.389Z" fill="white"/>
<path d="M278.083 125.389C278.083 127.179 276.606 128.644 274.801 128.644C272.996 128.644 271.519 127.179 271.519 125.389C271.519 123.598 272.996 122.133 274.801 122.133C276.606 122.296 278.083 123.598 278.083 125.389Z" fill="white"/>
<path d="M9.91527 134.668C9.91527 136.458 8.43822 137.924 6.63293 137.924C4.82764 137.924 3.35059 136.458 3.35059 134.668C3.35059 132.877 4.82764 131.412 6.63293 131.412C8.43822 131.412 9.91527 132.877 9.91527 134.668Z" fill="white"/>
<path d="M28.4592 134.667C28.4592 136.457 26.9821 137.923 25.1769 137.923C23.3716 137.923 21.8945 136.457 21.8945 134.667C21.8945 132.876 23.3716 131.411 25.1769 131.411C26.9821 131.411 28.4592 132.876 28.4592 134.667Z" fill="white"/>
<path d="M47.0031 134.668C47.0031 136.458 45.5261 137.923 43.7208 137.923C41.9155 137.923 40.4385 136.458 40.4385 134.668C40.4385 132.877 41.9155 131.412 43.7208 131.412C45.5261 131.412 47.0031 132.877 47.0031 134.668Z" fill="white"/>
<path d="M65.386 134.667C65.386 136.457 63.9089 137.923 62.1036 137.923C60.2983 137.923 58.8213 136.457 58.8213 134.667C58.8213 132.876 60.2983 131.411 62.1036 131.411C63.9089 131.411 65.386 132.876 65.386 134.667Z" fill="white"/>
<path d="M83.9309 134.667C83.9309 136.457 82.4538 137.923 80.6486 137.923C78.8433 137.923 77.3662 136.457 77.3662 134.667C77.3662 132.876 78.8433 131.411 80.6486 131.411C82.4538 131.411 83.9309 132.876 83.9309 134.667Z" fill="white"/>
<path d="M102.476 134.667C102.476 136.457 100.999 137.923 99.1935 137.923C97.3882 137.923 95.9111 136.457 95.9111 134.667C95.9111 132.876 97.3882 131.411 99.1935 131.411C100.999 131.411 102.476 132.876 102.476 134.667Z" fill="white"/>
<path d="M120.858 134.667C120.858 136.457 119.381 137.923 117.575 137.923C115.77 137.923 114.293 136.457 114.293 134.667C114.293 132.876 115.77 131.411 117.575 131.411C119.381 131.411 120.858 132.876 120.858 134.667Z" fill="white"/>
<path d="M139.403 134.667C139.403 136.457 137.926 137.922 136.12 137.922C134.315 137.922 132.838 136.457 132.838 134.667C132.838 132.876 134.315 131.411 136.12 131.411C137.926 131.411 139.403 132.876 139.403 134.667Z" fill="white"/>
<path d="M157.949 134.668C157.949 136.458 156.471 137.924 154.666 137.924C152.861 137.924 151.384 136.458 151.384 134.668C151.384 132.877 152.861 131.412 154.666 131.412C156.471 131.412 157.949 132.877 157.949 134.668Z" fill="white"/>
<path d="M176.329 134.667C176.329 136.457 174.852 137.923 173.047 137.923C171.242 137.923 169.765 136.457 169.765 134.667C169.765 132.876 171.242 131.411 173.047 131.411C174.852 131.411 176.329 132.876 176.329 134.667Z" fill="white"/>
<path d="M194.875 134.668C194.875 136.458 193.398 137.924 191.593 137.924C189.788 137.924 188.311 136.458 188.311 134.668C188.311 132.877 189.788 131.412 191.593 131.412C193.398 131.412 194.875 132.877 194.875 134.668Z" fill="white"/>
<path d="M213.421 134.667C213.421 136.457 211.944 137.923 210.139 137.923C208.333 137.923 206.856 136.457 206.856 134.667C206.856 132.876 208.333 131.411 210.139 131.411C211.944 131.411 213.421 132.876 213.421 134.667Z" fill="white"/>
<path d="M231.802 134.667C231.802 136.457 230.325 137.923 228.52 137.923C226.714 137.923 225.237 136.457 225.237 134.667C225.237 132.876 226.714 131.411 228.52 131.411C230.489 131.411 231.802 132.876 231.802 134.667Z" fill="white"/>
<path d="M250.347 134.667C250.347 136.457 248.87 137.922 247.065 137.922C245.259 137.922 243.782 136.457 243.782 134.667C243.782 132.876 245.259 131.411 247.065 131.411C248.87 131.411 250.347 132.876 250.347 134.667Z" fill="white"/>
<path d="M268.892 134.667C268.892 136.457 267.415 137.923 265.61 137.923C263.804 137.923 262.327 136.457 262.327 134.667C262.327 132.876 263.804 131.411 265.61 131.411C267.415 131.411 268.892 132.876 268.892 134.667Z" fill="white"/>
<path d="M0.725821 143.784C0.725821 145.575 -0.751234 147.04 -2.55652 147.04C-4.36181 147.04 -5.83887 145.575 -5.83887 143.784C-5.83887 141.993 -4.36181 140.528 -2.55652 140.528C-0.751234 140.528 0.725821 141.993 0.725821 143.784Z" fill="white"/>
<path d="M19.2707 143.784C19.2707 145.575 17.7937 147.04 15.9884 147.04C14.1831 147.04 12.7061 145.575 12.7061 143.784C12.7061 141.993 14.1831 140.528 15.9884 140.528C17.7937 140.528 19.2707 141.993 19.2707 143.784Z" fill="white"/>
<path d="M37.6506 143.784C37.6506 145.575 36.1736 147.04 34.3683 147.04C32.563 147.04 31.0859 145.575 31.0859 143.784C31.0859 141.993 32.563 140.528 34.3683 140.528C36.1736 140.528 37.6506 141.993 37.6506 143.784Z" fill="white"/>
<path d="M56.1955 143.784C56.1955 145.575 54.7185 147.04 52.9132 147.04C51.1079 147.04 49.6309 145.575 49.6309 143.784C49.6309 141.993 51.1079 140.528 52.9132 140.528C54.7185 140.528 56.1955 141.993 56.1955 143.784Z" fill="white"/>
<path d="M74.7414 143.784C74.7414 145.575 73.2644 147.04 71.4591 147.04C69.6538 147.04 68.1768 145.575 68.1768 143.784C68.1768 141.993 69.6538 140.528 71.4591 140.528C73.2644 140.528 74.7414 141.993 74.7414 143.784Z" fill="white"/>
<path d="M93.1223 143.784C93.1223 145.575 91.6452 147.04 89.8399 147.04C88.0347 147.04 86.5576 145.575 86.5576 143.784C86.5576 141.993 88.0347 140.528 89.8399 140.528C91.6452 140.528 93.1223 141.993 93.1223 143.784Z" fill="white"/>
<path d="M111.666 143.784C111.666 145.575 110.189 147.04 108.384 147.04C106.579 147.04 105.102 145.575 105.102 143.784C105.102 141.993 106.579 140.528 108.384 140.528C110.189 140.528 111.666 141.993 111.666 143.784Z" fill="white"/>
<path d="M130.212 143.784C130.212 145.575 128.735 147.04 126.93 147.04C125.125 147.04 123.647 145.575 123.647 143.784C123.647 141.993 125.125 140.528 126.93 140.528C128.735 140.528 130.212 141.993 130.212 143.784Z" fill="white"/>
<path d="M148.594 143.784C148.594 145.575 147.117 147.04 145.312 147.04C143.506 147.04 142.029 145.575 142.029 143.784C142.029 141.993 143.506 140.528 145.312 140.528C147.117 140.528 148.594 141.993 148.594 143.784Z" fill="white"/>
<path d="M167.139 143.784C167.139 145.575 165.662 147.04 163.857 147.04C162.051 147.04 160.574 145.575 160.574 143.784C160.574 141.993 162.051 140.528 163.857 140.528C165.662 140.528 167.139 141.993 167.139 143.784Z" fill="white"/>
<path d="M185.683 143.784C185.683 145.575 184.206 147.04 182.4 147.04C180.595 147.04 179.118 145.575 179.118 143.784C179.118 141.993 180.595 140.528 182.4 140.528C184.206 140.528 185.683 141.993 185.683 143.784Z" fill="white"/>
<path d="M204.065 143.784C204.065 145.575 202.588 147.04 200.782 147.04C198.977 147.04 197.5 145.575 197.5 143.784C197.5 141.993 198.977 140.528 200.782 140.528C202.752 140.528 204.065 141.993 204.065 143.784Z" fill="white"/>
<path d="M222.612 143.784C222.612 145.575 221.134 147.04 219.329 147.04C217.524 147.04 216.047 145.575 216.047 143.784C216.047 141.993 217.524 140.528 219.329 140.528C221.134 140.528 222.612 141.993 222.612 143.784Z" fill="white"/>
<path d="M241.155 143.784C241.155 145.575 239.678 147.04 237.873 147.04C236.068 147.04 234.591 145.575 234.591 143.784C234.591 141.993 236.068 140.528 237.873 140.528C239.678 140.528 241.155 141.993 241.155 143.784Z" fill="white"/>
<path d="M259.537 143.784C259.537 145.575 258.06 147.04 256.255 147.04C254.45 147.04 252.973 145.575 252.973 143.784C252.973 141.993 254.45 140.528 256.255 140.528C258.224 140.528 259.537 141.993 259.537 143.784Z" fill="white"/>
<path d="M278.083 143.784C278.083 145.575 276.606 147.04 274.801 147.04C272.996 147.04 271.519 145.575 271.519 143.784C271.519 141.993 272.996 140.528 274.801 140.528C276.606 140.528 278.083 141.993 278.083 143.784Z" fill="white"/>
<path d="M9.91527 152.901C9.91527 154.692 8.43822 156.157 6.63293 156.157C4.82764 156.157 3.35059 154.692 3.35059 152.901C3.35059 151.111 4.82764 149.646 6.63293 149.646C8.43822 149.808 9.91527 151.111 9.91527 152.901Z" fill="white"/>
<path d="M28.4592 152.9C28.4592 154.691 26.9821 156.156 25.1769 156.156C23.3716 156.156 21.8945 154.691 21.8945 152.9C21.8945 151.11 23.3716 149.645 25.1769 149.645C26.9821 149.807 28.4592 151.11 28.4592 152.9Z" fill="white"/>
<path d="M47.0031 152.9C47.0031 154.691 45.5261 156.156 43.7208 156.156C41.9155 156.156 40.4385 154.691 40.4385 152.9C40.4385 151.11 41.9155 149.645 43.7208 149.645C45.5261 149.807 47.0031 151.11 47.0031 152.9Z" fill="white"/>
<path d="M65.386 152.9C65.386 154.691 63.9089 156.156 62.1036 156.156C60.2983 156.156 58.8213 154.691 58.8213 152.9C58.8213 151.11 60.2983 149.645 62.1036 149.645C63.9089 149.645 65.386 151.11 65.386 152.9Z" fill="white"/>
<path d="M83.9309 152.9C83.9309 154.691 82.4538 156.156 80.6486 156.156C78.8433 156.156 77.3662 154.691 77.3662 152.9C77.3662 151.11 78.8433 149.645 80.6486 149.645C82.4538 149.807 83.9309 151.11 83.9309 152.9Z" fill="white"/>
<path d="M102.476 152.9C102.476 154.691 100.999 156.156 99.1935 156.156C97.3882 156.156 95.9111 154.691 95.9111 152.9C95.9111 151.11 97.3882 149.645 99.1935 149.645C100.999 149.807 102.476 151.11 102.476 152.9Z" fill="white"/>
<path d="M120.858 152.9C120.858 154.691 119.381 156.156 117.575 156.156C115.77 156.156 114.293 154.691 114.293 152.9C114.293 151.11 115.77 149.645 117.575 149.645C119.381 149.807 120.858 151.11 120.858 152.9Z" fill="white"/>
<path d="M139.403 152.9C139.403 154.691 137.926 156.156 136.12 156.156C134.315 156.156 132.838 154.691 132.838 152.9C132.838 151.11 134.315 149.645 136.12 149.645C137.926 149.807 139.403 151.11 139.403 152.9Z" fill="white"/>
<path d="M157.949 152.9C157.949 154.691 156.471 156.156 154.666 156.156C152.861 156.156 151.384 154.691 151.384 152.9C151.384 151.11 152.861 149.645 154.666 149.645C156.471 149.807 157.949 151.11 157.949 152.9Z" fill="white"/>
<path d="M176.329 152.9C176.329 154.691 174.852 156.156 173.047 156.156C171.242 156.156 169.765 154.691 169.765 152.9C169.765 151.11 171.242 149.645 173.047 149.645C174.852 149.645 176.329 151.11 176.329 152.9Z" fill="white"/>
<path d="M194.875 152.9C194.875 154.691 193.398 156.156 191.593 156.156C189.788 156.156 188.311 154.691 188.311 152.9C188.311 151.11 189.788 149.645 191.593 149.645C193.398 149.807 194.875 151.11 194.875 152.9Z" fill="white"/>
<path d="M213.421 152.9C213.421 154.691 211.944 156.156 210.139 156.156C208.333 156.156 206.856 154.691 206.856 152.9C206.856 151.11 208.333 149.645 210.139 149.645C211.944 149.807 213.421 151.11 213.421 152.9Z" fill="white"/>
<path d="M231.802 152.9C231.802 154.691 230.325 156.156 228.52 156.156C226.714 156.156 225.237 154.691 225.237 152.9C225.237 151.11 226.714 149.645 228.52 149.645C230.489 149.807 231.802 151.11 231.802 152.9Z" fill="white"/>
<path d="M250.347 152.9C250.347 154.691 248.87 156.156 247.065 156.156C245.259 156.156 243.782 154.691 243.782 152.9C243.782 151.11 245.259 149.645 247.065 149.645C248.87 149.807 250.347 151.11 250.347 152.9Z" fill="white"/>
<path d="M268.892 152.9C268.892 154.691 267.415 156.156 265.61 156.156C263.804 156.156 262.327 154.691 262.327 152.9C262.327 151.11 263.804 149.645 265.61 149.645C267.415 149.807 268.892 151.11 268.892 152.9Z" fill="white"/>
<path d="M0.725821 162.181C0.725821 163.971 -0.751234 165.436 -2.55652 165.436C-4.36181 165.436 -5.83887 163.971 -5.83887 162.181C-5.83887 160.39 -4.36181 158.925 -2.55652 158.925C-0.751234 158.925 0.725821 160.39 0.725821 162.181Z" fill="white"/>
<path d="M19.2707 162.18C19.2707 163.97 17.7937 165.435 15.9884 165.435C14.1831 165.435 12.7061 163.97 12.7061 162.18C12.7061 160.389 14.1831 158.924 15.9884 158.924C17.7937 158.924 19.2707 160.389 19.2707 162.18Z" fill="white"/>
<path d="M37.6506 162.181C37.6506 163.971 36.1736 165.437 34.3683 165.437C32.563 165.437 31.0859 163.971 31.0859 162.181C31.0859 160.39 32.563 158.925 34.3683 158.925C36.1736 158.925 37.6506 160.39 37.6506 162.181Z" fill="white"/>
<path d="M52.9132 165.435C54.726 165.435 56.1955 163.978 56.1955 162.18C56.1955 160.381 54.726 158.924 52.9132 158.924C51.1004 158.924 49.6309 160.381 49.6309 162.18C49.6309 163.978 51.1004 165.435 52.9132 165.435Z" fill="white"/>
<path d="M74.7414 162.18C74.7414 163.97 73.2644 165.436 71.4591 165.436C69.6538 165.436 68.1768 163.97 68.1768 162.18C68.1768 160.389 69.6538 158.924 71.4591 158.924C73.2644 158.924 74.7414 160.389 74.7414 162.18Z" fill="white"/>
<path d="M93.1223 162.18C93.1223 163.97 91.6452 165.435 89.8399 165.435C88.0347 165.435 86.5576 163.97 86.5576 162.18C86.5576 160.389 88.0347 158.924 89.8399 158.924C91.6452 158.924 93.1223 160.389 93.1223 162.18Z" fill="white"/>
<path d="M111.666 162.181C111.666 163.971 110.189 165.437 108.384 165.437C106.579 165.437 105.102 163.971 105.102 162.181C105.102 160.39 106.579 158.925 108.384 158.925C110.189 158.925 111.666 160.39 111.666 162.181Z" fill="white"/>
<path d="M130.212 162.18C130.212 163.97 128.735 165.436 126.93 165.436C125.125 165.436 123.647 163.97 123.647 162.18C123.647 160.389 125.125 158.924 126.93 158.924C128.735 158.924 130.212 160.389 130.212 162.18Z" fill="white"/>
<path d="M148.594 162.181C148.594 163.972 147.117 165.437 145.312 165.437C143.506 165.437 142.029 163.972 142.029 162.181C142.029 160.39 143.506 158.925 145.312 158.925C147.117 158.925 148.594 160.39 148.594 162.181Z" fill="white"/>
<path d="M163.857 165.436C165.669 165.436 167.139 163.979 167.139 162.181C167.139 160.382 165.669 158.925 163.857 158.925C162.044 158.925 160.574 160.382 160.574 162.181C160.574 163.979 162.044 165.436 163.857 165.436Z" fill="white"/>
<path d="M185.683 162.181C185.683 163.971 184.206 165.437 182.4 165.437C180.595 165.437 179.118 163.971 179.118 162.181C179.118 160.39 180.595 158.925 182.4 158.925C184.206 158.925 185.683 160.39 185.683 162.181Z" fill="white"/>
<path d="M204.065 162.181C204.065 163.971 202.588 165.436 200.782 165.436C198.977 165.436 197.5 163.971 197.5 162.181C197.5 160.39 198.977 158.925 200.782 158.925C202.752 158.925 204.065 160.39 204.065 162.181Z" fill="white"/>
<path d="M222.612 162.181C222.612 163.972 221.134 165.437 219.329 165.437C217.524 165.437 216.047 163.972 216.047 162.181C216.047 160.39 217.524 158.925 219.329 158.925C221.134 158.925 222.612 160.39 222.612 162.181Z" fill="white"/>
<path d="M241.155 162.181C241.155 163.971 239.678 165.436 237.873 165.436C236.068 165.436 234.591 163.971 234.591 162.181C234.591 160.39 236.068 158.925 237.873 158.925C239.678 158.925 241.155 160.39 241.155 162.181Z" fill="white"/>
<path d="M259.537 162.181C259.537 163.971 258.06 165.437 256.255 165.437C254.45 165.437 252.973 163.971 252.973 162.181C252.973 160.39 254.45 158.925 256.255 158.925C258.224 158.925 259.537 160.39 259.537 162.181Z" fill="white"/>
<path d="M274.801 165.436C276.614 165.436 278.083 163.979 278.083 162.181C278.083 160.382 276.614 158.925 274.801 158.925C272.988 158.925 271.519 160.382 271.519 162.181C271.519 163.979 272.988 165.436 274.801 165.436Z" fill="white"/>
<path d="M9.91625 171.297C9.91625 173.088 8.4392 174.553 6.63391 174.553C4.82862 174.553 3.35156 173.088 3.35156 171.297C3.35156 169.506 4.82862 168.041 6.63391 168.041C8.4392 168.041 9.91625 169.506 9.91625 171.297Z" fill="white"/>
<path d="M28.4621 171.295C28.4621 173.086 26.9851 174.551 25.1798 174.551C23.3745 174.551 21.8975 173.086 21.8975 171.295C21.8975 169.504 23.3745 168.039 25.1798 168.039C26.9851 168.039 28.4621 169.504 28.4621 171.295Z" fill="white"/>
<path d="M43.7237 174.551C45.5365 174.551 47.0061 173.093 47.0061 171.295C47.0061 169.497 45.5365 168.039 43.7237 168.039C41.911 168.039 40.4414 169.497 40.4414 171.295C40.4414 173.093 41.911 174.551 43.7237 174.551Z" fill="white"/>
<path d="M62.2696 174.551C64.0824 174.551 65.552 173.093 65.552 171.295C65.552 169.497 64.0824 168.039 62.2696 168.039C60.4569 168.039 58.9873 169.497 58.9873 171.295C58.9873 173.093 60.4569 174.551 62.2696 174.551Z" fill="white"/>
<path d="M83.9338 171.295C83.9338 173.086 82.4568 174.551 80.6515 174.551C78.8462 174.551 77.3691 173.086 77.3691 171.295C77.3691 169.504 78.8462 168.039 80.6515 168.039C82.4568 168.039 83.9338 169.504 83.9338 171.295Z" fill="white"/>
<path d="M99.1964 174.551C101.009 174.551 102.479 173.093 102.479 171.295C102.479 169.497 101.009 168.039 99.1964 168.039C97.3836 168.039 95.9141 169.497 95.9141 171.295C95.9141 173.093 97.3836 174.551 99.1964 174.551Z" fill="white"/>
<path d="M120.86 171.296C120.86 173.086 119.383 174.551 117.577 174.551C115.772 174.551 114.295 173.086 114.295 171.296C114.295 169.505 115.772 168.04 117.577 168.04C119.383 168.04 120.86 169.505 120.86 171.296Z" fill="white"/>
<path d="M139.405 171.295C139.405 173.085 137.928 174.55 136.123 174.55C134.318 174.55 132.841 173.085 132.841 171.295C132.841 169.504 134.318 168.039 136.123 168.039C137.928 168.039 139.405 169.504 139.405 171.295Z" fill="white"/>
<path d="M157.951 171.295C157.951 173.086 156.474 174.551 154.669 174.551C152.864 174.551 151.387 173.086 151.387 171.295C151.387 169.504 152.864 168.039 154.669 168.039C156.474 168.039 157.951 169.504 157.951 171.295Z" fill="white"/>
<path d="M173.213 174.55C175.026 174.55 176.495 173.093 176.495 171.295C176.495 169.497 175.026 168.039 173.213 168.039C171.4 168.039 169.931 169.497 169.931 171.295C169.931 173.093 171.4 174.55 173.213 174.55Z" fill="white"/>
<path d="M194.877 171.296C194.877 173.087 193.4 174.552 191.595 174.552C189.79 174.552 188.312 173.087 188.312 171.296C188.312 169.505 189.79 168.04 191.595 168.04C193.4 168.04 194.877 169.505 194.877 171.296Z" fill="white"/>
<path d="M210.142 174.552C211.954 174.552 213.424 173.094 213.424 171.296C213.424 169.498 211.954 168.04 210.142 168.04C208.329 168.04 206.859 169.498 206.859 171.296C206.859 173.094 208.329 174.552 210.142 174.552Z" fill="white"/>
<path d="M231.803 171.296C231.803 173.087 230.326 174.552 228.521 174.552C226.715 174.552 225.238 173.087 225.238 171.296C225.238 169.505 226.715 168.04 228.521 168.04C230.49 168.04 231.803 169.505 231.803 171.296Z" fill="white"/>
<path d="M250.348 171.296C250.348 173.087 248.871 174.552 247.066 174.552C245.26 174.552 243.783 173.087 243.783 171.296C243.783 169.505 245.26 168.04 247.066 168.04C248.871 168.04 250.348 169.505 250.348 171.296Z" fill="white"/>
<path d="M268.892 171.296C268.892 173.086 267.415 174.551 265.61 174.551C263.804 174.551 262.327 173.086 262.327 171.296C262.327 169.505 263.804 168.04 265.61 168.04C267.415 168.04 268.892 169.505 268.892 171.296Z" fill="white"/>
<path d="M0.726798 180.412C0.726798 182.203 -0.750257 183.668 -2.55555 183.668C-4.36084 183.668 -5.83789 182.203 -5.83789 180.412C-5.83789 178.621 -4.36084 177.156 -2.55555 177.156C-0.750257 177.319 0.726798 178.621 0.726798 180.412Z" fill="white"/>
<path d="M19.2717 180.411C19.2717 182.202 17.7946 183.667 15.9894 183.667C14.1841 183.667 12.707 182.202 12.707 180.411C12.707 178.62 14.1841 177.155 15.9894 177.155C17.7946 177.318 19.2717 178.62 19.2717 180.411Z" fill="white"/>
<path d="M37.6516 180.411C37.6516 182.202 36.1745 183.667 34.3692 183.667C32.564 183.667 31.0869 182.202 31.0869 180.411C31.0869 178.62 32.564 177.155 34.3692 177.155C36.1745 177.318 37.6516 178.62 37.6516 180.411Z" fill="white"/>
<path d="M56.1965 180.411C56.1965 182.202 54.7195 183.667 52.9142 183.667C51.1089 183.667 49.6318 182.202 49.6318 180.411C49.6318 178.62 51.1089 177.155 52.9142 177.155C54.7195 177.318 56.1965 178.62 56.1965 180.411Z" fill="white"/>
<path d="M74.7414 180.411C74.7414 182.202 73.2644 183.667 71.4591 183.667C69.6538 183.667 68.1768 182.202 68.1768 180.411C68.1768 178.62 69.6538 177.155 71.4591 177.155C73.2644 177.318 74.7414 178.62 74.7414 180.411Z" fill="white"/>
<path d="M93.1223 180.411C93.1223 182.202 91.6452 183.667 89.8399 183.667C88.0347 183.667 86.5576 182.202 86.5576 180.411C86.5576 178.62 88.0347 177.155 89.8399 177.155C91.6452 177.318 93.1223 178.62 93.1223 180.411Z" fill="white"/>
<path d="M111.668 180.411C111.668 182.202 110.191 183.667 108.386 183.667C106.581 183.667 105.104 182.202 105.104 180.411C105.104 178.62 106.581 177.155 108.386 177.155C110.191 177.318 111.668 178.62 111.668 180.411Z" fill="white"/>
<path d="M130.214 180.411C130.214 182.202 128.737 183.667 126.932 183.667C125.126 183.667 123.649 182.202 123.649 180.411C123.649 178.62 125.126 177.155 126.932 177.155C128.737 177.318 130.214 178.62 130.214 180.411Z" fill="white"/>
<path d="M148.594 180.411C148.594 182.202 147.117 183.667 145.312 183.667C143.506 183.667 142.029 182.202 142.029 180.411C142.029 178.62 143.506 177.155 145.312 177.155C147.117 177.318 148.594 178.62 148.594 180.411Z" fill="white"/>
<path d="M167.138 180.411C167.138 182.202 165.661 183.667 163.856 183.667C162.05 183.667 160.573 182.202 160.573 180.411C160.573 178.62 162.05 177.155 163.856 177.155C165.661 177.318 167.138 178.62 167.138 180.411Z" fill="white"/>
<path d="M185.682 180.411C185.682 182.202 184.205 183.667 182.4 183.667C180.594 183.667 179.117 182.202 179.117 180.411C179.117 178.62 180.594 177.155 182.4 177.155C184.205 177.318 185.682 178.62 185.682 180.411Z" fill="white"/>
<path d="M204.065 180.411C204.065 182.202 202.588 183.667 200.782 183.667C198.977 183.667 197.5 182.202 197.5 180.411C197.5 178.62 198.977 177.155 200.782 177.155C202.752 177.318 204.065 178.62 204.065 180.411Z" fill="white"/>
<path d="M222.612 180.411C222.612 182.202 221.134 183.667 219.329 183.667C217.524 183.667 216.047 182.202 216.047 180.411C216.047 178.62 217.524 177.155 219.329 177.155C221.134 177.318 222.612 178.62 222.612 180.411Z" fill="white"/>
<path d="M241.156 180.411C241.156 182.202 239.679 183.667 237.874 183.667C236.069 183.667 234.592 182.202 234.592 180.411C234.592 178.62 236.069 177.155 237.874 177.155C239.679 177.318 241.156 178.62 241.156 180.411Z" fill="white"/>
<path d="M259.536 180.411C259.536 182.202 258.059 183.667 256.254 183.667C254.449 183.667 252.972 182.202 252.972 180.411C252.972 178.62 254.449 177.155 256.254 177.155C258.223 177.318 259.536 178.62 259.536 180.411Z" fill="white"/>
<path d="M278.083 180.411C278.083 182.202 276.606 183.667 274.801 183.667C272.996 183.667 271.519 182.202 271.519 180.411C271.519 178.62 272.996 177.155 274.801 177.155C276.606 177.318 278.083 178.62 278.083 180.411Z" fill="white"/>
</g>
<defs>
<filter id="filter0_d" x="0.332031" y="0" width="286" height="327" filterUnits="userSpaceOnUse" color-interpolation-filters="sRGB">
<feFlood flood-opacity="0" result="BackgroundImageFix"/>
<feColorMatrix in="SourceAlpha" type="matrix" values="0 0 0 0 0 0 0 0 0 0 0 0 0 0 0 0 0 0 127 0"/>
<feOffset dx="6" dy="6"/>
<feColorMatrix type="matrix" values="0 0 0 0 0 0 0 0 0 0 0 0 0 0 0 0 0 0 0.09 0"/>
<feBlend mode="normal" in2="BackgroundImageFix" result="effect1_dropShadow"/>
<feBlend mode="normal" in="SourceGraphic" in2="effect1_dropShadow" result="shape"/>
</filter>
</defs>
</svg>
