<svg width="100%" height="100%" viewBox="0 0 139 136" fill="none" xmlns="http://www.w3.org/2000/svg">
<g filter="url(#filter0_d)">
<g clip-path="url(#clip0)">
<path d="M116.524 88.2589C114.231 92.9214 110.75 97.6774 106.134 102.355C95.9641 112.59 85.6739 117.103 75.4897 115.888C56.6556 113.581 43.9868 92.5464 37.1731 81.1938C36.156 79.468 35.2592 77.9653 34.5481 76.967C30.2088 70.4693 31.2349 65.1659 32.8321 61.8287C33.5793 60.3317 34.4468 59.0578 35.3248 58.1236C33.7682 55.451 32.8328 52.7024 32.5186 49.8779C29.7186 50.9849 27.0074 51.2957 24.9441 50.566C22.4243 49.7371 20.772 47.6342 20.4029 44.8681C20.0992 42.3834 20.8768 40.0352 22.6912 38.2218C23.7373 37.2257 27.497 34.1617 36.7225 33.7059C36.8543 30.6408 37.3935 26.0893 39.0456 22.6937C39.6317 21.4852 40.3381 20.4997 41.1063 19.6823C43.0889 17.807 45.5012 16.9954 47.9486 17.3163C50.7358 17.6268 52.8271 19.2626 53.6422 21.7881C54.3265 23.7509 54.1223 26.308 53.0739 29.0614C55.916 29.3135 58.7791 30.2451 61.4916 31.805C65.9576 27.7554 72.7555 25.7876 80.3956 30.8793C81.436 31.5273 82.8816 32.4461 84.6705 33.4678C98.2435 41.6067 130.004 60.4626 116.524 88.2589ZM38.4112 64.4334C37.0814 67.2522 37.4575 70.2448 39.7147 73.576C40.4877 74.7424 41.3846 76.2451 42.46 78.0257C48.7343 88.4314 60.4478 107.908 76.3231 109.854C84.5165 110.847 93.1218 106.84 101.92 98.0643C106.097 93.8536 109.201 89.7328 111.171 85.6472C122.201 62.915 94.8249 46.5308 81.6022 38.7211C79.8133 37.6995 78.3093 36.7258 77.1522 35.968C73.9691 33.8559 69.3895 32.4106 65.1605 36.7929C70.6346 41.4983 73.9884 47.2896 74.4487 53.0005C74.7116 55.9967 74.1746 58.7909 72.951 61.3796C72.1524 63.0482 71.0654 64.5556 69.6351 65.9604C66.0612 69.5289 61.6347 71.1965 56.7469 70.781C50.9531 70.3936 45.1813 67.0579 40.4206 61.5936C39.7621 62.2942 38.9973 63.2249 38.4112 64.4334Z" fill="white"/>
<path d="M78.7733 33.4239C68.0085 26.275 61.4667 36.5108 61.4667 36.5108C81.6793 52.2099 68.2298 64.5303 68.2298 64.5303C68.2298 64.5303 56.2294 77.8829 40.1944 57.973C40.1944 57.973 30.0258 64.58 37.2166 75.2974C44.4075 86.0149 68.1853 136.295 104.083 100.208C139.922 64.0669 89.5381 40.5729 78.7733 33.4239Z" fill="#FDCDE3"/>
<path d="M62.0088 35.7003C49.8942 27.0626 40.0946 36.4358 40.0397 36.4941C39.93 36.6109 30.5975 46.423 39.3612 58.5089C44.2154 65.1607 50.5781 69.2716 56.8285 69.7582C61.4313 70.1258 65.5764 68.5236 68.9308 65.1887C72.2853 61.8538 73.7995 57.6689 73.4292 53.0322C72.8416 46.8717 68.7323 40.4803 62.0088 35.7003ZM71.3391 53.267C71.6884 57.2241 70.3283 60.8941 67.4128 63.7619C64.4974 66.6298 60.8567 68.0463 56.8786 67.716C51.2529 67.2668 45.4086 63.4232 40.9083 57.2139C33.3263 46.6786 40.8922 38.395 41.3861 37.8696C41.88 37.3441 50.2014 29.6606 60.7537 37.2696C67.072 41.7788 70.9372 47.611 71.3391 53.267Z" fill="#F789C6"/>
<path d="M45.7191 35.0145C44.5083 36.1857 42.6833 37.6593 40.926 37.6571L39.9615 37.6303L39.93 36.6109C39.9159 36.1579 39.6994 25.5078 43.5478 21.6474C44.7037 20.5346 46.1037 19.9811 47.6415 20.2169C49.6907 20.4935 50.5221 21.7148 50.8351 22.6688C51.7121 25.3625 49.9515 30.7454 45.7191 35.0145ZM41.9336 35.4152C42.661 35.1092 43.4912 34.46 44.2594 33.6426C47.3944 30.5412 49.622 25.5973 48.8758 23.4664C48.6936 23.0752 48.4496 22.5159 47.3099 22.3245C46.342 22.1844 45.6145 22.4904 44.8976 23.1361C42.5345 25.5334 41.9965 31.9554 41.9336 35.4152Z" fill="#F789C6"/>
<path d="M26.0438 47.6412C25.0688 47.2746 23.8532 46.4619 23.5636 44.4303C23.3463 42.9065 23.8121 41.475 24.968 40.3621C28.8713 36.4434 39.4769 36.625 39.93 36.611L40.8945 36.6378L40.926 37.6571C40.9822 39.4693 39.5075 41.2722 38.3551 42.4983C34.0094 46.7709 28.622 48.5249 26.0438 47.6412ZM26.4276 41.7341C25.7691 42.4347 25.4539 43.238 25.5952 44.1406C25.7436 45.2697 26.3204 45.5919 26.6637 45.6947C28.8402 46.4208 33.757 44.1145 36.8371 41.0715C37.6603 40.1957 38.3153 39.3819 38.634 38.6918C35.1778 38.7421 28.7908 39.3368 26.4276 41.7341Z" fill="#F789C6"/>
<path d="M90.6187 64.4602C87.9541 62.6154 84.0273 62.1135 81.0289 64.1337C80.4182 64.5494 79.8111 65.0784 79.3172 65.6038C77.9453 67.0634 77.2051 68.7869 76.9939 71.1175C76.9122 72.1404 77.0535 73.043 77.2462 73.7739C76.5047 73.6268 75.5951 73.5416 74.5793 73.6864C72.2662 74.0415 70.5919 74.887 69.22 76.3466C68.7261 76.872 68.2906 77.4524 67.8586 78.146C66.0279 81.2637 66.7718 85.1519 68.778 87.6972C70.3684 89.6319 73.4755 91.1229 78.3458 90.972C82.8762 90.8317 90.1003 89.8143 93.0311 89.2701L93.4806 89.1428L93.5799 88.6862C93.9417 85.7274 94.51 78.4542 94.3696 73.9237C94.3285 68.9367 92.6482 65.9278 90.6187 64.4602Z" fill="#F789C6"/>
</g>
</g>
<defs>
<filter id="filter0_d" x="0" y="0" width="138.913" height="137.664" filterUnits="userSpaceOnUse" color-interpolation-filters="sRGB">
<feFlood flood-opacity="0" result="BackgroundImageFix"/>
<feColorMatrix in="SourceAlpha" type="matrix" values="0 0 0 0 0 0 0 0 0 0 0 0 0 0 0 0 0 0 127 0"/>
<feOffset dx="6" dy="6"/>
<feColorMatrix type="matrix" values="0 0 0 0 0 0 0 0 0 0 0 0 0 0 0 0 0 0 0.09 0"/>
<feBlend mode="normal" in2="BackgroundImageFix" result="effect1_dropShadow"/>
<feBlend mode="normal" in="SourceGraphic" in2="effect1_dropShadow" result="shape"/>
</filter>
<clipPath id="clip0">
<rect y="57.8008" width="79.3247" height="107.85" transform="rotate(-46.7742 0 57.8008)" fill="white"/>
</clipPath>
</defs>
</svg>
