<svg width="100%" height="100%" viewBox="0 0 368 416" fill="none" xmlns="http://www.w3.org/2000/svg">
<mask id="mask0" mask-type="alpha" maskUnits="userSpaceOnUse" x="0" y="0" width="362" height="416">
<path fill-rule="evenodd" clip-rule="evenodd" d="M362 0H0V416H362V0ZM338.066 24H23.9339V275H338.066V24Z" fill="#FFD4E8"/>
</mask>
<g mask="url(#mask0)">
<path d="M0.509666 -3.74243C0.509666 -1.42172 -1.39995 0.477051 -3.73394 0.477051C-6.06792 0.477051 -7.97754 -1.42172 -7.97754 -3.74243C-7.97754 -6.06315 -6.06792 -7.96191 -3.73394 -7.96191C-1.39995 -7.96191 0.509666 -6.06315 0.509666 -3.74243Z" fill="white"/>
<path d="M24.4852 -3.74243C24.4852 -1.42172 22.5756 0.477051 20.2416 0.477051C17.9077 0.477051 15.998 -1.42172 15.998 -3.74243C15.998 -6.06315 17.9077 -7.96191 20.2416 -7.96191C22.5756 -7.96191 24.4852 -6.06315 24.4852 -3.74243Z" fill="white"/>
<path d="M48.2489 -3.74243C48.2489 -1.42172 46.3393 0.477051 44.0053 0.477051C41.6713 0.477051 39.7617 -1.42172 39.7617 -3.74243C39.7617 -6.06315 41.6713 -7.96191 44.0053 -7.96191C46.3393 -7.96191 48.2489 -6.06315 48.2489 -3.74243Z" fill="white"/>
<path d="M72.2245 -3.74292C72.2245 -1.4222 70.3149 0.476562 67.9809 0.476562C65.6469 0.476562 63.7373 -1.4222 63.7373 -3.74292C63.7373 -6.06364 65.6469 -7.9624 67.9809 -7.9624C70.3149 -7.9624 72.2245 -6.06364 72.2245 -3.74292Z" fill="white"/>
<path d="M96.202 -3.74243C96.202 -1.42172 94.2924 0.477051 91.9584 0.477051C89.6245 0.477051 87.7148 -1.42172 87.7148 -3.74243C87.7148 -6.06315 89.6245 -7.96191 91.9584 -7.96191C94.2924 -7.96191 96.202 -6.06315 96.202 -3.74243Z" fill="white"/>
<path d="M119.967 -3.74292C119.967 -1.4222 118.057 0.476562 115.723 0.476562C113.389 0.476562 111.479 -1.4222 111.479 -3.74292C111.479 -6.06364 113.389 -7.9624 115.723 -7.9624C118.057 -7.9624 119.967 -6.06364 119.967 -3.74292Z" fill="white"/>
<path d="M143.942 -3.74194C143.942 -1.42123 142.033 0.477539 139.699 0.477539C137.365 0.477539 135.455 -1.42123 135.455 -3.74194C135.455 -6.06266 137.365 -7.96143 139.699 -7.96143C142.033 -7.96143 143.942 -6.06266 143.942 -3.74194Z" fill="white"/>
<path d="M167.918 -3.74316C167.918 -1.42258 166.008 0.476074 163.674 0.476074C161.34 0.476074 159.431 -1.42258 159.431 -3.74316C159.431 -6.06375 161.34 -7.9624 163.674 -7.9624C166.008 -7.9624 167.918 -6.06375 167.918 -3.74316Z" fill="white"/>
<path d="M191.682 -3.74243C191.682 -1.42172 189.773 0.477051 187.439 0.477051C185.105 0.477051 183.195 -1.42172 183.195 -3.74243C183.195 -6.06315 185.105 -7.96191 187.439 -7.96191C189.773 -7.96191 191.682 -6.06315 191.682 -3.74243Z" fill="white"/>
<path d="M215.658 -3.74292C215.658 -1.4222 213.749 0.476562 211.415 0.476562C209.081 0.476562 207.171 -1.4222 207.171 -3.74292C207.171 -6.06364 209.081 -7.9624 211.415 -7.9624C213.749 -7.9624 215.658 -6.06364 215.658 -3.74292Z" fill="white"/>
<path d="M239.634 -3.74194C239.634 -1.42123 237.724 0.477539 235.39 0.477539C233.056 0.477539 231.146 -1.42123 231.146 -3.74194C231.146 -6.06266 233.056 -7.96143 235.39 -7.96143C237.724 -7.96143 239.634 -6.06266 239.634 -3.74194Z" fill="white"/>
<path d="M263.398 -3.74316C263.398 -1.42258 261.489 0.476074 259.155 0.476074C256.821 0.476074 254.911 -1.42258 254.911 -3.74316C254.911 -6.06375 256.821 -7.9624 259.155 -7.9624C261.701 -7.9624 263.398 -6.06375 263.398 -3.74316Z" fill="white"/>
<path d="M287.375 -3.74292C287.375 -1.4222 285.465 0.476562 283.131 0.476562C280.797 0.476562 278.888 -1.4222 278.888 -3.74292C278.888 -6.06364 280.797 -7.9624 283.131 -7.9624C285.465 -7.9624 287.375 -6.06364 287.375 -3.74292Z" fill="white"/>
<path d="M311.35 -3.74341C311.35 -1.42269 309.441 0.476074 307.107 0.476074C304.773 0.476074 302.863 -1.42269 302.863 -3.74341C302.863 -6.06412 304.773 -7.96289 307.107 -7.96289C309.441 -7.96289 311.35 -6.06412 311.35 -3.74341Z" fill="white"/>
<path d="M335.115 -3.74219C335.115 -1.42134 333.205 0.477539 330.872 0.477539C328.538 0.477539 326.628 -1.42134 326.628 -3.74219C326.628 -6.06304 328.538 -7.96191 330.872 -7.96191C333.418 -7.96191 335.115 -6.06304 335.115 -3.74219Z" fill="white"/>
<path d="M359.091 -3.74341C359.091 -1.42269 357.181 0.476074 354.847 0.476074C352.513 0.476074 350.604 -1.42269 350.604 -3.74341C350.604 -6.06412 352.513 -7.96289 354.847 -7.96289C357.181 -7.96289 359.091 -6.06412 359.091 -3.74341Z" fill="white"/>
<path d="M12.3905 8.07056C12.3905 10.3913 10.4809 12.29 8.14692 12.29C5.81294 12.29 3.90332 10.3913 3.90332 8.07056C3.90332 5.74984 5.81294 3.85107 8.14692 3.85107C10.4809 3.85107 12.3905 5.74984 12.3905 8.07056Z" fill="white"/>
<path d="M36.3661 8.07056C36.3661 10.3913 34.4565 12.29 32.1225 12.29C29.7885 12.29 27.8789 10.3913 27.8789 8.07056C27.8789 5.74984 29.7885 3.85107 32.1225 3.85107C34.4565 3.85107 36.3661 5.74984 36.3661 8.07056Z" fill="white"/>
<path d="M60.3417 8.07056C60.3417 10.3913 58.4321 12.29 56.0981 12.29C53.7641 12.29 51.8545 10.3913 51.8545 8.07056C51.8545 5.74984 53.7641 3.85107 56.0981 3.85107C58.4321 3.85107 60.3417 5.74984 60.3417 8.07056Z" fill="white"/>
<path d="M84.1063 8.07007C84.1063 10.3908 82.1967 12.2896 79.8627 12.2896C77.5288 12.2896 75.6191 10.3908 75.6191 8.07007C75.6191 5.74935 77.5288 3.85059 79.8627 3.85059C82.1967 3.85059 84.1063 5.74935 84.1063 8.07007Z" fill="white"/>
<path d="M108.083 8.07056C108.083 10.3913 106.173 12.29 103.839 12.29C101.505 12.29 99.5957 10.3913 99.5957 8.07056C99.5957 5.74984 101.505 3.85107 103.839 3.85107C106.173 3.85107 108.083 5.74984 108.083 8.07056Z" fill="white"/>
<path d="M132.058 8.07007C132.058 10.3908 130.149 12.2896 127.815 12.2896C125.481 12.2896 123.571 10.3908 123.571 8.07007C123.571 5.74935 125.481 3.85059 127.815 3.85059C130.149 3.85059 132.058 5.74935 132.058 8.07007Z" fill="white"/>
<path d="M155.823 8.07007C155.823 10.3908 153.913 12.2896 151.58 12.2896C149.246 12.2896 147.336 10.3908 147.336 8.07007C147.336 5.74935 149.246 3.85059 151.58 3.85059C153.913 3.85059 155.823 5.74935 155.823 8.07007Z" fill="white"/>
<path d="M179.799 8.06982C179.799 10.3904 177.889 12.2891 175.555 12.2891C173.221 12.2891 171.312 10.3904 171.312 8.06982C171.312 5.74924 173.221 3.85059 175.555 3.85059C177.889 3.85059 179.799 5.74924 179.799 8.06982Z" fill="white"/>
<path d="M203.777 8.07056C203.777 10.3913 201.868 12.29 199.534 12.29C197.2 12.29 195.29 10.3913 195.29 8.07056C195.29 5.74984 197.2 3.85107 199.534 3.85107C201.868 3.85107 203.777 5.74984 203.777 8.07056Z" fill="white"/>
<path d="M227.541 8.07007C227.541 10.3908 225.631 12.2896 223.297 12.2896C220.963 12.2896 219.054 10.3908 219.054 8.07007C219.054 5.74935 220.963 3.85059 223.297 3.85059C225.631 3.85059 227.541 5.74935 227.541 8.07007Z" fill="white"/>
<path d="M251.518 8.07007C251.518 10.3908 249.609 12.2896 247.275 12.2896C244.941 12.2896 243.031 10.3908 243.031 8.07007C243.031 5.74935 244.941 3.85059 247.275 3.85059C249.609 3.85059 251.518 5.74935 251.518 8.07007Z" fill="white"/>
<path d="M275.494 8.06982C275.494 10.3904 273.584 12.2891 271.25 12.2891C268.916 12.2891 267.007 10.3904 267.007 8.06982C267.007 5.74924 268.916 3.85059 271.25 3.85059C273.584 3.85059 275.494 5.74924 275.494 8.06982Z" fill="white"/>
<path d="M299.259 8.07007C299.259 10.3908 297.349 12.2896 295.015 12.2896C292.681 12.2896 290.771 10.3908 290.771 8.07007C290.771 5.74935 292.681 3.85059 295.015 3.85059C297.561 3.85059 299.259 5.74935 299.259 8.07007Z" fill="white"/>
<path d="M323.235 8.06982C323.235 10.3904 321.326 12.2891 318.992 12.2891C316.658 12.2891 314.748 10.3904 314.748 8.06982C314.748 5.74924 316.658 3.85059 318.992 3.85059C321.326 3.85059 323.235 5.74924 323.235 8.06982Z" fill="white"/>
<path d="M347.211 8.06982C347.211 10.3904 345.301 12.2891 342.967 12.2891C340.633 12.2891 338.724 10.3904 338.724 8.06982C338.724 5.74924 340.633 3.85059 342.967 3.85059C345.301 3.85059 347.211 5.74924 347.211 8.06982Z" fill="white"/>
<path d="M0.509666 19.8853C0.509666 22.2058 -1.39995 24.1045 -3.73394 24.1045C-6.06792 24.1045 -7.97754 22.2058 -7.97754 19.8853C-7.97754 17.5647 -6.06792 15.666 -3.73394 15.666C-1.39995 15.877 0.509666 17.5647 0.509666 19.8853Z" fill="white"/>
<path d="M24.4852 19.8848C24.4852 22.2053 22.5756 24.104 20.2416 24.104C17.9077 24.104 15.998 22.2053 15.998 19.8848C15.998 17.5642 17.9077 15.6655 20.2416 15.6655C22.5756 15.8765 24.4852 17.5642 24.4852 19.8848Z" fill="white"/>
<path d="M48.2489 19.886C48.2489 22.2067 46.3393 24.1055 44.0053 24.1055C41.6713 24.1055 39.7617 22.2067 39.7617 19.886C39.7617 17.5653 41.6713 15.6665 44.0053 15.6665C46.3393 15.8775 48.2489 17.5653 48.2489 19.886Z" fill="white"/>
<path d="M72.2245 19.8848C72.2245 22.2053 70.3149 24.104 67.9809 24.104C65.6469 24.104 63.7373 22.2053 63.7373 19.8848C63.7373 17.5642 65.6469 15.6655 67.9809 15.6655C70.3149 15.8765 72.2245 17.5642 72.2245 19.8848Z" fill="white"/>
<path d="M96.202 19.886C96.202 22.2067 94.2924 24.1055 91.9584 24.1055C89.6245 24.1055 87.7148 22.2067 87.7148 19.886C87.7148 17.5653 89.6245 15.6665 91.9584 15.6665C94.2924 15.8775 96.202 17.5653 96.202 19.886Z" fill="white"/>
<path d="M119.967 19.8845C119.967 22.205 118.057 24.1035 115.723 24.1035C113.389 24.1035 111.479 22.205 111.479 19.8845C111.479 17.5641 113.389 15.6655 115.723 15.6655C118.057 15.8765 119.967 17.5641 119.967 19.8845Z" fill="white"/>
<path d="M143.942 19.8855C143.942 22.2062 142.033 24.105 139.699 24.105C137.365 24.105 135.455 22.2062 135.455 19.8855C135.455 17.5648 137.365 15.666 139.699 15.666C142.033 15.877 143.942 17.5648 143.942 19.8855Z" fill="white"/>
<path d="M167.918 19.8843C167.918 22.2049 166.008 24.1035 163.674 24.1035C161.34 24.1035 159.431 22.2049 159.431 19.8843C159.431 17.5637 161.34 15.665 163.674 15.665C166.008 15.876 167.918 17.5637 167.918 19.8843Z" fill="white"/>
<path d="M191.682 19.8843C191.682 22.2049 189.773 24.1035 187.439 24.1035C185.105 24.1035 183.195 22.2049 183.195 19.8843C183.195 17.5637 185.105 15.665 187.439 15.665C189.773 15.876 191.682 17.5637 191.682 19.8843Z" fill="white"/>
<path d="M215.658 19.8843C215.658 22.2049 213.749 24.1035 211.415 24.1035C209.081 24.1035 207.171 22.2049 207.171 19.8843C207.171 17.5637 209.081 15.665 211.415 15.665C213.749 15.876 215.658 17.5637 215.658 19.8843Z" fill="white"/>
<path d="M239.634 19.8855C239.634 22.2062 237.724 24.105 235.39 24.105C233.056 24.105 231.146 22.2062 231.146 19.8855C231.146 17.5648 233.056 15.666 235.39 15.666C237.724 15.877 239.634 17.5648 239.634 19.8855Z" fill="white"/>
<path d="M263.398 19.8843C263.398 22.2049 261.489 24.1035 259.155 24.1035C256.821 24.1035 254.911 22.2049 254.911 19.8843C254.911 17.5637 256.821 15.665 259.155 15.665C261.701 15.876 263.398 17.5637 263.398 19.8843Z" fill="white"/>
<path d="M287.375 19.8855C287.375 22.2062 285.465 24.105 283.131 24.105C280.797 24.105 278.888 22.2062 278.888 19.8855C278.888 17.5648 280.797 15.666 283.131 15.666C285.465 15.877 287.375 17.5648 287.375 19.8855Z" fill="white"/>
<path d="M311.35 19.8843C311.35 22.2049 309.441 24.1035 307.107 24.1035C304.773 24.1035 302.863 22.2049 302.863 19.8843C302.863 17.5637 304.773 15.665 307.107 15.665C309.441 15.876 311.35 17.5637 311.35 19.8843Z" fill="white"/>
<path d="M335.115 19.8855C335.115 22.2062 333.205 24.105 330.872 24.105C328.538 24.105 326.628 22.2062 326.628 19.8855C326.628 17.5648 328.538 15.666 330.872 15.666C333.418 15.877 335.115 17.5648 335.115 19.8855Z" fill="white"/>
<path d="M359.091 19.8843C359.091 22.2049 357.181 24.1035 354.847 24.1035C352.513 24.1035 350.604 22.2049 350.604 19.8843C350.604 17.5637 352.513 15.665 354.847 15.665C357.181 15.876 359.091 17.5637 359.091 19.8843Z" fill="white"/>
<path d="M12.3905 31.9087C12.3905 34.2293 10.4809 36.1279 8.14692 36.1279C5.81294 36.1279 3.90332 34.2293 3.90332 31.9087C3.90332 29.5881 5.81294 27.6895 8.14692 27.6895C10.4809 27.6895 12.3905 29.5881 12.3905 31.9087Z" fill="white"/>
<path d="M36.3661 31.9087C36.3661 34.2293 34.4565 36.1279 32.1225 36.1279C29.7885 36.1279 27.8789 34.2293 27.8789 31.9087C27.8789 29.5881 29.7885 27.6895 32.1225 27.6895C34.4565 27.6895 36.3661 29.5881 36.3661 31.9087Z" fill="white"/>
<path d="M60.3417 31.9087C60.3417 34.2293 58.4321 36.1279 56.0981 36.1279C53.7641 36.1279 51.8545 34.2293 51.8545 31.9087C51.8545 29.5881 53.7641 27.6895 56.0981 27.6895C58.4321 27.6895 60.3417 29.5881 60.3417 31.9087Z" fill="white"/>
<path d="M84.1063 31.9084C84.1063 34.2289 82.1967 36.1274 79.8627 36.1274C77.5288 36.1274 75.6191 34.2289 75.6191 31.9084C75.6191 29.588 77.5288 27.6895 79.8627 27.6895C82.1967 27.6895 84.1063 29.588 84.1063 31.9084Z" fill="white"/>
<path d="M108.083 31.9087C108.083 34.2293 106.173 36.1279 103.839 36.1279C101.505 36.1279 99.5957 34.2293 99.5957 31.9087C99.5957 29.5881 101.505 27.6895 103.839 27.6895C106.173 27.6895 108.083 29.5881 108.083 31.9087Z" fill="white"/>
<path d="M132.058 31.9084C132.058 34.2289 130.149 36.1274 127.815 36.1274C125.481 36.1274 123.571 34.2289 123.571 31.9084C123.571 29.588 125.481 27.6895 127.815 27.6895C130.149 27.6895 132.058 29.588 132.058 31.9084Z" fill="white"/>
<path d="M155.823 31.9084C155.823 34.2289 153.913 36.1274 151.58 36.1274C149.246 36.1274 147.336 34.2289 147.336 31.9084C147.336 29.588 149.246 27.6895 151.58 27.6895C153.913 27.6895 155.823 29.588 155.823 31.9084Z" fill="white"/>
<path d="M179.799 31.9084C179.799 34.2289 177.889 36.1274 175.555 36.1274C173.221 36.1274 171.312 34.2289 171.312 31.9084C171.312 29.588 173.221 27.6895 175.555 27.6895C177.889 27.6895 179.799 29.588 179.799 31.9084Z" fill="white"/>
<path d="M203.777 31.9099C203.777 34.2306 201.868 36.1294 199.534 36.1294C197.2 36.1294 195.29 34.2306 195.29 31.9099C195.29 29.5892 197.2 27.6904 199.534 27.6904C201.868 27.6904 203.777 29.5892 203.777 31.9099Z" fill="white"/>
<path d="M227.541 31.9084C227.541 34.2289 225.631 36.1274 223.297 36.1274C220.963 36.1274 219.054 34.2289 219.054 31.9084C219.054 29.588 220.963 27.6895 223.297 27.6895C225.631 27.6895 227.541 29.588 227.541 31.9084Z" fill="white"/>
<path d="M251.518 31.9084C251.518 34.2289 249.609 36.1274 247.275 36.1274C244.941 36.1274 243.031 34.2289 243.031 31.9084C243.031 29.588 244.941 27.6895 247.275 27.6895C249.609 27.6895 251.518 29.588 251.518 31.9084Z" fill="white"/>
<path d="M275.494 31.9084C275.494 34.2289 273.584 36.1274 271.25 36.1274C268.916 36.1274 267.007 34.2289 267.007 31.9084C267.007 29.588 268.916 27.6895 271.25 27.6895C273.584 27.6895 275.494 29.588 275.494 31.9084Z" fill="white"/>
<path d="M299.259 31.9084C299.259 34.2289 297.349 36.1274 295.015 36.1274C292.681 36.1274 290.771 34.2289 290.771 31.9084C290.771 29.588 292.681 27.6895 295.015 27.6895C297.561 27.6895 299.259 29.588 299.259 31.9084Z" fill="white"/>
<path d="M323.235 31.9084C323.235 34.2289 321.326 36.1274 318.992 36.1274C316.658 36.1274 314.748 34.2289 314.748 31.9084C314.748 29.588 316.658 27.6895 318.992 27.6895C321.326 27.6895 323.235 29.588 323.235 31.9084Z" fill="white"/>
<path d="M347.211 31.9092C347.211 34.2298 345.301 36.1284 342.967 36.1284C340.633 36.1284 338.724 34.2298 338.724 31.9092C338.724 29.5886 340.633 27.6899 342.967 27.6899C345.301 27.6899 347.211 29.5886 347.211 31.9092Z" fill="white"/>
<path d="M0.509666 43.7231C0.509666 46.0437 -1.39995 47.9424 -3.73394 47.9424C-6.06792 47.9424 -7.97754 46.0437 -7.97754 43.7231C-7.97754 41.4026 -6.06792 39.5039 -3.73394 39.5039C-1.39995 39.5039 0.509666 41.4026 0.509666 43.7231Z" fill="white"/>
<path d="M24.4852 43.7231C24.4852 46.0437 22.5756 47.9424 20.2416 47.9424C17.9077 47.9424 15.998 46.0437 15.998 43.7231C15.998 41.4026 17.9077 39.5039 20.2416 39.5039C22.5756 39.5039 24.4852 41.4026 24.4852 43.7231Z" fill="white"/>
<path d="M48.2489 43.7231C48.2489 46.0437 46.3393 47.9424 44.0053 47.9424C41.6713 47.9424 39.7617 46.0437 39.7617 43.7231C39.7617 41.4026 41.6713 39.5039 44.0053 39.5039C46.3393 39.5039 48.2489 41.4026 48.2489 43.7231Z" fill="white"/>
<path d="M72.2245 43.7236C72.2245 46.0442 70.3149 47.9429 67.9809 47.9429C65.6469 47.9429 63.7373 46.0442 63.7373 43.7236C63.7373 41.4031 65.6469 39.5044 67.9809 39.5044C70.3149 39.5044 72.2245 41.4031 72.2245 43.7236Z" fill="white"/>
<path d="M96.202 43.7231C96.202 46.0437 94.2924 47.9424 91.9584 47.9424C89.6245 47.9424 87.7148 46.0437 87.7148 43.7231C87.7148 41.4026 89.6245 39.5039 91.9584 39.5039C94.2924 39.5039 96.202 41.4026 96.202 43.7231Z" fill="white"/>
<path d="M119.967 43.7236C119.967 46.0442 118.057 47.9429 115.723 47.9429C113.389 47.9429 111.479 46.0442 111.479 43.7236C111.479 41.4031 113.389 39.5044 115.723 39.5044C118.057 39.5044 119.967 41.4031 119.967 43.7236Z" fill="white"/>
<path d="M143.942 43.7236C143.942 46.0442 142.033 47.9429 139.699 47.9429C137.365 47.9429 135.455 46.0442 135.455 43.7236C135.455 41.4031 137.365 39.5044 139.699 39.5044C142.033 39.5044 143.942 41.4031 143.942 43.7236Z" fill="white"/>
<path d="M167.918 43.7236C167.918 46.0442 166.008 47.9429 163.674 47.9429C161.34 47.9429 159.431 46.0442 159.431 43.7236C159.431 41.4031 161.34 39.5044 163.674 39.5044C166.008 39.5044 167.918 41.4031 167.918 43.7236Z" fill="white"/>
<path d="M191.682 43.7231C191.682 46.0437 189.773 47.9424 187.439 47.9424C185.105 47.9424 183.195 46.0437 183.195 43.7231C183.195 41.4026 185.105 39.5039 187.439 39.5039C189.773 39.5039 191.682 41.4026 191.682 43.7231Z" fill="white"/>
<path d="M215.658 43.7236C215.658 46.0442 213.749 47.9429 211.415 47.9429C209.081 47.9429 207.171 46.0442 207.171 43.7236C207.171 41.4031 209.081 39.5044 211.415 39.5044C213.749 39.5044 215.658 41.4031 215.658 43.7236Z" fill="white"/>
<path d="M239.634 43.7236C239.634 46.0442 237.724 47.9429 235.39 47.9429C233.056 47.9429 231.146 46.0442 231.146 43.7236C231.146 41.4031 233.056 39.5044 235.39 39.5044C237.724 39.5044 239.634 41.4031 239.634 43.7236Z" fill="white"/>
<path d="M263.398 43.7236C263.398 46.0442 261.489 47.9429 259.155 47.9429C256.821 47.9429 254.911 46.0442 254.911 43.7236C254.911 41.4031 256.821 39.5044 259.155 39.5044C261.701 39.5044 263.398 41.4031 263.398 43.7236Z" fill="white"/>
<path d="M287.375 43.7236C287.375 46.0442 285.465 47.9429 283.131 47.9429C280.797 47.9429 278.888 46.0442 278.888 43.7236C278.888 41.4031 280.797 39.5044 283.131 39.5044C285.465 39.5044 287.375 41.4031 287.375 43.7236Z" fill="white"/>
<path d="M311.35 43.7236C311.35 46.0442 309.441 47.9429 307.107 47.9429C304.773 47.9429 302.863 46.0442 302.863 43.7236C302.863 41.4031 304.773 39.5044 307.107 39.5044C309.441 39.5044 311.35 41.4031 311.35 43.7236Z" fill="white"/>
<path d="M335.115 43.7236C335.115 46.0442 333.205 47.9429 330.872 47.9429C328.538 47.9429 326.628 46.0442 326.628 43.7236C326.628 41.4031 328.538 39.5044 330.872 39.5044C333.418 39.5044 335.115 41.4031 335.115 43.7236Z" fill="white"/>
<path d="M359.091 43.7236C359.091 46.0442 357.181 47.9429 354.847 47.9429C352.513 47.9429 350.604 46.0442 350.604 43.7236C350.604 41.4031 352.513 39.5044 354.847 39.5044C357.181 39.5044 359.091 41.4031 359.091 43.7236Z" fill="white"/>
<path d="M12.3905 55.5376C12.3905 57.8582 10.4809 59.7568 8.14692 59.7568C5.81294 59.7568 3.90332 57.8582 3.90332 55.5376C3.90332 53.217 5.81294 51.3184 8.14692 51.3184C10.4809 51.5293 12.3905 53.217 12.3905 55.5376Z" fill="white"/>
<path d="M36.3661 55.5376C36.3661 57.8582 34.4565 59.7568 32.1225 59.7568C29.7885 59.7568 27.8789 57.8582 27.8789 55.5376C27.8789 53.217 29.7885 51.3184 32.1225 51.3184C34.4565 51.5293 36.3661 53.217 36.3661 55.5376Z" fill="white"/>
<path d="M60.3417 55.5376C60.3417 57.8582 58.4321 59.7568 56.0981 59.7568C53.7641 59.7568 51.8545 57.8582 51.8545 55.5376C51.8545 53.217 53.7641 51.3184 56.0981 51.3184C58.4321 51.5293 60.3417 53.217 60.3417 55.5376Z" fill="white"/>
<path d="M84.1063 55.5381C84.1063 57.8587 82.1967 59.7573 79.8627 59.7573C77.5288 59.7573 75.6191 57.8587 75.6191 55.5381C75.6191 53.2175 77.5288 51.3188 79.8627 51.3188C82.1967 51.3188 84.1063 53.2175 84.1063 55.5381Z" fill="white"/>
<path d="M108.083 55.5376C108.083 57.8582 106.173 59.7568 103.839 59.7568C101.505 59.7568 99.5957 57.8582 99.5957 55.5376C99.5957 53.217 101.505 51.3184 103.839 51.3184C106.173 51.5293 108.083 53.217 108.083 55.5376Z" fill="white"/>
<path d="M132.058 55.5381C132.058 57.8587 130.149 59.7573 127.815 59.7573C125.481 59.7573 123.571 57.8587 123.571 55.5381C123.571 53.2175 125.481 51.3188 127.815 51.3188C130.149 51.5298 132.058 53.2175 132.058 55.5381Z" fill="white"/>
<path d="M155.823 55.5381C155.823 57.8587 153.913 59.7573 151.58 59.7573C149.246 59.7573 147.336 57.8587 147.336 55.5381C147.336 53.2175 149.246 51.3188 151.58 51.3188C153.913 51.5298 155.823 53.2175 155.823 55.5381Z" fill="white"/>
<path d="M179.799 55.5381C179.799 57.8587 177.889 59.7573 175.555 59.7573C173.221 59.7573 171.312 57.8587 171.312 55.5381C171.312 53.2175 173.221 51.3188 175.555 51.3188C177.889 51.5298 179.799 53.2175 179.799 55.5381Z" fill="white"/>
<path d="M203.777 55.5381C203.777 57.8587 201.868 59.7573 199.534 59.7573C197.2 59.7573 195.29 57.8587 195.29 55.5381C195.29 53.2175 197.2 51.3188 199.534 51.3188C201.868 51.5298 203.777 53.2175 203.777 55.5381Z" fill="white"/>
<path d="M227.541 55.5378C227.541 57.8583 225.631 59.7568 223.297 59.7568C220.963 59.7568 219.054 57.8583 219.054 55.5378C219.054 53.2174 220.963 51.3188 223.297 51.3188C225.631 51.3188 227.541 53.2174 227.541 55.5378Z" fill="white"/>
<path d="M251.518 55.5381C251.518 57.8587 249.609 59.7573 247.275 59.7573C244.941 59.7573 243.031 57.8587 243.031 55.5381C243.031 53.2175 244.941 51.3188 247.275 51.3188C249.609 51.5298 251.518 53.2175 251.518 55.5381Z" fill="white"/>
<path d="M275.494 55.5381C275.494 57.8587 273.584 59.7573 271.25 59.7573C268.916 59.7573 267.007 57.8587 267.007 55.5381C267.007 53.2175 268.916 51.3188 271.25 51.3188C273.584 51.5298 275.494 53.2175 275.494 55.5381Z" fill="white"/>
<path d="M299.259 55.5381C299.259 57.8587 297.349 59.7573 295.015 59.7573C292.681 59.7573 290.771 57.8587 290.771 55.5381C290.771 53.2175 292.681 51.3188 295.015 51.3188C297.561 51.5298 299.259 53.2175 299.259 55.5381Z" fill="white"/>
<path d="M323.235 55.5381C323.235 57.8587 321.326 59.7573 318.992 59.7573C316.658 59.7573 314.748 57.8587 314.748 55.5381C314.748 53.2175 316.658 51.3188 318.992 51.3188C321.326 51.5298 323.235 53.2175 323.235 55.5381Z" fill="white"/>
<path d="M347.211 55.5381C347.211 57.8587 345.301 59.7573 342.967 59.7573C340.633 59.7573 338.724 57.8587 338.724 55.5381C338.724 53.2175 340.633 51.3188 342.967 51.3188C345.301 51.5298 347.211 53.2175 347.211 55.5381Z" fill="white"/>
<path d="M0.509666 67.5647C0.509666 69.8854 -1.39995 71.7842 -3.73394 71.7842C-6.06792 71.7842 -7.97754 69.8854 -7.97754 67.5647C-7.97754 65.244 -6.06792 63.3452 -3.73394 63.3452C-1.39995 63.3452 0.509666 65.244 0.509666 67.5647Z" fill="white"/>
<path d="M24.4852 67.5637C24.4852 69.8844 22.5756 71.7832 20.2416 71.7832C17.9077 71.7832 15.998 69.8844 15.998 67.5637C15.998 65.243 17.9077 63.3442 20.2416 63.3442C22.5756 63.3442 24.4852 65.243 24.4852 67.5637Z" fill="white"/>
<path d="M48.2508 67.5632C48.2508 69.8839 46.3412 71.7827 44.0073 71.7827C41.6733 71.7827 39.7637 69.8839 39.7637 67.5632C39.7637 65.2425 41.6733 63.3438 44.0073 63.3438C46.3412 63.3438 48.2508 65.2425 48.2508 67.5632Z" fill="white"/>
<path d="M67.9829 71.7827C70.3265 71.7827 72.2265 69.8936 72.2265 67.5632C72.2265 65.2329 70.3265 63.3438 67.9829 63.3438C65.6392 63.3438 63.7393 65.2329 63.7393 67.5632C63.7393 69.8936 65.6392 71.7827 67.9829 71.7827Z" fill="white"/>
<path d="M96.202 67.5637C96.202 69.8844 94.2924 71.7832 91.9584 71.7832C89.6245 71.7832 87.7148 69.8844 87.7148 67.5637C87.7148 65.243 89.6245 63.3442 91.9584 63.3442C94.2924 63.3442 96.202 65.243 96.202 67.5637Z" fill="white"/>
<path d="M119.967 67.5632C119.967 69.8839 118.057 71.7827 115.723 71.7827C113.389 71.7827 111.479 69.8839 111.479 67.5632C111.479 65.2425 113.389 63.3438 115.723 63.3438C118.057 63.3438 119.967 65.2425 119.967 67.5632Z" fill="white"/>
<path d="M143.942 67.5632C143.942 69.8839 142.033 71.7827 139.699 71.7827C137.365 71.7827 135.455 69.8839 135.455 67.5632C135.455 65.2425 137.365 63.3438 139.699 63.3438C142.033 63.3438 143.942 65.2425 143.942 67.5632Z" fill="white"/>
<path d="M167.918 67.5632C167.918 69.8839 166.008 71.7827 163.674 71.7827C161.34 71.7827 159.431 69.8839 159.431 67.5632C159.431 65.2425 161.34 63.3438 163.674 63.3438C166.008 63.3438 167.918 65.2425 167.918 67.5632Z" fill="white"/>
<path d="M191.682 67.5637C191.682 69.8844 189.773 71.7832 187.439 71.7832C185.105 71.7832 183.195 69.8844 183.195 67.5637C183.195 65.243 185.105 63.3442 187.439 63.3442C189.773 63.3442 191.682 65.243 191.682 67.5637Z" fill="white"/>
<path d="M211.415 71.7827C213.758 71.7827 215.658 69.8936 215.658 67.5632C215.658 65.2329 213.758 63.3438 211.415 63.3438C209.071 63.3438 207.171 65.2329 207.171 67.5632C207.171 69.8936 209.071 71.7827 211.415 71.7827Z" fill="white"/>
<path d="M239.635 67.5632C239.635 69.8839 237.725 71.7827 235.391 71.7827C233.057 71.7827 231.147 69.8839 231.147 67.5632C231.147 65.2425 233.057 63.3438 235.391 63.3438C237.725 63.3438 239.635 65.2425 239.635 67.5632Z" fill="white"/>
<path d="M263.399 67.5632C263.399 69.8839 261.49 71.7827 259.156 71.7827C256.822 71.7827 254.912 69.8839 254.912 67.5632C254.912 65.2425 256.822 63.3438 259.156 63.3438C261.702 63.3438 263.399 65.2425 263.399 67.5632Z" fill="white"/>
<path d="M287.375 67.5632C287.375 69.8839 285.465 71.7827 283.131 71.7827C280.797 71.7827 278.888 69.8839 278.888 67.5632C278.888 65.2425 280.797 63.3438 283.131 63.3438C285.465 63.3438 287.375 65.2425 287.375 67.5632Z" fill="white"/>
<path d="M311.35 67.5632C311.35 69.8839 309.441 71.7827 307.107 71.7827C304.773 71.7827 302.863 69.8839 302.863 67.5632C302.863 65.2425 304.773 63.3438 307.107 63.3438C309.441 63.3438 311.35 65.2425 311.35 67.5632Z" fill="white"/>
<path d="M335.115 67.5623C335.115 69.8827 333.205 71.7812 330.872 71.7812C328.538 71.7812 326.628 69.8827 326.628 67.5623C326.628 65.2418 328.538 63.3433 330.872 63.3433C333.418 63.3433 335.115 65.2418 335.115 67.5623Z" fill="white"/>
<path d="M354.847 71.7812C357.191 71.7812 359.091 69.8923 359.091 67.5623C359.091 65.2322 357.191 63.3433 354.847 63.3433C352.503 63.3433 350.604 65.2322 350.604 67.5623C350.604 69.8923 352.503 71.7812 354.847 71.7812Z" fill="white"/>
<path d="M12.3905 79.3772C12.3905 81.6979 10.4809 83.5967 8.14692 83.5967C5.81294 83.5967 3.90332 81.6979 3.90332 79.3772C3.90332 77.0565 5.81294 75.1577 8.14692 75.1577C10.4809 75.1577 12.3905 77.0565 12.3905 79.3772Z" fill="white"/>
<path d="M36.3661 79.3767C36.3661 81.6974 34.4565 83.5962 32.1225 83.5962C29.7885 83.5962 27.8789 81.6974 27.8789 79.3767C27.8789 77.056 29.7885 75.1572 32.1225 75.1572C34.4565 75.1572 36.3661 77.056 36.3661 79.3767Z" fill="white"/>
<path d="M56.0981 83.5967C58.4417 83.5967 60.3417 81.7076 60.3417 79.3772C60.3417 77.0468 58.4417 75.1577 56.0981 75.1577C53.7544 75.1577 51.8545 77.0468 51.8545 79.3772C51.8545 81.7076 53.7544 83.5967 56.0981 83.5967Z" fill="white"/>
<path d="M80.0746 83.5947C82.4183 83.5947 84.3182 81.7058 84.3182 79.3757C84.3182 77.0456 82.4183 75.1567 80.0746 75.1567C77.731 75.1567 75.8311 77.0456 75.8311 79.3757C75.8311 81.7058 77.731 83.5947 80.0746 83.5947Z" fill="white"/>
<path d="M108.082 79.3757C108.082 81.6962 106.172 83.5947 103.838 83.5947C101.504 83.5947 99.5947 81.6962 99.5947 79.3757C99.5947 77.0553 101.504 75.1567 103.838 75.1567C106.172 75.1567 108.082 77.0553 108.082 79.3757Z" fill="white"/>
<path d="M127.814 83.5947C130.158 83.5947 132.058 81.7058 132.058 79.3757C132.058 77.0456 130.158 75.1567 127.814 75.1567C125.47 75.1567 123.57 77.0456 123.57 79.3757C123.57 81.7058 125.47 83.5947 127.814 83.5947Z" fill="white"/>
<path d="M155.822 79.3765C155.822 81.697 153.913 83.5957 151.579 83.5957C149.245 83.5957 147.335 81.697 147.335 79.3765C147.335 77.0559 149.245 75.1572 151.579 75.1572C153.913 75.1572 155.822 77.0559 155.822 79.3765Z" fill="white"/>
<path d="M179.798 79.376C179.798 81.6966 177.888 83.5952 175.554 83.5952C173.22 83.5952 171.311 81.6966 171.311 79.376C171.311 77.0554 173.22 75.1567 175.554 75.1567C177.888 75.1567 179.798 77.0554 179.798 79.376Z" fill="white"/>
<path d="M203.777 79.3767C203.777 81.6974 201.868 83.5962 199.534 83.5962C197.2 83.5962 195.29 81.6974 195.29 79.3767C195.29 77.056 197.2 75.1572 199.534 75.1572C201.868 75.1572 203.777 77.056 203.777 79.3767Z" fill="white"/>
<path d="M223.509 83.5947C225.853 83.5947 227.753 81.7058 227.753 79.3757C227.753 77.0456 225.853 75.1567 223.509 75.1567C221.166 75.1567 219.266 77.0456 219.266 79.3757C219.266 81.7058 221.166 83.5947 223.509 83.5947Z" fill="white"/>
<path d="M251.518 79.3765C251.518 81.697 249.609 83.5957 247.275 83.5957C244.941 83.5957 243.031 81.697 243.031 79.3765C243.031 77.0559 244.941 75.1572 247.275 75.1572C249.609 75.1572 251.518 77.0559 251.518 79.3765Z" fill="white"/>
<path d="M271.25 83.5952C273.594 83.5952 275.494 81.7062 275.494 79.376C275.494 77.0458 273.594 75.1567 271.25 75.1567C268.907 75.1567 267.007 77.0458 267.007 79.376C267.007 81.7062 268.907 83.5952 271.25 83.5952Z" fill="white"/>
<path d="M299.259 79.376C299.259 81.6966 297.349 83.5952 295.015 83.5952C292.681 83.5952 290.771 81.6966 290.771 79.376C290.771 77.0554 292.681 75.1567 295.015 75.1567C297.561 75.1567 299.259 77.0554 299.259 79.376Z" fill="white"/>
<path d="M323.235 79.376C323.235 81.6966 321.326 83.5952 318.992 83.5952C316.658 83.5952 314.748 81.6966 314.748 79.376C314.748 77.0554 316.658 75.1567 318.992 75.1567C321.326 75.1567 323.235 77.0554 323.235 79.376Z" fill="white"/>
<path d="M347.211 79.376C347.211 81.6966 345.301 83.5952 342.967 83.5952C340.633 83.5952 338.724 81.6966 338.724 79.376C338.724 77.0554 340.633 75.1567 342.967 75.1567C345.301 75.1567 347.211 77.0554 347.211 79.376Z" fill="white"/>
<path d="M0.509666 91.1904C0.509666 93.511 -1.39995 95.4097 -3.73394 95.4097C-6.06792 95.4097 -7.97754 93.511 -7.97754 91.1904C-7.97754 88.8698 -6.06792 86.9712 -3.73394 86.9712C-1.39995 87.1822 0.509666 88.8698 0.509666 91.1904Z" fill="white"/>
<path d="M24.4852 91.1904C24.4852 93.511 22.5756 95.4097 20.2416 95.4097C17.9077 95.4097 15.998 93.511 15.998 91.1904C15.998 88.8698 17.9077 86.9712 20.2416 86.9712C22.5756 87.1822 24.4852 88.8698 24.4852 91.1904Z" fill="white"/>
<path d="M48.2489 91.1909C48.2489 93.5115 46.3393 95.4102 44.0053 95.4102C41.6713 95.4102 39.7617 93.5115 39.7617 91.1909C39.7617 88.8703 41.6713 86.9717 44.0053 86.9717C46.3393 87.1826 48.2489 88.8703 48.2489 91.1909Z" fill="white"/>
<path d="M72.2245 91.1899C72.2245 93.5105 70.3149 95.4092 67.9809 95.4092C65.6469 95.4092 63.7373 93.5105 63.7373 91.1899C63.7373 88.8694 65.6469 86.9707 67.9809 86.9707C70.3149 87.1817 72.2245 88.8694 72.2245 91.1899Z" fill="white"/>
<path d="M96.202 91.1904C96.202 93.511 94.2924 95.4097 91.9584 95.4097C89.6245 95.4097 87.7148 93.511 87.7148 91.1904C87.7148 88.8698 89.6245 86.9712 91.9584 86.9712C94.2924 87.1822 96.202 88.8698 96.202 91.1904Z" fill="white"/>
<path d="M119.967 91.1902C119.967 93.5106 118.057 95.4092 115.723 95.4092C113.389 95.4092 111.479 93.5106 111.479 91.1902C111.479 88.8697 113.389 86.9712 115.723 86.9712C118.057 87.1821 119.967 88.8697 119.967 91.1902Z" fill="white"/>
<path d="M143.942 91.1909C143.942 93.5115 142.033 95.4102 139.699 95.4102C137.365 95.4102 135.455 93.5115 135.455 91.1909C135.455 88.8703 137.365 86.9717 139.699 86.9717C142.033 87.1826 143.942 88.8703 143.942 91.1909Z" fill="white"/>
<path d="M167.918 91.1899C167.918 93.5105 166.008 95.4092 163.674 95.4092C161.34 95.4092 159.431 93.5105 159.431 91.1899C159.431 88.8694 161.34 86.9707 163.674 86.9707C166.008 87.1817 167.918 88.8694 167.918 91.1899Z" fill="white"/>
<path d="M191.682 91.1904C191.682 93.511 189.773 95.4097 187.439 95.4097C185.105 95.4097 183.195 93.511 183.195 91.1904C183.195 88.8698 185.105 86.9712 187.439 86.9712C189.773 87.1822 191.682 88.8698 191.682 91.1904Z" fill="white"/>
<path d="M215.658 91.1904C215.658 93.511 213.749 95.4097 211.415 95.4097C209.081 95.4097 207.171 93.511 207.171 91.1904C207.171 88.8698 209.081 86.9712 211.415 86.9712C213.749 87.1822 215.658 88.8698 215.658 91.1904Z" fill="white"/>
<path d="M239.634 91.1909C239.634 93.5115 237.724 95.4102 235.39 95.4102C233.056 95.4102 231.146 93.5115 231.146 91.1909C231.146 88.8703 233.056 86.9717 235.39 86.9717C237.724 87.1826 239.634 88.8703 239.634 91.1909Z" fill="white"/>
<path d="M263.398 91.1899C263.398 93.5105 261.489 95.4092 259.155 95.4092C256.821 95.4092 254.911 93.5105 254.911 91.1899C254.911 88.8694 256.821 86.9707 259.155 86.9707C261.701 87.1817 263.398 88.8694 263.398 91.1899Z" fill="white"/>
<path d="M287.375 91.1904C287.375 93.511 285.465 95.4097 283.131 95.4097C280.797 95.4097 278.888 93.511 278.888 91.1904C278.888 88.8698 280.797 86.9712 283.131 86.9712C285.465 87.1822 287.375 88.8698 287.375 91.1904Z" fill="white"/>
<path d="M311.35 91.1899C311.35 93.5105 309.441 95.4092 307.107 95.4092C304.773 95.4092 302.863 93.5105 302.863 91.1899C302.863 88.8694 304.773 86.9707 307.107 86.9707C309.441 87.1817 311.35 88.8694 311.35 91.1899Z" fill="white"/>
<path d="M335.115 91.1907C335.115 93.5111 333.205 95.4097 330.872 95.4097C328.538 95.4097 326.628 93.5111 326.628 91.1907C326.628 88.8702 328.538 86.9717 330.872 86.9717C333.418 87.1826 335.115 88.8702 335.115 91.1907Z" fill="white"/>
<path d="M359.091 91.1899C359.091 93.5105 357.181 95.4092 354.847 95.4092C352.513 95.4092 350.604 93.5105 350.604 91.1899C350.604 88.8694 352.513 86.9707 354.847 86.9707C357.181 87.1817 359.091 88.8694 359.091 91.1899Z" fill="white"/>
<path d="M12.3905 103.217C12.3905 105.538 10.4809 107.437 8.14692 107.437C5.81294 107.437 3.90332 105.538 3.90332 103.217C3.90332 100.896 5.81294 98.9976 8.14692 98.9976C10.4809 98.9976 12.3905 100.896 12.3905 103.217Z" fill="white"/>
<path d="M36.3661 103.217C36.3661 105.537 34.4565 107.436 32.1225 107.436C29.7885 107.436 27.8789 105.537 27.8789 103.217C27.8789 100.896 29.7885 98.9971 32.1225 98.9971C34.4565 98.9971 36.3661 100.896 36.3661 103.217Z" fill="white"/>
<path d="M60.3417 103.217C60.3417 105.537 58.4321 107.436 56.0981 107.436C53.7641 107.436 51.8545 105.537 51.8545 103.217C51.8545 100.896 53.7641 98.9971 56.0981 98.9971C58.4321 98.9971 60.3417 100.896 60.3417 103.217Z" fill="white"/>
<path d="M84.1063 103.217C84.1063 105.537 82.1967 107.436 79.8627 107.436C77.5288 107.436 75.6191 105.537 75.6191 103.217C75.6191 100.896 77.5288 98.9971 79.8627 98.9971C82.1967 98.9971 84.1063 100.896 84.1063 103.217Z" fill="white"/>
<path d="M108.083 103.217C108.083 105.538 106.173 107.437 103.839 107.437C101.505 107.437 99.5957 105.538 99.5957 103.217C99.5957 100.896 101.505 98.9976 103.839 98.9976C106.173 98.9976 108.083 100.896 108.083 103.217Z" fill="white"/>
<path d="M132.058 103.217C132.058 105.537 130.149 107.436 127.815 107.436C125.481 107.436 123.571 105.537 123.571 103.217C123.571 100.896 125.481 98.9971 127.815 98.9971C130.149 98.9971 132.058 100.896 132.058 103.217Z" fill="white"/>
<path d="M155.823 103.217C155.823 105.537 153.913 107.436 151.58 107.436C149.246 107.436 147.336 105.537 147.336 103.217C147.336 100.896 149.246 98.9971 151.58 98.9971C153.913 98.9971 155.823 100.896 155.823 103.217Z" fill="white"/>
<path d="M179.799 103.216C179.799 105.537 177.889 107.436 175.555 107.436C173.221 107.436 171.312 105.537 171.312 103.216C171.312 100.895 173.221 98.9966 175.555 98.9966C177.889 98.9966 179.799 100.895 179.799 103.216Z" fill="white"/>
<path d="M203.777 103.217C203.777 105.538 201.868 107.437 199.534 107.437C197.2 107.437 195.29 105.538 195.29 103.217C195.29 100.896 197.2 98.9976 199.534 98.9976C201.868 98.9976 203.777 100.896 203.777 103.217Z" fill="white"/>
<path d="M227.541 103.217C227.541 105.537 225.631 107.436 223.297 107.436C220.963 107.436 219.054 105.537 219.054 103.217C219.054 100.896 220.963 98.9971 223.297 98.9971C225.631 98.9971 227.541 100.896 227.541 103.217Z" fill="white"/>
<path d="M251.518 103.217C251.518 105.537 249.609 107.436 247.275 107.436C244.941 107.436 243.031 105.537 243.031 103.217C243.031 100.896 244.941 98.9971 247.275 98.9971C249.609 98.9971 251.518 100.896 251.518 103.217Z" fill="white"/>
<path d="M275.494 103.216C275.494 105.537 273.584 107.436 271.25 107.436C268.916 107.436 267.007 105.537 267.007 103.216C267.007 100.895 268.916 98.9966 271.25 98.9966C273.584 98.9966 275.494 100.895 275.494 103.216Z" fill="white"/>
<path d="M299.259 103.217C299.259 105.537 297.349 107.436 295.015 107.436C292.681 107.436 290.771 105.537 290.771 103.217C290.771 100.896 292.681 98.9971 295.015 98.9971C297.561 98.9971 299.259 100.896 299.259 103.217Z" fill="white"/>
<path d="M323.235 103.217C323.235 105.537 321.326 107.436 318.992 107.436C316.658 107.436 314.748 105.537 314.748 103.217C314.748 100.896 316.658 98.9971 318.992 98.9971C321.326 98.9971 323.235 100.896 323.235 103.217Z" fill="white"/>
<path d="M347.211 103.217C347.211 105.537 345.301 107.436 342.967 107.436C340.633 107.436 338.724 105.537 338.724 103.217C338.724 100.896 340.633 98.9971 342.967 98.9971C345.301 98.9971 347.211 100.896 347.211 103.217Z" fill="white"/>
<path d="M0.509666 115.031C0.509666 117.352 -1.39995 119.25 -3.73394 119.25C-6.06792 119.25 -7.97754 117.352 -7.97754 115.031C-7.97754 112.71 -6.06792 110.812 -3.73394 110.812C-1.39995 110.812 0.509666 112.71 0.509666 115.031Z" fill="white"/>
<path d="M24.4852 115.031C24.4852 117.352 22.5756 119.25 20.2416 119.25C17.9077 119.25 15.998 117.352 15.998 115.031C15.998 112.71 17.9077 110.812 20.2416 110.812C22.5756 110.812 24.4852 112.71 24.4852 115.031Z" fill="white"/>
<path d="M48.2489 115.031C48.2489 117.352 46.3393 119.251 44.0053 119.251C41.6713 119.251 39.7617 117.352 39.7617 115.031C39.7617 112.711 41.6713 110.812 44.0053 110.812C46.3393 110.812 48.2489 112.711 48.2489 115.031Z" fill="white"/>
<path d="M72.2245 115.031C72.2245 117.352 70.3149 119.25 67.9809 119.25C65.6469 119.25 63.7373 117.352 63.7373 115.031C63.7373 112.71 65.6469 110.812 67.9809 110.812C70.3149 110.812 72.2245 112.71 72.2245 115.031Z" fill="white"/>
<path d="M96.202 115.031C96.202 117.352 94.2924 119.251 91.9584 119.251C89.6245 119.251 87.7148 117.352 87.7148 115.031C87.7148 112.711 89.6245 110.812 91.9584 110.812C94.2924 110.812 96.202 112.711 96.202 115.031Z" fill="white"/>
<path d="M119.967 115.031C119.967 117.352 118.057 119.25 115.723 119.25C113.389 119.25 111.479 117.352 111.479 115.031C111.479 112.71 113.389 110.812 115.723 110.812C118.057 110.812 119.967 112.71 119.967 115.031Z" fill="white"/>
<path d="M143.942 115.031C143.942 117.352 142.033 119.251 139.699 119.251C137.365 119.251 135.455 117.352 135.455 115.031C135.455 112.711 137.365 110.812 139.699 110.812C142.033 110.812 143.942 112.711 143.942 115.031Z" fill="white"/>
<path d="M167.918 115.031C167.918 117.351 166.008 119.25 163.674 119.25C161.34 119.25 159.431 117.351 159.431 115.031C159.431 112.71 161.34 110.812 163.674 110.812C166.008 110.812 167.918 112.71 167.918 115.031Z" fill="white"/>
<path d="M191.682 115.03C191.682 117.351 189.773 119.25 187.439 119.25C185.105 119.25 183.195 117.351 183.195 115.03C183.195 112.71 185.105 110.811 187.439 110.811C189.773 110.811 191.682 112.71 191.682 115.03Z" fill="white"/>
<path d="M215.658 115.03C215.658 117.351 213.749 119.25 211.415 119.25C209.081 119.25 207.171 117.351 207.171 115.03C207.171 112.71 209.081 110.811 211.415 110.811C213.749 110.811 215.658 112.71 215.658 115.03Z" fill="white"/>
<path d="M239.634 115.031C239.634 117.351 237.724 119.25 235.39 119.25C233.056 119.25 231.146 117.351 231.146 115.031C231.146 112.71 233.056 110.812 235.39 110.812C237.724 110.812 239.634 112.71 239.634 115.031Z" fill="white"/>
<path d="M263.398 115.031C263.398 117.352 261.489 119.25 259.155 119.25C256.821 119.25 254.911 117.352 254.911 115.031C254.911 112.71 256.821 110.812 259.155 110.812C261.701 110.812 263.398 112.71 263.398 115.031Z" fill="white"/>
<path d="M287.375 115.031C287.375 117.352 285.465 119.25 283.131 119.25C280.797 119.25 278.888 117.352 278.888 115.031C278.888 112.711 280.797 110.812 283.131 110.812C285.465 110.812 287.375 112.711 287.375 115.031Z" fill="white"/>
<path d="M311.35 115.031C311.35 117.352 309.441 119.25 307.107 119.25C304.773 119.25 302.863 117.352 302.863 115.031C302.863 112.71 304.773 110.812 307.107 110.812C309.441 110.812 311.35 112.71 311.35 115.031Z" fill="white"/>
<path d="M335.115 115.031C335.115 117.352 333.205 119.251 330.872 119.251C328.538 119.251 326.628 117.352 326.628 115.031C326.628 112.711 328.538 110.812 330.872 110.812C333.418 110.812 335.115 112.711 335.115 115.031Z" fill="white"/>
<path d="M359.091 115.031C359.091 117.351 357.181 119.25 354.847 119.25C352.513 119.25 350.604 117.351 350.604 115.031C350.604 112.71 352.513 110.812 354.847 110.812C357.181 110.812 359.091 112.71 359.091 115.031Z" fill="white"/>
<path d="M12.3905 126.846C12.3905 129.167 10.4809 131.066 8.14692 131.066C5.81294 131.066 3.90332 129.167 3.90332 126.846C3.90332 124.526 5.81294 122.627 8.14692 122.627C10.4809 122.838 12.3905 124.526 12.3905 126.846Z" fill="white"/>
<path d="M36.3661 126.845C36.3661 129.166 34.4565 131.064 32.1225 131.064C29.7885 131.064 27.8789 129.166 27.8789 126.845C27.8789 124.525 29.7885 122.626 32.1225 122.626C34.4565 122.837 36.3661 124.525 36.3661 126.845Z" fill="white"/>
<path d="M56.0981 131.065C58.4417 131.065 60.3417 129.176 60.3417 126.846C60.3417 124.516 58.4417 122.626 56.0981 122.626C53.7544 122.626 51.8545 124.516 51.8545 126.846C51.8545 129.176 53.7544 131.065 56.0981 131.065Z" fill="white"/>
<path d="M80.0746 131.064C82.4183 131.064 84.3182 129.175 84.3182 126.845C84.3182 124.515 82.4183 122.626 80.0746 122.626C77.731 122.626 75.8311 124.515 75.8311 126.845C75.8311 129.175 77.731 131.064 80.0746 131.064Z" fill="white"/>
<path d="M108.083 126.846C108.083 129.167 106.173 131.065 103.839 131.065C101.505 131.065 99.5957 129.167 99.5957 126.846C99.5957 124.525 101.505 122.626 103.839 122.626C106.173 122.837 108.083 124.525 108.083 126.846Z" fill="white"/>
<path d="M127.815 131.065C130.159 131.065 132.058 129.176 132.058 126.846C132.058 124.516 130.159 122.626 127.815 122.626C125.471 122.626 123.571 124.516 123.571 126.846C123.571 129.176 125.471 131.065 127.815 131.065Z" fill="white"/>
<path d="M155.823 126.846C155.823 129.167 153.913 131.065 151.58 131.065C149.246 131.065 147.336 129.167 147.336 126.846C147.336 124.525 149.246 122.626 151.58 122.626C153.913 122.837 155.823 124.525 155.823 126.846Z" fill="white"/>
<path d="M179.799 126.845C179.799 129.166 177.889 131.065 175.555 131.065C173.221 131.065 171.312 129.166 171.312 126.845C171.312 124.525 173.221 122.626 175.555 122.626C177.889 122.837 179.799 124.525 179.799 126.845Z" fill="white"/>
<path d="M203.778 126.845C203.778 129.166 201.869 131.064 199.535 131.064C197.201 131.064 195.291 129.166 195.291 126.845C195.291 124.525 197.201 122.626 199.535 122.626C201.869 122.837 203.778 124.525 203.778 126.845Z" fill="white"/>
<path d="M223.51 131.064C225.854 131.064 227.754 129.175 227.754 126.845C227.754 124.515 225.854 122.626 223.51 122.626C221.167 122.626 219.267 124.515 219.267 126.845C219.267 129.175 221.167 131.064 223.51 131.064Z" fill="white"/>
<path d="M251.518 126.846C251.518 129.167 249.609 131.065 247.275 131.065C244.941 131.065 243.031 129.167 243.031 126.846C243.031 124.525 244.941 122.626 247.275 122.626C249.609 122.837 251.518 124.525 251.518 126.846Z" fill="white"/>
<path d="M271.25 131.065C273.594 131.065 275.494 129.176 275.494 126.845C275.494 124.515 273.594 122.626 271.25 122.626C268.907 122.626 267.007 124.515 267.007 126.845C267.007 129.176 268.907 131.065 271.25 131.065Z" fill="white"/>
<path d="M299.259 126.846C299.259 129.166 297.349 131.065 295.015 131.065C292.681 131.065 290.771 129.166 290.771 126.846C290.771 124.525 292.681 122.626 295.015 122.626C297.561 122.837 299.259 124.525 299.259 126.846Z" fill="white"/>
<path d="M323.235 126.846C323.235 129.166 321.326 131.065 318.992 131.065C316.658 131.065 314.748 129.166 314.748 126.846C314.748 124.525 316.658 122.626 318.992 122.626C321.326 122.837 323.235 124.525 323.235 126.846Z" fill="white"/>
<path d="M347.211 126.846C347.211 129.167 345.301 131.066 342.967 131.066C340.633 131.066 338.724 129.167 338.724 126.846C338.724 124.526 340.633 122.627 342.967 122.627C345.301 122.838 347.211 124.526 347.211 126.846Z" fill="white"/>
<path d="M0.509666 138.871C0.509666 141.192 -1.39995 143.09 -3.73394 143.09C-6.06792 143.09 -7.97754 141.192 -7.97754 138.871C-7.97754 136.551 -6.06792 134.652 -3.73394 134.652C-1.39995 134.652 0.509666 136.551 0.509666 138.871Z" fill="white"/>
<path d="M24.4852 138.871C24.4852 141.192 22.5756 143.09 20.2416 143.09C17.9077 143.09 15.998 141.192 15.998 138.871C15.998 136.55 17.9077 134.651 20.2416 134.651C22.5756 134.651 24.4852 136.55 24.4852 138.871Z" fill="white"/>
<path d="M48.2489 138.871C48.2489 141.192 46.3393 143.09 44.0053 143.09C41.6713 143.09 39.7617 141.192 39.7617 138.871C39.7617 136.551 41.6713 134.652 44.0053 134.652C46.3393 134.652 48.2489 136.551 48.2489 138.871Z" fill="white"/>
<path d="M72.2245 138.87C72.2245 141.191 70.3149 143.09 67.9809 143.09C65.6469 143.09 63.7373 141.191 63.7373 138.87C63.7373 136.55 65.6469 134.651 67.9809 134.651C70.3149 134.651 72.2245 136.55 72.2245 138.87Z" fill="white"/>
<path d="M96.202 138.871C96.202 141.192 94.2924 143.09 91.9584 143.09C89.6245 143.09 87.7148 141.192 87.7148 138.871C87.7148 136.551 89.6245 134.652 91.9584 134.652C94.2924 134.652 96.202 136.551 96.202 138.871Z" fill="white"/>
<path d="M119.967 138.87C119.967 141.191 118.057 143.09 115.723 143.09C113.389 143.09 111.479 141.191 111.479 138.87C111.479 136.55 113.389 134.651 115.723 134.651C118.057 134.651 119.967 136.55 119.967 138.87Z" fill="white"/>
<path d="M143.942 138.87C143.942 141.191 142.033 143.09 139.699 143.09C137.365 143.09 135.455 141.191 135.455 138.87C135.455 136.55 137.365 134.651 139.699 134.651C142.033 134.651 143.942 136.55 143.942 138.87Z" fill="white"/>
<path d="M167.918 138.87C167.918 141.19 166.008 143.089 163.674 143.089C161.34 143.089 159.431 141.19 159.431 138.87C159.431 136.549 161.34 134.65 163.674 134.65C166.008 134.65 167.918 136.549 167.918 138.87Z" fill="white"/>
<path d="M191.682 138.871C191.682 141.191 189.773 143.09 187.439 143.09C185.105 143.09 183.195 141.191 183.195 138.871C183.195 136.55 185.105 134.651 187.439 134.651C189.773 134.651 191.682 136.55 191.682 138.871Z" fill="white"/>
<path d="M215.658 138.871C215.658 141.191 213.749 143.09 211.415 143.09C209.081 143.09 207.171 141.191 207.171 138.871C207.171 136.55 209.081 134.651 211.415 134.651C213.749 134.651 215.658 136.55 215.658 138.871Z" fill="white"/>
<path d="M239.634 138.871C239.634 141.191 237.724 143.09 235.39 143.09C233.056 143.09 231.146 141.191 231.146 138.871C231.146 136.55 233.056 134.651 235.39 134.651C237.724 134.651 239.634 136.55 239.634 138.871Z" fill="white"/>
<path d="M263.398 138.87C263.398 141.191 261.489 143.089 259.155 143.089C256.821 143.089 254.911 141.191 254.911 138.87C254.911 136.55 256.821 134.651 259.155 134.651C261.701 134.651 263.398 136.55 263.398 138.87Z" fill="white"/>
<path d="M287.375 138.871C287.375 141.192 285.465 143.09 283.131 143.09C280.797 143.09 278.888 141.192 278.888 138.871C278.888 136.551 280.797 134.652 283.131 134.652C285.465 134.652 287.375 136.551 287.375 138.871Z" fill="white"/>
<path d="M311.35 138.87C311.35 141.191 309.441 143.089 307.107 143.089C304.773 143.089 302.863 141.191 302.863 138.87C302.863 136.55 304.773 134.651 307.107 134.651C309.441 134.651 311.35 136.55 311.35 138.87Z" fill="white"/>
<path d="M335.115 138.87C335.115 141.191 333.205 143.09 330.872 143.09C328.538 143.09 326.628 141.191 326.628 138.87C326.628 136.55 328.538 134.651 330.872 134.651C333.418 134.651 335.115 136.55 335.115 138.87Z" fill="white"/>
<path d="M359.091 138.87C359.091 141.191 357.181 143.089 354.847 143.089C352.513 143.089 350.604 141.191 350.604 138.87C350.604 136.549 352.513 134.65 354.847 134.65C357.181 134.65 359.091 136.549 359.091 138.87Z" fill="white"/>
<path d="M12.3905 150.684C12.3905 153.004 10.4809 154.903 8.14692 154.903C5.81294 154.903 3.90332 153.004 3.90332 150.684C3.90332 148.363 5.81294 146.464 8.14692 146.464C10.4809 146.464 12.3905 148.363 12.3905 150.684Z" fill="white"/>
<path d="M36.3661 150.683C36.3661 153.003 34.4565 154.902 32.1225 154.902C29.7885 154.902 27.8789 153.003 27.8789 150.683C27.8789 148.362 29.7885 146.464 32.1225 146.464C34.4565 146.464 36.3661 148.362 36.3661 150.683Z" fill="white"/>
<path d="M60.3417 150.683C60.3417 153.004 58.4321 154.902 56.0981 154.902C53.7641 154.902 51.8545 153.004 51.8545 150.683C51.8545 148.363 53.7641 146.464 56.0981 146.464C58.4321 146.464 60.3417 148.363 60.3417 150.683Z" fill="white"/>
<path d="M84.1063 150.683C84.1063 153.004 82.1967 154.902 79.8627 154.902C77.5288 154.902 75.6191 153.004 75.6191 150.683C75.6191 148.363 77.5288 146.464 79.8627 146.464C82.1967 146.464 84.1063 148.363 84.1063 150.683Z" fill="white"/>
<path d="M108.083 150.683C108.083 153.004 106.173 154.902 103.839 154.902C101.505 154.902 99.5957 153.004 99.5957 150.683C99.5957 148.363 101.505 146.464 103.839 146.464C106.173 146.464 108.083 148.363 108.083 150.683Z" fill="white"/>
<path d="M132.058 150.683C132.058 153.004 130.149 154.902 127.815 154.902C125.481 154.902 123.571 153.004 123.571 150.683C123.571 148.363 125.481 146.464 127.815 146.464C130.149 146.464 132.058 148.363 132.058 150.683Z" fill="white"/>
<path d="M155.823 150.683C155.823 153.004 153.913 154.902 151.58 154.902C149.246 154.902 147.336 153.004 147.336 150.683C147.336 148.363 149.246 146.464 151.58 146.464C153.913 146.464 155.823 148.363 155.823 150.683Z" fill="white"/>
<path d="M179.799 150.682C179.799 153.003 177.889 154.901 175.555 154.901C173.221 154.901 171.312 153.003 171.312 150.682C171.312 148.362 173.221 146.463 175.555 146.463C177.889 146.463 179.799 148.362 179.799 150.682Z" fill="white"/>
<path d="M203.777 150.683C203.777 153.004 201.868 154.902 199.534 154.902C197.2 154.902 195.29 153.004 195.29 150.683C195.29 148.363 197.2 146.464 199.534 146.464C201.868 146.464 203.777 148.363 203.777 150.683Z" fill="white"/>
<path d="M227.541 150.683C227.541 153.004 225.631 154.902 223.297 154.902C220.963 154.902 219.054 153.004 219.054 150.683C219.054 148.363 220.963 146.464 223.297 146.464C225.631 146.464 227.541 148.363 227.541 150.683Z" fill="white"/>
<path d="M251.518 150.683C251.518 153.004 249.609 154.902 247.275 154.902C244.941 154.902 243.031 153.004 243.031 150.683C243.031 148.363 244.941 146.464 247.275 146.464C249.609 146.464 251.518 148.363 251.518 150.683Z" fill="white"/>
<path d="M275.494 150.682C275.494 153.003 273.584 154.901 271.25 154.901C268.916 154.901 267.007 153.003 267.007 150.682C267.007 148.362 268.916 146.463 271.25 146.463C273.584 146.463 275.494 148.362 275.494 150.682Z" fill="white"/>
<path d="M299.259 150.683C299.259 153.004 297.349 154.902 295.015 154.902C292.681 154.902 290.771 153.004 290.771 150.683C290.771 148.363 292.681 146.464 295.015 146.464C297.561 146.464 299.259 148.363 299.259 150.683Z" fill="white"/>
<path d="M323.235 150.682C323.235 153.003 321.326 154.901 318.992 154.901C316.658 154.901 314.748 153.003 314.748 150.682C314.748 148.362 316.658 146.463 318.992 146.463C321.326 146.463 323.235 148.362 323.235 150.682Z" fill="white"/>
<path d="M347.211 150.682C347.211 153.003 345.301 154.901 342.967 154.901C340.633 154.901 338.724 153.003 338.724 150.682C338.724 148.362 340.633 146.463 342.967 146.463C345.301 146.463 347.211 148.362 347.211 150.682Z" fill="white"/>
<path d="M0.509666 162.498C0.509666 164.818 -1.39995 166.717 -3.73394 166.717C-6.06792 166.717 -7.97754 164.818 -7.97754 162.498C-7.97754 160.177 -6.06792 158.279 -3.73394 158.279C-1.39995 158.49 0.509666 160.177 0.509666 162.498Z" fill="white"/>
<path d="M24.4852 162.498C24.4852 164.818 22.5756 166.717 20.2416 166.717C17.9077 166.717 15.998 164.818 15.998 162.498C15.998 160.177 17.9077 158.278 20.2416 158.278C22.5756 158.489 24.4852 160.177 24.4852 162.498Z" fill="white"/>
<path d="M48.2489 162.498C48.2489 164.818 46.3393 166.717 44.0053 166.717C41.6713 166.717 39.7617 164.818 39.7617 162.498C39.7617 160.177 41.6713 158.278 44.0053 158.278C46.3393 158.489 48.2489 160.177 48.2489 162.498Z" fill="white"/>
<path d="M72.2245 162.497C72.2245 164.818 70.3149 166.716 67.9809 166.716C65.6469 166.716 63.7373 164.818 63.7373 162.497C63.7373 160.177 65.6469 158.278 67.9809 158.278C70.3149 158.489 72.2245 160.177 72.2245 162.497Z" fill="white"/>
<path d="M96.202 162.498C96.202 164.818 94.2924 166.717 91.9584 166.717C89.6245 166.717 87.7148 164.818 87.7148 162.498C87.7148 160.177 89.6245 158.278 91.9584 158.278C94.2924 158.489 96.202 160.177 96.202 162.498Z" fill="white"/>
<path d="M119.967 162.497C119.967 164.818 118.057 166.716 115.723 166.716C113.389 166.716 111.479 164.818 111.479 162.497C111.479 160.177 113.389 158.278 115.723 158.278C118.057 158.489 119.967 160.177 119.967 162.497Z" fill="white"/>
<path d="M143.942 162.497C143.942 164.818 142.033 166.716 139.699 166.716C137.365 166.716 135.455 164.818 135.455 162.497C135.455 160.177 137.365 158.278 139.699 158.278C142.033 158.489 143.942 160.177 143.942 162.497Z" fill="white"/>
<path d="M167.918 162.497C167.918 164.818 166.008 166.716 163.674 166.716C161.34 166.716 159.431 164.818 159.431 162.497C159.431 160.176 161.34 158.278 163.674 158.278C166.008 158.489 167.918 160.176 167.918 162.497Z" fill="white"/>
<path d="M191.682 162.498C191.682 164.818 189.773 166.717 187.439 166.717C185.105 166.717 183.195 164.818 183.195 162.498C183.195 160.177 185.105 158.278 187.439 158.278C189.773 158.489 191.682 160.177 191.682 162.498Z" fill="white"/>
<path d="M215.658 162.497C215.658 164.818 213.749 166.716 211.415 166.716C209.081 166.716 207.171 164.818 207.171 162.497C207.171 160.177 209.081 158.278 211.415 158.278C213.749 158.489 215.658 160.177 215.658 162.497Z" fill="white"/>
<path d="M239.634 162.497C239.634 164.818 237.724 166.716 235.39 166.716C233.056 166.716 231.146 164.818 231.146 162.497C231.146 160.177 233.056 158.278 235.39 158.278C237.724 158.489 239.634 160.177 239.634 162.497Z" fill="white"/>
<path d="M263.398 162.497C263.398 164.818 261.489 166.716 259.155 166.716C256.821 166.716 254.911 164.818 254.911 162.497C254.911 160.176 256.821 158.278 259.155 158.278C261.701 158.489 263.398 160.176 263.398 162.497Z" fill="white"/>
<path d="M287.375 162.497C287.375 164.818 285.465 166.716 283.131 166.716C280.797 166.716 278.888 164.818 278.888 162.497C278.888 160.177 280.797 158.278 283.131 158.278C285.465 158.489 287.375 160.177 287.375 162.497Z" fill="white"/>
<path d="M311.35 162.497C311.35 164.818 309.441 166.716 307.107 166.716C304.773 166.716 302.863 164.818 302.863 162.497C302.863 160.176 304.773 158.278 307.107 158.278C309.441 158.489 311.35 160.176 311.35 162.497Z" fill="white"/>
<path d="M335.115 162.497C335.115 164.818 333.205 166.716 330.872 166.716C328.538 166.716 326.628 164.818 326.628 162.497C326.628 160.176 328.538 158.278 330.872 158.278C333.418 158.489 335.115 160.176 335.115 162.497Z" fill="white"/>
<path d="M359.091 162.497C359.091 164.818 357.181 166.716 354.847 166.716C352.513 166.716 350.604 164.818 350.604 162.497C350.604 160.176 352.513 158.278 354.847 158.278C357.181 158.489 359.091 160.176 359.091 162.497Z" fill="white"/>
<path d="M12.3905 174.523C12.3905 176.844 10.4809 178.742 8.14692 178.742C5.81294 178.742 3.90332 176.844 3.90332 174.523C3.90332 172.202 5.81294 170.304 8.14692 170.304C10.4809 170.304 12.3905 172.202 12.3905 174.523Z" fill="white"/>
<path d="M36.3661 174.522C36.3661 176.843 34.4565 178.741 32.1225 178.741C29.7885 178.741 27.8789 176.843 27.8789 174.522C27.8789 172.201 29.7885 170.303 32.1225 170.303C34.4565 170.303 36.3661 172.201 36.3661 174.522Z" fill="white"/>
<path d="M60.3417 174.522C60.3417 176.843 58.4321 178.741 56.0981 178.741C53.7641 178.741 51.8545 176.843 51.8545 174.522C51.8545 172.202 53.7641 170.303 56.0981 170.303C58.4321 170.303 60.3417 172.202 60.3417 174.522Z" fill="white"/>
<path d="M84.1063 174.522C84.1063 176.843 82.1967 178.741 79.8627 178.741C77.5288 178.741 75.6191 176.843 75.6191 174.522C75.6191 172.201 77.5288 170.303 79.8627 170.303C82.1967 170.303 84.1063 172.201 84.1063 174.522Z" fill="white"/>
<path d="M108.083 174.522C108.083 176.843 106.173 178.741 103.839 178.741C101.505 178.741 99.5957 176.843 99.5957 174.522C99.5957 172.201 101.505 170.303 103.839 170.303C106.173 170.303 108.083 172.201 108.083 174.522Z" fill="white"/>
<path d="M132.058 174.522C132.058 176.843 130.149 178.741 127.815 178.741C125.481 178.741 123.571 176.843 123.571 174.522C123.571 172.201 125.481 170.303 127.815 170.303C130.149 170.303 132.058 172.201 132.058 174.522Z" fill="white"/>
<path d="M155.823 174.522C155.823 176.843 153.913 178.741 151.58 178.741C149.246 178.741 147.336 176.843 147.336 174.522C147.336 172.201 149.246 170.303 151.58 170.303C153.913 170.303 155.823 172.201 155.823 174.522Z" fill="white"/>
<path d="M179.799 174.522C179.799 176.842 177.889 178.741 175.555 178.741C173.221 178.741 171.312 176.842 171.312 174.522C171.312 172.201 173.221 170.303 175.555 170.303C177.889 170.303 179.799 172.201 179.799 174.522Z" fill="white"/>
<path d="M203.777 174.522C203.777 176.843 201.868 178.742 199.534 178.742C197.2 178.742 195.29 176.843 195.29 174.522C195.29 172.202 197.2 170.303 199.534 170.303C201.868 170.303 203.777 172.202 203.777 174.522Z" fill="white"/>
<path d="M227.541 174.522C227.541 176.843 225.631 178.741 223.297 178.741C220.963 178.741 219.054 176.843 219.054 174.522C219.054 172.201 220.963 170.303 223.297 170.303C225.631 170.303 227.541 172.201 227.541 174.522Z" fill="white"/>
<path d="M251.518 174.522C251.518 176.843 249.609 178.742 247.275 178.742C244.941 178.742 243.031 176.843 243.031 174.522C243.031 172.202 244.941 170.303 247.275 170.303C249.609 170.303 251.518 172.202 251.518 174.522Z" fill="white"/>
<path d="M275.494 174.522C275.494 176.843 273.584 178.741 271.25 178.741C268.916 178.741 267.007 176.843 267.007 174.522C267.007 172.201 268.916 170.303 271.25 170.303C273.584 170.303 275.494 172.201 275.494 174.522Z" fill="white"/>
<path d="M299.259 174.522C299.259 176.843 297.349 178.741 295.015 178.741C292.681 178.741 290.771 176.843 290.771 174.522C290.771 172.201 292.681 170.303 295.015 170.303C297.561 170.303 299.259 172.201 299.259 174.522Z" fill="white"/>
<path d="M323.235 174.522C323.235 176.842 321.326 178.741 318.992 178.741C316.658 178.741 314.748 176.842 314.748 174.522C314.748 172.201 316.658 170.303 318.992 170.303C321.326 170.303 323.235 172.201 323.235 174.522Z" fill="white"/>
<path d="M347.211 174.522C347.211 176.843 345.301 178.741 342.967 178.741C340.633 178.741 338.724 176.843 338.724 174.522C338.724 172.201 340.633 170.303 342.967 170.303C345.301 170.303 347.211 172.201 347.211 174.522Z" fill="white"/>
<path d="M0.509666 186.336C0.509666 188.657 -1.39995 190.556 -3.73394 190.556C-6.06792 190.556 -7.97754 188.657 -7.97754 186.336C-7.97754 184.016 -6.06792 182.117 -3.73394 182.117C-1.39995 182.117 0.509666 184.016 0.509666 186.336Z" fill="white"/>
<path d="M24.4852 186.336C24.4852 188.657 22.5756 190.556 20.2416 190.556C17.9077 190.556 15.998 188.657 15.998 186.336C15.998 184.016 17.9077 182.117 20.2416 182.117C22.5756 182.117 24.4852 184.016 24.4852 186.336Z" fill="white"/>
<path d="M48.2489 186.336C48.2489 188.657 46.3393 190.556 44.0053 190.556C41.6713 190.556 39.7617 188.657 39.7617 186.336C39.7617 184.016 41.6713 182.117 44.0053 182.117C46.3393 182.117 48.2489 184.016 48.2489 186.336Z" fill="white"/>
<path d="M72.2245 186.336C72.2245 188.657 70.3149 190.556 67.9809 190.556C65.6469 190.556 63.7373 188.657 63.7373 186.336C63.7373 184.016 65.6469 182.117 67.9809 182.117C70.3149 182.117 72.2245 184.016 72.2245 186.336Z" fill="white"/>
<path d="M96.202 186.336C96.202 188.657 94.2924 190.556 91.9584 190.556C89.6245 190.556 87.7148 188.657 87.7148 186.336C87.7148 184.016 89.6245 182.117 91.9584 182.117C94.2924 182.117 96.202 184.016 96.202 186.336Z" fill="white"/>
<path d="M119.967 186.336C119.967 188.657 118.057 190.556 115.723 190.556C113.389 190.556 111.479 188.657 111.479 186.336C111.479 184.016 113.389 182.117 115.723 182.117C118.057 182.117 119.967 184.016 119.967 186.336Z" fill="white"/>
<path d="M143.942 186.336C143.942 188.657 142.033 190.556 139.699 190.556C137.365 190.556 135.455 188.657 135.455 186.336C135.455 184.016 137.365 182.117 139.699 182.117C142.033 182.117 143.942 184.016 143.942 186.336Z" fill="white"/>
<path d="M167.918 186.336C167.918 188.657 166.008 190.556 163.674 190.556C161.34 190.556 159.431 188.657 159.431 186.336C159.431 184.016 161.34 182.117 163.674 182.117C166.008 182.117 167.918 184.016 167.918 186.336Z" fill="white"/>
<path d="M191.682 186.336C191.682 188.657 189.773 190.556 187.439 190.556C185.105 190.556 183.195 188.657 183.195 186.336C183.195 184.016 185.105 182.117 187.439 182.117C189.773 182.117 191.682 184.016 191.682 186.336Z" fill="white"/>
<path d="M215.658 186.336C215.658 188.657 213.749 190.556 211.415 190.556C209.081 190.556 207.171 188.657 207.171 186.336C207.171 184.016 209.081 182.117 211.415 182.117C213.749 182.117 215.658 184.016 215.658 186.336Z" fill="white"/>
<path d="M239.634 186.336C239.634 188.657 237.724 190.556 235.39 190.556C233.056 190.556 231.146 188.657 231.146 186.336C231.146 184.016 233.056 182.117 235.39 182.117C237.724 182.117 239.634 184.016 239.634 186.336Z" fill="white"/>
<path d="M263.398 186.336C263.398 188.657 261.489 190.556 259.155 190.556C256.821 190.556 254.911 188.657 254.911 186.336C254.911 184.016 256.821 182.117 259.155 182.117C261.701 182.117 263.398 184.016 263.398 186.336Z" fill="white"/>
<path d="M287.375 186.336C287.375 188.657 285.465 190.556 283.131 190.556C280.797 190.556 278.888 188.657 278.888 186.336C278.888 184.016 280.797 182.117 283.131 182.117C285.465 182.117 287.375 184.016 287.375 186.336Z" fill="white"/>
<path d="M311.35 186.336C311.35 188.657 309.441 190.556 307.107 190.556C304.773 190.556 302.863 188.657 302.863 186.336C302.863 184.016 304.773 182.117 307.107 182.117C309.441 182.117 311.35 184.016 311.35 186.336Z" fill="white"/>
<path d="M335.115 186.336C335.115 188.657 333.205 190.556 330.872 190.556C328.538 190.556 326.628 188.657 326.628 186.336C326.628 184.016 328.538 182.117 330.872 182.117C333.418 182.117 335.115 184.016 335.115 186.336Z" fill="white"/>
<path d="M359.091 186.336C359.091 188.657 357.181 190.556 354.847 190.556C352.513 190.556 350.604 188.657 350.604 186.336C350.604 184.016 352.513 182.117 354.847 182.117C357.181 182.117 359.091 184.016 359.091 186.336Z" fill="white"/>
<path d="M12.3905 198.151C12.3905 200.472 10.4809 202.371 8.14692 202.371C5.81294 202.371 3.90332 200.472 3.90332 198.151C3.90332 195.831 5.81294 193.932 8.14692 193.932C10.4809 194.143 12.3905 195.831 12.3905 198.151Z" fill="white"/>
<path d="M36.3661 198.151C36.3661 200.471 34.4565 202.37 32.1225 202.37C29.7885 202.37 27.8789 200.471 27.8789 198.151C27.8789 195.83 29.7885 193.932 32.1225 193.932C34.4565 194.143 36.3661 195.83 36.3661 198.151Z" fill="white"/>
<path d="M60.3417 198.15C60.3417 200.471 58.4321 202.369 56.0981 202.369C53.7641 202.369 51.8545 200.471 51.8545 198.15C51.8545 195.83 53.7641 193.931 56.0981 193.931C58.4321 194.142 60.3417 195.83 60.3417 198.15Z" fill="white"/>
<path d="M84.1063 198.151C84.1063 200.471 82.1967 202.37 79.8627 202.37C77.5288 202.37 75.6191 200.471 75.6191 198.151C75.6191 195.83 77.5288 193.932 79.8627 193.932C82.1967 193.932 84.1063 195.83 84.1063 198.151Z" fill="white"/>
<path d="M108.083 198.15C108.083 200.471 106.173 202.369 103.839 202.369C101.505 202.369 99.5957 200.471 99.5957 198.15C99.5957 195.83 101.505 193.931 103.839 193.931C106.173 194.142 108.083 195.83 108.083 198.15Z" fill="white"/>
<path d="M132.058 198.151C132.058 200.471 130.149 202.37 127.815 202.37C125.481 202.37 123.571 200.471 123.571 198.151C123.571 195.83 125.481 193.932 127.815 193.932C130.149 194.143 132.058 195.83 132.058 198.151Z" fill="white"/>
<path d="M155.823 198.151C155.823 200.471 153.913 202.37 151.58 202.37C149.246 202.37 147.336 200.471 147.336 198.151C147.336 195.83 149.246 193.932 151.58 193.932C153.913 194.143 155.823 195.83 155.823 198.151Z" fill="white"/>
<path d="M179.799 198.151C179.799 200.471 177.889 202.37 175.555 202.37C173.221 202.37 171.312 200.471 171.312 198.151C171.312 195.83 173.221 193.932 175.555 193.932C177.889 194.143 179.799 195.83 179.799 198.151Z" fill="white"/>
<path d="M203.777 198.151C203.777 200.471 201.868 202.37 199.534 202.37C197.2 202.37 195.29 200.471 195.29 198.151C195.29 195.83 197.2 193.932 199.534 193.932C201.868 194.143 203.777 195.83 203.777 198.151Z" fill="white"/>
<path d="M227.541 198.151C227.541 200.471 225.631 202.37 223.297 202.37C220.963 202.37 219.054 200.471 219.054 198.151C219.054 195.83 220.963 193.932 223.297 193.932C225.631 193.932 227.541 195.83 227.541 198.151Z" fill="white"/>
<path d="M251.518 198.151C251.518 200.471 249.609 202.37 247.275 202.37C244.941 202.37 243.031 200.471 243.031 198.151C243.031 195.83 244.941 193.932 247.275 193.932C249.609 194.143 251.518 195.83 251.518 198.151Z" fill="white"/>
<path d="M275.494 198.151C275.494 200.471 273.584 202.37 271.25 202.37C268.916 202.37 267.007 200.471 267.007 198.151C267.007 195.83 268.916 193.932 271.25 193.932C273.584 194.143 275.494 195.83 275.494 198.151Z" fill="white"/>
<path d="M299.259 198.151C299.259 200.471 297.349 202.37 295.015 202.37C292.681 202.37 290.771 200.471 290.771 198.151C290.771 195.83 292.681 193.932 295.015 193.932C297.561 194.143 299.259 195.83 299.259 198.151Z" fill="white"/>
<path d="M323.235 198.151C323.235 200.471 321.326 202.37 318.992 202.37C316.658 202.37 314.748 200.471 314.748 198.151C314.748 195.83 316.658 193.932 318.992 193.932C321.326 194.143 323.235 195.83 323.235 198.151Z" fill="white"/>
<path d="M347.211 198.151C347.211 200.471 345.301 202.37 342.967 202.37C340.633 202.37 338.724 200.471 338.724 198.151C338.724 195.83 340.633 193.932 342.967 193.932C345.301 194.143 347.211 195.83 347.211 198.151Z" fill="white"/>
<path d="M0.509666 210.177C0.509666 212.498 -1.39995 214.396 -3.73394 214.396C-6.06792 214.396 -7.97754 212.498 -7.97754 210.177C-7.97754 207.857 -6.06792 205.958 -3.73394 205.958C-1.39995 205.958 0.509666 207.857 0.509666 210.177Z" fill="white"/>
<path d="M24.4852 210.176C24.4852 212.497 22.5756 214.396 20.2416 214.396C17.9077 214.396 15.998 212.497 15.998 210.176C15.998 207.856 17.9077 205.957 20.2416 205.957C22.5756 205.957 24.4852 207.856 24.4852 210.176Z" fill="white"/>
<path d="M48.2489 210.177C48.2489 212.498 46.3393 214.397 44.0053 214.397C41.6713 214.397 39.7617 212.498 39.7617 210.177C39.7617 207.857 41.6713 205.958 44.0053 205.958C46.3393 205.958 48.2489 207.857 48.2489 210.177Z" fill="white"/>
<path d="M67.9809 214.396C70.3246 214.396 72.2245 212.507 72.2245 210.177C72.2245 207.847 70.3246 205.958 67.9809 205.958C65.6372 205.958 63.7373 207.847 63.7373 210.177C63.7373 212.507 65.6372 214.396 67.9809 214.396Z" fill="white"/>
<path d="M96.202 210.177C96.202 212.498 94.2924 214.396 91.9584 214.396C89.6245 214.396 87.7148 212.498 87.7148 210.177C87.7148 207.856 89.6245 205.958 91.9584 205.958C94.2924 205.958 96.202 207.856 96.202 210.177Z" fill="white"/>
<path d="M119.967 210.176C119.967 212.497 118.057 214.396 115.723 214.396C113.389 214.396 111.479 212.497 111.479 210.176C111.479 207.856 113.389 205.957 115.723 205.957C118.057 205.957 119.967 207.856 119.967 210.176Z" fill="white"/>
<path d="M143.942 210.177C143.942 212.498 142.033 214.397 139.699 214.397C137.365 214.397 135.455 212.498 135.455 210.177C135.455 207.857 137.365 205.958 139.699 205.958C142.033 205.958 143.942 207.857 143.942 210.177Z" fill="white"/>
<path d="M167.918 210.177C167.918 212.498 166.008 214.396 163.674 214.396C161.34 214.396 159.431 212.498 159.431 210.177C159.431 207.856 161.34 205.958 163.674 205.958C166.008 205.958 167.918 207.856 167.918 210.177Z" fill="white"/>
<path d="M191.682 210.178C191.682 212.499 189.773 214.397 187.439 214.397C185.105 214.397 183.195 212.499 183.195 210.178C183.195 207.857 185.105 205.958 187.439 205.958C189.773 205.958 191.682 207.857 191.682 210.178Z" fill="white"/>
<path d="M211.415 214.396C213.758 214.396 215.658 212.507 215.658 210.177C215.658 207.847 213.758 205.958 211.415 205.958C209.071 205.958 207.171 207.847 207.171 210.177C207.171 212.507 209.071 214.396 211.415 214.396Z" fill="white"/>
<path d="M239.634 210.178C239.634 212.499 237.724 214.397 235.39 214.397C233.056 214.397 231.146 212.499 231.146 210.178C231.146 207.857 233.056 205.958 235.39 205.958C237.724 205.958 239.634 207.857 239.634 210.178Z" fill="white"/>
<path d="M263.398 210.177C263.398 212.498 261.489 214.396 259.155 214.396C256.821 214.396 254.911 212.498 254.911 210.177C254.911 207.857 256.821 205.958 259.155 205.958C261.701 205.958 263.398 207.857 263.398 210.177Z" fill="white"/>
<path d="M287.375 210.178C287.375 212.499 285.465 214.398 283.131 214.398C280.797 214.398 278.888 212.499 278.888 210.178C278.888 207.857 280.797 205.958 283.131 205.958C285.465 205.958 287.375 207.857 287.375 210.178Z" fill="white"/>
<path d="M311.35 210.177C311.35 212.498 309.441 214.396 307.107 214.396C304.773 214.396 302.863 212.498 302.863 210.177C302.863 207.857 304.773 205.958 307.107 205.958C309.441 205.958 311.35 207.857 311.35 210.177Z" fill="white"/>
<path d="M335.115 210.178C335.115 212.499 333.205 214.397 330.872 214.397C328.538 214.397 326.628 212.499 326.628 210.178C326.628 207.857 328.538 205.958 330.872 205.958C333.418 205.958 335.115 207.857 335.115 210.178Z" fill="white"/>
<path d="M354.847 214.396C357.191 214.396 359.091 212.507 359.091 210.177C359.091 207.847 357.191 205.958 354.847 205.958C352.503 205.958 350.604 207.847 350.604 210.177C350.604 212.507 352.503 214.396 354.847 214.396Z" fill="white"/>
<path d="M12.3905 221.991C12.3905 224.312 10.4809 226.21 8.14692 226.21C5.81294 226.21 3.90332 224.312 3.90332 221.991C3.90332 219.67 5.81294 217.771 8.14692 217.771C10.4809 217.771 12.3905 219.67 12.3905 221.991Z" fill="white"/>
<path d="M36.3661 221.99C36.3661 224.311 34.4565 226.209 32.1225 226.209C29.7885 226.209 27.8789 224.311 27.8789 221.99C27.8789 219.669 29.7885 217.771 32.1225 217.771C34.4565 217.771 36.3661 219.669 36.3661 221.99Z" fill="white"/>
<path d="M56.0981 226.209C58.4417 226.209 60.3417 224.32 60.3417 221.99C60.3417 219.66 58.4417 217.771 56.0981 217.771C53.7544 217.771 51.8545 219.66 51.8545 221.99C51.8545 224.32 53.7544 226.209 56.0981 226.209Z" fill="white"/>
<path d="M80.0746 226.209C82.4183 226.209 84.3182 224.32 84.3182 221.99C84.3182 219.66 82.4183 217.771 80.0746 217.771C77.731 217.771 75.8311 219.66 75.8311 221.99C75.8311 224.32 77.731 226.209 80.0746 226.209Z" fill="white"/>
<path d="M108.083 221.99C108.083 224.311 106.173 226.209 103.839 226.209C101.505 226.209 99.5957 224.311 99.5957 221.99C99.5957 219.669 101.505 217.771 103.839 217.771C106.173 217.771 108.083 219.669 108.083 221.99Z" fill="white"/>
<path d="M127.815 226.209C130.159 226.209 132.058 224.32 132.058 221.99C132.058 219.66 130.159 217.771 127.815 217.771C125.471 217.771 123.571 219.66 123.571 221.99C123.571 224.32 125.471 226.209 127.815 226.209Z" fill="white"/>
<path d="M155.823 221.99C155.823 224.311 153.913 226.209 151.58 226.209C149.246 226.209 147.336 224.311 147.336 221.99C147.336 219.67 149.246 217.771 151.58 217.771C153.913 217.771 155.823 219.67 155.823 221.99Z" fill="white"/>
<path d="M179.799 221.99C179.799 224.31 177.889 226.209 175.555 226.209C173.221 226.209 171.312 224.31 171.312 221.99C171.312 219.669 173.221 217.771 175.555 217.771C177.889 217.771 179.799 219.669 179.799 221.99Z" fill="white"/>
<path d="M203.777 221.99C203.777 224.311 201.868 226.209 199.534 226.209C197.2 226.209 195.29 224.311 195.29 221.99C195.29 219.669 197.2 217.771 199.534 217.771C201.868 217.771 203.777 219.669 203.777 221.99Z" fill="white"/>
<path d="M223.509 226.209C225.853 226.209 227.753 224.32 227.753 221.99C227.753 219.66 225.853 217.771 223.509 217.771C221.166 217.771 219.266 219.66 219.266 221.99C219.266 224.32 221.166 226.209 223.509 226.209Z" fill="white"/>
<path d="M251.518 221.99C251.518 224.311 249.609 226.21 247.275 226.21C244.941 226.21 243.031 224.311 243.031 221.99C243.031 219.67 244.941 217.771 247.275 217.771C249.609 217.771 251.518 219.67 251.518 221.99Z" fill="white"/>
<path d="M271.25 226.21C273.594 226.21 275.494 224.321 275.494 221.99C275.494 219.66 273.594 217.771 271.25 217.771C268.907 217.771 267.007 219.66 267.007 221.99C267.007 224.321 268.907 226.21 271.25 226.21Z" fill="white"/>
<path d="M299.259 221.99C299.259 224.311 297.349 226.21 295.015 226.21C292.681 226.21 290.771 224.311 290.771 221.99C290.771 219.67 292.681 217.771 295.015 217.771C297.561 217.771 299.259 219.67 299.259 221.99Z" fill="white"/>
<path d="M323.235 221.99C323.235 224.311 321.326 226.21 318.992 226.21C316.658 226.21 314.748 224.311 314.748 221.99C314.748 219.67 316.658 217.771 318.992 217.771C321.326 217.771 323.235 219.67 323.235 221.99Z" fill="white"/>
<path d="M347.211 221.991C347.211 224.311 345.301 226.21 342.967 226.21C340.633 226.21 338.724 224.311 338.724 221.991C338.724 219.67 340.633 217.771 342.967 217.771C345.301 217.771 347.211 219.67 347.211 221.991Z" fill="white"/>
<path d="M0.509666 233.804C0.509666 236.125 -1.39995 238.024 -3.73394 238.024C-6.06792 238.024 -7.97754 236.125 -7.97754 233.804C-7.97754 231.484 -6.06792 229.585 -3.73394 229.585C-1.39995 229.796 0.509666 231.484 0.509666 233.804Z" fill="white"/>
<path d="M24.4852 233.804C24.4852 236.125 22.5756 238.023 20.2416 238.023C17.9077 238.023 15.998 236.125 15.998 233.804C15.998 231.483 17.9077 229.584 20.2416 229.584C22.5756 229.795 24.4852 231.483 24.4852 233.804Z" fill="white"/>
<path d="M48.2489 233.804C48.2489 236.125 46.3393 238.023 44.0053 238.023C41.6713 238.023 39.7617 236.125 39.7617 233.804C39.7617 231.483 41.6713 229.584 44.0053 229.584C46.3393 229.795 48.2489 231.483 48.2489 233.804Z" fill="white"/>
<path d="M72.2245 233.804C72.2245 236.124 70.3149 238.023 67.9809 238.023C65.6469 238.023 63.7373 236.124 63.7373 233.804C63.7373 231.483 65.6469 229.584 67.9809 229.584C70.3149 229.795 72.2245 231.483 72.2245 233.804Z" fill="white"/>
<path d="M96.202 233.804C96.202 236.125 94.2924 238.023 91.9584 238.023C89.6245 238.023 87.7148 236.125 87.7148 233.804C87.7148 231.483 89.6245 229.584 91.9584 229.584C94.2924 229.795 96.202 231.483 96.202 233.804Z" fill="white"/>
<path d="M119.967 233.804C119.967 236.124 118.057 238.023 115.723 238.023C113.389 238.023 111.479 236.124 111.479 233.804C111.479 231.483 113.389 229.584 115.723 229.584C118.057 229.795 119.967 231.483 119.967 233.804Z" fill="white"/>
<path d="M143.942 233.804C143.942 236.124 142.033 238.023 139.699 238.023C137.365 238.023 135.455 236.124 135.455 233.804C135.455 231.483 137.365 229.584 139.699 229.584C142.033 229.795 143.942 231.483 143.942 233.804Z" fill="white"/>
<path d="M167.918 233.803C167.918 236.124 166.008 238.023 163.674 238.023C161.34 238.023 159.431 236.124 159.431 233.803C159.431 231.483 161.34 229.584 163.674 229.584C166.008 229.795 167.918 231.483 167.918 233.803Z" fill="white"/>
<path d="M191.682 233.804C191.682 236.125 189.773 238.023 187.439 238.023C185.105 238.023 183.195 236.125 183.195 233.804C183.195 231.483 185.105 229.584 187.439 229.584C189.773 229.795 191.682 231.483 191.682 233.804Z" fill="white"/>
<path d="M215.658 233.804C215.658 236.124 213.749 238.023 211.415 238.023C209.081 238.023 207.171 236.124 207.171 233.804C207.171 231.483 209.081 229.584 211.415 229.584C213.749 229.795 215.658 231.483 215.658 233.804Z" fill="white"/>
<path d="M239.634 233.804C239.634 236.124 237.724 238.023 235.39 238.023C233.056 238.023 231.146 236.124 231.146 233.804C231.146 231.483 233.056 229.584 235.39 229.584C237.724 229.795 239.634 231.483 239.634 233.804Z" fill="white"/>
<path d="M263.398 233.803C263.398 236.124 261.489 238.023 259.155 238.023C256.821 238.023 254.911 236.124 254.911 233.803C254.911 231.483 256.821 229.584 259.155 229.584C261.701 229.795 263.398 231.483 263.398 233.803Z" fill="white"/>
<path d="M287.375 233.804C287.375 236.124 285.465 238.023 283.131 238.023C280.797 238.023 278.888 236.124 278.888 233.804C278.888 231.483 280.797 229.584 283.131 229.584C285.465 229.795 287.375 231.483 287.375 233.804Z" fill="white"/>
<path d="M311.35 233.803C311.35 236.124 309.441 238.023 307.107 238.023C304.773 238.023 302.863 236.124 302.863 233.803C302.863 231.483 304.773 229.584 307.107 229.584C309.441 229.795 311.35 231.483 311.35 233.803Z" fill="white"/>
<path d="M335.115 233.803C335.115 236.124 333.205 238.023 330.872 238.023C328.538 238.023 326.628 236.124 326.628 233.803C326.628 231.483 328.538 229.584 330.872 229.584C333.418 229.795 335.115 231.483 335.115 233.803Z" fill="white"/>
<path d="M359.091 233.803C359.091 236.124 357.181 238.023 354.847 238.023C352.513 238.023 350.604 236.124 350.604 233.803C350.604 231.483 352.513 229.584 354.847 229.584C357.181 229.795 359.091 231.483 359.091 233.803Z" fill="white"/>
</g>
</svg>
