<svg width="100" height="105" viewBox="0 0 100 105" fill="none" xmlns="http://www.w3.org/2000/svg">
<path d="M68.7996 65.7478C68.7996 85.6778 55.7996 89.7431 39.6996 89.7431C23.5996 89.7431 10.5996 85.6778 10.5996 65.7478C10.5996 45.8179 23.5996 29.5566 39.6996 29.5566C55.7996 29.6558 68.7996 45.8179 68.7996 65.7478Z" fill="#0E7898"/>
<path d="M36.2002 97.6752C36.2002 101.542 32.1002 103.624 28.2002 103.624C24.3002 103.624 20.2002 101.542 20.2002 97.6752L22.2002 81.3148C22.2002 77.4478 24.3002 74.374 28.2002 74.374C32.1002 74.374 34.2002 77.4478 34.2002 81.3148L36.2002 97.6752Z" fill="#81D7F1" stroke="#81D7F1" stroke-miterlimit="10"/>
<path d="M59.2002 97.6752C59.2002 101.542 55.1002 103.624 51.2002 103.624C47.3002 103.624 43.2002 101.542 43.2002 97.6752L45.2002 81.3148C45.2002 77.4478 47.3002 74.374 51.2002 74.374C55.1002 74.374 57.2002 77.4478 57.2002 81.3148L59.2002 97.6752Z" fill="#81D7F1" stroke="#81D7F1" stroke-miterlimit="10"/>
<path d="M11.9997 74.671C10.6997 77.6456 7.09972 79.0338 4.09972 77.7448C1.09972 76.4558 -0.300282 72.8862 0.999718 69.9116L9.09972 53.9478C10.3997 50.9732 13.0997 49.1884 16.0997 50.4774C19.0997 51.7664 19.5997 54.9394 18.2997 57.914L11.9997 74.671Z" fill="#81D7F1" stroke="#81D7F1" stroke-miterlimit="10"/>
<path d="M66.4996 74.671C67.7996 77.6456 71.3996 79.0338 74.3996 77.7448C77.3996 76.4558 78.7996 72.8862 77.4996 69.9116L69.3996 53.9478C68.0996 50.9732 65.3996 49.1884 62.3996 50.4774C59.3996 51.7664 58.8996 54.9394 60.1996 57.914L66.4996 74.671Z" fill="#81D7F1" stroke="#81D7F1" stroke-miterlimit="10"/>
<path d="M70.3996 30.5478C70.3996 43.4378 56.5996 53.9481 39.4996 53.9481C22.3996 53.9481 8.59961 43.4378 8.59961 30.5478C8.59961 17.6578 22.4996 7.14746 39.4996 7.14746C56.4996 7.14746 70.3996 17.6578 70.3996 30.5478Z" fill="white"/>
<path d="M71.7002 30.3494C71.7002 30.6468 71.9002 30.5477 72.0002 30.5477C71.9002 30.1511 71.7002 30.3494 71.7002 30.3494Z" fill="white"/>
<path d="M70.7004 26.0856L70.8004 26.1848C70.7004 25.9865 70.6004 25.7882 70.4004 25.5898C70.5004 25.689 70.6004 25.8873 70.7004 26.0856Z" fill="white"/>
<path d="M69.3 22.3184C69.2 22.6158 69.4 22.9133 69.6 23.2107C69.8 23.6074 70 24.004 70.1 24.3014V24.4006L70.5 24.5989C70.3 24.2023 70.1 23.7065 69.9 23.3099C69.6 22.9133 69.4 22.6158 69.3 22.3184Z" fill="white"/>
<path d="M68.9997 19.9385C68.8997 20.1368 68.5997 19.641 69.1997 20.4342C69.1997 20.3351 69.1997 20.3351 69.1997 20.3351C69.1997 20.2359 69.0997 20.1368 68.9997 19.9385Z" fill="white"/>
<path d="M69.2002 20.3353C69.4002 20.7319 69.2002 20.0378 69.2002 20.3353V20.3353Z" fill="white"/>
<path d="M68 18.6495L68.4 19.0461C68.4 18.8478 68.1 18.4512 68.3 18.5503C68 18.1537 68 18.2529 68 18.6495Z" fill="white"/>
<path d="M67.5 18.3516L67.7 18.5499C67.7 18.5499 67.7 18.4507 67.5 18.3516Z" fill="white"/>
<path d="M68.2002 19.0466C68.0002 18.8482 67.9002 18.7491 67.8002 18.5508C67.8002 18.6499 67.7002 18.7491 68.0002 18.7491C67.8002 18.8482 67.9002 18.8482 68.2002 19.0466Z" fill="white"/>
<path d="M68.3002 19.3438C68.4002 19.6412 68.6002 20.0378 68.2002 19.6412C68.8002 20.5336 68.9002 20.2361 68.3002 19.3438Z" fill="white"/>
<path d="M68.7998 22.2188L68.8998 22.6154L69.1998 22.9128C69.0998 22.8137 68.8998 22.2188 68.7998 22.2188Z" fill="white"/>
<path d="M65.8998 15.7734C65.7998 15.7734 65.8998 16.0709 65.7998 16.1701L66.1998 16.3684C66.0998 16.1701 65.7998 15.8726 65.8998 15.7734Z" fill="white"/>
<path d="M65.7998 16.1701L65.2998 15.7734C65.6998 16.1701 65.7998 16.2692 65.7998 16.1701Z" fill="white"/>
<path d="M67.1004 18.5503C67.4004 18.7486 67.7004 18.9469 67.9004 19.2444C67.6004 18.9469 67.3004 18.6495 66.9004 18.4512L67.1004 18.5503Z" fill="white"/>
<path d="M64.1004 14.0884L64.6004 14.1876L63.9004 13.9893L64.1004 14.0884Z" fill="white"/>
<path d="M62.9 13.0969C63.2 13.0969 62.8 12.7003 63.1 12.7995C62.7 12.502 62.4 12.4029 62 12.3037C62.3 12.4029 62.6 12.6012 62.9 13.0969Z" fill="white"/>
<path d="M61.4004 12.1055C61.6004 12.2046 61.8004 12.2046 62.0004 12.3038C61.8004 12.2046 61.6004 12.1055 61.4004 12.1055Z" fill="white"/>
<path d="M64.4998 14.9811C64.4998 14.882 64.4998 14.7828 64.2998 14.4854C64.2998 14.5845 64.2998 14.6837 64.2998 14.7828C64.3998 14.882 64.4998 14.9811 64.4998 14.9811Z" fill="white"/>
<path d="M64.4 14.882C64.2 14.6837 64.1 14.5845 64 14.4854C64 14.4854 64.2 14.5845 64.4 14.882Z" fill="white"/>
<path d="M66.1999 17.1621C65.8999 16.9638 65.1999 16.4681 65.5999 17.1621C65.8999 17.2613 65.6999 16.8647 66.1999 17.1621Z" fill="white"/>
<path d="M64.5996 15.4766L64.9996 15.9723C64.9996 15.8732 64.9996 15.774 65.1996 15.8732L64.5996 15.4766Z" fill="white"/>
<path d="M64.2998 15.2783L64.5998 15.4766L64.3998 15.2783H64.2998Z" fill="white"/>
<path d="M62.1998 12.8986C61.8998 12.7994 61.5998 12.6011 61.2998 12.502C61.5998 12.7994 61.8998 12.9977 62.1998 13.196C62.2998 13.196 62.4998 13.196 62.1998 12.8986Z" fill="white"/>
<path d="M62.2996 13.2951C62.4996 13.4934 62.6996 13.5925 62.7996 13.5925C62.5996 13.4934 62.3996 13.2951 62.2996 13.2951C62.1996 13.1959 62.1996 13.1959 62.2996 13.2951Z" fill="white"/>
<path d="M60.5 11.6094C60.6 11.7085 60.7 11.9068 60.8 12.006C60.8 11.8077 60.6 11.6094 60.5 11.6094Z" fill="white"/>
<path d="M63.1998 13.6919C63.0998 13.5928 62.8998 13.5928 62.7998 13.5928C62.8998 13.6919 63.0998 13.7911 63.1998 13.7911C63.1998 13.7911 63.1998 13.7911 63.1998 13.6919Z" fill="white"/>
<path d="M56.7996 11.4109C56.8996 11.2126 57.6996 11.4109 58.0996 11.9067C58.6996 12.105 58.6996 11.3118 58.3996 10.6177C58.2996 10.7169 58.2996 10.7169 57.6996 10.5186C57.7996 10.7169 58.7996 11.4109 58.1996 11.3118C57.3996 11.0143 57.5996 10.9152 57.2996 10.6177C57.3996 10.816 57.0996 10.7169 56.7996 10.7169C56.4996 10.7169 56.1996 10.7169 56.0996 10.9152C56.2996 11.0143 56.5996 11.0143 56.7996 11.1135C56.8996 11.3118 56.5996 11.2126 56.7996 11.4109Z" fill="white"/>
<path d="M59.5004 11.3122L59.7004 11.4114C59.5004 11.2131 59.3004 11.0148 59.0004 10.7173C58.6004 10.6182 58.4004 10.6182 58.4004 10.6182L59.5004 11.3122Z" fill="white"/>
<path d="M60.7002 12.1052C60.4002 12.2044 59.8002 11.9069 60.0002 12.3035C60.6002 12.7001 60.6002 12.4027 61.0002 12.601C60.0002 12.0061 61.4002 12.7001 60.7002 12.1052C60.9002 12.2044 61.1002 12.4027 61.3002 12.5018C61.1002 12.3035 61.0002 12.2044 60.8002 12.0061C60.8002 12.1052 60.8002 12.1052 60.8002 12.0061C60.9002 12.1052 60.8002 12.0061 60.7002 12.1052C60.8002 12.1052 60.8002 12.1052 60.7002 12.1052C60.5002 11.8077 60.7002 12.0061 60.7002 12.1052C60.8002 12.1052 60.8002 12.0061 60.8002 12.0061C60.4002 11.8077 60.1002 11.6094 59.7002 11.4111C60.0002 11.6094 60.2002 11.8077 60.7002 12.1052Z" fill="white"/>
<path d="M64.7996 17.0637C64.7996 16.9637 64.7996 16.9637 64.7996 17.0637C64.6996 16.9637 64.6996 16.8637 64.7996 17.0637Z" fill="white"/>
<path d="M64.5 16.5669C64.6 16.5669 64.7 16.5669 64.9 16.8644C65 17.0627 64.8 16.9636 64.8 16.9636C65 17.0627 65.4 17.261 65.1 16.8644H65C64.7 16.4678 64.5 15.7737 64.5 15.8729C64.5 15.972 64.5 16.1703 64.5 16.5669Z" fill="white"/>
<path d="M62.6998 14.2863L61.7998 13.6914L62.0998 14.1872L62.1998 14.088C62.5998 14.4846 62.5998 14.2863 62.6998 14.2863Z" fill="white"/>
<path d="M58.3004 10.4203L58.6004 10.3203H57.9004L58.3004 10.4203Z" fill="white"/>
<path d="M57.1004 9.82428L57.2004 9.62598H56.9004L57.1004 9.82428Z" fill="white"/>
<path d="M15 42.8428L15.2 43.0411C15.1 42.9419 15 42.9419 15 42.8428Z" fill="white"/>
<path d="M13.6996 41.2568H13.5996C13.6996 41.3568 13.6996 41.3568 13.6996 41.2568Z" fill="white"/>
<path d="M24.2002 8.83338C23.7002 8.83338 23.1002 8.73423 23.3002 8.93254L23.5002 9.13084C23.8002 8.93254 24.0002 8.83338 24.2002 8.83338Z" fill="white"/>
<path d="M9.5 25.2931L9.6 25.1939C9.6 25.0948 9.5 24.9956 9.5 24.8965C9.5 24.9956 9.5 25.1939 9.5 25.2931Z" fill="white"/>
<path d="M10.3996 25.8877C10.2996 26.086 10.1996 26.1852 10.0996 26.3835C10.0996 26.1852 10.1996 26.086 10.3996 25.8877Z" fill="white"/>
<path d="M24.2002 49.1889L24.6002 49.0897C24.2002 48.8914 24.3002 49.0897 24.2002 49.1889Z" fill="white"/>
<path d="M43.5996 6.15632C43.1996 6.05716 42.8996 5.95801 42.5996 5.95801C43.0996 6.05716 43.3996 6.35462 43.5996 6.15632Z" fill="white"/>
<path d="M12.5 43.834C12.7 43.9332 12.7 44.0323 12.8 43.9332C12.6 43.834 12.5 43.7349 12.5 43.834Z" fill="white"/>
<path d="M41.5 5.85809C41.6 5.85809 41.6 5.85809 41.7 5.95725C42 5.95725 42.3 5.95725 42.6 5.95725C42.3 5.75894 41.9 5.65979 41.5 5.85809Z" fill="white"/>
<path d="M63 43.9344C63 43.9344 63.1 43.8344 63 43.9344C63.1 43.8344 63 43.8344 63 43.9344Z" fill="white"/>
<path d="M71.0004 34.415C71.0004 34.5142 70.9004 34.7125 70.9004 34.9108C71.0004 34.8117 71.0004 34.6133 71.0004 34.415Z" fill="white"/>
<path d="M52 7.64355C52.3 7.74355 52 7.64355 52 7.64355V7.64355Z" fill="white"/>
<path d="M53.0004 9.03125C52.9004 9.03125 52.9004 9.03125 52.9004 9.13125C52.9004 9.03125 53.0004 9.03125 53.0004 9.03125Z" fill="white"/>
<path d="M38.5996 7.24707C38.6996 7.34707 38.5996 7.34707 38.5996 7.24707V7.24707Z" fill="white"/>
<path d="M52.3996 7.84186C52.2996 7.74271 52.1996 7.74271 52.0996 7.64355C52.0996 7.74271 52.1996 7.74271 52.3996 7.84186Z" fill="white"/>
<path d="M52.4004 7.74219C52.5004 7.74219 52.6004 7.84219 52.6004 7.84219C52.6004 7.84219 52.6004 7.84219 52.4004 7.74219Z" fill="white"/>
<path d="M51.5996 7.54395C51.7996 7.54395 51.8996 7.6431 51.9996 7.74225L51.8996 7.6431C51.8996 7.6431 51.7996 7.54395 51.5996 7.54395Z" fill="white"/>
<path d="M43.0996 53.0564C43.3996 52.9564 43.2996 52.9564 43.0996 53.0564V53.0564Z" fill="white"/>
<path d="M18.2998 15.1786C18.3998 14.6828 18.6998 14.5837 18.9998 14.4845L18.2998 14.0879C18.2998 14.4845 18.2998 14.782 18.2998 15.1786Z" fill="white"/>
<path d="M18.7 46.1152C18.5 45.9169 18.4 45.7186 18.3 45.5203C19.1 45.8178 19.6 46.1152 19.2 45.6195C18.6 46.2144 17.2 44.033 16.6 44.5288L16.4 44.1321C16.5 44.2313 16.5 44.2313 16.6 44.3305C16.2 43.4381 15.8 44.2313 15.1 43.3389C14.9 43.0415 14.8 42.744 15 42.8431C14.8 42.6448 14.5 42.4465 14.3 42.2482C14.2 42.0499 14.3 42.0499 14.4 42.2482L13.5 41.2567C13.3 41.1575 12.9 40.9592 12.7 40.7609C12.6 40.4634 12.9 40.8601 12.9 40.7609L12.4 40.2651C12.4 39.8685 12.9 40.3643 13.1 40.7609C13.4 39.7694 12.6 40.3643 12.2 38.877C12.3 39.0753 12.5 39.2736 12.6 39.3728C12.7 38.7778 12.4 38.3812 12.3 37.588C12.2 37.7863 12.4 39.2736 11.9 38.6787C11.9 38.4804 11.8 38.1829 11.4 37.8854C11.6 37.7863 11.4 37.3897 11.2 36.9931L11.5 36.8939C11.2 36.3981 11.1 36.4973 10.8 36.299C10.6 35.7041 10.8 35.5058 11 35.3074C10.7 34.4151 10.8 36.1007 10.4 35.01C10.4 34.2167 10.1 33.6218 9.7 32.7294C9.8 32.1345 9.9 32.8286 10 32.6303L9.7 32.1345C9.7 32.0354 9.8 32.0354 9.8 32.0354C9.7 31.6387 9.5 32.0354 9.3 31.3413C9.1 31.2421 9.2 30.8455 9.3 30.4489C9.5 30.0523 9.6 29.5565 9.4 29.0607C9.5 28.8624 9.6 29.1599 9.7 29.1599C9.5 27.9701 9.6 28.1684 9.4 27.1768L9.8 26.3836C9.4 26.8794 9.2 26.0861 9.3 25.392C9.1 25.5904 8.9 25.6895 8.8 25.7887L9 24.698C9.1 24.5988 9.2 24.698 9.3 24.9954C9.3 24.8963 9.3 24.7971 9.3 24.7971C9.6 24.4997 9.7 24.698 9.8 25.0946L9.5 25.392C9.6 25.6895 9.8 25.987 10 25.987C10 25.8878 10 25.7887 10 25.5904C10 25.6895 10.1 25.6895 10.1 25.6895C10.1 25.6895 10.1 25.4912 10.1 25.392L10.5 25.2929L10.4 25.1937C10.6 24.7971 10.8 24.4005 11.1 24.0039C11.2 23.0124 11 21.8225 11.8 20.3352C11.8 20.831 12.1 20.6327 12.4 20.831C11.9 21.0293 11.8 21.9217 11.4 22.6157C11.6 22.2191 11.7 22.4174 11.7 22.5166C11.8 22.0208 12 21.525 12.2 21.1284C12.4 21.3267 12.5 20.9301 12.8 20.7318C12.5 20.7318 12.6 20.4343 12.7 20.0377C12.9 19.7403 13.2 19.3437 13.4 19.0462C13.6 19.1453 13.6 19.3437 13.1 19.9386C13.9 19.542 13.3 18.7487 14 18.3521C13.9 18.4513 13.8 18.5504 13.8 18.6496C13.9 18.1538 14.8 17.5589 14.7 17.8563L14.6 17.9555C15.1 17.5589 15.7 16.8648 16.2 16.2699C16.8 15.675 17.2 15.1792 17.1 14.9809C17.1 14.9809 17.3 15.4767 17.3 15.675C17.5 14.7826 17.8 13.9893 18.1 13.097C18.2 13.4936 19.3 13.8902 18.6 14.5843C18.9 14.4851 19.2 14.2868 19.6 13.8902C19.4 13.9893 18.9 13.6919 19.1 13.4936C20 13.3944 19.6 13.3944 20.6 13.1961C20.3 13.2953 20.3 12.6012 20.7 12.4029C20.7 12.502 21 12.8986 20.9 13.097L21.6 12.0063C21.4 12.2046 21.8 12.502 22.1 12.502C21.9 12.4029 23 12.1054 23.3 11.9071L22.8 12.0063C24 11.5105 23.6 10.6181 24.9 10.2215C24.8 10.4198 24.8 11.1139 25.5 10.9156C25.7 10.519 26.2 9.03164 27.4 8.43672L28 8.23841L28.8 7.8418C28.6 8.13926 28.2 8.63503 27.7 9.1308C27.3 9.62657 26.8 10.2215 26.5 10.519C27 10.519 26.7 10.7173 27.4 10.4198C27.7 10.519 27.1 10.8164 26.9 10.9156C27.4 10.7173 28 10.6181 28.5 10.519C28.3 10.2215 29.7 9.82488 29.5 9.52741L27.8 10.4198C27.6 10.1223 28.5 9.1308 29.8 8.83334C30.1 8.93249 29.7 9.52741 29.8 9.62657C30 9.3291 30.9 9.03164 31 9.1308L30.5 9.42826C31.2 9.42826 31.5 8.73418 32.4 8.93249C32.7 8.93249 33.3 9.22995 33.3 9.03164C32.8 8.73418 32.5 7.44518 32.7 7.14772C32.8 7.14772 34.3 7.34603 34.6 7.44518C35.1 7.74264 34 8.33757 34.4 8.53587C34.4 8.43672 34.6 8.23841 34.7 8.23841C35 8.23841 34.6 8.53587 35.2 8.43672C35.3 8.0401 36.5 8.33757 35.5 8.13926C36.1 7.94095 36.2 8.13926 36.9 8.0401C36.6 7.8418 37.5 7.24687 38.2 7.04856C38.2 7.14772 38.3 7.24687 38.4 7.34603C39.7 7.24687 40.4 7.54433 41.7 7.64349C42 7.64349 42.5 7.74264 42.3 7.94095C42.5 7.8418 42.7 7.74264 43 7.8418C43.7 8.23841 42.2 7.8418 42.7 8.23841C42.8 7.94095 43.7 7.94095 44.2 7.94095C44.1 7.64349 43 7.74264 42.4 7.8418C42.4 7.34603 43.4 7.04856 44.7 6.94941C45.8 6.94941 45.1 7.24687 45.3 7.24687C47.2 7.64349 47.1 6.7511 48.6 7.34603C49.2 7.74264 48.5 7.94095 48.6 8.13926C47.8 8.0401 47.4 7.74264 46.8 7.64349L47.5 7.94095C47.2 7.94095 46.7 7.94095 46.4 7.8418C46.6 8.0401 47.4 8.13926 48.3 8.33757C49.2 8.53587 50.2 8.83334 50.9 9.1308C51.2 9.1308 51.7 9.1308 51.5 8.93249L51 8.83334C50.6 8.53587 52 8.73418 51.4 8.53587C52.1 8.53587 52.8 8.63503 53.6 9.03164V9.42826C53.6 9.32911 53.1 9.03164 52.8 9.03164C53.2 9.03164 53.9 9.92403 54.5 9.72572C54.3 9.52741 54.2 9.42826 54 9.22995C54.7 9.32911 55.5 9.32911 56.2 9.72572C56 9.22995 56 9.72572 55.6 9.1308C55.9 9.72572 53.7 8.23841 54.2 9.03164C53.8 8.43672 53.3 8.53587 52.7 7.8418C52.7 7.94095 52.9 8.13926 52.3 7.8418C52.3 7.8418 52.2 7.8418 52.1 7.8418C52.2 7.94095 52.3 8.0401 52.4 8.13926C52.2 8.23841 51.8 8.13926 51.5 8.0401C51.1 7.94095 50.8 7.94095 50.6 7.94095C50.2 7.74264 50.8 7.8418 50.6 7.74264H50C50 7.54433 49.1 7.04856 50 7.14772L49.2 6.94941C48.7 6.65195 48.1 6.55279 47.6 6.55279C47.2 6.45364 46.5 6.65195 46.9 6.45364L45.5 6.35449V6.25533C44.8 6.15618 44.1 6.15618 43.4 6.15618C43 6.15618 42.7 6.15618 42.3 6.05702C41.9 6.05702 41.6 5.95787 41.2 5.85872C40.7 5.85872 40.3 5.95787 39.5 5.85872L39.4 5.66041C38.8 5.66041 37.7 5.4621 37.4 5.75956C37.1 5.4621 36.4 5.4621 35.6 5.56125C34.9 5.66041 34.1 5.85872 33.6 5.85872V6.15618C33.3 6.15618 32.9 6.25533 32.6 6.35449C32.2 6.45364 31.9 6.55279 31.5 6.7511L32 6.85026C31.3 7.14772 30.1 7.04856 29 7.34603C29.1 7.24687 29.3 7.14772 29.6 7.14772C28.9 7.04856 28.2 7.34603 27.5 7.64349C26.8 7.94095 26.2 8.33757 25.6 8.33757C25.3 8.53587 25.1 8.53587 24.9 8.63503H25H24.9C24.8 8.63503 24.6 8.63503 24.4 8.63503C24.5 8.63503 24.7 8.63503 24.8 8.63503C24.6 8.73418 24.2 8.93249 23.9 9.1308L23.7 8.93249C23.7 8.93249 23.7 8.93249 23.6 8.93249C23.2 9.03164 23.4 9.1308 23.6 9.22995C23.5 9.32911 23.3 9.42826 23.2 9.52741C22.8 9.22995 22.4 10.0232 21.8 9.82487C21.7 10.1223 20.3 10.9156 20.3 11.3122C20.3 11.3122 20.2 11.3122 20.3 11.213C19.9 11.4113 19.5 11.5105 19.3 11.808L19 11.9071L18.5 12.7995C18 12.8986 17.7 12.9978 18 12.502C17.2 13.5927 17.2 13.1961 16.6 14.1876L16.5 13.9893C16.3 14.1876 16 14.8817 15.7 14.8817C15.2 14.9809 14.5 15.7741 13.6 16.6665C13.1 17.0631 12.8 17.658 12.3 18.1538C12.1 18.4513 11.9 18.6496 11.6 18.8479C11.4 19.0462 11.2 19.3437 11 19.542C11.8 19.542 10.2 20.236 10.6 20.6327C10.4 20.6327 10.2 20.9301 10.2 20.5335C9.7 21.6242 9.2 22.0208 9.2 22.9132C9 22.9132 9.1 22.5166 9 22.6157C9 22.7149 9 23.0124 8.8 23.1115C8.7 23.2107 8.8 22.9132 8.8 22.7149C8.3 23.8056 8.8 24.103 9.2 24.4005C8.8 24.8963 8.7 25.1937 8.9 25.6895C8.7 25.6895 8.6 25.7887 8.6 25.7887C8.5 25.7887 8.5 25.6895 8.6 25.2929C8.4 25.6895 7.9 27.7717 8.2 27.7717C8 27.9701 8 28.3667 8.1 28.565C8 29.4574 8 29.5565 8 30.4489V30.1514C8.4 30.5481 8.1 30.8455 8.2 31.6387C8.1 32.432 8.2 32.6303 8.2 32.8286C8.2 33.0269 8.3 33.1261 8.3 34.0184L8.5 33.9193C8.8 33.9193 8.8 34.3159 8.7 34.8117C8.7 35.01 8.7 35.3074 8.7 35.6049C8.7 35.9024 8.8 36.1007 8.9 36.299V35.9024C9.2 36.299 8.6 37.4888 8.8 38.0838C8.8 38.1829 8.7 37.9846 8.6 37.7863C8.8 39.1744 9 37.8854 9.5 38.7778C9.4 39.0753 9 38.7778 9.2 39.3728C9.2 39.5711 9.6 39.9677 9.9 40.4634C10.3 40.8601 10.8 41.3558 10.9 41.8516C10.9 41.5541 10.9 41.3558 11.3 41.6533C11.7 42.2482 12.1 43.5372 12.8 43.8347C12.8 43.9338 12.8 43.9338 12.8 44.033C13.2 44.4296 14.2 45.2228 14.6 45.322C14.3 46.4127 17.5 47.2059 16.9 47.9C17.4 48.1975 17.9 48.4949 18.3 48.8915H18.2C19.1 49.5856 19.5 49.5856 19.9 49.5856C20.1 49.7839 19.9 49.6848 19.8 49.7839C21.1 50.6763 21.2 50.7755 22.6 50.9738V51.2712C22.8 51.2712 23.3 51.5687 23.9 51.9653C24.5 52.3619 25.3 52.6594 26.1 52.7585C26.1 52.7585 26 52.8577 25.9 52.8577C26.8 53.056 27.7 53.4526 28.6 53.8492C29 54.0475 29.4 54.1467 29.8 54.2458C30.2 54.2458 30.4 54.2458 30.7 54.0475H31.9C30.5 53.6509 32.2 53.6509 31.6 53.3535C32.2 53.4526 33 53.9484 32.3 53.8492L32.2 53.7501C32 53.9484 32.5 54.1467 32.9 54.2458C33.4 54.345 33.9 54.345 33.9 54.5433C34.6 54.6425 35.4 54.7416 36.1 54.8408C36.8 54.9399 37.5 54.9399 38.3 55.0391L39.4 55.1382C39.8 55.1382 40.1 55.1382 40.5 55.1382C41.2 55.1382 41.9 55.1382 42.6 55.1382L42.3 54.7416C42.6 54.7416 42.9 54.7416 43.3 54.6425C43.6 54.7416 43.7 54.9399 43 54.9399C43.4 55.1382 44.1 54.6425 44.1 54.5433C45.5 54.5433 43.6 55.0391 44 55.0391L44.6 54.9399H44.5C44.9 54.7416 45 54.5433 45.8 54.4442C46.3 54.4442 46.1 54.6425 46.3 54.6425C46.3 54.6425 46.4 54.6425 46.6 54.6425L47.8 54.4442L47.3 54.2458C47.8 53.9484 48.4 54.0475 47.8 53.8492C48 53.9484 48.4 53.9484 48.9 53.9484C49.4 53.8492 49.9 53.7501 50.4 53.5518C50.9 53.3535 51.4 53.2543 51.9 53.1552C52.3 53.056 52.6 52.9568 52.7 52.8577C53.3 52.3619 54 52.1636 54.9 51.8662C54.7 51.8662 54.4 51.6678 55.1 51.3704C55.1 52.1636 56.5 51.0729 57.4 51.2712C56.7 51.2712 59.3 50.0814 58.3 50.0814C58.9 49.7839 58.5 50.2797 59 50.1805C59.6 49.6848 60.4 49.189 61.2 48.7924C62 48.3958 62.8 47.8008 63.5 47.1068C63.5 47.0076 63.1 47.1068 63.3 46.7101C63.7 46.611 64.1 46.5118 64.4 46.4127C64.6 46.1152 64.3 45.7186 65 45.5203C64.9 45.5203 64.7 45.5203 64.8 45.322C65.2 45.0245 65.6 44.7271 65.9 44.3305C66.2 43.9338 66.5 43.6364 66.8 43.2398C67.5 42.5457 67.9 41.6533 68.4 40.7609C68.7 40.3643 68.9 39.8685 69.1 39.4719C69.3 39.0753 69.5 38.5795 69.8 38.1829C70.2 37.2905 70.6 36.3981 71.1 35.4066C70.8 35.9024 70.9 35.5058 70.9 35.1091C70.8 35.4066 70.7 35.01 70.5 35.1091L71.2 33.5227C70.9 33.2252 71.3 31.7379 71 31.5396V32.0354C70.6 31.3413 70 32.9277 69.5 32.7294C69.7 33.1261 69.4 33.5227 69.2 34.0184C68.9 34.5142 68.8 35.01 68.9 35.7041C68.7 35.9024 68.8 35.4066 68.7 35.5058C68.8 35.8032 68.7 36.1998 68.4 36.7948V36.6956C68.3 36.8939 68.3 37.0922 68.2 37.2905C68.1 37.3897 68 37.588 68 37.6871C67.8 37.9846 67.7 38.2821 67.5 38.5795C67.2 39.1744 66.7 39.6702 66.1 40.5626H66.4C66.1 40.9592 66 40.9592 65.8 41.0584C65.8 41.7525 66.5 40.0668 66.6 40.6618C66.4 40.7609 66.2 40.9592 66 41.1575C65.8 41.3558 65.5 41.6533 65.3 41.9508C65.1 42.2482 64.8 42.5457 64.6 42.744C64.4 42.9423 64.1 43.0415 64 43.0415C63.5 43.5372 64.4 43.1406 63.9 43.6364H63.7V43.9338C63.4 44.2313 63.1 44.2313 62.9 44.1321C63 44.033 63.1 43.8347 63.2 43.8347C62.7 44.1321 62 45.0245 61.8 45.1237L62.4 44.7271C61.7 45.4211 60.9 46.1152 60.1 46.611C59.7 46.9085 59.2 47.2059 58.8 47.5034C58.4 47.8008 58 48.0983 57.6 48.3958H57.8C56.7 49.2882 56.8 48.8915 55.4 49.5856V49.4865C55.2 49.6848 54.8 49.9822 54.4 50.0814C54.7 49.7839 53.6 50.0814 54 49.7839C52.7 50.5772 53.4 50.1805 52.6 50.9738L52.3 50.8746C52 51.1721 52 51.2712 51.3 51.5687C51.9 51.2712 50.7 51.3704 51.4 50.9738C49.7 50.9738 49.2 52.0645 48.3 51.5687C48 51.8662 48.4 51.9653 48.8 51.8662C49.2 51.767 49.6 51.6678 49.4 51.767C49.8 51.8662 48.9 52.3619 48.4 52.3619C47.9 52.4611 47.4 51.8662 46.1 52.0645C46.2 52.0645 46.2 51.9653 46.4 51.9653C45.9 51.9653 45.5 52.2628 44.8 52.1636C44.5 52.5602 44 52.2628 44 52.6594L45.2 52.4611C44.5 52.6594 43.9 53.2543 42.8 53.056C42.9 52.9568 43.2 52.8577 43.4 52.7585C43.1 52.6594 42.8 52.8577 42.4 52.7585C42.5 52.3619 43.9 52.5602 44.6 52.1636C44.2 52.0645 43.3 52.6594 43.6 52.1636C43.1 52.8577 42.3 52.1636 41.4 52.6594V52.3619C41.3 52.3619 41 52.5602 40.7 52.5602L41.2 52.1636C40.5 52.4611 39.8 51.9653 39.1 52.0645C40.5 52.0645 39.4 52.3619 40 52.5602C38.2 52.8577 39 51.8662 37 51.9653C37.3 51.9653 38 52.1636 37.6 52.2628C37.2 52.1636 36.7 52.0645 36.5 51.9653C35.2 51.8662 36.7 52.2628 36.1 52.3619C35.7 51.9653 35.4 52.4611 34.8 52.4611V52.1636C33.3 51.767 34.3 52.6594 33 52.2628L33.6 52.0645H32.9L33.1 51.767C32.3 51.8662 32.1 51.767 31.4 51.4695C31.5 51.6678 31.2 51.9653 30.5 51.767C30.1 51.4695 30.8 51.5687 29.9 51.3704C30.1 51.2712 30.4 51.1721 30.8 51.4695C30.9 51.3704 31 51.3704 31.1 51.2712C30.7 50.9738 29.9 50.8746 29.6 50.8746C29.7 50.8746 29.9 50.9738 29.9 51.0729H28.5C28.3 50.8746 28.5 50.8746 28.7 50.8746C28.4 50.7755 28.2 50.8746 27.8 50.7755C28 50.5772 28 50.3788 28.6 50.478C28.2 50.478 27.7 50.3788 27.3 50.2797C27.2 50.1805 26.8 49.7839 26.9 49.7839C26.6 49.5856 26.1 49.5856 25.7 49.4865C25.2 49.3873 24.8 49.2882 24.4 48.9907C24.3 48.9907 24.2 48.9907 24 48.9907C23.2 48.5941 22.7 47.9991 21.6 47.7017L21.3 47.1068C20.5 46.8093 21.7 47.9 20.5 47.3051C19.6 46.8093 20.4 46.8093 20.2 46.5118C19.9 46.4127 19.6 46.4127 19.2 46.2144C18.8 46.1152 18.5 45.8178 18.2 45.4211C18.3 45.8178 18.4 46.0161 18.7 46.1152ZM12 38.7778C12.1 38.9761 12.5 39.1744 12.4 39.3728C12 39.3728 12 39.0753 12 38.7778ZM10.5 24.0039C10.5 24.2022 10.4 24.4005 10.2 24.5988C10.3 24.4005 10.3 24.2022 10.5 24.0039ZM48.8 6.94941C48.4 6.85026 48.5 6.85026 48.8 6.94941V6.94941ZM49.8 7.34603C49.9 7.34603 49.9 7.34603 49.8 7.34603C49.8 7.34603 49.6 7.24687 49.3 7.14772C49.4 7.24687 49.5 7.34603 49.8 7.34603ZM46.3 54.4442H46.1C46.5 54.2458 46.4 54.345 46.3 54.4442Z" fill="#81D7F1"/>
<path d="M10.2996 25.7881C10.1996 25.7881 10.1996 25.7881 10.0996 25.7881C10.0996 25.8881 10.1996 25.8881 10.2996 25.7881Z" fill="white"/>
<path d="M34.9 8.53652C34.7 8.53652 34.6 8.43652 34.5 8.43652C34.5 8.53652 34.6 8.53652 34.9 8.53652Z" fill="white"/>
<path d="M54.8998 8.5362L54.2998 8.33789C54.5998 8.43704 54.6998 8.5362 54.7998 8.63535C54.7998 8.63535 54.6998 8.5362 54.8998 8.5362Z" fill="white"/>
<path d="M59.0002 12.4026C59.1002 12.4026 59.2002 12.5017 59.3002 12.5017V12.4026C59.0002 12.3034 58.7002 12.2043 59.0002 12.4026Z" fill="white"/>
<path d="M55.0996 9.62598C55.0996 9.82428 55.3996 9.92344 55.8996 10.1217C55.8996 10.1217 55.8996 10.1217 55.7996 10.1217C55.9996 9.82428 55.4996 9.72513 55.0996 9.62598Z" fill="white"/>
<path d="M55.9004 10.1221C56.0004 10.1221 56.2004 10.2212 56.3004 10.3204C56.4004 10.2212 56.2004 10.1221 55.9004 10.1221Z" fill="white"/>
<path d="M51 7.54416C51.2 7.64332 51.2 7.34585 51.3 7.44501C51.6 7.2467 49.9 7.34585 51 7.54416Z" fill="white"/>
<path d="M55.0998 10.4195V10.1221L54.7998 10.2212L55.0998 10.4195Z" fill="white"/>
<path d="M52 9.03126L52.6 9.32872C52.6 9.32872 52.7 9.32872 52.8 9.32872C52.5 9.13041 52 8.9321 52 9.03126Z" fill="white"/>
<path d="M52.9004 9.22949C53.1004 9.32865 53.3004 9.32865 53.4004 9.32865C53.3004 9.4278 53.0004 9.32865 52.9004 9.22949Z" fill="white"/>
<path d="M54.1996 10.1217L54.0996 9.92337L53.5996 9.82422L54.1996 10.1217Z" fill="white"/>
<path d="M44.7996 7.3457H43.9996C43.8996 7.44486 44.0996 7.54401 44.3996 7.54401C44.6996 7.44486 44.8996 7.44486 44.7996 7.3457Z" fill="white"/>
<path d="M46.9 8.43613C46.7 8.33698 46.7 8.23783 46.6 8.13867L46.5 8.43613H46.9Z" fill="white"/>
<path d="M44.8002 8.13867C44.7002 8.23783 43.7002 8.23783 44.6002 8.33698C44.7002 8.23783 45.5002 8.23783 44.8002 8.13867Z" fill="white"/>
<path d="M33.7002 7.74284H33.9002L33.8002 7.24707L33.7002 7.74284Z" fill="white"/>
<path d="M24.7001 11.6091C25.5001 11.4108 24.7001 11.2125 25.5001 11.0142C25.6001 10.8159 24.9001 11.1133 25.0001 10.915C24.6001 11.4108 24.4001 11.4108 24.7001 11.6091Z" fill="white"/>
<path d="M25.0996 11.0147C25.1996 10.9156 25.1996 10.9156 25.2996 10.8164C25.0996 10.9156 25.0996 11.0147 25.0996 11.0147Z" fill="white"/>
<path d="M71.6996 32.2336L71.7996 31.6387L71.5996 32.0353L71.6996 32.2336Z" fill="white"/>
<path d="M71.2998 31.0436L71.6998 30.9445L71.3998 30.5479C71.3998 30.7462 71.3998 30.9445 71.2998 31.0436Z" fill="white"/>
<path d="M11.9998 37.1914C11.8998 37.2906 11.8998 37.3897 11.9998 37.588V37.1914Z" fill="white"/>
<path d="M15.7 43.1402L15.6 43.041L15.5 43.4376L15.7 43.1402Z" fill="white"/>
<path d="M20.6004 46.6105C20.4004 46.4122 20.1004 46.313 19.9004 46.2139C20.4004 46.5113 20.4004 47.0071 20.6004 46.6105Z" fill="white"/>
<path d="M70.3996 30.5488C70.3996 17.6588 56.5996 7.14844 39.4996 7.14844C22.3996 7.14844 8.59961 17.6588 8.59961 30.5488C8.59961 43.4388 22.3996 53.9491 39.4996 53.9491C56.5996 53.9491 70.3996 43.4388 70.3996 30.5488Z" fill="#81D7F1"/>
<path d="M69.1004 30.7471C69.1004 30.5488 68.9004 30.5488 68.9004 30.5488C68.9004 30.9454 69.2004 30.7471 69.1004 30.7471Z" fill="white"/>
<path d="M67.7998 38.1834C68.0998 38.0843 68.1998 37.7868 68.2998 37.3902C68.3998 36.9936 68.3998 36.5969 68.5998 36.2995L68.6998 36.2003L68.4998 35.8037C68.3998 36.2003 68.2998 36.6961 68.1998 37.0927C68.1998 37.5885 67.9998 37.9851 67.7998 38.1834Z" fill="white"/>
<path d="M66.2002 39.4728C66.4002 39.4728 66.1002 39.8694 66.5002 39.0762H66.4002C66.3002 39.2745 66.3002 39.3736 66.2002 39.4728Z" fill="white"/>
<path d="M66.4003 39.1748C66.6003 38.8774 66.1003 39.3731 66.4003 39.1748V39.1748Z" fill="white"/>
<path d="M65.4999 40.7614L65.6999 40.2656C65.5999 40.2656 65.2999 40.6622 65.3999 40.4639C65.0999 40.9597 65.1999 40.8605 65.4999 40.7614Z" fill="white"/>
<path d="M65.4004 41.2569L65.5004 41.0586C65.5004 41.0586 65.4004 41.0586 65.4004 41.2569Z" fill="white"/>
<path d="M65.7996 40.4639C65.6996 40.6622 65.6996 40.8605 65.5996 40.9596C65.6996 40.9596 65.7996 40.9596 65.6996 40.7613C65.6996 40.8605 65.6996 40.7613 65.7996 40.4639Z" fill="white"/>
<path d="M66 40.2658C66.2 40.0675 66.5 39.7701 66.3 40.2658C66.8 39.4726 66.5 39.4726 66 40.2658Z" fill="white"/>
<path d="M68.1 38.4812L68.4 38.1837V37.7871C68.4 38.0846 68 38.4812 68.1 38.4812Z" fill="white"/>
<path d="M63.2998 43.0421C63.2998 43.1412 63.5998 43.0421 63.6998 43.1412L63.8998 42.8438C63.6998 42.8438 63.3998 43.0421 63.2998 43.0421Z" fill="white"/>
<path d="M63.7004 43.042L63.4004 43.5378C63.8004 43.2403 63.8004 43.1411 63.7004 43.042Z" fill="white"/>
<path d="M65.6996 41.5545C65.7996 41.257 65.8996 40.9596 65.9996 40.6621C65.8996 41.0587 65.6996 41.3562 65.5996 41.7528L65.6996 41.5545Z" fill="white"/>
<path d="M61.8002 44.4303L61.9002 44.1328L61.7002 44.7277L61.8002 44.4303Z" fill="white"/>
<path d="M60.6998 45.421C60.7998 45.1235 60.2998 45.421 60.3998 45.2227C60.0998 45.5201 59.8998 45.8176 59.7998 46.0159C59.9998 45.8176 60.2998 45.6193 60.6998 45.421Z" fill="white"/>
<path d="M59.5 46.4132C59.6 46.3141 59.7 46.1158 59.8 46.0166C59.7 46.1158 59.6 46.2149 59.5 46.4132Z" fill="white"/>
<path d="M62.7002 44.2314C62.6002 44.2314 62.5002 44.2314 62.2002 44.3314C62.3002 44.3314 62.4002 44.3314 62.5002 44.3314C62.6002 44.3314 62.7002 44.3314 62.7002 44.2314Z" fill="white"/>
<path d="M62.6002 44.4297C62.4002 44.628 62.3002 44.7272 62.2002 44.7272C62.2002 44.628 62.4002 44.628 62.6002 44.4297Z" fill="white"/>
<path d="M64.6003 42.6455C64.5003 43.0421 64.1003 43.637 64.7003 43.2404C64.8003 42.943 64.5003 43.1413 64.6003 42.6455Z" fill="white"/>
<path d="M63.2002 44.2316L63.7002 43.835C63.6002 43.835 63.5002 43.835 63.6002 43.6367L63.2002 44.2316Z" fill="white"/>
<path d="M63 44.4298L63.2 44.2314L63 44.3306V44.4298Z" fill="white"/>
<path d="M60.5004 46.0159C60.3004 46.2142 60.1004 46.4125 59.9004 46.6108C60.2004 46.4125 60.5004 46.3133 60.8004 46.0159C60.7004 46.0159 60.8004 45.8176 60.5004 46.0159Z" fill="white"/>
<path d="M60.8003 46.0167C61.0003 45.9176 61.1003 45.7193 61.2003 45.6201C61.1003 45.8184 60.9003 45.9176 60.8003 46.0167C60.7003 46.1159 60.8003 46.1159 60.8003 46.0167Z" fill="white"/>
<path d="M58.7998 47.0079C58.8998 47.0079 59.0998 46.9087 59.1998 46.8096C59.0998 46.9087 58.8998 46.9087 58.7998 47.0079Z" fill="white"/>
<path d="M61.4002 45.3223C61.3002 45.4214 61.3002 45.5206 61.2002 45.6197C61.3002 45.5206 61.4002 45.4214 61.5002 45.3223C61.4002 45.3223 61.4002 45.3223 61.4002 45.3223Z" fill="white"/>
<path d="M57 50.0816C56.9 49.8833 57.5 49.3876 58.1 49.1893C58.6 48.7926 57.8 48.396 57.2 48.2969C57.2 48.396 57.3 48.4952 56.8 48.8918C57 48.8918 58.1 48.4952 57.8 48.8918C57.1 49.3876 57.2 49.1893 56.8 49.2884C57 49.2884 56.8 49.5859 56.6 49.7842C56.4 49.9825 56.2 50.28 56.3 50.3791C56.5 50.28 56.7 50.0816 56.9 49.9825C57 49.8833 56.8 50.1808 57 50.0816Z" fill="white"/>
<path d="M58.2002 47.8013L58.4002 47.7021C58.1002 47.8013 57.9002 47.8013 57.5002 47.9005C57.2002 48.1979 57.2002 48.2971 57.2002 48.3962L58.2002 47.8013Z" fill="white"/>
<path d="M59.3004 47.0079C59.3004 47.3054 58.8004 47.702 59.3004 47.702C59.9004 47.3054 59.6004 47.2063 59.9004 46.9088C59.0004 47.702 60.1004 46.6113 59.3004 47.0079C59.5004 46.9088 59.7004 46.7105 59.8004 46.6113C59.6004 46.7105 59.4004 46.8096 59.2004 46.9088C59.3004 46.9088 59.3004 46.9088 59.2004 46.9088C59.3004 46.9088 59.3004 47.0079 59.3004 47.0079C59.0004 47.2063 59.2004 47.0079 59.3004 46.9088C59.0004 47.2063 58.7004 47.4046 58.4004 47.702C58.6004 47.5037 58.9004 47.3054 59.3004 47.0079Z" fill="white"/>
<path d="M64.7 44.0332C64.6 44.0332 64.6 44.0332 64.7 44.0332C64.6 44.1332 64.6 44.1332 64.7 44.0332Z" fill="white"/>
<path d="M64.1998 44.3306C64.1998 44.2314 64.1998 44.1323 64.3998 43.934C64.5998 43.8348 64.4998 44.0331 64.4998 44.0331C64.5998 43.8348 64.7998 43.5374 64.2998 43.8348V43.934C63.8998 44.2314 63.2998 44.4297 63.2998 44.3306C63.5998 44.3306 63.7998 44.3306 64.1998 44.3306Z" fill="white"/>
<path d="M61.7996 45.8184L61.0996 46.6116L61.5996 46.4133L61.4996 46.3141C61.9996 46.0167 61.7996 45.9175 61.7996 45.8184Z" fill="white"/>
<path d="M56.9996 48.2975V48L56.5996 48.5949L56.9996 48.2975Z" fill="white"/>
<path d="M55.8996 48.8917L55.7996 48.6934L55.5996 48.8917H55.8996Z" fill="white"/>
<path d="M13 16.568L13.2 16.2705C13.1 16.4688 13.1 16.4688 13 16.568Z" fill="white"/>
<path d="M11.5996 18.3526L11.6996 18.4517C11.6996 18.3526 11.5996 18.2534 11.5996 18.3526Z" fill="white"/>
<path d="M25.2996 49.883C24.9996 49.4864 24.6996 49.0898 24.5996 49.2881V49.5856C24.8996 49.5856 25.0996 49.7839 25.2996 49.883Z" fill="white"/>
<path d="M9.40039 35.9023V36.0015C9.50039 36.1006 9.60039 36.1006 9.70039 36.1998C9.60039 36.1006 9.50039 36.0015 9.40039 35.9023Z" fill="white"/>
<path d="M8.4002 35.8039C8.4002 35.6056 8.4002 35.4073 8.4002 35.209C8.3002 35.4073 8.3002 35.6056 8.4002 35.8039Z" fill="white"/>
<path d="M22.8996 9.2306L23.0996 8.83398C22.6996 9.03229 22.8996 9.03229 22.8996 9.2306Z" fill="white"/>
<path d="M43.3004 52.4611C42.9004 52.3619 42.6004 52.4611 42.4004 52.4611C42.8004 52.5602 43.2004 52.6594 43.3004 52.4611Z" fill="white"/>
<path d="M14.4002 18.8482C14.5002 18.6499 14.5002 18.5508 14.4002 18.5508C14.3002 18.7491 14.3002 18.8482 14.4002 18.8482Z" fill="white"/>
<path d="M41.2998 52.4618C41.3998 52.4618 41.3998 52.4618 41.4998 52.4618C41.7998 52.4618 41.9998 52.3627 42.3998 52.3627C42.0998 52.3627 41.6998 52.2635 41.2998 52.4618Z" fill="white"/>
<path d="M69.0004 27.1774C69.0004 27.0783 68.9004 26.8799 68.9004 26.6816C68.9004 26.7808 68.9004 26.9791 69.0004 27.1774Z" fill="white"/>
<path d="M51.0996 50.7766C51.2996 50.5766 51.0996 50.6766 51.0996 50.7766V50.7766Z" fill="white"/>
<path d="M52.6 51.1719L52.5 51.2719C52.6 51.2719 52.6 51.1719 52.6 51.1719Z" fill="white"/>
<path d="M38.5996 53.9492C38.6996 54.0492 38.5996 53.9492 38.5996 53.9492V53.9492Z" fill="white"/>
<path d="M51.5002 50.6768C51.4002 50.6768 51.3002 50.6768 51.2002 50.7768C51.2002 50.7768 51.3002 50.7768 51.5002 50.6768Z" fill="white"/>
<path d="M51.4004 50.5785C51.5004 50.5785 51.6004 50.5785 51.6004 50.4785C51.7004 50.4785 51.6004 50.4785 51.4004 50.5785Z" fill="white"/>
<path d="M50.7002 50.8754C50.8002 50.8754 51.0002 50.7754 51.1002 50.7754C51.0002 50.7754 51.0002 50.7754 51.0002 50.7754C51.0002 50.7754 50.9002 50.7754 50.7002 50.8754Z" fill="white"/>
<path d="M16.7998 47.9991C17.2998 48.0982 17.4998 48.1974 17.7998 48.4949L17.8998 47.8008C17.4998 47.8008 17.0998 47.8999 16.7998 47.9991Z" fill="white"/>
<path d="M17 12.899C16.7 12.9981 16.5 13.0973 16.3 13.1964C16.8 12.3041 17.4 12.1058 16.7 12.3041C17 12.899 14.5 14.2871 14.9 14.8821L14.4 15.0804C14.5 14.9812 14.5 14.9812 14.6 14.8821C13.7 15.2787 14.5 15.7744 13.5 16.5677C13.2 16.8651 12.9 16.9643 13 16.6668C12.8 16.9643 12.7 17.2618 12.5 17.5592C12.3 17.7575 12.3 17.6584 12.4 17.4601L11.5 18.6499C11.4 18.9474 11.3 19.344 11.3 19.6415C11 19.9389 11.3 19.4431 11.2 19.4431L11 20.0381C10.7 20.2364 10.9 19.5423 11.2 19.0465C10.2 19.2448 11 19.7406 9.8 20.8313C9.9 20.633 10 20.3355 10.1 20.1372C9.4 20.3355 9.3 20.9305 8.7 21.6245C8.9 21.5254 10.1 20.3355 9.8 21.2279C9.6 21.4262 9.5 21.7237 9.4 22.2195C9.2 22.1203 9 22.5169 8.8 23.1118L8.5 22.9135C8.4 23.5085 8.6 23.6076 8.6 24.0042C8.3 24.6983 8 24.6983 7.8 24.7975C7.4 25.8882 8.5 24.2025 8.1 25.4915C7.8 26.3839 7.8 27.078 7.8 28.1687C7.6 28.7636 7.6 28.0695 7.5 28.2678L7.7 28.8628C7.7 28.9619 7.6 28.9619 7.6 28.9619C7.7 29.4577 7.9 29.0611 8 29.7552C8.2 29.8543 8 30.2509 7.9 30.7467C7.8 31.2425 7.7 31.8374 8 32.234C7.9 32.4323 7.8 32.1349 7.7 32.234C8.1 33.523 8 33.3247 8.6 34.3162V35.2086C8.7 34.5145 9.1 35.3078 9.6 35.9027C9.6 35.6052 9.7 35.4069 9.7 35.3078L10.2 36.2993C10.2 36.3985 10 36.3985 9.8 36.2002C9.9 36.2993 9.9 36.2993 9.9 36.3985C9.9 36.7951 9.7 36.6959 9.4 36.4976C9.4 36.2993 9.4 36.2002 9.5 36.0019C9.2 35.8036 8.9 35.6052 8.7 35.7044C8.8 35.8036 8.8 35.9027 8.9 36.0019C8.8 35.9027 8.8 35.9027 8.7 36.0019C8.7 36.0019 8.8 36.101 8.9 36.2993L8.6 36.6959H8.8C8.9 37.1917 8.9 37.7866 9.1 38.2824C10 39.1748 10.8 39.7697 11.9 41.0587C11.4 40.8604 11.5 41.257 11.2 41.3562C11.3 40.7612 10.3 40.3646 10 39.4722C10.2 39.8689 10 39.8689 9.9 39.7697C10.2 40.2655 10.6 40.5629 11 40.9596C10.7 41.0587 11 41.3562 11.1 41.7528C11.2 41.4553 11.5 41.6536 11.7 42.0503C12 42.3477 12.3 42.7443 12.6 42.9426C12.5 43.0418 12.2 43.0418 11.8 42.4469C12 43.4384 13 42.9426 13.3 43.835C13.1 43.7359 13.1 43.6367 13 43.6367C13.4 43.9342 14.1 44.7274 13.8 44.7274L13.7 44.6283C14.1 45.124 14.8 45.8181 15.5 46.3139C16.2 46.8096 16.8 47.1071 17 47.0079C17 47.1071 16.5 47.3054 16.4 47.3054C17.3 47.4046 18.2 47.4046 19.1 47.4046C18.7 47.6029 18.8 48.7927 17.8 48.3961C18 48.5944 18.3 48.8919 18.9 49.1893C18.8 48.991 18.8 48.3961 19 48.5944C19.4 49.3876 19.3 49.0902 19.9 49.8834C19.7 49.6851 20.3 49.2885 20.7 49.586C20.6 49.586 20.4 50.1809 20.2 50.0817L21.6 50.1809C21.3 50.0817 21.3 50.5775 21.5 50.875C21.4 50.7758 22.5 51.3707 22.8 51.4699L22.4 51.1724C23.6 51.8665 24 50.9741 25.2 51.569C25 51.6682 24.5 52.164 25.2 52.4614C25.6 52.2631 27 51.569 28.2 51.6682L28.4 51.8665H29.3C29 52.0648 28.4 52.2631 27.7 52.3623C27 52.4614 26.3 52.5606 25.8 52.5606C26.2 52.858 25.9 52.7589 26.6 53.0563C26.8 53.3538 26.1 53.1555 25.9 53.0563C26.5 53.2546 27 53.5521 27.6 53.7504C27.6 53.3538 29.1 53.7504 29.1 53.453L27.1 53.2547C27.1 52.858 28.5 52.5606 29.7 52.9572C30 53.1555 29.3 53.5521 29.3 53.6513C29.5 53.5521 30.5 53.7504 30.6 53.8496L30 54.0479C30.7 54.3453 31.2 53.8496 32 54.3453C32.3 54.4445 32.8 54.9403 32.9 54.742C32.5 54.2462 32.6 52.9572 33 52.7589C33.1 52.858 34.4 53.3538 34.7 53.5521C35.1 53.9487 33.9 54.2462 34.3 54.5437C34.3 54.4445 34.6 54.3453 34.7 54.3453C35 54.4445 34.5 54.6428 35.2 54.6428C35.3 54.2462 36.6 54.8411 35.5 54.3453C36.2 54.3453 36.2 54.5437 37 54.5437C36.8 54.3453 37.7 53.7504 38.4 53.6513C38.4 53.7504 38.5 53.8496 38.6 53.9487C39.9 54.0479 40.6 54.147 41.9 54.147C42 54.2462 42.6 54.3453 42.4 54.4445C42.6 54.3453 42.7 54.2462 43.1 54.147C43.9 54.3453 42.2 54.2462 42.8 54.6428C42.8 54.4445 43.8 54.2462 44.3 54.0479C44.1 53.7504 43 54.147 42.5 54.3453C42.5 53.9487 43.4 53.3538 44.6 52.9572C45.6 52.7589 45.1 53.1555 45.2 53.1555C47.1 52.9572 46.6 52.0648 48.2 52.164C48.9 52.3623 48.4 52.7589 48.5 52.858C47.7 53.1555 47.2 52.9572 46.7 53.0563H47.4C47.2 53.1555 46.6 53.3538 46.3 53.3538C46.6 53.453 47.4 53.2546 48.3 53.1555C49.2 52.9572 50.2 52.6597 51 52.5606C51.2 52.3623 51.6 52.164 51.4 52.164L51 52.3623C50.5 52.2631 51.7 51.8665 51.1 51.8665C51.6 51.569 52.2 51.0733 53.1 50.875L53.4 51.1724C53.3 51.0733 52.8 51.1724 52.6 51.3707C52.9 51.0733 54 51.3707 54.2 50.7758C54 50.7758 53.8 50.7758 53.5 50.7758C54 50.3792 54.5 49.7843 55.3 49.4868C54.8 49.2885 55.2 49.586 54.5 49.4868C55.1 49.7843 52.7 50.28 53.6 50.3792C52.9 50.1809 52.6 50.5775 51.8 50.3792C51.9 50.4783 52.1 50.4783 51.5 50.6766L51.4 50.7758C51.6 50.7758 51.7 50.7758 51.8 50.7758C51.7 50.9741 51.4 51.1724 51.1 51.2716C50.8 51.3707 50.5 51.569 50.3 51.6682C49.9 51.7673 50.4 51.4699 50.2 51.4699L49.8 51.7673C49.7 51.569 48.7 51.6682 49.5 51.2716L48.7 51.4699C48.2 51.4699 47.6 51.569 47.2 51.6682C46.8 51.6682 46.3 52.0648 46.6 51.8665L45.4 52.2631V52.164C44.8 52.2631 44.2 52.3623 43.5 52.5606C43.2 52.6597 42.8 52.6597 42.5 52.6597C42.2 52.6597 41.8 52.5606 41.4 52.5606C41 52.6597 40.6 52.7589 39.9 52.6597L39.8 52.4614C39.3 52.5606 38.2 52.164 38 52.4614C37.7 52.164 37.1 52.164 36.4 52.0648C35.7 51.9656 35 51.9656 34.5 51.8665L34.4 52.164C34.1 52.164 33.8 52.0648 33.4 52.0648C33.1 52.0648 32.7 51.9656 32.3 51.9656V52.164C31.6 52.2631 30.6 51.6682 29.5 51.3707C29.6 51.2716 29.9 51.3707 30 51.4699C29.4 51.0733 28.7 50.9741 28.1 50.875C27.4 50.7758 26.8 50.6766 26.3 50.28C26 50.28 25.8 50.1809 25.6 49.9826H25.7H25.6C25.5 49.8834 25.4 49.7843 25.3 49.6851C25.4 49.7843 25.5 49.8834 25.6 49.8834C25.4 49.7843 25.1 49.6851 24.7 49.586V49.2885C24.7 49.2885 24.7 49.2885 24.6 49.2885C24.3 49.0902 24.3 49.2885 24.4 49.586C24.2 49.586 24.1 49.4868 23.9 49.586C23.8 49.0902 23 49.2885 22.9 48.7927C22.6 48.8919 21.3 48.0986 20.9 48.3961C20.9 48.2969 20.8 48.2969 21 48.3961C20.7 48.1978 20.4 47.9003 20 47.9003V47.5037L19.1 47.4046C18.8 46.9088 18.7 46.7105 19.3 46.8096C18.1 46.413 18.4 46.413 17.4 46.0164L17.6 45.9173C17.3 45.7189 16.7 45.5206 16.6 45.2232C16.4 44.8266 15.7 44.0333 14.9 43.2401C14.5 42.8435 14.1 42.3477 13.8 41.8519C13.6 41.6536 13.4 41.3562 13.3 41.1579C13.2 40.8604 13 40.6621 12.9 40.3646C12.6 41.0587 12.6 39.3731 12.2 39.5714C12.3 39.3731 12.2 39.0756 12.5 39.3731C11.8 38.5799 12 37.8858 11.3 37.39C11.4 37.1917 11.6 37.4892 11.6 37.39C11.5 37.2909 11.3 37.1917 11.4 36.9934C11.4 36.8942 11.6 37.0926 11.7 37.1917C11.3 36.2993 10.9 36.2993 10.4 36.3985C10.4 35.8036 10.3 35.6052 9.9 35.3078C9.9 35.2086 10 35.0103 10 35.0103C10.1 35.0103 10.1 35.0103 10.3 35.4069C10.2 35.0103 10 33.1264 9.7 33.1264C9.7 33.0272 9.7 32.6306 9.6 32.5315C9.6 31.6391 9.6 31.6391 9.5 30.7467V30.945C9 30.6475 9.4 30.2509 9.4 29.5569C9.6 28.7636 9.6 28.6645 9.6 28.4662C9.6 28.2678 9.6 28.1687 9.9 27.3755H9.6C9.3 27.2763 9.5 26.8797 9.7 26.4831C9.8 26.2848 9.9 26.0865 10 25.8882C10.1 25.6898 10.2 25.4915 10.2 25.1941L10 25.4915C10 24.9958 11.2 24.4008 11.4 24.0042C11.5 23.9051 11.4 24.2025 11.4 24.3017C12.2 23.3102 11.1 24.0042 11.4 23.1118C11.6 23.0127 11.7 23.5085 12 22.9135C12.1 22.8144 12.2 22.3186 12.3 21.8228C12.5 21.3271 12.7 20.7321 13.1 20.5338C12.9 20.633 12.7 20.7321 12.8 20.2364C13.1 19.6415 14.3 19.1457 14.3 18.3525C14.4 18.3525 14.4 18.3525 14.5 18.3525C14.7 17.8567 15.5 17.0634 15.6 16.5677C16.5 16.8651 17.8 14.0888 18.3 14.6838C18.7 14.3863 19.2 14.0888 19.6 13.6922V13.7914C20.5 13.2956 20.7 12.899 20.9 12.6015C21.1 12.5024 21 12.7007 21 12.7007C22.4 12.1058 22.5 11.9074 23.5 11.1142L23.7 11.3125C23.8 11.2134 24.4 11.0151 25 10.8167C25.7 10.6184 26.5 10.4201 27.1 10.0235C27.1 10.0235 27.1 10.1227 27 10.2218C27.7 9.72606 28.7 9.72606 29.6 9.52775C30 9.42859 30.4 9.42859 30.7 9.23029C31 9.13113 31.2 8.93282 31.3 8.73452L32.3 8.3379C30.9 8.53621 32.4 7.84213 31.8 7.84213C32.4 7.64382 33.3 7.84213 32.6 8.04044H32.5C32.4 8.3379 32.9 8.23875 33.3 8.23875C33.8 8.23875 34.3 8.13959 34.3 8.3379C35 8.23875 35.7 8.13959 36.4 8.13959C37.1 8.13959 37.8 8.13959 38.5 8.13959H39.5C39.8 8.13959 40.2 8.23875 40.5 8.23875C41.2 8.3379 41.8 8.3379 42.5 8.3379L42.2 7.94128C42.5 7.94128 42.8 7.94128 43.1 8.04044C43.3 8.13959 43.4 8.3379 42.7 8.3379C43 8.63536 43.8 8.23875 43.8 8.23875C45.1 8.53621 43.3 8.63536 43.6 8.73452H44.1L44 8.63536C44.4 8.53621 44.5 8.3379 45.3 8.43705C45.8 8.53621 45.5 8.73452 45.7 8.73452C45.7 8.73452 45.8 8.83367 46 8.83367L47.1 9.13113L46.7 8.73452C47.2 8.63536 47.8 8.93282 47.3 8.53621C47.5 8.73452 47.8 8.83367 48.2 9.03198C48.6 9.13113 49.1 9.32944 49.6 9.52775C50.1 9.6269 50.6 9.82521 51 9.92436C51.6 9.92436 51.9 10.1227 52 10.1227C52.7 10.1227 53.4 10.4201 54.2 10.7176C54 10.5193 54 10.2218 54.7 10.5193C54.2 11.0151 55.8 11.4117 56.2 12.1058C55.9 11.5108 58.1 13.0973 57.6 12.2049C58.1 12.6015 57.5 12.5024 57.8 12.7998C58.5 12.9981 59.2 13.4939 59.9 14.0888C60.6 14.5846 61.2 15.2787 61.9 15.7744C62 15.6753 61.8 15.3778 62.2 15.5761C62.3 15.8736 62.5 16.1711 62.6 16.5677C62.9 16.766 63.2 16.3694 63.4 17.0635C63.4 16.9643 63.4 16.766 63.6 16.8651C63.9 17.2618 64.2 17.5592 64.5 17.9558C64.8 18.3525 65 18.6499 65.3 19.0465C65.9 19.7406 66.4 20.5338 66.9 21.2279C67.2 21.6245 67.4 22.0211 67.6 22.4178C67.8 22.8144 68 23.211 68.2 23.7068C68.4 24.5992 68.7 25.4915 68.7 26.3839C68.8 25.8882 68.9 26.1856 68.9 26.5822C68.9 26.3839 69.1 26.5822 69.2 26.4831L69.1 27.9704C69.5 28.1687 69.2 29.5569 69.6 29.656L69.5 29.1602C69.9 29.7552 70.3 28.1687 70.9 28.1687C70.7 27.7721 70.7 27.2763 70.7 26.6814C70.7 26.0865 70.8 25.3924 70.2 24.8966C70.2 24.5992 70.4 25.0949 70.5 24.8966C70.2 24.6983 70 24.3017 69.9 23.6076L70 23.7068C69.9 23.5085 69.8 23.211 69.8 23.0127C69.7 22.8144 69.6 22.6161 69.5 22.4178C69.3 22.0211 69.2 21.7237 69.1 21.3271C68.9 20.633 68.5 19.9389 67.9 18.8482L67.8 19.1457C67.6 18.7491 67.6 18.5508 67.5 18.3525C66.9 18.1541 68.2 19.5423 67.6 19.344C67.6 19.1457 67.5 18.8482 67.3 18.5508C67.1 18.2533 66.8 17.9558 66.6 17.5592C66.3 17.2618 66.1 16.8651 65.9 16.5677C65.7 16.2702 65.6 16.0719 65.6 15.8736C65.1 15.3778 65.5 16.2702 65 15.6753V15.3778H64.7C64.4 14.9812 64.3 14.6838 64.4 14.5846C64.5 14.6838 64.7 14.7829 64.8 14.8821C64.5 14.2871 63.4 13.6922 63.3 13.4939L63.8 13.9897C62.9 13.3948 62.1 12.6015 61.2 12.0066C60.7 11.7091 60.3 11.4117 59.8 11.1142C59.3 10.8167 58.8 10.6184 58.4 10.5193L58.5 10.7176C57.1 10.2218 57.5 10.0235 56 9.42859H56.1C55.7 9.42859 55.3 9.23029 54.9 9.03198C55.3 9.03198 54.3 8.43705 54.9 8.53621C53.3 8.13959 54.1 8.43705 52.9 8.43705L52.7 8.13959C52.3 8.23875 52.2 8.23875 51.5 8.04044C52.2 8.04044 51.1 7.64382 51.9 7.64382C50.3 6.75144 49.3 7.34636 48.7 6.55313C48.2 6.75144 48.6 6.85059 49 6.94974C49.4 7.0489 49.8 7.14805 49.6 7.14805C49.9 7.44551 48.9 7.34636 48.4 7.24721C47.9 7.14805 47.6 6.35482 46.3 6.15651C46.4 6.15651 46.5 6.15651 46.6 6.15651C46.1 5.85905 45.6 6.15651 45 5.85905C44.6 6.15651 44.2 5.7599 44 6.15651H45.3C44.6 6.15651 43.9 6.55313 42.7 6.25567C42.8 6.15651 43.2 6.05736 43.4 6.05736C43.1 5.85905 42.7 6.05736 42.4 5.9582C42.5 5.46244 43.9 5.95821 44.7 5.7599C44.3 5.56159 43.2 5.85905 43.6 5.46244C43 5.9582 42.2 5.26413 41.3 5.66074L41.4 5.36328C41.2 5.36328 40.9 5.46244 40.7 5.46244L41 5.85905C40.2 6.15651 39.5 5.56159 38.8 5.7599C40.3 5.66074 39.1 6.05736 39.8 6.25567C37.9 6.65228 38.7 5.66074 36.6 5.85905C36.9 5.85905 37.7 5.9582 37.2 6.05736C36.8 6.05736 36.3 5.95821 36 5.85905C34.6 6.05736 36.2 6.05736 35.7 6.35482C35.2 6.05736 35 6.55313 34.4 6.75144V6.45397C32.7 6.45397 34 6.94974 32.6 6.94974L33.1 6.45397L32.4 6.65228L32.5 6.35482C31.7 6.75144 31.5 6.75144 30.7 6.75144C30.9 6.94974 30.7 7.24721 30 7.34636C29.5 7.34636 30.2 7.0489 29.2 7.34636C29.4 7.14805 29.6 6.85059 30 6.94974C30 6.85059 30.2 6.75144 30.2 6.65228C29.6 6.55313 28.9 6.94974 28.6 7.0489C28.7 7.0489 28.9 6.94974 29 7.0489L27.7 7.94128C27.5 7.94128 27.6 7.74298 27.8 7.64382C27.5 7.74298 27.4 7.94128 27 8.04044C27 7.84213 26.9 7.54467 27.5 7.34636C27.1 7.54467 26.7 7.74298 26.2 8.04044C26.1 7.94128 25.4 8.04044 25.6 7.94128C25.2 8.04044 24.8 8.23875 24.4 8.53621C24 8.83367 23.5 9.13113 23 9.23029C23 9.32944 22.9 9.32944 22.7 9.52775C21.7 9.82521 20.9 10.0235 20 10.9159H19.2C18.5 11.4117 20.2 10.9159 19 11.8083C18.2 12.5024 18.5 11.8083 18.1 11.9074C17.9 12.1058 17.7 12.5024 17.4 12.7998C17.1 13.0973 16.7 13.3948 16.3 13.5931C16.6 13.1964 16.8 13.0973 17 12.899ZM9.9 21.2279C9.9 21.0296 10 20.5338 10.2 20.5338C10.3 20.9305 10.1 20.9305 9.9 21.2279ZM9.4 37.4892C9.3 37.39 9.2 37.0926 9.2 36.7951C9.4 37.0926 9.4 37.2909 9.4 37.4892ZM48.3 51.6682C47.8 51.6682 48 51.7673 48.3 51.6682V51.6682ZM49.2 51.569C49.3 51.4699 49.3 51.4699 49.2 51.4699C49.2 51.569 49 51.569 48.7 51.6682C48.8 51.6682 48.9 51.7673 49.2 51.569ZM46 8.73452L45.8 8.63536C46.2 8.63536 46.1 8.73452 46 8.73452Z" fill="#81D7F1"/>
<path d="M8.5 35.9026C8.5 35.8034 8.6 35.8034 8.6 35.8034C8.5 35.7043 8.5 35.7043 8.5 35.9026Z" fill="white"/>
<path d="M34.6998 54.7423C34.4998 54.6431 34.3998 54.6431 34.2998 54.5439C34.2998 54.5439 34.3998 54.6431 34.6998 54.7423Z" fill="white"/>
<path d="M53.7002 49.6855L53.2002 49.983C53.5002 49.8839 53.6002 49.8839 53.7002 49.8839C53.6002 49.7847 53.5002 49.6855 53.7002 49.6855Z" fill="white"/>
<path d="M59.0004 48.6939C59.1004 48.5948 59.2004 48.5948 59.2004 48.4956L59.1004 48.3965C58.8004 48.6939 58.6004 48.8923 59.0004 48.6939Z" fill="white"/>
<path d="M54.5 50.1812C54.6 50.3795 54.9 50.1812 55.3 49.8838C55.3 49.8838 55.3 49.8838 55.2 49.8838C55.2 49.6855 54.9 49.9829 54.5 50.1812Z" fill="white"/>
<path d="M55.4004 49.8835C55.5004 49.7844 55.6004 49.7844 55.8004 49.6852C55.7004 49.5861 55.6004 49.7844 55.4004 49.8835Z" fill="white"/>
<path d="M50.3002 51.1728C50.5002 51.1728 50.3002 50.8753 50.5002 50.9745C50.6002 50.5779 49.3002 51.5694 50.3002 51.1728Z" fill="white"/>
<path d="M55.1002 50.7755L54.9002 50.5771L54.7002 50.8746L55.1002 50.7755Z" fill="white"/>
<path d="M51.9004 51.7677L52.6004 51.5694C52.6004 51.5694 52.6004 51.4702 52.7004 51.3711C52.3004 51.5694 51.9004 51.6686 51.9004 51.7677Z" fill="white"/>
<path d="M52.7002 51.4698C52.9002 51.3706 53.1002 51.3706 53.2002 51.2715C53.1002 51.2715 52.9002 51.3706 52.7002 51.4698Z" fill="white"/>
<path d="M54.2996 51.1719L54.0996 51.271L53.5996 51.3702L54.2996 51.1719Z" fill="white"/>
<path d="M44.7996 53.3535L43.9996 53.5518C43.8996 53.651 44.0996 53.651 44.3996 53.651C44.5996 53.4527 44.8996 53.4527 44.7996 53.3535Z" fill="white"/>
<path d="M47.1002 53.7505C46.9002 53.7505 46.9002 53.6514 46.7002 53.6514V53.9488L47.1002 53.7505Z" fill="white"/>
<path d="M44.9998 54.1465C44.8998 54.2456 43.8998 54.5431 44.8998 54.4439C44.8998 54.3448 45.6998 54.1465 44.9998 54.1465Z" fill="white"/>
<path d="M33.5996 53.651H33.7996L33.8996 53.1553L33.5996 53.651Z" fill="white"/>
<path d="M23.5 52.1637C24.3 52.6595 23.8 51.9654 24.5 52.4612C24.7 52.4612 23.9 52.0645 24.2 52.0645C23.7 51.8662 23.5 51.6679 23.5 52.1637Z" fill="white"/>
<path d="M24.2998 51.9658C24.3998 51.9658 24.4998 51.9658 24.5998 51.9658C24.3998 52.0658 24.2998 51.9658 24.2998 51.9658Z" fill="white"/>
<path d="M69.0004 29.1602L68.9004 29.6559L69.1004 29.3585L69.0004 29.1602Z" fill="white"/>
<path d="M69.5002 30.1514L69.2002 30.2505L69.5002 30.548C69.5002 30.4488 69.4002 30.2505 69.5002 30.1514Z" fill="white"/>
<path d="M8.5 22.5167C8.7 22.5167 8.8 22.4176 8.9 22.1201L8.5 22.5167Z" fill="white"/>
<path d="M13.3002 15.7744L13.2002 15.8736L13.6002 15.9727L13.3002 15.7744Z" fill="white"/>
<path d="M18.4002 11.1143C18.2002 11.2134 17.9002 11.5109 17.7002 11.61C18.1002 11.3126 18.6002 11.4117 18.4002 11.1143Z" fill="white"/>
<path fill-rule="evenodd" clip-rule="evenodd" d="M35.1004 60.195C33.4004 61.484 32.3004 61.0874 31.2004 59.2035C29.3004 56.1297 29.1004 52.5602 29.2004 49.0898C29.3004 47.5033 30.5004 46.3135 31.9004 46.5118C33.0004 46.6109 34.1004 47.0076 34.9004 47.7016C36.8004 49.1889 38.4004 50.8746 40.2004 52.5602C40.8004 51.767 41.4004 51.0729 42.0004 50.3788C42.9004 49.3873 43.8004 48.2966 44.9004 47.4042C46.7004 45.8177 48.9004 46.3135 49.6004 48.594C50.2004 50.3788 50.4004 52.2627 50.7004 54.1466C50.9004 55.2373 50.9004 56.4272 50.8004 57.5179C50.6004 60.195 48.3004 61.5832 45.9004 60.4925C45.1004 60.0959 44.3004 59.6001 43.6004 58.906C42.5004 57.8153 41.4004 56.6255 40.4004 55.5348C38.5004 57.1213 36.9004 58.8069 35.1004 60.195Z" fill="white"/>
<path d="M28.9995 9.62611C28.9995 8.53542 28.6995 7.44472 28.1995 6.35403C25.9995 2.28872 20.5995 0.999715 15.9995 3.28026C11.4995 5.65995 9.4995 10.816 11.5995 14.8813C12.2995 16.1703 13.3995 17.261 14.5995 17.955C18.7995 14.4847 23.6995 11.1134 28.9995 9.62611Z" fill="#81D7F1"/>
<path d="M28.7002 8.63483C28.8002 8.63483 28.7002 8.43652 28.7002 8.43652C28.5002 8.53568 28.7002 8.63483 28.7002 8.63483Z" fill="white"/>
<path d="M27.5004 9.42826V9.3291L27.4004 9.52741L27.5004 9.42826Z" fill="white"/>
<path d="M26.4004 9.82435C26.6004 10.0227 26.8004 9.62604 27.0004 9.62604L27.1004 9.7252V9.42773C26.8004 9.52689 26.6004 9.82435 26.4004 9.82435Z" fill="white"/>
<path d="M25.5 9.42773C25.6 9.52773 25.4 9.52773 25.7 9.42773C25.6 9.42773 25.6 9.42773 25.5 9.42773Z" fill="white"/>
<path d="M25.6002 9.42852C25.7002 9.32852 25.5002 9.32852 25.6002 9.42852V9.42852Z" fill="white"/>
<path d="M25.1004 9.7252L25.2004 9.52689C25.1004 9.42773 25.0004 9.52689 25.0004 9.42773C24.9004 9.62604 25.0004 9.62604 25.1004 9.7252Z" fill="white"/>
<path d="M25 10.0242C25.1 9.92422 25 9.92422 25 10.0242V10.0242Z" fill="white"/>
<path d="M25.1996 9.72559L25.0996 9.92389C25.0996 9.92389 25.1996 10.023 25.1996 9.72559C25.1996 9.92389 25.1996 9.82474 25.1996 9.72559Z" fill="white"/>
<path d="M25.4004 9.72542C25.5004 9.72542 25.6004 9.72542 25.5004 9.92373C25.8004 9.72542 25.6004 9.62627 25.4004 9.72542Z" fill="white"/>
<path d="M26.4004 10.1234H26.5004L26.6004 10.0234C26.6004 10.1234 26.4004 10.0234 26.4004 10.1234Z" fill="white"/>
<path d="M24.0996 10.0234C24.0996 10.1226 24.1996 10.1226 24.2996 10.2217L24.3996 10.1226C24.1996 10.1226 24.0996 10.1226 24.0996 10.0234Z" fill="white"/>
<path d="M24.1996 10.2217L24.0996 10.42C24.2996 10.3208 24.2996 10.3208 24.1996 10.2217Z" fill="white"/>
<path d="M25.0996 10.3204L25.2996 9.92383L25.0996 10.3204Z" fill="white"/>
<path d="M22.9996 10.6182C22.9996 10.5191 22.7996 10.5191 22.7996 10.4199C22.6996 10.5191 22.5996 10.6182 22.5996 10.8165C22.6996 10.6182 22.7996 10.5191 22.9996 10.6182Z" fill="white"/>
<path d="M22.5 10.9151C22.5 10.816 22.6 10.816 22.6 10.7168C22.6 10.7168 22.6 10.816 22.5 10.9151Z" fill="white"/>
<path d="M23.7996 10.5199C23.7996 10.5199 23.6996 10.4199 23.5996 10.4199L23.7996 10.5199Z" fill="white"/>
<path d="M23.7 10.5186C23.6 10.5186 23.6 10.5186 23.5 10.6186C23.6 10.6186 23.6 10.6186 23.7 10.5186Z" fill="white"/>
<path d="M24.6 10.3203C24.5 10.4195 24.4 10.6178 24.7 10.7169C24.7 10.6178 24.5 10.6178 24.6 10.3203Z" fill="white"/>
<path d="M24 10.7169H24.2C24.2 10.7169 24.1 10.6177 24.1 10.5186L24 10.7169Z" fill="white"/>
<path d="M22.9002 10.9151C22.9002 11.0142 22.8002 11.1134 22.7002 11.1134C22.8002 11.1134 22.9002 11.0142 23.0002 11.0142C23.0002 10.9151 23.0002 10.8159 22.9002 10.9151Z" fill="white"/>
<path d="M23.0996 11.016C23.1996 11.016 23.1996 10.916 23.1996 10.916C23.1996 10.916 23.0996 10.916 23.0996 11.016Z" fill="white"/>
<path d="M22.2998 11.1138C22.3998 11.1138 22.3998 11.1138 22.4998 11.1138C22.3998 11.1138 22.2998 11.0138 22.2998 11.1138Z" fill="white"/>
<path d="M22.1002 12.7997C22.0002 12.6014 22.1002 12.4031 22.4002 12.5022C22.5002 12.3039 22.1002 11.9073 21.8002 11.709C21.8002 11.8081 21.9002 11.8081 21.7002 12.0064C21.8002 12.0064 22.2002 12.0064 22.1002 12.2048C21.9002 12.4031 21.9002 12.3039 21.7002 12.2048C21.9002 12.3039 21.6002 12.6014 21.8002 12.8988L21.9002 12.7005C22.1002 12.7005 22.1002 12.7997 22.1002 12.7997Z" fill="white"/>
<path d="M22.2002 11.5103C22.2002 11.5103 22.1002 11.4111 21.9002 11.4111C21.8002 11.5103 21.8002 11.6094 21.9002 11.7086L22.2002 11.5103Z" fill="white"/>
<path d="M22.5002 11.2124C22.5002 11.4107 22.4002 11.6091 22.6002 11.7082C22.8002 11.6091 22.7002 11.5099 22.8002 11.3116C22.5002 11.6091 22.9002 11.2124 22.5002 11.2124C22.6002 11.2124 22.6002 11.1133 22.7002 11.1133C22.6002 11.1133 22.6002 11.1133 22.5002 11.1133V11.2124V11.1133V11.2124C22.5002 11.1133 22.6002 11.1133 22.5002 11.2124C22.4002 11.2124 22.5002 11.2124 22.5002 11.2124L22.2002 11.4107C22.3002 11.4107 22.4002 11.3116 22.5002 11.2124Z" fill="white"/>
<path d="M24.5002 11.1134C24.5002 11.1134 24.5002 11.0143 24.6002 11.0143C24.7002 11.0143 24.6002 11.1134 24.7002 11.1134C24.7002 11.0143 24.8002 10.9151 24.6002 10.9151C24.4002 10.9151 24.2002 10.816 24.2002 10.7168C24.2002 10.9151 24.3002 11.0143 24.5002 11.1134Z" fill="white"/>
<path d="M23.4998 11.2129L23.2998 11.4112L23.4998 11.5104L23.3998 11.4112C23.5998 11.4112 23.4998 11.312 23.4998 11.2129Z" fill="white"/>
<path d="M21.6996 11.5108V11.3125L21.5996 11.7091L21.6996 11.5108Z" fill="white"/>
<path d="M21.3998 11.8077L21.2998 11.6094V11.8077H21.3998Z" fill="white"/>
<path d="M14.2998 16.468C14.2998 16.2696 14.3998 16.0713 14.2998 16.2696V16.468C14.2998 16.3688 14.2998 16.468 14.2998 16.468Z" fill="white"/>
<path d="M10.7002 11.709C10.7002 11.809 10.8002 11.809 10.8002 11.809C10.8002 11.809 10.8002 11.809 10.7002 11.709Z" fill="white"/>
<path d="M10 11.6094L10.1 11.4111C10 11.5103 10 11.6094 10 11.6094Z" fill="white"/>
<path d="M14.7002 2.68561V2.4873C14.5002 2.58646 14.7002 2.58646 14.7002 2.68561Z" fill="white"/>
<path d="M17.8996 14.1875C17.7996 14.1875 17.6996 14.1875 17.5996 14.2875C17.7996 14.2875 17.8996 14.2875 17.8996 14.1875Z" fill="white"/>
<path d="M13.3002 6.85098C13.3002 6.75098 13.3002 6.75098 13.2002 6.75098C13.2002 6.85098 13.2002 6.85098 13.3002 6.85098Z" fill="white"/>
<path d="M17.2998 14.4854C17.3998 14.3863 17.4998 14.3863 17.5998 14.2871C17.3998 14.2871 17.2998 14.2871 17.2998 14.4854Z" fill="white"/>
<path d="M28.1004 8.63613V8.53613C28.0004 8.53613 28.0004 8.63613 28.1004 8.63613Z" fill="white"/>
<path d="M19.9004 12.6011C20.0004 12.5011 19.9004 12.6011 19.9004 12.6011V12.6011Z" fill="white"/>
<path d="M19.7998 12.7016C19.7998 12.7016 19.8998 12.7016 19.8998 12.6016C19.8998 12.6016 19.8998 12.6016 19.7998 12.7016C19.8998 12.6016 19.8998 12.6016 19.7998 12.7016Z" fill="white"/>
<path d="M11.2998 16.2696C11.5998 16.2696 11.5998 16.3688 11.5998 16.4679L11.9998 16.0713C11.6998 16.0713 11.4998 16.1704 11.2998 16.2696Z" fill="white"/>
<path d="M12.9998 4.17256L12.6998 4.27171C12.6998 3.87509 12.8998 3.77594 12.5998 3.77594C12.9998 4.17256 11.9998 4.47002 12.3998 4.86663H12.1998V4.76748C11.7998 4.86663 12.3998 5.26325 12.0998 5.46156C11.9998 5.56071 11.8998 5.56071 11.8998 5.46156C11.8998 5.56071 11.7998 5.65987 11.7998 5.75902C11.6998 5.85817 11.6998 5.75902 11.6998 5.65987L11.4998 6.05648C11.4998 6.15564 11.5998 6.35394 11.5998 6.4531C11.4998 6.55225 11.5998 6.35394 11.4998 6.35394C11.4998 6.4531 11.4998 6.55225 11.4998 6.6514C11.2998 6.6514 11.2998 6.35394 11.3998 6.25479C10.7998 6.15564 11.3998 6.55225 10.8998 6.75056L10.9998 6.4531C10.5998 6.4531 10.5998 6.65141 10.2998 6.84971C10.3998 6.84971 10.9998 6.55225 10.9998 6.94887C10.8998 6.94887 10.7998 7.04802 10.8998 7.24633C10.6998 7.14717 10.6998 7.34548 10.5998 7.44464L10.3998 7.34548C10.3998 7.54379 10.4998 7.64294 10.5998 7.7421C10.4998 7.94041 10.2998 7.94041 10.0998 7.94041C9.7998 8.33702 10.3998 7.94041 10.2998 8.33702C10.0998 8.63448 10.0998 8.83279 10.1998 9.22941C10.0998 9.42772 9.9998 9.13025 9.9998 9.22941L10.1998 9.42772H10.0998C10.1998 9.62602 10.3998 9.52687 10.3998 9.72518C10.6998 9.82433 9.8998 10.1218 10.1998 10.5184C9.9998 10.6176 9.9998 10.4193 9.7998 10.4193C9.9998 10.915 9.9998 10.8159 10.2998 11.2125L10.0998 11.5099C10.2998 11.3116 10.5998 11.6091 10.7998 11.8074C10.8998 11.7083 10.9998 11.7083 10.9998 11.6091C10.9998 11.7083 11.0998 11.8074 11.1998 11.9066C11.1998 11.9066 11.0998 11.9066 10.8998 11.9066C10.8998 11.9066 10.8998 11.9066 10.9998 12.0057C10.8998 12.1049 10.6998 12.1049 10.5998 12.0057C10.6998 12.0057 10.6998 11.9066 10.7998 11.9066C10.5998 11.8074 10.3998 11.7083 10.2998 11.8074L10.3998 11.9066H10.2998C10.2998 11.9066 10.2998 12.0057 10.3998 12.0057L9.8998 11.9066H9.9998L9.8998 12.4023C10.1998 12.6998 10.7998 12.8981 10.9998 13.3939C10.6998 13.2947 10.5998 13.493 10.3998 13.493C10.5998 13.2947 10.1998 13.0964 10.1998 12.799C10.1998 12.9973 10.0998 12.8981 9.9998 12.8981L10.3998 13.3939C10.1998 13.3939 10.2998 13.493 10.1998 13.6913C10.5998 13.493 10.5998 13.9888 10.7998 14.088C10.6998 14.1871 10.4998 14.1871 10.4998 13.8896C10.2998 14.2863 11.0998 14.088 10.8998 14.3854C10.8998 14.2863 10.8998 14.2863 10.7998 14.2863C10.9998 14.3854 10.9998 14.6829 10.8998 14.6829V14.5837C10.9998 14.9803 11.4998 15.6744 11.7998 15.5753C11.7998 15.5753 11.3998 15.7736 11.2998 15.7736C11.7998 15.7736 12.2998 15.6744 12.6998 15.6744C12.3998 15.7736 11.9998 16.4676 11.5998 16.2693C11.5998 16.3685 11.6998 16.4676 11.8998 16.5668C11.8998 16.4676 12.0998 16.1702 12.1998 16.1702C12.0998 16.5668 12.1998 16.4676 12.1998 16.8643C12.1998 16.7651 12.5998 16.4676 12.6998 16.5668C12.5998 16.5668 12.3998 16.9634 12.2998 16.8643C12.4998 16.8643 12.6998 16.8643 12.8998 16.7651C12.7998 16.7651 12.5998 17.0626 12.5998 17.1617C12.5998 17.0626 12.7998 17.36 12.9998 17.4592C12.9998 17.36 12.9998 17.36 12.8998 17.2609C12.9998 17.4592 13.2998 17.4592 13.4998 17.36C13.6998 17.2609 13.8998 17.1617 13.9998 17.36C13.8998 17.4592 13.6998 17.8558 13.8998 18.0541C14.0998 17.8558 14.5998 17.1617 14.6998 16.7651L14.7998 16.8643C14.7998 16.7651 14.8998 16.666 14.8998 16.5668C14.8998 16.7651 14.8998 17.1617 14.7998 17.6575C14.6998 18.0541 14.3998 18.1533 14.1998 18.1533C14.3998 18.3516 14.1998 18.3516 14.4998 18.5499C14.5998 18.7482 14.2998 18.649 14.1998 18.649L14.5998 18.9465C14.6998 18.9465 14.6998 19.1448 14.7998 19.0457L14.9998 18.9465C14.8998 18.649 15.4998 18.2524 15.3998 17.955C15.1998 18.2524 14.9998 18.5499 14.7998 18.7482C14.7998 18.649 14.7998 18.649 14.7998 18.4507C14.7998 18.3516 14.8998 18.1533 14.8998 18.0541C14.9998 17.7566 15.0998 17.4592 15.2998 17.36C15.3998 17.36 15.3998 17.955 15.4998 18.0541C15.4998 17.955 15.7998 17.5583 15.8998 17.5583L15.7998 17.8558C16.0998 17.7566 15.9998 17.1617 16.3998 17.2609C16.4998 17.2609 16.7998 17.36 16.6998 17.2609C16.3998 17.0626 15.6998 16.2693 15.5998 16.071C15.5998 16.071 16.1998 16.071 16.2998 16.071C16.5998 16.1702 16.4998 16.666 16.7998 16.7651C16.7998 16.666 16.7998 16.5668 16.7998 16.5668C16.8998 16.5668 16.8998 16.7651 17.0998 16.666C16.8998 16.3685 17.3998 16.4676 16.9998 16.3685C17.0998 16.1702 17.1998 16.2693 17.3998 16.1702C17.1998 16.071 17.1998 15.5753 17.2998 15.377C17.2998 15.4761 17.3998 15.4761 17.4998 15.4761C17.7998 15.2778 18.0998 15.2778 18.3998 14.9803C18.4998 14.9803 18.6998 14.9803 18.6998 15.0795C18.6998 14.9803 18.6998 14.8812 18.7998 14.782C19.0998 14.8812 18.5998 14.9803 18.8998 15.0795C18.7998 14.9803 18.9998 14.6829 19.0998 14.4846C18.8998 14.2863 18.7998 14.6829 18.6998 14.8812C18.4998 14.5837 18.4998 14.088 18.6998 13.7905C18.8998 13.493 18.8998 13.8896 18.9998 13.7905C19.4998 13.493 18.9998 12.9973 19.5998 12.8981C19.8998 12.9973 19.8998 13.2947 19.9998 13.3939C19.7998 13.5922 19.5998 13.493 19.4998 13.5922H19.6998C19.6998 13.6913 19.5998 13.8896 19.4998 13.8896C19.6998 13.9888 20.2998 13.3939 20.7998 13.2947C20.7998 13.1956 20.8998 12.9973 20.7998 12.9973L20.6998 13.0964C20.4998 12.9973 20.7998 12.6998 20.5998 12.799C20.6998 12.6006 20.7998 12.3032 21.0998 12.204L21.2998 12.4023C21.2998 12.3032 21.0998 12.4023 20.9998 12.5015C20.9998 12.3032 21.4998 12.6006 21.4998 12.204L21.1998 12.1049C21.2998 11.9066 21.3998 11.5099 21.5998 11.5099C21.3998 11.3116 21.5998 11.6091 21.2998 11.4108C21.5998 11.6091 20.7998 11.7083 21.1998 11.9066C20.8998 11.7083 20.8998 11.9066 20.4998 11.8074C20.5998 11.9066 20.6998 11.9066 20.4998 12.0057V12.1049C20.5998 12.1049 20.5998 12.1049 20.6998 12.204C20.6998 12.4023 20.3998 12.6006 20.3998 12.6998C20.2998 12.6998 20.3998 12.6006 20.2998 12.5015L20.1998 12.6998C20.0998 12.5015 19.7998 12.6006 19.8998 12.4023L19.6998 12.5015C19.4998 12.5015 19.2998 12.6006 19.2998 12.6998C19.1998 12.6998 19.1998 13.0964 19.1998 12.8981L18.8998 13.1956C18.5998 13.3939 18.3998 13.8896 17.7998 13.8896C17.6998 13.9888 17.5998 14.1871 17.3998 14.1871L17.2998 14.088C17.1998 14.2863 16.7998 14.2863 16.7998 14.4846C16.3998 14.2863 16.0998 14.8812 15.7998 15.0795L15.8998 15.2778C15.6998 15.377 15.5998 15.5753 15.4998 15.7736L15.5998 15.8727C15.4998 16.1702 15.2998 15.9719 15.0998 16.071C15.0998 15.9719 15.0998 15.9719 15.1998 15.9719C15.0998 15.7736 15.0998 15.8727 14.9998 16.071C14.8998 16.1702 14.7998 16.2693 14.7998 16.071C14.7998 16.1702 14.6998 16.071 14.6998 15.9719V15.8727C14.6998 15.9719 14.6998 15.9719 14.6998 15.9719H14.5998L14.6998 15.7736C14.6998 15.6744 14.5998 15.8727 14.5998 15.9719C14.5998 15.9719 14.4998 15.9719 14.4998 16.071C14.6998 15.7736 14.1998 15.9719 14.3998 15.6744C14.1998 15.7736 13.9998 15.4761 13.6998 15.6744C13.6998 15.6744 13.6998 15.5753 13.7998 15.6744C13.7998 15.5753 13.6998 15.4761 13.5998 15.4761L13.7998 15.2778H13.3998C13.3998 15.0795 13.4998 14.9803 13.6998 14.9803C13.1998 14.8812 13.3998 14.8812 12.9998 14.782L13.1998 14.6829C13.0998 14.5837 12.8998 14.5837 12.8998 14.4846C13.0998 14.088 12.3998 13.3939 12.4998 12.6998C11.9998 12.8981 12.5998 12.4023 12.2998 12.4023C12.3998 12.3032 12.4998 12.204 12.5998 12.3032C12.3998 12.0057 12.6998 11.8074 12.2998 11.7083C12.3998 11.7083 12.4998 11.7083 12.4998 11.7083C12.4998 11.7083 12.3998 11.6091 12.4998 11.6091C12.5998 11.6091 12.5998 11.6091 12.6998 11.7083C12.6998 11.4108 12.2998 11.4108 11.8998 11.4108C11.9998 11.2125 11.9998 11.2125 11.7998 11.0142C11.8998 10.915 11.9998 10.8159 12.0998 11.0142C12.0998 10.915 12.2998 10.3201 11.9998 10.3201C12.0998 10.3201 11.9998 10.1218 11.9998 10.1218C11.9998 9.82433 12.0998 9.82433 12.0998 9.62602L11.9998 9.72518C11.6998 9.52687 11.9998 9.52687 11.9998 9.32856C12.2998 8.93195 11.8998 9.13025 12.2998 8.73364H12.0998C11.6998 8.53533 12.4998 8.43618 12.3998 8.13871L12.2998 8.23787C12.1998 8.03956 12.9998 8.03956 13.0998 7.94041V8.03956C13.4998 7.84125 12.8998 7.84125 12.8998 7.64294C13.0998 7.64294 13.1998 7.84125 13.2998 7.7421C13.3998 7.7421 13.0998 7.04802 13.4998 6.94887C13.3998 6.94887 13.1998 6.94887 13.1998 6.75056C13.2998 6.55225 13.8998 6.55225 13.6998 6.15563H13.7998C13.7998 5.95733 13.9998 5.65987 13.8998 5.46156C14.4998 5.85817 14.2998 4.56917 14.7998 4.96579C14.8998 4.86663 14.9998 4.76748 15.0998 4.66833V4.76748C15.3998 4.56917 15.2998 4.47002 15.2998 4.27171C15.3998 4.27171 15.3998 4.37086 15.3998 4.37086C15.7998 4.27171 15.7998 4.17256 15.9998 3.67679L16.0998 3.87509C16.0998 3.67679 16.7998 3.87509 17.0998 3.47848V3.57763C17.2998 3.37932 17.5998 3.37932 17.7998 3.37932C18.0998 3.37932 18.2998 3.28017 18.1998 2.88355C18.2998 2.7844 18.3998 2.68525 18.3998 2.58609C17.9998 2.68525 18.3998 2.28863 18.1998 2.18948C18.3998 2.09032 18.6998 2.28863 18.4998 2.38778C18.4998 2.7844 19.0998 2.38778 19.0998 2.68525C19.8998 2.48694 20.6998 2.58609 21.3998 2.68525L21.2998 2.38778H21.5998C21.1998 2.88355 21.1998 3.08186 20.9998 2.98271C21.0998 3.18102 21.2998 2.88355 21.2998 2.7844C21.6998 2.98271 21.0998 3.18102 21.1998 3.18102H21.2998C21.5998 2.98271 21.5998 2.88355 21.7998 2.98271C21.8998 3.08186 21.7998 3.18102 21.8998 3.18102C21.8998 3.18102 21.8998 3.18102 21.9998 3.18102C22.0998 3.18102 22.1998 3.28017 22.2998 3.28017L22.1998 2.98271C22.3998 2.88355 22.4998 3.08186 22.3998 2.7844C22.4998 3.28017 23.5998 3.28017 23.6998 3.47848C23.9998 3.37932 24.1998 3.47848 24.3998 3.57763C24.3998 3.47848 24.4998 3.18102 24.5998 3.37932C24.2998 3.87509 24.7998 3.77594 24.7998 4.27171C24.7998 3.97425 25.2998 4.56917 25.3998 4.0734C25.4998 4.17256 25.2998 4.27171 25.2998 4.47002C25.4998 4.47002 25.6998 4.66833 25.8998 4.86663C25.9998 4.96579 26.0998 5.1641 26.2998 5.3624C26.3998 5.3624 26.3998 5.1641 26.4998 5.1641L26.3998 5.65987C26.4998 5.75902 26.7998 5.46156 26.6998 5.75902C26.6998 5.65987 26.7998 5.56071 26.7998 5.65987C26.9998 6.15563 27.2998 6.55225 27.5998 7.04802C27.8998 7.54379 27.9998 8.03956 27.7998 8.63448C27.9998 8.33702 27.9998 8.43618 27.9998 8.53533C27.9998 8.43618 28.1998 8.53533 28.2998 8.43618C28.1998 8.63448 28.1998 8.73364 28.0998 8.93195C28.3998 8.93195 28.1998 9.42772 28.3998 9.42772L28.2998 9.32856C28.6998 9.42772 29.0998 8.93195 29.4998 8.93195C29.0998 8.73364 29.8998 8.23787 29.2998 7.94041C29.3998 7.84125 29.3998 7.94041 29.4998 7.94041C29.2998 7.84125 29.1998 7.7421 29.1998 7.54379C28.9998 6.94887 28.9998 6.6514 28.7998 5.95733C28.6998 5.85817 28.7998 5.75902 28.7998 5.65987C28.3998 5.65987 28.9998 6.05648 28.5998 6.05648C28.8998 5.65987 28.0998 5.1641 28.2998 4.76748C28.1998 4.56917 28.1998 4.96579 27.9998 4.76748L28.0998 4.66833L27.8998 4.76748C27.7998 4.66833 27.8998 4.47002 27.9998 4.37086L28.0998 4.47002C28.0998 4.17256 27.6998 4.0734 27.5998 3.97425L27.6998 4.17256C27.2998 3.77594 26.6998 3.08186 25.9998 2.98271V3.08186C25.4998 2.98271 25.6998 2.7844 25.1998 2.58609C25.0998 2.58609 24.8998 2.58609 24.7998 2.48694C24.9998 2.48694 24.6998 2.18948 24.8998 2.18948C24.2998 2.18948 24.5998 2.18948 24.0998 2.38778V2.18948C23.9998 2.28863 23.9998 2.38778 23.6998 2.28863C23.9998 2.28863 23.6998 2.09032 23.8998 1.99117C23.4998 1.4954 22.9998 2.09032 22.8998 1.59455C22.5998 1.99117 23.2998 1.89202 23.0998 1.99117C23.1998 2.18948 22.7998 2.28863 22.6998 2.18948C22.4998 2.18948 22.4998 1.59455 22.0998 1.4954H22.1998C21.9998 1.39625 21.8998 1.59455 21.6998 1.39625C21.5998 1.69371 21.3998 1.39625 21.3998 1.69371H21.7998C21.4998 1.59455 21.2998 1.99117 20.9998 1.79286C20.9998 1.69371 21.0998 1.59455 21.1998 1.59455C21.0998 1.4954 20.9998 1.69371 20.8998 1.59455C20.8998 1.29709 21.3998 1.4954 21.6998 1.29709C21.5998 1.09878 21.1998 1.4954 21.3998 1.09878C21.1998 1.59455 20.9998 0.999629 20.5998 1.39625V1.19794C20.5998 1.19794 20.4998 1.29709 20.3998 1.29709L20.5998 0.999629C20.3998 1.19794 20.0998 0.801321 19.8998 0.999629C20.3998 0.999629 19.9998 1.19794 20.2998 1.39625C19.6998 1.69371 19.8998 0.900475 19.1998 1.09878C19.2998 1.09878 19.5998 1.19794 19.3998 1.29709C19.2998 1.29709 19.0998 1.19794 18.9998 1.09878C18.4998 1.19794 19.0998 1.29709 18.8998 1.4954C18.6998 1.29709 18.6998 1.59455 18.4998 1.79286V1.59455C17.9998 1.59455 18.4998 2.09032 17.9998 1.99117L18.0998 1.69371L17.8998 1.79286V1.59455C17.6998 1.79286 17.5998 1.79286 17.2998 1.79286C17.3998 1.89202 17.3998 2.18948 17.1998 2.28863C16.9998 2.18948 17.1998 2.09032 16.8998 2.18948C16.8998 2.09032 16.8998 1.89202 17.0998 1.99117C17.0998 1.89202 17.0998 1.89202 17.0998 1.79286C16.8998 1.69371 16.6998 1.89202 16.5998 1.99117H16.6998C16.5998 2.09032 16.4998 2.28863 16.3998 2.48694C16.2998 2.48694 16.2998 2.38778 16.3998 2.28863C16.2998 2.38778 16.2998 2.48694 16.1998 2.58609C16.1998 2.38778 16.0998 2.28863 16.1998 2.09032L15.8998 2.48694C15.7998 2.38778 15.5998 2.38778 15.5998 2.28863C15.2998 2.28863 15.1998 2.88355 14.8998 2.98271C14.8998 2.98271 14.8998 3.08186 14.7998 3.08186C14.3998 2.98271 13.9998 2.98271 13.8998 3.37932C13.7998 3.37932 13.6998 3.28017 13.4998 3.28017C13.2998 3.47848 13.9998 3.37932 13.6998 3.77594C13.4998 4.0734 13.3998 3.67679 13.2998 3.67679C13.2998 3.87509 13.2998 4.27171 12.8998 4.37086C12.7998 4.27171 12.8998 4.27171 12.9998 4.17256ZM10.8998 7.04802C10.8998 6.94887 10.7998 6.75056 10.9998 6.75056C11.1998 6.94887 11.0998 6.94887 10.8998 7.04802ZM10.3998 12.204C10.2998 12.204 10.3998 12.1049 10.3998 12.0057C10.3998 12.1049 10.3998 12.1049 10.3998 12.204ZM19.1998 13.2947C18.9998 13.2947 19.0998 13.2947 19.1998 13.2947V13.2947ZM19.4998 13.1956C19.4998 13.0964 19.4998 13.0964 19.4998 13.1956H19.3998C19.3998 13.2947 19.4998 13.2947 19.4998 13.1956ZM21.8998 3.08186C21.9998 2.98271 21.9998 2.98271 21.8998 3.08186V3.08186Z" fill="#81D7F1"/>
<path d="M10 11.7098H10.1C10.1 11.6098 10.1 11.6098 10 11.7098Z" fill="white"/>
<path d="M20.6 12.0059L20.5 12.1059C20.6 12.0059 20.6 12.1059 20.7 12.1059C20.7 12.1059 20.6 12.1059 20.6 12.0059Z" fill="white"/>
<path d="M22.7 12.3041C22.7 12.3041 22.8 12.3041 22.7 12.3041V12.2041C22.6 12.2041 22.6 12.3041 22.7 12.3041Z" fill="white"/>
<path d="M21.0996 12.5024C21.1996 12.6015 21.2996 12.5024 21.3996 12.4032C21.2996 12.2049 21.1996 12.4032 21.0996 12.5024Z" fill="white"/>
<path d="M21.4004 12.4037L21.5004 12.3037C21.5004 12.3037 21.5004 12.4037 21.4004 12.4037Z" fill="white"/>
<path d="M19.7002 12.8986C19.8002 12.8986 19.6002 12.7003 19.7002 12.7003C19.7002 12.502 19.5002 13.1961 19.7002 12.8986Z" fill="white"/>
<path d="M21.5004 12.9981L21.4004 12.7998V12.9981H21.5004Z" fill="white"/>
<path d="M20.5995 13.3946L20.7995 13.2954V13.1963C20.6995 13.2954 20.4995 13.2954 20.5995 13.3946Z" fill="white"/>
<path d="M20.7998 13.1967C20.8998 13.1967 20.8998 13.0967 20.8998 13.0967C20.8998 13.0967 20.7998 13.1967 20.7998 13.1967Z" fill="white"/>
<path d="M18.6996 14.584L18.5996 14.7823C18.5996 14.8814 18.6996 14.8814 18.7996 14.7823C18.6996 14.6831 18.7996 14.584 18.6996 14.584Z" fill="white"/>
<path d="M19.6004 14.6831C19.5004 14.6831 19.5004 14.6831 19.4004 14.584L19.5004 14.7823L19.6004 14.6831Z" fill="white"/>
<path d="M19.1002 15.0801C19.1002 15.1792 19.0002 15.4767 19.2002 15.2784C19.2002 15.1792 19.3002 15.0801 19.1002 15.0801Z" fill="white"/>
<path d="M16.2004 16.8644L15.9004 16.4678L16.2004 16.8644Z" fill="white"/>
<path d="M13.0996 18.3524C13.3996 18.749 13.2996 18.1541 13.5996 18.5507C13.6996 18.5507 13.3996 18.2532 13.4996 18.2532C13.2996 18.2532 13.1996 18.0549 13.0996 18.3524Z" fill="white"/>
<path d="M27.8998 9.22949L27.7998 9.4278L27.9998 9.32865L27.8998 9.22949Z" fill="white"/>
<path d="M28.3 9.52734H28L28.3 9.62734C28.2 9.62734 28.2 9.52734 28.3 9.52734Z" fill="white"/>
<path d="M10.2002 7.24746C10.3002 7.24746 10.4002 7.24746 10.4002 7.14746L10.2002 7.24746Z" fill="white"/>
<path d="M11.7998 5.16406L11.9998 5.26406L11.7998 5.16406Z" fill="white"/>
<path d="M13.1004 3.28027C13.0004 3.37943 13.0004 3.47858 12.9004 3.47858C13.1004 3.37943 13.4004 3.47858 13.1004 3.28027Z" fill="white"/>
<path d="M49.5 9.62623C49.5 8.53554 49.8 7.44484 50.3 6.35415C52.4 2.28884 57.8 0.900684 62.4 3.28038C67 5.66007 69 10.8161 66.8 14.8814C66.1 16.1704 65 17.2611 63.8 17.9552C59.6 14.4848 54.8 11.1135 49.5 9.62623Z" fill="#81D7F1"/>
<path d="M49.1996 10.6182C49.0996 10.6182 49.0996 10.7173 49.0996 10.8165C49.2996 10.8165 49.1996 10.6182 49.1996 10.6182Z" fill="white"/>
<path d="M50.5 10.6182V10.7182L50.7 10.6182H50.5Z" fill="white"/>
<path d="M51.5994 11.0148C51.5994 10.7173 51.1994 10.9156 50.9994 10.7173V10.6182L50.8994 10.9156C51.0994 10.9156 51.4994 10.9156 51.5994 11.0148Z" fill="white"/>
<path d="M51.8998 11.9076C51.8998 11.8076 52.0998 11.9076 51.7998 11.8076C51.8998 11.8076 51.8998 11.8076 51.8998 11.9076Z" fill="white"/>
<path d="M51.7994 11.8076C51.6994 11.8076 51.8994 11.9076 51.7994 11.8076V11.8076Z" fill="white"/>
<path d="M52.4002 12.0059H52.2002C52.2002 12.105 52.3002 12.105 52.3002 12.2042C52.4002 12.2042 52.4002 12.105 52.4002 12.0059Z" fill="white"/>
<path d="M52.5994 11.8076C52.4994 11.9076 52.4994 11.9076 52.5994 11.8076V11.8076Z" fill="white"/>
<path d="M52.2998 11.8084H52.4998C52.4998 11.7084 52.4998 11.7084 52.3998 11.8084C52.4998 11.7084 52.3998 11.8084 52.2998 11.8084Z" fill="white"/>
<path d="M52.2001 11.8074C52.1001 11.7082 52.1001 11.6091 52.2001 11.6091C52.0001 11.5099 51.9001 11.7082 52.2001 11.8074Z" fill="white"/>
<path d="M51.7996 10.7173L51.6996 10.6182L51.5996 10.7173C51.5996 10.6182 51.7996 10.8165 51.7996 10.7173Z" fill="white"/>
<path d="M53.2002 12.5016C53.2002 12.4024 53.2002 12.3033 53.3002 12.2041H53.2002C53.2002 12.3033 53.2002 12.4024 53.2002 12.5016Z" fill="white"/>
<path d="M53.2998 12.3045H53.4998C53.2998 12.2045 53.2998 12.2045 53.2998 12.3045Z" fill="white"/>
<path d="M52.7994 11.5098L52.3994 11.6098L52.7994 11.5098Z" fill="white"/>
<path d="M53.7996 12.7988L53.5996 12.8988L53.8996 12.7988H53.7996Z" fill="white"/>
<path d="M54.1996 12.998C54.0996 13.0972 54.1996 13.1964 54.0996 13.2955C54.1996 13.2955 54.3996 13.2955 54.4996 13.1964C54.3996 13.1964 54.2996 13.1964 54.1996 12.998Z" fill="white"/>
<path d="M54.7 13.1963C54.6 13.1963 54.6 13.1963 54.5 13.2963C54.5 13.1963 54.6 13.1963 54.7 13.1963Z" fill="white"/>
<path d="M53.7998 12.4023C53.8998 12.4023 53.8998 12.5023 53.8998 12.5023C53.8998 12.5023 53.8998 12.5023 53.7998 12.4023Z" fill="white"/>
<path d="M53.0996 11.9068C53.1996 11.9068 53.4996 11.8077 53.3996 11.6094C53.2996 11.7085 53.2996 11.8077 53.0996 11.9068Z" fill="white"/>
<path d="M53.6994 12.1059L53.4994 12.0059C53.4994 12.0059 53.4994 12.1059 53.3994 12.1059H53.6994Z" fill="white"/>
<path d="M53.8002 12.1055H53.7002L53.8002 12.2055V12.1055Z" fill="white"/>
<path d="M54.4995 12.8985C54.5995 12.8985 54.6995 12.8985 54.7995 12.8985C54.6995 12.7993 54.5995 12.7002 54.4995 12.7002C54.4995 12.7002 54.3995 12.7993 54.4995 12.8985Z" fill="white"/>
<path d="M54.4998 12.701C54.3998 12.601 54.3998 12.601 54.2998 12.701C54.3998 12.601 54.3998 12.701 54.4998 12.701Z" fill="white"/>
<path d="M54.9994 13.1964C54.9994 13.0972 54.9994 13.0972 54.8994 12.998C54.8994 13.0972 54.8994 13.2955 54.9994 13.1964Z" fill="white"/>
<path d="M54.2002 12.7006C54.2002 12.7006 54.3002 12.7006 54.3002 12.6006C54.3002 12.6006 54.2002 12.6006 54.2002 12.7006C54.2002 12.6006 54.2002 12.7006 54.2002 12.7006Z" fill="white"/>
<path d="M56.5002 12.5015C56.4002 12.6007 56.1002 12.6998 56.1002 12.4023C55.9002 12.4023 55.7002 12.9973 55.7002 13.2947C55.7002 13.1956 55.8002 13.1956 56.0002 13.1956C56.0002 13.0964 55.7002 12.799 56.0002 12.6998C56.3002 12.6998 56.1002 12.8981 56.2002 12.9973C56.2002 12.799 56.6002 12.8981 56.7002 12.6007H56.5002C56.4002 12.6007 56.5002 12.6007 56.5002 12.5015Z" fill="white"/>
<path d="M55.2998 13.1963C55.2998 13.1963 55.2998 13.2954 55.2998 13.4938C55.4998 13.4938 55.4998 13.3946 55.4998 13.3946L55.2998 13.1963Z" fill="white"/>
<path d="M54.9002 12.9971C55.0002 12.8979 55.2002 12.8979 55.2002 12.6996C55.0002 12.6005 55.0002 12.7988 54.8002 12.7988C55.3002 12.7988 54.8002 12.6996 54.9002 12.9971C54.8002 12.9971 54.8002 12.8979 54.7002 12.8979C54.8002 12.8979 54.8002 12.9971 54.9002 12.9971C55.0002 13.0963 54.9002 12.9971 54.9002 12.9971L55.2002 13.1954C55.2002 13.0963 55.1002 12.9971 54.9002 12.9971Z" fill="white"/>
<path d="M53.8 11.5103C53.8 11.5103 53.7 11.6094 53.6 11.5103C53.6 11.4111 53.6 11.4111 53.7 11.4111C53.6 11.4111 53.5 11.4111 53.6 11.6094C53.7 11.7086 53.8 12.0061 53.7 12.0061C53.8 11.8077 53.8 11.7086 53.8 11.5103Z" fill="white"/>
<path d="M54.3994 12.2043L54.6994 12.3035L54.5994 12.1052V12.2043C54.4994 12.006 54.4994 12.1052 54.3994 12.2043Z" fill="white"/>
<path d="M55.6 13.4932L55.5 13.5932L55.8 13.4932H55.6Z" fill="white"/>
<path d="M55.9994 13.6914L55.8994 13.7914H55.9994V13.6914Z" fill="white"/>
<path d="M65 18.4512C65.2 18.4512 65.6 18.5504 65.5 18.3521L65.3 18.2529C65.2 18.4512 65.1 18.4512 65 18.4512Z" fill="white"/>
<path d="M67.5996 11.709C67.5996 11.809 67.6996 11.809 67.6996 11.809C67.6996 11.809 67.6996 11.809 67.5996 11.709Z" fill="white"/>
<path d="M66.8994 11.6094L66.9994 11.4111C66.8994 11.5103 66.8994 11.5103 66.8994 11.6094Z" fill="white"/>
<path d="M62.4998 4.76758L62.2998 4.86673C62.3998 4.96589 62.3998 4.76758 62.4998 4.76758Z" fill="white"/>
<path d="M59.3994 15.7744C59.3994 15.8736 59.4994 15.9727 59.5994 16.0719C59.4994 15.8736 59.4994 15.6753 59.3994 15.7744Z" fill="white"/>
<path d="M59.8 16.2696C59.7 16.1704 59.6 16.1704 59.5 16.0713C59.6 16.1704 59.6 16.2696 59.8 16.2696Z" fill="white"/>
<path d="M57.2996 14.5845C57.1996 14.4845 57.1996 14.5845 57.2996 14.5845V14.5845Z" fill="white"/>
<path d="M57.2002 14.3857C57.2002 14.3857 57.2002 14.4857 57.3002 14.4857C57.3002 14.4857 57.2002 14.4857 57.2002 14.3857Z" fill="white"/>
<path d="M57.3998 14.5854L57.2998 14.4854C57.2998 14.5854 57.2998 14.5854 57.3998 14.5854Z" fill="white"/>
<path d="M57.3003 2.78594C57.3003 2.68594 57.3003 2.68594 57.3003 2.78594C57.2003 2.78594 57.3003 2.78594 57.3003 2.78594Z" fill="white"/>
<path d="M65.5 15.0801C65.6 15.2784 65.6 15.3775 65.5 15.3775L66 15.5758C65.8 15.4767 65.7 15.2784 65.5 15.0801Z" fill="white"/>
<path d="M64 5.66017V5.95763C63.7 5.95763 63.6 5.85848 63.6 6.15594C64 5.75932 64.1 6.65171 64.6 6.25509V6.4534C64.6 6.4534 64.6 6.4534 64.5 6.4534C64.4 6.85002 64.9 6.35425 65.1 6.65171C65.1 6.75086 65.1 6.85002 65 6.85002C65.1 6.85002 65.2 6.94917 65.3 6.94917C65.3 7.04833 65.2 7.04833 65.2 6.94917L65.5 7.24663C65.6 7.24663 65.8 7.24663 65.9 7.24663C65.9 7.34579 65.8 7.24663 65.8 7.34579C65.9 7.34579 66 7.44494 66 7.44494C65.9 7.64325 65.7 7.5441 65.6 7.34579C65.2 7.84156 65.8 7.44494 65.7 7.94071L65.5 7.84156C65.3 8.13902 65.4 8.13902 65.4 8.43648C65.5 8.33733 65.7 7.84156 65.9 7.94071C65.9 8.03987 65.9 8.13902 66.1 8.13902C65.9 8.23817 66 8.33733 66.1 8.43648L65.8 8.53564C65.9 8.63479 66.1 8.53563 66.2 8.63479C66.2 8.8331 66.1 8.93225 65.9 9.03141C65.9 9.32887 66.2 8.73394 66.3 9.03141C66.3 9.32887 66.4 9.42802 66.7 9.62633C66.6 9.82464 66.5 9.62633 66.5 9.72548L66.7 9.82464H66.6C66.7 9.92379 66.9 9.72548 67 9.92379C67.3 9.92379 66.6 10.4196 67 10.6179C66.9 10.717 66.8 10.6179 66.7 10.6179C67 10.9153 66.9 10.9153 67.2 11.1136L67 11.4111C67.2 11.2128 67.5 11.4111 67.7 11.7086C67.8 11.6094 67.9 11.6094 67.9 11.5103C68 11.6094 68 11.7086 68 11.9069C68 11.9069 67.9 11.9069 67.7 11.8077L67.8 11.9069C67.7 12.006 67.5 11.9069 67.4 11.8077C67.5 11.8077 67.5 11.7086 67.6 11.7086C67.4 11.6094 67.2 11.5103 67.1 11.5103L67.2 11.6094H67.1C67.1 11.6094 67.1 11.6094 67.2 11.7086L66.9 11.8077H67L66.8 12.2043C67.1 12.5018 67.5 12.8984 67.5 13.3942C67.3 13.1959 67.2 13.295 66.9 13.1959C67.2 13.0967 66.9 12.7993 67 12.6009C66.9 12.7001 66.8 12.7001 66.8 12.6009L67 13.0967C66.8 12.9976 66.8 13.0967 66.7 13.1959C67.1 13.1959 66.9 13.5925 67 13.7908C66.9 13.7908 66.7 13.6916 66.8 13.4933C66.4 13.5925 67.2 13.9891 66.8 14.0883C66.8 14.0883 66.9 13.9891 66.8 13.9891C66.9 14.1874 66.6 14.3857 66.6 14.2866C66.4 14.584 66.1 15.179 66.4 15.4764C66.4 15.4764 66.1 15.179 66 15.179C66.2 15.5756 66.4 15.9722 66.6 16.468C66.4 16.2696 65.7 15.9722 65.7 15.5756C65.6 15.5756 65.5 15.6747 65.5 15.873C65.6 15.873 65.9 16.0713 65.9 16.1705C65.5 16.0713 65.7 16.1705 65.3 16.1705C65.4 16.1705 65.7 16.5671 65.6 16.6663C65.6 16.5671 65.2 16.3688 65.2 16.2696C65.2 16.468 65.3 16.6663 65.3 16.8646C65.3 16.7654 65 16.5671 64.9 16.468C65 16.468 64.7 16.6663 64.7 16.7654C64.7 16.7654 64.8 16.7654 64.9 16.7654C64.7 16.8646 64.8 16.9637 64.9 17.162C64.9 17.3603 64.9 17.5586 64.8 17.6578C64.8 17.5586 64.6 16.9637 64.5 16.9637C64.5 17.0629 64.5 17.4595 64.5 17.8561C64.5 18.0544 64.4 18.2527 64.3 18.451C64.3 18.5502 64.2 18.6493 64.2 18.7485C64.2 18.8476 64.1 18.7485 64.1 18.7485L64 18.5502L63.7 18.451C63.8 18.3519 64.1 18.1536 64.2 17.9553C64.4 17.5586 64.4 17.162 64.5 16.9637C64.4 16.8646 64.5 16.7654 64.4 16.8646C64.4 16.7654 64.4 16.5671 64.4 16.5671C64.4 16.5671 64.3 16.5671 64.3 16.468C64.3 16.8646 64.1 16.6663 64.1 16.9637C64.2 16.9637 64.3 16.8646 64.4 16.7654C64.4 16.9637 64.4 17.162 64.3 17.3603C64.2 17.4595 64.1 17.5586 63.9 17.3603C63.9 17.162 64.1 16.8646 64.2 16.7654C64.2 16.8646 64 16.8646 64 16.7654L64.1 16.6663C64.1 16.468 63.8 16.8646 63.7 16.468C63.6 16.3688 63.7 15.9722 63.6 16.1705C63.5 16.5671 62.9 17.3603 62.6 17.4595C62.6 17.4595 62.4 16.9637 62.5 16.7654C62.5 16.468 63.1 16.3688 63.1 16.1705C63 16.2696 62.9 16.2696 62.9 16.2696C62.9 16.1705 63.1 16.0713 62.9 15.9722C62.7 16.1705 62.6 15.6747 62.7 16.0713C62.5 15.9722 62.6 15.873 62.4 15.7739C62.3 15.9722 61.8 16.1705 61.6 16.0713C61.7 15.9722 61.7 15.873 61.7 15.873C61.4 15.5756 61.3 15.3773 61 15.179C61 15.0798 60.9 14.8815 61.1 14.8815C61 14.8815 60.9 14.9806 60.8 14.8815C60.8 14.584 61 14.9806 61.1 14.6832C61 14.7823 60.7 14.6832 60.5 14.6832C60.4 14.8815 60.8 14.9806 61 14.9806C60.8 15.2781 60.3 15.3773 59.9 15.2781C59.6 15.179 59.9 14.9806 59.9 14.9806C59.5 14.584 59.1 15.179 58.9 14.7823C58.9 14.4849 59.2 14.3857 59.2 14.1874C59.5 14.2866 59.4 14.4849 59.6 14.584L59.5 14.3857C59.6 14.3857 59.8 14.3857 59.8 14.4849C59.8 14.1874 59 13.8899 58.7 13.4933C58.6 13.4933 58.4 13.4933 58.4 13.5925L58.5 13.6916C58.5 13.8899 58.1 13.7908 58.2 13.8899C58 13.8899 57.7 13.9891 57.5 13.6916L57.6 13.3942C57.6 13.4933 57.7 13.5925 57.8 13.5925C57.6 13.5925 57.6 13.0967 57.4 13.295L57.5 13.5925C57.3 13.5925 56.9 13.6916 56.8 13.4933C56.8 13.7908 56.9 13.4933 56.8 13.7908C56.9 13.3942 57.3 14.0883 57.3 13.6916C57.3 14.0883 57.5 13.9891 57.5 14.3857C57.5 14.2866 57.5 14.1874 57.7 14.3857H57.8C57.8 14.2866 57.8 14.2866 57.8 14.1874C58 14.0883 58.3 14.2866 58.4 14.1874C58.5 14.2866 58.3 14.2866 58.3 14.3857H58.5C58.4 14.584 58.6 14.7823 58.3 14.7823L58.5 14.8815C58.6 15.0798 58.7 15.179 58.8 15.179C58.9 15.2781 59.2 15.179 59 15.2781L59.4 15.3773C59.7 15.5756 60.2 15.5756 60.4 16.0713C60.5 16.0713 60.7 16.1705 60.8 16.2696L60.7 16.468C60.9 16.5671 61 16.8646 61.2 16.7654C61.1 17.2612 61.8 17.3603 62 17.5586L62.1 17.3603C62.2 17.4595 62.4 17.5586 62.7 17.6578L62.8 17.4595C62.9 17.4595 62.9 17.4595 63 17.5586C63.1 17.6578 63.1 17.757 63.2 17.8561C63.4 18.0544 63.5 18.2527 63.8 18.451C63.7 18.5502 63.6 18.3519 63.6 18.2527C63.8 18.6493 64.1 18.8476 64.4 18.9468H64.5L64.6 18.8476C64.7 18.7485 64.7 18.7485 64.8 18.6493C64.9 18.5502 65.1 18.451 65.2 18.451C65.3 18.2527 65.4 18.2527 65.5 18.2527C65.5 18.2527 65.5 18.2527 65.6 18.2527C65.7 18.2527 65.7 18.2527 65.8 18.2527C65.7 18.2527 65.7 18.2527 65.6 18.2527C65.7 18.1536 65.8 18.0544 65.9 17.9553L66.1 18.0544C66.3 18.0544 66.2 17.8561 66 17.8561C66 17.757 66.1 17.6578 66.1 17.6578C66.4 17.8561 66.3 17.3603 66.6 17.5586C66.5 17.3603 66.9 17.0629 66.7 16.7654C66.7 16.7654 66.8 16.7654 66.7 16.8646C66.8 16.7654 66.9 16.7654 66.9 16.5671L67.1 16.6663L67 16.2696C67.2 16.2696 67.4 16.2696 67.4 16.468C67.4 15.9722 67.5 16.1705 67.4 15.6747L67 15.873C67.1 15.7739 67 15.4764 67.1 15.4764C67.5 15.3773 67.8 14.2866 68.2 13.6916C67.7 13.6916 68.5 13.3942 68.1 13.295C68.2 13.295 68.3 13.1959 68.4 13.295C68.4 12.8984 68.7 12.7993 68.4 12.5018C68.5 12.5018 68.6 12.6009 68.6 12.6009C68.6 12.6009 68.5 12.5018 68.6 12.4026C68.7 12.4026 68.7 12.5018 68.7 12.5018C68.7 12.1052 68.4 12.006 68 12.006C68.2 11.8077 68.2 11.7086 67.9 11.6094C68 11.5103 68.1 11.4111 68.2 11.7086C68.2 11.6094 68.4 10.9153 68.1 10.9153C68.2 10.9153 68.1 10.717 68.1 10.717C68.1 10.4196 68.1 10.4196 68 10.1221V10.2213C67.8 10.0229 68 9.92379 67.9 9.72548C68 9.13056 67.8 9.52717 67.9 8.93225L67.7 9.03141C67.3 9.13056 67.8 8.53564 67.6 8.33733L67.5 8.43648C67.3 8.33733 67.9 7.84156 67.9 7.64325C67.9 7.5441 68 7.64325 68 7.7424C68.1 7.24663 67.7 7.84156 67.5 7.5441C67.6 7.44494 67.9 7.44494 67.8 7.24663C67.8 7.04833 67.1 6.85002 67.2 6.4534C67.1 6.55256 67.1 6.65171 66.9 6.55256C66.7 6.35425 66.9 5.75932 66.5 5.85848V5.75932C66.3 5.66017 66 5.36271 65.8 5.46186C66.3 4.86694 64.8 4.96609 65.3 4.47032C65.2 4.37117 65 4.27201 64.9 4.17286H65C64.8 3.8754 64.6 3.97455 64.4 3.97455C64.4 3.8754 64.4 3.8754 64.5 3.8754C64.2 3.47878 64.1 3.47878 63.6 3.47878L63.7 3.28048C63.5 3.37963 63.2 2.5864 62.7 2.5864C62.7 2.5864 62.7 2.48724 62.8 2.48724C62.5 2.48724 62.3 2.18978 62 1.99147C61.8 1.79317 61.5 1.69401 61.3 2.09063C61.2 2.09063 61 2.09063 60.9 2.18978C61.3 2.38809 60.7 2.48724 60.9 2.68555C60.7 2.68555 60.5 2.38809 60.7 2.38809C60.9 1.99147 60.2 2.09063 60.3 1.79317C59.4 1.59486 58.5 1.2974 57.6 1.2974L57.7 1.59486H57.4C57.3 1.4957 57.3 1.39655 57.5 1.39655C57.2 1.09909 57 1.4957 57 1.59486C56.6 1.4957 57.1 1.19824 57 1.19824H56.8C56.7 1.2974 56.7 1.4957 56.4 1.4957C56.2 1.4957 56.3 1.2974 56.2 1.2974C56.2 1.2974 56.2 1.2974 56.1 1.2974C56 1.2974 55.8 1.2974 55.7 1.2974L56 1.59486C55.9 1.79317 55.6 1.69401 55.9 1.89232C55.6 1.4957 54.5 2.09063 54.3 2.09063C54.1 2.38809 53.9 2.38809 53.6 2.48724C53.7 2.48724 53.8 2.68555 53.6 2.78471C53.4 2.18978 53.1 2.78471 52.7 2.48724C53 2.5864 52.1 2.98301 52.6 3.08217C52.4 3.28048 52.5 2.98301 52.2 2.98301C52 3.18132 51.8 3.37963 51.5 3.47878C51.2 3.57794 50.9 3.77624 50.8 4.07371C50.8 4.17286 51 4.17286 51 4.27201H50.5C50.4 4.37117 50.8 4.66863 50.4 4.66863C50.5 4.66863 50.6 4.66863 50.5 4.76778C50 5.1644 49.7 5.75932 49.4 6.35425C49.2 6.94917 49 7.5441 48.5 8.03987C48.7 7.94071 48.7 8.03987 48.6 8.13902C48.7 8.03987 48.8 8.13902 48.9 8.13902C48.8 8.33733 48.6 8.43648 48.5 8.63479C48.8 8.73394 48.5 9.22971 48.7 9.22971V9.03141C49.2 9.42802 49.6 8.93225 50 9.03141C49.7 8.73394 50.6 8.53563 50.2 8.13902C50.3 8.03987 50.3 8.23817 50.4 8.23817C50.2 8.13902 50.2 8.03987 50.4 7.84156C50.5 7.34579 50.8 7.14748 51.1 6.65171H51C51.1 6.55256 51.2 6.55256 51.2 6.55256C51 6.25509 51 6.85002 50.8 6.55256C51.3 6.65171 51.3 5.75932 51.8 5.95763C51.9 5.75932 51.6 5.85848 51.7 5.66017H51.8L51.7 5.56102C51.8 5.46186 52 5.56102 52 5.56102V5.66017C52.2 5.66017 52.3 5.26356 52.3 5.26356L52.1 5.36271C52.4 4.86694 53 4.56948 53.2 4.07371L53.1 3.97455C53.3 3.57794 53.4 3.8754 53.8 3.57794C53.8 3.47878 53.9 3.37963 54 3.28048C53.9 3.37963 54.3 3.37963 54.2 3.57794C54.5 3.28048 54.3 3.37963 54.5 2.88386L54.6 2.98301C54.6 2.78471 54.6 2.68555 54.8 2.5864C54.7 2.78471 55 2.78471 54.9 2.98301C55.4 3.18132 55.5 2.38809 55.8 2.88386C56 2.78471 55.5 3.08217 55.6 2.98301C55.5 2.88386 55.7 2.5864 55.9 2.5864C56.1 2.5864 56.3 3.08217 56.6 2.98301C56.6 2.98301 56.6 2.98301 56.5 2.98301C56.7 3.08217 56.8 2.78471 56.9 2.98301C57 2.68555 57.1 2.98301 57.1 2.5864L56.8 2.68555C57 2.5864 57.2 2.18978 57.5 2.38809C57.5 2.48724 57.4 2.5864 57.3 2.5864C57.4 2.68555 57.5 2.48724 57.6 2.5864C57.6 2.98301 57.2 2.68555 57 2.98301C57.1 3.08217 57.4 2.68555 57.3 3.08217C57.4 2.5864 57.7 3.18132 57.9 2.78471V2.98301C57.9 2.98301 58 2.88386 58.1 2.88386L58 3.28048C58.2 3.08217 58.4 3.47878 58.6 3.37963C58.2 3.37963 58.5 3.08217 58.4 2.98301C58.9 2.78471 58.6 3.47878 59.2 3.47878C59.1 3.47878 58.9 3.28048 59.1 3.28048C59.2 3.37963 59.3 3.47878 59.4 3.57794C59.8 3.57794 59.4 3.37963 59.6 3.28048C59.7 3.57794 59.8 3.18132 60 3.18132V3.37963C60.4 3.57794 60.2 2.98301 60.6 3.28048L60 3.37963H60.2L60.1 3.57794C60.4 3.47878 60.4 3.57794 60.6 3.67709C60.6 3.47878 60.7 3.37963 60.9 3.37963C61 3.57794 60.8 3.57794 61 3.57794C60.9 3.67709 60.8 3.77625 60.7 3.57794C60.7 3.67709 60.6 3.67709 60.6 3.77625C60.8 3.97455 61 3.97455 61.1 3.97455C61.1 3.97455 61 3.97455 61 3.8754C61.2 3.77625 61.3 3.77625 61.5 3.77625C61.5 3.8754 61.5 3.8754 61.4 3.97455C61.5 3.97455 61.6 3.8754 61.7 3.97455C61.6 4.07371 61.5 4.27201 61.4 4.27201H61.8C61.8 4.37117 61.9 4.56948 61.8 4.56948C61.9 4.76778 62.4 4.56948 62.6 4.76778H62.7C62.9 4.96609 62.9 5.26356 63.3 5.26356C63.3 5.36271 63.3 5.46186 63.2 5.56102C63.4 5.66017 63.3 5.06525 63.6 5.26356C63.9 5.36271 63.5 5.56102 63.5 5.66017C63.7 5.66017 64.1 5.56102 64.1 5.95763C64.1 5.85848 64.1 5.75932 64 5.66017ZM65.8 7.94071C65.7 7.94071 65.6 7.84156 65.6 7.7424C65.9 7.7424 65.9 7.84156 65.8 7.94071ZM67.2 12.1052C67.1 12.006 67.2 12.006 67.3 11.9069C67.3 12.006 67.3 12.1052 67.2 12.1052ZM58.1 14.8815C58.2 15.0798 58.2 14.9806 58.1 14.8815V14.8815ZM57.9 14.6832C57.9 14.6832 57.9 14.7823 58 14.7823C58 14.7823 58 14.6832 57.9 14.6832ZM56.3 1.39655C56.2 1.59486 56.2 1.4957 56.3 1.39655V1.39655Z" fill="#81D7F1"/>
<path d="M62.5996 15.873C62.5996 15.9722 62.5996 15.9722 62.5996 16.0714C62.6996 16.0714 62.6996 15.9722 62.5996 15.873Z" fill="white"/>
<path d="M56.5 14.1876L56.7 14.2868C56.6 14.1876 56.6 14.0885 56.5 14.1876C56.5 14.0885 56.5 14.1876 56.5 14.1876Z" fill="white"/>
<path d="M55.8002 12.3038C55.7002 12.3038 55.7002 12.2047 55.8002 12.3038L55.7002 12.403C55.7002 12.403 55.9002 12.403 55.8002 12.3038Z" fill="white"/>
<path d="M56.7002 13.4932C56.8002 13.2949 56.6002 13.2949 56.5002 13.2949C56.4002 13.4932 56.5002 13.4932 56.7002 13.4932Z" fill="white"/>
<path d="M56.4998 13.2963C56.4998 13.2963 56.3998 13.2963 56.3998 13.1963C56.2998 13.2963 56.3998 13.2963 56.4998 13.2963Z" fill="white"/>
<path d="M57.6003 14.584C57.6003 14.4849 57.4003 14.7823 57.5003 14.6832C57.2003 14.7823 57.9003 14.6832 57.6003 14.584Z" fill="white"/>
<path d="M56.8998 12.998L56.7998 13.1964L56.9998 13.0972L56.8998 12.998Z" fill="white"/>
<path d="M57.7 13.5928L57.6 13.3945H57.5C57.6 13.5928 57.7 13.692 57.7 13.5928Z" fill="white"/>
<path d="M57.4998 13.4945C57.3998 13.4945 57.3998 13.3945 57.2998 13.3945C57.2998 13.4945 57.3998 13.4945 57.4998 13.4945Z" fill="white"/>
<path d="M57.2002 13.0967L57.3002 13.1967L57.2002 13.0967Z" fill="white"/>
<path d="M59.5 14.8818L59.7 14.9818C59.8 14.9818 59.7 14.8818 59.7 14.8818C59.6 14.8818 59.5 14.8818 59.5 14.8818Z" fill="white"/>
<path d="M59.2998 14.0879C59.2998 14.187 59.2998 14.187 59.2998 14.2862L59.4998 14.0879H59.2998Z" fill="white"/>
<path d="M59.9001 14.3857C60.0001 14.3857 60.3001 14.3857 60.0001 14.2865C60.0001 14.2865 59.8001 14.1874 59.9001 14.3857Z" fill="white"/>
<path d="M62.3996 16.666L62.0996 17.0626L62.3996 16.666Z" fill="white"/>
<path d="M64.1998 16.3691C64.0998 16.3691 64.2998 16.6666 64.1998 16.5674C64.1998 16.6666 64.2998 16.6666 64.2998 16.7658C64.2998 16.5674 64.2998 16.5674 64.1998 16.3691Z" fill="white"/>
<path d="M48.3998 9.03125L48.2998 9.22956L48.4998 9.1304L48.3998 9.03125Z" fill="white"/>
<path d="M48.6994 9.42773H48.3994L48.5994 9.52773C48.6994 9.52773 48.6994 9.52773 48.6994 9.42773Z" fill="white"/>
<path d="M65.5 8.5362C65.6 8.43704 65.6 8.43704 65.6 8.33789L65.5 8.5362Z" fill="white"/>
<path d="M64.5996 6.75104H64.6996L64.7996 6.55273L64.5996 6.75104Z" fill="white"/>
<path d="M63.2002 5.75957C63.2002 5.85873 63.3002 5.85873 63.4002 5.85873C63.3002 5.85873 63.4002 5.56127 63.2002 5.75957Z" fill="white"/>
<path d="M24.6003 9.22943C24.6003 8.63451 24.4003 7.94043 24.1003 7.44466C22.9003 5.16412 19.8003 4.37089 17.3003 5.75905C14.7003 7.04805 13.6003 10.0227 14.8003 12.3032C15.2003 13.0964 15.8003 13.5922 16.5003 14.088C18.9003 12.0057 21.6003 10.1218 24.6003 9.22943Z" fill="white"/>
<path d="M53.8008 9.22943C53.8008 8.63451 54.0008 7.94043 54.3008 7.44466C55.5008 5.16412 58.6008 4.37089 61.1008 5.75905C63.7008 7.04805 64.8008 10.0227 63.6008 12.3032C63.2008 13.0964 62.6008 13.5922 61.9008 14.088C59.6008 12.0057 56.9008 10.1218 53.8008 9.22943Z" fill="white"/>
<path d="M47 33.5228C47 37.3898 43.9 40.4636 40 40.4636C36.2 40.4636 33 37.2907 33 33.5228C33 29.6558 36.1 26.582 40 26.582C43.9 26.582 47 29.6558 47 33.5228Z" fill="white"/>
<path d="M51.9996 30.1511C48.7996 30.1511 48.7996 25.1934 51.9996 25.1934C55.1996 25.1934 55.1996 30.1511 51.9996 30.1511Z" fill="black"/>
<path d="M27.4 30.5475C24.2 30.5475 24.2 25.5898 27.4 25.5898C30.6 25.5898 30.6 30.5475 27.4 30.5475Z" fill="black"/>
<path fill-rule="evenodd" clip-rule="evenodd" d="M42.7996 29.9528C42.7996 31.0435 41.3996 31.9359 39.6996 31.9359C37.9996 31.9359 36.5996 31.0435 36.5996 29.9528C36.5996 28.8621 37.9996 27.9697 39.6996 27.9697C41.4996 27.9697 42.7996 28.8621 42.7996 29.9528Z" fill="#7D4E24"/>
<path d="M38.6002 30.2505C38.8002 31.7378 38.8002 33.2251 38.8002 34.7124C38.8002 35.704 40.4002 35.704 40.4002 34.7124C40.4002 33.2251 40.4002 31.7378 40.2002 30.2505C40.1002 29.259 38.5002 29.259 38.6002 30.2505Z" fill="#7D4E24"/>
</svg>
