<svg width="100%" height="100%" viewBox="0 0 1920 1089" fill="none" xmlns="http://www.w3.org/2000/svg">
<path d="M2525 0H-27V1089H2525V0Z" fill="#E1F8FF"/>
<path d="M1957.5 0H1841.64V1087.67H1957.5V0Z" fill="#D5F3FD"/>
<path d="M1726.29 0H1610.43V1087.67H1726.29V0Z" fill="#D5F3FD"/>
<path d="M1495.08 0H1379.22V1087.67H1495.08V0Z" fill="#D5F3FD"/>
<path d="M1263.36 0H1147.5V1087.67H1263.36V0Z" fill="#D5F3FD"/>
<path d="M1032.15 0H916.288V1087.67H1032.15V0Z" fill="#D5F3FD"/>
<path d="M800.938 0H685.077V1087.67H800.938V0Z" fill="#D5F3FD"/>
<path d="M569.215 0H453.354V1087.67H569.215V0Z" fill="#D5F3FD"/>
<path d="M338.005 0H222.145V1087.67H338.005V0Z" fill="#D5F3FD"/>
<path d="M106.794 0H-9.06641V1087.67H106.794V0Z" fill="#D5F3FD"/>
<path d="M1869.87 585.702C1866.46 585.702 1863.28 585.915 1860.09 586.553C1851.58 567.83 1832.67 554.851 1810.77 554.851C1798.23 554.851 1786.75 559.106 1777.61 566.128C1764.43 552.511 1745.94 544 1725.53 544C1694.49 544 1668.13 563.574 1657.93 591.021C1656.44 590.809 1654.95 590.809 1653.47 590.809C1628.17 590.809 1607.34 610.17 1605 634.638C1607.34 657.617 1625.62 676.128 1648.58 678.255C1652.62 704.213 1675.15 724 1702.15 724C1721.06 724 1737.65 714.426 1747.42 699.745C1760.39 712.511 1778.25 720.17 1797.8 720.17C1817.79 720.17 1836.07 711.872 1849.03 698.681C1855.62 701.021 1862.64 702.298 1869.87 702.298C1903.24 702.298 1930.45 676.553 1933 643.787C1930.45 611.447 1903.24 585.702 1869.87 585.702Z" fill="white"/>
<path d="M234.811 734.759C231.17 734.759 227.681 735.367 224.495 736.584C216.152 726.546 203.712 720.159 189.604 720.159C188.238 720.159 186.873 720.159 185.508 720.311C178.378 704.798 162.752 694 144.548 694C125.13 694 108.594 706.319 102.223 723.505C101.313 723.353 100.402 723.353 99.3406 723.353C83.5635 723.353 70.517 735.367 69 750.88C70.3653 765.328 81.8947 776.735 96.3065 778.256C98.8854 794.529 112.842 807 129.833 807C141.666 807 151.981 800.917 158.05 791.791C166.241 799.7 177.316 804.567 189.452 804.567C203.409 804.567 216 798.179 224.344 788.141C227.529 789.358 231.019 789.966 234.659 789.966C250.437 789.966 263.483 777.952 265 762.439C263.483 746.774 250.588 734.759 234.811 734.759Z" fill="white"/>
<path d="M1260.86 236.596C1259.67 236.596 1258.55 236.67 1257.44 236.894C1254.45 230.34 1247.82 225.798 1240.15 225.798C1235.75 225.798 1231.72 227.287 1228.52 229.745C1223.9 224.979 1217.41 222 1210.26 222C1199.38 222 1190.14 228.851 1186.56 238.457C1186.04 238.383 1185.51 238.383 1184.99 238.383C1176.12 238.383 1168.82 245.16 1168 253.723C1168.82 261.766 1175.23 268.245 1183.28 268.989C1184.69 278.074 1192.59 285 1202.06 285C1208.69 285 1214.51 281.649 1217.94 276.511C1222.48 280.979 1228.74 283.66 1235.6 283.66C1242.6 283.66 1249.01 280.755 1253.56 276.138C1255.87 276.957 1258.33 277.404 1260.86 277.404C1272.57 277.404 1282.11 268.394 1283 256.926C1282.11 245.606 1272.57 236.596 1260.86 236.596Z" fill="white"/>
<path d="M680.678 255.592C679.192 255.592 677.768 255.84 676.467 256.335C673.062 252.249 667.985 249.649 662.226 249.649C661.669 249.649 661.111 249.649 660.554 249.711C657.644 243.396 651.266 239 643.836 239C635.91 239 629.161 244.015 626.56 251.011C626.189 250.949 625.817 250.949 625.384 250.949C618.944 250.949 613.619 255.84 613 262.155C613.557 268.036 618.263 272.68 624.146 273.299C625.198 279.923 630.895 285 637.83 285C642.659 285 646.87 282.524 649.347 278.809C652.69 282.028 657.211 284.009 662.164 284.009C667.861 284.009 673 281.409 676.406 277.323C677.706 277.818 679.13 278.066 680.616 278.066C687.056 278.066 692.381 273.175 693 266.86C692.443 260.545 687.118 255.592 680.678 255.592Z" fill="white"/>
<path d="M-8.69664 363.454C24.3981 366.409 58.0838 365.03 90.9816 362.666C166.233 357.544 241.09 342.77 312.007 316.569C385.289 289.582 453.448 249.395 509.985 195.222C512.349 193.055 508.803 189.509 506.439 191.676C387.061 306.326 218.239 354.589 55.9169 359.514C34.4447 360.105 12.5786 360.302 -8.69664 358.529C-11.8485 358.135 -11.8485 363.257 -8.69664 363.454Z" fill="#9ED9DB"/>
<path d="M141.017 351.241C136.486 351.635 129.197 352.423 124.864 352.817L101.815 354.984C97.2846 355.378 95.7087 358.727 98.2696 362.47L135.304 417.037C137.865 420.78 141.214 420.386 142.987 416.249L168.99 355.772C170.763 351.635 168.596 348.68 164.065 349.074L141.017 351.241Z" fill="#FFC257"/>
<mask id="mask0" mask-type="alpha" maskUnits="userSpaceOnUse" x="97" y="348" width="73" height="72">
<path d="M141.258 350.882C136.727 351.276 129.439 352.064 125.105 352.458L102.057 354.625C97.5258 355.019 95.9499 358.368 98.5108 362.11L135.545 416.677C138.106 420.42 141.455 420.026 143.228 415.889L169.231 355.413C171.004 351.276 168.837 348.321 164.306 348.715L141.258 350.882Z" fill="#FFC257"/>
</mask>
<g mask="url(#mask0)">
<path d="M115.799 353.999C115.996 355.969 114.42 357.939 112.45 358.136C110.48 358.333 108.511 356.757 108.314 354.787C108.117 352.817 109.692 350.847 111.662 350.65C113.829 350.453 115.602 352.029 115.799 353.999Z" fill="#FFD28A"/>
<path d="M136.091 352.03C136.288 354 134.712 355.969 132.742 356.166C130.772 356.363 128.803 354.787 128.606 352.818C128.409 350.848 129.984 348.878 131.954 348.681C133.924 348.484 135.894 350.06 136.091 352.03Z" fill="#FFD28A"/>
<path d="M156.185 350.255C156.382 352.225 154.806 354.195 152.836 354.392C150.866 354.589 148.896 353.013 148.699 351.043C148.502 349.073 150.078 347.103 152.048 346.906C154.215 346.709 155.988 348.088 156.185 350.255Z" fill="#FFD28A"/>
<path d="M176.474 348.285C176.671 350.255 175.095 352.225 173.125 352.422C171.155 352.619 169.185 351.043 168.988 349.073C168.791 347.103 170.367 345.134 172.337 344.937C174.504 344.74 176.277 346.316 176.474 348.285Z" fill="#FFD28A"/>
<path d="M106.936 369.166C107.133 371.136 105.557 373.106 103.587 373.303C101.617 373.5 99.6472 371.924 99.4503 369.954C99.2533 367.984 100.829 366.014 102.799 365.817C104.966 365.62 106.739 367.196 106.936 369.166Z" fill="#FFD28A"/>
<path d="M127.225 367.196C127.422 369.166 125.846 371.135 123.876 371.332C121.906 371.529 119.936 369.954 119.739 367.984C119.542 366.014 121.118 364.044 123.088 363.847C125.255 363.65 127.028 365.226 127.225 367.196Z" fill="#FFD28A"/>
<path d="M147.517 365.227C147.714 367.197 146.138 369.167 144.168 369.364C142.198 369.561 140.228 367.985 140.031 366.015C139.834 364.045 141.41 362.075 143.38 361.878C145.547 361.681 147.32 363.257 147.517 365.227Z" fill="#FFD28A"/>
<path d="M167.611 363.452C167.808 365.422 166.232 367.392 164.262 367.589C162.292 367.786 160.322 366.21 160.125 364.24C159.928 362.271 161.504 360.301 163.474 360.104C165.641 359.907 167.414 361.286 167.611 363.452Z" fill="#FFD28A"/>
<path d="M98.27 384.336C98.4669 386.306 96.891 388.276 94.9211 388.473C92.9512 388.67 90.9812 387.094 90.7842 385.124C90.5872 383.154 92.1632 381.184 94.1331 380.987C96.3 380.79 98.073 382.169 98.27 384.336Z" fill="#FFD28A"/>
<path d="M118.559 382.366C118.756 384.335 117.18 386.305 115.21 386.502C113.24 386.699 111.27 385.123 111.073 383.154C110.876 381.184 112.452 379.214 114.422 379.017C116.392 378.82 118.362 380.396 118.559 382.366Z" fill="#FFD28A"/>
<path d="M138.653 380.397C138.85 382.367 137.274 384.337 135.304 384.534C133.334 384.731 131.364 383.155 131.167 381.185C130.97 379.215 132.546 377.245 134.516 377.048C136.683 376.851 138.456 378.427 138.653 380.397Z" fill="#FFD28A"/>
<path d="M158.942 378.426C159.139 380.396 157.563 382.366 155.593 382.563C153.623 382.76 151.653 381.184 151.456 379.214C151.259 377.244 152.835 375.274 154.805 375.077C156.972 374.88 158.745 376.456 158.942 378.426Z" fill="#FFD28A"/>
<path d="M109.696 397.534C109.893 399.503 108.317 401.473 106.347 401.67C104.377 401.867 102.407 400.291 102.21 398.322C102.013 396.352 103.589 394.382 105.559 394.185C107.726 393.988 109.499 395.367 109.696 397.534Z" fill="#FFD28A"/>
<path d="M129.985 395.564C130.182 397.534 128.606 399.504 126.636 399.701C124.666 399.898 122.696 398.322 122.499 396.352C122.302 394.382 123.878 392.412 125.848 392.215C127.818 392.018 129.788 393.594 129.985 395.564Z" fill="#FFD28A"/>
<path d="M150.079 393.595C150.276 395.565 148.7 397.535 146.73 397.732C144.76 397.929 142.79 396.353 142.593 394.383C142.396 392.413 143.972 390.443 145.942 390.246C148.109 390.049 149.882 391.625 150.079 393.595Z" fill="#FFD28A"/>
<path d="M170.368 391.624C170.565 393.594 168.989 395.564 167.019 395.761C165.049 395.958 163.079 394.382 162.882 392.412C162.685 390.442 164.261 388.472 166.231 388.275C168.398 388.078 170.171 389.654 170.368 391.624Z" fill="#FFD28A"/>
<path d="M101.027 412.507C101.224 414.477 99.6478 416.447 97.6779 416.644C95.708 416.841 93.7381 415.265 93.5411 413.295C93.3441 411.325 94.92 409.355 96.89 409.158C98.8599 408.961 100.83 410.537 101.027 412.507Z" fill="#FFD28A"/>
<path d="M121.121 410.733C121.318 412.703 119.742 414.673 117.772 414.87C115.802 415.067 113.832 413.491 113.635 411.521C113.438 409.551 115.014 407.581 116.984 407.384C119.151 407.187 120.924 408.566 121.121 410.733Z" fill="#FFD28A"/>
<path d="M141.41 408.764C141.607 410.734 140.031 412.704 138.061 412.901C136.091 413.098 134.121 411.522 133.924 409.552C133.727 407.582 135.303 405.612 137.273 405.415C139.44 405.218 141.213 406.794 141.41 408.764Z" fill="#FFD28A"/>
<path d="M161.699 406.793C161.896 408.763 160.32 410.733 158.35 410.93C156.38 411.127 154.41 409.551 154.213 407.581C154.016 405.611 155.592 403.641 157.562 403.444C159.532 403.247 161.502 404.823 161.699 406.793Z" fill="#FFD28A"/>
<path d="M152.835 421.964C153.032 423.934 151.456 425.904 149.487 426.101C147.517 426.298 145.547 424.722 145.35 422.752C145.153 420.782 146.729 418.812 148.699 418.615C150.865 418.418 152.638 419.994 152.835 421.964Z" fill="#FFD28A"/>
<path d="M173.124 419.993C173.321 421.963 171.746 423.933 169.776 424.13C167.806 424.327 165.836 422.751 165.639 420.781C165.442 418.812 167.018 416.842 168.988 416.645C170.958 416.448 172.927 418.024 173.124 419.993Z" fill="#FFD28A"/>
</g>
<path d="M228.48 334.101C224.147 335.086 217.055 336.662 212.524 337.647L190.067 342.769C185.733 343.754 184.551 347.3 187.506 350.649L231.041 400.094C233.996 403.443 237.345 402.655 238.724 398.321L256.847 334.889C258.029 330.556 255.468 327.798 251.135 328.783L228.48 334.101Z" fill="#ACDDE5"/>
<mask id="mask1" mask-type="alpha" maskUnits="userSpaceOnUse" x="185" y="328" width="73" height="75">
<path d="M228.48 334.101C224.147 335.086 217.055 336.662 212.524 337.647L190.067 342.769C185.733 343.754 184.551 347.3 187.506 350.649L231.041 400.094C233.996 403.443 237.345 402.655 238.724 398.321L256.847 334.889C258.029 330.556 255.468 327.798 251.135 328.783L228.48 334.101Z" fill="#ACDDE5"/>
</mask>
<g mask="url(#mask1)">
<path d="M197.748 340.208L200.9 344.148L206.022 343.754L203.264 347.891L205.234 352.619L200.309 351.24L196.566 354.588L196.172 349.467L192.035 346.906L196.566 345.133L197.748 340.208Z" fill="#7CD0D8"/>
<path d="M221.585 334.89L224.736 338.83L229.858 338.436L227.1 342.572L228.873 347.3L224.145 345.921L220.206 349.073L220.009 344.148L215.675 341.587L220.403 339.814L221.585 334.89Z" fill="#7CD0D8"/>
<path d="M245.42 329.57L248.571 333.313L253.496 333.116L250.738 337.253L252.708 341.784L247.98 340.602L244.041 343.754L243.844 338.829L239.51 336.268L244.238 334.298L245.42 329.57Z" fill="#7CD0D8"/>
<path d="M190.462 362.666L193.613 366.606L198.538 366.212L195.78 370.349L197.75 375.077L192.825 373.698L189.083 377.046L188.886 371.925L184.552 369.364L189.28 367.591L190.462 362.666Z" fill="#7CD0D8"/>
<path d="M214.1 357.347L217.251 361.287L222.373 360.893L219.615 365.029L221.585 369.757L216.66 368.378L212.918 371.727L212.524 366.605L208.387 364.044L212.918 362.271L214.1 357.347Z" fill="#7CD0D8"/>
<path d="M237.935 352.028L241.087 355.968L246.209 355.574L243.451 359.711L245.224 364.439L240.496 363.06L236.556 366.212L236.359 361.287L232.025 358.726L236.753 356.953L237.935 352.028Z" fill="#7CD0D8"/>
<path d="M261.77 346.709L264.922 350.649L269.847 350.255L267.089 354.392L269.059 358.923L264.331 357.741L260.391 360.892L260.194 355.968L255.86 353.407L260.588 351.437L261.77 346.709Z" fill="#7CD0D8"/>
<path d="M182.976 385.121L186.128 389.061L191.053 388.667L188.295 393.001L190.265 397.532L185.537 396.153L181.597 399.502L181.4 394.577L177.066 391.819L181.794 390.046L182.976 385.121Z" fill="#7CD0D8"/>
<path d="M206.811 379.802L209.963 383.742L214.888 383.348L212.13 387.484L214.1 392.212L209.175 390.833L205.432 394.182L205.235 389.06L200.901 386.499L205.629 384.727L206.811 379.802Z" fill="#7CD0D8"/>
<path d="M230.451 374.485L233.603 378.425L238.725 378.031L235.967 382.168L237.937 386.896L233.012 385.517L229.269 388.866L228.875 383.744L224.738 381.183L229.269 379.41L230.451 374.485Z" fill="#7CD0D8"/>
<path d="M254.287 369.166L257.439 373.106L262.56 372.712L259.803 376.849L261.575 381.577L256.848 380.198L252.908 383.546L252.711 378.425L248.377 375.864L253.105 374.091L254.287 369.166Z" fill="#7CD0D8"/>
<path d="M223.161 396.941L226.313 400.881L231.237 400.487L228.48 404.624L230.449 409.352L225.525 407.973L221.782 411.322L221.585 406.2L217.251 403.639L221.979 401.866L223.161 396.941Z" fill="#7CD0D8"/>
<path d="M246.801 391.624L249.953 395.564L255.074 395.17L252.316 399.307L254.286 404.035L249.362 402.656L245.619 406.004L245.225 400.883L241.088 398.322L245.619 396.549L246.801 391.624Z" fill="#7CD0D8"/>
</g>
<path d="M53.5522 357.739C49.0214 357.936 41.7326 358.133 37.3988 358.133L14.1537 358.921C9.62285 359.118 7.84992 362.27 10.2138 366.21L43.5056 423.141C45.6725 427.081 49.2184 426.884 51.3853 422.944L81.3282 364.24C83.2981 360.3 81.3281 357.148 76.7973 357.148L53.5522 357.739Z" fill="#5FDAE0"/>
<mask id="mask2" mask-type="alpha" maskUnits="userSpaceOnUse" x="9" y="357" width="74" height="69">
<path d="M53.5532 357.739C49.0223 357.936 41.7336 358.133 37.3998 358.133L14.1547 358.921C9.62382 359.118 7.85089 362.27 10.2148 366.21L43.5065 423.141C45.6735 427.081 49.2193 426.884 51.3863 422.944L81.3291 364.24C83.2991 360.3 81.3291 357.148 76.7983 357.148L53.5532 357.739Z" fill="#5FDAE0"/>
</mask>
<g mask="url(#mask2)">
<path d="M20.4546 358.529C20.4546 356.953 19.0756 355.771 17.6967 355.771C16.7117 355.771 15.7267 356.362 15.3327 357.15C14.7418 356.362 13.9538 355.771 12.9688 355.771C11.3929 355.771 10.2109 357.15 10.2109 358.529C10.2109 359.317 10.6049 360.105 11.1959 360.499L15.5297 364.833L19.6666 360.302C20.0606 360.105 20.4546 359.317 20.4546 358.529Z" fill="#BDEDEF"/>
<path d="M35.4282 358.134C35.4282 356.558 34.0492 355.376 32.6703 355.376C31.6853 355.376 30.7004 355.967 30.3064 356.755C29.7154 355.967 28.9274 355.376 27.9425 355.376C26.3665 355.376 25.1846 356.755 25.1846 358.134C25.1846 358.922 25.5786 359.71 26.1695 360.104L30.5034 364.438L34.6402 359.907C35.2312 359.71 35.6252 358.922 35.4282 358.134Z" fill="#BDEDEF"/>
<path d="M50.5971 357.74C50.5971 356.164 49.2182 354.982 47.8392 354.982C46.8543 354.982 45.8693 355.573 45.4753 356.361C44.8843 355.573 44.0964 354.982 43.1114 354.982C41.5355 354.982 40.3535 356.361 40.3535 357.74C40.3535 358.528 40.7475 359.316 41.3385 359.71L45.6723 364.044L49.8092 359.513C50.4001 359.119 50.5971 358.528 50.5971 357.74Z" fill="#BDEDEF"/>
<path d="M65.7641 357.15C65.7641 355.575 64.3852 354.393 63.0062 354.393C62.0213 354.393 61.0363 354.984 60.6423 355.772C60.0513 354.984 59.2634 354.393 58.2784 354.393C56.7025 354.393 55.5205 355.772 55.5205 357.15C55.5205 357.938 55.9145 358.726 56.5055 359.12L60.8393 363.454L64.9762 358.923C65.3701 358.726 65.7641 357.938 65.7641 357.15Z" fill="#BDEDEF"/>
<path d="M80.7348 356.757C80.7348 355.181 79.3559 353.999 77.9769 353.999C76.992 353.999 76.007 354.59 75.613 355.378C75.022 354.59 74.2341 353.999 73.2491 353.999C71.6732 353.999 70.4912 355.378 70.4912 356.757C70.4912 357.545 70.8852 358.333 71.4762 358.727L75.81 363.061L79.9469 358.53C80.5378 358.333 80.9318 357.545 80.7348 356.757Z" fill="#BDEDEF"/>
<path d="M11.7905 370.94C11.7905 369.364 10.4115 368.182 9.03259 368.182C8.04763 368.182 7.06267 368.773 6.66868 369.561C6.0777 368.773 5.28973 368.182 4.30477 368.182C2.72883 368.182 1.54688 369.561 1.54688 370.94C1.54688 371.728 1.94086 372.515 2.53184 372.909L6.86568 377.243L11.0025 372.712C11.3965 372.515 11.7905 371.728 11.7905 370.94Z" fill="#BDEDEF"/>
<path d="M26.9594 370.546C26.9594 368.97 25.5805 367.788 24.2015 367.788C23.2166 367.788 22.2316 368.379 21.8376 369.167C21.2467 368.379 20.4587 367.788 19.4737 367.788C17.8978 367.788 16.7158 369.167 16.7158 370.546C16.7158 371.334 17.1098 372.122 17.7008 372.516L22.0346 376.85L26.1715 372.319C26.5654 372.122 26.9594 371.334 26.9594 370.546Z" fill="#BDEDEF"/>
<path d="M41.9292 370.15C41.9292 368.575 40.5502 367.393 39.1713 367.393C38.1863 367.393 37.2013 367.984 36.8074 368.772C36.2164 367.984 35.4284 367.393 34.4434 367.393C32.8675 367.393 31.6855 368.772 31.6855 370.15C31.6855 370.938 32.0795 371.726 32.6705 372.12L37.0043 376.454L41.1412 371.923C41.7322 371.726 41.9292 370.938 41.9292 370.15Z" fill="#BDEDEF"/>
<path d="M57.0981 369.757C57.0981 368.181 55.7192 366.999 54.3402 366.999C53.3552 366.999 52.3703 367.59 51.9763 368.378C51.3853 367.59 50.5974 366.999 49.6124 366.999C48.0364 366.999 46.8545 368.378 46.8545 369.757C46.8545 370.545 47.2485 371.333 47.8395 371.727L52.1733 376.061L56.3101 371.53C56.7041 371.136 57.0981 370.545 57.0981 369.757Z" fill="#BDEDEF"/>
<path d="M72.2671 369.165C72.2671 367.589 70.8881 366.407 69.5092 366.407C68.5242 366.407 67.5392 366.998 67.1452 367.786C66.5543 366.998 65.7663 366.407 64.7813 366.407C63.2054 366.407 62.0234 367.786 62.0234 369.165C62.0234 369.953 62.4174 370.741 63.0084 371.135L67.3422 375.469L71.4791 370.938C71.8731 370.741 72.2671 369.953 72.2671 369.165Z" fill="#BDEDEF"/>
<path d="M87.2378 368.772C87.2378 367.196 85.8588 366.014 84.4799 366.014C83.4949 366.014 82.5099 366.605 82.1159 367.393C81.525 366.605 80.737 366.014 79.752 366.014C78.1761 366.014 76.9941 367.393 76.9941 368.772C76.9941 369.56 77.3881 370.347 77.9791 370.741L82.3129 375.075L86.4498 370.544C87.0408 370.347 87.2378 369.56 87.2378 368.772Z" fill="#BDEDEF"/>
<path d="M21.0483 382.957C21.0483 381.381 19.6694 380.199 18.2904 380.199C17.3054 380.199 16.3205 380.79 15.9265 381.578C15.3355 380.79 14.5475 380.199 13.5626 380.199C11.9866 380.199 10.8047 381.578 10.8047 382.957C10.8047 383.745 11.1987 384.533 11.7897 384.927L16.1235 389.261L20.2603 384.73C20.8513 384.533 21.2453 383.745 21.0483 382.957Z" fill="#BDEDEF"/>
<path d="M36.2163 382.563C36.2163 380.987 34.8373 379.805 33.4584 379.805C32.4734 379.805 31.4884 380.396 31.0945 381.184C30.5035 380.396 29.7155 379.805 28.7306 379.805C27.1546 379.805 25.9727 381.184 25.9727 382.563C25.9727 383.351 26.3666 384.139 26.9576 384.532L31.2915 388.866L35.4283 384.336C36.0193 383.942 36.2163 383.351 36.2163 382.563Z" fill="#BDEDEF"/>
<path d="M51.3852 381.973C51.3852 380.397 50.0063 379.215 48.6273 379.215C47.6424 379.215 46.6574 379.806 46.2634 380.594C45.6724 379.806 44.8845 379.215 43.8995 379.215C42.3236 379.215 41.1416 380.594 41.1416 381.973C41.1416 382.761 41.5356 383.549 42.1266 383.943L46.4604 388.276L50.5972 383.746C50.9912 383.549 51.3852 382.761 51.3852 381.973Z" fill="#BDEDEF"/>
<path d="M66.3559 381.577C66.3559 380.001 64.977 378.819 63.598 378.819C62.6131 378.819 61.6281 379.41 61.2341 380.198C60.6431 379.41 59.8552 378.819 58.8702 378.819C57.2943 378.819 56.1123 380.198 56.1123 381.577C56.1123 382.365 56.5063 383.153 57.0973 383.547L61.4311 387.881L65.568 383.35C66.1589 383.153 66.5529 382.365 66.3559 381.577Z" fill="#BDEDEF"/>
<path d="M81.5249 381.184C81.5249 379.608 80.1459 378.426 78.767 378.426C77.782 378.426 76.797 379.017 76.4031 379.805C75.8121 379.017 75.0241 378.426 74.0391 378.426C72.4632 378.426 71.2812 379.805 71.2812 381.184C71.2812 381.972 71.6752 382.76 72.2662 383.154L76.6001 387.487L80.7369 382.957C81.3279 382.563 81.5249 381.972 81.5249 381.184Z" fill="#BDEDEF"/>
<path d="M12.5786 395.364C12.5786 393.788 11.1996 392.606 9.82068 392.606C8.83572 392.606 7.85075 393.197 7.45677 393.985C6.86579 393.197 6.07782 392.606 5.09286 392.606C3.51692 392.606 2.33496 393.985 2.33496 395.364C2.33496 396.152 2.72895 396.94 3.31992 397.334L7.65376 401.668L11.7906 397.137C12.1846 396.94 12.5786 396.152 12.5786 395.364Z" fill="#BDEDEF"/>
<path d="M27.5493 394.971C27.5493 393.395 26.1703 392.213 24.7914 392.213C23.8064 392.213 22.8215 392.804 22.4275 393.592C21.8365 392.804 21.0485 392.213 20.0636 392.213C18.4876 392.213 17.3057 393.592 17.3057 394.971C17.3057 395.759 17.6996 396.547 18.2906 396.941L22.6245 401.275L26.7613 396.744C27.3523 396.547 27.5493 395.759 27.5493 394.971Z" fill="#BDEDEF"/>
<path d="M42.7182 394.577C42.7182 393.001 41.3393 391.819 39.9603 391.819C38.9754 391.819 37.9904 392.41 37.5964 393.198C37.0054 392.41 36.2175 391.819 35.2325 391.819C33.6566 391.819 32.4746 393.198 32.4746 394.577C32.4746 395.365 32.8686 396.153 33.4596 396.547L37.7934 400.881L41.9303 396.35C42.3242 395.956 42.7182 395.365 42.7182 394.577Z" fill="#BDEDEF"/>
<path d="M57.8872 393.987C57.8872 392.411 56.5082 391.229 55.1293 391.229C54.1443 391.229 53.1594 391.82 52.7654 392.608C52.1744 391.82 51.3864 391.229 50.4015 391.229C48.8255 391.229 47.6436 392.608 47.6436 393.987C47.6436 394.775 48.0375 395.563 48.6285 395.957L52.9624 400.291L57.0992 395.76C57.4932 395.563 57.8872 394.775 57.8872 393.987Z" fill="#BDEDEF"/>
<path d="M72.8579 393.593C72.8579 392.017 71.4789 390.835 70.1 390.835C69.115 390.835 68.13 391.426 67.7361 392.214C67.1451 391.426 66.3571 390.835 65.3721 390.835C63.7962 390.835 62.6143 392.214 62.6143 393.593C62.6143 394.381 63.0082 395.169 63.5992 395.563L67.9331 399.897L72.0699 395.366C72.6609 395.169 72.8579 394.381 72.8579 393.593Z" fill="#BDEDEF"/>
<path d="M88.0268 393.199C88.0268 391.623 86.6479 390.441 85.2689 390.441C84.284 390.441 83.299 391.032 82.905 391.82C82.314 391.032 81.5261 390.441 80.5411 390.441C78.9652 390.441 77.7832 391.82 77.7832 393.199C77.7832 393.987 78.1772 394.775 78.7682 395.169L83.102 399.503L87.2389 394.972C87.6328 394.578 88.0268 393.987 88.0268 393.199Z" fill="#BDEDEF"/>
<path d="M21.8344 407.382C21.8344 405.806 20.4555 404.624 19.0765 404.624C18.0916 404.624 17.1066 405.215 16.7126 406.003C16.1217 405.215 15.3337 404.624 14.3487 404.624C12.7728 404.624 11.5908 406.003 11.5908 407.382C11.5908 408.17 11.9848 408.958 12.5758 409.352L16.9096 413.686L21.0465 409.155C21.6374 408.761 21.8344 408.17 21.8344 407.382Z" fill="#BDEDEF"/>
<path d="M37.0034 406.792C37.0034 405.216 35.6244 404.034 34.2455 404.034C33.2605 404.034 32.2756 404.625 31.8816 405.413C31.2906 404.625 30.5026 404.034 29.5177 404.034C27.9417 404.034 26.7598 405.413 26.7598 406.792C26.7598 407.58 27.1538 408.368 27.7447 408.762L32.0786 413.096L36.2154 408.565C36.6094 408.368 37.0034 407.58 37.0034 406.792Z" fill="#BDEDEF"/>
<path d="M51.9741 406.399C51.9741 404.823 50.5951 403.641 49.2162 403.641C48.2312 403.641 47.2463 404.232 46.8523 405.02C46.2613 404.232 45.4733 403.641 44.4884 403.641C42.9124 403.641 41.7305 405.02 41.7305 406.399C41.7305 407.186 42.1245 407.974 42.7154 408.368L47.0493 412.702L51.1861 408.171C51.7771 407.974 52.1711 407.186 51.9741 406.399Z" fill="#BDEDEF"/>
<path d="M67.143 406.004C67.143 404.428 65.7641 403.246 64.3851 403.246C63.4002 403.246 62.4152 403.837 62.0212 404.625C61.4302 403.837 60.6423 403.246 59.6573 403.246C58.0814 403.246 56.8994 404.625 56.8994 406.004C56.8994 406.792 57.2934 407.58 57.8844 407.974L62.2182 412.308L66.3551 407.777C66.946 407.383 67.143 406.792 67.143 406.004Z" fill="#BDEDEF"/>
<path d="M82.312 405.413C82.312 403.837 80.933 402.655 79.5541 402.655C78.5691 402.655 77.5841 403.246 77.1902 404.034C76.5992 403.246 75.8112 402.655 74.8263 402.655C73.2503 402.655 72.0684 404.034 72.0684 405.413C72.0684 406.201 72.4623 406.989 73.0533 407.383L77.3872 411.717L81.524 407.186C81.918 406.989 82.312 406.398 82.312 405.413Z" fill="#BDEDEF"/>
<path d="M13.1665 419.792C13.1665 418.216 11.7875 417.034 10.4086 417.034C9.42361 417.034 8.43864 417.625 8.04466 418.413C7.45368 417.625 6.66571 417.034 5.68075 417.034C4.10481 417.034 2.92285 418.413 2.92285 419.792C2.92285 420.58 3.31684 421.368 3.90781 421.762L8.24165 426.096L12.3785 421.565C12.9695 421.368 13.1665 420.58 13.1665 419.792Z" fill="#BDEDEF"/>
<path d="M28.3354 419.399C28.3354 417.823 26.9565 416.641 25.5775 416.641C24.5926 416.641 23.6076 417.232 23.2136 418.02C22.6226 417.232 21.8347 416.641 20.8497 416.641C19.2738 416.641 18.0918 418.02 18.0918 419.399C18.0918 420.186 18.4858 420.974 19.0768 421.368L23.4106 425.702L27.5474 421.171C27.9414 420.777 28.3354 420.186 28.3354 419.399Z" fill="#BDEDEF"/>
<path d="M43.5034 418.808C43.5034 417.232 42.1244 416.05 40.7455 416.05C39.7605 416.05 38.7756 416.641 38.3816 417.429C37.7906 416.641 37.0026 416.05 36.0177 416.05C34.4417 416.05 33.2598 417.429 33.2598 418.808C33.2598 419.596 33.6538 420.384 34.2447 420.778L38.5786 425.111L42.7154 420.581C43.1094 420.384 43.5034 419.596 43.5034 418.808Z" fill="#BDEDEF"/>
<path d="M58.4741 418.414C58.4741 416.838 57.0951 415.656 55.7162 415.656C54.7312 415.656 53.7463 416.247 53.3523 417.035C52.7613 416.247 51.9733 415.656 50.9884 415.656C49.4124 415.656 48.2305 417.035 48.2305 418.414C48.2305 419.202 48.6245 419.99 49.2154 420.384L53.5493 424.718L57.6861 420.187C58.2771 419.99 58.4741 419.202 58.4741 418.414Z" fill="#BDEDEF"/>
<path d="M73.644 418.019C73.644 416.443 72.2651 415.261 70.8861 415.261C69.9011 415.261 68.9162 415.852 68.5222 416.64C67.9312 415.852 67.1433 415.261 66.1583 415.261C64.5823 415.261 63.4004 416.64 63.4004 418.019C63.4004 418.807 63.7944 419.595 64.3854 419.989L68.7192 424.322L72.856 419.792C73.25 419.398 73.644 418.807 73.644 418.019Z" fill="#BDEDEF"/>
<path d="M88.813 417.429C88.813 415.853 87.434 414.671 86.0551 414.671C85.0701 414.671 84.0851 415.262 83.6911 416.05C83.1002 415.262 82.3122 414.671 81.3272 414.671C79.7513 414.671 78.5693 416.05 78.5693 417.429C78.5693 418.217 78.9633 419.005 79.5543 419.399L83.8881 423.733L88.025 419.202C88.419 419.005 88.813 418.217 88.813 417.429Z" fill="#BDEDEF"/>
</g>
<path d="M310.824 308.295C306.687 309.674 299.595 312.234 295.459 313.613L273.592 321.296C269.456 322.675 268.668 326.418 272.017 329.373L320.871 373.696C324.22 376.651 327.568 375.469 328.159 371.135L339.191 306.128C339.979 301.794 337.024 299.233 332.887 300.809L310.824 308.295Z" fill="#FFC257"/>
<mask id="mask3" mask-type="alpha" maskUnits="userSpaceOnUse" x="269" y="300" width="71" height="76">
<path d="M310.824 308.295C306.687 309.674 299.595 312.234 295.459 313.613L273.592 321.296C269.456 322.675 268.668 326.418 272.017 329.373L320.871 373.696C324.22 376.651 327.568 375.469 328.159 371.135L339.191 306.128C339.979 301.794 337.024 299.233 332.887 300.809L310.824 308.295Z" fill="#FFC257"/>
</mask>
<g mask="url(#mask3)">
<path d="M286.989 316.962C287.58 318.932 286.595 321.099 284.625 321.69C282.655 322.281 280.488 321.296 279.897 319.326C279.306 317.356 280.291 315.189 282.261 314.598C284.231 314.007 286.398 314.992 286.989 316.962Z" fill="#FFD28A"/>
<path d="M306.292 310.267C306.883 312.237 305.898 314.404 303.928 314.994C301.958 315.585 299.792 314.601 299.201 312.631C298.61 310.661 299.595 308.494 301.565 307.903C303.534 307.312 305.504 308.297 306.292 310.267Z" fill="#FFD28A"/>
<path d="M325.401 303.567C325.992 305.537 325.007 307.704 323.037 308.295C321.067 308.886 318.9 307.901 318.309 305.931C317.718 303.961 318.703 301.795 320.673 301.204C322.643 300.613 324.81 301.598 325.401 303.567Z" fill="#FFD28A"/>
<path d="M344.704 297.065C345.295 299.035 344.31 301.202 342.341 301.793C340.371 302.384 338.204 301.399 337.613 299.429C337.022 297.459 338.007 295.292 339.977 294.701C341.947 293.913 343.916 295.095 344.704 297.065Z" fill="#FFD28A"/>
<path d="M282.062 333.706C282.653 335.676 281.668 337.843 279.698 338.434C277.728 339.025 275.561 338.04 274.97 336.07C274.379 334.1 275.364 331.933 277.334 331.342C279.304 330.751 281.471 331.736 282.062 333.706Z" fill="#FFD28A"/>
<path d="M301.368 327.008C301.959 328.978 300.974 331.145 299.004 331.736C297.034 332.327 294.867 331.342 294.276 329.372C293.685 327.402 294.67 325.235 296.64 324.644C298.61 324.053 300.58 325.038 301.368 327.008Z" fill="#FFD28A"/>
<path d="M320.476 320.311C321.067 322.281 320.082 324.447 318.112 325.038C316.142 325.629 313.975 324.644 313.384 322.675C312.793 320.705 313.778 318.538 315.748 317.947C317.718 317.356 319.885 318.538 320.476 320.311Z" fill="#FFD28A"/>
<path d="M339.782 313.81C340.373 315.78 339.388 317.946 337.418 318.537C335.448 319.128 333.281 318.143 332.69 316.174C332.099 314.204 333.084 312.037 335.054 311.446C336.827 310.855 338.994 311.84 339.782 313.81Z" fill="#FFD28A"/>
<path d="M277.137 350.45C277.728 352.42 276.743 354.587 274.773 355.178C272.803 355.769 270.636 354.784 270.045 352.814C269.454 350.844 270.439 348.677 272.409 348.086C274.379 347.495 276.546 348.48 277.137 350.45Z" fill="#FFD28A"/>
<path d="M296.443 343.753C297.034 345.723 296.049 347.89 294.079 348.481C292.109 349.072 289.942 348.087 289.351 346.117C288.76 344.147 289.745 341.98 291.715 341.389C293.685 340.798 295.655 341.98 296.443 343.753Z" fill="#FFD28A"/>
<path d="M315.551 337.252C316.142 339.222 315.157 341.389 313.187 341.98C311.217 342.571 309.05 341.586 308.459 339.616C307.868 337.646 308.853 335.479 310.823 334.888C312.793 334.1 314.96 335.282 315.551 337.252Z" fill="#FFD28A"/>
<path d="M334.857 330.555C335.448 332.525 334.463 334.692 332.493 335.283C330.523 335.874 328.356 334.889 327.765 332.919C327.174 330.949 328.159 328.782 330.129 328.191C331.902 327.6 334.069 328.585 334.857 330.555Z" fill="#FFD28A"/>
<path d="M291.518 360.694C292.109 362.664 291.124 364.831 289.154 365.422C287.184 366.013 285.017 365.028 284.426 363.058C283.835 361.088 284.82 358.921 286.79 358.33C288.76 357.542 290.73 358.724 291.518 360.694Z" fill="#FFD28A"/>
<path d="M310.627 353.996C311.218 355.966 310.233 358.133 308.263 358.724C306.293 359.315 304.127 358.33 303.536 356.36C302.945 354.39 303.93 352.223 305.899 351.632C307.869 351.041 310.036 352.026 310.627 353.996Z" fill="#FFD28A"/>
<path d="M329.931 347.299C330.522 349.269 329.537 351.436 327.567 352.027C325.597 352.618 323.43 351.633 322.839 349.663C322.248 347.693 323.233 345.526 325.203 344.935C326.976 344.344 329.143 345.329 329.931 347.299Z" fill="#FFD28A"/>
<path d="M286.593 377.439C287.184 379.408 286.199 381.575 284.229 382.166C282.259 382.757 280.092 381.772 279.501 379.802C278.91 377.833 279.895 375.666 281.865 375.075C283.638 374.484 285.805 375.469 286.593 377.439Z" fill="#FFD28A"/>
<path d="M305.702 370.739C306.293 372.709 305.308 374.876 303.338 375.467C301.368 376.058 299.201 375.073 298.61 373.103C298.019 371.133 299.004 368.966 300.974 368.375C302.944 367.784 305.111 368.769 305.702 370.739Z" fill="#FFD28A"/>
<path d="M325.006 364.044C325.597 366.014 324.612 368.181 322.642 368.772C320.672 369.363 318.505 368.378 317.914 366.408C317.323 364.438 318.308 362.271 320.278 361.68C322.051 361.089 324.218 362.074 325.006 364.044Z" fill="#FFD28A"/>
<path d="M344.116 357.345C344.707 359.315 343.722 361.482 341.752 362.073C339.782 362.664 337.615 361.679 337.024 359.709C336.433 357.739 337.418 355.572 339.388 354.981C341.358 354.39 343.525 355.375 344.116 357.345Z" fill="#FFD28A"/>
<path d="M339.192 374.087C339.783 376.057 338.798 378.224 336.828 378.815C334.858 379.406 332.691 378.421 332.1 376.451C331.509 374.481 332.494 372.314 334.464 371.723C336.434 371.132 338.601 372.117 339.192 374.087Z" fill="#FFD28A"/>
</g>
<path d="M390.608 274.411C386.668 276.381 380.168 279.73 376.031 281.7L355.347 292.141C351.407 294.111 351.013 297.854 354.756 300.414L409.126 337.843C412.868 340.404 416.02 338.828 416.02 334.297L418.187 268.502C418.384 263.971 415.232 262.001 411.292 263.971L390.608 274.411Z" fill="#5FDAE0"/>
<mask id="mask4" mask-type="alpha" maskUnits="userSpaceOnUse" x="352" y="263" width="67" height="77">
<path d="M390.607 274.411C386.667 276.381 380.167 279.73 376.03 281.7L355.346 292.141C351.406 294.111 351.012 297.854 354.755 300.414L409.125 337.843C412.867 340.404 416.019 338.828 416.019 334.297L418.186 268.502C418.383 263.971 415.231 262.001 411.291 263.971L390.607 274.411Z" fill="#5FDAE0"/>
</mask>
<g mask="url(#mask4)">
<path d="M360.864 289.187C360.273 287.808 358.5 287.217 357.121 288.005C356.136 288.399 355.742 289.384 355.545 290.369C354.757 289.778 353.772 289.778 352.787 290.172C351.408 290.763 350.817 292.536 351.605 293.915C351.999 294.703 352.59 295.097 353.378 295.294L359.288 297.461L361.061 291.551C361.258 290.763 361.258 289.975 360.864 289.187Z" fill="#BDEDEF"/>
<path d="M374.258 282.293C373.667 280.914 371.894 280.323 370.515 281.111C369.53 281.505 369.136 282.49 368.939 283.475C368.151 282.884 367.166 282.884 366.181 283.278C364.802 283.869 364.211 285.642 364.999 287.021C365.393 287.808 365.984 288.202 366.772 288.399L372.682 290.566L374.455 284.657C374.652 283.869 374.652 283.081 374.258 282.293Z" fill="#BDEDEF"/>
<path d="M387.851 275.594C387.26 274.216 385.487 273.625 384.108 274.413C383.123 274.806 382.729 275.791 382.532 276.776C381.744 276.185 380.759 276.185 379.774 276.579C378.395 277.17 377.804 278.943 378.592 280.322C378.986 281.11 379.577 281.504 380.365 281.701L386.275 283.868L388.048 277.958C388.245 277.17 388.245 276.382 387.851 275.594Z" fill="#BDEDEF"/>
<path d="M401.246 268.701C400.655 267.322 398.882 266.731 397.503 267.519C396.519 267.913 396.125 268.898 395.928 269.883C395.14 269.292 394.155 269.292 393.17 269.686C391.791 270.277 391.2 272.05 391.988 273.429C392.382 274.217 392.973 274.611 393.761 274.808L399.67 276.778L401.443 270.868C401.64 270.277 401.64 269.489 401.246 268.701Z" fill="#BDEDEF"/>
<path d="M414.839 262.003C414.248 260.624 412.475 260.033 411.096 260.821C410.111 261.215 409.717 262.2 409.52 263.185C408.732 262.594 407.747 262.594 406.762 262.988C405.383 263.579 404.792 265.352 405.58 266.73C405.974 267.518 406.565 267.912 407.353 268.109L413.263 270.079L415.036 264.17C415.233 263.579 415.233 262.791 414.839 262.003Z" fill="#BDEDEF"/>
<path d="M358.301 304.159C357.71 302.78 355.937 302.189 354.558 302.977C353.573 303.371 353.179 304.356 352.982 305.341C352.194 304.75 351.209 304.75 350.224 305.144C348.845 305.932 348.254 307.508 349.042 308.887C349.436 309.675 350.027 310.069 350.815 310.266L356.725 312.236L358.498 306.326C358.695 305.538 358.695 304.75 358.301 304.159Z" fill="#BDEDEF"/>
<path d="M371.697 297.263C371.106 295.884 369.333 295.293 367.954 296.081C366.969 296.475 366.575 297.46 366.378 298.445C365.59 297.854 364.605 297.854 363.62 298.248C362.241 298.839 361.65 300.612 362.438 301.991C362.832 302.779 363.423 303.173 364.211 303.37L370.121 305.34L371.894 299.43C372.091 298.839 372.091 298.051 371.697 297.263Z" fill="#BDEDEF"/>
<path d="M385.289 290.565C384.698 289.186 382.925 288.595 381.546 289.383C380.561 289.777 380.168 290.762 379.971 291.747C379.183 291.156 378.198 291.156 377.213 291.55C375.834 292.141 375.243 293.914 376.031 295.293C376.425 296.081 377.016 296.475 377.804 296.672L383.713 298.642L385.486 292.732C385.683 291.944 385.683 291.156 385.289 290.565Z" fill="#BDEDEF"/>
<path d="M398.685 283.67C398.094 282.291 396.321 281.7 394.942 282.488C393.957 282.882 393.563 283.867 393.366 284.852C392.578 284.261 391.593 284.261 390.608 284.655C389.229 285.246 388.638 287.019 389.426 288.397C389.82 289.185 390.411 289.579 391.199 289.776L397.109 291.746L398.882 285.837C399.079 285.246 399.079 284.458 398.685 283.67Z" fill="#BDEDEF"/>
<path d="M412.279 276.974C411.688 275.595 409.915 275.004 408.536 275.792C407.551 276.186 407.157 277.171 406.96 278.156C406.172 277.565 405.187 277.565 404.202 277.959C402.823 278.55 402.232 280.323 403.02 281.702C403.414 282.49 404.005 282.884 404.793 283.081L410.703 285.248L412.476 279.338C412.673 278.353 412.673 277.565 412.279 276.974Z" fill="#BDEDEF"/>
<path d="M425.674 270.079C425.083 268.7 423.31 268.109 421.931 268.897C420.946 269.291 420.552 270.276 420.355 271.261C419.567 270.67 418.582 270.67 417.597 271.064C416.218 271.655 415.627 273.428 416.415 274.807C416.809 275.595 417.4 275.989 418.188 276.186L424.098 278.156L425.871 272.246C426.068 271.655 426.068 270.867 425.674 270.079Z" fill="#BDEDEF"/>
<path d="M358.3 317.752C357.709 316.373 355.936 315.782 354.557 316.57C353.572 316.964 353.178 317.949 352.981 318.934C352.193 318.343 351.208 318.343 350.223 318.737C348.844 319.328 348.253 321.101 349.041 322.479C349.435 323.267 350.026 323.661 350.814 323.858L356.724 326.025L358.497 320.116C358.694 319.328 358.694 318.54 358.3 317.752Z" fill="#BDEDEF"/>
<path d="M371.893 311.052C371.302 309.674 369.529 309.083 368.15 309.871C367.165 310.264 366.771 311.249 366.574 312.234C365.786 311.643 364.801 311.643 363.816 312.037C362.437 312.628 361.846 314.401 362.634 315.78C363.028 316.568 363.619 316.962 364.407 317.159L370.317 319.326L372.09 313.416C372.287 312.431 372.09 311.643 371.893 311.052Z" fill="#BDEDEF"/>
<path d="M385.288 304.158C384.697 302.779 382.924 302.188 381.545 302.976C380.561 303.37 380.167 304.355 379.97 305.34C379.182 304.749 378.197 304.749 377.212 305.143C375.833 305.734 375.242 307.507 376.03 308.886C376.424 309.674 377.015 310.068 377.803 310.265L383.712 312.432L385.485 306.522C385.682 305.734 385.682 304.946 385.288 304.158Z" fill="#BDEDEF"/>
<path d="M398.881 297.262C398.29 295.883 396.517 295.293 395.138 296.08C394.153 296.474 393.759 297.459 393.562 298.444C392.774 297.853 391.789 297.853 390.804 298.247C389.425 298.838 388.834 300.611 389.622 301.99C390.016 302.778 390.607 303.172 391.395 303.369L397.305 305.339L399.078 299.429C399.275 298.838 399.078 298.05 398.881 297.262Z" fill="#BDEDEF"/>
<path d="M412.278 290.567C411.687 289.188 409.914 288.597 408.535 289.385C407.55 289.779 407.156 290.764 406.959 291.749C406.171 291.158 405.186 291.158 404.201 291.552C402.822 292.143 402.231 293.916 403.019 295.295C403.413 296.083 404.004 296.477 404.792 296.674L410.702 298.841L412.475 292.931C412.672 292.143 412.672 291.355 412.278 290.567Z" fill="#BDEDEF"/>
<path d="M425.87 283.672C425.279 282.293 423.506 281.702 422.127 282.49C421.143 282.884 420.749 283.869 420.552 284.854C419.764 284.263 418.779 284.263 417.794 284.657C416.415 285.248 415.824 287.02 416.612 288.399C417.006 289.187 417.597 289.581 418.385 289.778L424.294 291.748L426.067 285.839C426.264 285.248 426.264 284.46 425.87 283.672Z" fill="#BDEDEF"/>
<path d="M369.331 325.83C368.74 324.451 366.967 323.86 365.588 324.648C364.603 325.042 364.21 326.027 364.013 327.012C363.225 326.421 362.24 326.421 361.255 326.815C359.876 327.406 359.285 329.179 360.073 330.558C360.467 331.346 361.058 331.74 361.846 331.937L367.755 334.103L369.528 328.194C369.528 327.406 369.528 326.618 369.331 325.83Z" fill="#BDEDEF"/>
<path d="M382.727 319.132C382.136 317.753 380.363 317.162 378.984 317.95C377.999 318.344 377.605 319.329 377.408 320.314C376.62 319.723 375.635 319.723 374.65 320.117C373.271 320.708 372.68 322.48 373.468 323.859C373.862 324.647 374.453 325.041 375.241 325.238L381.151 327.208L382.924 321.298C383.121 320.511 383.121 319.723 382.727 319.132Z" fill="#BDEDEF"/>
<path d="M396.319 312.236C395.728 310.857 393.955 310.266 392.576 311.054C391.591 311.448 391.197 312.433 391 313.418C390.212 312.827 389.227 312.827 388.242 313.221C386.863 313.812 386.272 315.585 387.06 316.964C387.454 317.752 388.045 318.146 388.833 318.343L394.743 320.51L396.516 314.6C396.713 313.812 396.516 313.024 396.319 312.236Z" fill="#BDEDEF"/>
<path d="M409.714 305.537C409.123 304.158 407.35 303.567 405.971 304.355C404.986 304.749 404.592 305.734 404.395 306.719C403.607 306.128 402.622 306.128 401.637 306.522C400.258 307.113 399.667 308.886 400.455 310.265C400.849 311.053 401.44 311.447 402.228 311.644L408.138 313.811L409.911 307.901C410.108 306.916 410.108 306.128 409.714 305.537Z" fill="#BDEDEF"/>
<path d="M423.308 298.644C422.717 297.265 420.944 296.674 419.565 297.462C418.58 297.856 418.186 298.841 417.989 299.826C417.201 299.235 416.216 299.235 415.231 299.629C413.852 300.22 413.261 301.993 414.049 303.372C414.443 304.16 415.034 304.554 415.822 304.751L421.732 306.721L423.505 300.811C423.702 300.22 423.505 299.432 423.308 298.644Z" fill="#BDEDEF"/>
<path d="M369.335 339.618C368.744 338.239 366.971 337.648 365.592 338.436C364.607 338.83 364.213 339.815 364.016 340.8C363.228 340.209 362.243 340.209 361.259 340.603C359.88 341.194 359.289 342.967 360.077 344.346C360.471 345.134 361.062 345.528 361.85 345.725L367.759 347.695L369.532 341.785C369.729 340.997 369.729 340.209 369.335 339.618Z" fill="#BDEDEF"/>
<path d="M382.731 332.722C382.14 331.343 380.367 330.752 378.988 331.54C378.003 331.934 377.609 332.919 377.412 333.904C376.624 333.313 375.639 333.313 374.654 333.707C373.275 334.298 372.684 336.071 373.472 337.45C373.866 338.238 374.457 338.632 375.245 338.829L381.155 340.996L382.928 335.086C383.125 334.298 383.125 333.51 382.731 332.722Z" fill="#BDEDEF"/>
<path d="M396.323 326.024C395.732 324.645 393.959 324.054 392.58 324.842C391.595 325.236 391.201 326.221 391.004 327.206C390.216 326.615 389.231 326.615 388.246 327.009C386.867 327.6 386.276 329.373 387.064 330.752C387.458 331.54 388.049 331.934 388.837 332.131L394.747 334.298L396.519 328.388C396.716 327.403 396.717 326.615 396.323 326.024Z" fill="#BDEDEF"/>
<path d="M409.718 319.129C409.127 317.75 407.354 317.159 405.975 317.947C404.99 318.341 404.596 319.326 404.399 320.311C403.611 319.72 402.626 319.72 401.641 320.114C400.262 320.705 399.671 322.478 400.459 323.856C400.853 324.644 401.444 325.038 402.232 325.235L408.142 327.402L409.915 321.493C410.112 320.705 410.112 319.917 409.718 319.129Z" fill="#BDEDEF"/>
<path d="M423.311 312.432C422.72 311.053 420.947 310.462 419.568 311.25C418.583 311.644 418.189 312.629 417.992 313.614C417.204 313.023 416.219 313.023 415.234 313.417C413.855 314.008 413.264 315.781 414.052 317.16C414.446 317.948 415.037 318.342 415.825 318.539L421.735 320.509L423.508 314.599C423.705 313.811 423.705 313.023 423.311 312.432Z" fill="#BDEDEF"/>
<path d="M393.762 340.798C393.171 339.419 391.398 338.828 390.019 339.616C389.034 340.01 388.64 340.995 388.443 341.98C387.655 341.389 386.67 341.389 385.685 341.783C384.306 342.374 383.715 344.146 384.503 345.525C384.897 346.313 385.488 346.707 386.276 346.904L392.186 349.071L393.959 343.161C394.156 342.374 394.156 341.586 393.762 340.798Z" fill="#BDEDEF"/>
<path d="M407.157 334.099C406.567 332.72 404.794 332.129 403.415 332.917C402.43 333.311 402.036 334.296 401.839 335.281C401.051 334.69 400.066 334.69 399.081 335.084C397.702 335.675 397.111 337.448 397.899 338.827C398.293 339.615 398.884 340.009 399.672 340.206L405.582 342.373L407.354 336.463C407.551 335.675 407.551 334.69 407.157 334.099Z" fill="#BDEDEF"/>
<path d="M420.75 327.204C420.159 325.825 418.386 325.234 417.007 326.022C416.022 326.416 415.628 327.401 415.431 328.386C414.643 327.795 413.659 327.795 412.674 328.189C411.295 328.78 410.704 330.553 411.492 331.932C411.886 332.72 412.477 333.114 413.265 333.311L419.174 335.478L420.947 329.568C421.144 328.78 421.144 327.992 420.75 327.204Z" fill="#BDEDEF"/>
</g>
<path d="M463.494 225.36C459.949 227.921 453.842 232.255 450.296 234.816L431.385 248.408C427.839 250.969 428.036 254.712 432.173 256.682L491.664 285.246C495.604 287.216 498.559 285.049 497.968 280.715L490.088 215.313C489.497 210.782 486.149 209.403 482.406 211.964L463.494 225.36Z" fill="#FFC257"/>
<mask id="mask5" mask-type="alpha" maskUnits="userSpaceOnUse" x="428" y="210" width="71" height="76">
<path d="M463.494 225.36C459.949 227.921 453.842 232.255 450.296 234.816L431.385 248.408C427.839 250.969 428.036 254.712 432.173 256.682L491.664 285.246C495.604 287.216 498.559 285.049 497.968 280.715L490.088 215.313C489.497 210.782 486.149 209.403 482.406 211.964L463.494 225.36Z" fill="#FFC257"/>
</mask>
<g mask="url(#mask5)">
<path d="M443.008 240.331C444.19 242.104 443.796 244.271 442.22 245.452C440.447 246.634 438.28 246.24 437.098 244.665C435.916 242.892 436.31 240.725 437.886 239.543C439.462 238.361 441.826 238.755 443.008 240.331Z" fill="#FFD28A"/>
<path d="M459.555 228.513C460.737 230.286 460.343 232.453 458.767 233.635C456.994 234.817 454.827 234.423 453.645 232.847C452.463 231.074 452.857 228.907 454.433 227.725C456.009 226.543 458.373 226.937 459.555 228.513Z" fill="#FFD28A"/>
<path d="M476.103 216.693C477.285 218.466 476.891 220.633 475.315 221.815C473.542 222.997 471.375 222.603 470.193 221.027C469.011 219.254 469.405 217.087 470.981 215.905C472.557 214.723 474.921 215.117 476.103 216.693Z" fill="#FFD28A"/>
<path d="M492.649 204.874C493.831 206.647 493.437 208.814 491.861 209.995C490.088 211.177 487.921 210.783 486.739 209.207C485.557 207.435 485.951 205.268 487.527 204.086C489.103 202.904 491.467 203.298 492.649 204.874Z" fill="#FFD28A"/>
<path d="M443.009 257.865C444.191 259.638 443.797 261.805 442.221 262.987C440.448 264.169 438.281 263.775 437.099 262.199C435.917 260.426 436.311 258.259 437.887 257.077C439.463 255.895 441.827 256.289 443.009 257.865Z" fill="#FFD28A"/>
<path d="M459.557 246.046C460.739 247.819 460.345 249.986 458.769 251.167C456.996 252.349 454.829 251.955 453.647 250.379C452.465 248.607 452.859 246.44 454.435 245.258C456.011 244.076 458.375 244.273 459.557 246.046Z" fill="#FFD28A"/>
<path d="M476.104 234.227C477.286 235.999 476.892 238.166 475.316 239.348C473.74 240.53 471.376 240.136 470.194 238.56C469.012 236.787 469.406 234.621 470.982 233.439C472.558 232.06 474.922 232.454 476.104 234.227Z" fill="#FFD28A"/>
<path d="M492.652 222.406C493.834 224.179 493.44 226.346 491.864 227.528C490.091 228.71 487.924 228.316 486.742 226.74C485.56 224.967 485.954 222.8 487.53 221.618C489.106 220.239 491.47 220.633 492.652 222.406Z" fill="#FFD28A"/>
<path d="M443.009 275.398C444.191 277.171 443.797 279.338 442.221 280.52C440.448 281.702 438.281 281.308 437.099 279.732C435.917 277.959 436.311 275.792 437.887 274.61C439.463 273.232 441.827 273.625 443.009 275.398Z" fill="#FFD28A"/>
<path d="M459.557 263.578C460.739 265.351 460.345 267.518 458.769 268.7C456.996 269.882 454.829 269.488 453.647 267.912C452.465 266.139 452.859 263.972 454.435 262.79C456.011 261.411 458.375 261.805 459.557 263.578Z" fill="#FFD28A"/>
<path d="M476.104 251.76C477.286 253.533 476.892 255.7 475.316 256.882C473.543 258.064 471.376 257.67 470.194 256.094C469.012 254.321 469.406 252.154 470.982 250.972C472.558 249.593 474.922 249.987 476.104 251.76Z" fill="#FFD28A"/>
<path d="M492.652 239.94C493.834 241.713 493.44 243.88 491.864 245.062C490.091 246.244 487.924 245.85 486.742 244.274C485.56 242.501 485.954 240.334 487.53 239.152C489.106 237.773 491.47 238.167 492.652 239.94Z" fill="#FFD28A"/>
<path d="M459.558 280.915C460.74 282.688 460.346 284.855 458.77 286.036C456.997 287.218 454.83 286.824 453.648 285.249C452.466 283.476 452.86 281.309 454.436 280.127C456.012 278.945 458.376 279.339 459.558 280.915Z" fill="#FFD28A"/>
<path d="M476.106 269.094C477.288 270.867 476.894 273.034 475.318 274.216C473.545 275.398 471.378 275.004 470.196 273.428C469.014 271.655 469.408 269.488 470.984 268.306C472.56 267.124 474.924 267.518 476.106 269.094Z" fill="#FFD28A"/>
<path d="M492.652 257.276C493.834 259.049 493.44 261.216 491.864 262.398C490.091 263.58 487.924 263.186 486.742 261.61C485.56 259.837 485.954 257.67 487.53 256.488C489.106 255.306 491.47 255.7 492.652 257.276Z" fill="#FFD28A"/>
<path d="M476.103 286.625C477.285 288.398 476.891 290.564 475.315 291.746C473.542 292.928 471.375 292.534 470.193 290.958C469.011 289.186 469.405 287.019 470.981 285.837C472.557 284.655 474.921 285.049 476.103 286.625Z" fill="#FFD28A"/>
<path d="M492.652 274.805C493.834 276.578 493.44 278.745 491.864 279.927C490.091 281.109 487.924 280.715 486.742 279.139C485.56 277.366 485.954 275.199 487.53 274.017C489.106 272.835 491.47 273.229 492.652 274.805Z" fill="#FFD28A"/>
</g>
<path d="M1919.46 332.454C1886.37 335.409 1852.68 334.03 1819.78 331.666C1744.53 326.544 1669.67 311.77 1598.76 285.569C1525.48 258.582 1457.32 218.395 1400.78 164.222C1398.42 162.055 1401.96 158.509 1404.33 160.676C1523.7 275.326 1692.53 323.589 1854.85 328.514C1876.32 329.105 1898.19 329.302 1919.46 327.529C1922.61 327.135 1922.61 332.257 1919.46 332.454Z" fill="#9ED9DB"/>
<path d="M1769.75 320.241C1774.28 320.635 1781.57 321.423 1785.9 321.817L1808.95 323.984C1813.48 324.378 1815.06 327.727 1812.5 331.47L1775.46 386.037C1772.9 389.78 1769.55 389.386 1767.78 385.249L1741.77 324.772C1740 320.635 1742.17 317.68 1746.7 318.074L1769.75 320.241Z" fill="#FFC257"/>
<mask id="mask6" mask-type="alpha" maskUnits="userSpaceOnUse" x="1740" y="317" width="74" height="72">
<path d="M1769.51 319.882C1774.04 320.276 1781.33 321.064 1785.66 321.458L1808.71 323.625C1813.24 324.019 1814.81 327.368 1812.25 331.11L1775.22 385.677C1772.66 389.42 1769.31 389.026 1767.54 384.889L1741.53 324.413C1739.76 320.276 1741.93 317.321 1746.46 317.715L1769.51 319.882Z" fill="#FFC257"/>
</mask>
<g mask="url(#mask6)">
<path d="M1794.97 322.999C1794.77 324.969 1796.34 326.939 1798.31 327.136C1800.28 327.333 1802.25 325.757 1802.45 323.787C1802.65 321.817 1801.07 319.847 1799.1 319.65C1796.94 319.453 1795.16 321.029 1794.97 322.999Z" fill="#FFD28A"/>
<path d="M1774.67 321.03C1774.48 323 1776.05 324.969 1778.02 325.166C1779.99 325.363 1781.96 323.787 1782.16 321.818C1782.36 319.848 1780.78 317.878 1778.81 317.681C1776.84 317.484 1774.87 319.06 1774.67 321.03Z" fill="#FFD28A"/>
<path d="M1754.58 319.255C1754.38 321.225 1755.96 323.195 1757.93 323.392C1759.9 323.589 1761.87 322.013 1762.07 320.043C1762.26 318.073 1760.69 316.103 1758.72 315.906C1756.55 315.709 1754.78 317.088 1754.58 319.255Z" fill="#FFD28A"/>
<path d="M1734.29 317.285C1734.09 319.255 1735.67 321.225 1737.64 321.422C1739.61 321.619 1741.58 320.043 1741.78 318.073C1741.97 316.103 1740.4 314.134 1738.43 313.937C1736.26 313.74 1734.49 315.316 1734.29 317.285Z" fill="#FFD28A"/>
<path d="M1803.83 338.166C1803.63 340.136 1805.21 342.106 1807.18 342.303C1809.15 342.5 1811.12 340.924 1811.31 338.954C1811.51 336.984 1809.94 335.014 1807.97 334.817C1805.8 334.62 1804.03 336.196 1803.83 338.166Z" fill="#FFD28A"/>
<path d="M1783.54 336.196C1783.34 338.166 1784.92 340.135 1786.89 340.332C1788.86 340.529 1790.83 338.954 1791.03 336.984C1791.22 335.014 1789.65 333.044 1787.68 332.847C1785.51 332.65 1783.74 334.226 1783.54 336.196Z" fill="#FFD28A"/>
<path d="M1763.25 334.227C1763.05 336.197 1764.63 338.167 1766.6 338.364C1768.57 338.561 1770.54 336.985 1770.73 335.015C1770.93 333.045 1769.35 331.075 1767.38 330.878C1765.22 330.681 1763.44 332.257 1763.25 334.227Z" fill="#FFD28A"/>
<path d="M1743.15 332.452C1742.96 334.422 1744.53 336.392 1746.5 336.589C1748.47 336.786 1750.44 335.21 1750.64 333.24C1750.84 331.271 1749.26 329.301 1747.29 329.104C1745.12 328.907 1743.35 330.286 1743.15 332.452Z" fill="#FFD28A"/>
<path d="M1812.5 353.336C1812.3 355.306 1813.87 357.276 1815.84 357.473C1817.81 357.67 1819.78 356.094 1819.98 354.124C1820.18 352.154 1818.6 350.184 1816.63 349.987C1814.47 349.79 1812.69 351.169 1812.5 353.336Z" fill="#FFD28A"/>
<path d="M1792.21 351.366C1792.01 353.335 1793.59 355.305 1795.56 355.502C1797.53 355.699 1799.5 354.123 1799.69 352.154C1799.89 350.184 1798.31 348.214 1796.34 348.017C1794.37 347.82 1792.4 349.396 1792.21 351.366Z" fill="#FFD28A"/>
<path d="M1772.11 349.397C1771.92 351.367 1773.49 353.337 1775.46 353.534C1777.43 353.731 1779.4 352.155 1779.6 350.185C1779.8 348.215 1778.22 346.245 1776.25 346.048C1774.08 345.851 1772.31 347.427 1772.11 349.397Z" fill="#FFD28A"/>
<path d="M1751.82 347.426C1751.63 349.396 1753.2 351.366 1755.17 351.563C1757.14 351.76 1759.11 350.184 1759.31 348.214C1759.51 346.244 1757.93 344.274 1755.96 344.077C1753.79 343.88 1752.02 345.456 1751.82 347.426Z" fill="#FFD28A"/>
<path d="M1801.07 366.534C1800.87 368.503 1802.45 370.473 1804.42 370.67C1806.39 370.867 1808.36 369.291 1808.56 367.322C1808.75 365.352 1807.18 363.382 1805.21 363.185C1803.04 362.988 1801.27 364.367 1801.07 366.534Z" fill="#FFD28A"/>
<path d="M1780.78 364.564C1780.58 366.534 1782.16 368.504 1784.13 368.701C1786.1 368.898 1788.07 367.322 1788.27 365.352C1788.46 363.382 1786.89 361.412 1784.92 361.215C1782.95 361.018 1780.98 362.594 1780.78 364.564Z" fill="#FFD28A"/>
<path d="M1760.69 362.595C1760.49 364.565 1762.07 366.535 1764.04 366.732C1766.01 366.929 1767.98 365.353 1768.17 363.383C1768.37 361.413 1766.79 359.443 1764.82 359.246C1762.66 359.049 1760.88 360.625 1760.69 362.595Z" fill="#FFD28A"/>
<path d="M1740.4 360.624C1740.2 362.594 1741.78 364.564 1743.75 364.761C1745.72 364.958 1747.69 363.382 1747.88 361.412C1748.08 359.442 1746.5 357.472 1744.53 357.275C1742.37 357.078 1740.6 358.654 1740.4 360.624Z" fill="#FFD28A"/>
<path d="M1809.74 381.507C1809.54 383.477 1811.12 385.447 1813.09 385.644C1815.06 385.841 1817.03 384.265 1817.22 382.295C1817.42 380.325 1815.84 378.355 1813.87 378.158C1811.9 377.961 1809.93 379.537 1809.74 381.507Z" fill="#FFD28A"/>
<path d="M1789.64 379.733C1789.45 381.703 1791.02 383.673 1792.99 383.87C1794.96 384.067 1796.93 382.491 1797.13 380.521C1797.33 378.551 1795.75 376.581 1793.78 376.384C1791.61 376.187 1789.84 377.566 1789.64 379.733Z" fill="#FFD28A"/>
<path d="M1769.36 377.764C1769.16 379.734 1770.73 381.704 1772.7 381.901C1774.67 382.098 1776.64 380.522 1776.84 378.552C1777.04 376.582 1775.46 374.612 1773.49 374.415C1771.32 374.218 1769.55 375.794 1769.36 377.764Z" fill="#FFD28A"/>
<path d="M1749.07 375.793C1748.87 377.763 1750.44 379.733 1752.41 379.93C1754.38 380.127 1756.35 378.551 1756.55 376.581C1756.75 374.611 1755.17 372.641 1753.2 372.444C1751.23 372.247 1749.26 373.823 1749.07 375.793Z" fill="#FFD28A"/>
<path d="M1757.93 390.964C1757.73 392.934 1759.31 394.904 1761.28 395.101C1763.25 395.298 1765.22 393.722 1765.41 391.752C1765.61 389.782 1764.04 387.812 1762.07 387.615C1759.9 387.418 1758.13 388.994 1757.93 390.964Z" fill="#FFD28A"/>
<path d="M1737.64 388.993C1737.44 390.963 1739.02 392.933 1740.99 393.13C1742.96 393.327 1744.93 391.751 1745.13 389.781C1745.32 387.812 1743.75 385.842 1741.78 385.645C1739.81 385.448 1737.84 387.024 1737.64 388.993Z" fill="#FFD28A"/>
</g>
<path d="M1682.28 303.101C1686.62 304.086 1693.71 305.662 1698.24 306.647L1720.7 311.769C1725.03 312.754 1726.21 316.3 1723.26 319.649L1679.72 369.094C1676.77 372.443 1673.42 371.655 1672.04 367.321L1653.92 303.889C1652.74 299.556 1655.3 296.798 1659.63 297.783L1682.28 303.101Z" fill="#ACDDE5"/>
<mask id="mask7" mask-type="alpha" maskUnits="userSpaceOnUse" x="1653" y="297" width="72" height="75">
<path d="M1682.28 303.101C1686.62 304.086 1693.71 305.662 1698.24 306.647L1720.7 311.769C1725.03 312.754 1726.21 316.3 1723.26 319.649L1679.72 369.094C1676.77 372.443 1673.42 371.655 1672.04 367.321L1653.92 303.889C1652.74 299.556 1655.3 296.798 1659.63 297.783L1682.28 303.101Z" fill="#ACDDE5"/>
</mask>
<g mask="url(#mask7)">
<path d="M1713.02 309.208L1709.86 313.148L1704.74 312.754L1707.5 316.891L1705.53 321.619L1710.46 320.24L1714.2 323.588L1714.59 318.467L1718.73 315.906L1714.2 314.133L1713.02 309.208Z" fill="#7CD0D8"/>
<path d="M1689.18 303.89L1686.03 307.83L1680.91 307.436L1683.66 311.572L1681.89 316.3L1686.62 314.921L1690.56 318.073L1690.76 313.148L1695.09 310.587L1690.36 308.814L1689.18 303.89Z" fill="#7CD0D8"/>
<path d="M1665.35 298.57L1662.19 302.313L1657.27 302.116L1660.03 306.253L1658.06 310.784L1662.78 309.602L1666.72 312.754L1666.92 307.829L1671.25 305.268L1666.53 303.298L1665.35 298.57Z" fill="#7CD0D8"/>
<path d="M1720.3 331.666L1717.15 335.606L1712.23 335.212L1714.98 339.349L1713.01 344.077L1717.94 342.698L1721.68 346.046L1721.88 340.925L1726.21 338.364L1721.49 336.591L1720.3 331.666Z" fill="#7CD0D8"/>
<path d="M1696.67 326.347L1693.51 330.287L1688.39 329.893L1691.15 334.029L1689.18 338.757L1694.1 337.378L1697.85 340.727L1698.24 335.605L1702.38 333.044L1697.85 331.271L1696.67 326.347Z" fill="#7CD0D8"/>
<path d="M1672.83 321.028L1669.68 324.968L1664.56 324.574L1667.31 328.711L1665.54 333.439L1670.27 332.06L1674.21 335.212L1674.41 330.287L1678.74 327.726L1674.01 325.953L1672.83 321.028Z" fill="#7CD0D8"/>
<path d="M1648.99 315.709L1645.84 319.649L1640.92 319.255L1643.68 323.392L1641.71 327.923L1646.43 326.741L1650.37 329.892L1650.57 324.968L1654.9 322.407L1650.18 320.437L1648.99 315.709Z" fill="#7CD0D8"/>
<path d="M1727.79 354.121L1724.64 358.061L1719.71 357.667L1722.47 362.001L1720.5 366.532L1725.23 365.153L1729.17 368.502L1729.36 363.577L1733.7 360.819L1728.97 359.046L1727.79 354.121Z" fill="#7CD0D8"/>
<path d="M1703.95 348.802L1700.8 352.742L1695.88 352.348L1698.63 356.484L1696.66 361.212L1701.59 359.833L1705.33 363.182L1705.53 358.06L1709.86 355.499L1705.14 353.727L1703.95 348.802Z" fill="#7CD0D8"/>
<path d="M1680.31 343.485L1677.16 347.425L1672.04 347.031L1674.8 351.168L1672.83 355.896L1677.75 354.517L1681.5 357.866L1681.89 352.744L1686.03 350.183L1681.5 348.41L1680.31 343.485Z" fill="#7CD0D8"/>
<path d="M1656.48 338.166L1653.33 342.106L1648.2 341.712L1650.96 345.849L1649.19 350.577L1653.92 349.198L1657.86 352.546L1658.05 347.425L1662.39 344.864L1657.66 343.091L1656.48 338.166Z" fill="#7CD0D8"/>
<path d="M1687.6 365.941L1684.45 369.881L1679.53 369.487L1682.29 373.624L1680.32 378.352L1685.24 376.973L1688.98 380.322L1689.18 375.2L1693.51 372.639L1688.79 370.866L1687.6 365.941Z" fill="#7CD0D8"/>
<path d="M1663.96 360.624L1660.81 364.564L1655.69 364.17L1658.45 368.307L1656.48 373.035L1661.4 371.656L1665.15 375.004L1665.54 369.883L1669.68 367.322L1665.15 365.549L1663.96 360.624Z" fill="#7CD0D8"/>
</g>
<path d="M1857.21 326.739C1861.74 326.936 1869.03 327.133 1873.37 327.133L1896.61 327.921C1901.14 328.118 1902.91 331.27 1900.55 335.21L1867.26 392.141C1865.09 396.081 1861.55 395.884 1859.38 391.944L1829.44 333.24C1827.47 329.3 1829.44 326.148 1833.97 326.148L1857.21 326.739Z" fill="#5FDAE0"/>
<mask id="mask8" mask-type="alpha" maskUnits="userSpaceOnUse" x="1828" y="326" width="74" height="69">
<path d="M1857.21 326.739C1861.74 326.936 1869.03 327.133 1873.36 327.133L1896.61 327.921C1901.14 328.118 1902.91 331.27 1900.55 335.21L1867.26 392.141C1865.09 396.081 1861.55 395.884 1859.38 391.944L1829.44 333.24C1827.47 329.3 1829.44 326.148 1833.97 326.148L1857.21 326.739Z" fill="#5FDAE0"/>
</mask>
<g mask="url(#mask8)">
<path d="M1890.31 327.529C1890.31 325.953 1891.69 324.771 1893.07 324.771C1894.05 324.771 1895.04 325.362 1895.43 326.15C1896.02 325.362 1896.81 324.771 1897.79 324.771C1899.37 324.771 1900.55 326.15 1900.55 327.529C1900.55 328.317 1900.16 329.105 1899.57 329.499L1895.23 333.833L1891.1 329.302C1890.7 329.105 1890.31 328.317 1890.31 327.529Z" fill="#BDEDEF"/>
<path d="M1875.34 327.134C1875.34 325.558 1876.72 324.376 1878.09 324.376C1879.08 324.376 1880.06 324.967 1880.46 325.755C1881.05 324.967 1881.84 324.376 1882.82 324.376C1884.4 324.376 1885.58 325.755 1885.58 327.134C1885.58 327.922 1885.19 328.71 1884.6 329.104L1880.26 333.438L1876.12 328.907C1875.53 328.71 1875.14 327.922 1875.34 327.134Z" fill="#BDEDEF"/>
<path d="M1860.17 326.74C1860.17 325.164 1861.55 323.982 1862.93 323.982C1863.91 323.982 1864.9 324.573 1865.29 325.361C1865.88 324.573 1866.67 323.982 1867.65 323.982C1869.23 323.982 1870.41 325.361 1870.41 326.74C1870.41 327.528 1870.02 328.316 1869.43 328.71L1865.09 333.044L1860.96 328.513C1860.36 328.119 1860.17 327.528 1860.17 326.74Z" fill="#BDEDEF"/>
<path d="M1845 326.15C1845 324.575 1846.38 323.393 1847.76 323.393C1848.74 323.393 1849.73 323.984 1850.12 324.772C1850.71 323.984 1851.5 323.393 1852.49 323.393C1854.06 323.393 1855.24 324.772 1855.24 326.15C1855.24 326.938 1854.85 327.726 1854.26 328.12L1849.93 332.454L1845.79 327.923C1845.39 327.726 1845 326.938 1845 326.15Z" fill="#BDEDEF"/>
<path d="M1830.03 325.757C1830.03 324.181 1831.41 322.999 1832.79 322.999C1833.77 322.999 1834.76 323.59 1835.15 324.378C1835.74 323.59 1836.53 322.999 1837.52 322.999C1839.09 322.999 1840.27 324.378 1840.27 325.757C1840.27 326.545 1839.88 327.333 1839.29 327.727L1834.95 332.061L1830.82 327.53C1830.23 327.333 1829.83 326.545 1830.03 325.757Z" fill="#BDEDEF"/>
<path d="M1898.97 339.94C1898.97 338.364 1900.35 337.182 1901.73 337.182C1902.72 337.182 1903.7 337.773 1904.1 338.561C1904.69 337.773 1905.47 337.182 1906.46 337.182C1908.04 337.182 1909.22 338.561 1909.22 339.94C1909.22 340.728 1908.82 341.515 1908.23 341.909L1903.9 346.243L1899.76 341.712C1899.37 341.515 1898.97 340.728 1898.97 339.94Z" fill="#BDEDEF"/>
<path d="M1883.81 339.546C1883.81 337.97 1885.18 336.788 1886.56 336.788C1887.55 336.788 1888.53 337.379 1888.93 338.167C1889.52 337.379 1890.31 336.788 1891.29 336.788C1892.87 336.788 1894.05 338.167 1894.05 339.546C1894.05 340.334 1893.65 341.122 1893.06 341.516L1888.73 345.85L1884.59 341.319C1884.2 341.122 1883.81 340.334 1883.81 339.546Z" fill="#BDEDEF"/>
<path d="M1868.84 339.15C1868.84 337.575 1870.21 336.393 1871.59 336.393C1872.58 336.393 1873.56 336.984 1873.96 337.772C1874.55 336.984 1875.34 336.393 1876.32 336.393C1877.9 336.393 1879.08 337.772 1879.08 339.15C1879.08 339.938 1878.69 340.726 1878.09 341.12L1873.76 345.454L1869.62 340.923C1869.03 340.726 1868.84 339.938 1868.84 339.15Z" fill="#BDEDEF"/>
<path d="M1853.67 338.757C1853.67 337.181 1855.05 335.999 1856.42 335.999C1857.41 335.999 1858.39 336.59 1858.79 337.378C1859.38 336.59 1860.17 335.999 1861.15 335.999C1862.73 335.999 1863.91 337.378 1863.91 338.757C1863.91 339.545 1863.52 340.333 1862.93 340.727L1858.59 345.061L1854.45 340.53C1854.06 340.136 1853.67 339.545 1853.67 338.757Z" fill="#BDEDEF"/>
<path d="M1838.5 338.165C1838.5 336.589 1839.88 335.407 1841.26 335.407C1842.24 335.407 1843.23 335.998 1843.62 336.786C1844.21 335.998 1845 335.407 1845.98 335.407C1847.56 335.407 1848.74 336.786 1848.74 338.165C1848.74 338.953 1848.35 339.741 1847.76 340.135L1843.42 344.469L1839.29 339.938C1838.89 339.741 1838.5 338.953 1838.5 338.165Z" fill="#BDEDEF"/>
<path d="M1823.53 337.772C1823.53 336.196 1824.91 335.014 1826.28 335.014C1827.27 335.014 1828.25 335.605 1828.65 336.393C1829.24 335.605 1830.03 335.014 1831.01 335.014C1832.59 335.014 1833.77 336.393 1833.77 337.772C1833.77 338.56 1833.38 339.347 1832.79 339.741L1828.45 344.075L1824.31 339.544C1823.72 339.347 1823.53 338.56 1823.53 337.772Z" fill="#BDEDEF"/>
<path d="M1889.72 351.957C1889.72 350.381 1891.1 349.199 1892.47 349.199C1893.46 349.199 1894.44 349.79 1894.84 350.578C1895.43 349.79 1896.22 349.199 1897.2 349.199C1898.78 349.199 1899.96 350.578 1899.96 351.957C1899.96 352.745 1899.57 353.533 1898.97 353.927L1894.64 358.261L1890.5 353.73C1889.91 353.533 1889.52 352.745 1889.72 351.957Z" fill="#BDEDEF"/>
<path d="M1874.55 351.563C1874.55 349.987 1875.93 348.805 1877.31 348.805C1878.29 348.805 1879.28 349.396 1879.67 350.184C1880.26 349.396 1881.05 348.805 1882.03 348.805C1883.61 348.805 1884.79 350.184 1884.79 351.563C1884.79 352.351 1884.4 353.139 1883.81 353.532L1879.47 357.866L1875.34 353.336C1874.75 352.942 1874.55 352.351 1874.55 351.563Z" fill="#BDEDEF"/>
<path d="M1859.38 350.973C1859.38 349.397 1860.76 348.215 1862.14 348.215C1863.12 348.215 1864.11 348.806 1864.5 349.594C1865.09 348.806 1865.88 348.215 1866.87 348.215C1868.44 348.215 1869.62 349.594 1869.62 350.973C1869.62 351.761 1869.23 352.549 1868.64 352.943L1864.3 357.276L1860.17 352.746C1859.77 352.549 1859.38 351.761 1859.38 350.973Z" fill="#BDEDEF"/>
<path d="M1844.41 350.577C1844.41 349.001 1845.79 347.819 1847.17 347.819C1848.15 347.819 1849.14 348.41 1849.53 349.198C1850.12 348.41 1850.91 347.819 1851.89 347.819C1853.47 347.819 1854.65 349.198 1854.65 350.577C1854.65 351.365 1854.26 352.153 1853.67 352.547L1849.33 356.881L1845.2 352.35C1844.61 352.153 1844.21 351.365 1844.41 350.577Z" fill="#BDEDEF"/>
<path d="M1829.24 350.184C1829.24 348.608 1830.62 347.426 1832 347.426C1832.98 347.426 1833.97 348.017 1834.36 348.805C1834.95 348.017 1835.74 347.426 1836.73 347.426C1838.3 347.426 1839.48 348.805 1839.48 350.184C1839.48 350.972 1839.09 351.76 1838.5 352.154L1834.16 356.487L1830.03 351.957C1829.44 351.563 1829.24 350.972 1829.24 350.184Z" fill="#BDEDEF"/>
<path d="M1898.19 364.364C1898.19 362.788 1899.57 361.606 1900.94 361.606C1901.93 361.606 1902.91 362.197 1903.31 362.985C1903.9 362.197 1904.69 361.606 1905.67 361.606C1907.25 361.606 1908.43 362.985 1908.43 364.364C1908.43 365.152 1908.04 365.94 1907.44 366.334L1903.11 370.668L1898.97 366.137C1898.58 365.94 1898.19 365.152 1898.19 364.364Z" fill="#BDEDEF"/>
<path d="M1883.22 363.971C1883.22 362.395 1884.59 361.213 1885.97 361.213C1886.96 361.213 1887.94 361.804 1888.34 362.592C1888.93 361.804 1889.72 361.213 1890.7 361.213C1892.28 361.213 1893.46 362.592 1893.46 363.971C1893.46 364.759 1893.06 365.547 1892.47 365.941L1888.14 370.275L1884 365.744C1883.41 365.547 1883.22 364.759 1883.22 363.971Z" fill="#BDEDEF"/>
<path d="M1868.05 363.577C1868.05 362.001 1869.43 360.819 1870.8 360.819C1871.79 360.819 1872.77 361.41 1873.17 362.198C1873.76 361.41 1874.55 360.819 1875.53 360.819C1877.11 360.819 1878.29 362.198 1878.29 363.577C1878.29 364.365 1877.9 365.153 1877.31 365.547L1872.97 369.881L1868.83 365.35C1868.44 364.956 1868.05 364.365 1868.05 363.577Z" fill="#BDEDEF"/>
<path d="M1852.88 362.987C1852.88 361.411 1854.26 360.229 1855.64 360.229C1856.62 360.229 1857.61 360.82 1858 361.608C1858.59 360.82 1859.38 360.229 1860.36 360.229C1861.94 360.229 1863.12 361.608 1863.12 362.987C1863.12 363.775 1862.73 364.563 1862.14 364.957L1857.8 369.291L1853.67 364.76C1853.27 364.563 1852.88 363.775 1852.88 362.987Z" fill="#BDEDEF"/>
<path d="M1837.91 362.593C1837.91 361.017 1839.29 359.835 1840.66 359.835C1841.65 359.835 1842.63 360.426 1843.03 361.214C1843.62 360.426 1844.41 359.835 1845.39 359.835C1846.97 359.835 1848.15 361.214 1848.15 362.593C1848.15 363.381 1847.76 364.169 1847.17 364.563L1842.83 368.897L1838.69 364.366C1838.1 364.169 1837.91 363.381 1837.91 362.593Z" fill="#BDEDEF"/>
<path d="M1822.74 362.199C1822.74 360.623 1824.12 359.441 1825.5 359.441C1826.48 359.441 1827.47 360.032 1827.86 360.82C1828.45 360.032 1829.24 359.441 1830.22 359.441C1831.8 359.441 1832.98 360.82 1832.98 362.199C1832.98 362.987 1832.59 363.775 1832 364.169L1827.66 368.503L1823.53 363.972C1823.13 363.578 1822.74 362.987 1822.74 362.199Z" fill="#BDEDEF"/>
<path d="M1888.93 376.382C1888.93 374.806 1890.31 373.624 1891.69 373.624C1892.67 373.624 1893.66 374.215 1894.05 375.003C1894.64 374.215 1895.43 373.624 1896.41 373.624C1897.99 373.624 1899.17 375.003 1899.17 376.382C1899.17 377.17 1898.78 377.958 1898.19 378.352L1893.85 382.686L1889.72 378.155C1889.13 377.761 1888.93 377.17 1888.93 376.382Z" fill="#BDEDEF"/>
<path d="M1873.76 375.792C1873.76 374.216 1875.14 373.034 1876.52 373.034C1877.5 373.034 1878.49 373.625 1878.88 374.413C1879.47 373.625 1880.26 373.034 1881.25 373.034C1882.82 373.034 1884 374.413 1884 375.792C1884 376.58 1883.61 377.368 1883.02 377.762L1878.69 382.096L1874.55 377.565C1874.15 377.368 1873.76 376.58 1873.76 375.792Z" fill="#BDEDEF"/>
<path d="M1858.79 375.399C1858.79 373.823 1860.17 372.641 1861.55 372.641C1862.53 372.641 1863.52 373.232 1863.91 374.02C1864.5 373.232 1865.29 372.641 1866.28 372.641C1867.85 372.641 1869.03 374.02 1869.03 375.399C1869.03 376.186 1868.64 376.974 1868.05 377.368L1863.71 381.702L1859.58 377.171C1858.99 376.974 1858.59 376.186 1858.79 375.399Z" fill="#BDEDEF"/>
<path d="M1843.62 375.004C1843.62 373.428 1845 372.246 1846.38 372.246C1847.36 372.246 1848.35 372.837 1848.74 373.625C1849.33 372.837 1850.12 372.246 1851.11 372.246C1852.68 372.246 1853.86 373.625 1853.86 375.004C1853.86 375.792 1853.47 376.58 1852.88 376.974L1848.55 381.308L1844.41 376.777C1843.82 376.383 1843.62 375.792 1843.62 375.004Z" fill="#BDEDEF"/>
<path d="M1828.45 374.413C1828.45 372.837 1829.83 371.655 1831.21 371.655C1832.19 371.655 1833.18 372.246 1833.57 373.034C1834.16 372.246 1834.95 371.655 1835.94 371.655C1837.51 371.655 1838.7 373.034 1838.7 374.413C1838.7 375.201 1838.3 375.989 1837.71 376.383L1833.38 380.717L1829.24 376.186C1828.85 375.989 1828.45 375.398 1828.45 374.413Z" fill="#BDEDEF"/>
<path d="M1897.6 388.792C1897.6 387.216 1898.98 386.034 1900.36 386.034C1901.34 386.034 1902.33 386.625 1902.72 387.413C1903.31 386.625 1904.1 386.034 1905.08 386.034C1906.66 386.034 1907.84 387.413 1907.84 388.792C1907.84 389.58 1907.45 390.368 1906.86 390.762L1902.52 395.096L1898.39 390.565C1897.79 390.368 1897.6 389.58 1897.6 388.792Z" fill="#BDEDEF"/>
<path d="M1882.43 388.399C1882.43 386.823 1883.81 385.641 1885.19 385.641C1886.17 385.641 1887.16 386.232 1887.55 387.02C1888.14 386.232 1888.93 385.641 1889.91 385.641C1891.49 385.641 1892.67 387.02 1892.67 388.399C1892.67 389.186 1892.28 389.974 1891.69 390.368L1887.35 394.702L1883.22 390.171C1882.82 389.777 1882.43 389.186 1882.43 388.399Z" fill="#BDEDEF"/>
<path d="M1867.26 387.808C1867.26 386.232 1868.64 385.05 1870.02 385.05C1871 385.05 1871.99 385.641 1872.38 386.429C1872.97 385.641 1873.76 385.05 1874.75 385.05C1876.32 385.05 1877.5 386.429 1877.5 387.808C1877.5 388.596 1877.11 389.384 1876.52 389.778L1872.19 394.111L1868.05 389.581C1867.65 389.384 1867.26 388.596 1867.26 387.808Z" fill="#BDEDEF"/>
<path d="M1852.29 387.414C1852.29 385.838 1853.67 384.656 1855.05 384.656C1856.03 384.656 1857.02 385.247 1857.41 386.035C1858 385.247 1858.79 384.656 1859.78 384.656C1861.35 384.656 1862.53 386.035 1862.53 387.414C1862.53 388.202 1862.14 388.99 1861.55 389.384L1857.21 393.718L1853.08 389.187C1852.49 388.99 1852.29 388.202 1852.29 387.414Z" fill="#BDEDEF"/>
<path d="M1837.12 387.019C1837.12 385.443 1838.5 384.261 1839.88 384.261C1840.86 384.261 1841.85 384.852 1842.24 385.64C1842.83 384.852 1843.62 384.261 1844.61 384.261C1846.18 384.261 1847.36 385.64 1847.36 387.019C1847.36 387.807 1846.97 388.595 1846.38 388.989L1842.04 393.322L1837.91 388.792C1837.51 388.398 1837.12 387.807 1837.12 387.019Z" fill="#BDEDEF"/>
<path d="M1821.95 386.429C1821.95 384.853 1823.33 383.671 1824.71 383.671C1825.69 383.671 1826.68 384.262 1827.07 385.05C1827.66 384.262 1828.45 383.671 1829.44 383.671C1831.01 383.671 1832.19 385.05 1832.19 386.429C1832.19 387.217 1831.8 388.005 1831.21 388.399L1826.88 392.733L1822.74 388.202C1822.34 388.005 1821.95 387.217 1821.95 386.429Z" fill="#BDEDEF"/>
</g>
<path d="M1599.94 277.295C1604.08 278.674 1611.17 281.234 1615.31 282.613L1637.17 290.296C1641.31 291.675 1642.1 295.418 1638.75 298.373L1589.89 342.696C1586.55 345.651 1583.2 344.469 1582.61 340.135L1571.57 275.128C1570.79 270.794 1573.74 268.233 1577.88 269.809L1599.94 277.295Z" fill="#FFC257"/>
<mask id="mask9" mask-type="alpha" maskUnits="userSpaceOnUse" x="1571" y="269" width="70" height="76">
<path d="M1599.94 277.295C1604.08 278.674 1611.17 281.234 1615.31 282.613L1637.17 290.296C1641.31 291.675 1642.1 295.418 1638.75 298.373L1589.89 342.696C1586.55 345.651 1583.2 344.469 1582.61 340.135L1571.57 275.128C1570.79 270.794 1573.74 268.233 1577.88 269.809L1599.94 277.295Z" fill="#FFC257"/>
</mask>
<g mask="url(#mask9)">
<path d="M1623.78 285.962C1623.19 287.932 1624.17 290.099 1626.14 290.69C1628.11 291.281 1630.28 290.296 1630.87 288.326C1631.46 286.356 1630.47 284.189 1628.5 283.598C1626.53 283.007 1624.37 283.992 1623.78 285.962Z" fill="#FFD28A"/>
<path d="M1604.47 279.267C1603.88 281.237 1604.87 283.404 1606.84 283.994C1608.81 284.585 1610.97 283.601 1611.56 281.631C1612.16 279.661 1611.17 277.494 1609.2 276.903C1607.23 276.312 1605.26 277.297 1604.47 279.267Z" fill="#FFD28A"/>
<path d="M1585.36 272.567C1584.77 274.537 1585.76 276.704 1587.73 277.295C1589.7 277.886 1591.86 276.901 1592.45 274.931C1593.05 272.961 1592.06 270.795 1590.09 270.204C1588.12 269.613 1585.95 270.598 1585.36 272.567Z" fill="#FFD28A"/>
<path d="M1566.06 266.065C1565.47 268.035 1566.45 270.202 1568.42 270.793C1570.39 271.384 1572.56 270.399 1573.15 268.429C1573.74 266.459 1572.76 264.292 1570.79 263.701C1568.82 262.913 1566.85 264.095 1566.06 266.065Z" fill="#FFD28A"/>
<path d="M1628.7 302.706C1628.11 304.676 1629.1 306.843 1631.07 307.434C1633.04 308.025 1635.2 307.04 1635.79 305.07C1636.39 303.1 1635.4 300.933 1633.43 300.342C1631.46 299.751 1629.29 300.736 1628.7 302.706Z" fill="#FFD28A"/>
<path d="M1609.4 296.008C1608.81 297.978 1609.79 300.145 1611.76 300.736C1613.73 301.327 1615.9 300.342 1616.49 298.372C1617.08 296.402 1616.1 294.235 1614.13 293.644C1612.16 293.053 1610.19 294.038 1609.4 296.008Z" fill="#FFD28A"/>
<path d="M1590.29 289.311C1589.7 291.281 1590.68 293.447 1592.65 294.038C1594.62 294.629 1596.79 293.644 1597.38 291.675C1597.97 289.705 1596.99 287.538 1595.02 286.947C1593.05 286.356 1590.88 287.538 1590.29 289.311Z" fill="#FFD28A"/>
<path d="M1570.98 282.81C1570.39 284.78 1571.38 286.946 1573.35 287.537C1575.32 288.128 1577.48 287.143 1578.07 285.174C1578.67 283.204 1577.68 281.037 1575.71 280.446C1573.94 279.855 1571.77 280.84 1570.98 282.81Z" fill="#FFD28A"/>
<path d="M1633.63 319.45C1633.04 321.42 1634.02 323.587 1635.99 324.178C1637.96 324.769 1640.13 323.784 1640.72 321.814C1641.31 319.844 1640.33 317.677 1638.36 317.086C1636.39 316.495 1634.22 317.48 1633.63 319.45Z" fill="#FFD28A"/>
<path d="M1614.32 312.753C1613.73 314.723 1614.72 316.89 1616.69 317.481C1618.66 318.072 1620.82 317.087 1621.41 315.117C1622 313.147 1621.02 310.98 1619.05 310.389C1617.08 309.798 1615.11 310.98 1614.32 312.753Z" fill="#FFD28A"/>
<path d="M1595.21 306.252C1594.62 308.222 1595.61 310.389 1597.58 310.98C1599.55 311.571 1601.71 310.586 1602.31 308.616C1602.9 306.646 1601.91 304.479 1599.94 303.888C1597.97 303.1 1595.8 304.282 1595.21 306.252Z" fill="#FFD28A"/>
<path d="M1575.91 299.555C1575.32 301.525 1576.3 303.692 1578.27 304.283C1580.24 304.874 1582.41 303.889 1583 301.919C1583.59 299.949 1582.61 297.782 1580.64 297.191C1578.86 296.6 1576.7 297.585 1575.91 299.555Z" fill="#FFD28A"/>
<path d="M1619.25 329.694C1618.66 331.664 1619.64 333.831 1621.61 334.422C1623.58 335.013 1625.75 334.028 1626.34 332.058C1626.93 330.088 1625.95 327.921 1623.98 327.33C1622.01 326.542 1620.04 327.724 1619.25 329.694Z" fill="#FFD28A"/>
<path d="M1600.14 322.996C1599.55 324.966 1600.53 327.133 1602.5 327.724C1604.47 328.315 1606.64 327.33 1607.23 325.36C1607.82 323.39 1606.84 321.223 1604.87 320.632C1602.9 320.041 1600.73 321.026 1600.14 322.996Z" fill="#FFD28A"/>
<path d="M1580.83 316.299C1580.24 318.269 1581.23 320.436 1583.2 321.027C1585.17 321.618 1587.34 320.633 1587.93 318.663C1588.52 316.693 1587.53 314.526 1585.56 313.935C1583.79 313.344 1581.62 314.329 1580.83 316.299Z" fill="#FFD28A"/>
<path d="M1624.17 346.439C1623.58 348.408 1624.57 350.575 1626.54 351.166C1628.51 351.757 1630.67 350.772 1631.26 348.802C1631.85 346.833 1630.87 344.666 1628.9 344.075C1627.13 343.484 1624.96 344.469 1624.17 346.439Z" fill="#FFD28A"/>
<path d="M1605.06 339.739C1604.47 341.709 1605.46 343.876 1607.43 344.467C1609.4 345.058 1611.56 344.073 1612.15 342.103C1612.74 340.133 1611.76 337.966 1609.79 337.375C1607.82 336.784 1605.65 337.769 1605.06 339.739Z" fill="#FFD28A"/>
<path d="M1585.76 333.044C1585.17 335.014 1586.15 337.181 1588.12 337.772C1590.09 338.363 1592.26 337.378 1592.85 335.408C1593.44 333.438 1592.46 331.271 1590.49 330.68C1588.71 330.089 1586.55 331.074 1585.76 333.044Z" fill="#FFD28A"/>
<path d="M1566.65 326.345C1566.06 328.315 1567.04 330.482 1569.01 331.073C1570.98 331.664 1573.15 330.679 1573.74 328.709C1574.33 326.739 1573.35 324.572 1571.38 323.981C1569.41 323.39 1567.24 324.375 1566.65 326.345Z" fill="#FFD28A"/>
<path d="M1571.57 343.087C1570.98 345.057 1571.97 347.224 1573.94 347.815C1575.91 348.406 1578.07 347.421 1578.66 345.451C1579.26 343.481 1578.27 341.314 1576.3 340.723C1574.33 340.132 1572.16 341.117 1571.57 343.087Z" fill="#FFD28A"/>
</g>
<path d="M1520.16 243.411C1524.1 245.381 1530.6 248.73 1534.73 250.7L1555.42 261.141C1559.36 263.111 1559.75 266.854 1556.01 269.414L1501.64 306.843C1497.9 309.404 1494.74 307.828 1494.74 303.297L1492.58 237.502C1492.38 232.971 1495.53 231.001 1499.47 232.971L1520.16 243.411Z" fill="#5FDAE0"/>
<mask id="mask10" mask-type="alpha" maskUnits="userSpaceOnUse" x="1492" y="232" width="67" height="77">
<path d="M1520.16 243.411C1524.1 245.381 1530.6 248.73 1534.73 250.7L1555.42 261.141C1559.36 263.111 1559.75 266.854 1556.01 269.414L1501.64 306.843C1497.9 309.404 1494.75 307.828 1494.75 303.297L1492.58 237.502C1492.38 232.971 1495.53 231.001 1499.47 232.971L1520.16 243.411Z" fill="#5FDAE0"/>
</mask>
<g mask="url(#mask10)">
<path d="M1549.9 258.187C1550.49 256.808 1552.27 256.217 1553.64 257.005C1554.63 257.399 1555.02 258.384 1555.22 259.369C1556.01 258.778 1556.99 258.778 1557.98 259.172C1559.36 259.763 1559.95 261.536 1559.16 262.915C1558.77 263.703 1558.17 264.097 1557.39 264.294L1551.48 266.461L1549.7 260.551C1549.51 259.763 1549.51 258.975 1549.9 258.187Z" fill="#BDEDEF"/>
<path d="M1536.51 251.293C1537.1 249.914 1538.87 249.323 1540.25 250.111C1541.23 250.505 1541.63 251.49 1541.83 252.475C1542.61 251.884 1543.6 251.884 1544.58 252.278C1545.96 252.869 1546.55 254.642 1545.77 256.021C1545.37 256.808 1544.78 257.202 1543.99 257.399L1538.08 259.566L1536.31 253.657C1536.11 252.869 1536.11 252.081 1536.51 251.293Z" fill="#BDEDEF"/>
<path d="M1522.91 244.594C1523.5 243.216 1525.28 242.625 1526.66 243.413C1527.64 243.806 1528.04 244.791 1528.23 245.776C1529.02 245.185 1530.01 245.185 1530.99 245.579C1532.37 246.17 1532.96 247.943 1532.17 249.322C1531.78 250.11 1531.19 250.504 1530.4 250.701L1524.49 252.868L1522.72 246.958C1522.52 246.17 1522.52 245.382 1522.91 244.594Z" fill="#BDEDEF"/>
<path d="M1509.52 237.701C1510.11 236.322 1511.88 235.731 1513.26 236.519C1514.25 236.913 1514.64 237.898 1514.84 238.883C1515.62 238.292 1516.61 238.292 1517.59 238.686C1518.97 239.277 1519.56 241.05 1518.78 242.429C1518.38 243.217 1517.79 243.611 1517 243.808L1511.09 245.778L1509.32 239.868C1509.12 239.277 1509.12 238.489 1509.52 237.701Z" fill="#BDEDEF"/>
<path d="M1495.92 231.003C1496.52 229.624 1498.29 229.033 1499.67 229.821C1500.65 230.215 1501.05 231.2 1501.24 232.185C1502.03 231.594 1503.02 231.594 1504 231.988C1505.38 232.579 1505.97 234.352 1505.18 235.73C1504.79 236.518 1504.2 236.912 1503.41 237.109L1497.5 239.079L1495.73 233.17C1495.53 232.579 1495.53 231.791 1495.92 231.003Z" fill="#BDEDEF"/>
<path d="M1552.46 273.159C1553.05 271.78 1554.83 271.189 1556.21 271.977C1557.19 272.371 1557.59 273.356 1557.78 274.341C1558.57 273.75 1559.56 273.75 1560.54 274.144C1561.92 274.932 1562.51 276.508 1561.72 277.887C1561.33 278.675 1560.74 279.069 1559.95 279.266L1554.04 281.236L1552.27 275.326C1552.07 274.538 1552.07 273.75 1552.46 273.159Z" fill="#BDEDEF"/>
<path d="M1539.07 266.263C1539.66 264.884 1541.43 264.293 1542.81 265.081C1543.8 265.475 1544.19 266.46 1544.39 267.445C1545.17 266.854 1546.16 266.854 1547.14 267.248C1548.52 267.839 1549.11 269.612 1548.33 270.991C1547.93 271.779 1547.34 272.173 1546.55 272.37L1540.64 274.34L1538.87 268.43C1538.67 267.839 1538.67 267.051 1539.07 266.263Z" fill="#BDEDEF"/>
<path d="M1525.48 259.565C1526.07 258.186 1527.84 257.595 1529.22 258.383C1530.2 258.777 1530.6 259.762 1530.79 260.747C1531.58 260.156 1532.57 260.156 1533.55 260.55C1534.93 261.141 1535.52 262.914 1534.73 264.293C1534.34 265.081 1533.75 265.475 1532.96 265.672L1527.05 267.642L1525.28 261.732C1525.08 260.944 1525.08 260.156 1525.48 259.565Z" fill="#BDEDEF"/>
<path d="M1512.08 252.67C1512.67 251.291 1514.44 250.7 1515.82 251.488C1516.81 251.882 1517.2 252.867 1517.4 253.852C1518.19 253.261 1519.17 253.261 1520.16 253.655C1521.54 254.246 1522.13 256.019 1521.34 257.397C1520.94 258.185 1520.35 258.579 1519.57 258.776L1513.66 260.746L1511.88 254.837C1511.69 254.246 1511.69 253.458 1512.08 252.67Z" fill="#BDEDEF"/>
<path d="M1498.49 245.974C1499.08 244.595 1500.85 244.004 1502.23 244.792C1503.21 245.186 1503.61 246.171 1503.8 247.156C1504.59 246.565 1505.58 246.565 1506.56 246.959C1507.94 247.55 1508.53 249.323 1507.74 250.702C1507.35 251.49 1506.76 251.884 1505.97 252.081L1500.06 254.248L1498.29 248.338C1498.09 247.353 1498.09 246.565 1498.49 245.974Z" fill="#BDEDEF"/>
<path d="M1485.09 239.079C1485.68 237.7 1487.45 237.109 1488.83 237.897C1489.82 238.291 1490.21 239.276 1490.41 240.261C1491.2 239.67 1492.18 239.67 1493.17 240.064C1494.55 240.655 1495.14 242.428 1494.35 243.807C1493.96 244.595 1493.36 244.989 1492.58 245.186L1486.67 247.156L1484.89 241.246C1484.7 240.655 1484.7 239.867 1485.09 239.079Z" fill="#BDEDEF"/>
<path d="M1552.46 286.752C1553.06 285.373 1554.83 284.782 1556.21 285.57C1557.19 285.964 1557.59 286.949 1557.78 287.934C1558.57 287.343 1559.56 287.343 1560.54 287.737C1561.92 288.328 1562.51 290.101 1561.72 291.479C1561.33 292.267 1560.74 292.661 1559.95 292.858L1554.04 295.025L1552.27 289.116C1552.07 288.328 1552.07 287.54 1552.46 286.752Z" fill="#BDEDEF"/>
<path d="M1538.87 280.052C1539.46 278.674 1541.24 278.083 1542.61 278.871C1543.6 279.264 1543.99 280.249 1544.19 281.234C1544.98 280.643 1545.96 280.643 1546.95 281.037C1548.33 281.628 1548.92 283.401 1548.13 284.78C1547.74 285.568 1547.15 285.962 1546.36 286.159L1540.45 288.326L1538.67 282.416C1538.48 281.431 1538.67 280.643 1538.87 280.052Z" fill="#BDEDEF"/>
<path d="M1525.48 273.158C1526.07 271.779 1527.84 271.188 1529.22 271.976C1530.2 272.37 1530.6 273.355 1530.8 274.34C1531.58 273.749 1532.57 273.749 1533.55 274.143C1534.93 274.734 1535.52 276.507 1534.73 277.886C1534.34 278.674 1533.75 279.068 1532.96 279.265L1527.05 281.432L1525.28 275.522C1525.08 274.734 1525.08 273.946 1525.48 273.158Z" fill="#BDEDEF"/>
<path d="M1511.88 266.262C1512.47 264.883 1514.25 264.293 1515.63 265.08C1516.61 265.474 1517.01 266.459 1517.2 267.444C1517.99 266.853 1518.98 266.853 1519.96 267.247C1521.34 267.838 1521.93 269.611 1521.14 270.99C1520.75 271.778 1520.16 272.172 1519.37 272.369L1513.46 274.339L1511.69 268.429C1511.49 267.838 1511.69 267.05 1511.88 266.262Z" fill="#BDEDEF"/>
<path d="M1498.49 259.567C1499.08 258.188 1500.85 257.597 1502.23 258.385C1503.21 258.779 1503.61 259.764 1503.81 260.749C1504.59 260.158 1505.58 260.158 1506.56 260.552C1507.94 261.143 1508.53 262.916 1507.75 264.295C1507.35 265.083 1506.76 265.477 1505.97 265.674L1500.06 267.841L1498.29 261.931C1498.09 261.143 1498.09 260.355 1498.49 259.567Z" fill="#BDEDEF"/>
<path d="M1484.89 252.672C1485.49 251.293 1487.26 250.702 1488.64 251.49C1489.62 251.884 1490.02 252.869 1490.21 253.854C1491 253.263 1491.99 253.263 1492.97 253.657C1494.35 254.248 1494.94 256.02 1494.15 257.399C1493.76 258.187 1493.17 258.581 1492.38 258.778L1486.47 260.748L1484.7 254.839C1484.5 254.248 1484.5 253.46 1484.89 252.672Z" fill="#BDEDEF"/>
<path d="M1541.43 294.83C1542.02 293.451 1543.8 292.86 1545.18 293.648C1546.16 294.042 1546.56 295.027 1546.75 296.012C1547.54 295.421 1548.53 295.421 1549.51 295.815C1550.89 296.406 1551.48 298.179 1550.69 299.558C1550.3 300.346 1549.71 300.74 1548.92 300.937L1543.01 303.103L1541.24 297.194C1541.24 296.406 1541.24 295.618 1541.43 294.83Z" fill="#BDEDEF"/>
<path d="M1528.04 288.132C1528.63 286.753 1530.4 286.162 1531.78 286.95C1532.77 287.344 1533.16 288.329 1533.36 289.314C1534.14 288.723 1535.13 288.723 1536.11 289.117C1537.49 289.708 1538.08 291.48 1537.3 292.859C1536.9 293.647 1536.31 294.041 1535.52 294.238L1529.61 296.208L1527.84 290.298C1527.64 289.511 1527.64 288.723 1528.04 288.132Z" fill="#BDEDEF"/>
<path d="M1514.45 281.236C1515.04 279.857 1516.81 279.266 1518.19 280.054C1519.17 280.448 1519.57 281.433 1519.76 282.418C1520.55 281.827 1521.54 281.827 1522.52 282.221C1523.9 282.812 1524.49 284.585 1523.7 285.964C1523.31 286.752 1522.72 287.146 1521.93 287.343L1516.02 289.51L1514.25 283.6C1514.05 282.812 1514.25 282.024 1514.45 281.236Z" fill="#BDEDEF"/>
<path d="M1501.05 274.537C1501.64 273.158 1503.41 272.567 1504.79 273.355C1505.78 273.749 1506.17 274.734 1506.37 275.719C1507.16 275.128 1508.14 275.128 1509.13 275.522C1510.51 276.113 1511.1 277.886 1510.31 279.265C1509.92 280.053 1509.32 280.447 1508.54 280.644L1502.63 282.811L1500.85 276.901C1500.66 275.916 1500.66 275.128 1501.05 274.537Z" fill="#BDEDEF"/>
<path d="M1487.46 267.644C1488.05 266.265 1489.82 265.674 1491.2 266.462C1492.18 266.856 1492.58 267.841 1492.78 268.826C1493.56 268.235 1494.55 268.235 1495.53 268.629C1496.91 269.22 1497.5 270.993 1496.72 272.372C1496.32 273.16 1495.73 273.554 1494.94 273.751L1489.03 275.721L1487.26 269.811C1487.06 269.22 1487.26 268.432 1487.46 267.644Z" fill="#BDEDEF"/>
<path d="M1541.43 308.618C1542.02 307.239 1543.79 306.648 1545.17 307.436C1546.16 307.83 1546.55 308.815 1546.75 309.8C1547.54 309.209 1548.52 309.209 1549.51 309.603C1550.89 310.194 1551.48 311.967 1550.69 313.346C1550.29 314.134 1549.7 314.528 1548.92 314.725L1543.01 316.695L1541.23 310.785C1541.04 309.997 1541.04 309.209 1541.43 308.618Z" fill="#BDEDEF"/>
<path d="M1528.03 301.722C1528.62 300.343 1530.4 299.752 1531.78 300.54C1532.76 300.934 1533.16 301.919 1533.35 302.904C1534.14 302.313 1535.13 302.313 1536.11 302.707C1537.49 303.298 1538.08 305.071 1537.29 306.45C1536.9 307.238 1536.31 307.632 1535.52 307.829L1529.61 309.996L1527.84 304.086C1527.64 303.298 1527.64 302.51 1528.03 301.722Z" fill="#BDEDEF"/>
<path d="M1514.44 295.024C1515.03 293.645 1516.81 293.054 1518.19 293.842C1519.17 294.236 1519.56 295.221 1519.76 296.206C1520.55 295.615 1521.53 295.615 1522.52 296.009C1523.9 296.6 1524.49 298.373 1523.7 299.752C1523.31 300.54 1522.72 300.934 1521.93 301.131L1516.02 303.298L1514.25 297.388C1514.05 296.403 1514.05 295.615 1514.44 295.024Z" fill="#BDEDEF"/>
<path d="M1501.05 288.129C1501.64 286.75 1503.41 286.159 1504.79 286.947C1505.77 287.341 1506.17 288.326 1506.37 289.311C1507.15 288.72 1508.14 288.72 1509.12 289.114C1510.5 289.705 1511.09 291.478 1510.31 292.856C1509.91 293.644 1509.32 294.038 1508.53 294.235L1502.62 296.402L1500.85 290.493C1500.65 289.705 1500.65 288.917 1501.05 288.129Z" fill="#BDEDEF"/>
<path d="M1487.45 281.432C1488.04 280.053 1489.82 279.462 1491.2 280.25C1492.18 280.644 1492.57 281.629 1492.77 282.614C1493.56 282.023 1494.54 282.023 1495.53 282.417C1496.91 283.008 1497.5 284.781 1496.71 286.16C1496.32 286.948 1495.73 287.342 1494.94 287.539L1489.03 289.509L1487.26 283.599C1487.06 282.811 1487.06 282.023 1487.45 281.432Z" fill="#BDEDEF"/>
<path d="M1517 309.798C1517.59 308.419 1519.37 307.828 1520.75 308.616C1521.73 309.01 1522.12 309.995 1522.32 310.98C1523.11 310.389 1524.09 310.389 1525.08 310.783C1526.46 311.374 1527.05 313.146 1526.26 314.525C1525.87 315.313 1525.28 315.707 1524.49 315.904L1518.58 318.071L1516.81 312.161C1516.61 311.374 1516.61 310.586 1517 309.798Z" fill="#BDEDEF"/>
<path d="M1503.61 303.099C1504.2 301.72 1505.97 301.129 1507.35 301.917C1508.34 302.311 1508.73 303.296 1508.93 304.281C1509.71 303.69 1510.7 303.69 1511.68 304.084C1513.06 304.675 1513.65 306.448 1512.87 307.827C1512.47 308.615 1511.88 309.009 1511.09 309.206L1505.18 311.373L1503.41 305.463C1503.21 304.675 1503.21 303.69 1503.61 303.099Z" fill="#BDEDEF"/>
<path d="M1490.01 296.204C1490.61 294.825 1492.38 294.234 1493.76 295.022C1494.74 295.416 1495.14 296.401 1495.33 297.386C1496.12 296.795 1497.11 296.795 1498.09 297.189C1499.47 297.78 1500.06 299.553 1499.27 300.932C1498.88 301.72 1498.29 302.114 1497.5 302.311L1491.59 304.478L1489.82 298.568C1489.62 297.78 1489.62 296.992 1490.01 296.204Z" fill="#BDEDEF"/>
</g>
<path d="M1447.27 194.36C1450.82 196.921 1456.92 201.255 1460.47 203.816L1479.38 217.408C1482.93 219.969 1482.73 223.712 1478.59 225.682L1419.1 254.246C1415.16 256.216 1412.21 254.049 1412.8 249.715L1420.68 184.313C1421.27 179.782 1424.62 178.403 1428.36 180.964L1447.27 194.36Z" fill="#FFC257"/>
<mask id="mask11" mask-type="alpha" maskUnits="userSpaceOnUse" x="1412" y="179" width="70" height="76">
<path d="M1447.27 194.36C1450.82 196.921 1456.92 201.255 1460.47 203.816L1479.38 217.408C1482.93 219.969 1482.73 223.712 1478.59 225.682L1419.1 254.246C1415.16 256.216 1412.21 254.049 1412.8 249.715L1420.68 184.313C1421.27 179.782 1424.62 178.403 1428.36 180.964L1447.27 194.36Z" fill="#FFC257"/>
</mask>
<g mask="url(#mask11)">
<path d="M1467.76 209.331C1466.57 211.104 1466.97 213.271 1468.54 214.452C1470.32 215.634 1472.48 215.24 1473.67 213.665C1474.85 211.892 1474.45 209.725 1472.88 208.543C1471.3 207.361 1468.94 207.755 1467.76 209.331Z" fill="#FFD28A"/>
<path d="M1451.21 197.513C1450.03 199.286 1450.42 201.453 1452 202.635C1453.77 203.817 1455.94 203.423 1457.12 201.847C1458.3 200.074 1457.91 197.907 1456.33 196.725C1454.76 195.543 1452.39 195.937 1451.21 197.513Z" fill="#FFD28A"/>
<path d="M1434.66 185.693C1433.48 187.466 1433.87 189.633 1435.45 190.815C1437.22 191.997 1439.39 191.603 1440.57 190.027C1441.75 188.254 1441.36 186.087 1439.78 184.905C1438.21 183.723 1435.84 184.117 1434.66 185.693Z" fill="#FFD28A"/>
<path d="M1418.12 173.874C1416.93 175.647 1417.33 177.814 1418.9 178.995C1420.68 180.177 1422.84 179.783 1424.03 178.207C1425.21 176.435 1424.81 174.268 1423.24 173.086C1421.66 171.904 1419.3 172.298 1418.12 173.874Z" fill="#FFD28A"/>
<path d="M1467.76 226.865C1466.57 228.638 1466.97 230.805 1468.54 231.987C1470.32 233.169 1472.48 232.775 1473.67 231.199C1474.85 229.426 1474.45 227.259 1472.88 226.077C1471.3 224.895 1468.94 225.289 1467.76 226.865Z" fill="#FFD28A"/>
<path d="M1451.21 215.046C1450.03 216.819 1450.42 218.986 1452 220.167C1453.77 221.349 1455.94 220.955 1457.12 219.379C1458.3 217.607 1457.91 215.44 1456.33 214.258C1454.75 213.076 1452.39 213.273 1451.21 215.046Z" fill="#FFD28A"/>
<path d="M1434.66 203.227C1433.48 204.999 1433.87 207.166 1435.45 208.348C1437.02 209.53 1439.39 209.136 1440.57 207.56C1441.75 205.787 1441.36 203.621 1439.78 202.439C1438.21 201.06 1435.84 201.454 1434.66 203.227Z" fill="#FFD28A"/>
<path d="M1418.11 191.406C1416.93 193.179 1417.32 195.346 1418.9 196.528C1420.67 197.71 1422.84 197.316 1424.02 195.74C1425.2 193.967 1424.81 191.8 1423.23 190.618C1421.66 189.239 1419.29 189.633 1418.11 191.406Z" fill="#FFD28A"/>
<path d="M1467.76 244.398C1466.57 246.171 1466.97 248.338 1468.54 249.52C1470.32 250.702 1472.48 250.308 1473.67 248.732C1474.85 246.959 1474.45 244.792 1472.88 243.61C1471.3 242.232 1468.94 242.625 1467.76 244.398Z" fill="#FFD28A"/>
<path d="M1451.21 232.578C1450.03 234.351 1450.42 236.518 1452 237.7C1453.77 238.882 1455.94 238.488 1457.12 236.912C1458.3 235.139 1457.91 232.972 1456.33 231.79C1454.75 230.411 1452.39 230.805 1451.21 232.578Z" fill="#FFD28A"/>
<path d="M1434.66 220.76C1433.48 222.533 1433.87 224.7 1435.45 225.882C1437.22 227.064 1439.39 226.67 1440.57 225.094C1441.75 223.321 1441.36 221.154 1439.78 219.972C1438.21 218.593 1435.84 218.987 1434.66 220.76Z" fill="#FFD28A"/>
<path d="M1418.11 208.94C1416.93 210.713 1417.32 212.88 1418.9 214.062C1420.67 215.244 1422.84 214.85 1424.02 213.274C1425.2 211.501 1424.81 209.334 1423.23 208.152C1421.66 206.773 1419.29 207.167 1418.11 208.94Z" fill="#FFD28A"/>
<path d="M1451.21 249.915C1450.02 251.688 1450.42 253.855 1451.99 255.036C1453.77 256.218 1455.93 255.824 1457.12 254.249C1458.3 252.476 1457.9 250.309 1456.33 249.127C1454.75 247.945 1452.39 248.339 1451.21 249.915Z" fill="#FFD28A"/>
<path d="M1434.66 238.094C1433.48 239.867 1433.87 242.034 1435.45 243.216C1437.22 244.398 1439.39 244.004 1440.57 242.428C1441.75 240.655 1441.36 238.488 1439.78 237.306C1438.2 236.124 1435.84 236.518 1434.66 238.094Z" fill="#FFD28A"/>
<path d="M1418.11 226.276C1416.93 228.049 1417.32 230.216 1418.9 231.398C1420.67 232.58 1422.84 232.186 1424.02 230.61C1425.2 228.837 1424.81 226.67 1423.23 225.488C1421.66 224.306 1419.29 224.7 1418.11 226.276Z" fill="#FFD28A"/>
<path d="M1434.66 255.625C1433.48 257.398 1433.87 259.564 1435.45 260.746C1437.22 261.928 1439.39 261.534 1440.57 259.958C1441.75 258.186 1441.36 256.019 1439.78 254.837C1438.21 253.655 1435.84 254.049 1434.66 255.625Z" fill="#FFD28A"/>
<path d="M1418.11 243.805C1416.93 245.578 1417.32 247.745 1418.9 248.927C1420.67 250.109 1422.84 249.715 1424.02 248.139C1425.2 246.366 1424.81 244.199 1423.23 243.017C1421.66 241.835 1419.29 242.229 1418.11 243.805Z" fill="#FFD28A"/>
</g>
</svg>
