<svg width="100%" height="100%" viewBox="0 0 1920 1827" fill="none" xmlns="http://www.w3.org/2000/svg">
<path d="M666.782 71.4038C247.367 242.568 268.371 -154.234 -19.1857 71.4038C-306.743 297.042 -379.757 1910.92 -19.1857 1743.64C341.385 1576.36 175.786 1873.98 666.782 1743.64C889.771 1684.44 1330.08 1915.37 1524.12 1788.11C1718.16 1660.86 1906.34 1809.12 1940.2 1704.24C2018.5 1461.7 1940.2 11.9946 1940.2 11.9946C1495.52 280.788 1086.2 -99.7607 666.782 71.4038Z" fill="#F9F2D9"/>
<mask id="mask0" mask-type="alpha" maskUnits="userSpaceOnUse" x="-263" y="0" width="2238" height="1827">
<path d="M666.782 71.4038C247.367 242.568 268.371 -154.234 -19.1857 71.4038C-306.743 297.042 -379.757 1910.92 -19.1857 1743.64C341.385 1576.36 175.786 1873.98 666.782 1743.64C889.771 1684.44 1330.08 1915.37 1524.12 1788.11C1718.16 1660.86 1906.34 1809.12 1940.2 1704.24C2018.5 1461.7 1940.2 11.9945 1940.2 11.9945C1495.52 280.788 1086.2 -99.7607 666.782 71.4038Z" fill="#F9F2D9"/>
</mask>
<g mask="url(#mask0)">
<path d="M1828 -12H1712V1811H1828V-12Z" fill="#FCF9EC"/>
<path d="M1596 -12H1481V1811H1596V-12Z" fill="#FCF9EC"/>
<path d="M1365 -12H1249V1811H1365V-12Z" fill="#FCF9EC"/>
<path d="M1133 -12H1018V1811H1133V-12Z" fill="#FCF9EC"/>
<path d="M902 -12H786V1811H902V-12Z" fill="#FCF9EC"/>
<path d="M671 -12H555V1811H671V-12Z" fill="#FCF9EC"/>
<path d="M439 -12H323V1811H439V-12Z" fill="#FCF9EC"/>
<path d="M208 -12H92V1752H208V-12Z" fill="#FCF9EC"/>
</g>
</svg>
