<svg width="100%" height="100%" viewBox="0 0 1152 422" fill="none" xmlns="http://www.w3.org/2000/svg">
<mask id="mask0" mask-type="alpha" maskUnits="userSpaceOnUse" x="0" y="0" width="1146" height="416">
<rect width="100%" height="100%" rx="10" fill="#FFD4E8"/>
</mask>
<g mask="url(#mask0)">
<path d="M578.585 225.646C580.596 207.702 577.149 191.722 554.936 180.82C518.84 163.147 461.011 172.762 449.809 205.4C440.234 182.31 420.032 164.839 383.936 161.047C311.457 153.464 286.755 188.404 287.234 222.531C278.426 178.856 173.585 159.558 155.106 226.526C173.681 155.563 19.5319 138.16 8.04255 203.233C9.76595 181.091 -4.37234 173.335 -60 166.429V462.726H696V168.528C646.979 169.34 584.33 173.168 578.585 225.646Z" fill="url(#paint0_linear)"/>
<path opacity="0.3" d="M327.558 85.2863C321.324 81.5459 314.154 83.2171 308.309 86.7188C307.842 75.4976 304.179 61.8888 291.009 62.048C278.462 62.2071 267.942 74.1446 261.708 84.5701C258.123 65.5496 257.967 34.1142 235.523 29.1801C224.379 26.6334 213.391 31.488 208.56 41.993C204.04 51.7022 204.196 63.0826 203.806 73.7467C200.533 67.5392 194.454 57.9892 188.22 63.0826C182.531 67.6984 181.129 77.0892 180.817 84.968C170.53 58.9442 144.58 31.6472 115.512 43.6642C103.822 48.5188 95.3282 57.273 94.2372 70.4838C93.6916 77.1688 95.4061 83.9334 97.744 90.0613C98.835 93.0855 100.238 96.0301 101.796 98.8951C102.887 100.964 106.005 104.466 107.096 107.172C94.7827 102.715 80.054 104.705 76.5472 119.666C73.5079 132.718 83.5608 142.507 96.0295 140.915C132.189 141.472 311.505 150.226 336.832 135.344C344.001 131.126 342.287 110.992 340.105 102.635C338.001 95.473 333.792 89.0267 327.558 85.2863Z" fill="white"/>
<path d="M1334.59 227.646C1336.6 209.702 1333.15 193.722 1310.94 182.82C1274.84 165.147 1217.01 174.762 1205.81 207.4C1196.23 184.31 1176.03 166.839 1139.94 163.047C1067.46 155.464 1042.76 190.404 1043.23 224.531C1034.43 180.856 929.585 161.558 911.106 228.526C929.681 157.563 775.532 140.16 764.043 205.233C765.766 183.091 718.5 167 696 168.429V452.726H1452V170.528C1402.98 171.34 1340.33 175.168 1334.59 227.646Z" fill="url(#paint1_linear)"/>
<path d="M601.347 95.0768C553.346 95.0768 504.091 88.4702 454.836 75.3404C357.664 49.4991 280.227 4.5068 241.509 -21H239V-17.1531C249.62 -10.1283 263.168 -1.68174 279.14 7.43381C318.026 29.5954 379.908 60.0363 453.498 79.6891C504.008 93.1534 554.099 99.9273 602.518 99.9273C633.208 99.9273 663.648 97.1675 693.084 91.7317C769.601 77.682 841.602 45.1504 908 -4.94326V-10.63C816.096 59.5346 713.154 95.0768 601.347 95.0768Z" fill="white"/>
<path d="M709.14 107.872C704.541 107.287 701.363 107.621 701.029 107.621C699.941 107.705 698.854 108.206 698.018 108.959C688.903 117.155 681.46 118.576 678.868 118.827C678.701 118.827 678.533 118.827 678.283 118.827C678.283 118.827 678.199 118.827 678.115 118.827C677.948 118.827 677.864 118.827 677.864 118.827C677.697 118.827 677.53 118.827 677.446 118.827C676.945 118.827 676.276 118.827 675.356 118.66C672.094 118.242 665.404 116.653 657.293 110.548C656.373 109.879 655.286 109.461 654.115 109.461C653.111 109.461 628.526 109.126 617.571 132.124C616.902 133.462 616.902 134.968 617.404 136.389C617.905 137.727 618.992 138.898 620.33 139.484C622.505 140.404 624.344 141.658 626.017 143.163C629.696 146.508 631.954 151.192 632.456 156.209C632.623 157.631 633.292 159.053 634.463 159.973C634.798 160.224 635.132 160.474 635.467 160.642C635.132 166.663 634.296 175.444 632.205 185.563C631.453 189.159 630.7 192.421 629.947 195.348C626.77 208.394 624.094 219.6 640.4 226.207C645.334 228.214 648.261 234.151 651.355 240.507C655.62 249.288 660.47 259.24 672.178 261.833C672.345 261.833 672.512 261.916 672.68 261.916C672.931 261.916 673.265 262 673.6 261.916L694.171 261.08C694.673 261.08 695.091 260.996 695.593 260.829C707.05 257.233 710.98 246.947 714.492 237.831C717.001 231.224 719.426 225.036 724.109 222.694C739.831 214.75 736.151 203.794 731.97 191.083C731.05 188.239 729.963 185.061 728.959 181.549C726.116 171.681 724.527 162.983 723.691 156.962C725.113 156.126 726.116 154.537 726.283 152.781C726.869 145.756 731.217 139.4 737.656 136.138C738.994 135.469 739.914 134.299 740.416 132.961C740.834 131.539 740.751 130.034 740.081 128.779C731.719 112.806 717.168 108.792 709.14 107.872Z" fill="white"/>
<path d="M721.015 152.279C721.767 143.163 727.454 135.219 735.398 131.288C724.443 110.632 701.697 113.057 701.697 113.057C691.077 122.591 682.045 124.096 679.035 124.347C679.035 124.347 678.868 124.347 678.449 124.43C678.115 124.43 677.864 124.43 677.864 124.43C674.77 124.43 665.571 123.678 654.115 115.064C654.115 115.064 632.121 114.562 622.588 134.633C625.18 135.804 627.605 137.309 629.78 139.233C634.463 143.498 637.39 149.435 637.975 155.791C639.982 155.54 640.902 154.704 641.236 153.868C641.236 159.136 640.735 171.43 637.64 186.65C633.459 207.139 627.94 215.335 642.574 221.189C657.209 227.127 656.289 252.717 673.516 256.564L694.087 255.728C710.896 250.459 707.718 224.952 721.851 217.844C735.983 210.735 729.712 203.042 723.941 182.971C719.593 168.001 718.088 155.875 717.67 150.606C718.088 151.443 719.008 152.195 721.015 152.279Z" fill="#FF9FC6"/>
<path d="M694.589 150.439C693.753 149.436 692.666 148.599 691.411 147.93C685.056 144.334 680.205 151.777 679.286 153.952C678.031 151.61 669.501 142.662 663.815 151.777C657.125 162.565 680.205 180.964 680.373 180.797C680.54 180.964 699.021 163.569 696.094 153.366C695.843 152.279 695.342 151.276 694.589 150.439Z" fill="#FFD7EB"/>
<path d="M647.592 84.2053C646.923 81.1947 643.16 79.5221 639.062 80.3584C634.964 81.1947 632.205 84.3726 632.79 87.3832L639.564 119.079C640.233 122.089 643.996 123.762 648.094 122.925C652.191 122.089 654.951 118.911 654.365 115.901L647.592 84.2053Z" fill="white"/>
<path d="M708.89 76.3442C704.708 76.1769 701.196 78.4349 701.113 81.5292L699.524 113.977C699.356 117.071 702.618 119.664 706.799 119.915C710.98 120.082 714.493 117.824 714.66 114.73L716.249 82.2818C716.332 79.1875 713.071 76.5951 708.89 76.3442Z" fill="white"/>
<path d="M496.147 158.886C492.217 154.621 489.039 149.352 488.705 148.85C486.279 144.585 492.217 133.044 497.402 126.354C498.656 124.682 498.907 122.507 497.987 120.667C497.067 118.828 495.227 117.657 493.22 117.657C489.541 117.239 471.896 108.625 457.596 100.931C456.091 100.178 454.418 100.095 452.829 100.764C451.324 101.433 450.153 102.771 449.735 104.36C449.652 104.611 447.979 111.134 446.725 118.66C445.638 125.351 445.303 126.521 440.118 134.382C433.178 144.92 437.275 157.38 437.442 157.966C437.526 158.3 437.693 158.635 437.944 158.969C440.955 164.071 446.976 167.5 452.16 170.594C455.087 172.266 458.098 174.023 459.687 175.612C464.871 180.796 472.899 186.985 473.234 187.236C473.568 187.487 473.903 187.654 474.237 187.821C475.743 188.49 477.248 189.076 478.753 189.494C479.506 189.745 481.931 190.414 485.192 190.414C490.795 190.414 495.645 188.323 499.158 184.393C499.409 184.142 499.659 183.891 499.743 183.64C500.747 182.553 503.673 178.789 503.506 173.186C503.423 168.169 500.914 163.318 496.147 158.886Z" fill="white"/>
<path d="M484.021 151.526C478.418 141.825 493.136 122.925 493.136 122.925C487.115 122.925 455.087 105.53 455.087 105.53C455.087 105.53 453.415 111.97 452.16 119.413C450.906 126.856 450.32 128.695 444.718 137.226C439.115 145.672 442.627 156.042 442.627 156.042C446.557 162.649 458.599 166.579 463.533 171.597C468.467 176.531 476.579 182.803 476.579 182.803C489.206 188.825 495.645 180.127 495.645 180.127C501.415 172.015 493.973 164.405 493.973 164.405C488.621 159.22 484.021 151.526 484.021 151.526Z" fill="#FF9FC6"/>
<path d="M492.3 162.649C492.3 162.649 471.143 169.423 480.342 184.225C480.342 184.225 489.708 187.403 495.645 180.127C495.645 180.127 503.088 172.601 492.3 162.649Z" fill="#FFD7EB"/>
<path d="M468.551 70.6571C464.454 70.0717 460.691 71.9951 460.273 75.0058L455.59 107.119C455.171 110.13 458.098 113.057 462.28 113.726C466.377 114.311 470.14 112.388 470.558 109.377L475.241 77.2637C475.66 74.1695 472.649 71.2425 468.551 70.6571Z" fill="white"/>
<path d="M409.511 86.6303C407.421 84.7068 405.079 83.2015 402.403 82.2816C397.135 80.3581 391.448 80.5254 386.347 82.9506C381.246 85.2922 377.399 89.4736 375.392 94.7423C374.472 97.2511 374.054 99.8436 374.054 102.436C371.964 102.102 369.789 102.603 367.95 103.858C366.194 105.112 364.772 106.952 363.936 109.126C362.43 113.141 363.267 117.322 365.943 119.831C366.695 120.584 367.615 121.085 368.535 121.42L370.709 122.256C367.615 126.438 364.354 132.292 364.354 138.229C364.354 142.578 366.11 146.508 369.288 149.519C370.626 150.774 372.215 151.861 374.054 152.864L374.305 153.032C379.49 155.373 390.863 156.878 397.302 145.672L397.386 145.505C397.553 145.254 399.894 140.571 400.731 133.379L402.57 134.048C405.079 134.968 407.755 134.55 410.097 132.961C411.853 131.706 413.274 129.866 414.111 127.692C415.616 123.678 414.78 119.496 412.104 116.988C411.686 116.569 411.267 116.235 410.766 115.984C412.522 114.061 413.86 111.803 414.78 109.294C417.79 101.349 415.7 92.4843 409.511 86.6303ZM400.731 104.025C399.56 107.119 396.215 108.625 393.121 107.537C392.368 107.287 391.699 106.868 391.114 106.283C389.358 104.61 388.772 102.102 389.609 99.9272C390.779 96.833 394.124 95.244 397.218 96.4148C397.971 96.6657 398.64 97.0839 399.225 97.6693C400.982 99.2582 401.567 101.767 400.731 104.025Z" fill="white"/>
<path d="M379.992 119.915C379.992 119.915 359.588 139.149 376.647 148.097C376.647 148.097 387.1 152.864 392.703 142.996C392.703 142.996 396.383 135.971 395.546 125.685L379.992 119.915Z" fill="#FFDC78"/>
<path d="M400.564 87.2992C392.452 84.2886 383.504 88.47 380.494 96.582C377.483 104.694 381.665 113.642 389.693 116.653C397.804 119.664 406.752 115.482 409.763 107.37C412.773 99.3418 408.676 90.3099 400.564 87.2992ZM405.749 105.948C403.574 111.802 397.052 114.813 391.198 112.639C385.344 110.464 382.334 103.941 384.508 98.0874C386.682 92.2333 393.205 89.2227 399.059 91.397C404.912 93.4878 407.923 100.011 405.749 105.948Z" fill="#FFDC78"/>
<path d="M407.672 120.416L373.636 107.788C371.964 107.203 369.873 108.625 369.037 110.966C368.201 113.308 368.786 115.733 370.459 116.402L404.494 128.946C406.167 129.532 408.257 128.11 409.093 125.769C410.013 123.427 409.344 121.002 407.672 120.416Z" fill="#C7D353"/>
<path d="M412.104 56.2731C408.173 54.935 404.159 56.1058 403.156 59.0328L392.535 89.7246C391.532 92.6516 393.957 96.0804 397.887 97.4185C401.818 98.7565 405.832 97.5857 406.835 94.6587L417.456 63.9669C418.375 61.1236 416.034 57.6111 412.104 56.2731Z" fill="white"/>
<path d="M805.56 99.8434C804.975 99.7598 804.473 99.7598 803.887 99.7598C804.222 97.1673 804.138 94.5748 803.469 91.9823C801.462 83.7867 794.772 77.5982 786.41 76.1765C783.65 75.7583 780.807 75.842 778.047 76.511C772.612 77.8491 768.012 81.1942 765.085 86.0447C762.159 90.8115 761.322 96.4983 762.66 101.934C763.329 104.527 764.416 106.952 765.838 109.043C763.915 109.879 762.409 111.551 761.573 113.726C760.821 115.733 760.653 118.075 761.239 120.333C762.242 124.43 765.253 127.525 768.932 128.11C769.936 128.277 771.023 128.277 772.026 128.026L774.284 127.441C774.033 132.71 774.619 139.316 777.964 144.25C780.389 147.846 783.985 150.104 788.417 150.857C790.173 151.108 792.18 151.192 794.187 150.941L794.521 150.857C800.124 149.937 810.41 144.752 809.49 131.873V131.706C809.49 131.455 808.821 126.187 805.476 119.831L807.4 119.329C809.992 118.744 811.999 116.82 813.086 114.228C813.839 112.221 814.006 109.879 813.421 107.621C812.166 103.523 809.156 100.429 805.56 99.8434ZM784.403 102.687C783.65 102.854 782.814 102.938 782.061 102.77C779.72 102.352 777.796 100.68 777.211 98.3381C776.458 95.1602 778.382 91.9823 781.56 91.1461C782.312 90.9788 783.148 90.8952 783.901 91.0624C786.243 91.4806 788.166 93.1531 788.751 95.4948C789.588 98.7563 787.581 101.934 784.403 102.687Z" fill="white"/>
<path d="M796.613 116.402L780.473 120.333C780.473 120.333 774.369 147.68 793.435 145.589C793.435 145.589 804.725 143.665 803.888 132.375C803.888 132.292 803.052 124.431 796.613 116.402Z" fill="#FFDC78"/>
<path d="M779.302 81.7798C770.939 83.7869 765.755 92.317 767.845 100.68C769.852 109.043 778.382 114.228 786.745 112.137C795.107 110.13 800.292 101.6 798.201 93.2369C796.194 84.8741 787.664 79.7727 779.302 81.7798ZM785.741 107.956C779.636 109.461 773.532 105.698 772.027 99.5927C770.521 93.4878 774.284 87.3829 780.389 85.8776C786.494 84.3723 792.598 88.1356 794.104 94.2405C795.525 100.345 791.762 106.534 785.741 107.956Z" fill="#FF9FC6"/>
<path d="M803.721 105.196L768.431 113.81C766.675 114.228 765.755 116.569 766.424 118.995C767.009 121.42 768.933 123.093 770.605 122.674L805.895 114.061C807.651 113.642 808.571 111.301 807.902 108.876C807.317 106.45 805.477 104.778 803.721 105.196Z" fill="#FB86B2"/>
<path d="M773.03 53.5133C771.859 50.67 767.845 49.6664 763.914 51.1717C760.068 52.7607 757.81 56.2731 758.981 59.1165L771.106 89.2229C772.277 92.0663 776.291 93.0698 780.221 91.5645C784.068 89.9755 786.326 86.4631 785.155 83.6197L773.03 53.5133Z" fill="white"/>
<path d="M888.515 105.614C884.585 101.349 881.407 96.0806 881.073 95.5788C878.648 91.3137 884.585 79.773 889.77 73.0826C891.024 71.4101 891.275 69.2357 890.355 67.3959C889.435 65.5561 887.595 64.3852 885.588 64.3852C881.909 63.9671 864.264 55.3533 849.964 47.6595C848.459 46.9068 846.786 46.8232 845.198 47.4922C843.692 48.1613 842.522 49.4993 842.103 51.0883C842.02 51.3391 840.347 57.8622 839.093 65.3888C838.006 72.0791 837.671 73.2499 832.487 81.111C825.546 91.6483 829.643 104.109 829.811 104.694C829.894 105.029 830.061 105.363 830.312 105.698C833.323 110.799 839.344 114.228 844.529 117.322C847.455 118.995 850.466 120.751 852.055 122.34C857.24 127.525 865.268 133.714 865.602 133.964C865.937 134.215 866.271 134.383 866.606 134.55C868.111 135.219 869.616 135.804 871.121 136.222C871.874 136.473 874.299 137.142 877.56 137.142C883.163 137.142 888.014 135.052 891.526 131.121C891.777 130.87 892.028 130.619 892.111 130.368C893.115 129.281 896.042 125.518 895.874 119.915C895.791 114.897 893.366 110.13 888.515 105.614Z" fill="white"/>
<path d="M876.473 98.3382C870.871 88.6372 885.589 69.7371 885.589 69.7371C879.568 69.7371 847.539 52.3423 847.539 52.3423C847.539 52.3423 845.867 58.7817 844.612 66.2247C843.358 73.6676 842.773 75.5075 837.17 84.0376C831.567 92.4841 835.079 102.854 835.079 102.854C839.009 109.461 851.051 113.391 855.985 118.409C860.919 123.343 869.031 129.615 869.031 129.615C881.658 135.637 888.097 126.939 888.097 126.939C893.868 118.827 886.425 111.217 886.425 111.217C880.989 106.032 876.473 98.3382 876.473 98.3382Z" fill="#C7D353"/>
<path d="M884.668 109.461C884.668 109.461 863.511 116.235 872.71 131.037C872.71 131.037 882.076 134.215 888.013 126.939C888.013 126.939 895.456 119.413 884.668 109.461Z" fill="#FFDC78"/>
<path d="M853.392 25.2468C852.891 22.2362 849.044 20.3963 844.946 21.149C840.849 21.9016 837.922 24.9123 838.507 27.9229L844.194 59.8691C844.695 62.8798 848.542 64.7196 852.64 63.9669C856.737 63.2143 859.664 60.2036 859.079 57.193L853.392 25.2468Z" fill="white"/>
<path d="M592.566 126.856C591.145 125.267 588.97 124.765 587.047 125.267L586.963 125.183C586.963 125.183 586.88 125.183 586.88 125.1C586.462 124.849 586.044 124.598 585.625 124.347L585.542 124.263C585.375 124.18 585.124 124.012 584.956 123.929C584.538 123.678 584.12 123.427 583.702 123.26C583.451 123.093 583.2 123.009 583.033 122.925C582.615 122.674 582.197 122.507 581.779 122.256L581.11 121.922C580.692 121.754 580.273 121.504 579.772 121.336C572.914 118.242 565.974 116.737 559.116 116.737C557.109 116.737 555.102 116.904 553.095 117.155H553.012C550.252 117.573 547.576 118.158 544.984 119.078C544.984 119.078 544.9 119.078 544.9 119.162C542.475 119.998 540.05 121.169 537.876 122.424L537.123 118.911C536.788 117.322 535.785 115.984 534.28 115.231C532.858 114.479 531.186 114.395 529.68 115.064L523.659 117.657H523.576L520.9 114.646C519.813 113.475 518.224 112.806 516.635 112.89C515.046 112.973 513.541 113.726 512.537 114.981L506.6 122.758C505.68 123.929 505.345 125.518 505.596 127.023C505.847 128.528 506.767 129.866 508.021 130.619L511.868 133.044C511.45 133.797 511.283 134.717 511.283 135.553L511.366 143.163C511.366 144.752 512.119 146.341 513.373 147.345C514.628 148.348 516.3 148.767 517.889 148.432C517.889 148.432 518.056 148.348 518.307 148.348C518.224 148.683 518.14 149.101 518.056 149.436L517.973 150.021C517.806 150.69 517.722 151.359 517.638 152.112L517.555 152.53C517.304 154.286 517.137 156.042 517.137 157.799V157.882C517.053 161.395 517.304 164.907 517.973 168.336V168.419C518.14 169.172 518.224 169.841 518.391 170.594L518.475 170.928C518.642 171.597 518.809 172.183 518.976 172.852L519.06 173.27C519.227 173.855 519.394 174.441 519.562 174.942L519.729 175.444C519.896 175.946 520.063 176.531 520.314 177.033L520.565 177.535C520.732 178.037 520.983 178.538 521.234 179.04L521.485 179.626C521.736 180.127 521.987 180.629 522.238 181.131L522.489 181.633C522.739 182.135 523.074 182.636 523.325 183.138L523.576 183.556C525.583 187.069 528.091 190.079 530.851 192.672C530.684 194.428 531.353 196.184 532.691 197.355L542.475 205.718C543.478 206.554 544.733 207.056 545.987 207.056C546.322 207.056 546.573 207.056 546.907 206.972C548.496 206.721 549.834 205.718 550.67 204.38C550.921 203.962 577.347 158.969 600.845 145.505C602.267 144.669 603.27 143.247 603.521 141.658C603.772 140.069 603.27 138.397 602.183 137.142L592.566 126.856Z" fill="white"/>
<path d="M525.749 122.758L529.178 132.208L516.802 118.409L510.864 126.187L528.258 137.142L516.718 135.72L516.802 143.331C516.802 143.331 530.934 140.236 532.272 139.484L535.784 138.396L531.77 120.165L525.749 122.758Z" fill="#FBD83D"/>
<path d="M587.8 132.208C586.545 131.372 585.374 130.535 584.12 129.783C583.702 129.532 583.284 129.281 582.949 129.03C582.782 128.946 582.531 128.779 582.364 128.695C581.946 128.445 581.611 128.277 581.193 128.026C580.942 127.943 580.775 127.776 580.524 127.692C580.106 127.525 579.772 127.274 579.353 127.107C579.186 127.023 578.935 126.939 578.768 126.856C578.35 126.688 577.932 126.438 577.597 126.27C569.486 122.674 561.458 121.503 554.015 122.507C553.931 122.507 553.931 122.507 553.848 122.507C551.423 122.841 549.081 123.427 546.907 124.18H546.823C544.565 125.016 542.391 126.019 540.301 127.274C538.544 128.361 536.872 129.532 535.283 130.87C535.032 131.121 534.781 131.288 534.53 131.539C534.363 131.706 534.196 131.873 534.029 132.041C533.778 132.208 533.611 132.459 533.36 132.626C533.109 132.877 532.942 133.044 532.691 133.295C532.523 133.462 532.356 133.63 532.189 133.797C531.771 134.215 531.436 134.633 531.018 135.051C530.6 135.553 530.182 136.055 529.764 136.64C529.68 136.724 529.597 136.807 529.597 136.891C529.262 137.393 528.928 137.811 528.593 138.313C528.593 138.396 528.509 138.396 528.509 138.48C528.175 138.982 527.84 139.567 527.506 140.069C527.506 140.069 527.506 140.069 527.506 140.153C526.001 142.745 524.914 145.505 524.161 148.348C523.994 149.017 523.826 149.77 523.659 150.523C523.659 150.69 523.576 150.857 523.576 151.108C523.492 151.693 523.325 152.279 523.241 152.864C523.241 153.031 523.157 153.199 523.157 153.366C522.907 154.955 522.823 156.46 522.739 158.049C522.656 161.227 522.907 164.405 523.492 167.499C523.492 167.499 523.492 167.499 523.492 167.583C523.576 168.252 523.743 168.837 523.91 169.506C523.91 169.59 523.994 169.674 523.994 169.757C524.161 170.343 524.245 170.844 524.412 171.43C524.412 171.597 524.495 171.681 524.495 171.848C524.663 172.35 524.83 172.852 524.997 173.353C525.081 173.521 525.081 173.688 525.164 173.771C525.332 174.273 525.499 174.691 525.666 175.193C525.75 175.36 525.833 175.528 525.833 175.695C526.001 176.113 526.168 176.615 526.419 177.033C526.502 177.2 526.586 177.367 526.67 177.535C526.837 177.953 527.088 178.371 527.255 178.873C527.339 179.04 527.422 179.207 527.506 179.375C527.757 179.793 528.008 180.294 528.259 180.713C528.342 180.796 528.426 180.964 528.426 181.047C530.266 184.225 532.607 187.068 535.283 189.326C537.708 191.333 540.301 193.006 542.977 194.26L546.071 190.664C547.158 190.748 548.329 190.33 549.165 189.41C549.917 188.49 550.168 187.319 549.917 186.232L550.085 186.065C550.754 185.814 551.339 185.396 551.841 184.894C552.343 184.309 552.593 183.723 552.761 182.971L592.483 136.724C590.977 135.051 589.556 133.462 587.8 132.208Z" fill="#C7D353"/>
<path d="M536.203 193.508L541.221 197.773L545.987 201.871C545.987 201.871 573.082 155.373 598.169 141.073L588.552 130.536C588.552 130.536 552.008 158.635 536.203 193.508Z" fill="#FFDC78"/>
<path d="M565.305 86.2124C561.123 86.2124 557.778 88.7213 557.778 91.7319V124.18C557.778 127.274 561.207 129.699 565.388 129.699C569.569 129.699 572.914 127.191 572.914 124.18V91.7319C572.831 88.6376 569.486 86.2124 565.305 86.2124Z" fill="white"/>
<path d="M348.716 74.4203C348.465 72.8313 347.629 71.4096 346.207 70.5733C344.869 69.737 343.197 69.4862 341.608 69.9879L337.761 71.2424C337.761 71.2424 337.761 71.1587 337.678 71.1587L333.747 65.8901C332.744 64.6357 331.322 63.7994 329.65 63.7158C328.061 63.6321 326.472 64.3012 325.385 65.472L322.96 68.1481C321.622 65.8901 320.116 63.7994 318.444 61.7923L318.36 61.7087C316.52 59.618 314.513 57.6945 312.339 56.0219L312.256 55.9383C310.667 54.6839 308.994 53.5967 307.238 52.5931C301.301 49.1644 294.527 47.0736 287.084 46.321C286.583 46.2373 286.081 46.2373 285.579 46.2373L284.91 46.1537C284.408 46.1537 283.99 46.0701 283.489 46.0701C283.238 46.0701 282.987 46.0701 282.736 46.0701C282.318 46.0701 281.816 46.0701 281.314 46.0701C281.063 46.0701 280.896 46.0701 280.645 46.0701H280.562C280.06 46.0701 279.558 46.0701 279.056 46.0701H278.973H278.889C277.468 44.6484 275.377 44.063 273.37 44.6484L259.739 49.0807C258.15 49.5825 256.896 50.7533 256.31 52.3422C255.725 53.8476 255.892 55.6038 256.729 57.0255C270.443 80.4415 271.028 132.542 271.028 133.044C271.028 134.633 271.781 136.138 273.035 137.226C273.286 137.393 273.537 137.56 273.788 137.727C274.875 138.396 276.213 138.564 277.468 138.313L290.095 135.887C291.851 135.553 293.356 134.299 294.025 132.71C297.705 131.873 301.301 130.452 304.813 128.444L305.231 128.194C305.733 127.943 306.235 127.608 306.653 127.274L307.154 126.939C307.656 126.605 308.074 126.354 308.492 126.019L308.994 125.685C309.412 125.35 309.83 125.016 310.332 124.681L310.75 124.347C311.168 123.929 311.67 123.594 312.088 123.26L312.506 122.925C312.925 122.507 313.426 122.089 313.844 121.671L314.095 121.42C314.597 120.918 315.015 120.5 315.517 119.998L315.768 119.747C316.27 119.245 316.771 118.66 317.189 118.158C317.189 118.158 317.189 118.075 317.273 118.075C319.531 115.398 321.538 112.471 323.21 109.377C323.21 109.377 323.21 109.293 323.294 109.293C324.13 107.705 324.883 106.116 325.552 104.443L325.719 104.025C325.97 103.272 326.221 102.687 326.472 102.018L326.639 101.516C326.806 101.098 326.89 100.763 326.974 100.429C327.141 100.596 327.308 100.68 327.308 100.763C328.479 101.851 330.151 102.352 331.74 102.101C333.329 101.851 334.751 100.931 335.587 99.5089L339.434 92.9859C339.852 92.2332 340.103 91.3969 340.186 90.477L344.786 90.3097C346.291 90.2261 347.713 89.5571 348.716 88.3863C349.72 87.2155 350.138 85.7102 349.97 84.2048L348.716 74.4203Z" fill="white"/>
<path d="M343.364 75.0896L325.803 80.86L333.413 74.337L329.482 69.0684L316.938 82.9508L319.447 85.6269C320.283 86.9649 330.987 96.6659 330.987 96.6659L334.834 90.1428L324.13 85.6269L344.618 84.7906L343.364 75.0896Z" fill="#FFD7EB"/>
<path d="M323.294 86.6305C323.294 86.0451 323.21 85.4597 323.126 84.8743C323.126 84.7906 323.126 84.6234 323.126 84.5397C323.043 83.8707 322.959 83.2017 322.792 82.5327C322.708 81.9473 322.541 81.4455 322.457 80.8601C322.374 80.6092 322.374 80.4419 322.29 80.191C322.207 79.8565 322.123 79.6056 322.039 79.2711C321.956 79.0202 321.872 78.6857 321.788 78.4348C321.705 78.184 321.621 78.0167 321.538 77.7658C321.454 77.4313 321.37 77.0968 321.203 76.8459C320.534 74.9224 319.614 72.999 318.611 71.2428C317.44 69.152 316.018 67.1449 314.513 65.3051C314.513 65.3051 314.513 65.2215 314.429 65.2215C312.841 63.3816 311.168 61.7927 309.245 60.2874C309.161 60.2874 309.161 60.2037 309.077 60.2037C303.14 55.6042 295.53 52.6772 286.666 51.7572C286.248 51.7572 285.746 51.6736 285.328 51.6736C285.077 51.6736 284.91 51.6736 284.659 51.59C284.241 51.59 283.823 51.5063 283.405 51.5063C283.154 51.5063 282.903 51.5063 282.652 51.5063C282.234 51.5063 281.816 51.5063 281.314 51.5063C281.063 51.5063 280.896 51.5063 280.645 51.5063C280.143 51.5063 279.725 51.5063 279.223 51.5063C277.802 51.5063 276.296 51.6736 274.791 51.7572C272.617 52.0081 270.61 52.5935 268.687 53.3462L280.143 113.224C279.976 113.893 279.892 114.562 279.976 115.315C280.143 116.068 280.478 116.653 280.896 117.239L280.979 117.49C280.227 118.326 279.809 119.497 280.06 120.667C280.31 121.838 281.063 122.842 282.067 123.26L282.986 127.943C285.997 128.194 289.007 128.11 292.102 127.525C295.53 126.856 298.959 125.518 302.137 123.678C302.22 123.594 302.387 123.511 302.471 123.427C302.889 123.176 303.307 122.925 303.809 122.591C303.976 122.507 304.144 122.424 304.227 122.256C304.645 122.005 305.063 121.755 305.398 121.42C305.565 121.336 305.732 121.169 305.816 121.086C306.234 120.835 306.569 120.5 306.987 120.166C307.154 120.082 307.238 119.915 307.405 119.831C307.823 119.497 308.158 119.162 308.576 118.828C308.659 118.744 308.827 118.577 308.91 118.493C309.328 118.159 309.663 117.74 310.081 117.406C310.165 117.322 310.248 117.239 310.332 117.155C310.75 116.737 311.168 116.319 311.503 115.901C311.586 115.817 311.67 115.733 311.67 115.733C312.088 115.232 312.506 114.813 313.008 114.312C313.008 114.312 313.008 114.312 313.008 114.228C315.015 111.803 316.855 109.21 318.36 106.45C319.112 105.029 319.781 103.607 320.367 102.185C320.45 102.018 320.45 101.935 320.534 101.767C320.785 101.182 320.952 100.596 321.119 100.095C321.203 99.9275 321.203 99.7602 321.287 99.5929C321.538 98.9239 321.705 98.1712 321.872 97.5022C322.625 94.6588 323.043 91.6482 323.043 88.7212C323.043 88.7212 323.043 88.7212 323.043 88.6376C323.043 87.9685 323.043 87.3831 322.959 86.7141C323.294 86.7977 323.294 86.7141 323.294 86.6305Z" fill="#FF9FC6"/>
<path d="M261.495 54.2658C276.129 79.1872 276.548 132.961 276.548 132.961L282.736 131.79L289.175 130.535C292.854 92.4006 275.042 49.8335 275.042 49.8335L261.495 54.2658Z" fill="#FFDC78"/>
<path d="M317.356 22.989C313.76 20.8983 309.579 21.4 308.074 23.9925L291.851 52.1755C290.345 54.8516 292.018 58.6985 295.614 60.7056C299.21 62.7963 303.391 62.2945 304.896 59.702L321.036 31.6028C322.625 28.9266 320.952 25.0797 317.356 22.989Z" fill="white"/>
</g>
<defs>
<linearGradient id="paint0_linear" x1="318" y1="146.437" x2="318" y2="414.618" gradientUnits="userSpaceOnUse">
<stop stop-color="white" stop-opacity="0.8"/>
<stop offset="1" stop-color="white" stop-opacity="0"/>
</linearGradient>
<linearGradient id="paint1_linear" x1="1074" y1="148.437" x2="1074" y2="416.618" gradientUnits="userSpaceOnUse">
<stop stop-color="white" stop-opacity="0.8"/>
<stop offset="1" stop-color="white" stop-opacity="0"/>
</linearGradient>
</defs>
</svg>
