<svg width="100%" height="100%" viewBox="0 0 1146 288" fill="none" xmlns="http://www.w3.org/2000/svg">
<mask id="mask0" mask-type="alpha" maskUnits="userSpaceOnUse" x="0" y="0" width="1146" height="288">
<rect width="1146" height="288" rx="10" fill="#C6F1FF"/>
</mask>
<g mask="url(#mask0)">
<path d="M891.9 10.5635L825.4 -9.26717L758.9 10.5635L692.4 -9.26717L625.9 10.5635L558 -9.66378L560.9 -19.1825L625.9 0.251541L692.4 -19.5791L758.9 0.251541L825.4 -19.5791L891.9 0.251541L958.4 -19.5791L1024.9 0.251541L1091.4 -19.5791L1157.9 0.251541L1223 -19.1825L1225.9 -9.66378L1157.9 10.5635L1091.4 -9.26717L1024.9 10.5635L958.4 -9.26717L891.9 10.5635Z" fill="#A6E4F9"/>
<path d="M891.9 32.377L825.4 12.5463L758.9 32.377L692.4 12.5463L625.9 32.377L558 12.1497L560.9 2.63099L625.9 22.065L692.4 2.23438L758.9 22.065L825.4 2.23438L891.9 22.065L958.4 2.23438L1024.9 22.065L1091.4 2.23438L1157.9 22.065L1223 2.63099L1225.9 12.1497L1157.9 32.377L1091.4 12.5463L1024.9 32.377L958.4 12.5463L891.9 32.377Z" fill="#A6E4F9"/>
<path d="M891.9 54.1914L825.4 34.3608L758.9 54.1914L692.4 34.3608L625.9 54.1914L558 33.9642L560.9 24.4454L625.9 43.8795L692.4 24.0488L758.9 43.8795L825.4 24.0488L891.9 43.8795L958.4 24.0488L1024.9 43.8795L1091.4 24.0488L1157.9 43.8795L1223 24.4454L1225.9 33.9642L1157.9 54.1914L1091.4 34.3608L1024.9 54.1914L958.4 34.3608L891.9 54.1914Z" fill="#A6E4F9"/>
<path d="M891.9 76.0051L825.4 56.1743L758.9 76.0051L692.4 56.1743L625.9 76.0051L558 55.7777L560.9 46.2589L625.9 65.6931L692.4 45.8623L758.9 65.6931L825.4 45.8623L891.9 65.6931L958.4 45.8623L1024.9 65.6931L1091.4 45.8623L1157.9 65.6931L1223 46.2589L1225.9 55.7777L1157.9 76.0051L1091.4 56.1743L1024.9 76.0051L958.4 56.1743L891.9 76.0051Z" fill="#A6E4F9"/>
<path d="M891.9 97.8186L825.4 77.9878L758.9 97.8186L692.4 77.9878L625.9 97.8186L558 77.5912L560.9 68.0724L625.9 87.5066L692.4 67.6758L758.9 87.5066L825.4 67.6758L891.9 87.5066L958.4 67.6758L1024.9 87.5066L1091.4 67.6758L1157.9 87.5066L1223 68.0724L1225.9 77.5912L1157.9 97.8186L1091.4 77.9878L1024.9 97.8186L958.4 77.9878L891.9 97.8186Z" fill="#A6E4F9"/>
<path d="M891.9 119.633L825.4 99.8022L758.9 119.633L692.4 99.8022L625.9 119.633L558 99.4056L560.9 89.8868L625.9 109.321L692.4 89.4902L758.9 109.321L825.4 89.4902L891.9 109.321L958.4 89.4902L1024.9 109.321L1091.4 89.4902L1157.9 109.321L1223 89.8868L1225.9 99.4056L1157.9 119.633L1091.4 99.8022L1024.9 119.633L958.4 99.8022L891.9 119.633Z" fill="#A6E4F9"/>
<path d="M891.9 141.446L825.4 121.616L758.9 141.446L692.4 121.616L625.9 141.446L558 121.219L560.9 111.7L625.9 131.134L692.4 111.304L758.9 131.134L825.4 111.304L891.9 131.134L958.4 111.304L1024.9 131.134L1091.4 111.304L1157.9 131.134L1223 111.7L1225.9 121.219L1157.9 141.446L1091.4 121.616L1024.9 141.446L958.4 121.616L891.9 141.446Z" fill="#A6E4F9"/>
<path d="M891.9 163.261L825.4 143.43L758.9 163.261L692.4 143.43L625.9 163.261L558 143.033L560.9 133.515L625.9 152.949L692.4 133.118L758.9 152.949L825.4 133.118L891.9 152.949L958.4 133.118L1024.9 152.949L1091.4 133.118L1157.9 152.949L1223 133.515L1225.9 143.033L1157.9 163.261L1091.4 143.43L1024.9 163.261L958.4 143.43L891.9 163.261Z" fill="#A6E4F9"/>
<path d="M891.9 185.074L825.4 165.244L758.9 185.074L692.4 165.244L625.9 185.074L558 164.847L560.9 155.328L625.9 174.762L692.4 154.932L758.9 174.762L825.4 154.932L891.9 174.762L958.4 154.932L1024.9 174.762L1091.4 154.932L1157.9 174.762L1223 155.328L1225.9 164.847L1157.9 185.074L1091.4 165.244L1024.9 185.074L958.4 165.244L891.9 185.074Z" fill="#A6E4F9"/>
<path d="M891.9 206.888L825.4 187.057L758.9 206.888L692.4 187.057L625.9 206.888L558 186.661L560.9 177.142L625.9 196.576L692.4 176.745L758.9 196.576L825.4 176.745L891.9 196.576L958.4 176.745L1024.9 196.576L1091.4 176.745L1157.9 196.576L1223 177.142L1225.9 186.661L1157.9 206.888L1091.4 187.057L1024.9 206.888L958.4 187.057L891.9 206.888Z" fill="#A6E4F9"/>
<path d="M891.9 228.702L825.4 208.872L758.9 228.702L692.4 208.872L625.9 228.702L558 208.475L560.9 198.956L625.9 218.39L692.4 198.56L758.9 218.39L825.4 198.56L891.9 218.39L958.4 198.56L1024.9 218.39L1091.4 198.56L1157.9 218.39L1223 198.956L1225.9 208.475L1157.9 228.702L1091.4 208.872L1024.9 228.702L958.4 208.872L891.9 228.702Z" fill="#A6E4F9"/>
<path d="M891.9 250.516L825.4 230.685L758.9 250.516L692.4 230.685L625.9 250.516L558 230.288L560.9 220.77L625.9 240.204L692.4 220.373L758.9 240.204L825.4 220.373L891.9 240.204L958.4 220.373L1024.9 240.204L1091.4 220.373L1157.9 240.204L1223 220.77L1225.9 230.288L1157.9 250.516L1091.4 230.685L1024.9 250.516L958.4 230.685L891.9 250.516Z" fill="#A6E4F9"/>
<path d="M891.9 272.329L825.4 252.499L758.9 272.329L692.4 252.499L625.9 272.329L558 252.102L560.9 242.583L625.9 262.017L692.4 242.187L758.9 262.017L825.4 242.187L891.9 262.017L958.4 242.187L1024.9 262.017L1091.4 242.187L1157.9 262.017L1223 242.583L1225.9 252.102L1157.9 272.329L1091.4 252.499L1024.9 272.329L958.4 252.499L891.9 272.329Z" fill="#A6E4F9"/>
<path d="M891.9 294.144L825.4 274.313L758.9 294.144L692.4 274.313L625.9 294.144L558 273.916L560.9 264.398L625.9 283.832L692.4 264.001L758.9 283.832L825.4 264.001L891.9 283.832L958.4 264.001L1024.9 283.832L1091.4 264.001L1157.9 283.832L1223 264.398L1225.9 273.916L1157.9 294.144L1091.4 274.313L1024.9 294.144L958.4 274.313L891.9 294.144Z" fill="#A6E4F9"/>
<path d="M891.9 315.957L825.4 296.126L758.9 315.957L692.4 296.126L625.9 315.957L558 295.73L560.9 286.211L625.9 305.645L692.4 285.814L758.9 305.645L825.4 285.814L891.9 305.645L958.4 285.814L1024.9 305.645L1091.4 285.814L1157.9 305.645L1223 286.211L1225.9 295.73L1157.9 315.957L1091.4 296.126L1024.9 315.957L958.4 296.126L891.9 315.957Z" fill="#A6E4F9"/>
<path d="M891.9 257.027L825.4 237.196L758.9 257.027L692.4 237.196L625.9 257.027L558 236.8L560.9 227.281L625.9 246.715L692.4 226.884L758.9 246.715L825.4 226.884L891.9 246.715L958.4 226.884L1024.9 246.715L1091.4 226.884L1157.9 246.715L1223 227.281L1225.9 236.8L1157.9 257.027L1091.4 237.196L1024.9 257.027L958.4 237.196L891.9 257.027Z" fill="#A6E4F9"/>
<path d="M891.9 278.841L825.4 259.01L758.9 278.841L692.4 259.01L625.9 278.841L558 258.614L560.9 249.095L625.9 268.529L692.4 248.698L758.9 268.529L825.4 248.698L891.9 268.529L958.4 248.698L1024.9 268.529L1091.4 248.698L1157.9 268.529L1223 249.095L1225.9 258.614L1157.9 278.841L1091.4 259.01L1024.9 278.841L958.4 259.01L891.9 278.841Z" fill="#A6E4F9"/>
<path d="M891.9 300.655L825.4 280.824L758.9 300.655L692.4 280.824L625.9 300.655L558 280.427L560.9 270.908L625.9 290.343L692.4 270.512L758.9 290.343L825.4 270.512L891.9 290.343L958.4 270.512L1024.9 290.343L1091.4 270.512L1157.9 290.343L1223 270.908L1225.9 280.427L1157.9 300.655L1091.4 280.824L1024.9 300.655L958.4 280.824L891.9 300.655Z" fill="#A6E4F9"/>
<rect x="558" width="44" height="210" fill="url(#paint0_linear)"/>
</g>
<defs>
<linearGradient id="paint0_linear" x1="558" y1="91.4691" x2="602" y2="91.4691" gradientUnits="userSpaceOnUse">
<stop stop-color="#C6F1FF"/>
<stop offset="1" stop-color="#C6F1FF" stop-opacity="0"/>
</linearGradient>
</defs>
</svg>
