<svg width="100%" height="100%" viewBox="0 0 776 441" fill="none" xmlns="http://www.w3.org/2000/svg">
<path d="M504.3 441H0.299805L105.3 330H574.3L504.3 441Z" fill="#FF9CCE"/>
<path d="M95.8002 385.199C97.0002 383.699 98.6002 382.699 100.5 382.299C102.5 381.899 103.9 380.599 103.9 379.199C103.9 377.699 102.4 376.499 100.5 376.099C98.7002 375.699 97.0002 374.699 95.8002 373.199C94.5002 371.499 92.6002 370.499 90.5002 370.499C86.5002 370.499 83.2002 374.399 83.2002 379.199C83.2002 383.999 86.5002 387.899 90.5002 387.899C92.6002 387.899 94.4002 386.799 95.8002 385.199Z" fill="#F5BE31"/>
<path d="M11.3002 394.899C7.40019 394.899 4.2002 391.699 4.2002 387.799V369.499C4.2002 365.599 7.40019 362.399 11.3002 362.399H68.6002C72.5002 362.399 75.7002 365.599 75.7002 369.499V387.799C75.7002 391.699 72.5002 394.899 68.6002 394.899H11.3002Z" fill="#C6D8F3"/>
<path d="M50.5004 371.899H9.90039V385.099C9.90039 388.999 13.1004 392.199 17.0004 392.199H71.5004L50.5004 371.899Z" fill="white"/>
<path d="M85.6998 387.9V369.6C85.6998 368.3 84.6998 367.3 83.3998 367.3H78.0998C76.7998 367.3 75.7998 368.3 75.7998 369.6V387.9C75.7998 389.2 76.7998 390.2 78.0998 390.2H83.3998C84.5998 390.2 85.6998 389.2 85.6998 387.9Z" fill="#78A4F0"/>
<path d="M65 385.399V392.199" stroke="#78A4F0" stroke-width="2" stroke-miterlimit="10"/>
<path d="M58.9004 385.399V392.199" stroke="#78A4F0" stroke-width="2" stroke-miterlimit="10"/>
<path d="M52.7002 385.399V392.199" stroke="#78A4F0" stroke-width="2" stroke-miterlimit="10"/>
<path d="M46.5996 385.399V392.199" stroke="#78A4F0" stroke-width="2" stroke-miterlimit="10"/>
<path d="M40.5 385.399V392.199" stroke="#78A4F0" stroke-width="2" stroke-miterlimit="10"/>
<path d="M34.4004 385.399V392.199" stroke="#78A4F0" stroke-width="2" stroke-miterlimit="10"/>
<path d="M28.2002 385.399V392.199" stroke="#78A4F0" stroke-width="2" stroke-miterlimit="10"/>
<path d="M22.0996 385.399V392.199" stroke="#78A4F0" stroke-width="2" stroke-miterlimit="10"/>
<path d="M16 385.399V392.199" stroke="#78A4F0" stroke-width="2" stroke-miterlimit="10"/>
<path d="M85.6998 387.899V378.699H75.7998V387.899C75.7998 389.199 76.7998 390.199 78.0998 390.199H83.3998C84.5998 390.199 85.6998 389.199 85.6998 387.899Z" fill="#6390DD"/>
<path d="M89.3002 387V371.4C89.3002 370.4 88.5002 369.6 87.5002 369.6C86.5002 369.6 85.7002 370.4 85.7002 371.4V387C85.7002 388 86.5002 388.8 87.5002 388.8C88.5002 388.8 89.3002 388 89.3002 387Z" fill="#EDA925"/>
<path opacity="0.34" d="M65.8006 373.4H26.0006C23.9006 373.4 22.1006 371.7 22.1006 369.5C22.1006 367.4 23.8006 365.6 26.0006 365.6H65.8006C67.9006 365.6 69.7006 367.3 69.7006 369.5C69.7006 371.7 68.0006 373.4 65.8006 373.4Z" fill="white"/>
<path opacity="0.2" d="M91.6742 403H10.3215C7.94468 403 6 401.2 6 399C6 396.8 7.94468 395 10.3215 395H91.6742C94.051 395 95.9957 396.8 95.9957 399C96.1037 401.2 94.1591 403 91.6742 403Z" fill="black" fill-opacity="0.54"/>
<path opacity="0.2" d="M233 385.8L297.4 319H630L581.2 385.8H233Z" fill="black" fill-opacity="0.54"/>
<path fill-rule="evenodd" clip-rule="evenodd" d="M586.4 107C586.4 107.431 586.34 107.85 586.227 108.249C589.897 110.087 592.4 113.764 592.4 118C592.4 122.437 589.654 126.261 585.698 128H586V319H574V128H576.103C572.147 126.261 569.4 122.437 569.4 118C569.4 113.764 571.904 110.087 575.573 108.249C575.46 107.85 575.4 107.431 575.4 107C575.4 104.239 577.863 102 580.9 102C583.938 102 586.4 104.239 586.4 107Z" fill="#CDB6C1" fill-opacity="0.7"/>
<path fill-rule="evenodd" clip-rule="evenodd" d="M250 107C250 107.431 249.94 107.85 249.827 108.249C253.496 110.087 256 113.764 256 118C256 122.437 253.253 126.261 249.298 128H249.6V331H237.6V128H239.702C235.747 126.261 233 122.437 233 118C233 113.764 235.504 110.087 239.173 108.249C239.06 107.85 239 107.431 239 107C239 104.239 241.462 102 244.5 102C247.538 102 250 104.239 250 107Z" fill="#CDB6C1" fill-opacity="0.68"/>
<path d="M569.4 285.409C569.4 270.338 557 258.043 541.8 258.043H272.2C257 258.043 244.6 270.338 244.6 285.409V312.578H569.4V285.409Z" fill="#F5BE31"/>
<path d="M569.4 292.548H244.6V312.478H569.4V292.548Z" fill="#DBAA2C"/>
<path d="M412.8 159.979H401.1V333.102H412.8V159.979Z" fill="white"/>
<path d="M385.4 159.979H373.7V333.102H385.4V159.979Z" fill="white"/>
<path d="M358 159.979H346.3V333.102H358V159.979Z" fill="white"/>
<path d="M330.6 159.979H318.9V333.102H330.6V159.979Z" fill="white"/>
<path d="M303.1 159.979H291.4V333.102H303.1V159.979Z" fill="white"/>
<path d="M275.7 159.979H264V333.102H275.7V159.979Z" fill="white"/>
<path d="M550 159.979H538.3V333.102H550V159.979Z" fill="white"/>
<path d="M522.6 159.979H510.9V333.102H522.6V159.979Z" fill="white"/>
<path d="M495.1 159.979H483.4V333.102H495.1V159.979Z" fill="white"/>
<path d="M467.7 159.979H456V333.102H467.7V159.979Z" fill="white"/>
<path d="M440.3 159.979H428.6V333.102H440.3V159.979Z" fill="white"/>
<path d="M412.8 159.979H401.1V193.196H412.8V159.979Z" fill="#DBDBDB"/>
<path d="M385.4 159.979H373.7V193.196H385.4V159.979Z" fill="#DBDBDB"/>
<path d="M358 159.979H346.3V193.196H358V159.979Z" fill="#DBDBDB"/>
<path d="M330.6 159.979H318.9V193.196H330.6V159.979Z" fill="#DBDBDB"/>
<path d="M303.1 159.979H291.4V193.196H303.1V159.979Z" fill="#DBDBDB"/>
<path d="M275.7 159.979H264V193.196H275.7V159.979Z" fill="#DBDBDB"/>
<path d="M550 159.979H538.3V193.196H550V159.979Z" fill="#DBDBDB"/>
<path d="M522.6 159.979H510.9V193.196H522.6V159.979Z" fill="#DBDBDB"/>
<path d="M495.1 159.979H483.4V193.196H495.1V159.979Z" fill="#DBDBDB"/>
<path d="M467.7 159.979H456V193.196H467.7V159.979Z" fill="#DBDBDB"/>
<path d="M440.3 159.979H428.6V193.196H440.3V159.979Z" fill="#DBDBDB"/>
<path d="M575.2 312.577H238.7V347.182H575.2V312.577Z" fill="white"/>
<path d="M407 361.757C458.805 361.757 500.8 350.792 500.8 337.266C500.8 323.74 458.805 312.775 407 312.775C355.196 312.775 313.2 323.74 313.2 337.266C313.2 350.792 355.196 361.757 407 361.757Z" fill="white"/>
<path d="M574.9 158.393H238.2V181.892H574.9V158.393Z" fill="white"/>
<path d="M569.4 165.829H244.6V170.192H569.4V165.829Z" fill="#DBDBDB"/>
<path d="M569.4 321.799H244.6V326.162H569.4V321.799Z" fill="#DBDBDB"/>
<path d="M238.2 133.803C244.606 133.803 249.8 128.653 249.8 122.301C249.8 115.948 244.606 110.799 238.2 110.799C231.793 110.799 226.6 115.948 226.6 122.301C226.6 128.653 231.793 133.803 238.2 133.803Z" fill="white"/>
<path d="M575.6 133.803C582.007 133.803 587.2 128.653 587.2 122.301C587.2 115.948 582.007 110.799 575.6 110.799C569.193 110.799 564 115.948 564 122.301C564 128.653 569.193 133.803 575.6 133.803Z" fill="white"/>
<path d="M238.2 115.063C241.016 115.063 243.3 112.799 243.3 110.006C243.3 107.213 241.016 104.949 238.2 104.949C235.383 104.949 233.1 107.213 233.1 110.006C233.1 112.799 235.383 115.063 238.2 115.063Z" fill="white"/>
<path d="M575.6 115.063C578.417 115.063 580.7 112.799 580.7 110.006C580.7 107.213 578.417 104.949 575.6 104.949C572.783 104.949 570.5 107.213 570.5 110.006C570.5 112.799 572.783 115.063 575.6 115.063Z" fill="white"/>
<path d="M581.1 122.301H569.4V385.951H581.1V122.301Z" fill="white"/>
<path d="M244.6 122.301H232.9V385.951H244.6V122.301Z" fill="white"/>
<path d="M317.5 45.1592V68.8569" stroke="#3BAEB8" stroke-width="3.8131" stroke-miterlimit="10"/>
<path d="M317.5 84.5234V97.5127" stroke="#3BAEB8" stroke-width="3.8131" stroke-miterlimit="10"/>
<path d="M317.2 83.5315C321.508 83.5315 325 80.0689 325 75.7975C325 71.5261 321.508 68.0635 317.2 68.0635C312.893 68.0635 309.4 71.5261 309.4 75.7975C309.4 80.0689 312.893 83.5315 317.2 83.5315Z" stroke="#3BAEB8" stroke-width="3.8131" stroke-miterlimit="10"/>
<path d="M269.7 45.1592V68.8569" stroke="#3BAEB8" stroke-width="3.8131" stroke-miterlimit="10"/>
<path d="M269.7 84.5234V97.5127" stroke="#3BAEB8" stroke-width="3.8131" stroke-miterlimit="10"/>
<path d="M269.4 83.5315C273.707 83.5315 277.2 80.0689 277.2 75.7975C277.2 71.5261 273.707 68.0635 269.4 68.0635C265.092 68.0635 261.6 71.5261 261.6 75.7975C261.6 80.0689 265.092 83.5315 269.4 83.5315Z" stroke="#3BAEB8" stroke-width="3.8131" stroke-miterlimit="10"/>
<path d="M293.7 45.1592V131.126" stroke="#3BAEB8" stroke-width="3.8131" stroke-miterlimit="10"/>
<path d="M365.1 45.1592V68.8569" stroke="#3BAEB8" stroke-width="3.8131" stroke-miterlimit="10"/>
<path d="M365.1 84.5234V97.5127" stroke="#3BAEB8" stroke-width="3.8131" stroke-miterlimit="10"/>
<path d="M365.3 83.5315C369.608 83.5315 373.1 80.0689 373.1 75.7975C373.1 71.5261 369.608 68.0635 365.3 68.0635C360.992 68.0635 357.5 71.5261 357.5 75.7975C357.5 80.0689 360.992 83.5315 365.3 83.5315Z" stroke="#3BAEB8" stroke-width="3.8131" stroke-miterlimit="10"/>
<path d="M341 45.1592V131.126" stroke="#3BAEB8" stroke-width="3.8131" stroke-miterlimit="10"/>
<path d="M303.2 142.132H284.3" stroke="#F078B7" stroke-width="2.1998" stroke-miterlimit="10"/>
<path d="M283.4 135.588L283.9 136.48H282.9C279.8 136.48 277.3 138.959 277.3 142.132C277.3 145.206 279.8 147.685 283 147.685H284L283.5 148.577C281.9 151.254 282.9 154.724 285.6 156.212C288.3 157.798 291.8 156.807 293.3 154.13L293.8 153.237L294.3 154.13C295.9 156.807 299.3 157.699 302 156.212C304.7 154.625 305.6 151.254 304.1 148.577L303.6 147.685H304.6C307.7 147.685 310.2 145.206 310.2 142.033C310.2 139.951 309.1 138.166 307.4 137.174C306.6 136.678 305.6 136.381 304.6 136.48H303.6L304.1 135.588C305.7 132.911 304.7 129.44 302 127.953C299.3 126.366 295.8 127.358 294.3 130.035L293.8 130.928L293.3 130.035C292.8 129.143 292.1 128.449 291.2 127.953C289.5 126.961 287.4 126.961 285.5 127.953C282.8 129.539 281.9 132.911 283.4 135.588ZM298.2 134.497C302.4 136.877 303.9 142.33 301.5 146.495C299.1 150.659 293.6 152.146 289.4 149.767C285.2 147.387 283.7 141.934 286.1 137.769C288.5 133.506 293.9 132.117 298.2 134.497Z" fill="#F078B7"/>
<path d="M293.7 149.172C297.621 149.172 300.8 146.02 300.8 142.132C300.8 138.244 297.621 135.092 293.7 135.092C289.778 135.092 286.6 138.244 286.6 142.132C286.6 146.02 289.778 149.172 293.7 149.172Z" fill="#F5BE31"/>
<path opacity="0.16" d="M293.7 134.992V149.171C297.6 149.171 300.8 145.998 300.8 142.131C300.9 138.165 297.7 134.992 293.7 134.992Z" fill="black"/>
<path d="M316.2 110.105C316.2 104.057 320.8 98.9997 326.7 98.3056C324.3 96.5209 321.3 95.5293 318 95.5293C309.9 95.5293 303.3 102.073 303.3 110.105C303.3 118.136 309.9 124.681 318 124.681C321.2 124.681 324.2 123.59 326.7 121.904C320.8 121.111 316.2 116.153 316.2 110.105Z" fill="#F5BE31"/>
<path d="M267.7 95.6283C268.1 94.8351 268.8 94.4385 269.7 94.4385C270.5 94.4385 271.3 94.9343 271.7 95.6283L275.2 102.569L283 103.66C283.8 103.759 284.5 104.354 284.8 105.147C285.1 105.94 284.8 106.833 284.2 107.428L278.6 112.881L279.9 120.516C280 121.309 279.7 122.202 279 122.697C278.3 123.193 277.4 123.292 276.7 122.896L269.7 119.227L262.7 122.896C262 123.292 261 123.193 260.4 122.697C259.7 122.202 259.4 121.408 259.5 120.516L260.8 112.881L255.2 107.428C254.6 106.833 254.4 105.94 254.6 105.147C254.9 104.354 255.6 103.759 256.4 103.66L264.2 102.569L267.7 95.6283Z" fill="#78A4F0"/>
<path d="M284.7 105.247C284.4 104.453 283.7 103.859 282.9 103.759L275.1 102.669L271.6 95.7279C271.2 94.9347 270.5 94.5381 269.6 94.5381V119.426L276.6 123.094C277.3 123.491 278.3 123.392 278.9 122.896C279.6 122.4 279.9 121.607 279.8 120.715L278.5 113.08L284.1 107.626C284.8 106.932 285 106.04 284.7 105.247Z" fill="#6996E1"/>
<path d="M267.6 94.4385H271.8" stroke="#3BAEB8" stroke-width="3.8131" stroke-miterlimit="10" stroke-linecap="round"/>
<path d="M315.1 93.8438H319.4" stroke="#3BAEB8" stroke-width="3.8131" stroke-miterlimit="10" stroke-linecap="round"/>
<path d="M260.4 45.1592H374.1" stroke="#F7C80C" stroke-width="7.7481" stroke-miterlimit="10" stroke-linecap="round"/>
<path d="M309.1 39.9043H325.4" stroke="#F7C80C" stroke-width="7.7481" stroke-miterlimit="10" stroke-linecap="round" stroke-linejoin="round"/>
<path d="M378.7 100.19C378.7 96.2237 375.5 93.0508 371.5 93.0508C368.7 93.0508 366.2 94.6372 365.1 97.0169C363.9 94.6372 361.5 93.0508 358.7 93.0508C354.7 93.0508 351.5 96.2237 351.5 100.19C351.5 108.221 362.5 117.046 365.1 117.046C367.7 116.947 378.7 108.717 378.7 100.19Z" fill="#4AE17D"/>
<path d="M365.1 97.0169C363.9 94.6372 361.5 93.0508 358.7 93.0508C354.7 93.0508 351.5 96.2237 351.5 100.19C351.5 108.221 362.5 117.046 365.1 117.046V97.0169Z" fill="#87FFAF"/>
<path d="M333.8 149.37L326.5 136.877L333.8 124.482H348.2L355.4 136.877L348.2 149.37H333.8Z" fill="#9A56D8"/>
<path d="M336.2 145.106L331.5 136.877L336.2 128.746H345.8L350.5 136.877L345.8 145.106H336.2Z" fill="#AB5FF1"/>
<path d="M239.6 217.588H217.8C207.4 217.588 199 209.259 199 198.947V23.1468C199 12.8348 207.4 4.50586 217.8 4.50586H297.8C308.2 4.50586 316.6 12.8348 316.6 23.1468V41.3911" stroke="#F7C80C" stroke-width="7.7481" stroke-miterlimit="10" stroke-linejoin="round"/>
<path opacity="0.2" d="M620.6 395.868L656.2 369.196L775.7 368.502L742.4 395.868H620.6Z" fill="black" fill-opacity="0.54"/>
<path d="M757.2 199.246H606.7V377.624H757.2V199.246Z" fill="white"/>
<path d="M759.8 186.059H604L606.7 199.246H757.2L759.8 186.059Z" fill="white"/>
<path d="M743.6 357.496C743.6 361.76 740.1 365.131 735.9 365.131H628C623.7 365.131 620.3 361.661 620.3 357.496V326.858C620.3 322.594 623.8 319.223 628 319.223H735.8C740.1 319.223 743.5 322.693 743.5 326.858V357.496H743.6Z" fill="#DBDBDB"/>
<path d="M743.6 352.538C743.6 356.802 740.1 360.173 735.9 360.173H628C623.7 360.173 620.3 356.703 620.3 352.538V321.9C620.3 317.636 623.8 314.265 628 314.265H735.8C740.1 314.265 743.5 317.735 743.5 321.9V352.538H743.6Z" fill="#FFCAE5"/>
<path d="M637.7 377.624H613.9L621 395.868H637.7V377.624Z" fill="white"/>
<path d="M725.8 377.624H749.5L742.4 395.868H725.8V377.624Z" fill="white"/>
<path d="M698.1 330.129C696.6 327.452 693.1 326.461 690.3 327.948L689.4 328.444V327.452C689.4 324.378 686.9 321.8 683.8 321.701C680.7 321.701 678.1 324.18 678 327.254V328.245L677.1 327.75C674.4 326.163 670.9 327.056 669.3 329.733C667.7 332.41 668.6 335.88 671.3 337.467L672.2 337.962L671.3 338.458C668.6 339.945 667.6 343.416 669.1 346.192C670.6 348.869 674.1 349.861 676.9 348.374L677.8 347.878V348.869C677.8 351.943 680.3 354.521 683.4 354.62C685.5 354.62 687.4 353.53 688.4 351.844C688.9 351.051 689.2 350.059 689.2 349.068V348.076L690.1 348.572C692.8 350.158 696.3 349.266 697.9 346.589C699.5 343.912 698.6 340.441 695.9 338.855L695 338.359L695.9 337.863C696.8 337.367 697.5 336.673 698 335.781C699 334.095 699.1 331.914 698.1 330.129Z" fill="#F078B7"/>
<path d="M695.9 338.855L695 338.359L695.9 337.863C696.8 337.367 697.5 336.673 698 335.781C699 334.095 699.1 331.914 698.1 330.129C696.6 327.452 693.1 326.461 690.3 327.948L689.4 328.444V327.452C689.4 324.378 686.9 321.8 683.8 321.701C683.7 321.701 683.7 321.701 683.6 321.701V354.62C685.6 354.62 687.4 353.53 688.4 351.844C688.9 351.051 689.2 350.059 689.2 349.068V348.076L690.1 348.572C692.8 350.158 696.3 349.266 697.9 346.589C699.5 343.912 698.6 340.441 695.9 338.855Z" fill="#F067AF"/>
<path d="M684.8 332.112C688.8 332.112 692 335.384 691.9 339.351C691.9 343.317 688.6 346.49 684.6 346.39C680.6 346.39 677.4 343.118 677.5 339.152C677.6 335.285 680.8 332.112 684.8 332.112Z" fill="#F056A7"/>
<path d="M683.7 331.021C687.7 331.021 690.9 334.294 690.8 338.26C690.8 342.226 687.5 345.399 683.5 345.3C679.5 345.3 676.3 342.028 676.4 338.061C676.4 334.194 679.7 331.021 683.7 331.021Z" fill="#F5BE31"/>
<path d="M743.6 300.978C743.6 305.242 740.1 308.613 735.9 308.613H628C623.7 308.613 620.3 305.143 620.3 300.978V270.34C620.3 266.076 623.8 262.705 628 262.705H735.8C740.1 262.705 743.5 266.175 743.5 270.34V300.978H743.6Z" fill="#DBDBDB"/>
<path d="M743.6 296.02C743.6 300.284 740.1 303.655 735.9 303.655H628C623.7 303.655 620.3 300.185 620.3 296.02V265.382C620.3 261.118 623.8 257.747 628 257.747H735.8C740.1 257.747 743.5 261.217 743.5 265.382V296.02H743.6Z" fill="#FFCAE5"/>
<path d="M698.1 273.612C696.6 270.935 693.1 269.943 690.3 271.43L689.4 271.926V270.935C689.4 267.861 686.9 265.283 683.8 265.184C680.7 265.184 678.1 267.662 678 270.736V271.728L677.1 271.232C674.4 269.646 670.9 270.538 669.3 273.215C667.7 275.892 668.6 279.363 671.3 280.949L672.2 281.445L671.3 281.941C668.6 283.428 667.6 286.898 669.1 289.675C670.6 292.352 674.1 293.343 676.9 291.856L677.8 291.36V292.352C677.8 295.426 680.3 298.004 683.4 298.103C685.5 298.103 687.4 297.012 688.4 295.326C688.9 294.533 689.2 293.542 689.2 292.55V291.559L690.1 292.054C692.8 293.641 696.3 292.748 697.9 290.071C699.5 287.394 698.6 283.924 695.9 282.337L695 281.841L695.9 281.346C696.8 280.85 697.5 280.156 698 279.263C699 277.578 699.1 275.396 698.1 273.612Z" fill="#F078B7"/>
<path d="M697.9 290.071C699.5 287.394 698.6 283.924 695.9 282.337L695 281.841L695.9 281.346C696.8 280.85 697.5 280.156 698 279.263C699 277.578 699.1 275.396 698.1 273.612C696.6 270.935 693.1 269.943 690.3 271.43L689.4 271.926V270.935C689.4 267.861 686.9 265.283 683.8 265.184C683.7 265.184 683.7 265.184 683.6 265.184V298.103C685.6 298.103 687.4 297.012 688.4 295.326C688.9 294.533 689.2 293.542 689.2 292.55V291.559L690.1 292.054C692.8 293.641 696.3 292.748 697.9 290.071Z" fill="#F067AF"/>
<path d="M684.8 275.595C688.8 275.595 692 278.867 691.9 282.833C691.9 286.799 688.6 289.972 684.6 289.873C680.6 289.873 677.4 286.601 677.5 282.635C677.6 278.768 680.8 275.595 684.8 275.595Z" fill="#F056A7"/>
<path d="M683.7 274.504C687.7 274.504 690.9 277.776 690.8 281.742C690.8 285.708 687.5 288.881 683.5 288.782C679.5 288.782 676.3 285.51 676.4 281.544C676.4 277.677 679.7 274.504 683.7 274.504Z" fill="#F5BE31"/>
<path d="M735.8 253.087H628C623.7 253.087 620.3 249.617 620.3 245.452V214.814C620.3 210.55 623.8 207.179 628 207.179H735.8C740.1 207.179 743.5 210.649 743.5 214.814V245.452C743.6 249.617 740.1 253.087 735.8 253.087Z" fill="#DBDBDB"/>
<path d="M735.8 248.129H628C623.7 248.129 620.3 244.659 620.3 240.494V209.856C620.3 205.592 623.8 202.221 628 202.221H735.8C740.1 202.221 743.5 205.691 743.5 209.856V240.494C743.6 244.659 740.1 248.129 735.8 248.129Z" fill="#FFCAE5"/>
<path d="M690.3 215.904L689.4 216.4V215.408C689.4 212.334 686.9 209.756 683.8 209.657C680.7 209.657 678.1 212.136 678 215.21V216.201L677.1 215.706C674.4 214.119 670.9 215.012 669.3 217.689C667.7 220.366 668.6 223.836 671.3 225.423L672.2 225.918L671.3 226.414C668.6 227.902 667.6 231.372 669.1 234.148C670.6 236.825 674.1 237.817 676.9 236.33L677.8 235.834V236.825C677.8 239.899 680.3 242.477 683.4 242.576C685.5 242.576 687.4 241.486 688.4 239.8C688.9 239.007 689.2 238.015 689.2 237.024V236.032L690.1 236.528C692.8 238.114 696.3 237.222 697.9 234.545C699.5 231.868 698.6 228.397 695.9 226.811L695 226.315L695.9 225.819C696.8 225.324 697.5 224.629 698 223.737C699 222.051 699.1 219.87 698.1 218.085C696.5 215.309 693 214.417 690.3 215.904Z" fill="#F078B7"/>
<path d="M695.9 226.811L695 226.315L695.9 225.819C696.8 225.324 697.5 224.629 698 223.737C699 222.051 699.1 219.87 698.1 218.085C696.6 215.408 693.1 214.417 690.3 215.904L689.4 216.4V215.408C689.4 212.334 686.9 209.756 683.8 209.657C683.7 209.657 683.7 209.657 683.6 209.657V242.576C685.6 242.576 687.4 241.486 688.4 239.8C688.9 239.007 689.2 238.015 689.2 237.024V236.032L690.1 236.528C692.8 238.114 696.3 237.222 697.9 234.545C699.5 231.868 698.6 228.397 695.9 226.811Z" fill="#F067AF"/>
<path d="M684.8 220.068C688.8 220.068 692 223.34 691.9 227.307C691.9 231.273 688.6 234.446 684.6 234.346C680.6 234.346 677.4 231.074 677.5 227.108C677.6 223.241 680.8 220.068 684.8 220.068Z" fill="#F056A7"/>
<path d="M683.7 218.978C687.7 218.978 690.9 222.25 690.8 226.216C690.8 230.182 687.5 233.355 683.5 233.256C679.5 233.256 676.3 229.984 676.4 226.017C676.4 222.15 679.7 218.978 683.7 218.978Z" fill="#F5BE31"/>
<path d="M637.7 386.746V377.624H613.9L617.5 386.746H637.7Z" fill="#DBDBDB"/>
<path d="M746 386.746L749.5 377.624H725.8V386.746H746Z" fill="#DBDBDB"/>
</svg>
