<svg width="149" height="139" viewBox="0 0 149 139" fill="none" xmlns="http://www.w3.org/2000/svg">
<path d="M80.7518 96.6461C79.7149 96.6461 78.7427 96.7106 77.7706 96.904C75.1782 91.2316 69.4102 87.2996 62.7349 87.2996C58.9112 87.2996 55.4115 88.5888 52.6248 90.7159C48.6066 86.5906 42.9683 84.0122 36.7466 84.0122C27.2845 84.0122 19.2482 89.9424 16.1374 98.2576C15.6838 98.1931 15.2301 98.1931 14.7764 98.1931C7.06417 98.1931 0.712897 104.059 0 111.472C0.712897 118.433 6.28646 124.041 13.2858 124.686C14.5172 132.55 21.3869 138.544 29.6176 138.544C35.3856 138.544 40.4407 135.644 43.4219 131.196C47.3752 135.064 52.8192 137.384 58.7816 137.384C64.8736 137.384 70.4472 134.87 74.4005 130.874C76.4096 131.583 78.5483 131.97 80.7518 131.97C90.9268 131.97 99.2223 124.17 100 114.243C99.2223 104.446 90.9268 96.6461 80.7518 96.6461Z" fill="url(#paint0_linear)"/>
<path opacity="0.52" d="M139.568 6.2182C139.06 6.2182 138.584 6.24985 138.108 6.34478C136.837 3.56016 134.011 1.62992 130.74 1.62992C128.866 1.62992 127.152 2.26279 125.786 3.30702C123.817 1.28185 121.054 0.0161133 118.006 0.0161133C113.369 0.0161133 109.432 2.9273 107.907 7.00929C107.685 6.97764 107.463 6.97764 107.24 6.97764C103.461 6.97764 100.349 9.85719 100 13.4962C100.349 16.9136 103.08 19.6666 106.51 19.983C107.113 23.8435 110.48 26.7864 114.513 26.7864C117.339 26.7864 119.816 25.3624 121.277 23.179C123.214 25.0776 125.881 26.2168 128.803 26.2168C131.788 26.2168 134.519 24.9827 136.456 23.0208C137.441 23.3689 138.489 23.5587 139.568 23.5587C144.554 23.5587 148.619 19.7299 149 14.8568C148.619 10.047 144.554 6.2182 139.568 6.2182Z" fill="url(#paint1_linear)"/>
<defs>
<linearGradient id="paint0_linear" x1="69.5026" y1="66.1844" x2="11.1432" y2="65.9593" gradientUnits="userSpaceOnUse">
<stop stop-color="#FBA85E"/>
<stop offset="1" stop-color="#FFD053"/>
</linearGradient>
<linearGradient id="paint1_linear" x1="134.056" y1="-8.73568" x2="105.46" y2="-8.84579" gradientUnits="userSpaceOnUse">
<stop stop-color="#FBA85E"/>
<stop offset="1" stop-color="#FFD053"/>
</linearGradient>
</defs>
</svg>
