<svg width="62" height="65" viewBox="0 0 62 65" fill="none" xmlns="http://www.w3.org/2000/svg">
<path d="M58.8506 30.5762H3.05957V64.3612H58.8506V30.5762Z" fill="#94C01F"/>
<path d="M62 24.2471H0V34.4985H62V24.2471Z" fill="#6F9017"/>
<path d="M40.4929 42.1641H21.416V47.78H40.4929V42.1641Z" fill="#004458"/>
<path d="M48.7725 17.5612C48.7725 18.8092 47.7827 19.8789 46.5229 19.8789H15.028C13.7682 19.8789 12.7783 18.8092 12.7783 17.5612V11.1429C12.7783 9.89491 13.7682 8.8252 15.028 8.8252H46.6129C47.8727 8.8252 48.8625 9.89491 48.8625 11.1429V17.5612H48.7725Z" fill="#1D71B8"/>
<path d="M42.4734 10.4297C42.4734 11.6777 41.3036 12.7474 39.8638 12.7474H21.6867C20.247 12.7474 19.0771 11.6777 19.0771 10.4297V2.31771C19.0771 1.06971 20.247 0 21.6867 0H39.9538C41.3936 0 42.5634 1.06971 42.5634 2.31771V10.4297H42.4734Z" fill="#1D71B8"/>
<path d="M29.6954 7.75495C29.6954 8.37895 29.3354 8.91381 28.7955 8.91381H22.4965C22.0466 8.91381 21.5967 8.37895 21.5967 7.75495V3.83268C21.5967 3.20868 22.0466 2.67383 22.4965 2.67383H28.7955C29.2454 2.67383 29.6954 3.20868 29.6954 3.83268V7.75495Z" fill="#71CCF2"/>
<path d="M40.044 7.75495C40.044 8.37895 39.6841 8.91381 39.1442 8.91381H32.8452C32.3952 8.91381 31.9453 8.37895 31.9453 7.75495V3.83268C31.9453 3.20868 32.3053 2.67383 32.8452 2.67383H39.1442C39.5941 2.67383 40.044 3.20868 40.044 3.83268V7.75495Z" fill="#71CCF2"/>
<path d="M25.1058 20.6816C25.1058 22.6428 23.576 24.1582 21.5963 24.1582C19.6167 24.1582 18.0869 22.6428 18.0869 20.6816C18.0869 18.7205 19.6167 17.2051 21.5963 17.2051C23.576 17.2051 25.1058 18.7205 25.1058 20.6816Z" fill="#004458" stroke="#004458" stroke-width="2.6" stroke-miterlimit="10"/>
<path d="M40.0436 24.1582C41.9818 24.1582 43.553 22.6017 43.553 20.6816C43.553 18.7616 41.9818 17.2051 40.0436 17.2051C38.1054 17.2051 36.5342 18.7616 36.5342 20.6816C36.5342 22.6017 38.1054 24.1582 40.0436 24.1582Z" fill="#004458" stroke="#004458" stroke-width="2.6" stroke-miterlimit="10"/>
<path d="M23.3962 20.681C23.3962 21.6615 22.5863 22.4638 21.6864 22.4638C20.6966 22.4638 19.8867 21.6615 19.8867 20.681C19.8867 19.7004 20.6966 18.9872 21.6864 18.9872C22.5863 18.8981 23.3962 19.7004 23.3962 20.681Z" fill="#878787"/>
<path d="M41.7537 20.681C41.7537 21.6615 40.9438 22.4638 39.954 22.4638C38.9642 22.4638 38.1543 21.6615 38.1543 20.681C38.1543 19.7004 38.9642 18.9872 39.954 18.9872C41.0338 18.8981 41.7537 19.7004 41.7537 20.681Z" fill="#878787"/>
</svg>
