<svg width="170" height="172" viewBox="0 0 170 172" fill="none" xmlns="http://www.w3.org/2000/svg">
<path d="M14.3006 55.4161C15.6367 56.0793 16.3493 56.7425 17.0173 58.1132C17.1955 58.5111 17.7744 58.5111 17.9971 58.1132C18.6651 56.7867 19.3332 56.0793 20.7138 55.4161C21.1146 55.2392 21.1146 54.6644 20.7138 54.4433C19.3777 53.7801 18.6651 53.1169 17.9971 51.7462C17.819 51.3483 17.24 51.3483 17.0173 51.7462C16.3493 53.0727 15.6812 53.7801 14.3006 54.4433C13.8998 54.6644 13.8998 55.2392 14.3006 55.4161Z" fill="url(#paint0_linear)"/>
<path d="M74.5571 111.342C77.0333 112.57 78.354 113.798 79.5921 116.335C79.9222 117.071 80.9952 117.071 81.4079 116.335C82.646 113.88 83.8841 112.57 86.4429 111.342C87.1857 111.015 87.1857 109.951 86.4429 109.542C83.9667 108.314 82.646 107.087 81.4079 104.55C81.0778 103.813 80.0048 103.813 79.5921 104.55C78.354 107.005 77.1159 108.314 74.5571 109.542C73.8143 109.951 73.8143 111.015 74.5571 111.342Z" fill="url(#paint1_linear)"/>
<path d="M1.45714 156.918C7.93333 160.128 11.3873 163.339 14.6254 169.974C15.4889 171.9 18.2952 171.9 19.3746 169.974C22.6127 163.553 25.8508 160.128 32.5429 156.918C34.4857 156.062 34.4857 153.279 32.5429 152.209C26.0667 148.998 22.6127 145.788 19.3746 139.153C18.5111 137.226 15.7048 137.226 14.6254 139.153C11.3873 145.574 8.14921 148.998 1.45714 152.209C-0.485714 153.279 -0.485714 156.062 1.45714 156.918Z" fill="url(#paint2_linear)"/>
<path d="M107.714 13.5701C106.378 14.2333 105.665 14.8964 104.997 16.267C104.819 16.6649 104.24 16.6649 104.017 16.267C103.349 14.9406 102.681 14.2333 101.301 13.5701C100.9 13.3932 100.9 12.8185 101.301 12.5974C102.637 11.9342 103.349 11.2711 104.017 9.90048C104.195 9.50257 104.774 9.50257 104.997 9.90048C105.665 11.2268 106.333 11.9342 107.714 12.5974C108.115 12.8185 108.115 13.3932 107.714 13.5701Z" fill="url(#paint3_linear)"/>
<path d="M168.843 15.2694C163.7 17.819 160.957 20.3685 158.386 25.6376C157.7 27.1673 155.471 27.1673 154.614 25.6376C152.043 20.5385 149.471 17.819 144.157 15.2694C142.614 14.5896 142.614 12.38 144.157 11.5301C149.3 8.98056 152.043 6.43101 154.614 1.16194C155.3 -0.367784 157.529 -0.367784 158.386 1.16194C160.957 6.26104 163.529 8.98056 168.843 11.5301C170.386 12.38 170.386 14.5896 168.843 15.2694Z" fill="url(#paint4_linear)"/>
<defs>
<linearGradient id="paint0_linear" x1="18.8752" y1="49.1711" x2="14.7816" y2="49.1624" gradientUnits="userSpaceOnUse">
<stop stop-color="#F3706C"/>
<stop offset="1" stop-color="#FFBA9D"/>
</linearGradient>
<linearGradient id="paint1_linear" x1="83.0353" y1="99.783" x2="75.4485" y2="99.7669" gradientUnits="userSpaceOnUse">
<stop stop-color="#F3706C"/>
<stop offset="1" stop-color="#FFBA9D"/>
</linearGradient>
<linearGradient id="paint2_linear" x1="23.6309" y1="126.687" x2="3.78848" y2="126.645" gradientUnits="userSpaceOnUse">
<stop stop-color="#F3706C"/>
<stop offset="1" stop-color="#FFBA9D"/>
</linearGradient>
<linearGradient id="paint3_linear" x1="105.875" y1="7.32557" x2="101.782" y2="7.31689" gradientUnits="userSpaceOnUse">
<stop stop-color="#F3706C"/>
<stop offset="1" stop-color="#FFBA9D"/>
</linearGradient>
<linearGradient id="paint4_linear" x1="161.766" y1="-8.73715" x2="146.008" y2="-8.77058" gradientUnits="userSpaceOnUse">
<stop stop-color="#F3706C"/>
<stop offset="1" stop-color="#FFBA9D"/>
</linearGradient>
</defs>
</svg>
