<svg width="110" height="138" viewBox="0 0 110 138" fill="none" xmlns="http://www.w3.org/2000/svg">
<path d="M89.0109 77.1685C85.5238 68.9372 72.9376 72.7077 66.0178 71.4332C61.0596 70.5304 56.6462 67.7689 53.2136 64.2109C47.765 58.5287 44.169 50.7755 42.8068 43.1284C41.8806 37.8711 42.044 32.3482 44.1145 27.4626C46.1849 22.5769 50.3804 18.3286 55.6655 16.9478C60.8962 15.5671 67.1076 17.3727 70.1043 21.8335C74.2997 28.1529 71.2485 37.2338 75.5529 43.447C72.0113 31.8171 79.5303 18.1162 91.4083 14.5581C96.1486 13.1243 101.761 13.3367 105.466 16.5761C109.389 19.9748 110.097 25.9756 108.408 30.8613C106.719 35.7469 103.123 39.7297 99.4722 43.447C95.7672 47.1644 91.8987 50.7755 89.3378 55.2894C85.7417 61.715 86.1776 70.4242 89.0109 77.1685Z" fill="url(#paint0_linear)"/>
<path opacity="0.45" d="M60.782 116.102C55.5444 114.452 52.4079 121.705 49.107 124.371C46.7467 126.286 43.7236 127.219 40.7083 127.387C35.9056 127.641 30.8507 126.23 26.7176 123.837C23.88 122.188 21.3428 119.934 19.8499 117.058C18.3571 114.183 17.9937 110.585 19.4061 107.619C20.7973 104.679 24.0719 102.546 27.3424 102.933C31.956 103.504 35.0419 108.484 39.648 108.964C32.7886 105.998 29.2705 97.1491 32.2307 90.3048C33.4055 87.5679 35.6958 85.0811 38.6675 84.6619C41.7992 84.2057 44.9018 86.2485 46.5435 88.9495C48.1853 91.6505 48.6575 94.8689 48.9835 98.0075C49.2881 101.171 49.479 104.368 50.6054 107.321C52.2281 111.503 56.4999 114.739 60.782 116.102Z" fill="url(#paint1_linear)"/>
<path opacity="0.27" d="M14.094 23.5238C13.6512 20.7644 9.57744 21.0086 7.58525 20.1226C6.15701 19.491 5.03045 18.3321 4.2585 17.0009C3.03574 14.8773 2.52465 12.2558 2.67929 9.82724C2.78868 8.15833 3.24626 6.48686 4.23174 5.14672C5.21721 3.80657 6.79628 2.81343 8.49191 2.77262C10.1711 2.72789 11.9105 3.72477 12.4843 5.29976C13.2821 7.52741 11.6907 10.0756 12.5292 12.2788C12.3212 8.47963 15.6012 4.84455 19.4456 4.61417C20.9809 4.518 22.6574 4.98625 23.535 6.23991C24.4666 7.5578 24.2365 9.43762 23.366 10.8052C22.4956 12.1728 21.1168 13.1281 19.7413 13.9985C18.3494 14.8651 16.916 15.6875 15.8101 16.8791C14.2508 18.5789 13.7384 21.2646 14.094 23.5238Z" fill="url(#paint2_linear)"/>
<defs>
<linearGradient id="paint0_linear" x1="102.486" y1="18.0257" x2="35.0126" y2="28.6936" gradientUnits="userSpaceOnUse">
<stop stop-color="#FF7AB8"/>
<stop offset="0.979574" stop-color="#FF9FCC"/>
</linearGradient>
<linearGradient id="paint1_linear" x1="38.1871" y1="86.5987" x2="16.9348" y2="121.748" gradientUnits="userSpaceOnUse">
<stop stop-color="#FF7AB8"/>
<stop offset="0.979574" stop-color="#FF9FCC"/>
</linearGradient>
<linearGradient id="paint2_linear" x1="22.5293" y1="6.46744" x2="1.40917" y2="4.71327" gradientUnits="userSpaceOnUse">
<stop stop-color="#FF7AB8"/>
<stop offset="0.979574" stop-color="#FF9FCC"/>
</linearGradient>
</defs>
</svg>
