<svg width="100%" height="100%" viewBox="0 0 133 186" fill="none" xmlns="http://www.w3.org/2000/svg">
<g clip-path="url(#clip0)">
<path opacity="0.4" d="M75.3004 129.111L76.6004 128.119L76.7004 128.02L85.9004 120.782L86.0004 120.683V120.485L86.1004 120.584C87.3004 119.592 88.5004 118.601 89.8004 117.51C92.5004 115.229 95.1004 113.048 97.5004 111.065L97.6004 110.966C98.9004 109.875 100.2 108.685 101.5 107.495C101.5 107.495 101.5 107.495 101.6 107.396C112.6 97.6792 119.4 90.4409 122.2 85.2849C133.5 64.9584 128.8 39.3767 110.9 24.5036L110.6 24.3053C110 23.8095 109.3 23.2146 108.6 22.7188C108.4 22.5205 108.2 22.4214 108 22.2231C107.8 22.1239 107.6 21.9256 107.4 21.8264C107.7 21.529 107.9 21.2315 108.1 20.9341L112.1 13.795C112.5 13.1009 112.6 12.4068 112.7 11.7128C113.3 9.53137 112.4 7.15167 110.3 5.96183C109.1 5.26775 107.7 5.1686 106.4 5.56521L97.7004 0.805824C95.5004 -0.384023 92.8004 0.409208 91.6004 2.49144L91.1004 3.38382L85.0004 1.99567C83.1004 1.4999 81.0004 2.39229 80.1004 4.17706C79.1004 5.86267 79.4004 8.04406 80.9004 9.43221L84.7004 13.2001C84.6004 13.2001 84.5004 13.2001 84.4004 13.2001C82.8004 13.0018 81.1004 12.9026 79.5004 12.9026C79.5004 12.9026 79.5004 12.9026 79.4004 12.9026C78.5004 12.9026 77.6004 12.9026 76.5004 13.0018L76.0004 13.2001C75.1004 13.2992 74.3004 13.2992 73.3004 13.4975H73.0004C72.0004 13.5967 71.0004 13.795 70.0004 13.9933L69.6004 14.0924C68.8004 14.2908 67.9004 14.4891 67.1004 14.6874L66.4004 14.8857C65.4004 15.1831 64.6004 15.3814 63.8004 15.6789C63.8004 15.6789 63.6004 15.6789 63.6004 15.7781C62.7004 16.0755 61.8004 16.373 60.8004 16.7696L60.2004 16.9679C59.5004 17.2654 58.7004 17.5628 58.0004 17.9594L57.5004 18.1578C56.5004 18.6535 55.7004 19.0501 54.9004 19.5459H54.8004C54.0004 19.9425 53.2004 20.4383 52.4004 21.0332C52.2004 21.1324 52.0004 21.2315 51.8004 21.4298L51.7004 21.529C51.1004 21.9256 50.4004 22.4214 49.8004 22.9171L49.3004 23.3138C48.5004 23.9087 47.7004 24.5036 47.0004 25.1977L46.6004 25.5943C46.0004 26.0901 45.4004 26.685 44.8004 27.2799C44.6004 27.4782 44.4004 27.6765 44.2004 27.8748C43.6004 28.4698 43.0004 29.0647 42.5004 29.7588L42.2004 30.1554C41.9004 30.4528 41.6004 30.8495 41.3004 31.1469L41.2004 31.3452C40.9004 31.7418 40.6004 32.0393 40.3004 32.4359C40.2004 32.6342 40.1004 32.7334 40.0004 32.9317L39.9004 33.13C39.4004 33.7249 39.0004 34.419 38.5004 35.0139H38.4004C38.3004 35.2122 38.2004 35.4105 38.0004 35.6088C37.4004 36.6004 36.9004 37.3936 36.4004 38.286C29.0004 51.4735 24.7004 93.4156 24.0004 101.645L21.1004 106.801C19.6004 106.801 18.2004 107.297 17.1004 108.289C16.6004 108.685 16.2004 109.181 15.9004 109.776C14.4004 112.453 15.3004 115.725 17.9004 117.411L15.9004 120.98C14.1004 120.286 12.1004 120.385 10.4004 121.377C10.3004 121.377 10.3004 121.476 10.2004 121.476C9.90041 121.674 9.50041 121.972 9.20041 122.269C9.10041 122.368 9.10041 122.368 9.00041 122.468C8.60041 122.864 8.30041 123.261 8.10041 123.757C6.90041 125.938 7.10041 128.615 8.60041 130.598L0.300408 157.171C-0.299592 159.155 0.500408 161.336 2.40041 162.327L33.5004 179.382C35.4004 180.374 37.7004 179.977 39.1004 178.39L57.4004 157.271C59.8004 157.469 62.3004 156.378 63.5004 154.098C63.7004 153.701 63.9004 153.205 64.1004 152.71C64.1004 152.61 64.1004 152.61 64.2004 152.511C64.7004 150.429 64.0004 148.347 62.6004 146.859L64.7004 143.092C67.4004 144.381 70.8004 143.389 72.2004 140.712C72.5004 140.216 72.7004 139.621 72.8004 138.927C72.9004 138.531 72.9004 138.134 72.9004 137.737C72.9004 136.647 72.5004 135.556 71.9004 134.763L74.8004 129.607L75.2004 129.309L75.3004 129.111ZM28.5004 127.822L24.7004 125.74L26.7004 122.269L30.5004 124.352L28.5004 127.822ZM41.1004 134.763L37.3004 132.68L39.3004 129.21L43.1004 131.292L41.1004 134.763ZM53.8004 141.704L50.0004 139.621L52.0004 136.151L55.8004 138.233L53.8004 141.704Z" fill="#5EA8DE"/>
<path d="M79.7002 134.763L81.0002 133.772L81.1002 133.673L90.3002 126.434L90.4002 126.335V126.137L90.5002 126.236C91.7002 125.245 92.9002 124.253 94.2002 123.162C96.9002 120.981 99.5002 118.7 101.9 116.717L102 116.618C103.3 115.527 104.6 114.338 105.9 113.148C105.9 113.148 105.9 113.148 106 113.049C117 103.332 123.8 96.0933 126.6 90.9373C137.9 70.6107 133.2 45.029 115.3 30.1559L115 29.9576C114.4 29.4619 113.7 28.8669 113 28.3712C112.8 28.1729 112.6 28.0737 112.4 27.8754C112.2 27.7763 112 27.5779 111.8 27.4788C112.1 27.1813 112.3 26.8839 112.5 26.5864L116.5 19.4473C116.9 18.7532 117 18.0592 117.1 17.3651C117.7 15.1837 116.8 12.804 114.7 11.6142C113.5 10.9201 112.1 10.8209 110.8 11.2176L102.1 6.45817C99.9002 5.26832 97.2002 6.06155 96.0002 8.14378L95.7002 9.23448L89.6002 7.84632C87.7002 7.44971 85.6002 8.24294 84.7002 10.0277C83.7002 11.7133 84.0002 13.8947 85.5002 15.2829L89.3002 19.0507C89.2002 19.0507 89.1002 19.0507 89.0002 19.0507C87.4002 18.8524 85.7002 18.7533 84.1002 18.7533C84.1002 18.7533 84.1002 18.7533 84.0002 18.7533C83.1002 18.7533 82.2002 18.7533 81.1002 18.8524H80.4002C79.5002 18.9516 78.7002 18.9516 77.7002 19.1499H77.4002C76.4002 19.249 75.4002 19.4473 74.4002 19.6456L74.0002 19.7448C73.2002 19.9431 72.3002 20.1414 71.5002 20.3397L70.8002 20.538C69.8002 20.8355 69.0002 21.0338 68.2002 21.3313C68.2002 21.3313 68.0002 21.3313 68.0002 21.4304C67.1002 21.7279 66.2002 22.0253 65.2002 22.4219L64.6002 22.6203C63.9002 22.9177 63.1002 23.2152 62.4002 23.6118L61.8002 23.9093C60.8002 24.405 60.0002 24.8016 59.2002 25.2974H59.1002C58.3002 25.694 57.5002 26.1898 56.7002 26.7847C56.5002 26.8839 56.3002 26.983 56.1002 27.1813L56.0002 27.2805C55.3002 27.6771 54.7002 28.1729 54.1002 28.6686L53.6002 29.0653C52.8002 29.6602 52.0002 30.2551 51.3002 30.9492L51.0002 31.1475C50.4002 31.6433 49.8002 32.2382 49.2002 32.8331C49.0002 33.0314 48.8002 33.2297 48.6002 33.428C48.0002 34.023 47.4002 34.6179 46.9002 35.3119L46.6002 35.7086C46.3002 36.006 46.0002 36.4026 45.7002 36.7001L45.6002 36.8984C45.3002 37.295 45.0002 37.5925 44.7002 37.9891C44.6002 38.1874 44.5002 38.2866 44.4002 38.4849L44.3002 38.6832C43.8002 39.2781 43.4002 39.9722 42.9002 40.5671L42.8002 40.7654C42.7002 40.9637 42.6002 41.162 42.4002 41.3603C41.8002 42.3519 41.3002 43.1451 40.8002 44.0375C33.4002 57.3241 29.1002 99.2662 28.4002 107.496L25.5002 112.652C24.0002 112.652 22.6002 113.148 21.5002 114.139C21.0002 114.536 20.6002 115.032 20.3002 115.627C18.8002 118.304 19.7002 121.576 22.3002 123.261L20.3002 126.831C18.5002 126.137 16.5002 126.236 14.8002 127.228C14.7002 127.228 14.7002 127.327 14.6002 127.327C14.3002 127.525 13.9002 127.823 13.6002 128.12C13.5002 128.219 13.5002 128.219 13.4002 128.318C13.0002 128.715 12.7002 129.112 12.5002 129.607C11.3002 131.888 11.5002 134.466 13.0002 136.449L4.60015 163.022C4.00015 165.005 4.90015 167.187 6.70015 168.178L37.8002 185.233C39.7002 186.224 42.0002 185.828 43.4002 184.241L61.7002 162.923C64.1002 163.121 66.6002 162.031 67.8002 159.75C68.0002 159.353 68.2002 158.858 68.4002 158.362C68.4002 158.263 68.4002 158.263 68.5002 158.164C69.0002 156.081 68.3002 153.999 66.9002 152.512L69.0002 148.744C71.7002 150.033 75.1002 149.041 76.5002 146.364C76.8002 145.869 77.0002 145.174 77.1002 144.58C77.2002 144.183 77.2002 143.786 77.2002 143.39C77.2002 142.299 76.8002 141.208 76.2002 140.415L79.1002 135.259L79.5002 134.962L79.7002 134.763ZM32.9002 133.474L29.1002 131.392L31.1002 127.922L35.0002 130.004L32.9002 133.474ZM45.5002 140.415L41.7002 138.333L43.7002 134.862L47.5002 136.945L45.5002 140.415ZM58.2002 147.356L54.4002 145.274L56.4002 141.803L60.2002 143.885L58.2002 147.356Z" fill="white"/>
<path d="M33.3004 113.445L21.4004 134.664" stroke="#42769B" stroke-miterlimit="10"/>
<path d="M46.0006 120.386L34.1006 141.605" stroke="#325974" stroke-miterlimit="10"/>
<path d="M58.6002 127.326L46.7002 148.545" stroke="#325974" stroke-miterlimit="10"/>
<path d="M71.2004 134.267L59.4004 155.486" stroke="#42769B" stroke-miterlimit="10"/>
<path d="M122.801 88.8547C134.701 67.4374 126.901 40.4676 105.301 28.6683C83.7006 16.869 56.5006 24.603 44.6006 46.0202C37.0006 59.6043 32.6006 108.685 32.6006 108.685L75.6006 132.185C75.6006 132.185 115.301 102.439 122.801 88.8547Z" fill="white"/>
<path d="M105.4 28.6683C83.8002 16.869 56.6002 24.603 44.7002 46.0202C37.1002 59.6043 32.7002 108.685 32.7002 108.685L37.5002 111.263C37.5002 111.263 45.8002 64.2645 53.4002 50.6804C65.3002 29.3623 88.6002 19.447 105.4 28.6683Z" fill="#5EA8DE"/>
<path d="M105.401 28.6683C93.4008 22.1242 74.0008 34.1218 62.1008 55.539C54.5008 69.1231 42.3008 113.941 42.3008 113.941L47.1008 116.519C47.1008 116.519 63.3008 73.7833 70.8008 60.2984C82.7008 38.8812 98.2008 24.7022 105.401 28.6683Z" fill="#5EA8DE"/>
<path d="M105.401 28.6683C103.001 27.3793 91.4008 43.6405 79.4008 65.0578C71.8008 78.6419 51.8008 119.196 51.8008 119.196L56.6008 121.774C56.6008 121.774 80.6008 83.4013 88.1008 69.8172C100.101 48.3999 107.801 29.9573 105.401 28.6683Z" fill="#5EA8DE"/>
<path d="M105.401 28.6685C112.601 32.6346 108.701 53.1595 96.8008 74.5767C89.2008 88.1608 61.3008 124.352 61.3008 124.352L66.1008 126.93C66.1008 126.93 97.9008 92.821 105.501 79.2369C117.401 57.9189 117.401 35.2126 105.401 28.6685Z" fill="#5EA8DE"/>
<path d="M105.4 28.6685C122.2 37.8898 126.1 62.6782 114.2 84.0955C106.6 97.6796 70.9004 129.607 70.9004 129.607L75.7004 132.185C75.7004 132.185 115.3 102.34 122.9 88.8549C134.8 67.4376 127 40.5669 105.4 28.6685Z" fill="#5EA8DE"/>
<path d="M32.7342 108.69L28.9082 115.543L71.8658 139.121L75.6918 132.268L32.7342 108.69Z" fill="#FCA324"/>
<path d="M105.4 28.6684C102 26.7844 98.4003 25.3963 94.7003 24.5039C94.4003 27.5777 97.4003 31.643 102.2 34.3201C107.1 36.9973 112.2 37.3939 114.6 35.4108C111.9 32.8328 108.8 30.5523 105.4 28.6684Z" fill="#FCA324"/>
<path d="M104.5 30.2547L112.4 16.0757" stroke="#FCA324" stroke-miterlimit="10" stroke-linecap="round"/>
<path d="M88.6006 12.1099L99.2006 22.6202L101.201 19.0506L103.201 15.4811L88.6006 12.1099Z" fill="#5597C8"/>
<path d="M98.3006 17.4639L96.1006 17.563L99.2006 22.6199L101.201 19.0503L98.3006 17.4639Z" fill="#3D6D90"/>
<path d="M100.154 10.4072L96.1348 17.6074L108.821 24.5689L112.84 17.3687L100.154 10.4072Z" fill="#5EA8DE"/>
<path opacity="0.6" d="M87.7002 119.295C63.2002 115.031 47.1002 89.6479 51.9002 62.5789C55.3002 43.5413 68.1002 28.6682 84.0002 23.1156C68.2002 23.0165 52.9002 31.2462 44.7002 45.921C37.1002 59.5051 32.7002 108.586 32.7002 108.586L75.6002 132.185C75.6002 132.185 82.6002 126.93 91.4002 119.791C90.2002 119.692 88.9002 119.493 87.7002 119.295Z" fill="#5EA8DE"/>
<path opacity="0.6" d="M43.2004 114.436L32.7004 108.686L28.9004 115.527L52.3004 128.318C48.5004 124.352 45.4004 119.592 43.2004 114.436Z" fill="#FCA324"/>
<path d="M103.101 109.875L37.2006 73.6841C36.6006 77.1545 36.1006 80.6249 35.6006 83.9961L95.1006 116.618C97.8006 114.436 100.501 112.156 103.101 109.875Z" fill="#FCA324"/>
<path opacity="0.6" d="M35.6006 83.9961L56.5006 95.4979C54.4006 91.2343 52.8006 86.6732 51.9006 81.8147L37.2006 73.6841C36.7006 77.1545 36.1006 80.6249 35.6006 83.9961Z" fill="#FCA324"/>
<path opacity="0.3" d="M121.7 64.0663C125.3 80.1293 120.3 94.804 110.4 96.9854C100.6 99.1668 89.7003 87.9624 86.1003 71.8995C82.5003 55.8366 87.5003 41.1618 97.4003 38.9804C107.2 36.799 118.1 48.0034 121.7 64.0663Z" fill="white"/>
<path opacity="0.3" d="M115 65.5539C112.8 55.6385 106 48.5986 99.9004 49.9867C93.8004 51.3749 90.6004 60.497 92.9004 70.5116C95.1004 80.427 101.9 87.4669 108 86.0787C114.1 84.6906 117.2 75.4693 115 65.5539Z" fill="white"/>
<path d="M18.8004 132.482L8.90039 164.113L40.0004 181.167L61.7004 156.081L18.8004 132.482Z" fill="#FCA324"/>
<path opacity="0.4" d="M16.2004 140.712L8.90039 164.113L40.0004 181.167L43.3004 177.399C28.9004 170.657 18.6004 156.676 16.2004 140.712Z" fill="#FCA324"/>
<path opacity="0.4" d="M60.7002 157.271L18.3002 133.97L17.2002 137.44L22.4002 140.316C20.9002 141.109 19.4002 142.596 18.9002 143.588C18.0002 145.273 18.7002 147.455 20.5002 148.446C22.3002 149.438 24.6002 148.942 25.5002 147.256C26.0002 146.265 26.5002 144.282 26.4002 142.596L34.4002 146.959C32.9002 147.752 31.4002 149.239 30.9002 150.231C30.0002 151.917 30.7002 154.098 32.5002 155.09C34.3002 156.081 36.6002 155.585 37.5002 153.9C38.1002 152.908 38.5002 150.925 38.4002 149.239L46.4002 153.602C44.9002 154.395 43.5002 155.883 42.9002 156.874C42.0002 158.56 42.7002 160.741 44.5002 161.733C46.3002 162.724 48.6002 162.229 49.5002 160.543C50.0002 159.551 50.5002 157.568 50.4002 155.883L58.1002 160.047L60.7002 157.271Z" fill="#FCA324"/>
<path d="M63.9005 157.568C63.4005 158.461 62.3004 158.758 61.5005 158.263L17.0004 133.97C16.1004 133.474 15.8004 132.383 16.3004 131.59C16.8004 130.698 17.9004 130.4 18.7004 130.896L63.1004 155.288C64.0005 155.685 64.3005 156.775 63.9005 157.568Z" fill="#BD7A1B"/>
<path opacity="0.5" d="M62.3004 156.775L17.9004 132.383C17.3004 132.086 17.0004 131.491 17.0004 130.896C16.7004 131.094 16.5004 131.293 16.3004 131.59C15.8004 132.482 16.1004 133.573 17.0004 133.97L61.4005 158.362C62.3004 158.857 63.4004 158.56 63.8004 157.668C64.0005 157.37 64.0005 157.073 64.0005 156.775C63.5005 157.073 62.9004 157.073 62.3004 156.775Z" fill="#BD7A1B"/>
<path d="M10.1004 160.146L8.90039 164.113L40.0004 181.167L42.7004 178.093L10.1004 160.146Z" fill="#BD7A1B"/>
<path opacity="0.5" d="M40.0004 181.167L41.3004 179.58L9.50039 162.129L8.90039 164.112L40.0004 181.167Z" fill="#BD7A1B"/>
<path d="M27.4009 146.86C26.5009 148.545 24.2009 149.14 22.4009 148.05C20.6009 147.058 19.8009 144.877 20.8009 143.191C21.7009 141.506 25.4009 138.531 27.2009 139.522C29.0009 140.514 28.4009 145.174 27.4009 146.86Z" fill="#5EA8DE"/>
<path opacity="0.5" d="M24.5008 146.562C22.7008 145.571 21.9008 143.389 22.9008 141.704C23.2008 141.208 23.7008 140.613 24.4008 139.919C22.9008 140.712 21.4008 142.199 20.8008 143.191C19.9008 144.877 20.6008 147.058 22.4008 148.05C24.2008 149.041 26.4008 148.545 27.4008 146.959C26.5008 147.157 25.4008 147.058 24.5008 146.562Z" fill="#5EA8DE"/>
<path d="M26.9007 137.242C27.2007 136.746 27.9007 136.647 28.6007 137.044C29.3007 137.44 29.6007 138.134 29.3007 138.63C29.0007 139.126 27.9007 139.919 27.2007 139.622C26.5007 139.126 26.6007 137.738 26.9007 137.242Z" fill="#5EA8DE"/>
<path d="M39.5005 153.404C38.6005 155.089 36.3005 155.684 34.5005 154.594C32.7005 153.602 31.9005 151.421 32.9005 149.735C33.8005 148.049 37.5005 145.075 39.3005 146.066C41.1005 147.058 40.4005 151.718 39.5005 153.404Z" fill="#5EA8DE"/>
<path opacity="0.5" d="M36.6004 153.106C34.8004 152.115 34.0004 149.933 35.0004 148.248C35.3004 147.752 35.8004 147.157 36.5004 146.463C35.0004 147.256 33.5004 148.743 32.9004 149.735C32.0004 151.421 32.7004 153.602 34.5004 154.594C36.3004 155.585 38.5004 155.089 39.5004 153.503C38.5004 153.8 37.5004 153.602 36.6004 153.106Z" fill="#5EA8DE"/>
<path d="M38.9002 143.786C39.2002 143.29 39.9002 143.191 40.6002 143.588C41.3002 143.984 41.6002 144.678 41.3002 145.174C41.0002 145.67 39.9002 146.463 39.2002 146.166C38.6002 145.769 38.6002 144.282 38.9002 143.786Z" fill="#5EA8DE"/>
<path d="M51.5005 160.047C50.6005 161.733 48.3005 162.328 46.5005 161.237C44.7005 160.246 43.9005 158.064 44.9005 156.379C45.8005 154.693 49.5005 151.718 51.3005 152.71C53.1005 153.701 52.5005 158.362 51.5005 160.047Z" fill="#5EA8DE"/>
<path opacity="0.5" d="M48.6004 159.75C46.8004 158.758 46.0004 156.577 47.0004 154.891C47.3004 154.395 47.8004 153.801 48.5004 153.106C47.0004 153.9 45.5004 155.387 44.9004 156.379C44.0004 158.064 44.7004 160.246 46.5004 161.237C48.3004 162.229 50.5004 161.733 51.5004 160.146C50.6004 160.345 49.5004 160.246 48.6004 159.75Z" fill="#5EA8DE"/>
<path d="M51.0003 150.429C51.3003 149.934 52.0003 149.834 52.7003 150.231C53.4003 150.628 53.7003 151.322 53.4003 151.818C53.1003 152.313 52.0003 153.107 51.3003 152.809C50.6003 152.313 50.7003 150.925 51.0003 150.429Z" fill="#5EA8DE"/>
<path d="M72.1007 142.398L68.4007 140.415L29.6007 119.097L25.9007 117.114C25.3007 116.816 24.5007 117.015 24.1007 117.609C23.8007 118.204 24.0007 118.998 24.6007 119.394L28.3007 121.377L67.1007 142.695L70.8007 144.678C71.4007 144.976 72.2007 144.778 72.6007 144.183C72.9007 143.588 72.7007 142.795 72.1007 142.398Z" fill="#BD7A1B"/>
<path opacity="0.5" d="M71.4007 143.588L67.7007 141.605L28.9007 120.287L25.2007 118.304C24.8007 118.105 24.6007 117.61 24.6007 117.213C24.4007 117.312 24.2007 117.51 24.1007 117.709C23.8007 118.304 24.0007 119.097 24.6007 119.493L28.3007 121.477L67.1007 142.795L70.8007 144.778C71.4007 145.075 72.2007 144.877 72.6007 144.282C72.7007 144.084 72.7007 143.885 72.7007 143.588C72.3007 143.687 71.8007 143.786 71.4007 143.588Z" fill="#BD7A1B"/>
</g>
<defs>
<clipPath id="clip0">
<rect y="0.310547" width="132.9" height="185.319" fill="white"/>
</clipPath>
</defs>
</svg>
