<svg width="100%" height="100%" viewBox="0 0 61 67" fill="none" xmlns="http://www.w3.org/2000/svg">
<path d="M50.3998 0H43.7998V8.2H50.3998V0Z" fill="#004458"/>
<path d="M16.6 2.2002H11V12.4002H16.6V2.2002Z" fill="#004458"/>
<path d="M22.1996 3.49978C22.1996 4.59978 21.5996 5.49978 20.8996 5.49978H1.39961C0.699609 5.49978 0.0996094 4.59978 0.0996094 3.49978C0.0996094 2.39978 0.699609 1.49978 1.39961 1.49978H20.8996C21.5996 1.39978 22.1996 2.29978 22.1996 3.49978Z" fill="#004458"/>
<path d="M60.1996 58.4002C60.1996 62.9002 56.4996 66.6002 51.9996 66.6002H42.2996C37.7996 66.6002 34.0996 62.9002 34.0996 58.4002V19.9002C34.0996 15.4002 37.7996 11.7002 42.2996 11.7002H51.9996C56.4996 11.7002 60.1996 15.4002 60.1996 19.9002V58.4002Z" fill="#33C7CC"/>
<path d="M56.9004 24H37.4004V55.8H56.9004V24Z" fill="white"/>
<path d="M54.2 31.3998C54.2 31.9998 53.7 32.4998 53.1 32.4998H41.1C40.5 32.4998 40 31.9998 40 31.3998V30.8998C40 30.2998 40.5 29.7998 41.1 29.7998H53.1C53.7 29.7998 54.2 30.2998 54.2 30.8998V31.3998Z" fill="#8CB0AD"/>
<path d="M21.3996 11.5996H6.09961V19.7996H21.3996V11.5996Z" fill="#DB4997"/>
<path d="M27.5 58.3996C27.5 62.8996 23.9 66.5996 19.3 66.5996H8.2C3.7 66.5996 0 62.8996 0 58.3996V27.7996C0 23.2996 3.6 19.5996 8.2 19.5996H19.4C23.9 19.5996 27.6 23.2996 27.6 27.7996V58.3996H27.5Z" fill="#FD84E1"/>
<path d="M22.6004 29.9004H4.90039V55.2004H22.6004V29.9004Z" fill="white"/>
<path d="M20.1998 43.7996C20.1998 46.6996 19.7998 49.0996 19.1998 49.0996H8.2998C7.7998 49.0996 7.2998 46.6996 7.2998 43.7996V41.3996C7.2998 38.4996 7.6998 36.0996 8.2998 36.0996H19.1998C19.6998 36.0996 20.1998 38.4996 20.1998 41.3996V43.7996Z" fill="#DB4997"/>
</svg>
