<svg width="100%" height="100%" viewBox="0 0 699 166" fill="none" xmlns="http://www.w3.org/2000/svg">
<g clip-path="url(#clip0)">
<path d="M141.425 53.1029L152.067 47.782L153.769 36.0759L161.964 44.5894L173.67 42.5675L168.136 53.1029L173.67 63.5319L161.964 61.51L153.769 70.0234L152.067 58.3174L141.425 53.1029Z" fill="white"/>
<path d="M220.812 8.19445L226.027 5.64041L226.772 0.000224807L230.816 4.04413L236.456 3.08636L233.796 8.19445L236.456 13.3025L230.816 12.3448L226.772 16.3887L226.027 10.7485L220.812 8.19445Z" fill="white"/>
<path d="M286.048 53.103L293.178 49.5912L294.242 41.7162L299.882 47.3564L307.651 45.9729L303.926 53.103L307.651 60.1266L299.882 58.7431L294.242 64.4897L293.178 56.6148L286.048 53.103Z" fill="white"/>
<path d="M359.902 15.9629L365.862 12.9831L366.82 6.3852L371.502 11.174L378.1 10.0034L375.014 15.9629L378.1 21.8159L371.502 20.7517L366.82 25.5405L365.862 18.9426L359.902 15.9629Z" fill="white"/>
</g>
<g clip-path="url(#clip1)">
<path d="M80.3398 103.971L85.5544 101.417L86.2993 95.7766L90.3432 99.8205L95.9834 98.8627L93.3229 103.971L95.9834 109.079L90.3432 108.121L86.2993 112.165L85.5544 106.525L80.3398 103.971Z" fill="white"/>
<path d="M145.574 148.879L152.704 145.368L153.768 137.493L159.409 143.133L167.177 141.749L163.453 148.879L167.177 155.903L159.409 154.52L153.768 160.266L152.704 152.391L145.574 148.879Z" fill="white"/>
<path d="M219.429 111.739L225.388 108.76L226.346 102.162L231.028 106.95L237.626 105.78L234.54 111.739L237.626 117.592L231.028 116.528L226.346 121.317L225.388 114.719L219.429 111.739Z" fill="white"/>
</g>
<g clip-path="url(#clip2)">
<path d="M296.796 146.751L307.438 141.43L309.14 129.724L317.335 138.238L329.041 136.216L323.507 146.751L329.041 157.18L317.335 155.158L309.14 163.672L307.438 151.966L296.796 146.751Z" fill="white"/>
<path d="M376.184 101.843L381.398 99.2888L382.143 93.6487L386.187 97.6926L391.827 96.7348L389.167 101.843L391.827 106.951L386.187 105.993L382.143 110.037L381.398 104.397L376.184 101.843Z" fill="white"/>
<path d="M441.419 146.751L448.549 143.24L449.613 135.365L455.253 141.005L463.022 139.621L459.297 146.751L463.022 153.775L455.253 152.392L449.613 158.138L448.549 150.263L441.419 146.751Z" fill="white"/>
</g>
<path d="M679.902 128.298L685.862 125.343L686.82 118.801L691.502 123.549L698.1 122.389L695.014 128.298L698.1 134.101L691.502 133.046L686.82 137.794L685.862 131.252L679.902 128.298Z" fill="white"/>
<defs>
<clipPath id="clip0">
<rect x="141.425" y="70.0234" width="70.0234" height="236.675" transform="rotate(-90 141.425 70.0234)" fill="white"/>
</clipPath>
<clipPath id="clip1">
<rect x="0.952148" y="165.8" width="70.0234" height="236.675" transform="rotate(-90 0.952148 165.8)" fill="white"/>
</clipPath>
<clipPath id="clip2">
<rect x="296.796" y="163.672" width="70.0234" height="236.675" transform="rotate(-90 296.796 163.672)" fill="white"/>
</clipPath>
</defs>
</svg>
