<svg width="66" height="63" viewBox="0 0 66 63" fill="none" xmlns="http://www.w3.org/2000/svg">
<path d="M37.0002 54.3C37.0002 56.3 35.0002 57.9 32.6002 57.9C30.2002 57.9 28.2002 56.3 28.2002 54.3V3.6C28.2002 1.6 30.2002 0 32.6002 0C35.0002 0 37.0002 1.6 37.0002 3.6V54.3Z" fill="#FFC257"/>
<path d="M59.6 43C59.6 46.6 56.7 49.5 53.1 49.5H12C8.4 49.5 5.5 46.6 5.5 43C5.5 39.4 8.4 36.5 12 36.5H53.1C56.7 36.5 59.6 39.4 59.6 43Z" fill="#94C01F"/>
<path d="M54.9996 30.4004C54.9996 34.0004 52.0996 36.9004 48.4996 36.9004H16.5996C12.9996 36.9004 10.0996 34.0004 10.0996 30.4004C10.0996 26.8004 12.9996 23.9004 16.5996 23.9004H48.4996C52.0996 23.9004 54.9996 26.8004 54.9996 30.4004Z" fill="#D0397C"/>
<path d="M50.4002 17.7998C50.4002 21.3998 47.5002 24.2998 43.9002 24.2998H21.2002C17.6002 24.2998 14.7002 21.3998 14.7002 17.7998C14.7002 14.1998 17.6002 11.2998 21.2002 11.2998H43.9002C47.5002 11.2998 50.4002 14.1998 50.4002 17.7998Z" fill="#F9B233"/>
<path d="M65.1 55.5996C65.1 59.1996 62.2 62.0996 58.6 62.0996H6.5C2.9 62.0996 0 59.1996 0 55.5996C0 51.9996 2.9 49.0996 6.5 49.0996H58.6C62.2 49.0996 65.1 51.9996 65.1 55.5996Z" fill="#50B0B9"/>
</svg>
