<?xml version="1.0"?>
<svg xmlns="http://www.w3.org/2000/svg" xmlns:xlink="http://www.w3.org/1999/xlink" version="1.1" id="Layer_1" x="0px" y="0px" viewBox="0 0 512 512" style="enable-background:new 0 0 512 512;" xml:space="preserve" width="512px" height="512px" class=""><g><g>
	<g>
		<path d="M292.369,0C177.295,0,83.676,93.619,83.676,208.692c0,12.626,1.157,25.23,3.407,37.593    c-45.193,23.44-76.144,70.671-76.144,125C10.938,448.876,74.062,512,151.653,512c61.507,0,113.916-39.67,133.004-94.766    c2.587,0.096,5.164,0.15,7.712,0.15c115.074,0,208.693-93.619,208.693-208.693C501.06,93.619,407.442,0,292.369,0z     M269.537,374.869c-0.01,0.343-0.026,0.683-0.039,1.025c-0.034,0.889-0.079,1.777-0.132,2.664    c-0.021,0.345-0.042,0.689-0.066,1.033c-0.074,1.058-0.161,2.115-0.263,3.17c-0.013,0.13-0.022,0.261-0.035,0.391    c-0.12,1.191-0.26,2.379-0.416,3.564c-0.04,0.304-0.085,0.607-0.128,0.91c-0.121,0.869-0.25,1.736-0.391,2.602    c-0.065,0.398-0.13,0.796-0.198,1.192c-0.14,0.815-0.293,1.628-0.45,2.44c-0.072,0.37-0.138,0.744-0.214,1.112    c-0.21,1.029-0.437,2.055-0.675,3.079c-0.142,0.611-0.295,1.219-0.448,1.826c-0.112,0.45-0.225,0.898-0.343,1.347    c-13.283,50.582-59.395,88.003-114.087,88.003c-65.034,0-117.942-52.908-117.942-117.942c0-63.24,50.031-115.008,112.589-117.817    c0.002,0,0.003,0,0.006,0c0.927-0.042,1.815-0.072,2.679-0.093c0.887-0.021,1.776-0.034,2.668-0.034    c0.995,0,1.987,0.014,2.975,0.038c0.182,0.005,0.363,0.014,0.545,0.019c0.828,0.024,1.654,0.054,2.479,0.094    c0.104,0.006,0.206,0.013,0.31,0.018c3.93,0.208,7.809,0.607,11.628,1.192c51.517,7.894,92.159,49.245,98.988,101.101    c0.028,0.215,0.059,0.429,0.087,0.646c0.072,0.572,0.133,1.148,0.198,1.723c0.048,0.438,0.101,0.876,0.145,1.316    c0.387,3.88,0.589,7.815,0.589,11.795C269.596,372.48,269.572,373.675,269.537,374.869z M290.289,347.139    c-0.277-1.595-0.58-3.181-0.91-4.758c-0.098-0.469-0.204-0.936-0.306-1.403c-0.286-1.298-0.589-2.589-0.91-3.874    c-0.171-0.684-0.348-1.365-0.529-2.046c-0.286-1.073-0.584-2.14-0.894-3.203c-0.215-0.74-0.433-1.479-0.66-2.215    c-0.363-1.169-0.74-2.333-1.133-3.49c-0.323-0.955-0.663-1.904-1.007-2.851c-0.12-0.329-0.242-0.656-0.364-0.984    c-7.736-20.847-20.367-39.739-37.133-55.031c-17.118-15.611-37.585-26.593-59.622-32.267c-0.017-0.005-0.034-0.009-0.051-0.014    c-2.221-0.57-4.458-1.091-6.709-1.553c-0.257-0.052-0.516-0.099-0.773-0.15c-0.816-0.163-1.634-0.322-2.454-0.471    c-0.462-0.083-0.927-0.159-1.39-0.238c-0.623-0.106-1.245-0.213-1.87-0.311c-0.519-0.081-1.04-0.156-1.56-0.232    c-0.581-0.084-1.163-0.167-1.744-0.245c-0.534-0.072-1.07-0.138-1.607-0.203c-0.581-0.071-1.161-0.137-1.743-0.2    c-0.531-0.057-1.062-0.114-1.595-0.165c-0.608-0.059-1.218-0.112-1.829-0.163c-0.504-0.042-1.008-0.085-1.513-0.122    c-0.688-0.05-1.375-0.091-2.064-0.131c-0.43-0.025-0.861-0.055-1.292-0.075c-0.966-0.048-1.933-0.083-2.901-0.11    c-0.162-0.005-0.322-0.014-0.484-0.017c-0.022-0.002-0.041-0.003-0.062-0.005c-1.145-7.229-1.724-14.571-1.724-21.921    c0-76.598,62.317-138.914,138.914-138.914s138.914,62.317,138.914,138.914s-62.317,138.914-138.914,138.914    c-0.663,0-1.328-0.005-1.994-0.015C290.349,347.44,290.315,347.291,290.289,347.139z M292.369,394.612    c-0.642,0-1.287-0.003-1.933-0.01c0.026-0.157,0.043-0.314,0.068-0.471c0.286-1.743,0.547-3.495,0.767-5.258    c0.009-0.072,0.016-0.142,0.024-0.214c0.214-1.73,0.392-3.468,0.542-5.216c0.019-0.23,0.043-0.46,0.061-0.69    c0.139-1.719,0.246-3.447,0.322-5.183c0.015-0.332,0.026-0.664,0.038-0.996c0.065-1.756,0.109-3.516,0.109-5.287    c0-0.303-0.009-0.603-0.011-0.905c0.003,0,0.008,0,0.011,0c89.155,0,161.687-72.533,161.687-161.687    S381.522,47.005,292.368,47.005S130.68,119.538,130.68,208.693c0,7.774,0.565,15.538,1.668,23.208    c-0.355,0.049-0.711,0.098-1.065,0.149c-1.117,0.162-2.231,0.339-3.343,0.528c-0.625,0.107-1.25,0.214-1.874,0.33    c-0.903,0.166-1.806,0.335-2.704,0.519c-0.183,0.038-0.364,0.081-0.547,0.118c-1.911,0.398-3.811,0.84-5.703,1.319    c-0.394,0.1-0.787,0.202-1.18,0.305c-2.447,0.642-4.884,1.326-7.296,2.103c-1.454-9.429-2.188-18.998-2.188-28.58    c0.001-102.517,83.405-185.92,185.921-185.92s185.92,83.403,185.92,185.919C478.288,311.208,394.884,394.612,292.369,394.612z" data-original="#000000" class="active-path" data-old_color="#000000" fill="#FDB2D5"/>
	</g>
</g><g>
	<g>
		<path d="M109.946,393.61H77.13v-1.127c0-11.397,38.702-20.291,38.702-47.47c0-16.784-14.654-25.927-29.183-25.927    c-14.279,0-28.307,8.768-28.307,24.048c0,7.891,3.758,10.145,8.768,10.145c6.388,0,10.271-3.507,10.271-7.14    c0-6.889,4.384-9.394,9.394-9.394c7.014,0,9.519,4.885,9.519,8.894c0,15.907-39.454,27.179-39.454,46.844v12.149    c0,3.632,5.01,6.012,8.517,6.012h44.589c3.131,0,5.887-4.133,5.887-8.642C115.832,397.492,113.077,393.61,109.946,393.61z" data-original="#000000" class="active-path" data-old_color="#000000" fill="#FDB2D5"/>
	</g>
</g><g>
	<g>
		<path d="M176.704,373.319h-5.386v-8.768c0-4.133-4.885-5.887-9.77-5.887c-4.885,0-9.768,1.753-9.768,5.887v8.768h-10.773    l22.171-44.464c0.376-0.878,0.626-1.629,0.626-2.38c0-4.51-6.388-7.39-9.77-7.39c-3.131,0-6.263,1.378-8.141,5.009l-28.933,56.74    c-0.752,1.378-1.002,2.755-1.002,3.758c0,4.384,2.881,6.762,6.513,6.762h29.309v13.277c0,4.009,4.884,6.012,9.768,6.012    s9.77-2.004,9.77-6.012v-13.277h5.386c3.006,0,6.012-4.509,6.012-9.018C182.716,377.827,180.714,373.319,176.704,373.319z" data-original="#000000" class="active-path" data-old_color="#000000" fill="#FDB2D5"/>
	</g>
</g><g>
	<g>
		<path d="M223.047,350.273c-7.766,0-13.277,4.634-15.531,9.519v-36.949c0-3.507-4.509-5.887-9.77-5.887    c-5.636,0-9.645,2.38-9.645,5.887v81.789c0,3.007,4.009,6.012,9.645,6.012c5.261,0,9.77-3.006,9.77-6.012v-28.056    c0-5.887,4.258-9.394,8.392-9.394c4.885,0,9.018,4.633,9.018,9.394v28.056c0,4.009,5.135,6.012,9.644,6.012    c4.885,0,9.77-2.004,9.77-6.012v-28.056C244.34,362.172,234.445,350.273,223.047,350.273z" data-original="#000000" class="active-path" data-old_color="#000000" fill="#FDB2D5"/>
	</g>
</g><g>
	<g>
		<path d="M354.044,257.714l-50.289-50.289v-70.465c0.001-6.288-5.098-11.386-11.385-11.386c-6.289,0-11.386,5.099-11.386,11.386    v74.833c0,2.571,0.863,4.936,2.3,6.842c0.477,0.807,1.05,1.575,1.743,2.268l52.915,52.915c2.224,2.223,5.138,3.335,8.051,3.335    s5.829-1.112,8.051-3.335C358.49,269.371,358.49,262.161,354.044,257.714z" data-original="#000000" class="active-path" data-old_color="#000000" fill="#FDB2D5"/>
	</g>
</g><g>
	<g>
		<path d="M303.526,100.199c-0.137-0.73-0.364-1.447-0.649-2.129c-0.285-0.695-0.638-1.355-1.048-1.97    c-0.41-0.626-0.888-1.207-1.412-1.731c-0.524-0.524-1.104-1.002-1.731-1.412c-0.615-0.409-1.275-0.763-1.958-1.048    c-0.695-0.285-1.412-0.512-2.141-0.649c-1.469-0.296-2.972-0.296-4.441,0c-0.729,0.137-1.446,0.364-2.129,0.649    c-0.695,0.285-1.355,0.639-1.97,1.048c-0.626,0.41-1.207,0.888-1.731,1.412c-0.524,0.524-1.002,1.104-1.412,1.731    c-0.41,0.615-0.763,1.275-1.048,1.97c-0.285,0.683-0.512,1.399-0.649,2.129c-0.148,0.729-0.228,1.48-0.228,2.22    c0,0.739,0.08,1.492,0.228,2.232c0.137,0.717,0.364,1.435,0.649,2.129c0.285,0.683,0.638,1.344,1.048,1.958    c0.41,0.626,0.888,1.207,1.412,1.731c0.524,0.524,1.104,1.002,1.731,1.412c0.615,0.41,1.275,0.763,1.97,1.059    c0.683,0.285,1.401,0.501,2.129,0.649c0.729,0.148,1.48,0.216,2.22,0.216c0.74,0,1.492-0.069,2.22-0.216    c0.729-0.148,1.446-0.364,2.141-0.649c0.683-0.296,1.344-0.648,1.958-1.059c0.626-0.41,1.207-0.888,1.731-1.412    c0.524-0.524,1.002-1.104,1.412-1.731c0.41-0.615,0.763-1.275,1.048-1.958c0.285-0.695,0.512-1.412,0.649-2.129    c0.148-0.74,0.228-1.493,0.228-2.232C303.754,101.68,303.674,100.927,303.526,100.199z" data-original="#000000" class="active-path" data-old_color="#000000" fill="#FDB2D5"/>
	</g>
</g><g>
	<g>
		<path d="M381.58,287.962c-0.148-0.729-0.364-1.446-0.649-2.128c-0.285-0.684-0.638-1.355-1.048-1.97    c-0.421-0.626-0.888-1.207-1.412-1.731c-2.653-2.642-6.581-3.85-10.282-3.109c-0.729,0.148-1.446,0.364-2.129,0.649    c-0.683,0.285-1.344,0.638-1.97,1.048c-0.615,0.409-1.207,0.888-1.731,1.412c-0.524,0.524-1.002,1.104-1.412,1.731    c-0.41,0.615-0.763,1.287-1.048,1.97c-0.285,0.683-0.501,1.399-0.649,2.128c-0.148,0.73-0.228,1.481-0.228,2.22    c0,0.74,0.08,1.493,0.228,2.232c0.148,0.729,0.364,1.446,0.649,2.129c0.285,0.684,0.638,1.344,1.048,1.97    c0.41,0.615,0.888,1.196,1.412,1.719c0.524,0.535,1.116,1.013,1.731,1.423c0.626,0.41,1.287,0.763,1.97,1.048    c0.683,0.285,1.401,0.501,2.129,0.649c0.729,0.148,1.48,0.227,2.22,0.227c0.752,0,1.492-0.079,2.232-0.227    c0.729-0.148,1.446-0.364,2.129-0.649c0.683-0.285,1.344-0.638,1.97-1.048c0.615-0.421,1.196-0.888,1.731-1.423    c0.524-0.524,0.991-1.104,1.412-1.719c0.41-0.627,0.763-1.287,1.048-1.97c0.285-0.683,0.501-1.399,0.649-2.129    c0.148-0.739,0.216-1.492,0.216-2.232C381.797,289.443,381.728,288.69,381.58,287.962z" data-original="#000000" class="active-path" data-old_color="#000000" fill="#FDB2D5"/>
	</g>
</g></g> </svg>
