<svg width="100%" height="100%" viewBox="0 0 58 58" fill="none" xmlns="http://www.w3.org/2000/svg">
<path d="M39.9688 44.881L28.1291 39.1323C27.5055 38.8351 26.7949 38.7759 26.1308 38.9658C25.4666 39.1557 24.8947 39.5816 24.5225 40.1635L21.8141 44.4685C21.6921 44.6657 21.5017 44.8112 21.2794 44.877C21.057 44.9429 20.8182 44.9246 20.6084 44.8257C19.0185 44.029 17.5506 43.0094 16.2491 41.7976C15.0216 40.4881 13.9888 39.0089 13.1825 37.4054C13.0799 37.1947 13.0591 36.9536 13.124 36.7284C13.189 36.5033 13.3351 36.3103 13.5341 36.1866L17.8466 33.4735C18.4273 33.0998 18.8516 32.5269 19.0397 31.8625C19.2279 31.1981 19.167 30.4878 18.8684 29.8651L13.1188 18.031C12.9575 17.6962 12.7309 17.3972 12.4521 17.1515C12.1734 16.9058 11.8483 16.7184 11.4959 16.6004C11.1389 16.4797 10.7614 16.4314 10.3855 16.4585C10.0096 16.4855 9.64293 16.5873 9.30688 16.7579C8.44344 17.1873 0.875 21.1098 0.875 26.1873V27.1248C1.01092 35.0388 4.21526 42.5907 9.81216 48.1876C15.4091 53.7845 22.961 56.9888 30.875 57.1248H31.8125C36.8891 57.1248 40.8125 49.5563 41.2372 48.6976C41.4089 48.3613 41.5115 47.9939 41.5389 47.6173C41.5663 47.2407 41.5179 46.8624 41.3966 46.5048C41.279 46.1525 41.0921 45.8274 40.8469 45.5485C40.6017 45.2696 40.3031 45.0427 39.9688 44.881ZM27.3125 40.8207L39.1437 46.5676C39.2545 46.6211 39.3534 46.6962 39.4347 46.7884C39.516 46.8807 39.578 46.9882 39.6172 47.1048C39.6579 47.2274 39.6737 47.3568 39.6637 47.4856C39.6537 47.6144 39.6181 47.7399 39.5591 47.8548C39.4259 48.121 39.2712 48.4088 39.1062 48.706L25.5444 42.0582L26.1069 41.1676C26.2324 40.9743 26.4235 40.8328 26.6449 40.7691C26.8664 40.7054 27.1034 40.7237 27.3125 40.8207ZM10.1478 18.436C10.285 18.3665 10.4365 18.3299 10.5903 18.3291C10.694 18.3291 10.7969 18.3462 10.895 18.3798C11.0112 18.4183 11.1186 18.4795 11.2108 18.56C11.3031 18.6405 11.3783 18.7386 11.4322 18.8485L17.1763 30.6741C17.2765 30.8829 17.2974 31.1209 17.2352 31.3439C17.1729 31.5669 17.0317 31.7597 16.8378 31.8863L15.9416 32.4488L9.29281 18.8916C9.59375 18.7248 9.87969 18.5701 10.1478 18.436ZM31.8125 55.2498H30.875C23.4582 55.1141 16.383 52.1074 11.1377 46.8621C5.89235 41.6167 2.88565 34.5416 2.75 27.1248V26.1873C2.75 23.8285 5.2625 21.4923 7.68594 19.8741L14.3422 33.4604L12.53 34.6013C11.9397 34.9723 11.5077 35.5486 11.3172 36.2193C11.1268 36.89 11.1915 37.6074 11.4987 38.2332C12.3967 40.0185 13.5494 41.6638 14.9206 43.1176C16.3664 44.4732 18.0005 45.6128 19.7722 46.501C20.3974 46.8073 21.114 46.8708 21.7833 46.6793C22.4526 46.4877 23.0271 46.0548 23.3956 45.4641L24.5356 43.6538L38.1219 50.3101C36.5084 52.7363 34.1712 55.2498 31.8125 55.2498Z" fill="#C5E3ED"/>
<path d="M39.3122 0.875007C36.1533 0.872904 33.0509 1.71143 30.3232 3.3045C27.5955 4.89758 25.3408 7.18782 23.7907 9.94014C22.2406 12.6925 21.4508 15.8077 21.5024 18.9661C21.554 22.1245 22.4451 25.2123 24.0844 27.9125L22.4653 34.3981C22.4262 34.5551 22.4284 34.7195 22.4716 34.8753C22.5149 35.0312 22.5977 35.1732 22.7121 35.2876C22.8265 35.4019 22.9685 35.4848 23.1243 35.528C23.2802 35.5713 23.4446 35.5735 23.6015 35.5344L30.0872 33.9153C32.4376 35.3417 35.0862 36.2046 37.8258 36.4365C40.5653 36.6684 43.3213 36.263 45.878 35.2521C48.4348 34.2412 50.7228 32.6521 52.5629 30.6094C54.403 28.5666 55.7453 26.1257 56.4846 23.4776C57.224 20.8296 57.3403 18.0463 56.8245 15.3458C56.3088 12.6453 55.1748 10.1008 53.5116 7.91165C51.8484 5.72248 49.701 3.94803 47.2375 2.72725C44.7741 1.50648 42.0615 0.872516 39.3122 0.875007ZM39.3122 34.625C36.2779 34.6281 33.3066 33.7586 30.7528 32.12C30.6452 32.0511 30.5247 32.0049 30.3986 31.9843C30.2726 31.9637 30.1436 31.969 30.0197 32L24.6628 33.3369L25.9997 27.98C26.0307 27.8561 26.036 27.7271 26.0154 27.6011C25.9947 27.475 25.9486 27.3545 25.8797 27.2469C23.9812 24.2632 23.1295 20.7327 23.4588 17.2116C23.7881 13.6905 25.2797 10.3791 27.6985 7.79929C30.1174 5.21944 33.3259 3.51781 36.8185 2.96257C40.311 2.40734 43.8891 3.03006 46.9887 4.73261C50.0884 6.43516 52.5333 9.12073 53.9384 12.3661C55.3434 15.6114 55.6285 19.2321 54.7489 22.6574C53.8693 26.0827 51.8748 29.1179 49.0799 31.2847C46.2851 33.4515 42.8486 34.6266 39.3122 34.625Z" fill="#C5E3ED"/>
<path d="M31.625 19.0625C32.0085 18.7749 32.3122 18.3939 32.5071 17.9559C32.702 17.5179 32.7817 17.0374 32.7386 16.5599C32.6956 16.0824 32.5312 15.6239 32.2611 15.2278C31.991 14.8318 31.6241 14.5113 31.1953 14.2969C30.7665 14.0825 30.29 13.9813 29.8111 14.0028C29.3322 14.0244 28.8667 14.168 28.4589 14.42C28.0511 14.6721 27.7145 15.0242 27.481 15.4429C27.2475 15.8616 27.125 16.3331 27.125 16.8125C27.125 17.0611 27.2238 17.2996 27.3996 17.4754C27.5754 17.6512 27.8139 17.75 28.0625 17.75C28.3111 17.75 28.5496 17.6512 28.7254 17.4754C28.9012 17.2996 29 17.0611 29 16.8125C29 16.6527 29.0408 16.4955 29.1187 16.356C29.1965 16.2164 29.3087 16.099 29.4446 16.015C29.5806 15.931 29.7357 15.8831 29.8954 15.8759C30.055 15.8688 30.2138 15.9025 30.3568 15.974C30.4997 16.0454 30.622 16.1523 30.712 16.2843C30.8021 16.4163 30.8569 16.5691 30.8712 16.7283C30.8856 16.8875 30.859 17.0476 30.794 17.1936C30.7291 17.3396 30.6278 17.4666 30.5 17.5625L28.25 19.25C27.9016 19.5128 27.6187 19.8527 27.4235 20.243C27.2283 20.6333 27.1262 21.0636 27.125 21.5V22.4375C27.125 22.6861 27.2238 22.9246 27.3996 23.1004C27.5754 23.2762 27.8139 23.375 28.0625 23.375H31.8125C32.0611 23.375 32.2996 23.2762 32.4754 23.1004C32.6512 22.9246 32.75 22.6861 32.75 22.4375C32.75 22.1889 32.6512 21.9504 32.4754 21.7746C32.2996 21.5988 32.0611 21.5 31.8125 21.5H29C29 21.3545 29.0339 21.2109 29.099 21.0807C29.1641 20.9506 29.2586 20.8373 29.375 20.75L31.625 19.0625Z" fill="#C5E3ED"/>
<path d="M51.3331 14.4031C51.2468 14.2787 51.1316 14.177 50.9974 14.1068C50.8632 14.0366 50.714 13.9999 50.5625 14H46.8125C46.5639 14 46.3254 14.0988 46.1496 14.2746C45.9738 14.4504 45.875 14.6889 45.875 14.9375C45.875 15.1861 45.9738 15.4246 46.1496 15.6004C46.3254 15.7762 46.5639 15.875 46.8125 15.875H49.2097L46.8716 22.1084C46.8283 22.2237 46.8081 22.3464 46.8122 22.4695C46.8163 22.5926 46.8447 22.7137 46.8956 22.8258C46.9465 22.938 47.0191 23.039 47.109 23.1231C47.199 23.2072 47.3047 23.2727 47.42 23.3159C47.5258 23.3546 47.6374 23.3746 47.75 23.375C47.941 23.3751 48.1274 23.3169 48.2844 23.2082C48.4414 23.0995 48.5614 22.9454 48.6284 22.7666L51.4409 15.2666C51.4941 15.1246 51.512 14.972 51.4933 14.8216C51.4745 14.6712 51.4195 14.5276 51.3331 14.4031Z" fill="#C5E3ED"/>
<path d="M45.1947 11.2236C44.9557 11.1553 44.6994 11.1847 44.4822 11.3053C44.2649 11.4259 44.1044 11.6278 44.0359 11.8667L40.2859 24.9917C40.2522 25.1101 40.2421 25.2341 40.2562 25.3564C40.2703 25.4787 40.3085 25.5971 40.3684 25.7047C40.4283 25.8123 40.5088 25.9071 40.6053 25.9836C40.7018 26.06 40.8125 26.1168 40.9309 26.1505C41.0143 26.175 41.1009 26.1873 41.1878 26.187C41.3914 26.1869 41.5895 26.1206 41.752 25.9979C41.9145 25.8753 42.0327 25.7031 42.0887 25.5073L45.8387 12.3823C45.9069 12.1433 45.8774 11.8869 45.7566 11.6696C45.6359 11.4523 45.4337 11.2918 45.1947 11.2236Z" fill="#C5E3ED"/>
<path d="M39.3126 19.6252H38.3751V14.9377C38.3752 14.7365 38.3105 14.5406 38.1906 14.379C38.0707 14.2174 37.902 14.0986 37.7094 14.0403C37.5169 13.9819 37.3106 13.9871 37.1212 14.055C36.9318 14.1229 36.7693 14.25 36.6576 14.4174L32.9076 20.0424C32.8134 20.1836 32.7593 20.3477 32.7511 20.5172C32.7429 20.6868 32.7808 20.8553 32.8609 21.005C32.941 21.1546 33.0602 21.2798 33.2058 21.367C33.3514 21.4542 33.5179 21.5002 33.6876 21.5002H36.5001V22.4377C36.5001 22.6864 36.5989 22.9248 36.7747 23.1006C36.9505 23.2764 37.189 23.3752 37.4376 23.3752C37.6863 23.3752 37.9247 23.2764 38.1005 23.1006C38.2764 22.9248 38.3751 22.6864 38.3751 22.4377V21.5002H39.3126C39.5613 21.5002 39.7997 21.4014 39.9755 21.2256C40.1514 21.0498 40.2501 20.8114 40.2501 20.5627C40.2501 20.3141 40.1514 20.0756 39.9755 19.8998C39.7997 19.724 39.5613 19.6252 39.3126 19.6252ZM36.5001 19.6252H35.4389L36.5001 18.0315V19.6252Z" fill="#C5E3ED"/>
</svg>
