<svg width="100%" height="100%" viewBox="0 0 60 60" fill="none" xmlns="http://www.w3.org/2000/svg">
<path d="M30 0C13.458 0 0 13.458 0 30C0 46.542 13.458 60 30 60C46.542 60 60 46.542 60 30C60 13.458 46.542 0 30 0ZM30 57.6563C14.7503 57.6563 2.34374 45.2497 2.34374 30C2.34374 14.7503 14.7503 2.34374 30 2.34374C45.2497 2.34374 57.6563 14.7503 57.6563 30C57.6563 45.2497 45.2497 57.6563 30 57.6563Z" fill="#C5E3ED"/>
<path d="M30 7.03125C17.335 7.03125 7.03125 17.335 7.03125 30C7.03125 42.665 17.335 52.9688 30 52.9688C42.665 52.9688 52.9688 42.665 52.9688 30C52.9688 17.335 42.665 7.03125 30 7.03125ZM31.1719 50.5911V48.2814C31.1719 47.6342 30.6472 47.1096 30 47.1096C29.3528 47.1096 28.8282 47.6342 28.8282 48.2814V50.5911C18.3867 50.0033 9.99679 41.6134 9.40897 31.1719H11.7187C12.366 31.1719 12.8906 30.6472 12.8906 30C12.8906 29.3528 12.366 28.8282 11.7187 28.8282H9.40897C9.99679 18.3867 18.3867 9.9969 28.8282 9.40909V11.7187C28.8282 12.366 29.3528 12.8906 30 12.8906C30.6472 12.8906 31.1719 12.366 31.1719 11.7187V9.40909C41.6134 9.9969 50.0033 18.3867 50.5911 28.8282H48.2813C47.6341 28.8282 47.1095 29.3528 47.1095 30C47.1095 30.6472 47.6341 31.1719 48.2813 31.1719H50.5911C50.0033 41.6134 41.6134 50.0033 31.1719 50.5911Z" fill="#C5E3ED"/>
<path d="M19.8282 14.7235C20.0398 15.1166 20.4434 15.3397 20.8606 15.3397C21.0482 15.3397 21.2387 15.2945 21.4154 15.1993C21.9853 14.8924 22.1983 14.1813 21.8914 13.6115C21.5846 13.0418 20.874 12.8286 20.304 13.1354C19.7342 13.4422 19.5209 14.1529 19.8278 14.7228L19.8282 14.7235Z" fill="#C5E3ED"/>
<path d="M13.6116 21.8913L13.6123 21.8916C13.789 21.9868 13.9791 22.0319 14.1666 22.0319C14.5838 22.0319 14.9876 21.8084 15.1994 21.4153C15.5062 20.8454 15.2927 20.1345 14.7228 19.8277C14.153 19.5211 13.4423 19.7341 13.1354 20.3039C12.8286 20.8737 13.0419 21.5845 13.6116 21.8913Z" fill="#C5E3ED"/>
<path d="M13.6116 38.1091C13.0418 38.4159 12.8285 39.1266 13.1355 39.6965C13.3471 40.0895 13.751 40.313 14.1682 40.313C14.3558 40.313 14.546 40.2679 14.7228 40.1728L14.7235 40.1724C15.2932 39.8656 15.5062 39.1551 15.1994 38.5852C14.8927 38.0152 14.1816 37.8023 13.6116 38.1091Z" fill="#C5E3ED"/>
<path d="M21.4144 44.8003C20.8446 44.4935 20.1337 44.7072 19.8269 45.2769C19.5199 45.8468 19.7332 46.5576 20.303 46.8644C20.4797 46.9595 20.6699 47.0046 20.8575 47.0046C21.2747 47.0046 21.6787 46.7811 21.8903 46.3881L21.8906 46.3874C22.1977 45.8175 21.9843 45.1071 21.4144 44.8003Z" fill="#C5E3ED"/>
<path d="M40.1384 45.2178C39.7992 44.6665 39.0778 44.4951 38.5264 44.8343C37.9752 45.1736 37.8036 45.8958 38.1429 46.4469C38.3642 46.8066 38.7485 47.0047 39.142 47.0047C39.3515 47.0047 39.5636 46.9486 39.7551 46.8307C40.3064 46.4915 40.4782 45.7697 40.1389 45.2185L40.1384 45.2178Z" fill="#C5E3ED"/>
<path d="M46.3881 38.1093L46.3874 38.109C45.8177 37.8022 45.1073 38.0156 44.8004 38.5853C44.4936 39.1552 44.7071 39.8661 45.277 40.1729C45.4537 40.268 45.6439 40.3132 45.8315 40.3132C46.2487 40.3132 46.6526 40.0897 46.8643 39.6966C47.1712 39.1269 46.9579 38.4161 46.3881 38.1093Z" fill="#C5E3ED"/>
<path d="M45.2771 19.8267L45.2764 19.8271C44.7066 20.1339 44.4937 20.8444 44.8005 21.4143C45.0121 21.8073 45.4161 22.0307 45.8335 22.0307C46.0211 22.0307 46.2115 21.9854 46.3883 21.8903C46.958 21.5835 47.1713 20.8727 46.8644 20.3029C46.5577 19.7332 45.8471 19.5201 45.2771 19.8267Z" fill="#C5E3ED"/>
<path d="M39.7555 13.1691C39.2041 12.8299 38.4824 13.0018 38.1432 13.5529L38.1427 13.5536C37.8035 14.1049 37.9756 14.8263 38.5267 15.1655C38.7182 15.2833 38.9301 15.3395 39.1395 15.3395C39.5331 15.3395 39.9178 15.1411 40.1391 14.7813C40.4785 14.2302 40.3066 13.5083 39.7555 13.1691Z" fill="#C5E3ED"/>
<path d="M32.0278 31.1686C32.2275 30.824 32.3438 30.4255 32.3438 29.9999C32.3438 29.1359 31.8709 28.3804 31.1719 27.974V16.4063C31.1719 15.759 30.6472 15.2344 30 15.2344C29.3528 15.2344 28.8281 15.759 28.8281 16.4063V27.974C28.1291 28.3804 27.6562 29.1359 27.6562 29.9999C27.6562 31.2908 28.7091 32.3436 30 32.3436L34.0241 39.3136C34.2411 39.6895 34.635 39.8997 35.04 39.8997C35.2387 39.8997 35.4403 39.849 35.6249 39.7425C36.1854 39.419 36.3775 38.7022 36.0538 38.1417L32.0278 31.1686Z" fill="#C5E3ED"/>
</svg>
