<svg width="100%" height="100%" viewBox="0 0 48 60" fill="none" xmlns="http://www.w3.org/2000/svg">
<path fill-rule="evenodd" clip-rule="evenodd" d="M44.9984 45.0018C46.2673 44.9988 47.4003 45.7963 47.8254 46.9918C48.3792 48.5491 47.5657 50.2605 46.0085 50.8142C46.5304 51.4041 46.8639 52.1369 46.9659 52.9179C47.2482 55.0792 45.725 57.0602 43.5637 57.3425L24.1367 59.9912C24.0467 60.003 23.9557 60.003 23.8657 59.9912L4.43871 57.3425C3.65766 57.2405 2.92486 56.907 2.33492 56.3851C0.702341 54.9409 0.549732 52.4466 1.99396 50.8142C0.798707 50.3891 0.00128798 49.2567 0.00391271 47.9882C0.00741235 46.3354 1.35003 44.9984 3.00286 45.0018H5.42148L9.00212 38.7364V28.0035C9.00212 25.7946 10.7928 24.0039 13.0017 24.0039V11.0052H13.0087C13.0087 10.9987 13.007 10.9925 13.0052 10.9862C13.0035 10.98 13.0017 10.9738 13.0017 10.9673C13.2017 5.6538 17.1253 0.00637435 24.0006 0.00637435C24.2454 -0.00212478 24.4904 -0.00212478 24.7353 0.00637435C30.6069 0.209229 35.2023 5.1336 34.9995 11.0052V24.0039C37.2084 24.0039 38.9991 25.7946 38.9991 28.0035V38.7364L42.5797 45.0018H44.9984ZM32.9998 10.207C32.7793 5.45732 28.7502 1.78582 24.0007 2.00629C19.474 2.01567 15.6634 5.39545 15.1136 9.88849C18.5916 9.39879 21.8148 7.78733 24.2937 5.29896C24.4812 5.1116 24.7353 5.00624 25.0004 5.00624C25.5527 5.00611 26.0004 5.45369 26.0005 6.00588C26.0038 8.7656 28.2403 11.0021 31 11.0054H32.9998C33.0122 10.7394 33.0122 10.4729 32.9998 10.207ZM22.0009 20.7274V25.0039C22.0009 25.5561 21.5532 26.0038 21.001 26.0038H19.0012V27.2827L24.0007 28.9495L29.0002 27.2827V26.0038H27.0004C26.4482 26.0038 26.0005 25.5561 26.0005 25.0039V20.7214C25.3493 20.9034 24.6769 20.9986 24.0007 21.0043C23.3249 20.9992 22.6527 20.9061 22.0009 20.7274ZM24.2927 7.99168C21.9465 9.89199 19.1623 11.1751 16.1935 11.7243C17.0204 15.6389 20.5281 19.0046 24.0007 19.0046C27.0164 19.0046 30.1861 16.3598 31.436 13.0052H31C27.9023 12.9989 25.1757 10.9609 24.2927 7.99168ZM28.0003 19.9195V24.004H30.0001H32.9998V14.451C31.9598 16.7608 30.2078 18.6771 28.0003 19.9195ZM20.0011 19.9255C17.7888 18.6876 16.0354 16.7687 15.0016 14.454V24.004H20.0011V19.9255ZM17.0014 28.0036V26.0038H14.2827L18.7822 44.002L18.4613 46.0018L14.4437 50.6923L24.0007 51.9922L33.5577 50.6883L29.5401 46.0018L29.2192 44.002L33.7187 26.0038H31V28.0036C31.0002 28.434 30.7251 28.8162 30.3171 28.9525L24.3177 30.9523C24.1123 31.0213 23.8901 31.0213 23.6847 30.9523L17.6854 28.9515C17.2771 28.8155 17.0018 28.4338 17.0014 28.0036ZM10.2451 50.1164L12.0899 50.3673L16.9094 44.7439L16.5095 43.1551L10.2451 50.1164ZM31.4999 43.1551L31.1 44.7439L35.9155 50.3673L37.7643 50.1164L31.4999 43.1551ZM3.00286 47.0017C2.45066 47.0017 2.00296 47.4494 2.00296 48.0016C2.00296 48.5538 2.45054 49.0015 3.00286 49.0015H8.55729L15.9235 40.8163L14.0907 33.4821L12.2569 26.1478C11.4989 26.452 11.002 27.1868 11.002 28.0036V39.0025C11.0027 39.1779 10.9572 39.3502 10.8701 39.5024L6.87046 46.5017C6.69148 46.8117 6.36051 47.0024 6.00255 47.0017H3.00286ZM4.70868 55.3598L24.0007 57.9916L29.0032 57.3086L23.6507 53.963L12.3519 52.4221L5.24163 51.4522C5.15351 51.4396 5.06465 51.4332 4.97565 51.4332C3.98313 51.4289 3.14209 52.1628 3.01211 53.1468C2.86949 54.2264 3.62904 55.2172 4.70868 55.3598ZM32.0999 56.8867L43.2927 55.3598C44.2681 55.2235 44.9951 54.3909 44.9986 53.406C44.9987 53.3133 44.9923 53.2207 44.9794 53.1289C44.8281 52.0499 43.8308 51.2979 42.7518 51.4492L35.6425 52.4191L26.8714 53.619L32.0999 56.8867ZM39.4441 49.0015H44.9986C45.5508 49.0015 45.9985 48.5538 45.9985 48.0016C45.9985 47.4494 45.5508 47.0017 44.9986 47.0017H41.9989C41.6409 47.0024 41.3099 46.8117 41.131 46.5017L37.1314 39.5024C37.0443 39.3502 36.9988 39.1779 36.9994 39.0025V28.0036C36.9996 27.1862 36.5023 26.4509 35.7435 26.1468L33.9097 33.4811L32.0769 40.8153L39.4441 49.0015Z" fill="#C5E3ED"/>
</svg>
