<svg width="100%" height="100%" viewBox="0 0 60 60" fill="none" xmlns="http://www.w3.org/2000/svg">
<path d="M29.9999 19C30.2651 19.0001 30.5195 18.8947 30.7071 18.7071C30.8946 18.5196 30.9999 18.2652 30.9999 17.9999V9.99996C30.9999 9.44766 30.5523 9 30 9C29.4477 9 29 9.44766 29 9.99996V18C28.9999 18.2652 29.1052 18.5196 29.2929 18.7072C29.4802 18.8947 29.7347 19.0001 29.9999 19Z" fill="#C5E3ED"/>
<path d="M58 11H55.9999V6.99996C55.9986 5.89594 55.1039 5.00121 53.9999 4.99992H39.7268C37.4809 1.86188 33.859 0 30 0C26.141 0 22.5191 1.86188 20.2732 5.00004H6C4.89598 5.00133 4.00125 5.89594 3.99996 7.00008V11H2.00004C0.895898 11.0012 0.00128906 11.8959 0 13V54C0.00128906 55.104 0.895898 55.9987 2.00004 56H23.7002C24.8476 58.4414 27.3023 60 30 60C32.6977 60 35.1524 58.4414 36.2998 56H58C59.104 55.9987 59.9987 55.1041 60 54V13C59.9987 11.8959 59.1041 11.0012 58 11ZM40.8947 6.99996H54V40H36C34.1168 39.9997 32.3135 40.761 31 42.1105V23.9494C34.8982 23.6338 38.3963 21.433 40.368 18.0554C42.3398 14.6779 42.5365 10.5497 40.8947 6.99996ZM36 47H54V50H31V47C31.0032 44.2399 33.2399 42.0033 36 42H54V45H36C35.4477 45 35 45.4478 35 46C35 46.5523 35.4477 47 36 47ZM30 2.00004C35.5228 2.00004 40 6.47719 40 12C40 17.5228 35.5228 22 30 22C24.4772 22 20 17.5228 20 12C20.0064 6.47977 24.4798 2.00637 30 2.00004ZM6 6.99996H19.1053C17.4635 10.5497 17.66 14.6777 19.6318 18.0554C21.6036 21.433 25.1017 23.6338 28.9999 23.9494V42.1105C27.6865 40.761 25.8832 39.9997 23.9999 40H6V6.99996ZM6 47H24C24.5523 47 25 46.5523 25 46.0001C25 45.4478 24.5522 45.0001 24 45.0001H6V42.0001H24C26.7601 42.0034 28.9968 44.24 29 47.0002V50.0002H6V47ZM58 54H35.6504C35.6394 54 35.6304 54.0059 35.6194 54.0062C35.5486 54.0125 35.4786 54.0266 35.4109 54.0483C35.2928 54.0588 35.1816 54.1087 35.0953 54.1902C34.983 54.2447 34.8925 54.3356 34.8384 54.4481C34.792 54.5086 34.753 54.5745 34.7221 54.6442C34.7182 54.6544 34.7096 54.6611 34.7059 54.6714C34.0013 56.6661 32.1155 58 29.9999 58C27.8843 58 25.9985 56.6661 25.2939 54.6714C25.2902 54.6609 25.2817 54.6544 25.2777 54.6442C25.2473 54.5762 25.2094 54.5119 25.1644 54.4526C25.1128 54.3425 25.0256 54.253 24.9169 54.1986C24.8681 54.1584 24.8155 54.123 24.76 54.0929C24.7077 54.0743 24.6539 54.0601 24.5993 54.0505C24.528 54.0272 24.4543 54.0123 24.3796 54.0061C24.3688 54.0057 24.36 54 24.3493 54H2.00004V13H4.00008V49.9999C4.00137 51.1039 4.89598 51.9987 6.00012 52H54.0001C55.1041 51.9987 55.9989 51.1041 56.0002 49.9999V13H58.0002V54H58Z" fill="#C5E3ED"/>
<path d="M40 23.9998C39.9999 24.265 40.1052 24.5195 40.2929 24.7071C40.4804 24.8946 40.7348 24.9999 41.0001 24.9999H51C51.5523 24.9999 52 24.5521 52 24C52 23.4478 51.5523 23 51 23H41.0001C40.7349 22.9999 40.4805 23.1052 40.2929 23.2929C40.1054 23.4802 40 23.7346 40 23.9998Z" fill="#C5E3ED"/>
<path d="M51 28H37C36.4477 28 36 28.4477 36 29C36 29.5523 36.4477 29.9999 37 29.9999H51C51.5523 29.9999 52 29.5523 52 29C52 28.4477 51.5523 28 51 28Z" fill="#C5E3ED"/>
<path d="M51 33H37C36.4477 33 36 33.4477 36 34C36 34.5523 36.4477 34.9999 37 34.9999H51C51.5523 34.9999 52 34.5523 52 34C52 33.4477 51.5523 33 51 33Z" fill="#C5E3ED"/>
<path d="M8.99996 24.9999H18.9999C19.5522 24.9999 19.9999 24.5521 19.9999 24C19.9999 23.4478 19.5522 23 18.9999 23H8.99996C8.44766 23 8 23.4477 8 24C8 24.5523 8.44766 24.9999 8.99996 24.9999Z" fill="#C5E3ED"/>
<path d="M8.99996 29.9999H23C23.5523 29.9999 24 29.5523 24 29C24 28.4477 23.5523 28 23 28H8.99996C8.44766 28 8 28.4477 8 29C8 29.5523 8.44766 29.9999 8.99996 29.9999Z" fill="#C5E3ED"/>
<path d="M23 33H8.99996C8.44766 33 8 33.4477 8 34C8 34.5523 8.44766 34.9999 8.99996 34.9999H23C23.5523 34.9999 24 34.5523 24 34C24 33.4477 23.5522 33 23 33Z" fill="#C5E3ED"/>
<path d="M29.9999 7C30.2651 7.00012 30.5195 6.89477 30.7071 6.70715C30.8946 6.51965 30.9999 6.26523 30.9999 5.99992V4.99996C30.9999 4.44766 30.5523 4 30 4C29.4477 4 29 4.44766 29 4.99996V6.00004C28.9999 6.26523 29.1052 6.51965 29.2929 6.70727C29.4802 6.89477 29.7347 7.00012 29.9999 7Z" fill="#C5E3ED"/>
</svg>
