<svg width="100%" height="100%" viewBox="0 0 36 36" fill="none" xmlns="http://www.w3.org/2000/svg">
<path d="M18 0C8.0748 0 0 8.0748 0 18C0 27.9252 8.0748 36 18 36C27.9252 36 36 27.9252 36 18C36 8.0748 27.9252 0 18 0ZM18 34.5938C8.8502 34.5938 1.40624 27.1498 1.40624 18C1.40624 8.8502 8.8502 1.40624 18 1.40624C27.1498 1.40624 34.5938 8.8502 34.5938 18C34.5938 27.1498 27.1498 34.5938 18 34.5938Z" fill="#FFE4F1"/>
<path d="M18 4.21875C10.401 4.21875 4.21875 10.401 4.21875 18C4.21875 25.599 10.401 31.7813 18 31.7813C25.599 31.7813 31.7813 25.599 31.7813 18C31.7813 10.401 25.599 4.21875 18 4.21875ZM18.7031 30.3546V28.9689C18.7031 28.5805 18.3884 28.2657 18 28.2657C17.6117 28.2657 17.2969 28.5805 17.2969 28.9689V30.3546C11.032 30.002 5.99807 24.968 5.64539 18.7031H7.03124C7.41957 18.7031 7.73436 18.3884 7.73436 18C7.73436 17.6117 7.41957 17.2969 7.03124 17.2969H5.64539C5.99807 11.032 11.032 5.99814 17.2969 5.64546V7.03124C17.2969 7.41957 17.6117 7.73436 18 7.73436C18.3884 7.73436 18.7031 7.41957 18.7031 7.03124V5.64546C24.968 5.99814 30.002 11.032 30.3546 17.2969H28.9688C28.5805 17.2969 28.2657 17.6117 28.2657 18C28.2657 18.3884 28.5805 18.7031 28.9688 18.7031H30.3546C30.002 24.968 24.968 30.002 18.7031 30.3546Z" fill="#FFE4F1"/>
<path d="M11.8969 8.83392C12.0239 9.06975 12.2661 9.20363 12.5164 9.20363C12.6289 9.20363 12.7432 9.17649 12.8492 9.11939C13.1912 8.93524 13.319 8.50859 13.1348 8.16673C12.9508 7.82487 12.5244 7.69697 12.1824 7.88105C11.8405 8.06512 11.7126 8.49157 11.8967 8.8335L11.8969 8.83392Z" fill="#FFE4F1"/>
<path d="M8.16678 13.1348L8.1672 13.135C8.27323 13.1921 8.38728 13.2191 8.49978 13.2191C8.75009 13.2191 8.99239 13.0851 9.11944 12.8492C9.30352 12.5072 9.17541 12.0807 8.83348 11.8966C8.49162 11.7126 8.06518 11.8405 7.88103 12.1823C7.69695 12.5242 7.82492 12.9507 8.16678 13.1348Z" fill="#FFE4F1"/>
<path d="M8.16676 22.8654C7.8249 23.0495 7.69693 23.476 7.88108 23.8179C8.00806 24.0537 8.25043 24.1878 8.50074 24.1878C8.61331 24.1878 8.72743 24.1607 8.83346 24.1036L8.83388 24.1034C9.17574 23.9194 9.3035 23.4931 9.11942 23.1511C8.93541 22.8091 8.50876 22.6814 8.16676 22.8654Z" fill="#FFE4F1"/>
<path d="M12.8492 26.881C12.5074 26.6969 12.0808 26.8251 11.8967 27.1669C11.7126 27.5089 11.8405 27.9353 12.1824 28.1194C12.2884 28.1765 12.4025 28.2036 12.5151 28.2036C12.7654 28.2036 13.0078 28.0695 13.1348 27.8336L13.135 27.8332C13.3192 27.4913 13.1912 27.0651 12.8492 26.881Z" fill="#FFE4F1"/>
<path d="M24.0831 27.1305C23.8795 26.7997 23.4467 26.6968 23.1159 26.9004C22.7851 27.1039 22.6822 27.5373 22.8857 27.868C23.0185 28.0837 23.2491 28.2026 23.4852 28.2026C23.6109 28.2026 23.7382 28.169 23.8531 28.0982C24.1838 27.8947 24.2869 27.4616 24.0833 27.1309L24.0831 27.1305Z" fill="#FFE4F1"/>
<path d="M27.8327 22.8656L27.8323 22.8654C27.4904 22.6813 27.0642 22.8093 26.88 23.1512C26.6959 23.4931 26.8241 23.9197 27.166 24.1037C27.272 24.1608 27.3861 24.1879 27.4987 24.1879C27.749 24.1879 27.9914 24.0538 28.1184 23.818C28.3025 23.4761 28.1745 23.0497 27.8327 22.8656Z" fill="#FFE4F1"/>
<path d="M27.1661 11.8966L27.1656 11.8968C26.8238 12.0809 26.696 12.5072 26.8801 12.8491C27.0071 13.085 27.2494 13.219 27.4999 13.219C27.6125 13.219 27.7267 13.1918 27.8328 13.1348C28.1746 12.9507 28.3026 12.5242 28.1184 12.1823C27.9344 11.8405 27.5081 11.7126 27.1661 11.8966Z" fill="#FFE4F1"/>
<path d="M23.8533 7.90129C23.5225 7.69774 23.0895 7.80089 22.8859 8.13157L22.8856 8.13199C22.6821 8.46274 22.7854 8.89558 23.116 9.09913C23.2309 9.1698 23.3581 9.20348 23.4837 9.20348C23.7199 9.20348 23.9507 9.08444 24.0835 8.86858C24.2871 8.5379 24.184 8.10478 23.8533 7.90129Z" fill="#FFE4F1"/>
<path d="M19.2167 18.7012C19.3365 18.4944 19.4063 18.2553 19.4063 17.9999C19.4063 17.4815 19.1225 17.0282 18.7031 16.7844V9.84375C18.7031 9.45541 18.3883 9.14062 18 9.14062C17.6117 9.14062 17.2969 9.45541 17.2969 9.84375V16.7844C16.8775 17.0282 16.5938 17.4815 16.5938 17.9999C16.5938 18.7745 17.2254 19.4062 18 19.4062L20.4145 23.5882C20.5447 23.8137 20.781 23.9398 21.024 23.9398C21.1433 23.9398 21.2642 23.9094 21.3749 23.8455C21.7112 23.6514 21.8265 23.2213 21.6323 22.885L19.2167 18.7012Z" fill="#FFE4F1"/>
</svg>
