<?xml version="1.0"?>
<svg xmlns="http://www.w3.org/2000/svg" xmlns:xlink="http://www.w3.org/1999/xlink" version="1.1" id="Layer_1" x="0px" y="0px" viewBox="0 0 512 512" style="enable-background:new 0 0 512 512;" xml:space="preserve" width="512px" height="512px"><g><g>
	<g>
		<path d="M501.801,87.861H10.199C4.567,87.861,0,92.427,0,98.06V413.94c0,5.633,4.567,10.199,10.199,10.199h491.602    c5.632,0,10.199-4.566,10.199-10.199V98.06C512,92.427,507.433,87.861,501.801,87.861z M475.576,108.259L256,309.48    L36.424,108.259H475.576z M20.398,121.239L186.481,273.44L20.398,391.808V121.239z M491.602,391.808l-100.609-71.705    c-4.588-3.27-10.956-2.2-14.225,2.387c-3.269,4.588-2.201,10.956,2.387,14.225l94.043,67.025H38.803l163.054-116.21l47.253,43.303    c1.949,1.786,4.419,2.679,6.891,2.679s4.942-0.893,6.891-2.679l228.711-209.594V391.808z" data-original="#000000" class="active-path" data-old_color="#000000" fill="#ECECEC"/>
	</g>
</g><g>
	<g>
		<path d="M354.732,294.261l-7.141-5.089c-4.588-3.27-10.955-2.2-14.225,2.387c-3.269,4.588-2.2,10.956,2.387,14.226l7.141,5.089    c1.795,1.279,3.862,1.894,5.91,1.894c3.186,0,6.325-1.489,8.314-4.282C360.388,303.898,359.319,297.53,354.732,294.261z" data-original="#000000" class="active-path" data-old_color="#000000" fill="#ECECEC"/>
	</g>
</g></g> </svg>
