<svg width="100%" height="100%" viewBox="0 0 36 36" fill="none" xmlns="http://www.w3.org/2000/svg">
<path d="M21.3066 18C21.3066 19.826 19.8264 21.3061 18.0005 21.3061C16.1745 21.3061 14.6943 19.826 14.6943 18C14.6943 16.174 16.1745 14.6939 18.0005 14.6939C19.8264 14.6939 21.3066 16.174 21.3066 18Z" fill="white" fill-opacity="0.45"/>
<path d="M26.0338 11.9218C25.8687 11.4743 25.6053 11.0693 25.2629 10.7368C24.9305 10.3945 24.5257 10.1311 24.0779 9.96592C23.7148 9.82488 23.1693 9.65701 22.1645 9.61127C21.0775 9.56171 20.7516 9.55103 17.9999 9.55103C15.2479 9.55103 14.922 9.56143 13.8353 9.611C12.8305 9.65701 12.2847 9.82488 11.9219 9.96592C11.4741 10.1311 11.0691 10.3945 10.7369 10.7368C10.3945 11.0693 10.1311 11.4741 9.96568 11.9218C9.82464 12.285 9.65676 12.8308 9.61103 13.8356C9.56146 14.9222 9.55078 15.2481 9.55078 18.0001C9.55078 20.7519 9.56146 21.0778 9.61103 22.1647C9.65676 23.1695 9.82464 23.715 9.96568 24.0782C10.1311 24.5259 10.3943 24.9307 10.7366 25.2632C11.0691 25.6055 11.4738 25.8689 11.9216 26.0341C12.2847 26.1754 12.8305 26.3433 13.8353 26.389C14.922 26.4386 15.2476 26.449 17.9996 26.449C20.7519 26.449 21.0778 26.4386 22.1642 26.389C23.169 26.3433 23.7148 26.1754 24.0779 26.0341C24.9767 25.6874 25.6871 24.977 26.0338 24.0782C26.1749 23.715 26.3428 23.1695 26.3888 22.1647C26.4383 21.0778 26.4487 20.7519 26.4487 18.0001C26.4487 15.2481 26.4383 14.9222 26.3888 13.8356C26.343 12.8308 26.1752 12.285 26.0338 11.9218ZM17.9999 23.2919C15.077 23.2919 12.7076 20.9228 12.7076 17.9999C12.7076 15.077 15.077 12.7078 17.9999 12.7078C20.9225 12.7078 23.292 15.077 23.292 17.9999C23.292 20.9228 20.9225 23.2919 17.9999 23.2919ZM23.5012 13.7353C22.8182 13.7353 22.2644 13.1816 22.2644 12.4986C22.2644 11.8156 22.8182 11.2618 23.5012 11.2618C24.1842 11.2618 24.7379 11.8156 24.7379 12.4986C24.7377 13.1816 24.1842 13.7353 23.5012 13.7353Z" fill="white" fill-opacity="0.45"/>
<path d="M18 0C8.06039 0 0 8.06039 0 18C0 27.9396 8.06039 36 18 36C27.9396 36 36 27.9396 36 18C36 8.06039 27.9396 0 18 0ZM28.2736 22.2613C28.2236 23.3616 28.0486 24.1128 27.7932 24.7703C27.2563 26.1587 26.1587 27.2563 24.7703 27.7932C24.1131 28.0486 23.3616 28.2233 22.2616 28.2736C21.1594 28.3239 20.8073 28.3359 18.0003 28.3359C15.193 28.3359 14.8412 28.3239 13.7387 28.2736C12.6387 28.2233 11.8872 28.0486 11.2299 27.7932C10.54 27.5337 9.91544 27.1269 9.39908 26.6009C8.87338 26.0848 8.46661 25.46 8.20706 24.7703C7.95163 24.1131 7.77667 23.3616 7.72668 22.2616C7.67587 21.1591 7.66406 20.807 7.66406 18C7.66406 15.193 7.67587 14.8409 7.72641 13.7387C7.7764 12.6384 7.95108 11.8872 8.20651 11.2297C8.46606 10.54 8.87311 9.91516 9.39908 9.39908C9.91516 8.87311 10.54 8.46634 11.2297 8.20679C11.8872 7.95135 12.6384 7.77667 13.7387 7.72641C14.8409 7.67615 15.193 7.66406 18 7.66406C20.807 7.66406 21.1591 7.67615 22.2613 7.72668C23.3616 7.77667 24.1128 7.95135 24.7703 8.20651C25.46 8.46606 26.0848 8.87311 26.6012 9.39908C27.1269 9.91544 27.5339 10.54 27.7932 11.2297C28.0489 11.8872 28.2236 12.6384 28.2739 13.7387C28.3241 14.8409 28.3359 15.193 28.3359 18C28.3359 20.807 28.3241 21.1591 28.2736 22.2613Z" fill="white" fill-opacity="0.45"/>
</svg>
