<svg width="68" height="61" viewBox="0 0 68 61" fill="none" xmlns="http://www.w3.org/2000/svg">
<path d="M3.08614 25.0669L29.4415 3.85649C30.9643 2.63127 32.7714 1.98853 34.7004 1.98853C39.3298 1.98853 43.1064 5.70436 43.1064 10.2839V11.4087H54.274C59.411 11.4087 63.5938 15.5463 63.5938 20.628V43.4854C63.5938 48.5671 59.411 52.7047 54.274 52.7047H43.1064C43.0861 57.2641 39.3298 60.98 34.7004 60.98C32.7714 60.98 30.9643 60.3372 29.4415 59.112L3.08614 37.9016C1.1166 36.3148 -0.000148773 33.9849 -0.000148773 31.4742C-0.000148773 28.9836 1.1166 26.6336 3.08614 25.0669Z" fill="#00B1EA"/>
<path d="M52.7105 11.4087H54.274C59.411 11.4087 63.5938 15.5463 63.5938 20.628V43.4854C63.5938 48.5671 59.411 52.7047 54.274 52.7047H52.4668L52.7105 11.4087Z" fill="#80E0FF"/>
<path d="M3.08661 23.0784L29.4419 1.86796C30.9648 0.64274 32.7719 0 34.7008 0C39.3303 0 43.1069 3.71584 43.1069 8.29536V9.42015C43.1069 9.42015 48.7922 11.3685 52.3252 11.4086L51.8785 52.7046C51.8785 52.7046 46.6196 52.3833 43.1272 50.7162C43.1272 55.2756 39.3506 58.9914 34.7211 58.9914C32.7922 58.9914 30.9851 58.3487 29.4622 57.1235L3.08661 35.9332C1.11707 34.3464 0.00031662 32.0165 0.00031662 29.5058C0.00031662 26.9951 1.11707 24.6651 3.08661 23.0784Z" fill="#BDEFFF"/>
<g opacity="0.6">
<g opacity="0.6">
<path opacity="0.6" d="M60.5279 23.8016C60.6497 23.3798 61.9086 22.0943 61.8477 22.4558C61.8071 22.7973 62.8223 23.7815 62.8223 23.7815L63.8985 22.6969C63.8985 22.6969 64.8934 24.6251 65.0558 24.2836C65.2183 23.9623 66.8223 22.9981 66.8223 22.9981C65.7056 32.0367 68 41.6778 68 41.6778C68 41.6778 66.4569 39.8701 66.2538 40.1713C66.0305 40.4726 66.0102 41.7782 66.0102 41.7782C65.5025 41.4769 63.9594 40.1914 63.9594 40.1914L63.0051 41.6175C63.0051 41.6175 62.2538 40.1312 62.0914 40.0107C61.9086 39.8901 61.1168 40.8543 61.1168 40.8543C58.5787 34.8888 59.3096 22.3755 59.3096 22.3755C59.3096 22.3755 60.4061 24.2234 60.5279 23.8016Z" fill="#EE559C"/>
</g>
</g>
</svg>
