<svg width="100%" height="100%" viewBox="0 0 18 18" fill="none" xmlns="http://www.w3.org/2000/svg">
<path d="M17.3493 13.4794L14.1656 10.2956C12.9941 9.12488 11.0958 9.12488 9.92433 10.2956L9.18708 11.0329C8.38758 11.7589 7.87908 12.7489 7.75383 13.8214C7.72834 14.1416 7.74558 14.4641 7.80558 14.7799C5.80008 13.8109 4.18158 12.1909 3.21408 10.1839C4.61808 10.4059 6.03709 9.88763 6.96858 8.81438L7.70434 8.07863C8.87583 6.90713 8.87583 5.00738 7.70434 3.83588L4.52058 0.650625C3.65358 -0.216375 2.24808 -0.217125 1.38108 0.649875C1.17108 0.859875 1.00533 1.10963 0.893585 1.38488C-0.941665 5.87888 0.0993348 11.0351 3.53508 14.4649C5.80533 16.7104 8.86384 17.9786 12.0566 17.9996C13.6188 17.9981 15.1668 17.6951 16.6143 17.1064C17.7506 16.6451 18.2981 15.3506 17.8368 14.2144C17.7251 13.9391 17.5593 13.6894 17.3493 13.4794Z" fill="#1C1719" fill-opacity="0.55"/>
</svg>
