<?xml version="1.0"?>
<svg xmlns="http://www.w3.org/2000/svg" xmlns:xlink="http://www.w3.org/1999/xlink" version="1.1" id="Layer_1" x="0px" y="0px" viewBox="0 0 512 512" style="enable-background:new 0 0 512 512;" xml:space="preserve" width="512px" height="512px" class=""><g><g>
	<g>
		<path d="M413.485,311.177c0,0,0,0-0.001-0.001c-8.177-8.178-19.06-12.682-30.646-12.682s-22.469,4.504-30.646,12.682    l-52.852,52.852V43.339C299.341,19.443,279.898,0,256.001,0s-43.341,19.443-43.34,43.339v320.687l-52.852-52.852    c-16.897-16.896-44.392-16.898-61.292-0.001c-8.186,8.187-12.694,19.07-12.694,30.648c0,11.577,4.508,22.461,12.694,30.646    l126.837,126.837c8.185,8.187,19.068,12.696,30.648,12.696s22.463-4.509,30.647-12.695l126.837-126.836    c8.186-8.187,12.694-19.069,12.694-30.647C426.178,330.245,421.67,319.362,413.485,311.177z M399.061,358.043L272.222,484.88    c-4.332,4.334-10.092,6.72-16.222,6.72c-6.13,0-11.89-2.387-16.223-6.721L112.939,358.042c-4.333-4.333-6.719-10.093-6.719-16.221    c0-6.129,2.387-11.89,6.719-16.222c4.472-4.472,10.348-6.708,16.223-6.708c5.875,0,11.75,2.236,16.222,6.708l70.264,70.263    c2.916,2.917,7.304,3.789,11.114,2.21c3.81-1.578,6.296-5.296,6.296-9.422V43.339c0-12.649,10.292-22.941,22.942-22.941    s22.942,10.292,22.942,22.941v345.311c0,4.126,2.484,7.844,6.296,9.422c3.809,1.579,8.197,0.708,11.114-2.21l70.264-70.263    c4.324-4.325,10.085-6.707,16.222-6.707c6.137,0,11.898,2.382,16.222,6.706c0.001,0.001,0.001,0.001,0.001,0.001    c4.333,4.333,6.719,10.093,6.719,16.222C405.781,347.949,403.394,353.71,399.061,358.043z" data-original="#000000" class="active-path" data-old_color="#000000" fill="#FF8300"/>
	</g>
</g><g>
	<g>
		<path d="M341.26,387.524c-3.984-3.982-10.442-3.982-14.425,0l-2.023,2.023c-3.983,3.984-3.983,10.442,0,14.425    c1.991,1.991,4.602,2.987,7.212,2.987c2.61,0,5.221-0.996,7.213-2.987l2.023-2.022    C345.243,397.965,345.243,391.507,341.26,387.524z" data-original="#000000" class="active-path" data-old_color="#000000" fill="#FF8300"/>
	</g>
</g><g>
	<g>
		<path d="M319.488,409.293c-3.983-3.982-10.441-3.982-14.424,0l-53.274,53.276c-3.984,3.984-3.983,10.442,0,14.425    c1.992,1.991,4.602,2.987,7.212,2.987s5.221-0.995,7.212-2.987l53.275-53.276C323.472,419.734,323.471,413.276,319.488,409.293z" data-original="#000000" class="active-path" data-old_color="#000000" fill="#FF8300"/>
	</g>
</g></g> </svg>
