<svg width="100%" height="100%" viewBox="0 0 36 32" fill="none" xmlns="http://www.w3.org/2000/svg">
<path d="M34.2 16.0004H33.6V3.40039C33.5981 1.74439 32.256 0.402341 30.6 0.400391H5.4C3.744 0.402341 2.40195 1.74439 2.4 3.40039V12.4004H1.8C0.805875 12.4004 0 13.2063 0 14.2004V29.8004C0 30.7945 0.805875 31.6004 1.8 31.6004H24.6C24.9314 31.6004 25.2 31.3317 25.2 31.0004C25.1981 29.3444 23.856 28.0023 22.2 28.0004H20.4V24.4004H27.6V29.8004C27.6 30.7945 28.4059 31.6004 29.4 31.6004H34.2C35.1941 31.6004 36 30.7945 36 29.8004V17.8004C36 16.8063 35.1941 16.0004 34.2 16.0004ZM13.2 29.8004C13.2 30.1317 12.9314 30.4004 12.6 30.4004H1.8C1.46865 30.4004 1.2 30.1317 1.2 29.8004V29.2004H13.2V29.8004ZM13.2 28.0004H1.2V14.2004C1.2 13.869 1.46865 13.6004 1.8 13.6004H12.6C12.9314 13.6004 13.2 13.869 13.2 14.2004V28.0004ZM22.2 29.2004C22.9626 29.2013 23.6422 29.6817 23.8974 30.4004H14.2896C14.3607 30.2082 14.398 30.0053 14.4 29.8004V29.2004H22.2ZM14.4 28.0004V24.4004H15.6V28.0004H14.4ZM16.8 28.0004V24.4004H19.2V28.0004H16.8ZM27.6 23.2004H14.4V19.6004H27.6V23.2004ZM27.6 17.8004V18.4004H14.4V14.2004C14.398 13.9157 14.3276 13.6356 14.1948 13.3838C14.2038 13.3754 14.2158 13.373 14.2242 13.364L20.1642 7.42399C20.3944 7.18564 20.3879 6.80576 20.1495 6.57559C19.917 6.35104 19.5484 6.35104 19.3158 6.57559L13.3758 12.5156C13.3614 12.5306 13.3554 12.5498 13.3428 12.5654C13.11 12.4574 12.8566 12.4011 12.6 12.4004H3.6V3.40039C3.6 2.40627 4.40588 1.60039 5.4 1.60039H30.6C31.5941 1.60039 32.4 2.40627 32.4 3.40039V16.0004H29.4C28.4059 16.0004 27.6 16.8063 27.6 17.8004ZM34.8 29.8004C34.8 30.1317 34.5314 30.4004 34.2 30.4004H29.4C29.0687 30.4004 28.8 30.1317 28.8 29.8004V29.2004H34.8V29.8004ZM34.8 28.0004H28.8V17.8004C28.8 17.469 29.0687 17.2004 29.4 17.2004H34.2C34.5314 17.2004 34.8 17.469 34.8 17.8004V28.0004Z" fill="#FFE4F1"/>
</svg>
