<svg width="68" height="61" viewBox="0 0 68 61" fill="none" xmlns="http://www.w3.org/2000/svg">
<path d="M64.9139 25.0669L38.5585 3.85649C37.0357 2.63127 35.2286 1.98853 33.2996 1.98853C28.6702 1.98853 24.8936 5.70436 24.8936 10.2839V11.4087H13.726C8.58899 11.4087 4.40625 15.5463 4.40625 20.628V43.4854C4.40625 48.5671 8.58899 52.7047 13.726 52.7047H24.8936C24.9139 57.2641 28.6702 60.98 33.2996 60.98C35.2286 60.98 37.0357 60.3372 38.5585 59.112L64.9139 37.9016C66.8834 36.3148 68.0001 33.9849 68.0001 31.4742C68.0001 28.9836 66.8834 26.6336 64.9139 25.0669Z" fill="#00B1EA"/>
<path d="M15.2895 11.4087H13.726C8.58899 11.4087 4.40625 15.5463 4.40625 20.628V43.4854C4.40625 48.5671 8.58899 52.7047 13.726 52.7047H15.5332L15.2895 11.4087Z" fill="#80E0FF"/>
<path d="M64.9134 23.0784L38.5581 1.86796C37.0352 0.64274 35.2281 0 33.2992 0C28.6697 0 24.8931 3.71584 24.8931 8.29536V9.42015C24.8931 9.42015 19.2078 11.3685 15.6748 11.4086L16.1215 52.7046C16.1215 52.7046 21.3804 52.3833 24.8728 50.7162C24.8728 55.2756 28.6494 58.9914 33.2789 58.9914C35.2078 58.9914 37.0149 58.3487 38.5378 57.1235L64.9134 35.9332C66.8829 34.3464 67.9997 32.0165 67.9997 29.5058C67.9997 26.9951 66.8829 24.6651 64.9134 23.0784Z" fill="#BDEFFF"/>
<g opacity="0.6">
<g opacity="0.6">
<path opacity="0.6" d="M7.47208 23.8016C7.35025 23.3798 6.09137 22.0943 6.15228 22.4558C6.19289 22.7973 5.17767 23.7815 5.17767 23.7815L4.10152 22.6969C4.10152 22.6969 3.1066 24.6251 2.94416 24.2836C2.78173 23.9623 1.17767 22.9981 1.17767 22.9981C2.29442 32.0367 0 41.6778 0 41.6778C0 41.6778 1.54315 39.8701 1.74619 40.1713C1.96954 40.4726 1.98985 41.7782 1.98985 41.7782C2.49746 41.4769 4.04061 40.1914 4.04061 40.1914L4.99492 41.6175C4.99492 41.6175 5.74619 40.1312 5.90863 40.0107C6.09137 39.8901 6.88325 40.8543 6.88325 40.8543C9.42132 34.8888 8.69036 22.3755 8.69036 22.3755C8.69036 22.3755 7.59391 24.2234 7.47208 23.8016Z" fill="#EE559C"/>
</g>
</g>
</svg>
