<svg width="100%" height="100%" viewBox="0 0 36 36" fill="none" xmlns="http://www.w3.org/2000/svg">
<path d="M31.7812 12.094C31.6389 12.094 31.4981 12.1013 31.3592 12.1152V6.32827C31.3592 2.83887 28.5204 0 25.031 0H10.9685C7.47921 0 4.64048 2.83887 4.64048 6.32827V12.1152C4.50162 12.1013 4.36099 12.094 4.21861 12.094C1.89253 12.094 0 13.9864 0 16.3126C0 17.764 0.731953 19.0956 1.95806 19.8752L2.02957 19.9206C2.87416 20.4574 3.22214 20.6868 3.35672 20.9783C3.51837 21.3289 3.51752 22.0131 3.51591 23.2551L3.51562 31.0781C3.51562 32.241 4.46182 33.1871 5.62486 33.1874V33.8908C5.62486 35.0538 6.57105 36 7.73409 36C8.89727 36 9.84361 35.0538 9.84361 33.8908V33.1874H26.1562V33.8908C26.1562 35.0538 27.1026 36 28.2658 36C29.4289 36 30.3751 35.0538 30.3751 33.8908V33.1874C31.5382 33.1871 32.4841 32.241 32.4841 31.0781V26.8764C32.4842 26.8706 32.4844 26.865 32.4844 26.8592L32.484 23.255C32.4823 22.013 32.4815 21.3288 32.6431 20.9784C32.7777 20.6868 33.1258 20.4574 33.9704 19.9207L34.042 19.8751C35.268 19.0956 36 17.7638 36 16.3126C36 13.9864 34.1075 12.094 31.7812 12.094ZM6.04673 6.32827C6.04673 3.6142 8.25455 1.40625 10.9685 1.40625H25.031C27.745 1.40625 29.953 3.6142 29.953 6.32827V12.5113C28.5398 13.1941 27.5626 14.6429 27.5626 16.3193V18.0268C24.4484 17.1605 21.2363 16.7204 17.9999 16.7204C14.7636 16.7204 11.5514 17.1605 8.43722 18.0268V16.3266C8.43736 16.322 8.43736 16.3173 8.43736 16.3126C8.43736 14.641 7.46002 13.1934 6.04673 12.511V6.32827ZM27.5626 19.488V22.6406C27.5626 23.0283 27.2472 23.3438 26.8595 23.3438H9.14048C8.75264 23.3438 8.43722 23.0283 8.43722 22.6406V19.4881C11.5462 18.585 14.7604 18.1266 17.9999 18.1266C21.2394 18.1266 24.4538 18.5851 27.5626 19.488ZM8.43736 33.8908C8.43736 34.2785 8.12194 34.5938 7.73409 34.5938C7.34639 34.5938 7.03111 34.2785 7.03111 33.8908V33.1874H8.43736V33.8908ZM28.9689 33.8908C28.9689 34.2785 28.6535 34.5938 28.2658 34.5938C27.8779 34.5938 27.5625 34.2785 27.5625 33.8908V33.1874H28.9689V33.8908ZM33.2875 18.6884L33.2162 18.7338C32.2253 19.3634 31.6795 19.7104 31.3662 20.3893C31.0747 21.021 31.0757 21.7682 31.0776 23.2568L31.0781 26.8421C31.0779 26.8477 31.0778 26.8535 31.0778 26.8592V31.0781C31.0778 31.4658 30.7624 31.7811 30.3746 31.7811H29.6719H26.8594H9.14048H6.32798H5.62528C5.23744 31.7811 4.92188 31.4658 4.92188 31.0781L4.92173 26.8592L4.92216 23.2568C4.92405 21.7682 4.92504 21.021 4.63359 20.3893C4.32035 19.7104 3.77459 19.3634 2.78374 18.7338L2.71245 18.6884C1.89457 18.1684 1.40625 17.2803 1.40625 16.3126C1.40625 14.7619 2.66787 13.5003 4.21861 13.5003C5.7671 13.5003 7.02724 14.7581 7.03111 16.3055C7.03111 16.31 7.03097 16.3147 7.03097 16.3192V18.957C7.03097 18.9595 7.03097 18.9618 7.03097 18.9643V22.6406C7.03097 23.8037 7.9773 24.75 9.14048 24.75H26.8595C28.0226 24.75 28.9689 23.8037 28.9689 22.6406V18.9674C28.9689 18.9631 28.9689 18.9587 28.9689 18.9544V16.3126C28.9689 14.7619 30.2305 13.5003 31.7812 13.5003C33.332 13.5003 34.5938 14.7619 34.5938 16.3126C34.5938 17.2803 34.1054 18.1684 33.2875 18.6884Z" fill="#FFE4F1"/>
<path d="M20.1037 28.9688H20.0703C19.682 28.9688 19.3672 29.2835 19.3672 29.6719C19.3672 30.0601 19.682 30.375 20.0703 30.375H20.1037C20.492 30.375 20.8068 30.0601 20.8068 29.6719C20.8068 29.2835 20.4921 28.9688 20.1037 28.9688Z" fill="#FFE4F1"/>
<path d="M26.8595 28.9688H22.1484C21.7601 28.9688 21.4453 29.2835 21.4453 29.6719C21.4453 30.0601 21.7601 30.375 22.1484 30.375H26.8595C27.2477 30.375 27.5626 30.0601 27.5626 29.6719C27.5626 29.2835 27.2477 28.9688 26.8595 28.9688Z" fill="#FFE4F1"/>
<path d="M15.68 2.8125H10.9688C10.5806 2.8125 10.2656 3.12743 10.2656 3.51562C10.2656 3.90396 10.5806 4.21875 10.9688 4.21875H15.68C16.0682 4.21875 16.3831 3.90396 16.3831 3.51562C16.3831 3.12743 16.0682 2.8125 15.68 2.8125Z" fill="#FFE4F1"/>
<path d="M17.758 2.8125H17.7246C17.3364 2.8125 17.0215 3.12743 17.0215 3.51562C17.0215 3.90396 17.3364 4.21875 17.7246 4.21875H17.758C18.1463 4.21875 18.4611 3.90396 18.4611 3.51562C18.4611 3.12743 18.1463 2.8125 17.758 2.8125Z" fill="#FFE4F1"/>
</svg>
