<?xml version="1.0"?>
<svg xmlns="http://www.w3.org/2000/svg" xmlns:xlink="http://www.w3.org/1999/xlink" version="1.1" id="Layer_1" x="0px" y="0px" viewBox="0 0 512 512" style="enable-background:new 0 0 512 512;" xml:space="preserve" width="512px" height="512px"><g><g>
	<g>
		<path d="M398.841,138.616L263.212,2.987C261.3,1.075,258.705,0,256,0c-2.705,0-5.3,1.075-7.213,2.987L113.159,138.616    c-2.916,2.917-3.789,7.304-2.21,11.115c1.579,3.81,5.299,6.296,9.423,6.296h71.434v345.773c0,5.632,4.566,10.199,10.199,10.199    h107.991c5.633,0,10.199-4.567,10.198-10.199V156.027h71.434c4.126,0,7.844-2.486,9.423-6.296    C402.63,145.92,401.758,141.533,398.841,138.616z M309.997,135.629c-5.633,0-10.199,4.567-10.199,10.199v345.773h-87.594h-0.001    V145.828c0-5.632-4.566-10.199-10.199-10.199h-57.009L256,24.624l111.006,111.005H309.997z" data-original="#000000" class="active-path" data-old_color="#000000" fill="#ECECEC"/>
	</g>
</g><g>
	<g>
		<path d="M277.419,352.653c-5.633,0-10.199,4.567-10.199,10.199V467.44c0,5.632,4.566,10.199,10.199,10.199    s10.199-4.567,10.199-10.199V362.852C287.618,357.22,283.052,352.653,277.419,352.653z" data-original="#000000" class="active-path" data-old_color="#000000" fill="#ECECEC"/>
	</g>
</g><g>
	<g>
		<path d="M277.419,313.116c-5.633,0-10.199,4.567-10.199,10.199v6.436c0,5.632,4.566,10.199,10.199,10.199    s10.199-4.567,10.199-10.199v-6.436C287.618,317.683,283.052,313.116,277.419,313.116z" data-original="#000000" class="active-path" data-old_color="#000000" fill="#ECECEC"/>
	</g>
</g></g> </svg>
